<?xml version="1.0" encoding="utf-8" standalone="no"?>
<!DOCTYPE svg PUBLIC "-//W3C//DTD SVG 1.1//EN"
  "http://www.w3.org/Graphics/SVG/1.1/DTD/svg11.dtd">
<!-- Created with matplotlib (https://matplotlib.org/) -->
<svg height="360pt" version="1.1" viewBox="0 0 576 360" width="576pt" xmlns="http://www.w3.org/2000/svg" xmlns:xlink="http://www.w3.org/1999/xlink">
 <defs>
  <style type="text/css">
*{stroke-linecap:butt;stroke-linejoin:round;}
  </style>
 </defs>
 <g id="figure_1">
  <g id="patch_1">
   <path d="M 0 360 
L 576 360 
L 576 0 
L 0 0 
z
" style="fill:#ffffff;"/>
  </g>
  <g id="axes_1">
   <g id="patch_2">
    <path d="M 46.08 288 
L 547.2 288 
L 547.2 43.2 
L 46.08 43.2 
z
" style="fill:#ffffff;"/>
   </g>
   <g id="matplotlib.axis_1">
    <g id="xtick_1">
     <g id="line2d_1">
      <path clip-path="url(#p70680cc38d)" d="M 46.08 288 
L 46.08 43.2 
" style="fill:none;stroke:#cccccc;stroke-linecap:round;"/>
     </g>
     <g id="line2d_2"/>
     <g id="text_1">
      <!-- 2007-01 -->
      <defs>
       <path d="M 50.34375 8.453125 
L 50.34375 0 
L 3.03125 0 
Q 2.9375 3.171875 4.046875 6.109375 
Q 5.859375 10.9375 9.828125 15.625 
Q 13.8125 20.3125 21.34375 26.46875 
Q 33.015625 36.03125 37.109375 41.625 
Q 41.21875 47.21875 41.21875 52.203125 
Q 41.21875 57.421875 37.46875 61 
Q 33.734375 64.59375 27.734375 64.59375 
Q 21.390625 64.59375 17.578125 60.78125 
Q 13.765625 56.984375 13.71875 50.25 
L 4.6875 51.171875 
Q 5.609375 61.28125 11.65625 66.578125 
Q 17.71875 71.875 27.9375 71.875 
Q 38.234375 71.875 44.234375 66.15625 
Q 50.25 60.453125 50.25 52 
Q 50.25 47.703125 48.484375 43.546875 
Q 46.734375 39.40625 42.65625 34.8125 
Q 38.578125 30.21875 29.109375 22.21875 
Q 21.1875 15.578125 18.9375 13.203125 
Q 16.703125 10.84375 15.234375 8.453125 
z
" id="ArialMT-50"/>
       <path d="M 4.15625 35.296875 
Q 4.15625 48 6.765625 55.734375 
Q 9.375 63.484375 14.515625 67.671875 
Q 19.671875 71.875 27.484375 71.875 
Q 33.25 71.875 37.59375 69.546875 
Q 41.9375 67.234375 44.765625 62.859375 
Q 47.609375 58.5 49.21875 52.21875 
Q 50.828125 45.953125 50.828125 35.296875 
Q 50.828125 22.703125 48.234375 14.96875 
Q 45.65625 7.234375 40.5 3 
Q 35.359375 -1.21875 27.484375 -1.21875 
Q 17.140625 -1.21875 11.234375 6.203125 
Q 4.15625 15.140625 4.15625 35.296875 
z
M 13.1875 35.296875 
Q 13.1875 17.671875 17.3125 11.828125 
Q 21.4375 6 27.484375 6 
Q 33.546875 6 37.671875 11.859375 
Q 41.796875 17.71875 41.796875 35.296875 
Q 41.796875 52.984375 37.671875 58.78125 
Q 33.546875 64.59375 27.390625 64.59375 
Q 21.34375 64.59375 17.71875 59.46875 
Q 13.1875 52.9375 13.1875 35.296875 
z
" id="ArialMT-48"/>
       <path d="M 4.734375 62.203125 
L 4.734375 70.65625 
L 51.078125 70.65625 
L 51.078125 63.8125 
Q 44.234375 56.546875 37.515625 44.484375 
Q 30.8125 32.421875 27.15625 19.671875 
Q 24.515625 10.6875 23.78125 0 
L 14.75 0 
Q 14.890625 8.453125 18.0625 20.40625 
Q 21.234375 32.375 27.171875 43.484375 
Q 33.109375 54.59375 39.796875 62.203125 
z
" id="ArialMT-55"/>
       <path d="M 3.171875 21.484375 
L 3.171875 30.328125 
L 30.171875 30.328125 
L 30.171875 21.484375 
z
" id="ArialMT-45"/>
       <path d="M 37.25 0 
L 28.46875 0 
L 28.46875 56 
Q 25.296875 52.984375 20.140625 49.953125 
Q 14.984375 46.921875 10.890625 45.40625 
L 10.890625 53.90625 
Q 18.265625 57.375 23.78125 62.296875 
Q 29.296875 67.234375 31.59375 71.875 
L 37.25 71.875 
z
" id="ArialMT-49"/>
      </defs>
      <g style="fill:#262626;" transform="translate(3.47533 329.010455)rotate(-30)scale(0.13 -0.13)">
       <use xlink:href="#ArialMT-50"/>
       <use x="55.615234" xlink:href="#ArialMT-48"/>
       <use x="111.230469" xlink:href="#ArialMT-48"/>
       <use x="166.845703" xlink:href="#ArialMT-55"/>
       <use x="222.460938" xlink:href="#ArialMT-45"/>
       <use x="255.761719" xlink:href="#ArialMT-48"/>
       <use x="311.376953" xlink:href="#ArialMT-49"/>
      </g>
     </g>
    </g>
    <g id="xtick_2">
     <g id="line2d_3">
      <path clip-path="url(#p70680cc38d)" d="M 108.162628 288 
L 108.162628 43.2 
" style="fill:none;stroke:#cccccc;stroke-linecap:round;"/>
     </g>
     <g id="line2d_4"/>
     <g id="text_2">
      <!-- 2007-07 -->
      <g style="fill:#262626;" transform="translate(65.557959 329.010455)rotate(-30)scale(0.13 -0.13)">
       <use xlink:href="#ArialMT-50"/>
       <use x="55.615234" xlink:href="#ArialMT-48"/>
       <use x="111.230469" xlink:href="#ArialMT-48"/>
       <use x="166.845703" xlink:href="#ArialMT-55"/>
       <use x="222.460938" xlink:href="#ArialMT-45"/>
       <use x="255.761719" xlink:href="#ArialMT-48"/>
       <use x="311.376953" xlink:href="#ArialMT-55"/>
      </g>
     </g>
    </g>
    <g id="xtick_3">
     <g id="line2d_5">
      <path clip-path="url(#p70680cc38d)" d="M 171.274251 288 
L 171.274251 43.2 
" style="fill:none;stroke:#cccccc;stroke-linecap:round;"/>
     </g>
     <g id="line2d_6"/>
     <g id="text_3">
      <!-- 2008-01 -->
      <defs>
       <path d="M 17.671875 38.8125 
Q 12.203125 40.828125 9.5625 44.53125 
Q 6.9375 48.25 6.9375 53.421875 
Q 6.9375 61.234375 12.546875 66.546875 
Q 18.171875 71.875 27.484375 71.875 
Q 36.859375 71.875 42.578125 66.421875 
Q 48.296875 60.984375 48.296875 53.171875 
Q 48.296875 48.1875 45.671875 44.5 
Q 43.0625 40.828125 37.75 38.8125 
Q 44.34375 36.671875 47.78125 31.875 
Q 51.21875 27.09375 51.21875 20.453125 
Q 51.21875 11.28125 44.71875 5.03125 
Q 38.234375 -1.21875 27.640625 -1.21875 
Q 17.046875 -1.21875 10.546875 5.046875 
Q 4.046875 11.328125 4.046875 20.703125 
Q 4.046875 27.6875 7.59375 32.390625 
Q 11.140625 37.109375 17.671875 38.8125 
z
M 15.921875 53.71875 
Q 15.921875 48.640625 19.1875 45.40625 
Q 22.46875 42.1875 27.6875 42.1875 
Q 32.765625 42.1875 36.015625 45.375 
Q 39.265625 48.578125 39.265625 53.21875 
Q 39.265625 58.0625 35.90625 61.359375 
Q 32.5625 64.65625 27.59375 64.65625 
Q 22.5625 64.65625 19.234375 61.421875 
Q 15.921875 58.203125 15.921875 53.71875 
z
M 13.09375 20.65625 
Q 13.09375 16.890625 14.875 13.375 
Q 16.65625 9.859375 20.171875 7.921875 
Q 23.6875 6 27.734375 6 
Q 34.03125 6 38.125 10.046875 
Q 42.234375 14.109375 42.234375 20.359375 
Q 42.234375 26.703125 38.015625 30.859375 
Q 33.796875 35.015625 27.4375 35.015625 
Q 21.234375 35.015625 17.15625 30.90625 
Q 13.09375 26.8125 13.09375 20.65625 
z
" id="ArialMT-56"/>
      </defs>
      <g style="fill:#262626;" transform="translate(128.669581 329.010455)rotate(-30)scale(0.13 -0.13)">
       <use xlink:href="#ArialMT-50"/>
       <use x="55.615234" xlink:href="#ArialMT-48"/>
       <use x="111.230469" xlink:href="#ArialMT-48"/>
       <use x="166.845703" xlink:href="#ArialMT-56"/>
       <use x="222.460938" xlink:href="#ArialMT-45"/>
       <use x="255.761719" xlink:href="#ArialMT-48"/>
       <use x="311.376953" xlink:href="#ArialMT-49"/>
      </g>
     </g>
    </g>
    <g id="xtick_4">
     <g id="line2d_7">
      <path clip-path="url(#p70680cc38d)" d="M 233.699877 288 
L 233.699877 43.2 
" style="fill:none;stroke:#cccccc;stroke-linecap:round;"/>
     </g>
     <g id="line2d_8"/>
     <g id="text_4">
      <!-- 2008-07 -->
      <g style="fill:#262626;" transform="translate(191.095207 329.010455)rotate(-30)scale(0.13 -0.13)">
       <use xlink:href="#ArialMT-50"/>
       <use x="55.615234" xlink:href="#ArialMT-48"/>
       <use x="111.230469" xlink:href="#ArialMT-48"/>
       <use x="166.845703" xlink:href="#ArialMT-56"/>
       <use x="222.460938" xlink:href="#ArialMT-45"/>
       <use x="255.761719" xlink:href="#ArialMT-48"/>
       <use x="311.376953" xlink:href="#ArialMT-55"/>
      </g>
     </g>
    </g>
    <g id="xtick_5">
     <g id="line2d_9">
      <path clip-path="url(#p70680cc38d)" d="M 296.811499 288 
L 296.811499 43.2 
" style="fill:none;stroke:#cccccc;stroke-linecap:round;"/>
     </g>
     <g id="line2d_10"/>
     <g id="text_5">
      <!-- 2009-01 -->
      <defs>
       <path d="M 5.46875 16.546875 
L 13.921875 17.328125 
Q 14.984375 11.375 18.015625 8.6875 
Q 21.046875 6 25.78125 6 
Q 29.828125 6 32.875 7.859375 
Q 35.9375 9.71875 37.890625 12.8125 
Q 39.84375 15.921875 41.15625 21.1875 
Q 42.484375 26.46875 42.484375 31.9375 
Q 42.484375 32.515625 42.4375 33.6875 
Q 39.796875 29.5 35.234375 26.875 
Q 30.671875 24.265625 25.34375 24.265625 
Q 16.453125 24.265625 10.296875 30.703125 
Q 4.15625 37.15625 4.15625 47.703125 
Q 4.15625 58.59375 10.578125 65.234375 
Q 17 71.875 26.65625 71.875 
Q 33.640625 71.875 39.421875 68.109375 
Q 45.21875 64.359375 48.21875 57.390625 
Q 51.21875 50.4375 51.21875 37.25 
Q 51.21875 23.53125 48.234375 15.40625 
Q 45.265625 7.28125 39.375 3.03125 
Q 33.5 -1.21875 25.59375 -1.21875 
Q 17.1875 -1.21875 11.859375 3.4375 
Q 6.546875 8.109375 5.46875 16.546875 
z
M 41.453125 48.140625 
Q 41.453125 55.71875 37.421875 60.15625 
Q 33.40625 64.59375 27.734375 64.59375 
Q 21.875 64.59375 17.53125 59.8125 
Q 13.1875 55.03125 13.1875 47.40625 
Q 13.1875 40.578125 17.3125 36.296875 
Q 21.4375 32.03125 27.484375 32.03125 
Q 33.59375 32.03125 37.515625 36.296875 
Q 41.453125 40.578125 41.453125 48.140625 
z
" id="ArialMT-57"/>
      </defs>
      <g style="fill:#262626;" transform="translate(254.206829 329.010455)rotate(-30)scale(0.13 -0.13)">
       <use xlink:href="#ArialMT-50"/>
       <use x="55.615234" xlink:href="#ArialMT-48"/>
       <use x="111.230469" xlink:href="#ArialMT-48"/>
       <use x="166.845703" xlink:href="#ArialMT-57"/>
       <use x="222.460938" xlink:href="#ArialMT-45"/>
       <use x="255.761719" xlink:href="#ArialMT-48"/>
       <use x="311.376953" xlink:href="#ArialMT-49"/>
      </g>
     </g>
    </g>
    <g id="xtick_6">
     <g id="line2d_11">
      <path clip-path="url(#p70680cc38d)" d="M 358.894127 288 
L 358.894127 43.2 
" style="fill:none;stroke:#cccccc;stroke-linecap:round;"/>
     </g>
     <g id="line2d_12"/>
     <g id="text_6">
      <!-- 2009-07 -->
      <g style="fill:#262626;" transform="translate(316.289458 329.010455)rotate(-30)scale(0.13 -0.13)">
       <use xlink:href="#ArialMT-50"/>
       <use x="55.615234" xlink:href="#ArialMT-48"/>
       <use x="111.230469" xlink:href="#ArialMT-48"/>
       <use x="166.845703" xlink:href="#ArialMT-57"/>
       <use x="222.460938" xlink:href="#ArialMT-45"/>
       <use x="255.761719" xlink:href="#ArialMT-48"/>
       <use x="311.376953" xlink:href="#ArialMT-55"/>
      </g>
     </g>
    </g>
    <g id="xtick_7">
     <g id="line2d_13">
      <path clip-path="url(#p70680cc38d)" d="M 422.005749 288 
L 422.005749 43.2 
" style="fill:none;stroke:#cccccc;stroke-linecap:round;"/>
     </g>
     <g id="line2d_14"/>
     <g id="text_7">
      <!-- 2010-01 -->
      <g style="fill:#262626;" transform="translate(379.40108 329.010455)rotate(-30)scale(0.13 -0.13)">
       <use xlink:href="#ArialMT-50"/>
       <use x="55.615234" xlink:href="#ArialMT-48"/>
       <use x="111.230469" xlink:href="#ArialMT-49"/>
       <use x="166.845703" xlink:href="#ArialMT-48"/>
       <use x="222.460938" xlink:href="#ArialMT-45"/>
       <use x="255.761719" xlink:href="#ArialMT-48"/>
       <use x="311.376953" xlink:href="#ArialMT-49"/>
      </g>
     </g>
    </g>
    <g id="xtick_8">
     <g id="line2d_15">
      <path clip-path="url(#p70680cc38d)" d="M 484.088378 288 
L 484.088378 43.2 
" style="fill:none;stroke:#cccccc;stroke-linecap:round;"/>
     </g>
     <g id="line2d_16"/>
     <g id="text_8">
      <!-- 2010-07 -->
      <g style="fill:#262626;" transform="translate(441.483708 329.010455)rotate(-30)scale(0.13 -0.13)">
       <use xlink:href="#ArialMT-50"/>
       <use x="55.615234" xlink:href="#ArialMT-48"/>
       <use x="111.230469" xlink:href="#ArialMT-49"/>
       <use x="166.845703" xlink:href="#ArialMT-48"/>
       <use x="222.460938" xlink:href="#ArialMT-45"/>
       <use x="255.761719" xlink:href="#ArialMT-48"/>
       <use x="311.376953" xlink:href="#ArialMT-55"/>
      </g>
     </g>
    </g>
    <g id="xtick_9">
     <g id="line2d_17">
      <path clip-path="url(#p70680cc38d)" d="M 547.2 288 
L 547.2 43.2 
" style="fill:none;stroke:#cccccc;stroke-linecap:round;"/>
     </g>
     <g id="line2d_18"/>
     <g id="text_9">
      <!-- 2011-01 -->
      <g style="fill:#262626;" transform="translate(504.607644 329.003345)rotate(-30)scale(0.13 -0.13)">
       <use xlink:href="#ArialMT-50"/>
       <use x="55.615234" xlink:href="#ArialMT-48"/>
       <use x="111.230469" xlink:href="#ArialMT-49"/>
       <use x="166.736328" xlink:href="#ArialMT-49"/>
       <use x="222.351562" xlink:href="#ArialMT-45"/>
       <use x="255.652344" xlink:href="#ArialMT-48"/>
       <use x="311.267578" xlink:href="#ArialMT-49"/>
      </g>
     </g>
    </g>
   </g>
   <g id="matplotlib.axis_2">
    <g id="ytick_1">
     <g id="line2d_19">
      <path clip-path="url(#p70680cc38d)" d="M 46.08 288 
L 547.2 288 
" style="fill:none;stroke:#cccccc;stroke-linecap:round;"/>
     </g>
     <g id="line2d_20"/>
     <g id="text_10">
      <!-- 600 -->
      <defs>
       <path d="M 49.75 54.046875 
L 41.015625 53.375 
Q 39.84375 58.546875 37.703125 60.890625 
Q 34.125 64.65625 28.90625 64.65625 
Q 24.703125 64.65625 21.53125 62.3125 
Q 17.390625 59.28125 14.984375 53.46875 
Q 12.59375 47.65625 12.5 36.921875 
Q 15.671875 41.75 20.265625 44.09375 
Q 24.859375 46.4375 29.890625 46.4375 
Q 38.671875 46.4375 44.84375 39.96875 
Q 51.03125 33.5 51.03125 23.25 
Q 51.03125 16.5 48.125 10.71875 
Q 45.21875 4.9375 40.140625 1.859375 
Q 35.0625 -1.21875 28.609375 -1.21875 
Q 17.625 -1.21875 10.6875 6.859375 
Q 3.765625 14.9375 3.765625 33.5 
Q 3.765625 54.25 11.421875 63.671875 
Q 18.109375 71.875 29.4375 71.875 
Q 37.890625 71.875 43.28125 67.140625 
Q 48.6875 62.40625 49.75 54.046875 
z
M 13.875 23.1875 
Q 13.875 18.65625 15.796875 14.5 
Q 17.71875 10.359375 21.1875 8.171875 
Q 24.65625 6 28.46875 6 
Q 34.03125 6 38.03125 10.484375 
Q 42.046875 14.984375 42.046875 22.703125 
Q 42.046875 30.125 38.078125 34.390625 
Q 34.125 38.671875 28.125 38.671875 
Q 22.171875 38.671875 18.015625 34.390625 
Q 13.875 30.125 13.875 23.1875 
z
" id="ArialMT-54"/>
      </defs>
      <g style="fill:#262626;" transform="translate(15.292344 292.652578)scale(0.13 -0.13)">
       <use xlink:href="#ArialMT-54"/>
       <use x="55.615234" xlink:href="#ArialMT-48"/>
       <use x="111.230469" xlink:href="#ArialMT-48"/>
      </g>
     </g>
    </g>
    <g id="ytick_2">
     <g id="line2d_21">
      <path clip-path="url(#p70680cc38d)" d="M 46.08 247.2 
L 547.2 247.2 
" style="fill:none;stroke:#cccccc;stroke-linecap:round;"/>
     </g>
     <g id="line2d_22"/>
     <g id="text_11">
      <!-- 800 -->
      <g style="fill:#262626;" transform="translate(15.292344 251.852578)scale(0.13 -0.13)">
       <use xlink:href="#ArialMT-56"/>
       <use x="55.615234" xlink:href="#ArialMT-48"/>
       <use x="111.230469" xlink:href="#ArialMT-48"/>
      </g>
     </g>
    </g>
    <g id="ytick_3">
     <g id="line2d_23">
      <path clip-path="url(#p70680cc38d)" d="M 46.08 206.4 
L 547.2 206.4 
" style="fill:none;stroke:#cccccc;stroke-linecap:round;"/>
     </g>
     <g id="line2d_24"/>
     <g id="text_12">
      <!-- 1000 -->
      <g style="fill:#262626;" transform="translate(8.063125 211.052578)scale(0.13 -0.13)">
       <use xlink:href="#ArialMT-49"/>
       <use x="55.615234" xlink:href="#ArialMT-48"/>
       <use x="111.230469" xlink:href="#ArialMT-48"/>
       <use x="166.845703" xlink:href="#ArialMT-48"/>
      </g>
     </g>
    </g>
    <g id="ytick_4">
     <g id="line2d_25">
      <path clip-path="url(#p70680cc38d)" d="M 46.08 165.6 
L 547.2 165.6 
" style="fill:none;stroke:#cccccc;stroke-linecap:round;"/>
     </g>
     <g id="line2d_26"/>
     <g id="text_13">
      <!-- 1200 -->
      <g style="fill:#262626;" transform="translate(8.063125 170.252578)scale(0.13 -0.13)">
       <use xlink:href="#ArialMT-49"/>
       <use x="55.615234" xlink:href="#ArialMT-50"/>
       <use x="111.230469" xlink:href="#ArialMT-48"/>
       <use x="166.845703" xlink:href="#ArialMT-48"/>
      </g>
     </g>
    </g>
    <g id="ytick_5">
     <g id="line2d_27">
      <path clip-path="url(#p70680cc38d)" d="M 46.08 124.8 
L 547.2 124.8 
" style="fill:none;stroke:#cccccc;stroke-linecap:round;"/>
     </g>
     <g id="line2d_28"/>
     <g id="text_14">
      <!-- 1400 -->
      <defs>
       <path d="M 32.328125 0 
L 32.328125 17.140625 
L 1.265625 17.140625 
L 1.265625 25.203125 
L 33.9375 71.578125 
L 41.109375 71.578125 
L 41.109375 25.203125 
L 50.78125 25.203125 
L 50.78125 17.140625 
L 41.109375 17.140625 
L 41.109375 0 
z
M 32.328125 25.203125 
L 32.328125 57.46875 
L 9.90625 25.203125 
z
" id="ArialMT-52"/>
      </defs>
      <g style="fill:#262626;" transform="translate(8.063125 129.452578)scale(0.13 -0.13)">
       <use xlink:href="#ArialMT-49"/>
       <use x="55.615234" xlink:href="#ArialMT-52"/>
       <use x="111.230469" xlink:href="#ArialMT-48"/>
       <use x="166.845703" xlink:href="#ArialMT-48"/>
      </g>
     </g>
    </g>
    <g id="ytick_6">
     <g id="line2d_29">
      <path clip-path="url(#p70680cc38d)" d="M 46.08 84 
L 547.2 84 
" style="fill:none;stroke:#cccccc;stroke-linecap:round;"/>
     </g>
     <g id="line2d_30"/>
     <g id="text_15">
      <!-- 1600 -->
      <g style="fill:#262626;" transform="translate(8.063125 88.652578)scale(0.13 -0.13)">
       <use xlink:href="#ArialMT-49"/>
       <use x="55.615234" xlink:href="#ArialMT-54"/>
       <use x="111.230469" xlink:href="#ArialMT-48"/>
       <use x="166.845703" xlink:href="#ArialMT-48"/>
      </g>
     </g>
    </g>
    <g id="ytick_7">
     <g id="line2d_31">
      <path clip-path="url(#p70680cc38d)" d="M 46.08 43.2 
L 547.2 43.2 
" style="fill:none;stroke:#cccccc;stroke-linecap:round;"/>
     </g>
     <g id="line2d_32"/>
     <g id="text_16">
      <!-- 1800 -->
      <g style="fill:#262626;" transform="translate(8.063125 47.852578)scale(0.13 -0.13)">
       <use xlink:href="#ArialMT-49"/>
       <use x="55.615234" xlink:href="#ArialMT-56"/>
       <use x="111.230469" xlink:href="#ArialMT-48"/>
       <use x="166.845703" xlink:href="#ArialMT-48"/>
      </g>
     </g>
    </g>
   </g>
   <g id="line2d_33">
    <path clip-path="url(#p70680cc38d)" d="M 45.051006 121.0668 
L 46.765996 121.4136 
L 47.108994 121.05864 
L 47.451992 122.81916 
L 48.480986 122.18064 
L 48.823984 122.32956 
L 49.166982 121.7706 
L 49.852977 118.53108 
L 51.224969 118.2924 
L 51.567967 118.55352 
L 51.910965 119.42052 
L 52.253963 118.578 
L 53.282957 120.1182 
L 53.625955 119.09004 
L 53.968953 116.61348 
L 54.311951 119.9244 
L 54.654949 120.27528 
L 55.683943 120.59352 
L 56.712936 115.42824 
L 57.055934 114.92844 
L 58.084928 115.21404 
L 58.427926 115.008 
L 58.770924 114.59592 
L 59.113922 114.94476 
L 59.45692 117.03576 
L 60.485914 117.99252 
L 61.17191 113.5188 
L 61.514908 113.21076 
L 61.857906 113.46984 
L 63.229897 112.62528 
L 63.915893 113.29848 
L 64.258891 114.35724 
L 65.287885 114.72852 
L 65.630883 124.99584 
L 65.973881 123.40872 
L 66.316879 124.15332 
L 66.659877 127.41732 
L 67.688871 130.07952 
L 68.031869 125.73636 
L 68.374867 126.43812 
L 68.717864 124.41444 
L 69.060862 124.22064 
L 70.089856 123.4536 
L 70.432854 129.2982 
L 70.775852 127.41732 
L 71.11885 126.37488 
L 71.461848 127.4622 
L 72.490842 124.37976 
L 72.83384 122.56824 
L 73.176838 117.65184 
L 73.519836 117.75384 
L 73.862834 117.43356 
L 74.891828 117.15 
L 75.577823 121.28508 
L 75.920821 120.20388 
L 76.263819 120.54456 
L 77.292813 119.7918 
L 77.635811 117.09492 
L 77.978809 116.76852 
L 78.321807 115.87296 
L 79.693799 115.69956 
L 80.036797 114.92844 
L 80.379795 116.87052 
L 80.722793 115.0488 
L 82.437782 110.21808 
L 82.78078 110.01 
L 83.123778 110.37108 
L 83.466776 107.5926 
L 84.838768 108.39636 
L 85.181766 105.33432 
L 85.524764 105.573 
L 85.867762 105.60972 
L 86.896756 107.99652 
L 87.239754 107.1948 
L 87.925749 103.91244 
L 88.268747 103.25352 
L 89.297741 102.46608 
L 89.640739 102.82512 
L 89.983737 101.83368 
L 90.326735 106.14012 
L 90.669733 103.2066 
L 91.698727 103.7574 
L 92.041725 104.15724 
L 92.384723 101.51544 
L 92.727721 101.799 
L 93.070719 99.759 
L 94.099713 99.2796 
L 94.44271 99.47952 
L 94.785708 99.85488 
L 95.128706 102.86796 
L 95.471704 101.19108 
L 96.843696 100.70556 
L 97.186694 98.23308 
L 97.529692 98.15352 
L 97.87269 96.98664 
L 98.901684 96.40728 
L 99.244682 98.0862 
L 99.58768 100.85448 
L 99.930678 106.29312 
L 100.273676 102.83532 
L 101.302669 102.53952 
L 101.645667 105.828 
L 101.988665 101.20332 
L 102.331663 99.71412 
L 102.674661 97.68636 
L 103.703655 98.0658 
L 104.046653 97.5252 
L 104.389651 101.78064 
L 104.732649 99.87324 
L 105.075647 103.87776 
L 106.104641 104.86104 
L 106.447639 105.85044 
L 106.790637 103.10664 
L 107.133634 103.23516 
L 107.476632 103.7166 
L 108.848624 99.32652 
L 109.53462 99.2184 
L 109.877618 98.19024 
L 110.906612 97.9026 
L 111.24961 102.33552 
L 111.592608 100.57296 
L 111.935606 94.6692 
L 112.278604 93.69 
L 113.307598 94.29792 
L 113.650595 94.32852 
L 113.993593 94.98132 
L 114.336591 93.57168 
L 114.679589 97.4436 
L 115.708583 95.91972 
L 116.051581 102.14784 
L 116.394579 100.70964 
L 116.737577 107.93736 
L 117.080575 112.7742 
L 118.109569 109.72236 
L 118.452567 113.52492 
L 118.795565 111.37476 
L 119.138563 110.0712 
L 119.481561 118.05576 
L 120.853552 109.15116 
L 121.19655 104.91204 
L 121.539548 113.96964 
L 121.882546 113.85744 
L 122.91154 114.00432 
L 123.597536 123.4332 
L 123.940534 122.50092 
L 124.283532 115.42824 
L 125.312526 115.5078 
L 125.655524 115.18752 
L 125.998522 111.72972 
L 126.34152 112.05 
L 126.684517 108.60852 
L 127.713511 111.17484 
L 128.056509 118.19856 
L 128.399507 111.79296 
L 128.742505 113.04144 
L 129.085503 109.70604 
L 130.457495 106.55832 
L 130.800493 110.05284 
L 131.143491 108.7758 
L 131.486489 113.8758 
L 132.515483 114.2532 
L 132.85848 110.21604 
L 133.201478 110.20176 
L 133.544476 107.6742 
L 133.887474 107.613 
L 134.916468 109.1634 
L 135.259466 100.36488 
L 135.602464 98.47788 
L 135.945462 100.575 
L 136.28846 99.147 
L 137.317454 100.78308 
L 137.660452 100.88916 
L 138.346448 97.99848 
L 138.689446 98.943 
L 139.718439 94.80384 
L 140.061437 94.88748 
L 140.404435 96.32364 
L 140.747433 95.66064 
L 141.090431 92.65164 
L 142.119425 93.67368 
L 142.462423 91.1094 
L 142.805421 91.65612 
L 143.148419 93.30036 
L 143.491417 91.7928 
L 144.520411 94.46316 
L 144.863409 96.53988 
L 145.206407 95.98704 
L 145.549405 96.22368 
L 145.892402 104.27148 
L 146.921396 103.10868 
L 147.264394 100.40364 
L 147.607392 101.16048 
L 147.95039 101.4624 
L 148.293388 97.20288 
L 149.322382 96.04008 
L 149.66538 98.07192 
L 150.008378 94.32648 
L 150.351376 102.67824 
L 150.694374 102.4314 
L 151.723368 103.95732 
L 152.066366 100.26492 
L 152.409363 109.37352 
L 152.752361 109.54692 
L 153.095359 113.8452 
L 154.124353 116.80728 
L 154.467351 108.2658 
L 154.810349 110.40168 
L 155.153347 114.3654 
L 155.496345 112.81704 
L 156.525339 118.01292 
L 156.868337 116.7012 
L 157.211335 121.37892 
L 157.897331 116.4972 
L 158.926324 123.32712 
L 159.269322 119.04108 
L 159.61232 110.71992 
L 159.955318 110.57712 
L 160.298316 108.24744 
L 161.32731 110.02632 
L 161.670308 111.99084 
L 162.356304 102.90264 
L 162.699302 103.44936 
L 163.728296 101.14416 
L 164.071294 108.9594 
L 164.414292 107.13564 
L 164.75729 106.76436 
L 165.100287 110.9382 
L 166.129281 115.4364 
L 166.472279 113.58408 
L 166.815277 113.988 
L 167.158275 112.53552 
L 167.501273 107.57016 
L 168.530267 105.1242 
L 169.216263 104.87736 
L 169.559261 109.24092 
L 169.902259 108.78804 
L 170.931253 110.85456 
L 171.617248 115.17936 
L 171.960246 115.17936 
L 172.303244 122.42748 
L 173.332238 121.49928 
L 173.675236 126.80124 
L 174.018234 122.93748 
L 174.361232 120.65268 
L 174.70423 124.59192 
L 175.733224 121.485 
L 176.076222 128.6862 
L 176.41922 130.2672 
L 176.762218 138.417 
L 177.105216 140.06124 
L 178.477207 143.058 
L 178.820205 137.3256 
L 179.163203 134.57772 
L 179.506201 138.95556 
L 180.878193 132.4908 
L 181.221191 133.81476 
L 181.907187 125.73432 
L 182.936181 128.71272 
L 183.279179 137.72544 
L 183.622177 139.8042 
L 183.965175 137.67036 
L 184.308172 138.81684 
L 185.337166 137.21748 
L 185.680164 135.23256 
L 186.023162 131.48916 
L 186.36616 135.23256 
L 186.709158 135.00204 
L 188.08115 135.24888 
L 188.424148 132.95388 
L 188.767146 136.52388 
L 189.110144 134.36556 
L 190.139138 130.5528 
L 190.482136 128.61684 
L 190.825133 128.87592 
L 191.168131 131.39328 
L 191.511129 138.95148 
L 192.540123 138.80664 
L 192.883121 139.743 
L 193.226119 138.3252 
L 193.569117 144.31464 
L 193.912115 146.55252 
L 194.941109 150.63252 
L 195.284107 140.9874 
L 195.627105 143.41092 
L 195.970103 142.04208 
L 196.313101 147.61944 
L 197.342094 149.9736 
L 197.685092 138.92904 
L 198.02809 145.52232 
L 198.371088 139.17996 
L 199.74308 135.02448 
L 200.086078 134.39004 
L 201.115072 142.09512 
L 202.144066 140.5692 
L 202.487064 130.88328 
L 202.830062 131.42388 
L 203.516057 130.8384 
L 204.545051 130.40184 
L 204.888049 131.82984 
L 205.231047 134.08404 
L 205.574045 132.8478 
L 205.917043 138.50268 
L 206.946037 139.42272 
L 207.289035 138.17628 
L 207.632033 131.99916 
L 207.975031 131.82576 
L 208.318029 126.77268 
L 209.347023 127.21332 
L 209.690021 129.70824 
L 210.033018 128.89428 
L 210.719014 125.24064 
L 211.748008 125.54052 
L 212.434004 127.73964 
L 212.777002 122.89464 
L 213.12 121.9644 
L 214.148994 123.27204 
L 214.491992 121.07496 
L 214.83499 126.31572 
L 215.177988 125.27328 
L 215.520986 127.19088 
L 216.549979 124.06968 
L 216.892977 124.17984 
L 217.235975 123.03336 
L 217.578973 119.99172 
L 217.921971 119.6286 
L 218.950965 119.36748 
L 219.293963 122.0664 
L 219.636961 126.69516 
L 219.979959 125.9526 
L 220.322957 129.71028 
L 221.694949 127.7886 
L 222.037947 126.66864 
L 222.380945 125.15496 
L 222.723943 124.72248 
L 223.752936 127.72332 
L 224.095934 129.3594 
L 224.438932 129.4512 
L 224.78193 123.9738 
L 225.124928 132.82128 
L 226.153922 132.60096 
L 226.49692 133.27824 
L 226.839918 137.96004 
L 227.182916 137.06652 
L 227.525914 132.95388 
L 228.554908 132.93144 
L 228.897906 134.81028 
L 229.240903 137.48676 
L 229.583901 136.46268 
L 229.926899 141.54228 
L 230.955893 141.528 
L 231.298891 142.28484 
L 231.641889 140.71812 
L 231.984887 148.6374 
L 232.327885 149.61048 
L 233.356879 149.28 
L 233.699877 148.27836 
L 234.042875 153.04992 
L 234.385873 152.7684 
L 235.757864 154.92876 
L 236.100862 150.5652 
L 236.44386 156.48324 
L 236.786858 154.70844 
L 237.129856 157.54404 
L 238.15885 159.8268 
L 238.501848 162.55836 
L 238.844846 156.34656 
L 239.187844 153.29472 
L 239.530842 153.22128 
L 240.559836 153.36 
L 240.902834 149.892 
L 241.245832 148.83324 
L 241.58883 154.88184 
L 241.931828 153.81696 
L 242.960821 158.58852 
L 243.646817 148.41096 
L 243.989815 151.85448 
L 244.332813 153.29676 
L 245.361807 155.60196 
L 245.704805 148.28448 
L 246.047803 147.40524 
L 246.390801 152.12172 
L 246.733799 145.95072 
L 247.762793 144.11472 
L 248.105791 147.32364 
L 248.448789 148.09068 
L 249.134784 145.5672 
L 250.163778 149.5656 
L 250.506776 151.99524 
L 250.849774 150.39384 
L 251.192772 149.74512 
L 251.53577 146.7912 
L 252.564764 151.96464 
L 252.907762 151.01196 
L 253.25076 148.94136 
L 253.593758 145.06128 
L 253.936756 148.70268 
L 255.308747 149.77368 
L 255.651745 150.30408 
L 255.994743 158.08668 
L 256.337741 156.96876 
L 257.366735 151.77084 
L 257.709733 160.59996 
L 258.052731 159.06384 
L 258.395729 155.5938 
L 258.738727 155.0532 
L 259.767721 167.0892 
L 260.110719 162.8256 
L 260.453717 174.49644 
L 261.139713 154.36368 
L 262.511704 168.00312 
L 262.854702 168.48252 
L 263.1977 163.72728 
L 263.540698 162.89292 
L 264.569692 184.69032 
L 264.91269 172.46256 
L 265.255688 173.54376 
L 265.598686 183.08688 
L 266.970678 194.79444 
L 267.313676 207.16908 
L 267.656674 209.47224 
L 267.999671 224.77632 
L 268.342669 226.95912 
L 269.371663 205.7166 
L 269.714661 206.80596 
L 270.057659 225.20064 
L 270.400657 217.32828 
L 270.743655 218.5278 
L 271.772649 209.3784 
L 272.115647 215.5698 
L 272.458645 227.45688 
L 272.801643 225.14556 
L 273.144641 231.53892 
L 274.173634 237.22032 
L 274.516632 218.53596 
L 274.85963 220.66164 
L 275.202628 215.76564 
L 275.545626 212.775 
L 276.57462 213.2748 
L 276.917618 205.227 
L 277.603614 225.80448 
L 277.946612 220.47804 
L 278.975606 222.88116 
L 279.318604 227.0142 
L 279.661602 236.5308 
L 280.0046 224.49684 
L 280.347598 232.24884 
L 281.376591 236.847 
L 281.719589 235.13952 
L 282.405585 256.90224 
L 282.748583 247.19388 
L 283.777577 236.63076 
L 284.120575 235.49244 
L 284.463573 229.31328 
L 285.149569 227.56704 
L 286.178563 243.89316 
L 286.521561 237.24276 
L 286.864559 232.76904 
L 287.207556 237.97512 
L 287.550554 231.68172 
L 288.579548 224.8212 
L 288.922546 229.11132 
L 289.265544 226.95504 
L 289.608542 232.18764 
L 289.95154 230.93508 
L 290.980534 233.21172 
L 291.323532 224.11128 
L 291.66653 225.89832 
L 292.009528 229.80288 
L 292.352526 229.27248 
L 293.38152 232.58748 
L 293.724517 234.31536 
L 294.067515 233.2974 
L 294.753511 232.3488 
L 295.782505 233.03832 
L 296.125503 228.70944 
L 297.154497 220.3128 
L 298.183491 221.2002 
L 298.526489 219.7212 
L 298.869487 225.4434 
L 299.212485 224.81508 
L 299.555483 228.7686 
L 300.584476 232.86696 
L 300.927474 232.55484 
L 301.270472 238.50552 
L 301.61347 238.27704 
L 301.956468 236.97552 
L 303.32846 246.13512 
L 303.671458 238.99104 
L 304.014456 241.59 
L 304.357454 240.6822 
L 305.386448 239.73972 
L 305.729446 237.87516 
L 306.072444 232.08564 
L 306.415441 237.99144 
L 306.758439 241.92048 
L 307.787433 242.01024 
L 308.130431 239.34396 
L 308.473429 240.62508 
L 308.816427 237.8466 
L 309.159425 233.2056 
L 310.188419 232.94244 
L 310.531417 241.65936 
L 310.874415 240.31704 
L 311.217413 240.02124 
L 311.560411 241.72464 
L 312.932402 249.40932 
L 313.2754 249.56232 
L 314.99039 258.76068 
L 315.333388 252.67944 
L 315.676386 254.3604 
L 316.019384 256.82268 
L 316.362382 260.44164 
L 317.391376 267.43272 
L 317.734374 268.34868 
L 318.077372 264.97452 
L 318.42037 271.1598 
L 318.763368 270.99048 
L 319.792361 272.38788 
L 320.135359 263.6016 
L 320.478357 263.24256 
L 320.821355 257.24904 
L 321.164353 256.0638 
L 322.193347 256.60644 
L 322.536345 251.66352 
L 322.879343 248.3526 
L 323.222341 250.45584 
L 323.565339 253.61784 
L 324.594333 242.52432 
L 324.937331 245.95152 
L 325.280329 244.36848 
L 325.623326 240.49656 
L 325.966324 243.94824 
L 326.995318 249.74388 
L 327.681314 244.93968 
L 328.024312 240.18648 
L 328.36731 238.53 
L 329.396304 239.96208 
L 329.739302 244.0278 
L 330.0823 242.06736 
L 330.425298 235.66176 
L 331.79729 235.21908 
L 332.140287 238.734 
L 332.826283 233.8788 
L 333.169281 233.0016 
L 334.198275 240.59244 
L 334.541273 236.98368 
L 334.884271 238.3158 
L 335.227269 236.60832 
L 335.570267 233.68908 
L 336.942259 235.94736 
L 337.285257 232.17744 
L 337.628255 232.34676 
L 337.971253 231.38592 
L 339.000246 225.32304 
L 339.343244 226.0248 
L 339.686242 222.81588 
L 340.02924 225.29244 
L 340.372238 220.83708 
L 341.401232 224.91504 
L 341.74423 225.0966 
L 342.087228 230.08032 
L 342.430226 228.21372 
L 342.773224 230.29248 
L 343.802218 224.81916 
L 344.145216 225.14148 
L 344.488214 226.09212 
L 344.831211 229.18068 
L 345.174209 229.452 
L 346.546201 224.69268 
L 346.889199 228.21576 
L 347.575195 222.89544 
L 348.604189 218.05452 
L 348.947187 217.67304 
L 349.290185 220.32096 
L 349.633183 218.13816 
L 349.976181 218.62164 
L 351.005175 218.81544 
L 351.348172 218.14428 
L 351.69117 218.8134 
L 352.034168 217.64244 
L 352.377166 217.37316 
L 353.40616 221.96112 
L 353.749158 224.35812 
L 354.092156 224.61516 
L 354.435154 223.05252 
L 354.778152 222.46908 
L 355.807146 228.21984 
L 356.150144 227.7996 
L 356.493142 226.60824 
L 356.83614 222.66696 
L 357.179138 222.9444 
L 358.208131 221.24508 
L 358.551129 222.85872 
L 358.894127 222.04068 
L 359.237125 227.53032 
L 360.609117 227.06112 
L 360.952115 230.66988 
L 361.295113 230.96976 
L 361.638111 230.33328 
L 361.981109 231.05748 
L 363.010103 226.5858 
L 363.353101 225.60864 
L 363.696099 220.13328 
L 364.039097 218.48904 
L 364.382094 218.56248 
L 365.754086 215.66568 
L 366.097084 215.76972 
L 366.440082 211.23684 
L 366.78308 210.63096 
L 367.812074 210.03528 
L 368.155072 210.55752 
L 368.49807 211.4694 
L 368.841068 209.103 
L 369.184066 208.95408 
L 370.21306 205.86348 
L 370.556057 205.2474 
L 370.899055 205.84512 
L 371.242053 206.99568 
L 371.585051 204.26208 
L 372.614045 204.9516 
L 372.957043 207.5526 
L 373.300041 205.21476 
L 373.643039 203.80308 
L 375.015031 210.53508 
L 376.044025 204.89652 
L 376.387023 201.06948 
L 377.416016 201.18372 
L 377.759014 200.688 
L 378.102012 200.66352 
L 378.44501 200.08008 
L 378.788008 200.49828 
L 379.817002 202.19352 
L 380.16 206.79984 
L 380.502998 207.471 
L 380.845996 205.73904 
L 381.188994 203.0544 
L 382.560986 201.22044 
L 382.903984 199.59252 
L 383.246982 197.39544 
L 383.589979 197.68308 
L 384.618973 196.33464 
L 384.961971 195.66348 
L 385.304969 192.37296 
L 385.647967 193.04004 
L 385.990965 192.4668 
L 387.019959 193.20936 
L 387.362957 191.78136 
L 388.048953 196.04088 
L 388.391951 197.34648 
L 389.420945 193.55208 
L 389.763943 194.03556 
L 390.10694 194.75568 
L 390.449938 200.3106 
L 390.792936 201.25716 
L 391.82193 198.14616 
L 392.164928 195.23712 
L 392.507926 194.65368 
L 393.193922 191.81604 
L 394.222916 190.85724 
L 394.565914 191.46924 
L 394.908912 187.62792 
L 395.25191 186.70176 
L 395.594908 188.51328 
L 396.623901 186.42636 
L 396.966899 187.82376 
L 397.309897 189.7944 
L 397.652895 187.44636 
L 397.995893 190.1616 
L 399.367885 193.46436 
L 399.710883 197.70348 
L 400.053881 192.91356 
L 400.396879 199.01724 
L 402.111869 196.914 
L 402.454867 192.80748 
L 402.797864 192.2628 
L 403.826858 187.41168 
L 404.169856 187.42596 
L 404.512854 186.30396 
L 404.855852 188.60304 
L 405.19885 187.33008 
L 406.227844 184.1028 
L 406.570842 183.89472 
L 406.91384 184.0008 
L 407.256838 187.0404 
L 407.599836 187.75848 
L 408.62883 184.72704 
L 408.971828 184.8474 
L 409.314825 183.83148 
L 410.000821 187.73604 
L 411.029815 186.89148 
L 411.372813 184.19256 
L 411.715811 184.11504 
L 412.058809 186.01632 
L 412.401807 184.78008 
L 413.430801 185.337 
L 413.773799 187.64424 
L 414.116797 186.8262 
L 414.459795 185.5206 
L 414.802793 184.69236 
L 415.831786 183.12156 
L 416.174784 184.38228 
L 416.517782 184.12728 
L 416.86078 186.79968 
L 417.203778 185.49612 
L 419.261766 180.59808 
L 420.633758 180.33288 
L 420.976756 180.6552 
L 421.319754 180.61032 
L 421.662752 182.9196 
L 423.377741 178.54992 
L 423.720739 178.42344 
L 424.406735 176.82408 
L 425.435729 176.41608 
L 425.778727 178.61112 
L 426.121725 176.68128 
L 426.464723 176.11416 
L 426.807721 178.64988 
L 428.179713 175.75308 
L 428.52271 178.23984 
L 429.208706 187.68096 
L 430.2377 186.65688 
L 430.580698 187.59732 
L 430.923696 186.51 
L 431.609692 191.33052 
L 432.638686 188.20524 
L 432.981684 185.32272 
L 433.324682 186.55488 
L 433.66768 193.52556 
L 434.010678 192.89724 
L 435.039671 194.82504 
L 435.382669 192.01392 
L 435.725667 192.50148 
L 436.068665 190.39212 
L 436.411663 190.99596 
L 438.126653 186.09996 
L 438.469651 184.623 
L 438.812649 184.12932 
L 439.841643 184.36596 
L 440.184641 187.1016 
L 440.527639 184.93104 
L 440.870637 185.40024 
L 441.213634 185.08404 
L 442.585626 182.26476 
L 442.928624 182.16684 
L 443.271622 181.31412 
L 443.61462 178.1052 
L 444.643614 178.146 
L 444.986612 177.7482 
L 445.672608 175.75104 
L 446.015606 175.80204 
L 447.0446 175.69596 
L 447.730595 172.49316 
L 448.073593 172.57068 
L 448.416591 173.7804 
L 449.445585 172.57476 
L 449.788583 170.86932 
L 450.131581 172.18512 
L 450.474579 172.59108 
L 450.817577 172.41564 
L 451.846571 171.06312 
L 452.189569 171.05292 
L 452.532567 171.83628 
L 452.875565 170.0676 
L 454.590554 167.75424 
L 454.933552 169.1802 
L 455.27655 168.36624 
L 455.619548 166.74852 
L 456.99154 166.1508 
L 457.334538 163.4274 
L 457.677536 163.21932 
L 458.020534 167.20548 
L 459.049528 166.10592 
L 459.392526 164.13732 
L 459.735524 164.38824 
L 460.078522 163.83132 
L 460.42152 162.07488 
L 461.450513 163.1418 
L 461.793511 168.92316 
L 462.136509 167.36256 
L 462.479507 164.21688 
L 462.822505 168.31524 
L 463.851499 165.13896 
L 464.194497 170.9856 
L 464.537495 172.56252 
L 464.880493 180.2574 
L 465.223491 183.78048 
L 466.252485 173.81508 
L 466.595483 174.61884 
L 466.93848 171.37932 
L 467.281478 174.28224 
L 467.624476 178.72128 
L 468.65347 178.46424 
L 468.996468 181.7568 
L 469.339466 182.9298 
L 469.682464 191.79564 
L 470.025462 188.51124 
L 471.054456 191.3754 
L 471.397454 191.29788 
L 471.740452 192.5382 
L 472.08345 185.37576 
L 472.426448 188.16036 
L 473.798439 191.97516 
L 474.141437 186.33048 
L 474.484435 185.42268 
L 474.827433 193.16448 
L 475.856427 196.10412 
L 476.199425 193.752 
L 476.542423 195.03924 
L 476.885421 188.68464 
L 477.228419 187.7136 
L 478.257413 188.11548 
L 478.600411 182.89308 
L 478.943409 183.01956 
L 479.629405 182.42796 
L 480.658398 183.3072 
L 481.001396 186.95676 
L 481.344394 187.62384 
L 481.687392 191.36724 
L 482.03039 190.74096 
L 483.059384 191.18772 
L 483.402382 197.98704 
L 483.74538 200.13516 
L 484.088378 200.81652 
L 484.431376 201.79368 
L 485.803368 200.67576 
L 486.146366 194.10492 
L 486.832361 190.49616 
L 487.861355 190.335 
L 488.204353 186.95064 
L 488.547351 186.98532 
L 488.890349 186.71808 
L 489.233347 193.16448 
L 490.262341 191.865 
L 490.605339 189.37008 
L 490.948337 192.20364 
L 491.291335 187.29132 
L 491.634333 185.45736 
L 492.663326 182.93796 
L 493.006324 183.17664 
L 493.349322 184.74948 
L 493.69232 185.68788 
L 494.035318 185.6736 
L 495.064312 180.72456 
L 495.40731 181.82616 
L 495.750308 180.44304 
L 496.093306 180.73476 
L 496.436304 181.58544 
L 497.465298 180.33084 
L 497.808296 181.70376 
L 498.151294 188.14812 
L 498.83729 190.233 
L 499.866283 190.20648 
L 500.209281 187.52184 
L 500.552279 187.19136 
L 500.895277 190.97148 
L 501.238275 191.77524 
L 502.267269 192.65856 
L 502.610267 195.81852 
L 502.953265 195.11268 
L 503.296263 196.76712 
L 503.639261 193.22364 
L 504.668255 196.42032 
L 505.011253 196.33668 
L 505.354251 190.02084 
L 505.697248 188.0196 
L 506.040246 185.07996 
L 507.412238 187.66464 
L 508.098234 185.14728 
L 508.441232 184.0518 
L 509.470226 181.5324 
L 509.813224 181.6956 
L 510.156222 180.88572 
L 510.49922 180.96936 
L 510.842218 180.77964 
L 511.871211 177.28716 
L 512.214209 177.88488 
L 512.557207 179.00688 
L 512.900205 180.93468 
L 513.243203 176.07132 
L 514.272197 177.39936 
L 514.615195 176.2692 
L 515.301191 177.5952 
L 515.644189 176.56704 
L 516.673183 178.44588 
L 517.016181 173.607 
L 517.359179 173.76612 
L 517.702177 174.15576 
L 518.045175 172.7094 
L 519.074168 172.67472 
L 519.417166 171.76692 
L 519.760164 170.0676 
L 520.103162 170.94276 
L 520.44616 170.45724 
L 521.475154 168.71916 
L 521.818152 172.5564 
L 522.16115 170.05332 
L 522.847146 169.05168 
L 523.87614 168.53352 
L 524.219138 168.52944 
L 524.562136 169.1802 
L 524.905133 168.90888 
L 525.248131 169.01496 
L 526.277125 168.78648 
L 526.620123 166.91172 
L 526.963121 166.01616 
L 527.306119 161.30376 
L 527.649117 160.3266 
L 528.678111 160.857 
L 529.021109 162.8664 
L 529.364107 161.78316 
L 529.707105 162.83784 
L 530.050103 165.76116 
L 531.079097 166.059 
L 531.422094 170.01864 
L 531.765092 169.96764 
L 532.10809 166.27524 
L 532.451088 165.65508 
L 533.480082 166.04064 
L 533.82308 169.53108 
L 534.166078 165.9366 
L 534.852074 167.7624 
L 535.881068 168.09696 
L 536.224066 169.5678 
L 536.567064 164.36172 
L 536.910062 161.20788 
L 537.25306 160.55916 
L 538.282053 160.88352 
L 538.625051 160.755 
L 539.311047 158.868 
L 539.654045 157.3584 
L 540.683039 157.34616 
L 541.026037 157.11564 
L 541.369035 158.41308 
L 541.712033 156.85452 
L 543.084025 155.99568 
L 543.427023 154.4616 
L 543.770021 153.59664 
L 544.113018 154.01892 
L 545.48501 153.86184 
L 546.171006 153.40488 
L 546.514004 153.79248 
L 546.857002 153.84144 
L 547.885996 150.93852 
L 547.885996 150.93852 
" style="fill:none;stroke:#000000;stroke-linecap:round;stroke-width:4;"/>
   </g>
   <g id="patch_3">
    <path d="M 46.08 288 
L 46.08 43.2 
" style="fill:none;stroke:#cccccc;stroke-linecap:square;stroke-linejoin:miter;"/>
   </g>
   <g id="patch_4">
    <path d="M 547.2 288 
L 547.2 43.2 
" style="fill:none;stroke:#cccccc;stroke-linecap:square;stroke-linejoin:miter;"/>
   </g>
   <g id="patch_5">
    <path d="M 46.08 288 
L 547.2 288 
" style="fill:none;stroke:#cccccc;stroke-linecap:square;stroke-linejoin:miter;"/>
   </g>
   <g id="patch_6">
    <path d="M 46.08 43.2 
L 547.2 43.2 
" style="fill:none;stroke:#cccccc;stroke-linecap:square;stroke-linejoin:miter;"/>
   </g>
   <g id="patch_7">
    <path d="M 144.148419 63.643955 
Q 144.148419 71.369991 144.148419 79.096027 
L 145.148419 79.096027 
Q 144.148419 81.098193 143.148419 83.10036 
Q 142.148419 81.098193 141.148419 79.096027 
L 142.148419 79.096027 
Q 142.148419 71.369991 142.148419 63.643955 
L 144.148419 63.643955 
z
" style="stroke:#ffffff;stroke-linecap:round;stroke-width:0.5;"/>
   </g>
   <g id="text_17">
    <!-- Peak of bull market -->
    <defs>
     <path d="M 7.71875 0 
L 7.71875 71.578125 
L 34.71875 71.578125 
Q 41.84375 71.578125 45.609375 70.90625 
Q 50.875 70.015625 54.4375 67.546875 
Q 58.015625 65.09375 60.1875 60.640625 
Q 62.359375 56.203125 62.359375 50.875 
Q 62.359375 41.75 56.546875 35.421875 
Q 50.734375 29.109375 35.546875 29.109375 
L 17.1875 29.109375 
L 17.1875 0 
z
M 17.1875 37.546875 
L 35.6875 37.546875 
Q 44.875 37.546875 48.734375 40.96875 
Q 52.59375 44.390625 52.59375 50.59375 
Q 52.59375 55.078125 50.3125 58.265625 
Q 48.046875 61.46875 44.34375 62.5 
Q 41.9375 63.140625 35.5 63.140625 
L 17.1875 63.140625 
z
" id="ArialMT-80"/>
     <path d="M 42.09375 16.703125 
L 51.171875 15.578125 
Q 49.03125 7.625 43.21875 3.21875 
Q 37.40625 -1.171875 28.375 -1.171875 
Q 17 -1.171875 10.328125 5.828125 
Q 3.65625 12.84375 3.65625 25.484375 
Q 3.65625 38.578125 10.390625 45.796875 
Q 17.140625 53.03125 27.875 53.03125 
Q 38.28125 53.03125 44.875 45.953125 
Q 51.46875 38.875 51.46875 26.03125 
Q 51.46875 25.25 51.421875 23.6875 
L 12.75 23.6875 
Q 13.234375 15.140625 17.578125 10.59375 
Q 21.921875 6.0625 28.421875 6.0625 
Q 33.25 6.0625 36.671875 8.59375 
Q 40.09375 11.140625 42.09375 16.703125 
z
M 13.234375 30.90625 
L 42.1875 30.90625 
Q 41.609375 37.453125 38.875 40.71875 
Q 34.671875 45.796875 27.984375 45.796875 
Q 21.921875 45.796875 17.796875 41.75 
Q 13.671875 37.703125 13.234375 30.90625 
z
" id="ArialMT-101"/>
     <path d="M 40.4375 6.390625 
Q 35.546875 2.25 31.03125 0.53125 
Q 26.515625 -1.171875 21.34375 -1.171875 
Q 12.796875 -1.171875 8.203125 3 
Q 3.609375 7.171875 3.609375 13.671875 
Q 3.609375 17.484375 5.34375 20.625 
Q 7.078125 23.78125 9.890625 25.6875 
Q 12.703125 27.59375 16.21875 28.5625 
Q 18.796875 29.25 24.03125 29.890625 
Q 34.671875 31.15625 39.703125 32.90625 
Q 39.75 34.71875 39.75 35.203125 
Q 39.75 40.578125 37.25 42.78125 
Q 33.890625 45.75 27.25 45.75 
Q 21.046875 45.75 18.09375 43.578125 
Q 15.140625 41.40625 13.71875 35.890625 
L 5.125 37.0625 
Q 6.296875 42.578125 8.984375 45.96875 
Q 11.671875 49.359375 16.75 51.1875 
Q 21.828125 53.03125 28.515625 53.03125 
Q 35.15625 53.03125 39.296875 51.46875 
Q 43.453125 49.90625 45.40625 47.53125 
Q 47.359375 45.171875 48.140625 41.546875 
Q 48.578125 39.3125 48.578125 33.453125 
L 48.578125 21.734375 
Q 48.578125 9.46875 49.140625 6.21875 
Q 49.703125 2.984375 51.375 0 
L 42.1875 0 
Q 40.828125 2.734375 40.4375 6.390625 
z
M 39.703125 26.03125 
Q 34.90625 24.078125 25.34375 22.703125 
Q 19.921875 21.921875 17.671875 20.9375 
Q 15.4375 19.96875 14.203125 18.09375 
Q 12.984375 16.21875 12.984375 13.921875 
Q 12.984375 10.40625 15.640625 8.0625 
Q 18.3125 5.71875 23.4375 5.71875 
Q 28.515625 5.71875 32.46875 7.9375 
Q 36.421875 10.15625 38.28125 14.015625 
Q 39.703125 17 39.703125 22.796875 
z
" id="ArialMT-97"/>
     <path d="M 6.640625 0 
L 6.640625 71.578125 
L 15.4375 71.578125 
L 15.4375 30.765625 
L 36.234375 51.859375 
L 47.609375 51.859375 
L 27.78125 32.625 
L 49.609375 0 
L 38.765625 0 
L 21.625 26.515625 
L 15.4375 20.5625 
L 15.4375 0 
z
" id="ArialMT-107"/>
     <path id="ArialMT-32"/>
     <path d="M 3.328125 25.921875 
Q 3.328125 40.328125 11.328125 47.265625 
Q 18.015625 53.03125 27.640625 53.03125 
Q 38.328125 53.03125 45.109375 46.015625 
Q 51.90625 39.015625 51.90625 26.65625 
Q 51.90625 16.65625 48.90625 10.90625 
Q 45.90625 5.171875 40.15625 2 
Q 34.421875 -1.171875 27.640625 -1.171875 
Q 16.75 -1.171875 10.03125 5.8125 
Q 3.328125 12.796875 3.328125 25.921875 
z
M 12.359375 25.921875 
Q 12.359375 15.96875 16.703125 11.015625 
Q 21.046875 6.0625 27.640625 6.0625 
Q 34.1875 6.0625 38.53125 11.03125 
Q 42.875 16.015625 42.875 26.21875 
Q 42.875 35.84375 38.5 40.796875 
Q 34.125 45.75 27.640625 45.75 
Q 21.046875 45.75 16.703125 40.8125 
Q 12.359375 35.890625 12.359375 25.921875 
z
" id="ArialMT-111"/>
     <path d="M 8.6875 0 
L 8.6875 45.015625 
L 0.921875 45.015625 
L 0.921875 51.859375 
L 8.6875 51.859375 
L 8.6875 57.375 
Q 8.6875 62.59375 9.625 65.140625 
Q 10.890625 68.5625 14.078125 70.671875 
Q 17.28125 72.796875 23.046875 72.796875 
Q 26.765625 72.796875 31.25 71.921875 
L 29.9375 64.265625 
Q 27.203125 64.75 24.75 64.75 
Q 20.75 64.75 19.09375 63.03125 
Q 17.4375 61.328125 17.4375 56.640625 
L 17.4375 51.859375 
L 27.546875 51.859375 
L 27.546875 45.015625 
L 17.4375 45.015625 
L 17.4375 0 
z
" id="ArialMT-102"/>
     <path d="M 14.703125 0 
L 6.546875 0 
L 6.546875 71.578125 
L 15.328125 71.578125 
L 15.328125 46.046875 
Q 20.90625 53.03125 29.546875 53.03125 
Q 34.328125 53.03125 38.59375 51.09375 
Q 42.875 49.171875 45.625 45.671875 
Q 48.390625 42.1875 49.953125 37.25 
Q 51.515625 32.328125 51.515625 26.703125 
Q 51.515625 13.375 44.921875 6.09375 
Q 38.328125 -1.171875 29.109375 -1.171875 
Q 19.921875 -1.171875 14.703125 6.5 
z
M 14.59375 26.3125 
Q 14.59375 17 17.140625 12.84375 
Q 21.296875 6.0625 28.375 6.0625 
Q 34.125 6.0625 38.328125 11.0625 
Q 42.53125 16.0625 42.53125 25.984375 
Q 42.53125 36.140625 38.5 40.96875 
Q 34.46875 45.796875 28.765625 45.796875 
Q 23 45.796875 18.796875 40.796875 
Q 14.59375 35.796875 14.59375 26.3125 
z
" id="ArialMT-98"/>
     <path d="M 40.578125 0 
L 40.578125 7.625 
Q 34.515625 -1.171875 24.125 -1.171875 
Q 19.53125 -1.171875 15.546875 0.578125 
Q 11.578125 2.34375 9.640625 5 
Q 7.71875 7.671875 6.9375 11.53125 
Q 6.390625 14.109375 6.390625 19.734375 
L 6.390625 51.859375 
L 15.1875 51.859375 
L 15.1875 23.09375 
Q 15.1875 16.21875 15.71875 13.8125 
Q 16.546875 10.359375 19.234375 8.375 
Q 21.921875 6.390625 25.875 6.390625 
Q 29.828125 6.390625 33.296875 8.421875 
Q 36.765625 10.453125 38.203125 13.9375 
Q 39.65625 17.4375 39.65625 24.078125 
L 39.65625 51.859375 
L 48.4375 51.859375 
L 48.4375 0 
z
" id="ArialMT-117"/>
     <path d="M 6.390625 0 
L 6.390625 71.578125 
L 15.1875 71.578125 
L 15.1875 0 
z
" id="ArialMT-108"/>
     <path d="M 6.59375 0 
L 6.59375 51.859375 
L 14.453125 51.859375 
L 14.453125 44.578125 
Q 16.890625 48.390625 20.9375 50.703125 
Q 25 53.03125 30.171875 53.03125 
Q 35.9375 53.03125 39.625 50.640625 
Q 43.3125 48.25 44.828125 43.953125 
Q 50.984375 53.03125 60.84375 53.03125 
Q 68.5625 53.03125 72.703125 48.75 
Q 76.859375 44.484375 76.859375 35.59375 
L 76.859375 0 
L 68.109375 0 
L 68.109375 32.671875 
Q 68.109375 37.9375 67.25 40.25 
Q 66.40625 42.578125 64.15625 43.984375 
Q 61.921875 45.40625 58.890625 45.40625 
Q 53.421875 45.40625 49.796875 41.765625 
Q 46.1875 38.140625 46.1875 30.125 
L 46.1875 0 
L 37.40625 0 
L 37.40625 33.6875 
Q 37.40625 39.546875 35.25 42.46875 
Q 33.109375 45.40625 28.21875 45.40625 
Q 24.515625 45.40625 21.359375 43.453125 
Q 18.21875 41.5 16.796875 37.734375 
Q 15.375 33.984375 15.375 26.90625 
L 15.375 0 
z
" id="ArialMT-109"/>
     <path d="M 6.5 0 
L 6.5 51.859375 
L 14.40625 51.859375 
L 14.40625 44 
Q 17.4375 49.515625 20 51.265625 
Q 22.5625 53.03125 25.640625 53.03125 
Q 30.078125 53.03125 34.671875 50.203125 
L 31.640625 42.046875 
Q 28.421875 43.953125 25.203125 43.953125 
Q 22.3125 43.953125 20.015625 42.21875 
Q 17.71875 40.484375 16.75 37.40625 
Q 15.28125 32.71875 15.28125 27.15625 
L 15.28125 0 
z
" id="ArialMT-114"/>
     <path d="M 25.78125 7.859375 
L 27.046875 0.09375 
Q 23.34375 -0.6875 20.40625 -0.6875 
Q 15.625 -0.6875 12.984375 0.828125 
Q 10.359375 2.34375 9.28125 4.8125 
Q 8.203125 7.28125 8.203125 15.1875 
L 8.203125 45.015625 
L 1.765625 45.015625 
L 1.765625 51.859375 
L 8.203125 51.859375 
L 8.203125 64.703125 
L 16.9375 69.96875 
L 16.9375 51.859375 
L 25.78125 51.859375 
L 25.78125 45.015625 
L 16.9375 45.015625 
L 16.9375 14.703125 
Q 16.9375 10.9375 17.40625 9.859375 
Q 17.875 8.796875 18.921875 8.15625 
Q 19.96875 7.515625 21.921875 7.515625 
Q 23.390625 7.515625 25.78125 7.859375 
z
" id="ArialMT-116"/>
    </defs>
    <g style="fill:#262626;" transform="translate(143.148419 59.658172)scale(0.1 -0.1)">
     <use xlink:href="#ArialMT-80"/>
     <use x="66.699219" xlink:href="#ArialMT-101"/>
     <use x="122.314453" xlink:href="#ArialMT-97"/>
     <use x="177.929688" xlink:href="#ArialMT-107"/>
     <use x="227.929688" xlink:href="#ArialMT-32"/>
     <use x="255.712891" xlink:href="#ArialMT-111"/>
     <use x="311.328125" xlink:href="#ArialMT-102"/>
     <use x="339.111328" xlink:href="#ArialMT-32"/>
     <use x="366.894531" xlink:href="#ArialMT-98"/>
     <use x="422.509766" xlink:href="#ArialMT-117"/>
     <use x="478.125" xlink:href="#ArialMT-108"/>
     <use x="500.341797" xlink:href="#ArialMT-108"/>
     <use x="522.558594" xlink:href="#ArialMT-32"/>
     <use x="550.341797" xlink:href="#ArialMT-109"/>
     <use x="633.642578" xlink:href="#ArialMT-97"/>
     <use x="689.257812" xlink:href="#ArialMT-114"/>
     <use x="722.558594" xlink:href="#ArialMT-107"/>
     <use x="772.558594" xlink:href="#ArialMT-101"/>
     <use x="828.173828" xlink:href="#ArialMT-116"/>
    </g>
   </g>
   <g id="patch_8">
    <path d="M 196.627105 113.754515 
Q 196.627105 121.480551 196.627105 129.206587 
L 197.627105 129.206587 
Q 196.627105 131.208753 195.627105 133.21092 
Q 194.627105 131.208753 193.627105 129.206587 
L 194.627105 129.206587 
Q 194.627105 121.480551 194.627105 113.754515 
L 196.627105 113.754515 
z
" style="stroke:#ffffff;stroke-linecap:round;stroke-width:0.5;"/>
   </g>
   <g id="text_18">
    <!-- Bear Stearns Fails -->
    <defs>
     <path d="M 7.328125 0 
L 7.328125 71.578125 
L 34.1875 71.578125 
Q 42.390625 71.578125 47.34375 69.40625 
Q 52.296875 67.234375 55.09375 62.71875 
Q 57.90625 58.203125 57.90625 53.265625 
Q 57.90625 48.6875 55.421875 44.625 
Q 52.9375 40.578125 47.90625 38.09375 
Q 54.390625 36.1875 57.875 31.59375 
Q 61.375 27 61.375 20.75 
Q 61.375 15.71875 59.25 11.390625 
Q 57.125 7.078125 54 4.734375 
Q 50.875 2.390625 46.15625 1.1875 
Q 41.453125 0 34.625 0 
z
M 16.796875 41.5 
L 32.28125 41.5 
Q 38.578125 41.5 41.3125 42.328125 
Q 44.921875 43.40625 46.75 45.890625 
Q 48.578125 48.390625 48.578125 52.15625 
Q 48.578125 55.71875 46.875 58.421875 
Q 45.171875 61.140625 41.984375 62.140625 
Q 38.8125 63.140625 31.109375 63.140625 
L 16.796875 63.140625 
z
M 16.796875 8.453125 
L 34.625 8.453125 
Q 39.203125 8.453125 41.0625 8.796875 
Q 44.34375 9.375 46.53125 10.734375 
Q 48.734375 12.109375 50.140625 14.71875 
Q 51.5625 17.328125 51.5625 20.75 
Q 51.5625 24.75 49.515625 27.703125 
Q 47.46875 30.671875 43.828125 31.859375 
Q 40.1875 33.0625 33.34375 33.0625 
L 16.796875 33.0625 
z
" id="ArialMT-66"/>
     <path d="M 4.5 23 
L 13.421875 23.78125 
Q 14.0625 18.40625 16.375 14.96875 
Q 18.703125 11.53125 23.578125 9.40625 
Q 28.46875 7.28125 34.578125 7.28125 
Q 39.984375 7.28125 44.140625 8.890625 
Q 48.296875 10.5 50.3125 13.296875 
Q 52.34375 16.109375 52.34375 19.4375 
Q 52.34375 22.796875 50.390625 25.3125 
Q 48.4375 27.828125 43.953125 29.546875 
Q 41.0625 30.671875 31.203125 33.03125 
Q 21.34375 35.40625 17.390625 37.5 
Q 12.25 40.1875 9.734375 44.15625 
Q 7.234375 48.140625 7.234375 53.078125 
Q 7.234375 58.5 10.296875 63.203125 
Q 13.375 67.921875 19.28125 70.359375 
Q 25.203125 72.796875 32.421875 72.796875 
Q 40.375 72.796875 46.453125 70.234375 
Q 52.546875 67.671875 55.8125 62.6875 
Q 59.078125 57.71875 59.328125 51.421875 
L 50.25 50.734375 
Q 49.515625 57.515625 45.28125 60.984375 
Q 41.0625 64.453125 32.8125 64.453125 
Q 24.21875 64.453125 20.28125 61.296875 
Q 16.359375 58.15625 16.359375 53.71875 
Q 16.359375 49.859375 19.140625 47.359375 
Q 21.875 44.875 33.421875 42.265625 
Q 44.96875 39.65625 49.265625 37.703125 
Q 55.515625 34.8125 58.484375 30.390625 
Q 61.46875 25.984375 61.46875 20.21875 
Q 61.46875 14.5 58.203125 9.4375 
Q 54.9375 4.390625 48.796875 1.578125 
Q 42.671875 -1.21875 35.015625 -1.21875 
Q 25.296875 -1.21875 18.71875 1.609375 
Q 12.15625 4.4375 8.421875 10.125 
Q 4.6875 15.828125 4.5 23 
z
" id="ArialMT-83"/>
     <path d="M 6.59375 0 
L 6.59375 51.859375 
L 14.5 51.859375 
L 14.5 44.484375 
Q 20.21875 53.03125 31 53.03125 
Q 35.6875 53.03125 39.625 51.34375 
Q 43.5625 49.65625 45.515625 46.921875 
Q 47.46875 44.1875 48.25 40.4375 
Q 48.734375 37.984375 48.734375 31.890625 
L 48.734375 0 
L 39.9375 0 
L 39.9375 31.546875 
Q 39.9375 36.921875 38.90625 39.578125 
Q 37.890625 42.234375 35.28125 43.8125 
Q 32.671875 45.40625 29.15625 45.40625 
Q 23.53125 45.40625 19.453125 41.84375 
Q 15.375 38.28125 15.375 28.328125 
L 15.375 0 
z
" id="ArialMT-110"/>
     <path d="M 3.078125 15.484375 
L 11.765625 16.84375 
Q 12.5 11.625 15.84375 8.84375 
Q 19.1875 6.0625 25.203125 6.0625 
Q 31.25 6.0625 34.171875 8.515625 
Q 37.109375 10.984375 37.109375 14.3125 
Q 37.109375 17.28125 34.515625 19 
Q 32.71875 20.171875 25.53125 21.96875 
Q 15.875 24.421875 12.140625 26.203125 
Q 8.40625 27.984375 6.46875 31.125 
Q 4.546875 34.28125 4.546875 38.09375 
Q 4.546875 41.546875 6.125 44.5 
Q 7.71875 47.46875 10.453125 49.421875 
Q 12.5 50.921875 16.03125 51.96875 
Q 19.578125 53.03125 23.640625 53.03125 
Q 29.734375 53.03125 34.34375 51.265625 
Q 38.96875 49.515625 41.15625 46.5 
Q 43.359375 43.5 44.1875 38.484375 
L 35.59375 37.3125 
Q 35.015625 41.3125 32.203125 43.546875 
Q 29.390625 45.796875 24.265625 45.796875 
Q 18.21875 45.796875 15.625 43.796875 
Q 13.03125 41.796875 13.03125 39.109375 
Q 13.03125 37.40625 14.109375 36.03125 
Q 15.1875 34.625 17.484375 33.6875 
Q 18.796875 33.203125 25.25 31.453125 
Q 34.578125 28.953125 38.25 27.359375 
Q 41.9375 25.78125 44.03125 22.75 
Q 46.140625 19.734375 46.140625 15.234375 
Q 46.140625 10.84375 43.578125 6.953125 
Q 41.015625 3.078125 36.171875 0.953125 
Q 31.34375 -1.171875 25.25 -1.171875 
Q 15.140625 -1.171875 9.84375 3.03125 
Q 4.546875 7.234375 3.078125 15.484375 
z
" id="ArialMT-115"/>
     <path d="M 8.203125 0 
L 8.203125 71.578125 
L 56.5 71.578125 
L 56.5 63.140625 
L 17.671875 63.140625 
L 17.671875 40.96875 
L 51.265625 40.96875 
L 51.265625 32.515625 
L 17.671875 32.515625 
L 17.671875 0 
z
" id="ArialMT-70"/>
     <path d="M 6.640625 61.46875 
L 6.640625 71.578125 
L 15.4375 71.578125 
L 15.4375 61.46875 
z
M 6.640625 0 
L 6.640625 51.859375 
L 15.4375 51.859375 
L 15.4375 0 
z
" id="ArialMT-105"/>
    </defs>
    <g style="fill:#262626;" transform="translate(195.627105 109.768733)scale(0.1 -0.1)">
     <use xlink:href="#ArialMT-66"/>
     <use x="66.699219" xlink:href="#ArialMT-101"/>
     <use x="122.314453" xlink:href="#ArialMT-97"/>
     <use x="177.929688" xlink:href="#ArialMT-114"/>
     <use x="211.230469" xlink:href="#ArialMT-32"/>
     <use x="239.013672" xlink:href="#ArialMT-83"/>
     <use x="305.712891" xlink:href="#ArialMT-116"/>
     <use x="333.496094" xlink:href="#ArialMT-101"/>
     <use x="389.111328" xlink:href="#ArialMT-97"/>
     <use x="444.726562" xlink:href="#ArialMT-114"/>
     <use x="478.027344" xlink:href="#ArialMT-110"/>
     <use x="533.642578" xlink:href="#ArialMT-115"/>
     <use x="583.642578" xlink:href="#ArialMT-32"/>
     <use x="611.425781" xlink:href="#ArialMT-70"/>
     <use x="672.509766" xlink:href="#ArialMT-97"/>
     <use x="728.125" xlink:href="#ArialMT-105"/>
     <use x="750.341797" xlink:href="#ArialMT-108"/>
     <use x="772.558594" xlink:href="#ArialMT-115"/>
    </g>
   </g>
   <g id="patch_9">
    <path d="M 260.767721 137.549486 
Q 260.767721 145.219741 260.767721 152.889996 
L 261.767721 152.889996 
Q 260.767721 154.889598 259.767721 156.8892 
Q 258.767721 154.889598 257.767721 152.889996 
L 258.767721 152.889996 
Q 258.767721 145.219741 258.767721 137.549486 
L 260.767721 137.549486 
z
" style="stroke:#ffffff;stroke-linecap:round;stroke-width:0.5;"/>
   </g>
   <g id="text_19">
    <!-- Lehman Bankruptcy -->
    <defs>
     <path d="M 7.328125 0 
L 7.328125 71.578125 
L 16.796875 71.578125 
L 16.796875 8.453125 
L 52.046875 8.453125 
L 52.046875 0 
z
" id="ArialMT-76"/>
     <path d="M 6.59375 0 
L 6.59375 71.578125 
L 15.375 71.578125 
L 15.375 45.90625 
Q 21.53125 53.03125 30.90625 53.03125 
Q 36.671875 53.03125 40.921875 50.75 
Q 45.171875 48.484375 47 44.484375 
Q 48.828125 40.484375 48.828125 32.859375 
L 48.828125 0 
L 40.046875 0 
L 40.046875 32.859375 
Q 40.046875 39.453125 37.1875 42.453125 
Q 34.328125 45.453125 29.109375 45.453125 
Q 25.203125 45.453125 21.75 43.421875 
Q 18.3125 41.40625 16.84375 37.9375 
Q 15.375 34.46875 15.375 28.375 
L 15.375 0 
z
" id="ArialMT-104"/>
     <path d="M 6.59375 -19.875 
L 6.59375 51.859375 
L 14.59375 51.859375 
L 14.59375 45.125 
Q 17.4375 49.078125 21 51.046875 
Q 24.5625 53.03125 29.640625 53.03125 
Q 36.28125 53.03125 41.359375 49.609375 
Q 46.4375 46.1875 49.015625 39.953125 
Q 51.609375 33.734375 51.609375 26.3125 
Q 51.609375 18.359375 48.75 11.984375 
Q 45.90625 5.609375 40.453125 2.21875 
Q 35.015625 -1.171875 29 -1.171875 
Q 24.609375 -1.171875 21.109375 0.6875 
Q 17.625 2.546875 15.375 5.375 
L 15.375 -19.875 
z
M 14.546875 25.640625 
Q 14.546875 15.625 18.59375 10.84375 
Q 22.65625 6.0625 28.421875 6.0625 
Q 34.28125 6.0625 38.453125 11.015625 
Q 42.625 15.96875 42.625 26.375 
Q 42.625 36.28125 38.546875 41.203125 
Q 34.46875 46.140625 28.8125 46.140625 
Q 23.1875 46.140625 18.859375 40.890625 
Q 14.546875 35.640625 14.546875 25.640625 
z
" id="ArialMT-112"/>
     <path d="M 40.4375 19 
L 49.078125 17.875 
Q 47.65625 8.9375 41.8125 3.875 
Q 35.984375 -1.171875 27.484375 -1.171875 
Q 16.84375 -1.171875 10.375 5.78125 
Q 3.90625 12.75 3.90625 25.734375 
Q 3.90625 34.125 6.6875 40.421875 
Q 9.46875 46.734375 15.15625 49.875 
Q 20.84375 53.03125 27.546875 53.03125 
Q 35.984375 53.03125 41.359375 48.75 
Q 46.734375 44.484375 48.25 36.625 
L 39.703125 35.296875 
Q 38.484375 40.53125 35.375 43.15625 
Q 32.28125 45.796875 27.875 45.796875 
Q 21.234375 45.796875 17.078125 41.03125 
Q 12.9375 36.28125 12.9375 25.984375 
Q 12.9375 15.53125 16.9375 10.796875 
Q 20.953125 6.0625 27.390625 6.0625 
Q 32.5625 6.0625 36.03125 9.234375 
Q 39.5 12.40625 40.4375 19 
z
" id="ArialMT-99"/>
     <path d="M 6.203125 -19.96875 
L 5.21875 -11.71875 
Q 8.109375 -12.5 10.25 -12.5 
Q 13.1875 -12.5 14.9375 -11.515625 
Q 16.703125 -10.546875 17.828125 -8.796875 
Q 18.65625 -7.46875 20.515625 -2.25 
Q 20.75 -1.515625 21.296875 -0.09375 
L 1.609375 51.859375 
L 11.078125 51.859375 
L 21.875 21.828125 
Q 23.96875 16.109375 25.640625 9.8125 
Q 27.15625 15.875 29.25 21.625 
L 40.328125 51.859375 
L 49.125 51.859375 
L 29.390625 -0.875 
Q 26.21875 -9.421875 24.46875 -12.640625 
Q 22.125 -17 19.09375 -19.015625 
Q 16.0625 -21.046875 11.859375 -21.046875 
Q 9.328125 -21.046875 6.203125 -19.96875 
z
" id="ArialMT-121"/>
    </defs>
    <g style="fill:#262626;" transform="translate(259.767721 133.447012)scale(0.1 -0.1)">
     <use xlink:href="#ArialMT-76"/>
     <use x="55.615234" xlink:href="#ArialMT-101"/>
     <use x="111.230469" xlink:href="#ArialMT-104"/>
     <use x="166.845703" xlink:href="#ArialMT-109"/>
     <use x="250.146484" xlink:href="#ArialMT-97"/>
     <use x="305.761719" xlink:href="#ArialMT-110"/>
     <use x="361.376953" xlink:href="#ArialMT-32"/>
     <use x="389.160156" xlink:href="#ArialMT-66"/>
     <use x="455.859375" xlink:href="#ArialMT-97"/>
     <use x="511.474609" xlink:href="#ArialMT-110"/>
     <use x="567.089844" xlink:href="#ArialMT-107"/>
     <use x="617.089844" xlink:href="#ArialMT-114"/>
     <use x="650.390625" xlink:href="#ArialMT-117"/>
     <use x="706.005859" xlink:href="#ArialMT-112"/>
     <use x="761.621094" xlink:href="#ArialMT-116"/>
     <use x="789.404297" xlink:href="#ArialMT-99"/>
     <use x="839.404297" xlink:href="#ArialMT-121"/>
    </g>
   </g>
   <g id="text_20">
    <!-- Important dates in the 2008-2009 financial crisis -->
    <defs>
     <path d="M 9.328125 0 
L 9.328125 71.578125 
L 18.796875 71.578125 
L 18.796875 0 
z
" id="ArialMT-73"/>
     <path d="M 40.234375 0 
L 40.234375 6.546875 
Q 35.296875 -1.171875 25.734375 -1.171875 
Q 19.53125 -1.171875 14.328125 2.25 
Q 9.125 5.671875 6.265625 11.796875 
Q 3.421875 17.921875 3.421875 25.875 
Q 3.421875 33.640625 6 39.96875 
Q 8.59375 46.296875 13.765625 49.65625 
Q 18.953125 53.03125 25.34375 53.03125 
Q 30.03125 53.03125 33.6875 51.046875 
Q 37.359375 49.078125 39.65625 45.90625 
L 39.65625 71.578125 
L 48.390625 71.578125 
L 48.390625 0 
z
M 12.453125 25.875 
Q 12.453125 15.921875 16.640625 10.984375 
Q 20.84375 6.0625 26.5625 6.0625 
Q 32.328125 6.0625 36.34375 10.765625 
Q 40.375 15.484375 40.375 25.140625 
Q 40.375 35.796875 36.265625 40.765625 
Q 32.171875 45.75 26.171875 45.75 
Q 20.3125 45.75 16.375 40.96875 
Q 12.453125 36.1875 12.453125 25.875 
z
" id="ArialMT-100"/>
    </defs>
    <g style="fill:#262626;" transform="translate(143.76375 37.2)scale(0.144 -0.144)">
     <use xlink:href="#ArialMT-73"/>
     <use x="27.783203" xlink:href="#ArialMT-109"/>
     <use x="111.083984" xlink:href="#ArialMT-112"/>
     <use x="166.699219" xlink:href="#ArialMT-111"/>
     <use x="222.314453" xlink:href="#ArialMT-114"/>
     <use x="255.615234" xlink:href="#ArialMT-116"/>
     <use x="283.398438" xlink:href="#ArialMT-97"/>
     <use x="339.013672" xlink:href="#ArialMT-110"/>
     <use x="394.628906" xlink:href="#ArialMT-116"/>
     <use x="422.412109" xlink:href="#ArialMT-32"/>
     <use x="450.195312" xlink:href="#ArialMT-100"/>
     <use x="505.810547" xlink:href="#ArialMT-97"/>
     <use x="561.425781" xlink:href="#ArialMT-116"/>
     <use x="589.208984" xlink:href="#ArialMT-101"/>
     <use x="644.824219" xlink:href="#ArialMT-115"/>
     <use x="694.824219" xlink:href="#ArialMT-32"/>
     <use x="722.607422" xlink:href="#ArialMT-105"/>
     <use x="744.824219" xlink:href="#ArialMT-110"/>
     <use x="800.439453" xlink:href="#ArialMT-32"/>
     <use x="828.222656" xlink:href="#ArialMT-116"/>
     <use x="856.005859" xlink:href="#ArialMT-104"/>
     <use x="911.621094" xlink:href="#ArialMT-101"/>
     <use x="967.236328" xlink:href="#ArialMT-32"/>
     <use x="995.019531" xlink:href="#ArialMT-50"/>
     <use x="1050.634766" xlink:href="#ArialMT-48"/>
     <use x="1106.25" xlink:href="#ArialMT-48"/>
     <use x="1161.865234" xlink:href="#ArialMT-56"/>
     <use x="1217.480469" xlink:href="#ArialMT-45"/>
     <use x="1250.78125" xlink:href="#ArialMT-50"/>
     <use x="1306.396484" xlink:href="#ArialMT-48"/>
     <use x="1362.011719" xlink:href="#ArialMT-48"/>
     <use x="1417.626953" xlink:href="#ArialMT-57"/>
     <use x="1473.242188" xlink:href="#ArialMT-32"/>
     <use x="1501.025391" xlink:href="#ArialMT-102"/>
     <use x="1528.808594" xlink:href="#ArialMT-105"/>
     <use x="1551.025391" xlink:href="#ArialMT-110"/>
     <use x="1606.640625" xlink:href="#ArialMT-97"/>
     <use x="1662.255859" xlink:href="#ArialMT-110"/>
     <use x="1717.871094" xlink:href="#ArialMT-99"/>
     <use x="1767.871094" xlink:href="#ArialMT-105"/>
     <use x="1790.087891" xlink:href="#ArialMT-97"/>
     <use x="1845.703125" xlink:href="#ArialMT-108"/>
     <use x="1867.919922" xlink:href="#ArialMT-32"/>
     <use x="1895.703125" xlink:href="#ArialMT-99"/>
     <use x="1945.703125" xlink:href="#ArialMT-114"/>
     <use x="1979.003906" xlink:href="#ArialMT-105"/>
     <use x="2001.220703" xlink:href="#ArialMT-115"/>
     <use x="2051.220703" xlink:href="#ArialMT-105"/>
     <use x="2073.4375" xlink:href="#ArialMT-115"/>
    </g>
   </g>
  </g>
 </g>
 <defs>
  <clipPath id="p70680cc38d">
   <rect height="244.8" width="501.12" x="46.08" y="43.2"/>
  </clipPath>
 </defs>
</svg>
