<?xml version="1.0" encoding="utf-8" standalone="no"?>
<!DOCTYPE svg PUBLIC "-//W3C//DTD SVG 1.1//EN"
  "http://www.w3.org/Graphics/SVG/1.1/DTD/svg11.dtd">
<!-- Created with matplotlib (https://matplotlib.org/) -->
<svg height="360pt" version="1.1" viewBox="0 0 576 360" width="576pt" xmlns="http://www.w3.org/2000/svg" xmlns:xlink="http://www.w3.org/1999/xlink">
 <defs>
  <style type="text/css">
*{stroke-linecap:butt;stroke-linejoin:round;}
  </style>
 </defs>
 <g id="figure_1">
  <g id="patch_1">
   <path d="M 0 360 
L 576 360 
L 576 0 
L 0 0 
z
" style="fill:#ffffff;"/>
  </g>
  <g id="axes_1">
   <g id="patch_2">
    <path d="M 72 288 
L 518.4 288 
L 518.4 43.2 
L 72 43.2 
z
" style="fill:#ffffff;"/>
   </g>
   <g id="matplotlib.axis_1">
    <g id="xtick_1">
     <g id="line2d_1">
      <path clip-path="url(#p29aaa5edfd)" d="M 72 288 
L 72 43.2 
" style="fill:none;stroke:#cccccc;stroke-linecap:round;stroke-width:0.8;"/>
     </g>
     <g id="line2d_2"/>
     <g id="text_1">
      <!-- 2007-01 -->
      <defs>
       <path d="M 50.34375 8.453125 
L 50.34375 0 
L 3.03125 0 
Q 2.9375 3.171875 4.046875 6.109375 
Q 5.859375 10.9375 9.828125 15.625 
Q 13.8125 20.3125 21.34375 26.46875 
Q 33.015625 36.03125 37.109375 41.625 
Q 41.21875 47.21875 41.21875 52.203125 
Q 41.21875 57.421875 37.46875 61 
Q 33.734375 64.59375 27.734375 64.59375 
Q 21.390625 64.59375 17.578125 60.78125 
Q 13.765625 56.984375 13.71875 50.25 
L 4.6875 51.171875 
Q 5.609375 61.28125 11.65625 66.578125 
Q 17.71875 71.875 27.9375 71.875 
Q 38.234375 71.875 44.234375 66.15625 
Q 50.25 60.453125 50.25 52 
Q 50.25 47.703125 48.484375 43.546875 
Q 46.734375 39.40625 42.65625 34.8125 
Q 38.578125 30.21875 29.109375 22.21875 
Q 21.1875 15.578125 18.9375 13.203125 
Q 16.703125 10.84375 15.234375 8.453125 
z
" id="ArialMT-50"/>
       <path d="M 4.15625 35.296875 
Q 4.15625 48 6.765625 55.734375 
Q 9.375 63.484375 14.515625 67.671875 
Q 19.671875 71.875 27.484375 71.875 
Q 33.25 71.875 37.59375 69.546875 
Q 41.9375 67.234375 44.765625 62.859375 
Q 47.609375 58.5 49.21875 52.21875 
Q 50.828125 45.953125 50.828125 35.296875 
Q 50.828125 22.703125 48.234375 14.96875 
Q 45.65625 7.234375 40.5 3 
Q 35.359375 -1.21875 27.484375 -1.21875 
Q 17.140625 -1.21875 11.234375 6.203125 
Q 4.15625 15.140625 4.15625 35.296875 
z
M 13.1875 35.296875 
Q 13.1875 17.671875 17.3125 11.828125 
Q 21.4375 6 27.484375 6 
Q 33.546875 6 37.671875 11.859375 
Q 41.796875 17.71875 41.796875 35.296875 
Q 41.796875 52.984375 37.671875 58.78125 
Q 33.546875 64.59375 27.390625 64.59375 
Q 21.34375 64.59375 17.71875 59.46875 
Q 13.1875 52.9375 13.1875 35.296875 
z
" id="ArialMT-48"/>
       <path d="M 4.734375 62.203125 
L 4.734375 70.65625 
L 51.078125 70.65625 
L 51.078125 63.8125 
Q 44.234375 56.546875 37.515625 44.484375 
Q 30.8125 32.421875 27.15625 19.671875 
Q 24.515625 10.6875 23.78125 0 
L 14.75 0 
Q 14.890625 8.453125 18.0625 20.40625 
Q 21.234375 32.375 27.171875 43.484375 
Q 33.109375 54.59375 39.796875 62.203125 
z
" id="ArialMT-55"/>
       <path d="M 3.171875 21.484375 
L 3.171875 30.328125 
L 30.171875 30.328125 
L 30.171875 21.484375 
z
" id="ArialMT-45"/>
       <path d="M 37.25 0 
L 28.46875 0 
L 28.46875 56 
Q 25.296875 52.984375 20.140625 49.953125 
Q 14.984375 46.921875 10.890625 45.40625 
L 10.890625 53.90625 
Q 18.265625 57.375 23.78125 62.296875 
Q 29.296875 67.234375 31.59375 71.875 
L 37.25 71.875 
z
" id="ArialMT-49"/>
      </defs>
      <g style="fill:#262626;" transform="translate(39.227177 316.046504)rotate(-30)scale(0.1 -0.1)">
       <use xlink:href="#ArialMT-50"/>
       <use x="55.615234" xlink:href="#ArialMT-48"/>
       <use x="111.230469" xlink:href="#ArialMT-48"/>
       <use x="166.845703" xlink:href="#ArialMT-55"/>
       <use x="222.460938" xlink:href="#ArialMT-45"/>
       <use x="255.761719" xlink:href="#ArialMT-48"/>
       <use x="311.376953" xlink:href="#ArialMT-49"/>
      </g>
     </g>
    </g>
    <g id="xtick_2">
     <g id="line2d_3">
      <path clip-path="url(#p29aaa5edfd)" d="M 127.303491 288 
L 127.303491 43.2 
" style="fill:none;stroke:#cccccc;stroke-linecap:round;stroke-width:0.8;"/>
     </g>
     <g id="line2d_4"/>
     <g id="text_2">
      <!-- 2007-07 -->
      <g style="fill:#262626;" transform="translate(94.530668 316.046504)rotate(-30)scale(0.1 -0.1)">
       <use xlink:href="#ArialMT-50"/>
       <use x="55.615234" xlink:href="#ArialMT-48"/>
       <use x="111.230469" xlink:href="#ArialMT-48"/>
       <use x="166.845703" xlink:href="#ArialMT-55"/>
       <use x="222.460938" xlink:href="#ArialMT-45"/>
       <use x="255.761719" xlink:href="#ArialMT-48"/>
       <use x="311.376953" xlink:href="#ArialMT-55"/>
      </g>
     </g>
    </g>
    <g id="xtick_3">
     <g id="line2d_5">
      <path clip-path="url(#p29aaa5edfd)" d="M 183.523614 288 
L 183.523614 43.2 
" style="fill:none;stroke:#cccccc;stroke-linecap:round;stroke-width:0.8;"/>
     </g>
     <g id="line2d_6"/>
     <g id="text_3">
      <!-- 2008-01 -->
      <defs>
       <path d="M 17.671875 38.8125 
Q 12.203125 40.828125 9.5625 44.53125 
Q 6.9375 48.25 6.9375 53.421875 
Q 6.9375 61.234375 12.546875 66.546875 
Q 18.171875 71.875 27.484375 71.875 
Q 36.859375 71.875 42.578125 66.421875 
Q 48.296875 60.984375 48.296875 53.171875 
Q 48.296875 48.1875 45.671875 44.5 
Q 43.0625 40.828125 37.75 38.8125 
Q 44.34375 36.671875 47.78125 31.875 
Q 51.21875 27.09375 51.21875 20.453125 
Q 51.21875 11.28125 44.71875 5.03125 
Q 38.234375 -1.21875 27.640625 -1.21875 
Q 17.046875 -1.21875 10.546875 5.046875 
Q 4.046875 11.328125 4.046875 20.703125 
Q 4.046875 27.6875 7.59375 32.390625 
Q 11.140625 37.109375 17.671875 38.8125 
z
M 15.921875 53.71875 
Q 15.921875 48.640625 19.1875 45.40625 
Q 22.46875 42.1875 27.6875 42.1875 
Q 32.765625 42.1875 36.015625 45.375 
Q 39.265625 48.578125 39.265625 53.21875 
Q 39.265625 58.0625 35.90625 61.359375 
Q 32.5625 64.65625 27.59375 64.65625 
Q 22.5625 64.65625 19.234375 61.421875 
Q 15.921875 58.203125 15.921875 53.71875 
z
M 13.09375 20.65625 
Q 13.09375 16.890625 14.875 13.375 
Q 16.65625 9.859375 20.171875 7.921875 
Q 23.6875 6 27.734375 6 
Q 34.03125 6 38.125 10.046875 
Q 42.234375 14.109375 42.234375 20.359375 
Q 42.234375 26.703125 38.015625 30.859375 
Q 33.796875 35.015625 27.4375 35.015625 
Q 21.234375 35.015625 17.15625 30.90625 
Q 13.09375 26.8125 13.09375 20.65625 
z
" id="ArialMT-56"/>
      </defs>
      <g style="fill:#262626;" transform="translate(150.750791 316.046504)rotate(-30)scale(0.1 -0.1)">
       <use xlink:href="#ArialMT-50"/>
       <use x="55.615234" xlink:href="#ArialMT-48"/>
       <use x="111.230469" xlink:href="#ArialMT-48"/>
       <use x="166.845703" xlink:href="#ArialMT-56"/>
       <use x="222.460938" xlink:href="#ArialMT-45"/>
       <use x="255.761719" xlink:href="#ArialMT-48"/>
       <use x="311.376953" xlink:href="#ArialMT-49"/>
      </g>
     </g>
    </g>
    <g id="xtick_4">
     <g id="line2d_7">
      <path clip-path="url(#p29aaa5edfd)" d="M 239.132649 288 
L 239.132649 43.2 
" style="fill:none;stroke:#cccccc;stroke-linecap:round;stroke-width:0.8;"/>
     </g>
     <g id="line2d_8"/>
     <g id="text_4">
      <!-- 2008-07 -->
      <g style="fill:#262626;" transform="translate(206.359826 316.046504)rotate(-30)scale(0.1 -0.1)">
       <use xlink:href="#ArialMT-50"/>
       <use x="55.615234" xlink:href="#ArialMT-48"/>
       <use x="111.230469" xlink:href="#ArialMT-48"/>
       <use x="166.845703" xlink:href="#ArialMT-56"/>
       <use x="222.460938" xlink:href="#ArialMT-45"/>
       <use x="255.761719" xlink:href="#ArialMT-48"/>
       <use x="311.376953" xlink:href="#ArialMT-55"/>
      </g>
     </g>
    </g>
    <g id="xtick_5">
     <g id="line2d_9">
      <path clip-path="url(#p29aaa5edfd)" d="M 295.352772 288 
L 295.352772 43.2 
" style="fill:none;stroke:#cccccc;stroke-linecap:round;stroke-width:0.8;"/>
     </g>
     <g id="line2d_10"/>
     <g id="text_5">
      <!-- 2009-01 -->
      <defs>
       <path d="M 5.46875 16.546875 
L 13.921875 17.328125 
Q 14.984375 11.375 18.015625 8.6875 
Q 21.046875 6 25.78125 6 
Q 29.828125 6 32.875 7.859375 
Q 35.9375 9.71875 37.890625 12.8125 
Q 39.84375 15.921875 41.15625 21.1875 
Q 42.484375 26.46875 42.484375 31.9375 
Q 42.484375 32.515625 42.4375 33.6875 
Q 39.796875 29.5 35.234375 26.875 
Q 30.671875 24.265625 25.34375 24.265625 
Q 16.453125 24.265625 10.296875 30.703125 
Q 4.15625 37.15625 4.15625 47.703125 
Q 4.15625 58.59375 10.578125 65.234375 
Q 17 71.875 26.65625 71.875 
Q 33.640625 71.875 39.421875 68.109375 
Q 45.21875 64.359375 48.21875 57.390625 
Q 51.21875 50.4375 51.21875 37.25 
Q 51.21875 23.53125 48.234375 15.40625 
Q 45.265625 7.28125 39.375 3.03125 
Q 33.5 -1.21875 25.59375 -1.21875 
Q 17.1875 -1.21875 11.859375 3.4375 
Q 6.546875 8.109375 5.46875 16.546875 
z
M 41.453125 48.140625 
Q 41.453125 55.71875 37.421875 60.15625 
Q 33.40625 64.59375 27.734375 64.59375 
Q 21.875 64.59375 17.53125 59.8125 
Q 13.1875 55.03125 13.1875 47.40625 
Q 13.1875 40.578125 17.3125 36.296875 
Q 21.4375 32.03125 27.484375 32.03125 
Q 33.59375 32.03125 37.515625 36.296875 
Q 41.453125 40.578125 41.453125 48.140625 
z
" id="ArialMT-57"/>
      </defs>
      <g style="fill:#262626;" transform="translate(262.579949 316.046504)rotate(-30)scale(0.1 -0.1)">
       <use xlink:href="#ArialMT-50"/>
       <use x="55.615234" xlink:href="#ArialMT-48"/>
       <use x="111.230469" xlink:href="#ArialMT-48"/>
       <use x="166.845703" xlink:href="#ArialMT-57"/>
       <use x="222.460938" xlink:href="#ArialMT-45"/>
       <use x="255.761719" xlink:href="#ArialMT-48"/>
       <use x="311.376953" xlink:href="#ArialMT-49"/>
      </g>
     </g>
    </g>
    <g id="xtick_6">
     <g id="line2d_11">
      <path clip-path="url(#p29aaa5edfd)" d="M 350.656263 288 
L 350.656263 43.2 
" style="fill:none;stroke:#cccccc;stroke-linecap:round;stroke-width:0.8;"/>
     </g>
     <g id="line2d_12"/>
     <g id="text_6">
      <!-- 2009-07 -->
      <g style="fill:#262626;" transform="translate(317.88344 316.046504)rotate(-30)scale(0.1 -0.1)">
       <use xlink:href="#ArialMT-50"/>
       <use x="55.615234" xlink:href="#ArialMT-48"/>
       <use x="111.230469" xlink:href="#ArialMT-48"/>
       <use x="166.845703" xlink:href="#ArialMT-57"/>
       <use x="222.460938" xlink:href="#ArialMT-45"/>
       <use x="255.761719" xlink:href="#ArialMT-48"/>
       <use x="311.376953" xlink:href="#ArialMT-55"/>
      </g>
     </g>
    </g>
    <g id="xtick_7">
     <g id="line2d_13">
      <path clip-path="url(#p29aaa5edfd)" d="M 406.876386 288 
L 406.876386 43.2 
" style="fill:none;stroke:#cccccc;stroke-linecap:round;stroke-width:0.8;"/>
     </g>
     <g id="line2d_14"/>
     <g id="text_7">
      <!-- 2010-01 -->
      <g style="fill:#262626;" transform="translate(374.103563 316.046504)rotate(-30)scale(0.1 -0.1)">
       <use xlink:href="#ArialMT-50"/>
       <use x="55.615234" xlink:href="#ArialMT-48"/>
       <use x="111.230469" xlink:href="#ArialMT-49"/>
       <use x="166.845703" xlink:href="#ArialMT-48"/>
       <use x="222.460938" xlink:href="#ArialMT-45"/>
       <use x="255.761719" xlink:href="#ArialMT-48"/>
       <use x="311.376953" xlink:href="#ArialMT-49"/>
      </g>
     </g>
    </g>
    <g id="xtick_8">
     <g id="line2d_15">
      <path clip-path="url(#p29aaa5edfd)" d="M 462.179877 288 
L 462.179877 43.2 
" style="fill:none;stroke:#cccccc;stroke-linecap:round;stroke-width:0.8;"/>
     </g>
     <g id="line2d_16"/>
     <g id="text_8">
      <!-- 2010-07 -->
      <g style="fill:#262626;" transform="translate(429.407054 316.046504)rotate(-30)scale(0.1 -0.1)">
       <use xlink:href="#ArialMT-50"/>
       <use x="55.615234" xlink:href="#ArialMT-48"/>
       <use x="111.230469" xlink:href="#ArialMT-49"/>
       <use x="166.845703" xlink:href="#ArialMT-48"/>
       <use x="222.460938" xlink:href="#ArialMT-45"/>
       <use x="255.761719" xlink:href="#ArialMT-48"/>
       <use x="311.376953" xlink:href="#ArialMT-55"/>
      </g>
     </g>
    </g>
    <g id="xtick_9">
     <g id="line2d_17">
      <path clip-path="url(#p29aaa5edfd)" d="M 518.4 288 
L 518.4 43.2 
" style="fill:none;stroke:#cccccc;stroke-linecap:round;stroke-width:0.8;"/>
     </g>
     <g id="line2d_18"/>
     <g id="text_9">
      <!-- 2011-01 -->
      <g style="fill:#262626;" transform="translate(485.636649 316.041035)rotate(-30)scale(0.1 -0.1)">
       <use xlink:href="#ArialMT-50"/>
       <use x="55.615234" xlink:href="#ArialMT-48"/>
       <use x="111.230469" xlink:href="#ArialMT-49"/>
       <use x="166.736328" xlink:href="#ArialMT-49"/>
       <use x="222.351562" xlink:href="#ArialMT-45"/>
       <use x="255.652344" xlink:href="#ArialMT-48"/>
       <use x="311.267578" xlink:href="#ArialMT-49"/>
      </g>
     </g>
    </g>
   </g>
   <g id="matplotlib.axis_2">
    <g id="ytick_1">
     <g id="line2d_19">
      <path clip-path="url(#p29aaa5edfd)" d="M 72 288 
L 518.4 288 
" style="fill:none;stroke:#cccccc;stroke-linecap:round;stroke-width:0.8;"/>
     </g>
     <g id="line2d_20"/>
     <g id="text_10">
      <!-- 600 -->
      <defs>
       <path d="M 49.75 54.046875 
L 41.015625 53.375 
Q 39.84375 58.546875 37.703125 60.890625 
Q 34.125 64.65625 28.90625 64.65625 
Q 24.703125 64.65625 21.53125 62.3125 
Q 17.390625 59.28125 14.984375 53.46875 
Q 12.59375 47.65625 12.5 36.921875 
Q 15.671875 41.75 20.265625 44.09375 
Q 24.859375 46.4375 29.890625 46.4375 
Q 38.671875 46.4375 44.84375 39.96875 
Q 51.03125 33.5 51.03125 23.25 
Q 51.03125 16.5 48.125 10.71875 
Q 45.21875 4.9375 40.140625 1.859375 
Q 35.0625 -1.21875 28.609375 -1.21875 
Q 17.625 -1.21875 10.6875 6.859375 
Q 3.765625 14.9375 3.765625 33.5 
Q 3.765625 54.25 11.421875 63.671875 
Q 18.109375 71.875 29.4375 71.875 
Q 37.890625 71.875 43.28125 67.140625 
Q 48.6875 62.40625 49.75 54.046875 
z
M 13.875 23.1875 
Q 13.875 18.65625 15.796875 14.5 
Q 17.71875 10.359375 21.1875 8.171875 
Q 24.65625 6 28.46875 6 
Q 34.03125 6 38.03125 10.484375 
Q 42.046875 14.984375 42.046875 22.703125 
Q 42.046875 30.125 38.078125 34.390625 
Q 34.125 38.671875 28.125 38.671875 
Q 22.171875 38.671875 18.015625 34.390625 
Q 13.875 30.125 13.875 23.1875 
z
" id="ArialMT-54"/>
      </defs>
      <g style="fill:#262626;" transform="translate(51.817188 291.578906)scale(0.1 -0.1)">
       <use xlink:href="#ArialMT-54"/>
       <use x="55.615234" xlink:href="#ArialMT-48"/>
       <use x="111.230469" xlink:href="#ArialMT-48"/>
      </g>
     </g>
    </g>
    <g id="ytick_2">
     <g id="line2d_21">
      <path clip-path="url(#p29aaa5edfd)" d="M 72 247.2 
L 518.4 247.2 
" style="fill:none;stroke:#cccccc;stroke-linecap:round;stroke-width:0.8;"/>
     </g>
     <g id="line2d_22"/>
     <g id="text_11">
      <!-- 800 -->
      <g style="fill:#262626;" transform="translate(51.817188 250.778906)scale(0.1 -0.1)">
       <use xlink:href="#ArialMT-56"/>
       <use x="55.615234" xlink:href="#ArialMT-48"/>
       <use x="111.230469" xlink:href="#ArialMT-48"/>
      </g>
     </g>
    </g>
    <g id="ytick_3">
     <g id="line2d_23">
      <path clip-path="url(#p29aaa5edfd)" d="M 72 206.4 
L 518.4 206.4 
" style="fill:none;stroke:#cccccc;stroke-linecap:round;stroke-width:0.8;"/>
     </g>
     <g id="line2d_24"/>
     <g id="text_12">
      <!-- 1000 -->
      <g style="fill:#262626;" transform="translate(46.25625 209.978906)scale(0.1 -0.1)">
       <use xlink:href="#ArialMT-49"/>
       <use x="55.615234" xlink:href="#ArialMT-48"/>
       <use x="111.230469" xlink:href="#ArialMT-48"/>
       <use x="166.845703" xlink:href="#ArialMT-48"/>
      </g>
     </g>
    </g>
    <g id="ytick_4">
     <g id="line2d_25">
      <path clip-path="url(#p29aaa5edfd)" d="M 72 165.6 
L 518.4 165.6 
" style="fill:none;stroke:#cccccc;stroke-linecap:round;stroke-width:0.8;"/>
     </g>
     <g id="line2d_26"/>
     <g id="text_13">
      <!-- 1200 -->
      <g style="fill:#262626;" transform="translate(46.25625 169.178906)scale(0.1 -0.1)">
       <use xlink:href="#ArialMT-49"/>
       <use x="55.615234" xlink:href="#ArialMT-50"/>
       <use x="111.230469" xlink:href="#ArialMT-48"/>
       <use x="166.845703" xlink:href="#ArialMT-48"/>
      </g>
     </g>
    </g>
    <g id="ytick_5">
     <g id="line2d_27">
      <path clip-path="url(#p29aaa5edfd)" d="M 72 124.8 
L 518.4 124.8 
" style="fill:none;stroke:#cccccc;stroke-linecap:round;stroke-width:0.8;"/>
     </g>
     <g id="line2d_28"/>
     <g id="text_14">
      <!-- 1400 -->
      <defs>
       <path d="M 32.328125 0 
L 32.328125 17.140625 
L 1.265625 17.140625 
L 1.265625 25.203125 
L 33.9375 71.578125 
L 41.109375 71.578125 
L 41.109375 25.203125 
L 50.78125 25.203125 
L 50.78125 17.140625 
L 41.109375 17.140625 
L 41.109375 0 
z
M 32.328125 25.203125 
L 32.328125 57.46875 
L 9.90625 25.203125 
z
" id="ArialMT-52"/>
      </defs>
      <g style="fill:#262626;" transform="translate(46.25625 128.378906)scale(0.1 -0.1)">
       <use xlink:href="#ArialMT-49"/>
       <use x="55.615234" xlink:href="#ArialMT-52"/>
       <use x="111.230469" xlink:href="#ArialMT-48"/>
       <use x="166.845703" xlink:href="#ArialMT-48"/>
      </g>
     </g>
    </g>
    <g id="ytick_6">
     <g id="line2d_29">
      <path clip-path="url(#p29aaa5edfd)" d="M 72 84 
L 518.4 84 
" style="fill:none;stroke:#cccccc;stroke-linecap:round;stroke-width:0.8;"/>
     </g>
     <g id="line2d_30"/>
     <g id="text_15">
      <!-- 1600 -->
      <g style="fill:#262626;" transform="translate(46.25625 87.578906)scale(0.1 -0.1)">
       <use xlink:href="#ArialMT-49"/>
       <use x="55.615234" xlink:href="#ArialMT-54"/>
       <use x="111.230469" xlink:href="#ArialMT-48"/>
       <use x="166.845703" xlink:href="#ArialMT-48"/>
      </g>
     </g>
    </g>
    <g id="ytick_7">
     <g id="line2d_31">
      <path clip-path="url(#p29aaa5edfd)" d="M 72 43.2 
L 518.4 43.2 
" style="fill:none;stroke:#cccccc;stroke-linecap:round;stroke-width:0.8;"/>
     </g>
     <g id="line2d_32"/>
     <g id="text_16">
      <!-- 1800 -->
      <g style="fill:#262626;" transform="translate(46.25625 46.778906)scale(0.1 -0.1)">
       <use xlink:href="#ArialMT-49"/>
       <use x="55.615234" xlink:href="#ArialMT-56"/>
       <use x="111.230469" xlink:href="#ArialMT-48"/>
       <use x="166.845703" xlink:href="#ArialMT-48"/>
      </g>
     </g>
    </g>
   </g>
   <g id="line2d_33">
    <path clip-path="url(#p29aaa5edfd)" d="M 71.083368 121.0668 
L 72.611088 121.4136 
L 72.916632 121.05864 
L 73.222177 122.81916 
L 74.138809 122.18064 
L 74.444353 122.32956 
L 74.749897 121.7706 
L 75.360986 118.53108 
L 76.583162 118.2924 
L 76.888706 118.55352 
L 77.194251 119.42052 
L 77.499795 118.578 
L 78.416427 120.1182 
L 78.721971 119.09004 
L 79.027515 116.61348 
L 79.33306 119.9244 
L 79.638604 120.27528 
L 80.555236 120.59352 
L 81.471869 115.42824 
L 81.777413 114.92844 
L 82.694045 115.21404 
L 82.999589 115.008 
L 83.305133 114.59592 
L 83.610678 114.94476 
L 83.916222 117.03576 
L 84.832854 117.99252 
L 85.443943 113.5188 
L 85.749487 113.21076 
L 86.055031 113.46984 
L 87.277207 112.62528 
L 87.888296 113.29848 
L 88.19384 114.35724 
L 89.110472 114.72852 
L 89.416016 124.99584 
L 89.721561 123.40872 
L 90.027105 124.15332 
L 90.332649 127.41732 
L 91.249281 130.07952 
L 91.554825 125.73636 
L 91.86037 126.43812 
L 92.165914 124.41444 
L 92.471458 124.22064 
L 93.38809 123.4536 
L 93.693634 129.2982 
L 93.999179 127.41732 
L 94.304723 126.37488 
L 94.610267 127.4622 
L 95.526899 124.37976 
L 95.832444 122.56824 
L 96.137988 117.65184 
L 96.443532 117.75384 
L 96.749076 117.43356 
L 97.665708 117.15 
L 98.276797 121.28508 
L 98.582341 120.20388 
L 98.887885 120.54456 
L 99.804517 119.7918 
L 100.110062 117.09492 
L 100.415606 116.76852 
L 100.72115 115.87296 
L 101.943326 115.69956 
L 102.248871 114.92844 
L 102.554415 116.87052 
L 102.859959 115.0488 
L 104.38768 110.21808 
L 104.693224 110.01 
L 104.998768 110.37108 
L 105.304312 107.5926 
L 106.526489 108.39636 
L 106.832033 105.33432 
L 107.137577 105.573 
L 107.443121 105.60972 
L 108.359754 107.99652 
L 108.665298 107.1948 
L 109.276386 103.91244 
L 109.58193 103.25352 
L 110.498563 102.46608 
L 110.804107 102.82512 
L 111.109651 101.83368 
L 111.415195 106.14012 
L 111.720739 103.2066 
L 112.637372 103.7574 
L 112.942916 104.15724 
L 113.24846 101.51544 
L 113.554004 101.799 
L 113.859548 99.759 
L 114.776181 99.2796 
L 115.081725 99.47952 
L 115.387269 99.85488 
L 115.692813 102.86796 
L 115.998357 101.19108 
L 117.220534 100.70556 
L 117.526078 98.23308 
L 117.831622 98.15352 
L 118.137166 96.98664 
L 119.053799 96.40728 
L 119.359343 98.0862 
L 119.664887 100.85448 
L 119.970431 106.29312 
L 120.275975 102.83532 
L 121.192608 102.53952 
L 121.498152 105.828 
L 121.803696 101.20332 
L 122.414784 97.68636 
L 123.331417 98.0658 
L 123.636961 97.5252 
L 123.942505 101.78064 
L 124.248049 99.87324 
L 124.553593 103.87776 
L 125.470226 104.86104 
L 125.77577 105.85044 
L 126.081314 103.10664 
L 126.386858 103.23516 
L 126.692402 103.7166 
L 127.914579 99.32652 
L 128.525667 99.2184 
L 128.831211 98.19024 
L 129.747844 97.9026 
L 130.053388 102.33552 
L 130.358932 100.57296 
L 130.664476 94.6692 
L 130.970021 93.69 
L 131.886653 94.29792 
L 132.192197 94.32852 
L 132.497741 94.98132 
L 132.803285 93.57168 
L 133.10883 97.4436 
L 134.025462 95.91972 
L 134.331006 102.14784 
L 134.63655 100.70964 
L 135.247639 112.7742 
L 136.164271 109.72236 
L 136.469815 113.52492 
L 136.775359 111.37476 
L 137.080903 110.0712 
L 137.386448 118.05576 
L 138.608624 109.15116 
L 138.914168 104.91204 
L 139.219713 113.96964 
L 139.525257 113.85744 
L 140.441889 114.00432 
L 141.052977 123.4332 
L 141.358522 122.50092 
L 141.664066 115.42824 
L 142.580698 115.5078 
L 142.886242 115.18752 
L 143.191786 111.72972 
L 143.497331 112.05 
L 143.802875 108.60852 
L 144.719507 111.17484 
L 145.025051 118.19856 
L 145.330595 111.79296 
L 145.63614 113.04144 
L 145.941684 109.70604 
L 147.16386 106.55832 
L 147.469405 110.05284 
L 147.774949 108.7758 
L 148.080493 113.8758 
L 148.997125 114.2532 
L 149.302669 110.21604 
L 149.608214 110.20176 
L 149.913758 107.6742 
L 150.219302 107.613 
L 151.135934 109.1634 
L 151.441478 100.36488 
L 151.747023 98.47788 
L 152.052567 100.575 
L 152.358111 99.147 
L 153.274743 100.78308 
L 153.580287 100.88916 
L 154.191376 97.99848 
L 154.49692 98.943 
L 155.413552 94.80384 
L 155.719097 94.88748 
L 156.024641 96.32364 
L 156.330185 95.66064 
L 156.635729 92.65164 
L 157.552361 93.67368 
L 157.857906 91.1094 
L 158.16345 91.65612 
L 158.468994 93.30036 
L 158.774538 91.7928 
L 159.69117 94.46316 
L 159.996715 96.53988 
L 160.302259 95.98704 
L 160.607803 96.22368 
L 160.913347 104.27148 
L 161.829979 103.10868 
L 162.135524 100.40364 
L 162.441068 101.16048 
L 162.746612 101.4624 
L 163.052156 97.20288 
L 163.968789 96.04008 
L 164.274333 98.07192 
L 164.579877 94.32648 
L 164.885421 102.67824 
L 165.190965 102.4314 
L 166.107598 103.95732 
L 166.413142 100.26492 
L 166.718686 109.37352 
L 167.02423 109.54692 
L 167.329774 113.8452 
L 168.246407 116.80728 
L 168.551951 108.2658 
L 168.857495 110.40168 
L 169.163039 114.3654 
L 169.468583 112.81704 
L 170.385216 118.01292 
L 170.69076 116.7012 
L 170.996304 121.37892 
L 171.607392 116.4972 
L 172.524025 123.32712 
L 172.829569 119.04108 
L 173.135113 110.71992 
L 173.440657 110.57712 
L 173.746201 108.24744 
L 174.662834 110.02632 
L 174.968378 111.99084 
L 175.579466 102.90264 
L 175.88501 103.44936 
L 176.801643 101.14416 
L 177.107187 108.9594 
L 177.412731 107.13564 
L 177.718275 106.76436 
L 178.023819 110.9382 
L 178.940452 115.4364 
L 179.245996 113.58408 
L 179.55154 113.988 
L 179.857084 112.53552 
L 180.162628 107.57016 
L 181.079261 105.1242 
L 181.690349 104.87736 
L 181.995893 109.24092 
L 182.301437 108.78804 
L 183.21807 110.85456 
L 183.829158 115.17936 
L 184.134702 115.17936 
L 184.440246 122.42748 
L 185.356879 121.49928 
L 185.662423 126.80124 
L 185.967967 122.93748 
L 186.273511 120.65268 
L 186.579055 124.59192 
L 187.495688 121.485 
L 187.801232 128.6862 
L 188.106776 130.2672 
L 188.41232 138.417 
L 188.717864 140.06124 
L 189.940041 143.058 
L 190.245585 137.3256 
L 190.551129 134.57772 
L 190.856674 138.95556 
L 192.07885 132.4908 
L 192.384394 133.81476 
L 192.995483 125.73432 
L 193.912115 128.71272 
L 194.217659 137.72544 
L 194.523203 139.8042 
L 194.828747 137.67036 
L 195.134292 138.81684 
L 196.050924 137.21748 
L 196.356468 135.23256 
L 196.662012 131.48916 
L 196.967556 135.23256 
L 197.273101 135.00204 
L 198.495277 135.24888 
L 198.800821 132.95388 
L 199.106366 136.52388 
L 199.41191 134.36556 
L 200.328542 130.5528 
L 200.634086 128.61684 
L 200.93963 128.87592 
L 201.245175 131.39328 
L 201.550719 138.95148 
L 202.467351 138.80664 
L 202.772895 139.743 
L 203.078439 138.3252 
L 203.383984 144.31464 
L 203.689528 146.55252 
L 204.60616 150.63252 
L 204.911704 140.9874 
L 205.217248 143.41092 
L 205.522793 142.04208 
L 205.828337 147.61944 
L 206.744969 149.9736 
L 207.050513 138.92904 
L 207.356057 145.52232 
L 207.661602 139.17996 
L 208.883778 135.02448 
L 209.189322 134.39004 
L 210.105955 142.09512 
L 211.022587 140.5692 
L 211.328131 130.88328 
L 211.633676 131.42388 
L 212.244764 130.8384 
L 213.161396 130.40184 
L 213.46694 131.82984 
L 213.772485 134.08404 
L 214.078029 132.8478 
L 214.383573 138.50268 
L 215.300205 139.42272 
L 215.605749 138.17628 
L 215.911294 131.99916 
L 216.216838 131.82576 
L 216.522382 126.77268 
L 217.439014 127.21332 
L 217.744559 129.70824 
L 218.050103 128.89428 
L 218.661191 125.24064 
L 219.577823 125.54052 
L 220.188912 127.73964 
L 220.494456 122.89464 
L 220.8 121.9644 
L 221.716632 123.27204 
L 222.022177 121.07496 
L 222.327721 126.31572 
L 222.633265 125.27328 
L 222.938809 127.19088 
L 223.855441 124.06968 
L 224.160986 124.17984 
L 224.46653 123.03336 
L 224.772074 119.99172 
L 225.077618 119.6286 
L 225.994251 119.36748 
L 226.299795 122.0664 
L 226.605339 126.69516 
L 226.910883 125.9526 
L 227.216427 129.71028 
L 228.438604 127.7886 
L 229.355236 124.72248 
L 230.271869 127.72332 
L 230.577413 129.3594 
L 230.882957 129.4512 
L 231.188501 123.9738 
L 231.494045 132.82128 
L 232.410678 132.60096 
L 232.716222 133.27824 
L 233.021766 137.96004 
L 233.32731 137.06652 
L 233.632854 132.95388 
L 234.549487 132.93144 
L 234.855031 134.81028 
L 235.160575 137.48676 
L 235.466119 136.46268 
L 235.771663 141.54228 
L 236.688296 141.528 
L 236.99384 142.28484 
L 237.299384 140.71812 
L 237.604928 148.6374 
L 237.910472 149.61048 
L 238.827105 149.28 
L 239.132649 148.27836 
L 239.438193 153.04992 
L 239.743737 152.7684 
L 240.965914 154.92876 
L 241.271458 150.5652 
L 241.577002 156.48324 
L 241.882546 154.70844 
L 242.18809 157.54404 
L 243.104723 159.8268 
L 243.410267 162.55836 
L 243.715811 156.34656 
L 244.021355 153.29472 
L 244.326899 153.22128 
L 245.243532 153.36 
L 245.549076 149.892 
L 245.85462 148.83324 
L 246.160164 154.88184 
L 246.465708 153.81696 
L 247.382341 158.58852 
L 247.993429 148.41096 
L 248.298973 151.85448 
L 248.604517 153.29676 
L 249.52115 155.60196 
L 249.826694 148.28448 
L 250.132238 147.40524 
L 250.437782 152.12172 
L 250.743326 145.95072 
L 251.659959 144.11472 
L 251.965503 147.32364 
L 252.271047 148.09068 
L 252.882136 145.5672 
L 253.798768 149.5656 
L 254.104312 151.99524 
L 254.409856 150.39384 
L 254.7154 149.74512 
L 255.020945 146.7912 
L 255.937577 151.96464 
L 256.243121 151.01196 
L 256.548665 148.94136 
L 256.854209 145.06128 
L 257.159754 148.70268 
L 258.38193 149.77368 
L 258.687474 150.30408 
L 258.993018 158.08668 
L 259.298563 156.96876 
L 260.215195 151.77084 
L 260.520739 160.59996 
L 260.826283 159.06384 
L 261.131828 155.5938 
L 261.437372 155.0532 
L 262.354004 167.0892 
L 262.659548 162.8256 
L 262.965092 174.49644 
L 263.576181 154.36368 
L 264.798357 168.00312 
L 265.103901 168.48252 
L 265.409446 163.72728 
L 265.71499 162.89292 
L 266.631622 184.69032 
L 266.937166 172.46256 
L 267.24271 173.54376 
L 267.548255 183.08688 
L 268.770431 194.79444 
L 269.075975 207.16908 
L 269.38152 209.47224 
L 269.687064 224.77632 
L 269.992608 226.95912 
L 270.90924 205.7166 
L 271.214784 206.80596 
L 271.520329 225.20064 
L 271.825873 217.32828 
L 272.131417 218.5278 
L 273.048049 209.3784 
L 273.353593 215.5698 
L 273.659138 227.45688 
L 273.964682 225.14556 
L 274.270226 231.53892 
L 275.186858 237.22032 
L 275.492402 218.53596 
L 275.797947 220.66164 
L 276.103491 215.76564 
L 276.409035 212.775 
L 277.325667 213.2748 
L 277.631211 205.227 
L 278.2423 225.80448 
L 278.547844 220.47804 
L 279.464476 222.88116 
L 279.770021 227.0142 
L 280.075565 236.5308 
L 280.381109 224.49684 
L 280.686653 232.24884 
L 281.603285 236.847 
L 281.90883 235.13952 
L 282.519918 256.90224 
L 282.825462 247.19388 
L 283.742094 236.63076 
L 284.047639 235.49244 
L 284.353183 229.31328 
L 284.964271 227.56704 
L 285.880903 243.89316 
L 286.491992 232.76904 
L 286.797536 237.97512 
L 287.10308 231.68172 
L 288.019713 224.8212 
L 288.325257 229.11132 
L 288.630801 226.95504 
L 288.936345 232.18764 
L 289.241889 230.93508 
L 290.158522 233.21172 
L 290.464066 224.11128 
L 290.76961 225.89832 
L 291.075154 229.80288 
L 291.380698 229.27248 
L 292.297331 232.58748 
L 292.602875 234.31536 
L 292.908419 233.2974 
L 293.519507 232.3488 
L 294.43614 233.03832 
L 294.741684 228.70944 
L 295.658316 220.3128 
L 296.574949 221.2002 
L 296.880493 219.7212 
L 297.186037 225.4434 
L 297.491581 224.81508 
L 297.797125 228.7686 
L 298.713758 232.86696 
L 299.019302 232.55484 
L 299.324846 238.50552 
L 299.63039 238.27704 
L 299.935934 236.97552 
L 301.158111 246.13512 
L 301.463655 238.99104 
L 301.769199 241.59 
L 302.074743 240.6822 
L 302.991376 239.73972 
L 303.29692 237.87516 
L 303.602464 232.08564 
L 304.213552 241.92048 
L 305.130185 242.01024 
L 305.435729 239.34396 
L 305.741273 240.62508 
L 306.046817 237.8466 
L 306.352361 233.2056 
L 307.268994 232.94244 
L 307.574538 241.65936 
L 307.880082 240.31704 
L 308.185626 240.02124 
L 308.49117 241.72464 
L 309.713347 249.40932 
L 310.018891 249.56232 
L 311.546612 258.76068 
L 311.852156 252.67944 
L 312.1577 254.3604 
L 312.463244 256.82268 
L 312.768789 260.44164 
L 313.685421 267.43272 
L 313.990965 268.34868 
L 314.296509 264.97452 
L 314.602053 271.1598 
L 314.907598 270.99048 
L 315.82423 272.38788 
L 316.129774 263.6016 
L 316.435318 263.24256 
L 316.740862 257.24904 
L 317.046407 256.0638 
L 317.963039 256.60644 
L 318.574127 248.3526 
L 318.879671 250.45584 
L 319.185216 253.61784 
L 320.101848 242.52432 
L 320.407392 245.95152 
L 320.712936 244.36848 
L 321.01848 240.49656 
L 321.324025 243.94824 
L 322.240657 249.74388 
L 322.851745 244.93968 
L 323.15729 240.18648 
L 323.462834 238.53 
L 324.379466 239.96208 
L 324.68501 244.0278 
L 324.990554 242.06736 
L 325.296099 235.66176 
L 326.518275 235.21908 
L 326.823819 238.734 
L 327.740452 233.0016 
L 328.657084 240.59244 
L 328.962628 236.98368 
L 329.268172 238.3158 
L 329.573717 236.60832 
L 329.879261 233.68908 
L 331.101437 235.94736 
L 331.406982 232.17744 
L 331.712526 232.34676 
L 332.01807 231.38592 
L 332.934702 225.32304 
L 333.240246 226.0248 
L 333.545791 222.81588 
L 333.851335 225.29244 
L 334.156879 220.83708 
L 335.073511 224.91504 
L 335.379055 225.0966 
L 335.6846 230.08032 
L 335.990144 228.21372 
L 336.295688 230.29248 
L 337.21232 224.81916 
L 337.517864 225.14148 
L 337.823409 226.09212 
L 338.128953 229.18068 
L 338.434497 229.452 
L 339.656674 224.69268 
L 339.962218 228.21576 
L 340.573306 222.89544 
L 341.489938 218.05452 
L 341.795483 217.67304 
L 342.101027 220.32096 
L 342.406571 218.13816 
L 342.712115 218.62164 
L 343.628747 218.81544 
L 343.934292 218.14428 
L 344.239836 218.8134 
L 344.54538 217.64244 
L 344.850924 217.37316 
L 345.767556 221.96112 
L 346.073101 224.35812 
L 346.378645 224.61516 
L 346.684189 223.05252 
L 346.989733 222.46908 
L 347.906366 228.21984 
L 348.21191 227.7996 
L 348.517454 226.60824 
L 348.822998 222.66696 
L 349.128542 222.9444 
L 350.045175 221.24508 
L 350.350719 222.85872 
L 350.656263 222.04068 
L 350.961807 227.53032 
L 352.183984 227.06112 
L 352.489528 230.66988 
L 352.795072 230.96976 
L 353.100616 230.33328 
L 353.40616 231.05748 
L 354.628337 225.60864 
L 354.933881 220.13328 
L 355.239425 218.48904 
L 355.544969 218.56248 
L 356.767146 215.66568 
L 357.07269 215.76972 
L 357.378234 211.23684 
L 357.683778 210.63096 
L 358.600411 210.03528 
L 358.905955 210.55752 
L 359.211499 211.4694 
L 359.517043 209.103 
L 359.822587 208.95408 
L 360.73922 205.86348 
L 361.044764 205.2474 
L 361.350308 205.84512 
L 361.655852 206.99568 
L 361.961396 204.26208 
L 362.878029 204.9516 
L 363.183573 207.5526 
L 363.489117 205.21476 
L 363.794661 203.80308 
L 365.016838 210.53508 
L 365.93347 204.89652 
L 366.239014 201.06948 
L 367.155647 201.18372 
L 367.461191 200.688 
L 367.766735 200.66352 
L 368.072279 200.08008 
L 368.377823 200.49828 
L 369.294456 202.19352 
L 369.6 206.79984 
L 369.905544 207.471 
L 370.211088 205.73904 
L 370.516632 203.0544 
L 371.738809 201.22044 
L 372.349897 197.39544 
L 372.655441 197.68308 
L 373.572074 196.33464 
L 373.877618 195.66348 
L 374.183162 192.37296 
L 374.488706 193.04004 
L 374.794251 192.4668 
L 375.710883 193.20936 
L 376.016427 191.78136 
L 376.627515 196.04088 
L 376.93306 197.34648 
L 377.849692 193.55208 
L 378.155236 194.03556 
L 378.46078 194.75568 
L 378.766324 200.3106 
L 379.071869 201.25716 
L 379.988501 198.14616 
L 380.294045 195.23712 
L 380.599589 194.65368 
L 381.210678 191.81604 
L 382.12731 190.85724 
L 382.432854 191.46924 
L 382.738398 187.62792 
L 383.043943 186.70176 
L 383.349487 188.51328 
L 384.266119 186.42636 
L 384.571663 187.82376 
L 384.877207 189.7944 
L 385.182752 187.44636 
L 385.488296 190.1616 
L 386.710472 193.46436 
L 387.016016 197.70348 
L 387.321561 192.91356 
L 387.627105 199.01724 
L 389.154825 196.914 
L 389.46037 192.80748 
L 389.765914 192.2628 
L 390.682546 187.41168 
L 390.98809 187.42596 
L 391.293634 186.30396 
L 391.599179 188.60304 
L 391.904723 187.33008 
L 392.821355 184.1028 
L 393.126899 183.89472 
L 393.432444 184.0008 
L 393.737988 187.0404 
L 394.043532 187.75848 
L 394.960164 184.72704 
L 395.265708 184.8474 
L 395.571253 183.83148 
L 396.182341 187.73604 
L 397.098973 186.89148 
L 397.404517 184.19256 
L 397.710062 184.11504 
L 398.015606 186.01632 
L 398.32115 184.78008 
L 399.237782 185.337 
L 399.543326 187.64424 
L 399.848871 186.8262 
L 400.459959 184.69236 
L 401.376591 183.12156 
L 401.682136 184.38228 
L 401.98768 184.12728 
L 402.293224 186.79968 
L 402.598768 185.49612 
L 404.432033 180.59808 
L 405.654209 180.33288 
L 405.959754 180.6552 
L 406.265298 180.61032 
L 406.570842 182.9196 
L 408.098563 178.54992 
L 408.404107 178.42344 
L 409.015195 176.82408 
L 409.931828 176.41608 
L 410.237372 178.61112 
L 410.542916 176.68128 
L 410.84846 176.11416 
L 411.154004 178.64988 
L 412.376181 175.75308 
L 412.681725 178.23984 
L 413.292813 187.68096 
L 414.209446 186.65688 
L 414.51499 187.59732 
L 414.820534 186.51 
L 415.431622 191.33052 
L 416.348255 188.20524 
L 416.653799 185.32272 
L 416.959343 186.55488 
L 417.264887 193.52556 
L 417.570431 192.89724 
L 418.487064 194.82504 
L 418.792608 192.01392 
L 419.098152 192.50148 
L 419.403696 190.39212 
L 419.70924 190.99596 
L 421.236961 186.09996 
L 421.542505 184.623 
L 421.848049 184.12932 
L 422.764682 184.36596 
L 423.070226 187.1016 
L 423.37577 184.93104 
L 423.681314 185.40024 
L 423.986858 185.08404 
L 425.209035 182.26476 
L 425.514579 182.16684 
L 425.820123 181.31412 
L 426.125667 178.1052 
L 427.0423 178.146 
L 427.347844 177.7482 
L 427.958932 175.75104 
L 428.264476 175.80204 
L 429.181109 175.69596 
L 429.792197 172.49316 
L 430.097741 172.57068 
L 430.403285 173.7804 
L 431.319918 172.57476 
L 431.625462 170.86932 
L 431.931006 172.18512 
L 432.23655 172.59108 
L 432.542094 172.41564 
L 433.458727 171.06312 
L 433.764271 171.05292 
L 434.069815 171.83628 
L 434.375359 170.0676 
L 435.90308 167.75424 
L 436.208624 169.1802 
L 436.514168 168.36624 
L 436.819713 166.74852 
L 438.041889 166.1508 
L 438.347433 163.4274 
L 438.652977 163.21932 
L 438.958522 167.20548 
L 439.875154 166.10592 
L 440.180698 164.13732 
L 440.486242 164.38824 
L 440.791786 163.83132 
L 441.097331 162.07488 
L 442.013963 163.1418 
L 442.319507 168.92316 
L 442.625051 167.36256 
L 442.930595 164.21688 
L 443.23614 168.31524 
L 444.152772 165.13896 
L 444.458316 170.9856 
L 444.76386 172.56252 
L 445.069405 180.2574 
L 445.374949 183.78048 
L 446.291581 173.81508 
L 446.597125 174.61884 
L 446.902669 171.37932 
L 447.208214 174.28224 
L 447.513758 178.72128 
L 448.43039 178.46424 
L 448.735934 181.7568 
L 449.041478 182.9298 
L 449.347023 191.79564 
L 449.652567 188.51124 
L 450.569199 191.3754 
L 450.874743 191.29788 
L 451.180287 192.5382 
L 451.485832 185.37576 
L 451.791376 188.16036 
L 453.013552 191.97516 
L 453.319097 186.33048 
L 453.624641 185.42268 
L 453.930185 193.16448 
L 454.846817 196.10412 
L 455.152361 193.752 
L 455.457906 195.03924 
L 455.76345 188.68464 
L 456.068994 187.7136 
L 456.985626 188.11548 
L 457.29117 182.89308 
L 457.596715 183.01956 
L 458.207803 182.42796 
L 459.124435 183.3072 
L 459.429979 186.95676 
L 459.735524 187.62384 
L 460.041068 191.36724 
L 460.346612 190.74096 
L 461.263244 191.18772 
L 461.568789 197.98704 
L 461.874333 200.13516 
L 462.179877 200.81652 
L 462.485421 201.79368 
L 463.707598 200.67576 
L 464.013142 194.10492 
L 464.62423 190.49616 
L 465.540862 190.335 
L 465.846407 186.95064 
L 466.151951 186.98532 
L 466.457495 186.71808 
L 466.763039 193.16448 
L 467.679671 191.865 
L 467.985216 189.37008 
L 468.29076 192.20364 
L 468.596304 187.29132 
L 468.901848 185.45736 
L 469.81848 182.93796 
L 470.124025 183.17664 
L 470.429569 184.74948 
L 470.735113 185.68788 
L 471.040657 185.6736 
L 471.95729 180.72456 
L 472.262834 181.82616 
L 472.568378 180.44304 
L 472.873922 180.73476 
L 473.179466 181.58544 
L 474.096099 180.33084 
L 474.401643 181.70376 
L 474.707187 188.14812 
L 475.318275 190.233 
L 476.234908 190.20648 
L 476.540452 187.52184 
L 476.845996 187.19136 
L 477.15154 190.97148 
L 477.457084 191.77524 
L 478.373717 192.65856 
L 478.679261 195.81852 
L 478.984805 195.11268 
L 479.290349 196.76712 
L 479.595893 193.22364 
L 480.512526 196.42032 
L 480.81807 196.33668 
L 481.123614 190.02084 
L 481.429158 188.0196 
L 481.734702 185.07996 
L 482.956879 187.66464 
L 483.567967 185.14728 
L 483.873511 184.0518 
L 484.790144 181.5324 
L 485.095688 181.6956 
L 485.401232 180.88572 
L 485.706776 180.96936 
L 486.01232 180.77964 
L 486.928953 177.28716 
L 487.234497 177.88488 
L 487.540041 179.00688 
L 487.845585 180.93468 
L 488.151129 176.07132 
L 489.067762 177.39936 
L 489.373306 176.2692 
L 489.984394 177.5952 
L 490.289938 176.56704 
L 491.206571 178.44588 
L 491.512115 173.607 
L 491.817659 173.76612 
L 492.123203 174.15576 
L 492.428747 172.7094 
L 493.34538 172.67472 
L 493.650924 171.76692 
L 493.956468 170.0676 
L 494.262012 170.94276 
L 494.567556 170.45724 
L 495.484189 168.71916 
L 495.789733 172.5564 
L 496.095277 170.05332 
L 496.706366 169.05168 
L 497.622998 168.53352 
L 497.928542 168.52944 
L 498.234086 169.1802 
L 498.53963 168.90888 
L 498.845175 169.01496 
L 499.761807 168.78648 
L 500.067351 166.91172 
L 500.372895 166.01616 
L 500.678439 161.30376 
L 500.983984 160.3266 
L 501.900616 160.857 
L 502.20616 162.8664 
L 502.511704 161.78316 
L 502.817248 162.83784 
L 503.122793 165.76116 
L 504.039425 166.059 
L 504.344969 170.01864 
L 504.650513 169.96764 
L 504.956057 166.27524 
L 505.261602 165.65508 
L 506.178234 166.04064 
L 506.483778 169.53108 
L 506.789322 165.9366 
L 507.400411 167.7624 
L 508.317043 168.09696 
L 508.622587 169.5678 
L 508.928131 164.36172 
L 509.233676 161.20788 
L 509.53922 160.55916 
L 510.455852 160.88352 
L 510.761396 160.755 
L 511.372485 158.868 
L 511.678029 157.3584 
L 512.594661 157.34616 
L 512.900205 157.11564 
L 513.205749 158.41308 
L 513.511294 156.85452 
L 514.73347 155.99568 
L 515.039014 154.4616 
L 515.344559 153.59664 
L 515.650103 154.01892 
L 516.872279 153.86184 
L 517.483368 153.40488 
L 517.788912 153.79248 
L 518.094456 153.84144 
L 519.011088 150.93852 
L 519.011088 150.93852 
" style="fill:none;stroke:#000000;stroke-linecap:round;stroke-width:1.5;"/>
   </g>
   <g id="patch_3">
    <path d="M 72 288 
L 72 43.2 
" style="fill:none;stroke:#cccccc;stroke-linecap:square;stroke-linejoin:miter;"/>
   </g>
   <g id="patch_4">
    <path d="M 518.4 288 
L 518.4 43.2 
" style="fill:none;stroke:#cccccc;stroke-linecap:square;stroke-linejoin:miter;"/>
   </g>
   <g id="patch_5">
    <path d="M 72 288 
L 518.4 288 
" style="fill:none;stroke:#cccccc;stroke-linecap:square;stroke-linejoin:miter;"/>
   </g>
   <g id="patch_6">
    <path d="M 72 43.2 
L 518.4 43.2 
" style="fill:none;stroke:#cccccc;stroke-linecap:square;stroke-linejoin:miter;"/>
   </g>
   <g id="patch_7">
    <path d="M 159.468994 63.643955 
Q 159.468994 71.369991 159.468994 79.096027 
L 160.468994 79.096027 
Q 159.468994 81.098193 158.468994 83.10036 
Q 157.468994 81.098193 156.468994 79.096027 
L 157.468994 79.096027 
Q 157.468994 71.369991 157.468994 63.643955 
L 159.468994 63.643955 
z
" style="stroke:#ffffff;stroke-linecap:round;"/>
   </g>
   <g id="text_17">
    <!-- Peak of bull market -->
    <defs>
     <path d="M 7.71875 0 
L 7.71875 71.578125 
L 34.71875 71.578125 
Q 41.84375 71.578125 45.609375 70.90625 
Q 50.875 70.015625 54.4375 67.546875 
Q 58.015625 65.09375 60.1875 60.640625 
Q 62.359375 56.203125 62.359375 50.875 
Q 62.359375 41.75 56.546875 35.421875 
Q 50.734375 29.109375 35.546875 29.109375 
L 17.1875 29.109375 
L 17.1875 0 
z
M 17.1875 37.546875 
L 35.6875 37.546875 
Q 44.875 37.546875 48.734375 40.96875 
Q 52.59375 44.390625 52.59375 50.59375 
Q 52.59375 55.078125 50.3125 58.265625 
Q 48.046875 61.46875 44.34375 62.5 
Q 41.9375 63.140625 35.5 63.140625 
L 17.1875 63.140625 
z
" id="ArialMT-80"/>
     <path d="M 42.09375 16.703125 
L 51.171875 15.578125 
Q 49.03125 7.625 43.21875 3.21875 
Q 37.40625 -1.171875 28.375 -1.171875 
Q 17 -1.171875 10.328125 5.828125 
Q 3.65625 12.84375 3.65625 25.484375 
Q 3.65625 38.578125 10.390625 45.796875 
Q 17.140625 53.03125 27.875 53.03125 
Q 38.28125 53.03125 44.875 45.953125 
Q 51.46875 38.875 51.46875 26.03125 
Q 51.46875 25.25 51.421875 23.6875 
L 12.75 23.6875 
Q 13.234375 15.140625 17.578125 10.59375 
Q 21.921875 6.0625 28.421875 6.0625 
Q 33.25 6.0625 36.671875 8.59375 
Q 40.09375 11.140625 42.09375 16.703125 
z
M 13.234375 30.90625 
L 42.1875 30.90625 
Q 41.609375 37.453125 38.875 40.71875 
Q 34.671875 45.796875 27.984375 45.796875 
Q 21.921875 45.796875 17.796875 41.75 
Q 13.671875 37.703125 13.234375 30.90625 
z
" id="ArialMT-101"/>
     <path d="M 40.4375 6.390625 
Q 35.546875 2.25 31.03125 0.53125 
Q 26.515625 -1.171875 21.34375 -1.171875 
Q 12.796875 -1.171875 8.203125 3 
Q 3.609375 7.171875 3.609375 13.671875 
Q 3.609375 17.484375 5.34375 20.625 
Q 7.078125 23.78125 9.890625 25.6875 
Q 12.703125 27.59375 16.21875 28.5625 
Q 18.796875 29.25 24.03125 29.890625 
Q 34.671875 31.15625 39.703125 32.90625 
Q 39.75 34.71875 39.75 35.203125 
Q 39.75 40.578125 37.25 42.78125 
Q 33.890625 45.75 27.25 45.75 
Q 21.046875 45.75 18.09375 43.578125 
Q 15.140625 41.40625 13.71875 35.890625 
L 5.125 37.0625 
Q 6.296875 42.578125 8.984375 45.96875 
Q 11.671875 49.359375 16.75 51.1875 
Q 21.828125 53.03125 28.515625 53.03125 
Q 35.15625 53.03125 39.296875 51.46875 
Q 43.453125 49.90625 45.40625 47.53125 
Q 47.359375 45.171875 48.140625 41.546875 
Q 48.578125 39.3125 48.578125 33.453125 
L 48.578125 21.734375 
Q 48.578125 9.46875 49.140625 6.21875 
Q 49.703125 2.984375 51.375 0 
L 42.1875 0 
Q 40.828125 2.734375 40.4375 6.390625 
z
M 39.703125 26.03125 
Q 34.90625 24.078125 25.34375 22.703125 
Q 19.921875 21.921875 17.671875 20.9375 
Q 15.4375 19.96875 14.203125 18.09375 
Q 12.984375 16.21875 12.984375 13.921875 
Q 12.984375 10.40625 15.640625 8.0625 
Q 18.3125 5.71875 23.4375 5.71875 
Q 28.515625 5.71875 32.46875 7.9375 
Q 36.421875 10.15625 38.28125 14.015625 
Q 39.703125 17 39.703125 22.796875 
z
" id="ArialMT-97"/>
     <path d="M 6.640625 0 
L 6.640625 71.578125 
L 15.4375 71.578125 
L 15.4375 30.765625 
L 36.234375 51.859375 
L 47.609375 51.859375 
L 27.78125 32.625 
L 49.609375 0 
L 38.765625 0 
L 21.625 26.515625 
L 15.4375 20.5625 
L 15.4375 0 
z
" id="ArialMT-107"/>
     <path id="ArialMT-32"/>
     <path d="M 3.328125 25.921875 
Q 3.328125 40.328125 11.328125 47.265625 
Q 18.015625 53.03125 27.640625 53.03125 
Q 38.328125 53.03125 45.109375 46.015625 
Q 51.90625 39.015625 51.90625 26.65625 
Q 51.90625 16.65625 48.90625 10.90625 
Q 45.90625 5.171875 40.15625 2 
Q 34.421875 -1.171875 27.640625 -1.171875 
Q 16.75 -1.171875 10.03125 5.8125 
Q 3.328125 12.796875 3.328125 25.921875 
z
M 12.359375 25.921875 
Q 12.359375 15.96875 16.703125 11.015625 
Q 21.046875 6.0625 27.640625 6.0625 
Q 34.1875 6.0625 38.53125 11.03125 
Q 42.875 16.015625 42.875 26.21875 
Q 42.875 35.84375 38.5 40.796875 
Q 34.125 45.75 27.640625 45.75 
Q 21.046875 45.75 16.703125 40.8125 
Q 12.359375 35.890625 12.359375 25.921875 
z
" id="ArialMT-111"/>
     <path d="M 8.6875 0 
L 8.6875 45.015625 
L 0.921875 45.015625 
L 0.921875 51.859375 
L 8.6875 51.859375 
L 8.6875 57.375 
Q 8.6875 62.59375 9.625 65.140625 
Q 10.890625 68.5625 14.078125 70.671875 
Q 17.28125 72.796875 23.046875 72.796875 
Q 26.765625 72.796875 31.25 71.921875 
L 29.9375 64.265625 
Q 27.203125 64.75 24.75 64.75 
Q 20.75 64.75 19.09375 63.03125 
Q 17.4375 61.328125 17.4375 56.640625 
L 17.4375 51.859375 
L 27.546875 51.859375 
L 27.546875 45.015625 
L 17.4375 45.015625 
L 17.4375 0 
z
" id="ArialMT-102"/>
     <path d="M 14.703125 0 
L 6.546875 0 
L 6.546875 71.578125 
L 15.328125 71.578125 
L 15.328125 46.046875 
Q 20.90625 53.03125 29.546875 53.03125 
Q 34.328125 53.03125 38.59375 51.09375 
Q 42.875 49.171875 45.625 45.671875 
Q 48.390625 42.1875 49.953125 37.25 
Q 51.515625 32.328125 51.515625 26.703125 
Q 51.515625 13.375 44.921875 6.09375 
Q 38.328125 -1.171875 29.109375 -1.171875 
Q 19.921875 -1.171875 14.703125 6.5 
z
M 14.59375 26.3125 
Q 14.59375 17 17.140625 12.84375 
Q 21.296875 6.0625 28.375 6.0625 
Q 34.125 6.0625 38.328125 11.0625 
Q 42.53125 16.0625 42.53125 25.984375 
Q 42.53125 36.140625 38.5 40.96875 
Q 34.46875 45.796875 28.765625 45.796875 
Q 23 45.796875 18.796875 40.796875 
Q 14.59375 35.796875 14.59375 26.3125 
z
" id="ArialMT-98"/>
     <path d="M 40.578125 0 
L 40.578125 7.625 
Q 34.515625 -1.171875 24.125 -1.171875 
Q 19.53125 -1.171875 15.546875 0.578125 
Q 11.578125 2.34375 9.640625 5 
Q 7.71875 7.671875 6.9375 11.53125 
Q 6.390625 14.109375 6.390625 19.734375 
L 6.390625 51.859375 
L 15.1875 51.859375 
L 15.1875 23.09375 
Q 15.1875 16.21875 15.71875 13.8125 
Q 16.546875 10.359375 19.234375 8.375 
Q 21.921875 6.390625 25.875 6.390625 
Q 29.828125 6.390625 33.296875 8.421875 
Q 36.765625 10.453125 38.203125 13.9375 
Q 39.65625 17.4375 39.65625 24.078125 
L 39.65625 51.859375 
L 48.4375 51.859375 
L 48.4375 0 
z
" id="ArialMT-117"/>
     <path d="M 6.390625 0 
L 6.390625 71.578125 
L 15.1875 71.578125 
L 15.1875 0 
z
" id="ArialMT-108"/>
     <path d="M 6.59375 0 
L 6.59375 51.859375 
L 14.453125 51.859375 
L 14.453125 44.578125 
Q 16.890625 48.390625 20.9375 50.703125 
Q 25 53.03125 30.171875 53.03125 
Q 35.9375 53.03125 39.625 50.640625 
Q 43.3125 48.25 44.828125 43.953125 
Q 50.984375 53.03125 60.84375 53.03125 
Q 68.5625 53.03125 72.703125 48.75 
Q 76.859375 44.484375 76.859375 35.59375 
L 76.859375 0 
L 68.109375 0 
L 68.109375 32.671875 
Q 68.109375 37.9375 67.25 40.25 
Q 66.40625 42.578125 64.15625 43.984375 
Q 61.921875 45.40625 58.890625 45.40625 
Q 53.421875 45.40625 49.796875 41.765625 
Q 46.1875 38.140625 46.1875 30.125 
L 46.1875 0 
L 37.40625 0 
L 37.40625 33.6875 
Q 37.40625 39.546875 35.25 42.46875 
Q 33.109375 45.40625 28.21875 45.40625 
Q 24.515625 45.40625 21.359375 43.453125 
Q 18.21875 41.5 16.796875 37.734375 
Q 15.375 33.984375 15.375 26.90625 
L 15.375 0 
z
" id="ArialMT-109"/>
     <path d="M 6.5 0 
L 6.5 51.859375 
L 14.40625 51.859375 
L 14.40625 44 
Q 17.4375 49.515625 20 51.265625 
Q 22.5625 53.03125 25.640625 53.03125 
Q 30.078125 53.03125 34.671875 50.203125 
L 31.640625 42.046875 
Q 28.421875 43.953125 25.203125 43.953125 
Q 22.3125 43.953125 20.015625 42.21875 
Q 17.71875 40.484375 16.75 37.40625 
Q 15.28125 32.71875 15.28125 27.15625 
L 15.28125 0 
z
" id="ArialMT-114"/>
     <path d="M 25.78125 7.859375 
L 27.046875 0.09375 
Q 23.34375 -0.6875 20.40625 -0.6875 
Q 15.625 -0.6875 12.984375 0.828125 
Q 10.359375 2.34375 9.28125 4.8125 
Q 8.203125 7.28125 8.203125 15.1875 
L 8.203125 45.015625 
L 1.765625 45.015625 
L 1.765625 51.859375 
L 8.203125 51.859375 
L 8.203125 64.703125 
L 16.9375 69.96875 
L 16.9375 51.859375 
L 25.78125 51.859375 
L 25.78125 45.015625 
L 16.9375 45.015625 
L 16.9375 14.703125 
Q 16.9375 10.9375 17.40625 9.859375 
Q 17.875 8.796875 18.921875 8.15625 
Q 19.96875 7.515625 21.921875 7.515625 
Q 23.390625 7.515625 25.78125 7.859375 
z
" id="ArialMT-116"/>
    </defs>
    <g style="fill:#262626;" transform="translate(158.468994 59.658172)scale(0.1 -0.1)">
     <use xlink:href="#ArialMT-80"/>
     <use x="66.699219" xlink:href="#ArialMT-101"/>
     <use x="122.314453" xlink:href="#ArialMT-97"/>
     <use x="177.929688" xlink:href="#ArialMT-107"/>
     <use x="227.929688" xlink:href="#ArialMT-32"/>
     <use x="255.712891" xlink:href="#ArialMT-111"/>
     <use x="311.328125" xlink:href="#ArialMT-102"/>
     <use x="339.111328" xlink:href="#ArialMT-32"/>
     <use x="366.894531" xlink:href="#ArialMT-98"/>
     <use x="422.509766" xlink:href="#ArialMT-117"/>
     <use x="478.125" xlink:href="#ArialMT-108"/>
     <use x="500.341797" xlink:href="#ArialMT-108"/>
     <use x="522.558594" xlink:href="#ArialMT-32"/>
     <use x="550.341797" xlink:href="#ArialMT-109"/>
     <use x="633.642578" xlink:href="#ArialMT-97"/>
     <use x="689.257812" xlink:href="#ArialMT-114"/>
     <use x="722.558594" xlink:href="#ArialMT-107"/>
     <use x="772.558594" xlink:href="#ArialMT-101"/>
     <use x="828.173828" xlink:href="#ArialMT-116"/>
    </g>
   </g>
   <g id="patch_8">
    <path d="M 206.217248 113.754515 
Q 206.217248 121.480551 206.217248 129.206587 
L 207.217248 129.206587 
Q 206.217248 131.208753 205.217248 133.21092 
Q 204.217248 131.208753 203.217248 129.206587 
L 204.217248 129.206587 
Q 204.217248 121.480551 204.217248 113.754515 
L 206.217248 113.754515 
z
" style="stroke:#ffffff;stroke-linecap:round;"/>
   </g>
   <g id="text_18">
    <!-- Bear Stearns Fails -->
    <defs>
     <path d="M 7.328125 0 
L 7.328125 71.578125 
L 34.1875 71.578125 
Q 42.390625 71.578125 47.34375 69.40625 
Q 52.296875 67.234375 55.09375 62.71875 
Q 57.90625 58.203125 57.90625 53.265625 
Q 57.90625 48.6875 55.421875 44.625 
Q 52.9375 40.578125 47.90625 38.09375 
Q 54.390625 36.1875 57.875 31.59375 
Q 61.375 27 61.375 20.75 
Q 61.375 15.71875 59.25 11.390625 
Q 57.125 7.078125 54 4.734375 
Q 50.875 2.390625 46.15625 1.1875 
Q 41.453125 0 34.625 0 
z
M 16.796875 41.5 
L 32.28125 41.5 
Q 38.578125 41.5 41.3125 42.328125 
Q 44.921875 43.40625 46.75 45.890625 
Q 48.578125 48.390625 48.578125 52.15625 
Q 48.578125 55.71875 46.875 58.421875 
Q 45.171875 61.140625 41.984375 62.140625 
Q 38.8125 63.140625 31.109375 63.140625 
L 16.796875 63.140625 
z
M 16.796875 8.453125 
L 34.625 8.453125 
Q 39.203125 8.453125 41.0625 8.796875 
Q 44.34375 9.375 46.53125 10.734375 
Q 48.734375 12.109375 50.140625 14.71875 
Q 51.5625 17.328125 51.5625 20.75 
Q 51.5625 24.75 49.515625 27.703125 
Q 47.46875 30.671875 43.828125 31.859375 
Q 40.1875 33.0625 33.34375 33.0625 
L 16.796875 33.0625 
z
" id="ArialMT-66"/>
     <path d="M 4.5 23 
L 13.421875 23.78125 
Q 14.0625 18.40625 16.375 14.96875 
Q 18.703125 11.53125 23.578125 9.40625 
Q 28.46875 7.28125 34.578125 7.28125 
Q 39.984375 7.28125 44.140625 8.890625 
Q 48.296875 10.5 50.3125 13.296875 
Q 52.34375 16.109375 52.34375 19.4375 
Q 52.34375 22.796875 50.390625 25.3125 
Q 48.4375 27.828125 43.953125 29.546875 
Q 41.0625 30.671875 31.203125 33.03125 
Q 21.34375 35.40625 17.390625 37.5 
Q 12.25 40.1875 9.734375 44.15625 
Q 7.234375 48.140625 7.234375 53.078125 
Q 7.234375 58.5 10.296875 63.203125 
Q 13.375 67.921875 19.28125 70.359375 
Q 25.203125 72.796875 32.421875 72.796875 
Q 40.375 72.796875 46.453125 70.234375 
Q 52.546875 67.671875 55.8125 62.6875 
Q 59.078125 57.71875 59.328125 51.421875 
L 50.25 50.734375 
Q 49.515625 57.515625 45.28125 60.984375 
Q 41.0625 64.453125 32.8125 64.453125 
Q 24.21875 64.453125 20.28125 61.296875 
Q 16.359375 58.15625 16.359375 53.71875 
Q 16.359375 49.859375 19.140625 47.359375 
Q 21.875 44.875 33.421875 42.265625 
Q 44.96875 39.65625 49.265625 37.703125 
Q 55.515625 34.8125 58.484375 30.390625 
Q 61.46875 25.984375 61.46875 20.21875 
Q 61.46875 14.5 58.203125 9.4375 
Q 54.9375 4.390625 48.796875 1.578125 
Q 42.671875 -1.21875 35.015625 -1.21875 
Q 25.296875 -1.21875 18.71875 1.609375 
Q 12.15625 4.4375 8.421875 10.125 
Q 4.6875 15.828125 4.5 23 
z
" id="ArialMT-83"/>
     <path d="M 6.59375 0 
L 6.59375 51.859375 
L 14.5 51.859375 
L 14.5 44.484375 
Q 20.21875 53.03125 31 53.03125 
Q 35.6875 53.03125 39.625 51.34375 
Q 43.5625 49.65625 45.515625 46.921875 
Q 47.46875 44.1875 48.25 40.4375 
Q 48.734375 37.984375 48.734375 31.890625 
L 48.734375 0 
L 39.9375 0 
L 39.9375 31.546875 
Q 39.9375 36.921875 38.90625 39.578125 
Q 37.890625 42.234375 35.28125 43.8125 
Q 32.671875 45.40625 29.15625 45.40625 
Q 23.53125 45.40625 19.453125 41.84375 
Q 15.375 38.28125 15.375 28.328125 
L 15.375 0 
z
" id="ArialMT-110"/>
     <path d="M 3.078125 15.484375 
L 11.765625 16.84375 
Q 12.5 11.625 15.84375 8.84375 
Q 19.1875 6.0625 25.203125 6.0625 
Q 31.25 6.0625 34.171875 8.515625 
Q 37.109375 10.984375 37.109375 14.3125 
Q 37.109375 17.28125 34.515625 19 
Q 32.71875 20.171875 25.53125 21.96875 
Q 15.875 24.421875 12.140625 26.203125 
Q 8.40625 27.984375 6.46875 31.125 
Q 4.546875 34.28125 4.546875 38.09375 
Q 4.546875 41.546875 6.125 44.5 
Q 7.71875 47.46875 10.453125 49.421875 
Q 12.5 50.921875 16.03125 51.96875 
Q 19.578125 53.03125 23.640625 53.03125 
Q 29.734375 53.03125 34.34375 51.265625 
Q 38.96875 49.515625 41.15625 46.5 
Q 43.359375 43.5 44.1875 38.484375 
L 35.59375 37.3125 
Q 35.015625 41.3125 32.203125 43.546875 
Q 29.390625 45.796875 24.265625 45.796875 
Q 18.21875 45.796875 15.625 43.796875 
Q 13.03125 41.796875 13.03125 39.109375 
Q 13.03125 37.40625 14.109375 36.03125 
Q 15.1875 34.625 17.484375 33.6875 
Q 18.796875 33.203125 25.25 31.453125 
Q 34.578125 28.953125 38.25 27.359375 
Q 41.9375 25.78125 44.03125 22.75 
Q 46.140625 19.734375 46.140625 15.234375 
Q 46.140625 10.84375 43.578125 6.953125 
Q 41.015625 3.078125 36.171875 0.953125 
Q 31.34375 -1.171875 25.25 -1.171875 
Q 15.140625 -1.171875 9.84375 3.03125 
Q 4.546875 7.234375 3.078125 15.484375 
z
" id="ArialMT-115"/>
     <path d="M 8.203125 0 
L 8.203125 71.578125 
L 56.5 71.578125 
L 56.5 63.140625 
L 17.671875 63.140625 
L 17.671875 40.96875 
L 51.265625 40.96875 
L 51.265625 32.515625 
L 17.671875 32.515625 
L 17.671875 0 
z
" id="ArialMT-70"/>
     <path d="M 6.640625 61.46875 
L 6.640625 71.578125 
L 15.4375 71.578125 
L 15.4375 61.46875 
z
M 6.640625 0 
L 6.640625 51.859375 
L 15.4375 51.859375 
L 15.4375 0 
z
" id="ArialMT-105"/>
    </defs>
    <g style="fill:#262626;" transform="translate(205.217248 109.768733)scale(0.1 -0.1)">
     <use xlink:href="#ArialMT-66"/>
     <use x="66.699219" xlink:href="#ArialMT-101"/>
     <use x="122.314453" xlink:href="#ArialMT-97"/>
     <use x="177.929688" xlink:href="#ArialMT-114"/>
     <use x="211.230469" xlink:href="#ArialMT-32"/>
     <use x="239.013672" xlink:href="#ArialMT-83"/>
     <use x="305.712891" xlink:href="#ArialMT-116"/>
     <use x="333.496094" xlink:href="#ArialMT-101"/>
     <use x="389.111328" xlink:href="#ArialMT-97"/>
     <use x="444.726562" xlink:href="#ArialMT-114"/>
     <use x="478.027344" xlink:href="#ArialMT-110"/>
     <use x="533.642578" xlink:href="#ArialMT-115"/>
     <use x="583.642578" xlink:href="#ArialMT-32"/>
     <use x="611.425781" xlink:href="#ArialMT-70"/>
     <use x="672.509766" xlink:href="#ArialMT-97"/>
     <use x="728.125" xlink:href="#ArialMT-105"/>
     <use x="750.341797" xlink:href="#ArialMT-108"/>
     <use x="772.558594" xlink:href="#ArialMT-115"/>
    </g>
   </g>
   <g id="patch_9">
    <path d="M 263.354004 137.549486 
Q 263.354004 145.219741 263.354004 152.889996 
L 264.354004 152.889996 
Q 263.354004 154.889598 262.354004 156.8892 
Q 261.354004 154.889598 260.354004 152.889996 
L 261.354004 152.889996 
Q 261.354004 145.219741 261.354004 137.549486 
L 263.354004 137.549486 
z
" style="stroke:#ffffff;stroke-linecap:round;"/>
   </g>
   <g id="text_19">
    <!-- Lehman Bankruptcy -->
    <defs>
     <path d="M 7.328125 0 
L 7.328125 71.578125 
L 16.796875 71.578125 
L 16.796875 8.453125 
L 52.046875 8.453125 
L 52.046875 0 
z
" id="ArialMT-76"/>
     <path d="M 6.59375 0 
L 6.59375 71.578125 
L 15.375 71.578125 
L 15.375 45.90625 
Q 21.53125 53.03125 30.90625 53.03125 
Q 36.671875 53.03125 40.921875 50.75 
Q 45.171875 48.484375 47 44.484375 
Q 48.828125 40.484375 48.828125 32.859375 
L 48.828125 0 
L 40.046875 0 
L 40.046875 32.859375 
Q 40.046875 39.453125 37.1875 42.453125 
Q 34.328125 45.453125 29.109375 45.453125 
Q 25.203125 45.453125 21.75 43.421875 
Q 18.3125 41.40625 16.84375 37.9375 
Q 15.375 34.46875 15.375 28.375 
L 15.375 0 
z
" id="ArialMT-104"/>
     <path d="M 6.59375 -19.875 
L 6.59375 51.859375 
L 14.59375 51.859375 
L 14.59375 45.125 
Q 17.4375 49.078125 21 51.046875 
Q 24.5625 53.03125 29.640625 53.03125 
Q 36.28125 53.03125 41.359375 49.609375 
Q 46.4375 46.1875 49.015625 39.953125 
Q 51.609375 33.734375 51.609375 26.3125 
Q 51.609375 18.359375 48.75 11.984375 
Q 45.90625 5.609375 40.453125 2.21875 
Q 35.015625 -1.171875 29 -1.171875 
Q 24.609375 -1.171875 21.109375 0.6875 
Q 17.625 2.546875 15.375 5.375 
L 15.375 -19.875 
z
M 14.546875 25.640625 
Q 14.546875 15.625 18.59375 10.84375 
Q 22.65625 6.0625 28.421875 6.0625 
Q 34.28125 6.0625 38.453125 11.015625 
Q 42.625 15.96875 42.625 26.375 
Q 42.625 36.28125 38.546875 41.203125 
Q 34.46875 46.140625 28.8125 46.140625 
Q 23.1875 46.140625 18.859375 40.890625 
Q 14.546875 35.640625 14.546875 25.640625 
z
" id="ArialMT-112"/>
     <path d="M 40.4375 19 
L 49.078125 17.875 
Q 47.65625 8.9375 41.8125 3.875 
Q 35.984375 -1.171875 27.484375 -1.171875 
Q 16.84375 -1.171875 10.375 5.78125 
Q 3.90625 12.75 3.90625 25.734375 
Q 3.90625 34.125 6.6875 40.421875 
Q 9.46875 46.734375 15.15625 49.875 
Q 20.84375 53.03125 27.546875 53.03125 
Q 35.984375 53.03125 41.359375 48.75 
Q 46.734375 44.484375 48.25 36.625 
L 39.703125 35.296875 
Q 38.484375 40.53125 35.375 43.15625 
Q 32.28125 45.796875 27.875 45.796875 
Q 21.234375 45.796875 17.078125 41.03125 
Q 12.9375 36.28125 12.9375 25.984375 
Q 12.9375 15.53125 16.9375 10.796875 
Q 20.953125 6.0625 27.390625 6.0625 
Q 32.5625 6.0625 36.03125 9.234375 
Q 39.5 12.40625 40.4375 19 
z
" id="ArialMT-99"/>
     <path d="M 6.203125 -19.96875 
L 5.21875 -11.71875 
Q 8.109375 -12.5 10.25 -12.5 
Q 13.1875 -12.5 14.9375 -11.515625 
Q 16.703125 -10.546875 17.828125 -8.796875 
Q 18.65625 -7.46875 20.515625 -2.25 
Q 20.75 -1.515625 21.296875 -0.09375 
L 1.609375 51.859375 
L 11.078125 51.859375 
L 21.875 21.828125 
Q 23.96875 16.109375 25.640625 9.8125 
Q 27.15625 15.875 29.25 21.625 
L 40.328125 51.859375 
L 49.125 51.859375 
L 29.390625 -0.875 
Q 26.21875 -9.421875 24.46875 -12.640625 
Q 22.125 -17 19.09375 -19.015625 
Q 16.0625 -21.046875 11.859375 -21.046875 
Q 9.328125 -21.046875 6.203125 -19.96875 
z
" id="ArialMT-121"/>
    </defs>
    <g style="fill:#262626;" transform="translate(262.354004 133.447012)scale(0.1 -0.1)">
     <use xlink:href="#ArialMT-76"/>
     <use x="55.615234" xlink:href="#ArialMT-101"/>
     <use x="111.230469" xlink:href="#ArialMT-104"/>
     <use x="166.845703" xlink:href="#ArialMT-109"/>
     <use x="250.146484" xlink:href="#ArialMT-97"/>
     <use x="305.761719" xlink:href="#ArialMT-110"/>
     <use x="361.376953" xlink:href="#ArialMT-32"/>
     <use x="389.160156" xlink:href="#ArialMT-66"/>
     <use x="455.859375" xlink:href="#ArialMT-97"/>
     <use x="511.474609" xlink:href="#ArialMT-110"/>
     <use x="567.089844" xlink:href="#ArialMT-107"/>
     <use x="617.089844" xlink:href="#ArialMT-114"/>
     <use x="650.390625" xlink:href="#ArialMT-117"/>
     <use x="706.005859" xlink:href="#ArialMT-112"/>
     <use x="761.621094" xlink:href="#ArialMT-116"/>
     <use x="789.404297" xlink:href="#ArialMT-99"/>
     <use x="839.404297" xlink:href="#ArialMT-121"/>
    </g>
   </g>
   <g id="text_20">
    <!-- Important dates in the 2008-2009 financial crisis -->
    <defs>
     <path d="M 9.328125 0 
L 9.328125 71.578125 
L 18.796875 71.578125 
L 18.796875 0 
z
" id="ArialMT-73"/>
     <path d="M 40.234375 0 
L 40.234375 6.546875 
Q 35.296875 -1.171875 25.734375 -1.171875 
Q 19.53125 -1.171875 14.328125 2.25 
Q 9.125 5.671875 6.265625 11.796875 
Q 3.421875 17.921875 3.421875 25.875 
Q 3.421875 33.640625 6 39.96875 
Q 8.59375 46.296875 13.765625 49.65625 
Q 18.953125 53.03125 25.34375 53.03125 
Q 30.03125 53.03125 33.6875 51.046875 
Q 37.359375 49.078125 39.65625 45.90625 
L 39.65625 71.578125 
L 48.390625 71.578125 
L 48.390625 0 
z
M 12.453125 25.875 
Q 12.453125 15.921875 16.640625 10.984375 
Q 20.84375 6.0625 26.5625 6.0625 
Q 32.328125 6.0625 36.34375 10.765625 
Q 40.375 15.484375 40.375 25.140625 
Q 40.375 35.796875 36.265625 40.765625 
Q 32.171875 45.75 26.171875 45.75 
Q 20.3125 45.75 16.375 40.96875 
Q 12.453125 36.1875 12.453125 25.875 
z
" id="ArialMT-100"/>
    </defs>
    <g style="fill:#262626;" transform="translate(167.803125 37.2)scale(0.12 -0.12)">
     <use xlink:href="#ArialMT-73"/>
     <use x="27.783203" xlink:href="#ArialMT-109"/>
     <use x="111.083984" xlink:href="#ArialMT-112"/>
     <use x="166.699219" xlink:href="#ArialMT-111"/>
     <use x="222.314453" xlink:href="#ArialMT-114"/>
     <use x="255.615234" xlink:href="#ArialMT-116"/>
     <use x="283.398438" xlink:href="#ArialMT-97"/>
     <use x="339.013672" xlink:href="#ArialMT-110"/>
     <use x="394.628906" xlink:href="#ArialMT-116"/>
     <use x="422.412109" xlink:href="#ArialMT-32"/>
     <use x="450.195312" xlink:href="#ArialMT-100"/>
     <use x="505.810547" xlink:href="#ArialMT-97"/>
     <use x="561.425781" xlink:href="#ArialMT-116"/>
     <use x="589.208984" xlink:href="#ArialMT-101"/>
     <use x="644.824219" xlink:href="#ArialMT-115"/>
     <use x="694.824219" xlink:href="#ArialMT-32"/>
     <use x="722.607422" xlink:href="#ArialMT-105"/>
     <use x="744.824219" xlink:href="#ArialMT-110"/>
     <use x="800.439453" xlink:href="#ArialMT-32"/>
     <use x="828.222656" xlink:href="#ArialMT-116"/>
     <use x="856.005859" xlink:href="#ArialMT-104"/>
     <use x="911.621094" xlink:href="#ArialMT-101"/>
     <use x="967.236328" xlink:href="#ArialMT-32"/>
     <use x="995.019531" xlink:href="#ArialMT-50"/>
     <use x="1050.634766" xlink:href="#ArialMT-48"/>
     <use x="1106.25" xlink:href="#ArialMT-48"/>
     <use x="1161.865234" xlink:href="#ArialMT-56"/>
     <use x="1217.480469" xlink:href="#ArialMT-45"/>
     <use x="1250.78125" xlink:href="#ArialMT-50"/>
     <use x="1306.396484" xlink:href="#ArialMT-48"/>
     <use x="1362.011719" xlink:href="#ArialMT-48"/>
     <use x="1417.626953" xlink:href="#ArialMT-57"/>
     <use x="1473.242188" xlink:href="#ArialMT-32"/>
     <use x="1501.025391" xlink:href="#ArialMT-102"/>
     <use x="1528.808594" xlink:href="#ArialMT-105"/>
     <use x="1551.025391" xlink:href="#ArialMT-110"/>
     <use x="1606.640625" xlink:href="#ArialMT-97"/>
     <use x="1662.255859" xlink:href="#ArialMT-110"/>
     <use x="1717.871094" xlink:href="#ArialMT-99"/>
     <use x="1767.871094" xlink:href="#ArialMT-105"/>
     <use x="1790.087891" xlink:href="#ArialMT-97"/>
     <use x="1845.703125" xlink:href="#ArialMT-108"/>
     <use x="1867.919922" xlink:href="#ArialMT-32"/>
     <use x="1895.703125" xlink:href="#ArialMT-99"/>
     <use x="1945.703125" xlink:href="#ArialMT-114"/>
     <use x="1979.003906" xlink:href="#ArialMT-105"/>
     <use x="2001.220703" xlink:href="#ArialMT-115"/>
     <use x="2051.220703" xlink:href="#ArialMT-105"/>
     <use x="2073.4375" xlink:href="#ArialMT-115"/>
    </g>
   </g>
  </g>
 </g>
 <defs>
  <clipPath id="p29aaa5edfd">
   <rect height="244.8" width="446.4" x="72" y="43.2"/>
  </clipPath>
 </defs>
</svg>
