<?xml version="1.0" encoding="utf-8" standalone="no"?>
<!DOCTYPE svg PUBLIC "-//W3C//DTD SVG 1.1//EN"
  "http://www.w3.org/Graphics/SVG/1.1/DTD/svg11.dtd">
<!-- Created with matplotlib (https://matplotlib.org/) -->
<svg height="248.518125pt" version="1.1" viewBox="0 0 377.304687 248.518125" width="377.304687pt" xmlns="http://www.w3.org/2000/svg" xmlns:xlink="http://www.w3.org/1999/xlink">
 <defs>
  <style type="text/css">
*{stroke-linecap:butt;stroke-linejoin:round;}
  </style>
 </defs>
 <g id="figure_1">
  <g id="patch_1">
   <path d="M 0 248.518125 
L 377.304687 248.518125 
L 377.304687 0 
L 0 0 
z
" style="fill:none;"/>
  </g>
  <g id="axes_1">
   <g id="patch_2">
    <path d="M 35.304688 224.64 
L 370.104688 224.64 
L 370.104688 7.2 
L 35.304688 7.2 
z
"/>
   </g>
   <g id="matplotlib.axis_1">
    <g id="xtick_1">
     <g id="line2d_1">
      <defs>
       <path d="M 0 0 
L 0 3.5 
" id="m1e1776fb68" style="stroke:#ffffff;stroke-width:0.8;"/>
      </defs>
      <g>
       <use style="fill:#ffffff;stroke:#ffffff;stroke-width:0.8;" x="50.522869" xlink:href="#m1e1776fb68" y="224.64"/>
      </g>
     </g>
     <g id="text_1">
      <!-- 0 -->
      <defs>
       <path d="M 31.78125 66.40625 
Q 24.171875 66.40625 20.328125 58.90625 
Q 16.5 51.421875 16.5 36.375 
Q 16.5 21.390625 20.328125 13.890625 
Q 24.171875 6.390625 31.78125 6.390625 
Q 39.453125 6.390625 43.28125 13.890625 
Q 47.125 21.390625 47.125 36.375 
Q 47.125 51.421875 43.28125 58.90625 
Q 39.453125 66.40625 31.78125 66.40625 
z
M 31.78125 74.21875 
Q 44.046875 74.21875 50.515625 64.515625 
Q 56.984375 54.828125 56.984375 36.375 
Q 56.984375 17.96875 50.515625 8.265625 
Q 44.046875 -1.421875 31.78125 -1.421875 
Q 19.53125 -1.421875 13.0625 8.265625 
Q 6.59375 17.96875 6.59375 36.375 
Q 6.59375 54.828125 13.0625 64.515625 
Q 19.53125 74.21875 31.78125 74.21875 
z
" id="DejaVuSans-48"/>
      </defs>
      <g style="fill:#ffffff;" transform="translate(47.341619 239.238437)scale(0.1 -0.1)">
       <use xlink:href="#DejaVuSans-48"/>
      </g>
     </g>
    </g>
    <g id="xtick_2">
     <g id="line2d_2">
      <g>
       <use style="fill:#ffffff;stroke:#ffffff;stroke-width:0.8;" x="111.45653" xlink:href="#m1e1776fb68" y="224.64"/>
      </g>
     </g>
     <g id="text_2">
      <!-- 200 -->
      <defs>
       <path d="M 19.1875 8.296875 
L 53.609375 8.296875 
L 53.609375 0 
L 7.328125 0 
L 7.328125 8.296875 
Q 12.9375 14.109375 22.625 23.890625 
Q 32.328125 33.6875 34.8125 36.53125 
Q 39.546875 41.84375 41.421875 45.53125 
Q 43.3125 49.21875 43.3125 52.78125 
Q 43.3125 58.59375 39.234375 62.25 
Q 35.15625 65.921875 28.609375 65.921875 
Q 23.96875 65.921875 18.8125 64.3125 
Q 13.671875 62.703125 7.8125 59.421875 
L 7.8125 69.390625 
Q 13.765625 71.78125 18.9375 73 
Q 24.125 74.21875 28.421875 74.21875 
Q 39.75 74.21875 46.484375 68.546875 
Q 53.21875 62.890625 53.21875 53.421875 
Q 53.21875 48.921875 51.53125 44.890625 
Q 49.859375 40.875 45.40625 35.40625 
Q 44.1875 33.984375 37.640625 27.21875 
Q 31.109375 20.453125 19.1875 8.296875 
z
" id="DejaVuSans-50"/>
      </defs>
      <g style="fill:#ffffff;" transform="translate(101.91278 239.238437)scale(0.1 -0.1)">
       <use xlink:href="#DejaVuSans-50"/>
       <use x="63.623047" xlink:href="#DejaVuSans-48"/>
       <use x="127.246094" xlink:href="#DejaVuSans-48"/>
      </g>
     </g>
    </g>
    <g id="xtick_3">
     <g id="line2d_3">
      <g>
       <use style="fill:#ffffff;stroke:#ffffff;stroke-width:0.8;" x="172.390191" xlink:href="#m1e1776fb68" y="224.64"/>
      </g>
     </g>
     <g id="text_3">
      <!-- 400 -->
      <defs>
       <path d="M 37.796875 64.3125 
L 12.890625 25.390625 
L 37.796875 25.390625 
z
M 35.203125 72.90625 
L 47.609375 72.90625 
L 47.609375 25.390625 
L 58.015625 25.390625 
L 58.015625 17.1875 
L 47.609375 17.1875 
L 47.609375 0 
L 37.796875 0 
L 37.796875 17.1875 
L 4.890625 17.1875 
L 4.890625 26.703125 
z
" id="DejaVuSans-52"/>
      </defs>
      <g style="fill:#ffffff;" transform="translate(162.846441 239.238437)scale(0.1 -0.1)">
       <use xlink:href="#DejaVuSans-52"/>
       <use x="63.623047" xlink:href="#DejaVuSans-48"/>
       <use x="127.246094" xlink:href="#DejaVuSans-48"/>
      </g>
     </g>
    </g>
    <g id="xtick_4">
     <g id="line2d_4">
      <g>
       <use style="fill:#ffffff;stroke:#ffffff;stroke-width:0.8;" x="233.323852" xlink:href="#m1e1776fb68" y="224.64"/>
      </g>
     </g>
     <g id="text_4">
      <!-- 600 -->
      <defs>
       <path d="M 33.015625 40.375 
Q 26.375 40.375 22.484375 35.828125 
Q 18.609375 31.296875 18.609375 23.390625 
Q 18.609375 15.53125 22.484375 10.953125 
Q 26.375 6.390625 33.015625 6.390625 
Q 39.65625 6.390625 43.53125 10.953125 
Q 47.40625 15.53125 47.40625 23.390625 
Q 47.40625 31.296875 43.53125 35.828125 
Q 39.65625 40.375 33.015625 40.375 
z
M 52.59375 71.296875 
L 52.59375 62.3125 
Q 48.875 64.0625 45.09375 64.984375 
Q 41.3125 65.921875 37.59375 65.921875 
Q 27.828125 65.921875 22.671875 59.328125 
Q 17.53125 52.734375 16.796875 39.40625 
Q 19.671875 43.65625 24.015625 45.921875 
Q 28.375 48.1875 33.59375 48.1875 
Q 44.578125 48.1875 50.953125 41.515625 
Q 57.328125 34.859375 57.328125 23.390625 
Q 57.328125 12.15625 50.6875 5.359375 
Q 44.046875 -1.421875 33.015625 -1.421875 
Q 20.359375 -1.421875 13.671875 8.265625 
Q 6.984375 17.96875 6.984375 36.375 
Q 6.984375 53.65625 15.1875 63.9375 
Q 23.390625 74.21875 37.203125 74.21875 
Q 40.921875 74.21875 44.703125 73.484375 
Q 48.484375 72.75 52.59375 71.296875 
z
" id="DejaVuSans-54"/>
      </defs>
      <g style="fill:#ffffff;" transform="translate(223.780102 239.238437)scale(0.1 -0.1)">
       <use xlink:href="#DejaVuSans-54"/>
       <use x="63.623047" xlink:href="#DejaVuSans-48"/>
       <use x="127.246094" xlink:href="#DejaVuSans-48"/>
      </g>
     </g>
    </g>
    <g id="xtick_5">
     <g id="line2d_5">
      <g>
       <use style="fill:#ffffff;stroke:#ffffff;stroke-width:0.8;" x="294.257513" xlink:href="#m1e1776fb68" y="224.64"/>
      </g>
     </g>
     <g id="text_5">
      <!-- 800 -->
      <defs>
       <path d="M 31.78125 34.625 
Q 24.75 34.625 20.71875 30.859375 
Q 16.703125 27.09375 16.703125 20.515625 
Q 16.703125 13.921875 20.71875 10.15625 
Q 24.75 6.390625 31.78125 6.390625 
Q 38.8125 6.390625 42.859375 10.171875 
Q 46.921875 13.96875 46.921875 20.515625 
Q 46.921875 27.09375 42.890625 30.859375 
Q 38.875 34.625 31.78125 34.625 
z
M 21.921875 38.8125 
Q 15.578125 40.375 12.03125 44.71875 
Q 8.5 49.078125 8.5 55.328125 
Q 8.5 64.0625 14.71875 69.140625 
Q 20.953125 74.21875 31.78125 74.21875 
Q 42.671875 74.21875 48.875 69.140625 
Q 55.078125 64.0625 55.078125 55.328125 
Q 55.078125 49.078125 51.53125 44.71875 
Q 48 40.375 41.703125 38.8125 
Q 48.828125 37.15625 52.796875 32.3125 
Q 56.78125 27.484375 56.78125 20.515625 
Q 56.78125 9.90625 50.3125 4.234375 
Q 43.84375 -1.421875 31.78125 -1.421875 
Q 19.734375 -1.421875 13.25 4.234375 
Q 6.78125 9.90625 6.78125 20.515625 
Q 6.78125 27.484375 10.78125 32.3125 
Q 14.796875 37.15625 21.921875 38.8125 
z
M 18.3125 54.390625 
Q 18.3125 48.734375 21.84375 45.5625 
Q 25.390625 42.390625 31.78125 42.390625 
Q 38.140625 42.390625 41.71875 45.5625 
Q 45.3125 48.734375 45.3125 54.390625 
Q 45.3125 60.0625 41.71875 63.234375 
Q 38.140625 66.40625 31.78125 66.40625 
Q 25.390625 66.40625 21.84375 63.234375 
Q 18.3125 60.0625 18.3125 54.390625 
z
" id="DejaVuSans-56"/>
      </defs>
      <g style="fill:#ffffff;" transform="translate(284.713763 239.238437)scale(0.1 -0.1)">
       <use xlink:href="#DejaVuSans-56"/>
       <use x="63.623047" xlink:href="#DejaVuSans-48"/>
       <use x="127.246094" xlink:href="#DejaVuSans-48"/>
      </g>
     </g>
    </g>
    <g id="xtick_6">
     <g id="line2d_6">
      <g>
       <use style="fill:#ffffff;stroke:#ffffff;stroke-width:0.8;" x="355.191174" xlink:href="#m1e1776fb68" y="224.64"/>
      </g>
     </g>
     <g id="text_6">
      <!-- 1000 -->
      <defs>
       <path d="M 12.40625 8.296875 
L 28.515625 8.296875 
L 28.515625 63.921875 
L 10.984375 60.40625 
L 10.984375 69.390625 
L 28.421875 72.90625 
L 38.28125 72.90625 
L 38.28125 8.296875 
L 54.390625 8.296875 
L 54.390625 0 
L 12.40625 0 
z
" id="DejaVuSans-49"/>
      </defs>
      <g style="fill:#ffffff;" transform="translate(342.466174 239.238437)scale(0.1 -0.1)">
       <use xlink:href="#DejaVuSans-49"/>
       <use x="63.623047" xlink:href="#DejaVuSans-48"/>
       <use x="127.246094" xlink:href="#DejaVuSans-48"/>
       <use x="190.869141" xlink:href="#DejaVuSans-48"/>
      </g>
     </g>
    </g>
   </g>
   <g id="matplotlib.axis_2">
    <g id="ytick_1">
     <g id="line2d_7">
      <defs>
       <path d="M 0 0 
L -3.5 0 
" id="m64f6e9555e" style="stroke:#ffffff;stroke-width:0.8;"/>
      </defs>
      <g>
       <use style="fill:#ffffff;stroke:#ffffff;stroke-width:0.8;" x="35.304688" xlink:href="#m64f6e9555e" y="193.72735"/>
      </g>
     </g>
     <g id="text_7">
      <!-- −30 -->
      <defs>
       <path d="M 10.59375 35.5 
L 73.1875 35.5 
L 73.1875 27.203125 
L 10.59375 27.203125 
z
" id="DejaVuSans-8722"/>
       <path d="M 40.578125 39.3125 
Q 47.65625 37.796875 51.625 33 
Q 55.609375 28.21875 55.609375 21.1875 
Q 55.609375 10.40625 48.1875 4.484375 
Q 40.765625 -1.421875 27.09375 -1.421875 
Q 22.515625 -1.421875 17.65625 -0.515625 
Q 12.796875 0.390625 7.625 2.203125 
L 7.625 11.71875 
Q 11.71875 9.328125 16.59375 8.109375 
Q 21.484375 6.890625 26.8125 6.890625 
Q 36.078125 6.890625 40.9375 10.546875 
Q 45.796875 14.203125 45.796875 21.1875 
Q 45.796875 27.640625 41.28125 31.265625 
Q 36.765625 34.90625 28.71875 34.90625 
L 20.21875 34.90625 
L 20.21875 43.015625 
L 29.109375 43.015625 
Q 36.375 43.015625 40.234375 45.921875 
Q 44.09375 48.828125 44.09375 54.296875 
Q 44.09375 59.90625 40.109375 62.90625 
Q 36.140625 65.921875 28.71875 65.921875 
Q 24.65625 65.921875 20.015625 65.03125 
Q 15.375 64.15625 9.8125 62.3125 
L 9.8125 71.09375 
Q 15.4375 72.65625 20.34375 73.4375 
Q 25.25 74.21875 29.59375 74.21875 
Q 40.828125 74.21875 47.359375 69.109375 
Q 53.90625 64.015625 53.90625 55.328125 
Q 53.90625 49.265625 50.4375 45.09375 
Q 46.96875 40.921875 40.578125 39.3125 
z
" id="DejaVuSans-51"/>
      </defs>
      <g style="fill:#ffffff;" transform="translate(7.2 197.526569)scale(0.1 -0.1)">
       <use xlink:href="#DejaVuSans-8722"/>
       <use x="83.789062" xlink:href="#DejaVuSans-51"/>
       <use x="147.412109" xlink:href="#DejaVuSans-48"/>
      </g>
     </g>
    </g>
    <g id="ytick_2">
     <g id="line2d_8">
      <g>
       <use style="fill:#ffffff;stroke:#ffffff;stroke-width:0.8;" x="35.304688" xlink:href="#m64f6e9555e" y="151.669323"/>
      </g>
     </g>
     <g id="text_8">
      <!-- −20 -->
      <g style="fill:#ffffff;" transform="translate(7.2 155.468542)scale(0.1 -0.1)">
       <use xlink:href="#DejaVuSans-8722"/>
       <use x="83.789062" xlink:href="#DejaVuSans-50"/>
       <use x="147.412109" xlink:href="#DejaVuSans-48"/>
      </g>
     </g>
    </g>
    <g id="ytick_3">
     <g id="line2d_9">
      <g>
       <use style="fill:#ffffff;stroke:#ffffff;stroke-width:0.8;" x="35.304688" xlink:href="#m64f6e9555e" y="109.611296"/>
      </g>
     </g>
     <g id="text_9">
      <!-- −10 -->
      <g style="fill:#ffffff;" transform="translate(7.2 113.410515)scale(0.1 -0.1)">
       <use xlink:href="#DejaVuSans-8722"/>
       <use x="83.789062" xlink:href="#DejaVuSans-49"/>
       <use x="147.412109" xlink:href="#DejaVuSans-48"/>
      </g>
     </g>
    </g>
    <g id="ytick_4">
     <g id="line2d_10">
      <g>
       <use style="fill:#ffffff;stroke:#ffffff;stroke-width:0.8;" x="35.304688" xlink:href="#m64f6e9555e" y="67.553269"/>
      </g>
     </g>
     <g id="text_10">
      <!-- 0 -->
      <g style="fill:#ffffff;" transform="translate(21.942188 71.352488)scale(0.1 -0.1)">
       <use xlink:href="#DejaVuSans-48"/>
      </g>
     </g>
    </g>
    <g id="ytick_5">
     <g id="line2d_11">
      <g>
       <use style="fill:#ffffff;stroke:#ffffff;stroke-width:0.8;" x="35.304688" xlink:href="#m64f6e9555e" y="25.495242"/>
      </g>
     </g>
     <g id="text_11">
      <!-- 10 -->
      <g style="fill:#ffffff;" transform="translate(15.579688 29.294461)scale(0.1 -0.1)">
       <use xlink:href="#DejaVuSans-49"/>
       <use x="63.623047" xlink:href="#DejaVuSans-48"/>
      </g>
     </g>
    </g>
   </g>
   <g id="line2d_12">
    <path clip-path="url(#p73952db492)" d="M 50.522869 63.347466 
L 50.827538 67.553269 
L 52.350879 46.524255 
L 52.960216 54.935861 
L 53.264884 50.730058 
L 54.178889 63.347466 
L 54.483557 59.141663 
L 54.788226 63.347466 
L 55.092894 59.141663 
L 55.397562 63.347466 
L 55.70223 59.141663 
L 56.006899 63.347466 
L 56.616235 54.935861 
L 56.920904 59.141663 
L 57.225572 54.935861 
L 58.139577 67.553269 
L 58.444245 63.347466 
L 58.748914 67.553269 
L 59.053582 63.347466 
L 59.35825 67.553269 
L 59.967587 59.141663 
L 60.272255 63.347466 
L 60.881592 54.935861 
L 61.18626 59.141663 
L 62.709602 38.11265 
L 63.318938 46.524255 
L 64.537611 29.701044 
L 64.84228 33.906847 
L 65.146948 29.701044 
L 65.756285 38.11265 
L 66.060953 33.906847 
L 66.365621 38.11265 
L 66.670289 33.906847 
L 66.974958 38.11265 
L 67.584294 29.701044 
L 67.888963 33.906847 
L 68.498299 25.495242 
L 68.802968 29.701044 
L 69.107636 25.495242 
L 70.326309 42.318453 
L 70.630977 38.11265 
L 71.240314 46.524255 
L 71.544982 42.318453 
L 72.458987 54.935861 
L 72.763656 50.730058 
L 73.068324 54.935861 
L 73.372992 50.730058 
L 74.591665 67.553269 
L 75.50567 54.935861 
L 76.115007 63.347466 
L 76.724344 54.935861 
L 77.029012 59.141663 
L 77.638348 50.730058 
L 77.943017 54.935861 
L 78.552353 46.524255 
L 78.857022 50.730058 
L 79.16169 46.524255 
L 79.466358 50.730058 
L 80.075695 42.318453 
L 81.294368 59.141663 
L 81.903705 50.730058 
L 82.513041 59.141663 
L 83.122378 50.730058 
L 84.036383 63.347466 
L 84.341051 59.141663 
L 84.645719 63.347466 
L 84.950388 59.141663 
L 85.559724 67.553269 
L 85.864393 63.347466 
L 86.778398 75.964874 
L 87.387734 67.553269 
L 88.301739 80.170677 
L 88.606407 75.964874 
L 89.215744 84.37648 
L 89.520412 80.170677 
L 89.825081 84.37648 
L 90.129749 80.170677 
L 90.739086 88.582282 
L 91.348422 80.170677 
L 91.957759 88.582282 
L 92.871764 75.964874 
L 94.395105 96.993888 
L 94.699773 92.788085 
L 96.223115 113.817099 
L 97.746457 92.788085 
L 98.355793 101.199691 
L 100.79314 67.553269 
L 101.707145 80.170677 
L 102.925818 63.347466 
L 103.535154 71.759072 
L 103.839823 67.553269 
L 104.144491 71.759072 
L 105.667832 50.730058 
L 106.886506 67.553269 
L 107.191174 63.347466 
L 108.409847 80.170677 
L 109.933189 59.141663 
L 110.237857 63.347466 
L 110.542525 59.141663 
L 111.151862 67.553269 
L 112.675203 46.524255 
L 113.28454 54.935861 
L 113.589208 50.730058 
L 114.198545 59.141663 
L 115.11255 46.524255 
L 115.721887 54.935861 
L 116.331223 46.524255 
L 117.245228 59.141663 
L 117.854565 50.730058 
L 118.159233 54.935861 
L 118.463901 50.730058 
L 118.76857 54.935861 
L 119.073238 50.730058 
L 119.377906 54.935861 
L 120.596579 38.11265 
L 121.510584 50.730058 
L 122.729258 33.906847 
L 124.557267 59.141663 
L 125.166604 50.730058 
L 125.471272 54.935861 
L 125.775941 50.730058 
L 126.385277 59.141663 
L 126.689945 54.935861 
L 126.994614 59.141663 
L 127.299282 54.935861 
L 128.517955 71.759072 
L 128.822624 67.553269 
L 129.43196 75.964874 
L 130.041297 67.553269 
L 130.650633 75.964874 
L 130.955302 71.759072 
L 131.25997 75.964874 
L 131.564638 71.759072 
L 131.869307 75.964874 
L 132.173975 71.759072 
L 132.478643 75.964874 
L 133.392648 63.347466 
L 133.697316 67.553269 
L 134.001985 63.347466 
L 134.306653 67.553269 
L 134.91599 59.141663 
L 135.829995 71.759072 
L 136.439331 63.347466 
L 138.267341 88.582282 
L 138.572009 84.37648 
L 139.790683 101.199691 
L 140.095351 96.993888 
L 141.009356 109.611296 
L 141.618692 101.199691 
L 141.923361 105.405493 
L 142.228029 101.199691 
L 143.142034 113.817099 
L 143.446702 109.611296 
L 144.360707 122.228704 
L 145.274712 109.611296 
L 145.884049 118.022901 
L 146.188717 113.817099 
L 146.493385 118.022901 
L 147.102722 109.611296 
L 149.540068 143.257718 
L 149.844737 139.051915 
L 150.149405 143.257718 
L 150.454073 139.051915 
L 150.758742 143.257718 
L 151.06341 139.051915 
L 151.977415 151.669323 
L 152.282083 147.46352 
L 152.586751 151.669323 
L 153.196088 143.257718 
L 154.110093 155.875126 
L 154.414761 151.669323 
L 154.71943 155.875126 
L 155.633434 143.257718 
L 155.938103 147.46352 
L 156.242771 143.257718 
L 157.766113 164.286731 
L 158.070781 160.080928 
L 158.984786 172.698337 
L 159.594122 164.286731 
L 159.898791 168.492534 
L 160.203459 164.286731 
L 160.508127 168.492534 
L 160.812796 164.286731 
L 161.117464 168.492534 
L 161.726801 160.080928 
L 162.031469 164.286731 
L 162.336137 160.080928 
L 162.640805 164.286731 
L 162.945474 160.080928 
L 163.55481 168.492534 
L 163.859479 164.286731 
L 164.773484 176.904139 
L 165.078152 172.698337 
L 165.38282 176.904139 
L 165.687488 172.698337 
L 166.601493 185.315745 
L 166.906162 181.109942 
L 167.515498 189.521547 
L 168.429503 176.904139 
L 168.734172 181.109942 
L 169.03884 176.904139 
L 169.343508 181.109942 
L 170.86685 160.080928 
L 171.476186 168.492534 
L 171.780855 164.286731 
L 172.085523 168.492534 
L 172.390191 164.286731 
L 172.999528 172.698337 
L 173.608864 164.286731 
L 174.522869 176.904139 
L 175.132206 168.492534 
L 176.960216 193.72735 
L 179.397562 160.080928 
L 181.53024 189.521547 
L 181.834909 185.315745 
L 182.139577 189.521547 
L 182.444245 185.315745 
L 182.748914 189.521547 
L 183.053582 185.315745 
L 183.35825 189.521547 
L 183.967587 181.109942 
L 184.272255 185.315745 
L 184.881592 176.904139 
L 185.18626 181.109942 
L 185.490928 176.904139 
L 186.404933 189.521547 
L 187.01427 181.109942 
L 187.623606 189.521547 
L 187.928275 185.315745 
L 188.537611 193.72735 
L 188.84228 189.521547 
L 189.146948 193.72735 
L 189.756285 185.315745 
L 190.365621 193.72735 
L 191.279626 181.109942 
L 191.888963 189.521547 
L 192.193631 185.315745 
L 192.802968 193.72735 
L 193.412304 185.315745 
L 194.630977 202.138956 
L 195.849651 185.315745 
L 196.458987 193.72735 
L 196.763656 189.521547 
L 197.372992 197.933153 
L 197.67766 193.72735 
L 198.591665 206.344758 
L 198.896334 202.138956 
L 199.201002 206.344758 
L 199.810339 197.933153 
L 200.115007 202.138956 
L 200.724344 193.72735 
L 202.247685 214.756364 
L 203.16169 202.138956 
L 203.466358 206.344758 
L 204.075695 197.933153 
L 204.380363 202.138956 
L 204.685031 197.933153 
L 205.903705 214.756364 
L 207.427046 193.72735 
L 207.731715 197.933153 
L 208.036383 193.72735 
L 208.341051 197.933153 
L 209.864393 176.904139 
L 210.473729 185.315745 
L 211.083066 176.904139 
L 211.692402 185.315745 
L 212.911076 168.492534 
L 214.739086 193.72735 
L 215.348422 185.315745 
L 216.567095 202.138956 
L 217.176432 193.72735 
L 217.785769 202.138956 
L 218.090437 197.933153 
L 218.395105 202.138956 
L 219.004442 193.72735 
L 219.613778 202.138956 
L 220.223115 193.72735 
L 220.527783 197.933153 
L 220.832452 193.72735 
L 221.441788 202.138956 
L 222.051125 193.72735 
L 222.660461 202.138956 
L 222.96513 197.933153 
L 223.879135 210.550561 
L 224.79314 197.933153 
L 225.097808 202.138956 
L 225.707145 193.72735 
L 226.316481 202.138956 
L 227.535154 185.315745 
L 227.839823 189.521547 
L 228.449159 181.109942 
L 229.058496 189.521547 
L 230.581837 168.492534 
L 231.191174 176.904139 
L 231.495842 172.698337 
L 231.800511 176.904139 
L 232.105179 172.698337 
L 232.409847 176.904139 
L 233.019184 168.492534 
L 233.323852 172.698337 
L 235.151862 147.46352 
L 235.761199 155.875126 
L 236.370535 147.46352 
L 237.589208 164.286731 
L 238.198545 155.875126 
L 239.417218 172.698337 
L 239.721887 168.492534 
L 240.635891 181.109942 
L 241.549896 168.492534 
L 241.854565 172.698337 
L 242.463901 164.286731 
L 242.76857 168.492534 
L 243.073238 164.286731 
L 243.377906 168.492534 
L 243.987243 160.080928 
L 244.596579 168.492534 
L 245.205916 160.080928 
L 245.510584 164.286731 
L 245.815253 160.080928 
L 246.729258 172.698337 
L 248.252599 151.669323 
L 248.557267 155.875126 
L 248.861936 151.669323 
L 249.471272 160.080928 
L 249.775941 155.875126 
L 250.080609 160.080928 
L 250.385277 155.875126 
L 251.299282 168.492534 
L 252.517955 151.669323 
L 252.822624 155.875126 
L 253.43196 147.46352 
L 254.041297 155.875126 
L 254.345965 151.669323 
L 254.650633 155.875126 
L 254.955302 151.669323 
L 255.25997 155.875126 
L 255.564638 151.669323 
L 255.869307 155.875126 
L 256.173975 151.669323 
L 256.478643 155.875126 
L 258.306653 130.640309 
L 258.611321 134.846112 
L 258.91599 130.640309 
L 259.220658 134.846112 
L 259.525326 130.640309 
L 259.829995 134.846112 
L 260.134663 130.640309 
L 260.439331 134.846112 
L 260.744 130.640309 
L 261.048668 134.846112 
L 261.353336 130.640309 
L 262.267341 143.257718 
L 262.572009 139.051915 
L 262.876678 143.257718 
L 264.095351 126.434507 
L 264.400019 130.640309 
L 264.704687 126.434507 
L 265.009356 130.640309 
L 265.314024 126.434507 
L 265.618692 130.640309 
L 266.228029 122.228704 
L 266.532697 126.434507 
L 268.970044 92.788085 
L 269.274712 96.993888 
L 269.57938 92.788085 
L 269.884049 96.993888 
L 270.188717 92.788085 
L 271.102722 105.405493 
L 271.712059 96.993888 
L 272.016727 101.199691 
L 272.626063 92.788085 
L 272.930732 96.993888 
L 273.2354 92.788085 
L 273.844737 101.199691 
L 274.149405 96.993888 
L 274.454073 101.199691 
L 275.672746 84.37648 
L 275.977415 88.582282 
L 276.89142 75.964874 
L 277.500756 84.37648 
L 279.024098 63.347466 
L 279.328766 67.553269 
L 279.633434 63.347466 
L 280.242771 71.759072 
L 280.547439 67.553269 
L 280.852108 71.759072 
L 281.156776 67.553269 
L 281.766113 75.964874 
L 282.070781 71.759072 
L 282.375449 75.964874 
L 284.203459 50.730058 
L 284.812796 59.141663 
L 285.117464 54.935861 
L 285.726801 63.347466 
L 286.031469 59.141663 
L 286.336137 63.347466 
L 286.945474 54.935861 
L 287.250142 59.141663 
L 288.468815 42.318453 
L 288.773484 46.524255 
L 289.078152 42.318453 
L 289.38282 46.524255 
L 289.687488 42.318453 
L 290.296825 50.730058 
L 290.601493 46.524255 
L 290.906162 50.730058 
L 291.515498 42.318453 
L 292.734172 59.141663 
L 293.03884 54.935861 
L 293.343508 59.141663 
L 293.648176 54.935861 
L 294.257513 63.347466 
L 294.562181 59.141663 
L 294.86685 63.347466 
L 295.171518 59.141663 
L 295.780855 67.553269 
L 297.913533 38.11265 
L 298.218201 42.318453 
L 298.522869 38.11265 
L 299.132206 46.524255 
L 299.436874 42.318453 
L 300.046211 50.730058 
L 300.350879 46.524255 
L 300.655547 50.730058 
L 300.960216 46.524255 
L 301.569552 54.935861 
L 301.874221 50.730058 
L 302.483557 59.141663 
L 303.092894 50.730058 
L 303.70223 59.141663 
L 304.006899 54.935861 
L 304.311567 59.141663 
L 304.920904 50.730058 
L 305.225572 54.935861 
L 305.834909 46.524255 
L 306.139577 50.730058 
L 306.444245 46.524255 
L 307.35825 59.141663 
L 307.662918 54.935861 
L 308.881592 71.759072 
L 309.490928 63.347466 
L 309.795597 67.553269 
L 310.709602 54.935861 
L 311.01427 59.141663 
L 312.537611 38.11265 
L 312.84228 42.318453 
L 313.451616 33.906847 
L 314.670289 50.730058 
L 316.193631 29.701044 
L 316.498299 33.906847 
L 316.802968 29.701044 
L 317.716973 42.318453 
L 318.326309 33.906847 
L 320.154319 59.141663 
L 320.458987 54.935861 
L 321.982329 75.964874 
L 322.286997 71.759072 
L 322.591665 75.964874 
L 322.896334 71.759072 
L 323.50567 80.170677 
L 323.810339 75.964874 
L 324.115007 80.170677 
L 325.943017 54.935861 
L 326.247685 59.141663 
L 326.552353 54.935861 
L 327.16169 63.347466 
L 328.075695 50.730058 
L 328.380363 54.935861 
L 328.9897 46.524255 
L 329.294368 50.730058 
L 329.599036 46.524255 
L 329.903705 50.730058 
L 330.208373 46.524255 
L 330.513041 50.730058 
L 330.81771 46.524255 
L 331.122378 50.730058 
L 331.731715 42.318453 
L 332.036383 46.524255 
L 332.645719 38.11265 
L 333.255056 46.524255 
L 333.559724 42.318453 
L 333.864393 46.524255 
L 334.473729 38.11265 
L 335.083066 46.524255 
L 335.387734 42.318453 
L 335.692402 46.524255 
L 335.997071 42.318453 
L 336.301739 46.524255 
L 338.434417 17.083636 
L 339.348422 29.701044 
L 339.65309 25.495242 
L 340.871764 42.318453 
L 341.4811 33.906847 
L 341.785769 38.11265 
L 343.30911 17.083636 
L 343.613778 21.289439 
L 343.918447 17.083636 
L 344.223115 21.289439 
L 344.527783 17.083636 
L 345.13712 25.495242 
L 345.441788 21.289439 
L 345.746457 25.495242 
L 346.051125 21.289439 
L 346.660461 29.701044 
L 346.96513 25.495242 
L 347.269798 29.701044 
L 347.574466 25.495242 
L 347.879135 29.701044 
L 348.183803 25.495242 
L 348.79314 33.906847 
L 349.402476 25.495242 
L 349.707145 29.701044 
L 350.011813 25.495242 
L 350.925818 38.11265 
L 351.839823 25.495242 
L 352.753828 38.11265 
L 353.058496 33.906847 
L 353.363164 38.11265 
L 354.886506 17.083636 
L 354.886506 17.083636 
" style="fill:none;stroke:#8dd3c7;stroke-linecap:square;stroke-width:1.5;"/>
   </g>
   <g id="patch_3">
    <path d="M 35.304688 224.64 
L 35.304688 7.2 
" style="fill:none;stroke:#ffffff;stroke-linecap:square;stroke-linejoin:miter;stroke-width:0.8;"/>
   </g>
   <g id="patch_4">
    <path d="M 370.104688 224.64 
L 370.104688 7.2 
" style="fill:none;stroke:#ffffff;stroke-linecap:square;stroke-linejoin:miter;stroke-width:0.8;"/>
   </g>
   <g id="patch_5">
    <path d="M 35.304688 224.64 
L 370.104688 224.64 
" style="fill:none;stroke:#ffffff;stroke-linecap:square;stroke-linejoin:miter;stroke-width:0.8;"/>
   </g>
   <g id="patch_6">
    <path d="M 35.304688 7.2 
L 370.104688 7.2 
" style="fill:none;stroke:#ffffff;stroke-linecap:square;stroke-linejoin:miter;stroke-width:0.8;"/>
   </g>
  </g>
 </g>
 <defs>
  <clipPath id="p73952db492">
   <rect height="217.44" width="334.8" x="35.304688" y="7.2"/>
  </clipPath>
 </defs>
</svg>
