<?xml version="1.0" encoding="utf-8" standalone="no"?>
<!DOCTYPE svg PUBLIC "-//W3C//DTD SVG 1.1//EN"
  "http://www.w3.org/Graphics/SVG/1.1/DTD/svg11.dtd">
<!-- Created with matplotlib (https://matplotlib.org/) -->
<svg height="248.518125pt" version="1.1" viewBox="0 0 375.2875 248.518125" width="375.2875pt" xmlns="http://www.w3.org/2000/svg" xmlns:xlink="http://www.w3.org/1999/xlink">
 <defs>
  <style type="text/css">
*{stroke-linecap:butt;stroke-linejoin:round;}
  </style>
 </defs>
 <g id="figure_1">
  <g id="patch_1">
   <path d="M 0 248.518125 
L 375.2875 248.518125 
L 375.2875 0 
L 0 0 
z
" style="fill:none;"/>
  </g>
  <g id="axes_1">
   <g id="patch_2">
    <path d="M 33.2875 224.64 
L 368.0875 224.64 
L 368.0875 7.2 
L 33.2875 7.2 
z
"/>
   </g>
   <g id="patch_3">
    <path clip-path="url(#pd6cc60cbfc)" d="M 48.505682 224.64 
L 54.592955 224.64 
L 54.592955 210.107669 
L 48.505682 210.107669 
z
" style="fill:#8dd3c7;"/>
   </g>
   <g id="patch_4">
    <path clip-path="url(#pd6cc60cbfc)" d="M 54.592955 224.64 
L 60.680227 224.64 
L 60.680227 193.758797 
L 54.592955 193.758797 
z
" style="fill:#8dd3c7;"/>
   </g>
   <g id="patch_5">
    <path clip-path="url(#pd6cc60cbfc)" d="M 60.680227 224.64 
L 66.7675 224.64 
L 66.7675 153.794887 
L 60.680227 153.794887 
z
" style="fill:#8dd3c7;"/>
   </g>
   <g id="patch_6">
    <path clip-path="url(#pd6cc60cbfc)" d="M 66.7675 224.64 
L 72.854773 224.64 
L 72.854773 130.17985 
L 66.7675 130.17985 
z
" style="fill:#8dd3c7;"/>
   </g>
   <g id="patch_7">
    <path clip-path="url(#pd6cc60cbfc)" d="M 72.854773 224.64 
L 78.942045 224.64 
L 78.942045 117.46406 
L 72.854773 117.46406 
z
" style="fill:#8dd3c7;"/>
   </g>
   <g id="patch_8">
    <path clip-path="url(#pd6cc60cbfc)" d="M 78.942045 224.64 
L 85.029318 224.64 
L 85.029318 97.482105 
L 78.942045 97.482105 
z
" style="fill:#8dd3c7;"/>
   </g>
   <g id="patch_9">
    <path clip-path="url(#pd6cc60cbfc)" d="M 85.029318 224.64 
L 91.116591 224.64 
L 91.116591 90.21594 
L 85.029318 90.21594 
z
" style="fill:#8dd3c7;"/>
   </g>
   <g id="patch_10">
    <path clip-path="url(#pd6cc60cbfc)" d="M 91.116591 224.64 
L 97.203864 224.64 
L 97.203864 90.21594 
L 91.116591 90.21594 
z
" style="fill:#8dd3c7;"/>
   </g>
   <g id="patch_11">
    <path clip-path="url(#pd6cc60cbfc)" d="M 97.203864 224.64 
L 103.291136 224.64 
L 103.291136 70.233985 
L 97.203864 70.233985 
z
" style="fill:#8dd3c7;"/>
   </g>
   <g id="patch_12">
    <path clip-path="url(#pd6cc60cbfc)" d="M 103.291136 224.64 
L 109.378409 224.64 
L 109.378409 33.903158 
L 103.291136 33.903158 
z
" style="fill:#8dd3c7;"/>
   </g>
   <g id="patch_13">
    <path clip-path="url(#pd6cc60cbfc)" d="M 109.378409 224.64 
L 115.465682 224.64 
L 115.465682 57.518195 
L 109.378409 57.518195 
z
" style="fill:#8dd3c7;"/>
   </g>
   <g id="patch_14">
    <path clip-path="url(#pd6cc60cbfc)" d="M 115.465682 224.64 
L 121.552955 224.64 
L 121.552955 42.985865 
L 115.465682 42.985865 
z
" style="fill:#8dd3c7;"/>
   </g>
   <g id="patch_15">
    <path clip-path="url(#pd6cc60cbfc)" d="M 121.552955 224.64 
L 127.640227 224.64 
L 127.640227 48.435489 
L 121.552955 48.435489 
z
" style="fill:#8dd3c7;"/>
   </g>
   <g id="patch_16">
    <path clip-path="url(#pd6cc60cbfc)" d="M 127.640227 224.64 
L 133.7275 224.64 
L 133.7275 72.050526 
L 127.640227 72.050526 
z
" style="fill:#8dd3c7;"/>
   </g>
   <g id="patch_17">
    <path clip-path="url(#pd6cc60cbfc)" d="M 133.7275 224.64 
L 139.814773 224.64 
L 139.814773 93.849023 
L 133.7275 93.849023 
z
" style="fill:#8dd3c7;"/>
   </g>
   <g id="patch_18">
    <path clip-path="url(#pd6cc60cbfc)" d="M 139.814773 224.64 
L 145.902045 224.64 
L 145.902045 102.931729 
L 139.814773 102.931729 
z
" style="fill:#8dd3c7;"/>
   </g>
   <g id="patch_19">
    <path clip-path="url(#pd6cc60cbfc)" d="M 145.902045 224.64 
L 151.989318 224.64 
L 151.989318 17.554286 
L 145.902045 17.554286 
z
" style="fill:#8dd3c7;"/>
   </g>
   <g id="patch_20">
    <path clip-path="url(#pd6cc60cbfc)" d="M 151.989318 224.64 
L 158.076591 224.64 
L 158.076591 77.50015 
L 151.989318 77.50015 
z
" style="fill:#8dd3c7;"/>
   </g>
   <g id="patch_21">
    <path clip-path="url(#pd6cc60cbfc)" d="M 158.076591 224.64 
L 164.163864 224.64 
L 164.163864 64.784361 
L 158.076591 64.784361 
z
" style="fill:#8dd3c7;"/>
   </g>
   <g id="patch_22">
    <path clip-path="url(#pd6cc60cbfc)" d="M 164.163864 224.64 
L 170.251136 224.64 
L 170.251136 23.00391 
L 164.163864 23.00391 
z
" style="fill:#8dd3c7;"/>
   </g>
   <g id="patch_23">
    <path clip-path="url(#pd6cc60cbfc)" d="M 170.251136 224.64 
L 176.338409 224.64 
L 176.338409 68.417444 
L 170.251136 68.417444 
z
" style="fill:#8dd3c7;"/>
   </g>
   <g id="patch_24">
    <path clip-path="url(#pd6cc60cbfc)" d="M 176.338409 224.64 
L 182.425682 224.64 
L 182.425682 64.784361 
L 176.338409 64.784361 
z
" style="fill:#8dd3c7;"/>
   </g>
   <g id="patch_25">
    <path clip-path="url(#pd6cc60cbfc)" d="M 182.425682 224.64 
L 188.512955 224.64 
L 188.512955 39.352782 
L 182.425682 39.352782 
z
" style="fill:#8dd3c7;"/>
   </g>
   <g id="patch_26">
    <path clip-path="url(#pd6cc60cbfc)" d="M 188.512955 224.64 
L 194.600227 224.64 
L 194.600227 84.766316 
L 188.512955 84.766316 
z
" style="fill:#8dd3c7;"/>
   </g>
   <g id="patch_27">
    <path clip-path="url(#pd6cc60cbfc)" d="M 194.600227 224.64 
L 200.6875 224.64 
L 200.6875 90.21594 
L 194.600227 90.21594 
z
" style="fill:#8dd3c7;"/>
   </g>
   <g id="patch_28">
    <path clip-path="url(#pd6cc60cbfc)" d="M 200.6875 224.64 
L 206.774773 224.64 
L 206.774773 46.618947 
L 200.6875 46.618947 
z
" style="fill:#8dd3c7;"/>
   </g>
   <g id="patch_29">
    <path clip-path="url(#pd6cc60cbfc)" d="M 206.774773 224.64 
L 212.862045 224.64 
L 212.862045 99.298647 
L 206.774773 99.298647 
z
" style="fill:#8dd3c7;"/>
   </g>
   <g id="patch_30">
    <path clip-path="url(#pd6cc60cbfc)" d="M 212.862045 224.64 
L 218.949318 224.64 
L 218.949318 90.21594 
L 212.862045 90.21594 
z
" style="fill:#8dd3c7;"/>
   </g>
   <g id="patch_31">
    <path clip-path="url(#pd6cc60cbfc)" d="M 218.949318 224.64 
L 225.036591 224.64 
L 225.036591 108.381353 
L 218.949318 108.381353 
z
" style="fill:#8dd3c7;"/>
   </g>
   <g id="patch_32">
    <path clip-path="url(#pd6cc60cbfc)" d="M 225.036591 224.64 
L 231.123864 224.64 
L 231.123864 115.647519 
L 225.036591 115.647519 
z
" style="fill:#8dd3c7;"/>
   </g>
   <g id="patch_33">
    <path clip-path="url(#pd6cc60cbfc)" d="M 231.123864 224.64 
L 237.211136 224.64 
L 237.211136 64.784361 
L 231.123864 64.784361 
z
" style="fill:#8dd3c7;"/>
   </g>
   <g id="patch_34">
    <path clip-path="url(#pd6cc60cbfc)" d="M 237.211136 224.64 
L 243.298409 224.64 
L 243.298409 124.730226 
L 237.211136 124.730226 
z
" style="fill:#8dd3c7;"/>
   </g>
   <g id="patch_35">
    <path clip-path="url(#pd6cc60cbfc)" d="M 243.298409 224.64 
L 249.385682 224.64 
L 249.385682 117.46406 
L 243.298409 117.46406 
z
" style="fill:#8dd3c7;"/>
   </g>
   <g id="patch_36">
    <path clip-path="url(#pd6cc60cbfc)" d="M 249.385682 224.64 
L 255.472955 224.64 
L 255.472955 119.280602 
L 249.385682 119.280602 
z
" style="fill:#8dd3c7;"/>
   </g>
   <g id="patch_37">
    <path clip-path="url(#pd6cc60cbfc)" d="M 255.472955 224.64 
L 261.560227 224.64 
L 261.560227 93.849023 
L 255.472955 93.849023 
z
" style="fill:#8dd3c7;"/>
   </g>
   <g id="patch_38">
    <path clip-path="url(#pd6cc60cbfc)" d="M 261.560227 224.64 
L 267.6475 224.64 
L 267.6475 121.097143 
L 261.560227 121.097143 
z
" style="fill:#8dd3c7;"/>
   </g>
   <g id="patch_39">
    <path clip-path="url(#pd6cc60cbfc)" d="M 267.6475 224.64 
L 273.734773 224.64 
L 273.734773 99.298647 
L 267.6475 99.298647 
z
" style="fill:#8dd3c7;"/>
   </g>
   <g id="patch_40">
    <path clip-path="url(#pd6cc60cbfc)" d="M 273.734773 224.64 
L 279.822045 224.64 
L 279.822045 126.546767 
L 273.734773 126.546767 
z
" style="fill:#8dd3c7;"/>
   </g>
   <g id="patch_41">
    <path clip-path="url(#pd6cc60cbfc)" d="M 279.822045 224.64 
L 285.909318 224.64 
L 285.909318 112.014436 
L 279.822045 112.014436 
z
" style="fill:#8dd3c7;"/>
   </g>
   <g id="patch_42">
    <path clip-path="url(#pd6cc60cbfc)" d="M 285.909318 224.64 
L 291.996591 224.64 
L 291.996591 108.381353 
L 285.909318 108.381353 
z
" style="fill:#8dd3c7;"/>
   </g>
   <g id="patch_43">
    <path clip-path="url(#pd6cc60cbfc)" d="M 291.996591 224.64 
L 298.083864 224.64 
L 298.083864 137.446015 
L 291.996591 137.446015 
z
" style="fill:#8dd3c7;"/>
   </g>
   <g id="patch_44">
    <path clip-path="url(#pd6cc60cbfc)" d="M 298.083864 224.64 
L 304.171136 224.64 
L 304.171136 115.647519 
L 298.083864 115.647519 
z
" style="fill:#8dd3c7;"/>
   </g>
   <g id="patch_45">
    <path clip-path="url(#pd6cc60cbfc)" d="M 304.171136 224.64 
L 310.258409 224.64 
L 310.258409 133.812932 
L 304.171136 133.812932 
z
" style="fill:#8dd3c7;"/>
   </g>
   <g id="patch_46">
    <path clip-path="url(#pd6cc60cbfc)" d="M 310.258409 224.64 
L 316.345682 224.64 
L 316.345682 130.17985 
L 310.258409 130.17985 
z
" style="fill:#8dd3c7;"/>
   </g>
   <g id="patch_47">
    <path clip-path="url(#pd6cc60cbfc)" d="M 316.345682 224.64 
L 322.432955 224.64 
L 322.432955 133.812932 
L 316.345682 133.812932 
z
" style="fill:#8dd3c7;"/>
   </g>
   <g id="patch_48">
    <path clip-path="url(#pd6cc60cbfc)" d="M 322.432955 224.64 
L 328.520227 224.64 
L 328.520227 139.262556 
L 322.432955 139.262556 
z
" style="fill:#8dd3c7;"/>
   </g>
   <g id="patch_49">
    <path clip-path="url(#pd6cc60cbfc)" d="M 328.520227 224.64 
L 334.6075 224.64 
L 334.6075 151.978346 
L 328.520227 151.978346 
z
" style="fill:#8dd3c7;"/>
   </g>
   <g id="patch_50">
    <path clip-path="url(#pd6cc60cbfc)" d="M 334.6075 224.64 
L 340.694773 224.64 
L 340.694773 115.647519 
L 334.6075 115.647519 
z
" style="fill:#8dd3c7;"/>
   </g>
   <g id="patch_51">
    <path clip-path="url(#pd6cc60cbfc)" d="M 340.694773 224.64 
L 346.782045 224.64 
L 346.782045 164.694135 
L 340.694773 164.694135 
z
" style="fill:#8dd3c7;"/>
   </g>
   <g id="patch_52">
    <path clip-path="url(#pd6cc60cbfc)" d="M 346.782045 224.64 
L 352.869318 224.64 
L 352.869318 133.812932 
L 346.782045 133.812932 
z
" style="fill:#8dd3c7;"/>
   </g>
   <g id="matplotlib.axis_1">
    <g id="xtick_1">
     <g id="line2d_1">
      <defs>
       <path d="M 0 0 
L 0 3.5 
" id="m8ade82d8a3" style="stroke:#ffffff;stroke-width:0.8;"/>
      </defs>
      <g>
       <use style="fill:#ffffff;stroke:#ffffff;stroke-width:0.8;" x="93.054633" xlink:href="#m8ade82d8a3" y="224.64"/>
      </g>
     </g>
     <g id="text_1">
      <!-- 200 -->
      <defs>
       <path d="M 19.1875 8.296875 
L 53.609375 8.296875 
L 53.609375 0 
L 7.328125 0 
L 7.328125 8.296875 
Q 12.9375 14.109375 22.625 23.890625 
Q 32.328125 33.6875 34.8125 36.53125 
Q 39.546875 41.84375 41.421875 45.53125 
Q 43.3125 49.21875 43.3125 52.78125 
Q 43.3125 58.59375 39.234375 62.25 
Q 35.15625 65.921875 28.609375 65.921875 
Q 23.96875 65.921875 18.8125 64.3125 
Q 13.671875 62.703125 7.8125 59.421875 
L 7.8125 69.390625 
Q 13.765625 71.78125 18.9375 73 
Q 24.125 74.21875 28.421875 74.21875 
Q 39.75 74.21875 46.484375 68.546875 
Q 53.21875 62.890625 53.21875 53.421875 
Q 53.21875 48.921875 51.53125 44.890625 
Q 49.859375 40.875 45.40625 35.40625 
Q 44.1875 33.984375 37.640625 27.21875 
Q 31.109375 20.453125 19.1875 8.296875 
z
" id="DejaVuSans-50"/>
       <path d="M 31.78125 66.40625 
Q 24.171875 66.40625 20.328125 58.90625 
Q 16.5 51.421875 16.5 36.375 
Q 16.5 21.390625 20.328125 13.890625 
Q 24.171875 6.390625 31.78125 6.390625 
Q 39.453125 6.390625 43.28125 13.890625 
Q 47.125 21.390625 47.125 36.375 
Q 47.125 51.421875 43.28125 58.90625 
Q 39.453125 66.40625 31.78125 66.40625 
z
M 31.78125 74.21875 
Q 44.046875 74.21875 50.515625 64.515625 
Q 56.984375 54.828125 56.984375 36.375 
Q 56.984375 17.96875 50.515625 8.265625 
Q 44.046875 -1.421875 31.78125 -1.421875 
Q 19.53125 -1.421875 13.0625 8.265625 
Q 6.59375 17.96875 6.59375 36.375 
Q 6.59375 54.828125 13.0625 64.515625 
Q 19.53125 74.21875 31.78125 74.21875 
z
" id="DejaVuSans-48"/>
      </defs>
      <g style="fill:#ffffff;" transform="translate(83.510883 239.238437)scale(0.1 -0.1)">
       <use xlink:href="#DejaVuSans-50"/>
       <use x="63.623047" xlink:href="#DejaVuSans-48"/>
       <use x="127.246094" xlink:href="#DejaVuSans-48"/>
      </g>
     </g>
    </g>
    <g id="xtick_2">
     <g id="line2d_2">
      <g>
       <use style="fill:#ffffff;stroke:#ffffff;stroke-width:0.8;" x="158.089598" xlink:href="#m8ade82d8a3" y="224.64"/>
      </g>
     </g>
     <g id="text_2">
      <!-- 400 -->
      <defs>
       <path d="M 37.796875 64.3125 
L 12.890625 25.390625 
L 37.796875 25.390625 
z
M 35.203125 72.90625 
L 47.609375 72.90625 
L 47.609375 25.390625 
L 58.015625 25.390625 
L 58.015625 17.1875 
L 47.609375 17.1875 
L 47.609375 0 
L 37.796875 0 
L 37.796875 17.1875 
L 4.890625 17.1875 
L 4.890625 26.703125 
z
" id="DejaVuSans-52"/>
      </defs>
      <g style="fill:#ffffff;" transform="translate(148.545848 239.238437)scale(0.1 -0.1)">
       <use xlink:href="#DejaVuSans-52"/>
       <use x="63.623047" xlink:href="#DejaVuSans-48"/>
       <use x="127.246094" xlink:href="#DejaVuSans-48"/>
      </g>
     </g>
    </g>
    <g id="xtick_3">
     <g id="line2d_3">
      <g>
       <use style="fill:#ffffff;stroke:#ffffff;stroke-width:0.8;" x="223.124563" xlink:href="#m8ade82d8a3" y="224.64"/>
      </g>
     </g>
     <g id="text_3">
      <!-- 600 -->
      <defs>
       <path d="M 33.015625 40.375 
Q 26.375 40.375 22.484375 35.828125 
Q 18.609375 31.296875 18.609375 23.390625 
Q 18.609375 15.53125 22.484375 10.953125 
Q 26.375 6.390625 33.015625 6.390625 
Q 39.65625 6.390625 43.53125 10.953125 
Q 47.40625 15.53125 47.40625 23.390625 
Q 47.40625 31.296875 43.53125 35.828125 
Q 39.65625 40.375 33.015625 40.375 
z
M 52.59375 71.296875 
L 52.59375 62.3125 
Q 48.875 64.0625 45.09375 64.984375 
Q 41.3125 65.921875 37.59375 65.921875 
Q 27.828125 65.921875 22.671875 59.328125 
Q 17.53125 52.734375 16.796875 39.40625 
Q 19.671875 43.65625 24.015625 45.921875 
Q 28.375 48.1875 33.59375 48.1875 
Q 44.578125 48.1875 50.953125 41.515625 
Q 57.328125 34.859375 57.328125 23.390625 
Q 57.328125 12.15625 50.6875 5.359375 
Q 44.046875 -1.421875 33.015625 -1.421875 
Q 20.359375 -1.421875 13.671875 8.265625 
Q 6.984375 17.96875 6.984375 36.375 
Q 6.984375 53.65625 15.1875 63.9375 
Q 23.390625 74.21875 37.203125 74.21875 
Q 40.921875 74.21875 44.703125 73.484375 
Q 48.484375 72.75 52.59375 71.296875 
z
" id="DejaVuSans-54"/>
      </defs>
      <g style="fill:#ffffff;" transform="translate(213.580813 239.238437)scale(0.1 -0.1)">
       <use xlink:href="#DejaVuSans-54"/>
       <use x="63.623047" xlink:href="#DejaVuSans-48"/>
       <use x="127.246094" xlink:href="#DejaVuSans-48"/>
      </g>
     </g>
    </g>
    <g id="xtick_4">
     <g id="line2d_4">
      <g>
       <use style="fill:#ffffff;stroke:#ffffff;stroke-width:0.8;" x="288.159528" xlink:href="#m8ade82d8a3" y="224.64"/>
      </g>
     </g>
     <g id="text_4">
      <!-- 800 -->
      <defs>
       <path d="M 31.78125 34.625 
Q 24.75 34.625 20.71875 30.859375 
Q 16.703125 27.09375 16.703125 20.515625 
Q 16.703125 13.921875 20.71875 10.15625 
Q 24.75 6.390625 31.78125 6.390625 
Q 38.8125 6.390625 42.859375 10.171875 
Q 46.921875 13.96875 46.921875 20.515625 
Q 46.921875 27.09375 42.890625 30.859375 
Q 38.875 34.625 31.78125 34.625 
z
M 21.921875 38.8125 
Q 15.578125 40.375 12.03125 44.71875 
Q 8.5 49.078125 8.5 55.328125 
Q 8.5 64.0625 14.71875 69.140625 
Q 20.953125 74.21875 31.78125 74.21875 
Q 42.671875 74.21875 48.875 69.140625 
Q 55.078125 64.0625 55.078125 55.328125 
Q 55.078125 49.078125 51.53125 44.71875 
Q 48 40.375 41.703125 38.8125 
Q 48.828125 37.15625 52.796875 32.3125 
Q 56.78125 27.484375 56.78125 20.515625 
Q 56.78125 9.90625 50.3125 4.234375 
Q 43.84375 -1.421875 31.78125 -1.421875 
Q 19.734375 -1.421875 13.25 4.234375 
Q 6.78125 9.90625 6.78125 20.515625 
Q 6.78125 27.484375 10.78125 32.3125 
Q 14.796875 37.15625 21.921875 38.8125 
z
M 18.3125 54.390625 
Q 18.3125 48.734375 21.84375 45.5625 
Q 25.390625 42.390625 31.78125 42.390625 
Q 38.140625 42.390625 41.71875 45.5625 
Q 45.3125 48.734375 45.3125 54.390625 
Q 45.3125 60.0625 41.71875 63.234375 
Q 38.140625 66.40625 31.78125 66.40625 
Q 25.390625 66.40625 21.84375 63.234375 
Q 18.3125 60.0625 18.3125 54.390625 
z
" id="DejaVuSans-56"/>
      </defs>
      <g style="fill:#ffffff;" transform="translate(278.615778 239.238437)scale(0.1 -0.1)">
       <use xlink:href="#DejaVuSans-56"/>
       <use x="63.623047" xlink:href="#DejaVuSans-48"/>
       <use x="127.246094" xlink:href="#DejaVuSans-48"/>
      </g>
     </g>
    </g>
    <g id="xtick_5">
     <g id="line2d_5">
      <g>
       <use style="fill:#ffffff;stroke:#ffffff;stroke-width:0.8;" x="353.194493" xlink:href="#m8ade82d8a3" y="224.64"/>
      </g>
     </g>
     <g id="text_5">
      <!-- 1000 -->
      <defs>
       <path d="M 12.40625 8.296875 
L 28.515625 8.296875 
L 28.515625 63.921875 
L 10.984375 60.40625 
L 10.984375 69.390625 
L 28.421875 72.90625 
L 38.28125 72.90625 
L 38.28125 8.296875 
L 54.390625 8.296875 
L 54.390625 0 
L 12.40625 0 
z
" id="DejaVuSans-49"/>
      </defs>
      <g style="fill:#ffffff;" transform="translate(340.469493 239.238437)scale(0.1 -0.1)">
       <use xlink:href="#DejaVuSans-49"/>
       <use x="63.623047" xlink:href="#DejaVuSans-48"/>
       <use x="127.246094" xlink:href="#DejaVuSans-48"/>
       <use x="190.869141" xlink:href="#DejaVuSans-48"/>
      </g>
     </g>
    </g>
   </g>
   <g id="matplotlib.axis_2">
    <g id="ytick_1">
     <g id="line2d_6">
      <defs>
       <path d="M 0 0 
L -3.5 0 
" id="ma186ed3eba" style="stroke:#ffffff;stroke-width:0.8;"/>
      </defs>
      <g>
       <use style="fill:#ffffff;stroke:#ffffff;stroke-width:0.8;" x="33.2875" xlink:href="#ma186ed3eba" y="224.64"/>
      </g>
     </g>
     <g id="text_6">
      <!-- 0 -->
      <g style="fill:#ffffff;" transform="translate(19.925 228.439219)scale(0.1 -0.1)">
       <use xlink:href="#DejaVuSans-48"/>
      </g>
     </g>
    </g>
    <g id="ytick_2">
     <g id="line2d_7">
      <g>
       <use style="fill:#ffffff;stroke:#ffffff;stroke-width:0.8;" x="33.2875" xlink:href="#ma186ed3eba" y="188.309173"/>
      </g>
     </g>
     <g id="text_7">
      <!-- 20 -->
      <g style="fill:#ffffff;" transform="translate(13.5625 192.108392)scale(0.1 -0.1)">
       <use xlink:href="#DejaVuSans-50"/>
       <use x="63.623047" xlink:href="#DejaVuSans-48"/>
      </g>
     </g>
    </g>
    <g id="ytick_3">
     <g id="line2d_8">
      <g>
       <use style="fill:#ffffff;stroke:#ffffff;stroke-width:0.8;" x="33.2875" xlink:href="#ma186ed3eba" y="151.978346"/>
      </g>
     </g>
     <g id="text_8">
      <!-- 40 -->
      <g style="fill:#ffffff;" transform="translate(13.5625 155.777565)scale(0.1 -0.1)">
       <use xlink:href="#DejaVuSans-52"/>
       <use x="63.623047" xlink:href="#DejaVuSans-48"/>
      </g>
     </g>
    </g>
    <g id="ytick_4">
     <g id="line2d_9">
      <g>
       <use style="fill:#ffffff;stroke:#ffffff;stroke-width:0.8;" x="33.2875" xlink:href="#ma186ed3eba" y="115.647519"/>
      </g>
     </g>
     <g id="text_9">
      <!-- 60 -->
      <g style="fill:#ffffff;" transform="translate(13.5625 119.446738)scale(0.1 -0.1)">
       <use xlink:href="#DejaVuSans-54"/>
       <use x="63.623047" xlink:href="#DejaVuSans-48"/>
      </g>
     </g>
    </g>
    <g id="ytick_5">
     <g id="line2d_10">
      <g>
       <use style="fill:#ffffff;stroke:#ffffff;stroke-width:0.8;" x="33.2875" xlink:href="#ma186ed3eba" y="79.316692"/>
      </g>
     </g>
     <g id="text_10">
      <!-- 80 -->
      <g style="fill:#ffffff;" transform="translate(13.5625 83.11591)scale(0.1 -0.1)">
       <use xlink:href="#DejaVuSans-56"/>
       <use x="63.623047" xlink:href="#DejaVuSans-48"/>
      </g>
     </g>
    </g>
    <g id="ytick_6">
     <g id="line2d_11">
      <g>
       <use style="fill:#ffffff;stroke:#ffffff;stroke-width:0.8;" x="33.2875" xlink:href="#ma186ed3eba" y="42.985865"/>
      </g>
     </g>
     <g id="text_11">
      <!-- 100 -->
      <g style="fill:#ffffff;" transform="translate(7.2 46.785083)scale(0.1 -0.1)">
       <use xlink:href="#DejaVuSans-49"/>
       <use x="63.623047" xlink:href="#DejaVuSans-48"/>
       <use x="127.246094" xlink:href="#DejaVuSans-48"/>
      </g>
     </g>
    </g>
   </g>
   <g id="patch_53">
    <path d="M 33.2875 224.64 
L 33.2875 7.2 
" style="fill:none;stroke:#ffffff;stroke-linecap:square;stroke-linejoin:miter;stroke-width:0.8;"/>
   </g>
   <g id="patch_54">
    <path d="M 368.0875 224.64 
L 368.0875 7.2 
" style="fill:none;stroke:#ffffff;stroke-linecap:square;stroke-linejoin:miter;stroke-width:0.8;"/>
   </g>
   <g id="patch_55">
    <path d="M 33.2875 224.64 
L 368.0875 224.64 
" style="fill:none;stroke:#ffffff;stroke-linecap:square;stroke-linejoin:miter;stroke-width:0.8;"/>
   </g>
   <g id="patch_56">
    <path d="M 33.2875 7.2 
L 368.0875 7.2 
" style="fill:none;stroke:#ffffff;stroke-linecap:square;stroke-linejoin:miter;stroke-width:0.8;"/>
   </g>
  </g>
 </g>
 <defs>
  <clipPath id="pd6cc60cbfc">
   <rect height="217.44" width="334.8" x="33.2875" y="7.2"/>
  </clipPath>
 </defs>
</svg>
