<?xml version="1.0" encoding="utf-8" standalone="no"?>
<!DOCTYPE svg PUBLIC "-//W3C//DTD SVG 1.1//EN"
  "http://www.w3.org/Graphics/SVG/1.1/DTD/svg11.dtd">
<!-- Created with matplotlib (https://matplotlib.org/) -->
<svg height="298.845312pt" version="1.1" viewBox="0 0 480.982813 298.845312" width="480.982813pt" xmlns="http://www.w3.org/2000/svg" xmlns:xlink="http://www.w3.org/1999/xlink">
 <defs>
  <style type="text/css">
*{stroke-linecap:butt;stroke-linejoin:round;}
  </style>
 </defs>
 <g id="figure_1">
  <g id="patch_1">
   <path d="M 0 298.845312 
L 480.982813 298.845312 
L 480.982813 0 
L 0 0 
z
" style="fill:#ffffff;"/>
  </g>
  <g id="axes_1">
   <g id="patch_2">
    <path d="M 27.382812 279 
L 473.782812 279 
L 473.782812 7.2 
L 27.382812 7.2 
z
" style="fill:#ffffff;"/>
   </g>
   <g id="matplotlib.axis_1">
    <g id="xtick_1">
     <g id="line2d_1">
      <path clip-path="url(#pc3bd3d4f7c)" d="M 107.072323 279 
L 107.072323 7.2 
" style="fill:none;stroke:#cccccc;stroke-linecap:round;stroke-width:0.8;"/>
     </g>
     <g id="line2d_2"/>
     <g id="text_1">
      <!-- 200 -->
      <defs>
       <path d="M 50.34375 8.453125 
L 50.34375 0 
L 3.03125 0 
Q 2.9375 3.171875 4.046875 6.109375 
Q 5.859375 10.9375 9.828125 15.625 
Q 13.8125 20.3125 21.34375 26.46875 
Q 33.015625 36.03125 37.109375 41.625 
Q 41.21875 47.21875 41.21875 52.203125 
Q 41.21875 57.421875 37.46875 61 
Q 33.734375 64.59375 27.734375 64.59375 
Q 21.390625 64.59375 17.578125 60.78125 
Q 13.765625 56.984375 13.71875 50.25 
L 4.6875 51.171875 
Q 5.609375 61.28125 11.65625 66.578125 
Q 17.71875 71.875 27.9375 71.875 
Q 38.234375 71.875 44.234375 66.15625 
Q 50.25 60.453125 50.25 52 
Q 50.25 47.703125 48.484375 43.546875 
Q 46.734375 39.40625 42.65625 34.8125 
Q 38.578125 30.21875 29.109375 22.21875 
Q 21.1875 15.578125 18.9375 13.203125 
Q 16.703125 10.84375 15.234375 8.453125 
z
" id="ArialMT-50"/>
       <path d="M 4.15625 35.296875 
Q 4.15625 48 6.765625 55.734375 
Q 9.375 63.484375 14.515625 67.671875 
Q 19.671875 71.875 27.484375 71.875 
Q 33.25 71.875 37.59375 69.546875 
Q 41.9375 67.234375 44.765625 62.859375 
Q 47.609375 58.5 49.21875 52.21875 
Q 50.828125 45.953125 50.828125 35.296875 
Q 50.828125 22.703125 48.234375 14.96875 
Q 45.65625 7.234375 40.5 3 
Q 35.359375 -1.21875 27.484375 -1.21875 
Q 17.140625 -1.21875 11.234375 6.203125 
Q 4.15625 15.140625 4.15625 35.296875 
z
M 13.1875 35.296875 
Q 13.1875 17.671875 17.3125 11.828125 
Q 21.4375 6 27.484375 6 
Q 33.546875 6 37.671875 11.859375 
Q 41.796875 17.71875 41.796875 35.296875 
Q 41.796875 52.984375 37.671875 58.78125 
Q 33.546875 64.59375 27.390625 64.59375 
Q 21.34375 64.59375 17.71875 59.46875 
Q 13.1875 52.9375 13.1875 35.296875 
z
" id="ArialMT-48"/>
      </defs>
      <g style="fill:#262626;" transform="translate(98.730917 289.657812)scale(0.1 -0.1)">
       <use xlink:href="#ArialMT-50"/>
       <use x="55.615234" xlink:href="#ArialMT-48"/>
       <use x="111.230469" xlink:href="#ArialMT-48"/>
      </g>
     </g>
    </g>
    <g id="xtick_2">
     <g id="line2d_3">
      <path clip-path="url(#pc3bd3d4f7c)" d="M 193.78561 279 
L 193.78561 7.2 
" style="fill:none;stroke:#cccccc;stroke-linecap:round;stroke-width:0.8;"/>
     </g>
     <g id="line2d_4"/>
     <g id="text_2">
      <!-- 400 -->
      <defs>
       <path d="M 32.328125 0 
L 32.328125 17.140625 
L 1.265625 17.140625 
L 1.265625 25.203125 
L 33.9375 71.578125 
L 41.109375 71.578125 
L 41.109375 25.203125 
L 50.78125 25.203125 
L 50.78125 17.140625 
L 41.109375 17.140625 
L 41.109375 0 
z
M 32.328125 25.203125 
L 32.328125 57.46875 
L 9.90625 25.203125 
z
" id="ArialMT-52"/>
      </defs>
      <g style="fill:#262626;" transform="translate(185.444203 289.657812)scale(0.1 -0.1)">
       <use xlink:href="#ArialMT-52"/>
       <use x="55.615234" xlink:href="#ArialMT-48"/>
       <use x="111.230469" xlink:href="#ArialMT-48"/>
      </g>
     </g>
    </g>
    <g id="xtick_3">
     <g id="line2d_5">
      <path clip-path="url(#pc3bd3d4f7c)" d="M 280.498896 279 
L 280.498896 7.2 
" style="fill:none;stroke:#cccccc;stroke-linecap:round;stroke-width:0.8;"/>
     </g>
     <g id="line2d_6"/>
     <g id="text_3">
      <!-- 600 -->
      <defs>
       <path d="M 49.75 54.046875 
L 41.015625 53.375 
Q 39.84375 58.546875 37.703125 60.890625 
Q 34.125 64.65625 28.90625 64.65625 
Q 24.703125 64.65625 21.53125 62.3125 
Q 17.390625 59.28125 14.984375 53.46875 
Q 12.59375 47.65625 12.5 36.921875 
Q 15.671875 41.75 20.265625 44.09375 
Q 24.859375 46.4375 29.890625 46.4375 
Q 38.671875 46.4375 44.84375 39.96875 
Q 51.03125 33.5 51.03125 23.25 
Q 51.03125 16.5 48.125 10.71875 
Q 45.21875 4.9375 40.140625 1.859375 
Q 35.0625 -1.21875 28.609375 -1.21875 
Q 17.625 -1.21875 10.6875 6.859375 
Q 3.765625 14.9375 3.765625 33.5 
Q 3.765625 54.25 11.421875 63.671875 
Q 18.109375 71.875 29.4375 71.875 
Q 37.890625 71.875 43.28125 67.140625 
Q 48.6875 62.40625 49.75 54.046875 
z
M 13.875 23.1875 
Q 13.875 18.65625 15.796875 14.5 
Q 17.71875 10.359375 21.1875 8.171875 
Q 24.65625 6 28.46875 6 
Q 34.03125 6 38.03125 10.484375 
Q 42.046875 14.984375 42.046875 22.703125 
Q 42.046875 30.125 38.078125 34.390625 
Q 34.125 38.671875 28.125 38.671875 
Q 22.171875 38.671875 18.015625 34.390625 
Q 13.875 30.125 13.875 23.1875 
z
" id="ArialMT-54"/>
      </defs>
      <g style="fill:#262626;" transform="translate(272.15749 289.657812)scale(0.1 -0.1)">
       <use xlink:href="#ArialMT-54"/>
       <use x="55.615234" xlink:href="#ArialMT-48"/>
       <use x="111.230469" xlink:href="#ArialMT-48"/>
      </g>
     </g>
    </g>
    <g id="xtick_4">
     <g id="line2d_7">
      <path clip-path="url(#pc3bd3d4f7c)" d="M 367.212183 279 
L 367.212183 7.2 
" style="fill:none;stroke:#cccccc;stroke-linecap:round;stroke-width:0.8;"/>
     </g>
     <g id="line2d_8"/>
     <g id="text_4">
      <!-- 800 -->
      <defs>
       <path d="M 17.671875 38.8125 
Q 12.203125 40.828125 9.5625 44.53125 
Q 6.9375 48.25 6.9375 53.421875 
Q 6.9375 61.234375 12.546875 66.546875 
Q 18.171875 71.875 27.484375 71.875 
Q 36.859375 71.875 42.578125 66.421875 
Q 48.296875 60.984375 48.296875 53.171875 
Q 48.296875 48.1875 45.671875 44.5 
Q 43.0625 40.828125 37.75 38.8125 
Q 44.34375 36.671875 47.78125 31.875 
Q 51.21875 27.09375 51.21875 20.453125 
Q 51.21875 11.28125 44.71875 5.03125 
Q 38.234375 -1.21875 27.640625 -1.21875 
Q 17.046875 -1.21875 10.546875 5.046875 
Q 4.046875 11.328125 4.046875 20.703125 
Q 4.046875 27.6875 7.59375 32.390625 
Q 11.140625 37.109375 17.671875 38.8125 
z
M 15.921875 53.71875 
Q 15.921875 48.640625 19.1875 45.40625 
Q 22.46875 42.1875 27.6875 42.1875 
Q 32.765625 42.1875 36.015625 45.375 
Q 39.265625 48.578125 39.265625 53.21875 
Q 39.265625 58.0625 35.90625 61.359375 
Q 32.5625 64.65625 27.59375 64.65625 
Q 22.5625 64.65625 19.234375 61.421875 
Q 15.921875 58.203125 15.921875 53.71875 
z
M 13.09375 20.65625 
Q 13.09375 16.890625 14.875 13.375 
Q 16.65625 9.859375 20.171875 7.921875 
Q 23.6875 6 27.734375 6 
Q 34.03125 6 38.125 10.046875 
Q 42.234375 14.109375 42.234375 20.359375 
Q 42.234375 26.703125 38.015625 30.859375 
Q 33.796875 35.015625 27.4375 35.015625 
Q 21.234375 35.015625 17.15625 30.90625 
Q 13.09375 26.8125 13.09375 20.65625 
z
" id="ArialMT-56"/>
      </defs>
      <g style="fill:#262626;" transform="translate(358.870777 289.657812)scale(0.1 -0.1)">
       <use xlink:href="#ArialMT-56"/>
       <use x="55.615234" xlink:href="#ArialMT-48"/>
       <use x="111.230469" xlink:href="#ArialMT-48"/>
      </g>
     </g>
    </g>
    <g id="xtick_5">
     <g id="line2d_9">
      <path clip-path="url(#pc3bd3d4f7c)" d="M 453.92547 279 
L 453.92547 7.2 
" style="fill:none;stroke:#cccccc;stroke-linecap:round;stroke-width:0.8;"/>
     </g>
     <g id="line2d_10"/>
     <g id="text_5">
      <!-- 1000 -->
      <defs>
       <path d="M 37.25 0 
L 28.46875 0 
L 28.46875 56 
Q 25.296875 52.984375 20.140625 49.953125 
Q 14.984375 46.921875 10.890625 45.40625 
L 10.890625 53.90625 
Q 18.265625 57.375 23.78125 62.296875 
Q 29.296875 67.234375 31.59375 71.875 
L 37.25 71.875 
z
" id="ArialMT-49"/>
      </defs>
      <g style="fill:#262626;" transform="translate(442.803595 289.657812)scale(0.1 -0.1)">
       <use xlink:href="#ArialMT-49"/>
       <use x="55.615234" xlink:href="#ArialMT-48"/>
       <use x="111.230469" xlink:href="#ArialMT-48"/>
       <use x="166.845703" xlink:href="#ArialMT-48"/>
      </g>
     </g>
    </g>
   </g>
   <g id="matplotlib.axis_2">
    <g id="ytick_1">
     <g id="line2d_11">
      <path clip-path="url(#pc3bd3d4f7c)" d="M 27.382812 279 
L 473.782812 279 
" style="fill:none;stroke:#cccccc;stroke-linecap:round;stroke-width:0.8;"/>
     </g>
     <g id="line2d_12"/>
     <g id="text_6">
      <!-- 0 -->
      <g style="fill:#262626;" transform="translate(18.321875 282.578906)scale(0.1 -0.1)">
       <use xlink:href="#ArialMT-48"/>
      </g>
     </g>
    </g>
    <g id="ytick_2">
     <g id="line2d_13">
      <path clip-path="url(#pc3bd3d4f7c)" d="M 27.382812 233.586466 
L 473.782812 233.586466 
" style="fill:none;stroke:#cccccc;stroke-linecap:round;stroke-width:0.8;"/>
     </g>
     <g id="line2d_14"/>
     <g id="text_7">
      <!-- 20 -->
      <g style="fill:#262626;" transform="translate(12.760937 237.165372)scale(0.1 -0.1)">
       <use xlink:href="#ArialMT-50"/>
       <use x="55.615234" xlink:href="#ArialMT-48"/>
      </g>
     </g>
    </g>
    <g id="ytick_3">
     <g id="line2d_15">
      <path clip-path="url(#pc3bd3d4f7c)" d="M 27.382812 188.172932 
L 473.782812 188.172932 
" style="fill:none;stroke:#cccccc;stroke-linecap:round;stroke-width:0.8;"/>
     </g>
     <g id="line2d_16"/>
     <g id="text_8">
      <!-- 40 -->
      <g style="fill:#262626;" transform="translate(12.760937 191.751839)scale(0.1 -0.1)">
       <use xlink:href="#ArialMT-52"/>
       <use x="55.615234" xlink:href="#ArialMT-48"/>
      </g>
     </g>
    </g>
    <g id="ytick_4">
     <g id="line2d_17">
      <path clip-path="url(#pc3bd3d4f7c)" d="M 27.382812 142.759398 
L 473.782812 142.759398 
" style="fill:none;stroke:#cccccc;stroke-linecap:round;stroke-width:0.8;"/>
     </g>
     <g id="line2d_18"/>
     <g id="text_9">
      <!-- 60 -->
      <g style="fill:#262626;" transform="translate(12.760937 146.338305)scale(0.1 -0.1)">
       <use xlink:href="#ArialMT-54"/>
       <use x="55.615234" xlink:href="#ArialMT-48"/>
      </g>
     </g>
    </g>
    <g id="ytick_5">
     <g id="line2d_19">
      <path clip-path="url(#pc3bd3d4f7c)" d="M 27.382812 97.345865 
L 473.782812 97.345865 
" style="fill:none;stroke:#cccccc;stroke-linecap:round;stroke-width:0.8;"/>
     </g>
     <g id="line2d_20"/>
     <g id="text_10">
      <!-- 80 -->
      <g style="fill:#262626;" transform="translate(12.760937 100.924771)scale(0.1 -0.1)">
       <use xlink:href="#ArialMT-56"/>
       <use x="55.615234" xlink:href="#ArialMT-48"/>
      </g>
     </g>
    </g>
    <g id="ytick_6">
     <g id="line2d_21">
      <path clip-path="url(#pc3bd3d4f7c)" d="M 27.382812 51.932331 
L 473.782812 51.932331 
" style="fill:none;stroke:#cccccc;stroke-linecap:round;stroke-width:0.8;"/>
     </g>
     <g id="line2d_22"/>
     <g id="text_11">
      <!-- 100 -->
      <g style="fill:#262626;" transform="translate(7.2 55.511237)scale(0.1 -0.1)">
       <use xlink:href="#ArialMT-49"/>
       <use x="55.615234" xlink:href="#ArialMT-48"/>
       <use x="111.230469" xlink:href="#ArialMT-48"/>
      </g>
     </g>
    </g>
   </g>
   <g id="patch_3">
    <path clip-path="url(#pc3bd3d4f7c)" d="M 47.673722 279 
L 55.790085 279 
L 55.790085 260.834586 
L 47.673722 260.834586 
z
" style="fill:#8dd3c7;"/>
   </g>
   <g id="patch_4">
    <path clip-path="url(#pc3bd3d4f7c)" d="M 55.790085 279 
L 63.906449 279 
L 63.906449 240.398496 
L 55.790085 240.398496 
z
" style="fill:#8dd3c7;"/>
   </g>
   <g id="patch_5">
    <path clip-path="url(#pc3bd3d4f7c)" d="M 63.906449 279 
L 72.022813 279 
L 72.022813 190.443609 
L 63.906449 190.443609 
z
" style="fill:#8dd3c7;"/>
   </g>
   <g id="patch_6">
    <path clip-path="url(#pc3bd3d4f7c)" d="M 72.022812 279 
L 80.139176 279 
L 80.139176 160.924812 
L 72.022812 160.924812 
z
" style="fill:#8dd3c7;"/>
   </g>
   <g id="patch_7">
    <path clip-path="url(#pc3bd3d4f7c)" d="M 80.139176 279 
L 88.25554 279 
L 88.25554 145.030075 
L 80.139176 145.030075 
z
" style="fill:#8dd3c7;"/>
   </g>
   <g id="patch_8">
    <path clip-path="url(#pc3bd3d4f7c)" d="M 88.25554 279 
L 96.371903 279 
L 96.371903 120.052632 
L 88.25554 120.052632 
z
" style="fill:#8dd3c7;"/>
   </g>
   <g id="patch_9">
    <path clip-path="url(#pc3bd3d4f7c)" d="M 96.371903 279 
L 104.488267 279 
L 104.488267 110.969925 
L 96.371903 110.969925 
z
" style="fill:#8dd3c7;"/>
   </g>
   <g id="patch_10">
    <path clip-path="url(#pc3bd3d4f7c)" d="M 104.488267 279 
L 112.604631 279 
L 112.604631 110.969925 
L 104.488267 110.969925 
z
" style="fill:#8dd3c7;"/>
   </g>
   <g id="patch_11">
    <path clip-path="url(#pc3bd3d4f7c)" d="M 112.604631 279 
L 120.720994 279 
L 120.720994 85.992481 
L 112.604631 85.992481 
z
" style="fill:#8dd3c7;"/>
   </g>
   <g id="patch_12">
    <path clip-path="url(#pc3bd3d4f7c)" d="M 120.720994 279 
L 128.837358 279 
L 128.837358 40.578947 
L 120.720994 40.578947 
z
" style="fill:#8dd3c7;"/>
   </g>
   <g id="patch_13">
    <path clip-path="url(#pc3bd3d4f7c)" d="M 128.837358 279 
L 136.953722 279 
L 136.953722 70.097744 
L 128.837358 70.097744 
z
" style="fill:#8dd3c7;"/>
   </g>
   <g id="patch_14">
    <path clip-path="url(#pc3bd3d4f7c)" d="M 136.953722 279 
L 145.070085 279 
L 145.070085 51.932331 
L 136.953722 51.932331 
z
" style="fill:#8dd3c7;"/>
   </g>
   <g id="patch_15">
    <path clip-path="url(#pc3bd3d4f7c)" d="M 145.070085 279 
L 153.186449 279 
L 153.186449 58.744361 
L 145.070085 58.744361 
z
" style="fill:#8dd3c7;"/>
   </g>
   <g id="patch_16">
    <path clip-path="url(#pc3bd3d4f7c)" d="M 153.186449 279 
L 161.302812 279 
L 161.302812 88.263158 
L 153.186449 88.263158 
z
" style="fill:#8dd3c7;"/>
   </g>
   <g id="patch_17">
    <path clip-path="url(#pc3bd3d4f7c)" d="M 161.302812 279 
L 169.419176 279 
L 169.419176 115.511278 
L 161.302812 115.511278 
z
" style="fill:#8dd3c7;"/>
   </g>
   <g id="patch_18">
    <path clip-path="url(#pc3bd3d4f7c)" d="M 169.419176 279 
L 177.53554 279 
L 177.53554 126.864662 
L 169.419176 126.864662 
z
" style="fill:#8dd3c7;"/>
   </g>
   <g id="patch_19">
    <path clip-path="url(#pc3bd3d4f7c)" d="M 177.53554 279 
L 185.651903 279 
L 185.651903 20.142857 
L 177.53554 20.142857 
z
" style="fill:#8dd3c7;"/>
   </g>
   <g id="patch_20">
    <path clip-path="url(#pc3bd3d4f7c)" d="M 185.651903 279 
L 193.768267 279 
L 193.768267 95.075188 
L 185.651903 95.075188 
z
" style="fill:#8dd3c7;"/>
   </g>
   <g id="patch_21">
    <path clip-path="url(#pc3bd3d4f7c)" d="M 193.768267 279 
L 201.884631 279 
L 201.884631 79.180451 
L 193.768267 79.180451 
z
" style="fill:#8dd3c7;"/>
   </g>
   <g id="patch_22">
    <path clip-path="url(#pc3bd3d4f7c)" d="M 201.884631 279 
L 210.000994 279 
L 210.000994 26.954887 
L 201.884631 26.954887 
z
" style="fill:#8dd3c7;"/>
   </g>
   <g id="patch_23">
    <path clip-path="url(#pc3bd3d4f7c)" d="M 210.000994 279 
L 218.117358 279 
L 218.117358 83.721805 
L 210.000994 83.721805 
z
" style="fill:#8dd3c7;"/>
   </g>
   <g id="patch_24">
    <path clip-path="url(#pc3bd3d4f7c)" d="M 218.117358 279 
L 226.233722 279 
L 226.233722 79.180451 
L 218.117358 79.180451 
z
" style="fill:#8dd3c7;"/>
   </g>
   <g id="patch_25">
    <path clip-path="url(#pc3bd3d4f7c)" d="M 226.233722 279 
L 234.350085 279 
L 234.350085 47.390977 
L 226.233722 47.390977 
z
" style="fill:#8dd3c7;"/>
   </g>
   <g id="patch_26">
    <path clip-path="url(#pc3bd3d4f7c)" d="M 234.350085 279 
L 242.466449 279 
L 242.466449 104.157895 
L 234.350085 104.157895 
z
" style="fill:#8dd3c7;"/>
   </g>
   <g id="patch_27">
    <path clip-path="url(#pc3bd3d4f7c)" d="M 242.466449 279 
L 250.582813 279 
L 250.582813 110.969925 
L 242.466449 110.969925 
z
" style="fill:#8dd3c7;"/>
   </g>
   <g id="patch_28">
    <path clip-path="url(#pc3bd3d4f7c)" d="M 250.582813 279 
L 258.699176 279 
L 258.699176 56.473684 
L 250.582813 56.473684 
z
" style="fill:#8dd3c7;"/>
   </g>
   <g id="patch_29">
    <path clip-path="url(#pc3bd3d4f7c)" d="M 258.699176 279 
L 266.81554 279 
L 266.81554 122.323308 
L 258.699176 122.323308 
z
" style="fill:#8dd3c7;"/>
   </g>
   <g id="patch_30">
    <path clip-path="url(#pc3bd3d4f7c)" d="M 266.81554 279 
L 274.931903 279 
L 274.931903 110.969925 
L 266.81554 110.969925 
z
" style="fill:#8dd3c7;"/>
   </g>
   <g id="patch_31">
    <path clip-path="url(#pc3bd3d4f7c)" d="M 274.931903 279 
L 283.048267 279 
L 283.048267 133.676692 
L 274.931903 133.676692 
z
" style="fill:#8dd3c7;"/>
   </g>
   <g id="patch_32">
    <path clip-path="url(#pc3bd3d4f7c)" d="M 283.048267 279 
L 291.164631 279 
L 291.164631 142.759398 
L 283.048267 142.759398 
z
" style="fill:#8dd3c7;"/>
   </g>
   <g id="patch_33">
    <path clip-path="url(#pc3bd3d4f7c)" d="M 291.164631 279 
L 299.280994 279 
L 299.280994 79.180451 
L 291.164631 79.180451 
z
" style="fill:#8dd3c7;"/>
   </g>
   <g id="patch_34">
    <path clip-path="url(#pc3bd3d4f7c)" d="M 299.280994 279 
L 307.397358 279 
L 307.397358 154.112782 
L 299.280994 154.112782 
z
" style="fill:#8dd3c7;"/>
   </g>
   <g id="patch_35">
    <path clip-path="url(#pc3bd3d4f7c)" d="M 307.397358 279 
L 315.513722 279 
L 315.513722 145.030075 
L 307.397358 145.030075 
z
" style="fill:#8dd3c7;"/>
   </g>
   <g id="patch_36">
    <path clip-path="url(#pc3bd3d4f7c)" d="M 315.513722 279 
L 323.630085 279 
L 323.630085 147.300752 
L 315.513722 147.300752 
z
" style="fill:#8dd3c7;"/>
   </g>
   <g id="patch_37">
    <path clip-path="url(#pc3bd3d4f7c)" d="M 323.630085 279 
L 331.746449 279 
L 331.746449 115.511278 
L 323.630085 115.511278 
z
" style="fill:#8dd3c7;"/>
   </g>
   <g id="patch_38">
    <path clip-path="url(#pc3bd3d4f7c)" d="M 331.746449 279 
L 339.862813 279 
L 339.862813 149.571429 
L 331.746449 149.571429 
z
" style="fill:#8dd3c7;"/>
   </g>
   <g id="patch_39">
    <path clip-path="url(#pc3bd3d4f7c)" d="M 339.862813 279 
L 347.979176 279 
L 347.979176 122.323308 
L 339.862813 122.323308 
z
" style="fill:#8dd3c7;"/>
   </g>
   <g id="patch_40">
    <path clip-path="url(#pc3bd3d4f7c)" d="M 347.979176 279 
L 356.09554 279 
L 356.09554 156.383459 
L 347.979176 156.383459 
z
" style="fill:#8dd3c7;"/>
   </g>
   <g id="patch_41">
    <path clip-path="url(#pc3bd3d4f7c)" d="M 356.09554 279 
L 364.211903 279 
L 364.211903 138.218045 
L 356.09554 138.218045 
z
" style="fill:#8dd3c7;"/>
   </g>
   <g id="patch_42">
    <path clip-path="url(#pc3bd3d4f7c)" d="M 364.211903 279 
L 372.328267 279 
L 372.328267 133.676692 
L 364.211903 133.676692 
z
" style="fill:#8dd3c7;"/>
   </g>
   <g id="patch_43">
    <path clip-path="url(#pc3bd3d4f7c)" d="M 372.328267 279 
L 380.444631 279 
L 380.444631 170.007519 
L 372.328267 170.007519 
z
" style="fill:#8dd3c7;"/>
   </g>
   <g id="patch_44">
    <path clip-path="url(#pc3bd3d4f7c)" d="M 380.444631 279 
L 388.560994 279 
L 388.560994 142.759398 
L 380.444631 142.759398 
z
" style="fill:#8dd3c7;"/>
   </g>
   <g id="patch_45">
    <path clip-path="url(#pc3bd3d4f7c)" d="M 388.560994 279 
L 396.677358 279 
L 396.677358 165.466165 
L 388.560994 165.466165 
z
" style="fill:#8dd3c7;"/>
   </g>
   <g id="patch_46">
    <path clip-path="url(#pc3bd3d4f7c)" d="M 396.677358 279 
L 404.793722 279 
L 404.793722 160.924812 
L 396.677358 160.924812 
z
" style="fill:#8dd3c7;"/>
   </g>
   <g id="patch_47">
    <path clip-path="url(#pc3bd3d4f7c)" d="M 404.793722 279 
L 412.910085 279 
L 412.910085 165.466165 
L 404.793722 165.466165 
z
" style="fill:#8dd3c7;"/>
   </g>
   <g id="patch_48">
    <path clip-path="url(#pc3bd3d4f7c)" d="M 412.910085 279 
L 421.026449 279 
L 421.026449 172.278195 
L 412.910085 172.278195 
z
" style="fill:#8dd3c7;"/>
   </g>
   <g id="patch_49">
    <path clip-path="url(#pc3bd3d4f7c)" d="M 421.026449 279 
L 429.142812 279 
L 429.142812 188.172932 
L 421.026449 188.172932 
z
" style="fill:#8dd3c7;"/>
   </g>
   <g id="patch_50">
    <path clip-path="url(#pc3bd3d4f7c)" d="M 429.142812 279 
L 437.259176 279 
L 437.259176 142.759398 
L 429.142812 142.759398 
z
" style="fill:#8dd3c7;"/>
   </g>
   <g id="patch_51">
    <path clip-path="url(#pc3bd3d4f7c)" d="M 437.259176 279 
L 445.37554 279 
L 445.37554 204.067669 
L 437.259176 204.067669 
z
" style="fill:#8dd3c7;"/>
   </g>
   <g id="patch_52">
    <path clip-path="url(#pc3bd3d4f7c)" d="M 445.37554 279 
L 453.491903 279 
L 453.491903 165.466165 
L 445.37554 165.466165 
z
" style="fill:#8dd3c7;"/>
   </g>
   <g id="patch_53">
    <path d="M 27.382812 279 
L 27.382812 7.2 
" style="fill:none;stroke:#cccccc;stroke-linecap:square;stroke-linejoin:miter;"/>
   </g>
   <g id="patch_54">
    <path d="M 473.782812 279 
L 473.782812 7.2 
" style="fill:none;stroke:#cccccc;stroke-linecap:square;stroke-linejoin:miter;"/>
   </g>
   <g id="patch_55">
    <path d="M 27.382812 279 
L 473.782813 279 
" style="fill:none;stroke:#cccccc;stroke-linecap:square;stroke-linejoin:miter;"/>
   </g>
   <g id="patch_56">
    <path d="M 27.382812 7.2 
L 473.782813 7.2 
" style="fill:none;stroke:#cccccc;stroke-linecap:square;stroke-linejoin:miter;"/>
   </g>
  </g>
 </g>
 <defs>
  <clipPath id="pc3bd3d4f7c">
   <rect height="271.8" width="446.4" x="27.382812" y="7.2"/>
  </clipPath>
 </defs>
</svg>
