<?xml version="1.0" encoding="utf-8" standalone="no"?>
<!DOCTYPE svg PUBLIC "-//W3C//DTD SVG 1.1//EN"
  "http://www.w3.org/Graphics/SVG/1.1/DTD/svg11.dtd">
<!-- Created with matplotlib (https://matplotlib.org/) -->
<svg height="248.518125pt" version="1.1" viewBox="0 0 377.304688 248.518125" width="377.304688pt" xmlns="http://www.w3.org/2000/svg" xmlns:xlink="http://www.w3.org/1999/xlink">
 <defs>
  <style type="text/css">
*{stroke-linecap:butt;stroke-linejoin:round;}
  </style>
 </defs>
 <g id="figure_1">
  <g id="patch_1">
   <path d="M 0 248.518125 
L 377.304688 248.518125 
L 377.304688 0 
L 0 0 
z
" style="fill:none;"/>
  </g>
  <g id="axes_1">
   <g id="patch_2">
    <path d="M 35.304688 224.64 
L 370.104688 224.64 
L 370.104688 7.2 
L 35.304688 7.2 
z
"/>
   </g>
   <g id="matplotlib.axis_1">
    <g id="xtick_1">
     <g id="line2d_1">
      <defs>
       <path d="M 0 0 
L 0 3.5 
" id="md6fd2a574f" style="stroke:#ffffff;stroke-width:0.8;"/>
      </defs>
      <g>
       <use style="fill:#ffffff;stroke:#ffffff;stroke-width:0.8;" x="50.522869" xlink:href="#md6fd2a574f" y="224.64"/>
      </g>
     </g>
     <g id="text_1">
      <!-- 0 -->
      <defs>
       <path d="M 31.78125 66.40625 
Q 24.171875 66.40625 20.328125 58.90625 
Q 16.5 51.421875 16.5 36.375 
Q 16.5 21.390625 20.328125 13.890625 
Q 24.171875 6.390625 31.78125 6.390625 
Q 39.453125 6.390625 43.28125 13.890625 
Q 47.125 21.390625 47.125 36.375 
Q 47.125 51.421875 43.28125 58.90625 
Q 39.453125 66.40625 31.78125 66.40625 
z
M 31.78125 74.21875 
Q 44.046875 74.21875 50.515625 64.515625 
Q 56.984375 54.828125 56.984375 36.375 
Q 56.984375 17.96875 50.515625 8.265625 
Q 44.046875 -1.421875 31.78125 -1.421875 
Q 19.53125 -1.421875 13.0625 8.265625 
Q 6.59375 17.96875 6.59375 36.375 
Q 6.59375 54.828125 13.0625 64.515625 
Q 19.53125 74.21875 31.78125 74.21875 
z
" id="DejaVuSans-48"/>
      </defs>
      <g style="fill:#ffffff;" transform="translate(47.341619 239.238437)scale(0.1 -0.1)">
       <use xlink:href="#DejaVuSans-48"/>
      </g>
     </g>
    </g>
    <g id="xtick_2">
     <g id="line2d_2">
      <g>
       <use style="fill:#ffffff;stroke:#ffffff;stroke-width:0.8;" x="111.395597" xlink:href="#md6fd2a574f" y="224.64"/>
      </g>
     </g>
     <g id="text_2">
      <!-- 200 -->
      <defs>
       <path d="M 19.1875 8.296875 
L 53.609375 8.296875 
L 53.609375 0 
L 7.328125 0 
L 7.328125 8.296875 
Q 12.9375 14.109375 22.625 23.890625 
Q 32.328125 33.6875 34.8125 36.53125 
Q 39.546875 41.84375 41.421875 45.53125 
Q 43.3125 49.21875 43.3125 52.78125 
Q 43.3125 58.59375 39.234375 62.25 
Q 35.15625 65.921875 28.609375 65.921875 
Q 23.96875 65.921875 18.8125 64.3125 
Q 13.671875 62.703125 7.8125 59.421875 
L 7.8125 69.390625 
Q 13.765625 71.78125 18.9375 73 
Q 24.125 74.21875 28.421875 74.21875 
Q 39.75 74.21875 46.484375 68.546875 
Q 53.21875 62.890625 53.21875 53.421875 
Q 53.21875 48.921875 51.53125 44.890625 
Q 49.859375 40.875 45.40625 35.40625 
Q 44.1875 33.984375 37.640625 27.21875 
Q 31.109375 20.453125 19.1875 8.296875 
z
" id="DejaVuSans-50"/>
      </defs>
      <g style="fill:#ffffff;" transform="translate(101.851847 239.238437)scale(0.1 -0.1)">
       <use xlink:href="#DejaVuSans-50"/>
       <use x="63.623047" xlink:href="#DejaVuSans-48"/>
       <use x="127.246094" xlink:href="#DejaVuSans-48"/>
      </g>
     </g>
    </g>
    <g id="xtick_3">
     <g id="line2d_3">
      <g>
       <use style="fill:#ffffff;stroke:#ffffff;stroke-width:0.8;" x="172.268324" xlink:href="#md6fd2a574f" y="224.64"/>
      </g>
     </g>
     <g id="text_3">
      <!-- 400 -->
      <defs>
       <path d="M 37.796875 64.3125 
L 12.890625 25.390625 
L 37.796875 25.390625 
z
M 35.203125 72.90625 
L 47.609375 72.90625 
L 47.609375 25.390625 
L 58.015625 25.390625 
L 58.015625 17.1875 
L 47.609375 17.1875 
L 47.609375 0 
L 37.796875 0 
L 37.796875 17.1875 
L 4.890625 17.1875 
L 4.890625 26.703125 
z
" id="DejaVuSans-52"/>
      </defs>
      <g style="fill:#ffffff;" transform="translate(162.724574 239.238437)scale(0.1 -0.1)">
       <use xlink:href="#DejaVuSans-52"/>
       <use x="63.623047" xlink:href="#DejaVuSans-48"/>
       <use x="127.246094" xlink:href="#DejaVuSans-48"/>
      </g>
     </g>
    </g>
    <g id="xtick_4">
     <g id="line2d_4">
      <g>
       <use style="fill:#ffffff;stroke:#ffffff;stroke-width:0.8;" x="233.141051" xlink:href="#md6fd2a574f" y="224.64"/>
      </g>
     </g>
     <g id="text_4">
      <!-- 600 -->
      <defs>
       <path d="M 33.015625 40.375 
Q 26.375 40.375 22.484375 35.828125 
Q 18.609375 31.296875 18.609375 23.390625 
Q 18.609375 15.53125 22.484375 10.953125 
Q 26.375 6.390625 33.015625 6.390625 
Q 39.65625 6.390625 43.53125 10.953125 
Q 47.40625 15.53125 47.40625 23.390625 
Q 47.40625 31.296875 43.53125 35.828125 
Q 39.65625 40.375 33.015625 40.375 
z
M 52.59375 71.296875 
L 52.59375 62.3125 
Q 48.875 64.0625 45.09375 64.984375 
Q 41.3125 65.921875 37.59375 65.921875 
Q 27.828125 65.921875 22.671875 59.328125 
Q 17.53125 52.734375 16.796875 39.40625 
Q 19.671875 43.65625 24.015625 45.921875 
Q 28.375 48.1875 33.59375 48.1875 
Q 44.578125 48.1875 50.953125 41.515625 
Q 57.328125 34.859375 57.328125 23.390625 
Q 57.328125 12.15625 50.6875 5.359375 
Q 44.046875 -1.421875 33.015625 -1.421875 
Q 20.359375 -1.421875 13.671875 8.265625 
Q 6.984375 17.96875 6.984375 36.375 
Q 6.984375 53.65625 15.1875 63.9375 
Q 23.390625 74.21875 37.203125 74.21875 
Q 40.921875 74.21875 44.703125 73.484375 
Q 48.484375 72.75 52.59375 71.296875 
z
" id="DejaVuSans-54"/>
      </defs>
      <g style="fill:#ffffff;" transform="translate(223.597301 239.238437)scale(0.1 -0.1)">
       <use xlink:href="#DejaVuSans-54"/>
       <use x="63.623047" xlink:href="#DejaVuSans-48"/>
       <use x="127.246094" xlink:href="#DejaVuSans-48"/>
      </g>
     </g>
    </g>
    <g id="xtick_5">
     <g id="line2d_5">
      <g>
       <use style="fill:#ffffff;stroke:#ffffff;stroke-width:0.8;" x="294.013778" xlink:href="#md6fd2a574f" y="224.64"/>
      </g>
     </g>
     <g id="text_5">
      <!-- 800 -->
      <defs>
       <path d="M 31.78125 34.625 
Q 24.75 34.625 20.71875 30.859375 
Q 16.703125 27.09375 16.703125 20.515625 
Q 16.703125 13.921875 20.71875 10.15625 
Q 24.75 6.390625 31.78125 6.390625 
Q 38.8125 6.390625 42.859375 10.171875 
Q 46.921875 13.96875 46.921875 20.515625 
Q 46.921875 27.09375 42.890625 30.859375 
Q 38.875 34.625 31.78125 34.625 
z
M 21.921875 38.8125 
Q 15.578125 40.375 12.03125 44.71875 
Q 8.5 49.078125 8.5 55.328125 
Q 8.5 64.0625 14.71875 69.140625 
Q 20.953125 74.21875 31.78125 74.21875 
Q 42.671875 74.21875 48.875 69.140625 
Q 55.078125 64.0625 55.078125 55.328125 
Q 55.078125 49.078125 51.53125 44.71875 
Q 48 40.375 41.703125 38.8125 
Q 48.828125 37.15625 52.796875 32.3125 
Q 56.78125 27.484375 56.78125 20.515625 
Q 56.78125 9.90625 50.3125 4.234375 
Q 43.84375 -1.421875 31.78125 -1.421875 
Q 19.734375 -1.421875 13.25 4.234375 
Q 6.78125 9.90625 6.78125 20.515625 
Q 6.78125 27.484375 10.78125 32.3125 
Q 14.796875 37.15625 21.921875 38.8125 
z
M 18.3125 54.390625 
Q 18.3125 48.734375 21.84375 45.5625 
Q 25.390625 42.390625 31.78125 42.390625 
Q 38.140625 42.390625 41.71875 45.5625 
Q 45.3125 48.734375 45.3125 54.390625 
Q 45.3125 60.0625 41.71875 63.234375 
Q 38.140625 66.40625 31.78125 66.40625 
Q 25.390625 66.40625 21.84375 63.234375 
Q 18.3125 60.0625 18.3125 54.390625 
z
" id="DejaVuSans-56"/>
      </defs>
      <g style="fill:#ffffff;" transform="translate(284.470028 239.238437)scale(0.1 -0.1)">
       <use xlink:href="#DejaVuSans-56"/>
       <use x="63.623047" xlink:href="#DejaVuSans-48"/>
       <use x="127.246094" xlink:href="#DejaVuSans-48"/>
      </g>
     </g>
    </g>
    <g id="xtick_6">
     <g id="line2d_6">
      <g>
       <use style="fill:#ffffff;stroke:#ffffff;stroke-width:0.8;" x="354.886506" xlink:href="#md6fd2a574f" y="224.64"/>
      </g>
     </g>
     <g id="text_6">
      <!-- 1000 -->
      <defs>
       <path d="M 12.40625 8.296875 
L 28.515625 8.296875 
L 28.515625 63.921875 
L 10.984375 60.40625 
L 10.984375 69.390625 
L 28.421875 72.90625 
L 38.28125 72.90625 
L 38.28125 8.296875 
L 54.390625 8.296875 
L 54.390625 0 
L 12.40625 0 
z
" id="DejaVuSans-49"/>
      </defs>
      <g style="fill:#ffffff;" transform="translate(342.161506 239.238437)scale(0.1 -0.1)">
       <use xlink:href="#DejaVuSans-49"/>
       <use x="63.623047" xlink:href="#DejaVuSans-48"/>
       <use x="127.246094" xlink:href="#DejaVuSans-48"/>
       <use x="190.869141" xlink:href="#DejaVuSans-48"/>
      </g>
     </g>
    </g>
   </g>
   <g id="matplotlib.axis_2">
    <g id="ytick_1">
     <g id="line2d_7">
      <defs>
       <path d="M 0 0 
L -3.5 0 
" id="mf5a410329c" style="stroke:#ffffff;stroke-width:0.8;"/>
      </defs>
      <g>
       <use style="fill:#ffffff;stroke:#ffffff;stroke-width:0.8;" x="35.304688" xlink:href="#mf5a410329c" y="198.283636"/>
      </g>
     </g>
     <g id="text_7">
      <!-- −40 -->
      <defs>
       <path d="M 10.59375 35.5 
L 73.1875 35.5 
L 73.1875 27.203125 
L 10.59375 27.203125 
z
" id="DejaVuSans-8722"/>
      </defs>
      <g style="fill:#ffffff;" transform="translate(7.2 202.082855)scale(0.1 -0.1)">
       <use xlink:href="#DejaVuSans-8722"/>
       <use x="83.789062" xlink:href="#DejaVuSans-52"/>
       <use x="147.412109" xlink:href="#DejaVuSans-48"/>
      </g>
     </g>
    </g>
    <g id="ytick_2">
     <g id="line2d_8">
      <g>
       <use style="fill:#ffffff;stroke:#ffffff;stroke-width:0.8;" x="35.304688" xlink:href="#mf5a410329c" y="157.101818"/>
      </g>
     </g>
     <g id="text_8">
      <!-- −30 -->
      <defs>
       <path d="M 40.578125 39.3125 
Q 47.65625 37.796875 51.625 33 
Q 55.609375 28.21875 55.609375 21.1875 
Q 55.609375 10.40625 48.1875 4.484375 
Q 40.765625 -1.421875 27.09375 -1.421875 
Q 22.515625 -1.421875 17.65625 -0.515625 
Q 12.796875 0.390625 7.625 2.203125 
L 7.625 11.71875 
Q 11.71875 9.328125 16.59375 8.109375 
Q 21.484375 6.890625 26.8125 6.890625 
Q 36.078125 6.890625 40.9375 10.546875 
Q 45.796875 14.203125 45.796875 21.1875 
Q 45.796875 27.640625 41.28125 31.265625 
Q 36.765625 34.90625 28.71875 34.90625 
L 20.21875 34.90625 
L 20.21875 43.015625 
L 29.109375 43.015625 
Q 36.375 43.015625 40.234375 45.921875 
Q 44.09375 48.828125 44.09375 54.296875 
Q 44.09375 59.90625 40.109375 62.90625 
Q 36.140625 65.921875 28.71875 65.921875 
Q 24.65625 65.921875 20.015625 65.03125 
Q 15.375 64.15625 9.8125 62.3125 
L 9.8125 71.09375 
Q 15.4375 72.65625 20.34375 73.4375 
Q 25.25 74.21875 29.59375 74.21875 
Q 40.828125 74.21875 47.359375 69.109375 
Q 53.90625 64.015625 53.90625 55.328125 
Q 53.90625 49.265625 50.4375 45.09375 
Q 46.96875 40.921875 40.578125 39.3125 
z
" id="DejaVuSans-51"/>
      </defs>
      <g style="fill:#ffffff;" transform="translate(7.2 160.901037)scale(0.1 -0.1)">
       <use xlink:href="#DejaVuSans-8722"/>
       <use x="83.789062" xlink:href="#DejaVuSans-51"/>
       <use x="147.412109" xlink:href="#DejaVuSans-48"/>
      </g>
     </g>
    </g>
    <g id="ytick_3">
     <g id="line2d_9">
      <g>
       <use style="fill:#ffffff;stroke:#ffffff;stroke-width:0.8;" x="35.304688" xlink:href="#mf5a410329c" y="115.92"/>
      </g>
     </g>
     <g id="text_9">
      <!-- −20 -->
      <g style="fill:#ffffff;" transform="translate(7.2 119.719219)scale(0.1 -0.1)">
       <use xlink:href="#DejaVuSans-8722"/>
       <use x="83.789062" xlink:href="#DejaVuSans-50"/>
       <use x="147.412109" xlink:href="#DejaVuSans-48"/>
      </g>
     </g>
    </g>
    <g id="ytick_4">
     <g id="line2d_10">
      <g>
       <use style="fill:#ffffff;stroke:#ffffff;stroke-width:0.8;" x="35.304688" xlink:href="#mf5a410329c" y="74.738182"/>
      </g>
     </g>
     <g id="text_10">
      <!-- −10 -->
      <g style="fill:#ffffff;" transform="translate(7.2 78.537401)scale(0.1 -0.1)">
       <use xlink:href="#DejaVuSans-8722"/>
       <use x="83.789062" xlink:href="#DejaVuSans-49"/>
       <use x="147.412109" xlink:href="#DejaVuSans-48"/>
      </g>
     </g>
    </g>
    <g id="ytick_5">
     <g id="line2d_11">
      <g>
       <use style="fill:#ffffff;stroke:#ffffff;stroke-width:0.8;" x="35.304688" xlink:href="#mf5a410329c" y="33.556364"/>
      </g>
     </g>
     <g id="text_11">
      <!-- 0 -->
      <g style="fill:#ffffff;" transform="translate(21.942188 37.355582)scale(0.1 -0.1)">
       <use xlink:href="#DejaVuSans-48"/>
      </g>
     </g>
    </g>
   </g>
   <g id="line2d_12">
    <path clip-path="url(#pfb91119b17)" d="M 50.522869 33.556364 
L 51.740324 17.083636 
L 52.653415 29.438182 
L 52.957778 25.32 
L 54.175233 41.792727 
L 54.479597 37.674545 
L 55.088324 45.910909 
L 55.697051 37.674545 
L 56.610142 50.029091 
L 56.914506 45.910909 
L 57.218869 50.029091 
L 57.523233 45.910909 
L 58.13196 54.147273 
L 59.349415 37.674545 
L 59.958142 45.910909 
L 60.262506 41.792727 
L 60.871233 50.029091 
L 61.175597 45.910909 
L 61.47996 50.029091 
L 63.306142 25.32 
L 63.610506 29.438182 
L 63.914869 25.32 
L 64.219233 29.438182 
L 64.523597 25.32 
L 64.82796 29.438182 
L 65.132324 25.32 
L 65.741051 33.556364 
L 66.045415 29.438182 
L 66.349778 33.556364 
L 66.958506 25.32 
L 67.567233 33.556364 
L 67.871597 29.438182 
L 68.17596 33.556364 
L 68.480324 29.438182 
L 69.089051 37.674545 
L 69.393415 33.556364 
L 69.697778 37.674545 
L 70.002142 33.556364 
L 72.437051 66.501818 
L 73.045778 58.265455 
L 73.654506 66.501818 
L 73.958869 62.383636 
L 74.567597 70.62 
L 76.698142 41.792727 
L 77.002506 45.910909 
L 77.611233 37.674545 
L 78.21996 45.910909 
L 79.133051 33.556364 
L 80.959233 58.265455 
L 81.263597 54.147273 
L 81.56796 58.265455 
L 81.872324 54.147273 
L 82.176688 58.265455 
L 82.481051 54.147273 
L 83.698506 70.62 
L 84.307233 62.383636 
L 84.91596 70.62 
L 85.220324 66.501818 
L 87.350869 95.329091 
L 87.959597 87.092727 
L 89.481415 107.683636 
L 89.785778 103.565455 
L 90.698869 115.92 
L 91.307597 107.683636 
L 91.916324 115.92 
L 92.525051 107.683636 
L 93.438142 120.038182 
L 94.046869 111.801818 
L 94.95996 124.156364 
L 95.264324 120.038182 
L 95.568688 124.156364 
L 96.177415 115.92 
L 96.481778 120.038182 
L 97.394869 107.683636 
L 97.699233 111.801818 
L 98.003597 107.683636 
L 98.30796 111.801818 
L 100.438506 82.974545 
L 101.047233 91.210909 
L 101.65596 82.974545 
L 101.960324 87.092727 
L 102.264688 82.974545 
L 103.786506 103.565455 
L 104.090869 99.447273 
L 105.308324 115.92 
L 105.917051 107.683636 
L 106.221415 111.801818 
L 106.525778 107.683636 
L 106.830142 111.801818 
L 107.134506 107.683636 
L 107.743233 115.92 
L 108.047597 111.801818 
L 108.656324 120.038182 
L 108.960688 115.92 
L 110.178142 132.392727 
L 110.482506 128.274545 
L 110.786869 132.392727 
L 111.091233 128.274545 
L 111.395597 132.392727 
L 111.69996 128.274545 
L 112.308688 136.510909 
L 113.221778 124.156364 
L 113.830506 132.392727 
L 114.134869 128.274545 
L 114.743597 136.510909 
L 115.352324 128.274545 
L 115.656688 132.392727 
L 116.265415 124.156364 
L 116.569778 128.274545 
L 116.874142 124.156364 
L 117.482869 132.392727 
L 117.787233 128.274545 
L 118.39596 136.510909 
L 118.700324 132.392727 
L 119.309051 140.629091 
L 119.613415 136.510909 
L 120.830869 152.983636 
L 122.961415 124.156364 
L 124.178869 140.629091 
L 125.396324 124.156364 
L 126.005051 132.392727 
L 126.309415 128.274545 
L 126.918142 136.510909 
L 127.222506 132.392727 
L 128.744324 152.983636 
L 129.353051 144.747273 
L 129.657415 148.865455 
L 130.266142 140.629091 
L 131.179233 152.983636 
L 131.78796 144.747273 
L 133.005415 161.22 
L 133.614142 152.983636 
L 133.918506 157.101818 
L 136.353415 124.156364 
L 136.962142 132.392727 
L 138.788324 107.683636 
L 139.397051 115.92 
L 140.005778 107.683636 
L 140.310142 111.801818 
L 141.223233 99.447273 
L 141.527597 103.565455 
L 142.440688 91.210909 
L 145.17996 128.274545 
L 145.484324 124.156364 
L 147.310506 148.865455 
L 147.614869 144.747273 
L 148.52796 157.101818 
L 148.832324 152.983636 
L 149.136688 157.101818 
L 149.441051 152.983636 
L 149.745415 157.101818 
L 150.049778 152.983636 
L 150.354142 157.101818 
L 153.397778 115.92 
L 153.702142 120.038182 
L 154.006506 115.92 
L 154.919597 128.274545 
L 155.22396 124.156364 
L 155.528324 128.274545 
L 156.137051 120.038182 
L 156.441415 124.156364 
L 156.745778 120.038182 
L 157.658869 132.392727 
L 158.267597 124.156364 
L 158.876324 132.392727 
L 159.180688 128.274545 
L 160.093778 140.629091 
L 160.398142 136.510909 
L 160.702506 140.629091 
L 161.311233 132.392727 
L 162.224324 144.747273 
L 162.833051 136.510909 
L 163.746142 148.865455 
L 164.050506 144.747273 
L 164.963597 157.101818 
L 165.572324 148.865455 
L 165.876688 152.983636 
L 166.181051 148.865455 
L 167.094142 161.22 
L 168.311597 144.747273 
L 169.833415 165.338182 
L 170.746506 152.983636 
L 171.050869 157.101818 
L 171.355233 152.983636 
L 173.485778 181.810909 
L 173.790142 177.692727 
L 174.094506 181.810909 
L 174.398869 177.692727 
L 177.138142 214.756364 
L 178.65996 194.165455 
L 178.964324 198.283636 
L 179.268687 194.165455 
L 179.573051 198.283636 
L 179.877415 194.165455 
L 180.181778 198.283636 
L 181.399233 181.810909 
L 182.921051 202.401818 
L 183.225415 198.283636 
L 184.442869 214.756364 
L 185.051597 206.52 
L 185.35596 210.638182 
L 185.964688 202.401818 
L 186.269051 206.52 
L 187.182142 194.165455 
L 187.486506 198.283636 
L 188.095233 190.047273 
L 188.70396 198.283636 
L 189.008324 194.165455 
L 189.312688 198.283636 
L 190.225778 185.929091 
L 190.834506 194.165455 
L 191.138869 190.047273 
L 192.05196 202.401818 
L 192.660688 194.165455 
L 193.573778 206.52 
L 194.486869 194.165455 
L 195.095597 202.401818 
L 195.39996 198.283636 
L 195.704324 202.401818 
L 196.008688 198.283636 
L 196.617415 206.52 
L 196.921778 202.401818 
L 197.530506 210.638182 
L 198.139233 202.401818 
L 198.443597 206.52 
L 199.052324 198.283636 
L 199.356688 202.401818 
L 200.878506 181.810909 
L 201.487233 190.047273 
L 203.009051 169.456364 
L 203.313415 173.574545 
L 203.922142 165.338182 
L 204.530869 173.574545 
L 205.44396 161.22 
L 205.748324 165.338182 
L 206.052688 161.22 
L 207.574506 181.810909 
L 208.183233 173.574545 
L 208.487597 177.692727 
L 208.79196 173.574545 
L 209.096324 177.692727 
L 210.313778 161.22 
L 210.618142 165.338182 
L 210.922506 161.22 
L 211.835597 173.574545 
L 212.13996 169.456364 
L 212.444324 173.574545 
L 212.748688 169.456364 
L 213.053051 173.574545 
L 213.357415 169.456364 
L 214.270506 181.810909 
L 214.879233 173.574545 
L 215.183597 177.692727 
L 215.48796 173.574545 
L 215.792324 177.692727 
L 216.096688 173.574545 
L 216.401051 177.692727 
L 217.314142 165.338182 
L 217.922869 173.574545 
L 218.83596 161.22 
L 219.140324 165.338182 
L 219.749051 157.101818 
L 221.575233 181.810909 
L 222.488324 169.456364 
L 222.792688 173.574545 
L 223.097051 169.456364 
L 223.705778 177.692727 
L 224.618869 165.338182 
L 225.53196 177.692727 
L 225.836324 173.574545 
L 226.140688 177.692727 
L 226.445051 173.574545 
L 226.749415 177.692727 
L 227.358142 169.456364 
L 227.662506 173.574545 
L 228.271233 165.338182 
L 228.575597 169.456364 
L 229.793051 152.983636 
L 230.097415 157.101818 
L 231.010506 144.747273 
L 231.314869 148.865455 
L 231.923597 140.629091 
L 232.22796 144.747273 
L 232.532324 140.629091 
L 232.836688 144.747273 
L 233.141051 140.629091 
L 233.749778 148.865455 
L 234.358506 140.629091 
L 234.662869 144.747273 
L 235.271597 136.510909 
L 236.184688 148.865455 
L 236.489051 144.747273 
L 237.402142 157.101818 
L 238.010869 148.865455 
L 238.619597 157.101818 
L 239.228324 148.865455 
L 239.532688 152.983636 
L 239.837051 148.865455 
L 240.445778 157.101818 
L 241.358869 144.747273 
L 241.663233 148.865455 
L 241.967597 144.747273 
L 242.880688 157.101818 
L 243.185051 152.983636 
L 243.793778 161.22 
L 245.011233 144.747273 
L 246.837415 169.456364 
L 247.446142 161.22 
L 247.750506 165.338182 
L 248.96796 148.865455 
L 249.272324 152.983636 
L 250.489778 136.510909 
L 251.098506 144.747273 
L 251.402869 140.629091 
L 251.707233 144.747273 
L 252.011597 140.629091 
L 252.620324 148.865455 
L 253.229051 140.629091 
L 253.533415 144.747273 
L 253.837778 140.629091 
L 254.750869 152.983636 
L 255.66396 140.629091 
L 255.968324 144.747273 
L 256.272688 140.629091 
L 257.185778 152.983636 
L 257.490142 148.865455 
L 258.403233 161.22 
L 258.707597 157.101818 
L 261.142506 190.047273 
L 262.055597 177.692727 
L 262.664324 185.929091 
L 262.968688 181.810909 
L 263.577415 190.047273 
L 263.881778 185.929091 
L 264.490506 194.165455 
L 264.794869 190.047273 
L 265.099233 194.165455 
L 266.621051 173.574545 
L 266.925415 177.692727 
L 267.534142 169.456364 
L 267.838506 173.574545 
L 268.142869 169.456364 
L 268.447233 173.574545 
L 268.751597 169.456364 
L 269.05596 173.574545 
L 270.882142 148.865455 
L 271.186506 152.983636 
L 271.795233 144.747273 
L 272.40396 152.983636 
L 272.708324 148.865455 
L 273.925778 165.338182 
L 275.447597 144.747273 
L 275.75196 148.865455 
L 276.360688 140.629091 
L 276.665051 144.747273 
L 277.578142 132.392727 
L 278.491233 144.747273 
L 278.795597 140.629091 
L 279.404324 148.865455 
L 280.013051 140.629091 
L 280.621778 148.865455 
L 280.926142 144.747273 
L 282.143597 161.22 
L 283.361051 144.747273 
L 283.665415 148.865455 
L 283.969778 144.747273 
L 284.274142 148.865455 
L 285.79596 128.274545 
L 288.535233 165.338182 
L 288.839597 161.22 
L 289.448324 169.456364 
L 290.361415 157.101818 
L 290.970142 165.338182 
L 291.578869 157.101818 
L 292.796324 173.574545 
L 293.405051 165.338182 
L 294.013778 173.574545 
L 294.926869 161.22 
L 295.231233 165.338182 
L 295.535597 161.22 
L 295.83996 165.338182 
L 297.361778 144.747273 
L 298.274869 157.101818 
L 298.579233 152.983636 
L 298.883597 157.101818 
L 301.318506 124.156364 
L 301.622869 128.274545 
L 302.231597 120.038182 
L 302.53596 124.156364 
L 303.449051 111.801818 
L 303.753415 115.92 
L 304.057778 111.801818 
L 304.362142 115.92 
L 304.666506 111.801818 
L 305.275233 120.038182 
L 305.88396 111.801818 
L 307.101415 128.274545 
L 308.014506 115.92 
L 308.318869 120.038182 
L 308.623233 115.92 
L 308.927597 120.038182 
L 309.23196 115.92 
L 309.840688 124.156364 
L 310.753778 111.801818 
L 311.058142 115.92 
L 311.362506 111.801818 
L 311.971233 120.038182 
L 312.275597 115.92 
L 313.188688 128.274545 
L 313.797415 120.038182 
L 315.319233 140.629091 
L 315.92796 132.392727 
L 316.536688 140.629091 
L 316.841051 136.510909 
L 318.058506 152.983636 
L 318.362869 148.865455 
L 318.667233 152.983636 
L 319.27596 144.747273 
L 320.493415 161.22 
L 320.797778 157.101818 
L 321.102142 161.22 
L 322.015233 148.865455 
L 322.319597 152.983636 
L 322.928324 144.747273 
L 323.232688 148.865455 
L 324.754506 128.274545 
L 326.580688 152.983636 
L 326.885051 148.865455 
L 327.189415 152.983636 
L 327.798142 144.747273 
L 328.406869 152.983636 
L 329.31996 140.629091 
L 329.624324 144.747273 
L 329.928688 140.629091 
L 330.841778 152.983636 
L 331.450506 144.747273 
L 331.754869 148.865455 
L 333.276688 128.274545 
L 334.189778 140.629091 
L 334.494142 136.510909 
L 335.407233 148.865455 
L 336.01596 140.629091 
L 336.320324 144.747273 
L 336.624688 140.629091 
L 336.929051 144.747273 
L 337.233415 140.629091 
L 337.537778 144.747273 
L 340.885778 99.447273 
L 341.190142 103.565455 
L 341.494506 99.447273 
L 341.798869 103.565455 
L 342.103233 99.447273 
L 345.146869 140.629091 
L 345.451233 136.510909 
L 346.05996 144.747273 
L 346.668688 136.510909 
L 346.973051 140.629091 
L 347.886142 128.274545 
L 348.494869 136.510909 
L 350.321051 111.801818 
L 351.842869 132.392727 
L 352.451597 124.156364 
L 354.886506 157.101818 
L 354.886506 157.101818 
" style="fill:none;stroke:#8dd3c7;stroke-linecap:square;stroke-width:1.5;"/>
   </g>
   <g id="patch_3">
    <path d="M 35.304688 224.64 
L 35.304688 7.2 
" style="fill:none;stroke:#ffffff;stroke-linecap:square;stroke-linejoin:miter;stroke-width:0.8;"/>
   </g>
   <g id="patch_4">
    <path d="M 370.104688 224.64 
L 370.104688 7.2 
" style="fill:none;stroke:#ffffff;stroke-linecap:square;stroke-linejoin:miter;stroke-width:0.8;"/>
   </g>
   <g id="patch_5">
    <path d="M 35.304688 224.64 
L 370.104688 224.64 
" style="fill:none;stroke:#ffffff;stroke-linecap:square;stroke-linejoin:miter;stroke-width:0.8;"/>
   </g>
   <g id="patch_6">
    <path d="M 35.304688 7.2 
L 370.104688 7.2 
" style="fill:none;stroke:#ffffff;stroke-linecap:square;stroke-linejoin:miter;stroke-width:0.8;"/>
   </g>
  </g>
 </g>
 <defs>
  <clipPath id="pfb91119b17">
   <rect height="217.44" width="334.8" x="35.304688" y="7.2"/>
  </clipPath>
 </defs>
</svg>
