<?xml version="1.0" encoding="utf-8" standalone="no"?>
<!DOCTYPE svg PUBLIC "-//W3C//DTD SVG 1.1//EN"
  "http://www.w3.org/Graphics/SVG/1.1/DTD/svg11.dtd">
<!-- Created with matplotlib (https://matplotlib.org/) -->
<svg height="298.845312pt" version="1.1" viewBox="0 0 481.2625 298.845312" width="481.2625pt" xmlns="http://www.w3.org/2000/svg" xmlns:xlink="http://www.w3.org/1999/xlink">
 <defs>
  <style type="text/css">
*{stroke-linecap:butt;stroke-linejoin:round;}
  </style>
 </defs>
 <g id="figure_1">
  <g id="patch_1">
   <path d="M 0 298.845312 
L 481.2625 298.845312 
L 481.2625 0 
L 0 0 
z
" style="fill:#ffffff;"/>
  </g>
  <g id="axes_1">
   <g id="patch_2">
    <path d="M 27.6625 279 
L 474.0625 279 
L 474.0625 7.2 
L 27.6625 7.2 
z
" style="fill:#ffffff;"/>
   </g>
   <g id="matplotlib.axis_1">
    <g id="xtick_1">
     <g id="line2d_1">
      <path clip-path="url(#p3cfa6ffdf9)" d="M 47.953409 279 
L 47.953409 7.2 
" style="fill:none;stroke:#cccccc;stroke-linecap:round;stroke-width:0.8;"/>
     </g>
     <g id="line2d_2"/>
     <g id="text_1">
      <!-- 0 -->
      <defs>
       <path d="M 4.15625 35.296875 
Q 4.15625 48 6.765625 55.734375 
Q 9.375 63.484375 14.515625 67.671875 
Q 19.671875 71.875 27.484375 71.875 
Q 33.25 71.875 37.59375 69.546875 
Q 41.9375 67.234375 44.765625 62.859375 
Q 47.609375 58.5 49.21875 52.21875 
Q 50.828125 45.953125 50.828125 35.296875 
Q 50.828125 22.703125 48.234375 14.96875 
Q 45.65625 7.234375 40.5 3 
Q 35.359375 -1.21875 27.484375 -1.21875 
Q 17.140625 -1.21875 11.234375 6.203125 
Q 4.15625 15.140625 4.15625 35.296875 
z
M 13.1875 35.296875 
Q 13.1875 17.671875 17.3125 11.828125 
Q 21.4375 6 27.484375 6 
Q 33.546875 6 37.671875 11.859375 
Q 41.796875 17.71875 41.796875 35.296875 
Q 41.796875 52.984375 37.671875 58.78125 
Q 33.546875 64.59375 27.390625 64.59375 
Q 21.34375 64.59375 17.71875 59.46875 
Q 13.1875 52.9375 13.1875 35.296875 
z
" id="ArialMT-48"/>
      </defs>
      <g style="fill:#262626;" transform="translate(45.17294 289.657812)scale(0.1 -0.1)">
       <use xlink:href="#ArialMT-48"/>
      </g>
     </g>
    </g>
    <g id="xtick_2">
     <g id="line2d_3">
      <path clip-path="url(#p3cfa6ffdf9)" d="M 129.19829 279 
L 129.19829 7.2 
" style="fill:none;stroke:#cccccc;stroke-linecap:round;stroke-width:0.8;"/>
     </g>
     <g id="line2d_4"/>
     <g id="text_2">
      <!-- 200 -->
      <defs>
       <path d="M 50.34375 8.453125 
L 50.34375 0 
L 3.03125 0 
Q 2.9375 3.171875 4.046875 6.109375 
Q 5.859375 10.9375 9.828125 15.625 
Q 13.8125 20.3125 21.34375 26.46875 
Q 33.015625 36.03125 37.109375 41.625 
Q 41.21875 47.21875 41.21875 52.203125 
Q 41.21875 57.421875 37.46875 61 
Q 33.734375 64.59375 27.734375 64.59375 
Q 21.390625 64.59375 17.578125 60.78125 
Q 13.765625 56.984375 13.71875 50.25 
L 4.6875 51.171875 
Q 5.609375 61.28125 11.65625 66.578125 
Q 17.71875 71.875 27.9375 71.875 
Q 38.234375 71.875 44.234375 66.15625 
Q 50.25 60.453125 50.25 52 
Q 50.25 47.703125 48.484375 43.546875 
Q 46.734375 39.40625 42.65625 34.8125 
Q 38.578125 30.21875 29.109375 22.21875 
Q 21.1875 15.578125 18.9375 13.203125 
Q 16.703125 10.84375 15.234375 8.453125 
z
" id="ArialMT-50"/>
      </defs>
      <g style="fill:#262626;" transform="translate(120.856884 289.657812)scale(0.1 -0.1)">
       <use xlink:href="#ArialMT-50"/>
       <use x="55.615234" xlink:href="#ArialMT-48"/>
       <use x="111.230469" xlink:href="#ArialMT-48"/>
      </g>
     </g>
    </g>
    <g id="xtick_3">
     <g id="line2d_5">
      <path clip-path="url(#p3cfa6ffdf9)" d="M 210.443172 279 
L 210.443172 7.2 
" style="fill:none;stroke:#cccccc;stroke-linecap:round;stroke-width:0.8;"/>
     </g>
     <g id="line2d_6"/>
     <g id="text_3">
      <!-- 400 -->
      <defs>
       <path d="M 32.328125 0 
L 32.328125 17.140625 
L 1.265625 17.140625 
L 1.265625 25.203125 
L 33.9375 71.578125 
L 41.109375 71.578125 
L 41.109375 25.203125 
L 50.78125 25.203125 
L 50.78125 17.140625 
L 41.109375 17.140625 
L 41.109375 0 
z
M 32.328125 25.203125 
L 32.328125 57.46875 
L 9.90625 25.203125 
z
" id="ArialMT-52"/>
      </defs>
      <g style="fill:#262626;" transform="translate(202.101765 289.657812)scale(0.1 -0.1)">
       <use xlink:href="#ArialMT-52"/>
       <use x="55.615234" xlink:href="#ArialMT-48"/>
       <use x="111.230469" xlink:href="#ArialMT-48"/>
      </g>
     </g>
    </g>
    <g id="xtick_4">
     <g id="line2d_7">
      <path clip-path="url(#p3cfa6ffdf9)" d="M 291.688053 279 
L 291.688053 7.2 
" style="fill:none;stroke:#cccccc;stroke-linecap:round;stroke-width:0.8;"/>
     </g>
     <g id="line2d_8"/>
     <g id="text_4">
      <!-- 600 -->
      <defs>
       <path d="M 49.75 54.046875 
L 41.015625 53.375 
Q 39.84375 58.546875 37.703125 60.890625 
Q 34.125 64.65625 28.90625 64.65625 
Q 24.703125 64.65625 21.53125 62.3125 
Q 17.390625 59.28125 14.984375 53.46875 
Q 12.59375 47.65625 12.5 36.921875 
Q 15.671875 41.75 20.265625 44.09375 
Q 24.859375 46.4375 29.890625 46.4375 
Q 38.671875 46.4375 44.84375 39.96875 
Q 51.03125 33.5 51.03125 23.25 
Q 51.03125 16.5 48.125 10.71875 
Q 45.21875 4.9375 40.140625 1.859375 
Q 35.0625 -1.21875 28.609375 -1.21875 
Q 17.625 -1.21875 10.6875 6.859375 
Q 3.765625 14.9375 3.765625 33.5 
Q 3.765625 54.25 11.421875 63.671875 
Q 18.109375 71.875 29.4375 71.875 
Q 37.890625 71.875 43.28125 67.140625 
Q 48.6875 62.40625 49.75 54.046875 
z
M 13.875 23.1875 
Q 13.875 18.65625 15.796875 14.5 
Q 17.71875 10.359375 21.1875 8.171875 
Q 24.65625 6 28.46875 6 
Q 34.03125 6 38.03125 10.484375 
Q 42.046875 14.984375 42.046875 22.703125 
Q 42.046875 30.125 38.078125 34.390625 
Q 34.125 38.671875 28.125 38.671875 
Q 22.171875 38.671875 18.015625 34.390625 
Q 13.875 30.125 13.875 23.1875 
z
" id="ArialMT-54"/>
      </defs>
      <g style="fill:#262626;" transform="translate(283.346647 289.657812)scale(0.1 -0.1)">
       <use xlink:href="#ArialMT-54"/>
       <use x="55.615234" xlink:href="#ArialMT-48"/>
       <use x="111.230469" xlink:href="#ArialMT-48"/>
      </g>
     </g>
    </g>
    <g id="xtick_5">
     <g id="line2d_9">
      <path clip-path="url(#p3cfa6ffdf9)" d="M 372.932934 279 
L 372.932934 7.2 
" style="fill:none;stroke:#cccccc;stroke-linecap:round;stroke-width:0.8;"/>
     </g>
     <g id="line2d_10"/>
     <g id="text_5">
      <!-- 800 -->
      <defs>
       <path d="M 17.671875 38.8125 
Q 12.203125 40.828125 9.5625 44.53125 
Q 6.9375 48.25 6.9375 53.421875 
Q 6.9375 61.234375 12.546875 66.546875 
Q 18.171875 71.875 27.484375 71.875 
Q 36.859375 71.875 42.578125 66.421875 
Q 48.296875 60.984375 48.296875 53.171875 
Q 48.296875 48.1875 45.671875 44.5 
Q 43.0625 40.828125 37.75 38.8125 
Q 44.34375 36.671875 47.78125 31.875 
Q 51.21875 27.09375 51.21875 20.453125 
Q 51.21875 11.28125 44.71875 5.03125 
Q 38.234375 -1.21875 27.640625 -1.21875 
Q 17.046875 -1.21875 10.546875 5.046875 
Q 4.046875 11.328125 4.046875 20.703125 
Q 4.046875 27.6875 7.59375 32.390625 
Q 11.140625 37.109375 17.671875 38.8125 
z
M 15.921875 53.71875 
Q 15.921875 48.640625 19.1875 45.40625 
Q 22.46875 42.1875 27.6875 42.1875 
Q 32.765625 42.1875 36.015625 45.375 
Q 39.265625 48.578125 39.265625 53.21875 
Q 39.265625 58.0625 35.90625 61.359375 
Q 32.5625 64.65625 27.59375 64.65625 
Q 22.5625 64.65625 19.234375 61.421875 
Q 15.921875 58.203125 15.921875 53.71875 
z
M 13.09375 20.65625 
Q 13.09375 16.890625 14.875 13.375 
Q 16.65625 9.859375 20.171875 7.921875 
Q 23.6875 6 27.734375 6 
Q 34.03125 6 38.125 10.046875 
Q 42.234375 14.109375 42.234375 20.359375 
Q 42.234375 26.703125 38.015625 30.859375 
Q 33.796875 35.015625 27.4375 35.015625 
Q 21.234375 35.015625 17.15625 30.90625 
Q 13.09375 26.8125 13.09375 20.65625 
z
" id="ArialMT-56"/>
      </defs>
      <g style="fill:#262626;" transform="translate(364.591528 289.657812)scale(0.1 -0.1)">
       <use xlink:href="#ArialMT-56"/>
       <use x="55.615234" xlink:href="#ArialMT-48"/>
       <use x="111.230469" xlink:href="#ArialMT-48"/>
      </g>
     </g>
    </g>
    <g id="xtick_6">
     <g id="line2d_11">
      <path clip-path="url(#p3cfa6ffdf9)" d="M 454.177815 279 
L 454.177815 7.2 
" style="fill:none;stroke:#cccccc;stroke-linecap:round;stroke-width:0.8;"/>
     </g>
     <g id="line2d_12"/>
     <g id="text_6">
      <!-- 1000 -->
      <defs>
       <path d="M 37.25 0 
L 28.46875 0 
L 28.46875 56 
Q 25.296875 52.984375 20.140625 49.953125 
Q 14.984375 46.921875 10.890625 45.40625 
L 10.890625 53.90625 
Q 18.265625 57.375 23.78125 62.296875 
Q 29.296875 67.234375 31.59375 71.875 
L 37.25 71.875 
z
" id="ArialMT-49"/>
      </defs>
      <g style="fill:#262626;" transform="translate(443.05594 289.657812)scale(0.1 -0.1)">
       <use xlink:href="#ArialMT-49"/>
       <use x="55.615234" xlink:href="#ArialMT-48"/>
       <use x="111.230469" xlink:href="#ArialMT-48"/>
       <use x="166.845703" xlink:href="#ArialMT-48"/>
      </g>
     </g>
    </g>
   </g>
   <g id="matplotlib.axis_2">
    <g id="ytick_1">
     <g id="line2d_13">
      <path clip-path="url(#p3cfa6ffdf9)" d="M 27.6625 240.359188 
L 474.0625 240.359188 
" style="fill:none;stroke:#cccccc;stroke-linecap:round;stroke-width:0.8;"/>
     </g>
     <g id="line2d_14"/>
     <g id="text_7">
      <!-- −30 -->
      <defs>
       <path d="M 52.828125 31.203125 
L 5.5625 31.203125 
L 5.5625 39.40625 
L 52.828125 39.40625 
z
" id="ArialMT-8722"/>
       <path d="M 4.203125 18.890625 
L 12.984375 20.0625 
Q 14.5 12.59375 18.140625 9.296875 
Q 21.78125 6 27 6 
Q 33.203125 6 37.46875 10.296875 
Q 41.75 14.59375 41.75 20.953125 
Q 41.75 27 37.796875 30.921875 
Q 33.84375 34.859375 27.734375 34.859375 
Q 25.25 34.859375 21.53125 33.890625 
L 22.515625 41.609375 
Q 23.390625 41.5 23.921875 41.5 
Q 29.546875 41.5 34.03125 44.421875 
Q 38.53125 47.359375 38.53125 53.46875 
Q 38.53125 58.296875 35.25 61.46875 
Q 31.984375 64.65625 26.8125 64.65625 
Q 21.6875 64.65625 18.265625 61.421875 
Q 14.84375 58.203125 13.875 51.765625 
L 5.078125 53.328125 
Q 6.6875 62.15625 12.390625 67.015625 
Q 18.109375 71.875 26.609375 71.875 
Q 32.46875 71.875 37.390625 69.359375 
Q 42.328125 66.84375 44.9375 62.5 
Q 47.5625 58.15625 47.5625 53.265625 
Q 47.5625 48.640625 45.0625 44.828125 
Q 42.578125 41.015625 37.703125 38.765625 
Q 44.046875 37.3125 47.5625 32.6875 
Q 51.078125 28.078125 51.078125 21.140625 
Q 51.078125 11.765625 44.234375 5.25 
Q 37.40625 -1.265625 26.953125 -1.265625 
Q 17.53125 -1.265625 11.296875 4.34375 
Q 5.078125 9.96875 4.203125 18.890625 
z
" id="ArialMT-51"/>
      </defs>
      <g style="fill:#262626;" transform="translate(7.2 243.938094)scale(0.1 -0.1)">
       <use xlink:href="#ArialMT-8722"/>
       <use x="58.398438" xlink:href="#ArialMT-51"/>
       <use x="114.013672" xlink:href="#ArialMT-48"/>
      </g>
     </g>
    </g>
    <g id="ytick_2">
     <g id="line2d_15">
      <path clip-path="url(#p3cfa6ffdf9)" d="M 27.6625 187.786654 
L 474.0625 187.786654 
" style="fill:none;stroke:#cccccc;stroke-linecap:round;stroke-width:0.8;"/>
     </g>
     <g id="line2d_16"/>
     <g id="text_8">
      <!-- −20 -->
      <g style="fill:#262626;" transform="translate(7.2 191.36556)scale(0.1 -0.1)">
       <use xlink:href="#ArialMT-8722"/>
       <use x="58.398438" xlink:href="#ArialMT-50"/>
       <use x="114.013672" xlink:href="#ArialMT-48"/>
      </g>
     </g>
    </g>
    <g id="ytick_3">
     <g id="line2d_17">
      <path clip-path="url(#p3cfa6ffdf9)" d="M 27.6625 135.21412 
L 474.0625 135.21412 
" style="fill:none;stroke:#cccccc;stroke-linecap:round;stroke-width:0.8;"/>
     </g>
     <g id="line2d_18"/>
     <g id="text_9">
      <!-- −10 -->
      <g style="fill:#262626;" transform="translate(7.2 138.793026)scale(0.1 -0.1)">
       <use xlink:href="#ArialMT-8722"/>
       <use x="58.398438" xlink:href="#ArialMT-49"/>
       <use x="114.013672" xlink:href="#ArialMT-48"/>
      </g>
     </g>
    </g>
    <g id="ytick_4">
     <g id="line2d_19">
      <path clip-path="url(#p3cfa6ffdf9)" d="M 27.6625 82.641586 
L 474.0625 82.641586 
" style="fill:none;stroke:#cccccc;stroke-linecap:round;stroke-width:0.8;"/>
     </g>
     <g id="line2d_20"/>
     <g id="text_10">
      <!-- 0 -->
      <g style="fill:#262626;" transform="translate(18.601563 86.220492)scale(0.1 -0.1)">
       <use xlink:href="#ArialMT-48"/>
      </g>
     </g>
    </g>
    <g id="ytick_5">
     <g id="line2d_21">
      <path clip-path="url(#p3cfa6ffdf9)" d="M 27.6625 30.069052 
L 474.0625 30.069052 
" style="fill:none;stroke:#cccccc;stroke-linecap:round;stroke-width:0.8;"/>
     </g>
     <g id="line2d_22"/>
     <g id="text_11">
      <!-- 10 -->
      <g style="fill:#262626;" transform="translate(13.040625 33.647958)scale(0.1 -0.1)">
       <use xlink:href="#ArialMT-49"/>
       <use x="55.615234" xlink:href="#ArialMT-48"/>
      </g>
     </g>
    </g>
   </g>
   <g id="line2d_23">
    <path clip-path="url(#p3cfa6ffdf9)" d="M 47.953409 77.384333 
L 48.359633 82.641586 
L 50.390756 56.355319 
L 51.203204 66.869826 
L 51.609429 61.612573 
L 52.828102 77.384333 
L 53.234326 72.127079 
L 53.640551 77.384333 
L 54.046775 72.127079 
L 54.453 77.384333 
L 54.859224 72.127079 
L 55.265448 77.384333 
L 56.077897 66.869826 
L 56.484122 72.127079 
L 56.890346 66.869826 
L 58.109019 82.641586 
L 58.515244 77.384333 
L 58.921468 82.641586 
L 59.327692 77.384333 
L 59.733917 82.641586 
L 60.546366 72.127079 
L 60.95259 77.384333 
L 61.765039 66.869826 
L 62.171263 72.127079 
L 64.202385 45.840812 
L 65.014834 56.355319 
L 66.639732 35.326306 
L 67.045956 40.583559 
L 67.452181 35.326306 
L 68.264629 45.840812 
L 68.670854 40.583559 
L 69.077078 45.840812 
L 69.483303 40.583559 
L 69.889527 45.840812 
L 70.701976 35.326306 
L 71.1082 40.583559 
L 71.920649 30.069052 
L 72.326873 35.326306 
L 72.733098 30.069052 
L 74.357995 51.098066 
L 74.76422 45.840812 
L 75.576669 56.355319 
L 75.982893 51.098066 
L 77.201566 66.869826 
L 77.607791 61.612573 
L 78.014015 66.869826 
L 78.42024 61.612573 
L 80.045137 82.641586 
L 81.26381 66.869826 
L 82.076259 77.384333 
L 82.888708 66.869826 
L 83.294932 72.127079 
L 84.107381 61.612573 
L 84.513606 66.869826 
L 85.326054 56.355319 
L 85.732279 61.612573 
L 86.138503 56.355319 
L 86.544728 61.612573 
L 87.357176 51.098066 
L 88.982074 72.127079 
L 89.794523 61.612573 
L 90.606972 72.127079 
L 91.419421 61.612573 
L 92.638094 77.384333 
L 93.044318 72.127079 
L 93.450543 77.384333 
L 93.856767 72.127079 
L 94.669216 82.641586 
L 95.07544 77.384333 
L 96.294113 93.156093 
L 97.106562 82.641586 
L 98.325235 98.413346 
L 98.73146 93.156093 
L 99.543909 103.6706 
L 99.950133 98.413346 
L 100.356357 103.6706 
L 100.762582 98.413346 
L 101.575031 108.927853 
L 102.38748 98.413346 
L 103.199928 108.927853 
L 104.418602 93.156093 
L 106.449724 119.44236 
L 106.855948 114.185106 
L 108.88707 140.471373 
L 110.918192 114.185106 
L 111.730641 124.699613 
L 114.980436 82.641586 
L 116.199109 98.413346 
L 117.824007 77.384333 
L 118.636456 87.898839 
L 119.04268 82.641586 
L 119.448905 87.898839 
L 121.480027 61.612573 
L 123.104924 82.641586 
L 123.511149 77.384333 
L 125.136046 98.413346 
L 127.167168 72.127079 
L 127.573393 77.384333 
L 127.979617 72.127079 
L 128.792066 82.641586 
L 130.823188 56.355319 
L 131.635637 66.869826 
L 132.041861 61.612573 
L 132.85431 72.127079 
L 134.072983 56.355319 
L 134.885432 66.869826 
L 135.697881 56.355319 
L 136.916554 72.127079 
L 137.729003 61.612573 
L 138.135227 66.869826 
L 138.541452 61.612573 
L 138.947676 66.869826 
L 139.3539 61.612573 
L 139.760125 66.869826 
L 141.385023 45.840812 
L 142.603696 61.612573 
L 144.228593 40.583559 
L 146.66594 72.127079 
L 147.478389 61.612573 
L 147.884613 66.869826 
L 148.290837 61.612573 
L 149.103286 72.127079 
L 149.509511 66.869826 
L 149.915735 72.127079 
L 150.321959 66.869826 
L 151.946857 87.898839 
L 152.353081 82.641586 
L 153.16553 93.156093 
L 153.977979 82.641586 
L 154.790428 93.156093 
L 155.196652 87.898839 
L 155.602877 93.156093 
L 156.009101 87.898839 
L 156.415326 93.156093 
L 156.82155 87.898839 
L 157.227774 93.156093 
L 158.446448 77.384333 
L 158.852672 82.641586 
L 159.258896 77.384333 
L 159.665121 82.641586 
L 160.47757 72.127079 
L 161.696243 87.898839 
L 162.508692 77.384333 
L 164.946038 108.927853 
L 165.352262 103.6706 
L 166.97716 124.699613 
L 167.383385 119.44236 
L 168.602058 135.21412 
L 169.414507 124.699613 
L 169.820731 129.956867 
L 170.226955 124.699613 
L 171.445629 140.471373 
L 171.851853 135.21412 
L 173.070526 150.98588 
L 174.289199 135.21412 
L 175.101648 145.728627 
L 175.507873 140.471373 
L 175.914097 145.728627 
L 176.726546 135.21412 
L 179.976341 177.272147 
L 180.382566 172.014894 
L 180.78879 177.272147 
L 181.195014 172.014894 
L 181.601239 177.272147 
L 182.007463 172.014894 
L 183.226136 187.786654 
L 183.632361 182.5294 
L 184.038585 187.786654 
L 184.851034 177.272147 
L 186.069707 193.043907 
L 186.475932 187.786654 
L 186.882156 193.043907 
L 188.100829 177.272147 
L 188.507054 182.5294 
L 188.913278 177.272147 
L 190.9444 203.558414 
L 191.350624 198.301161 
L 192.569298 214.072921 
L 193.381747 203.558414 
L 193.787971 208.815667 
L 194.194195 203.558414 
L 194.60042 208.815667 
L 195.006644 203.558414 
L 195.412869 208.815667 
L 196.225317 198.301161 
L 196.631542 203.558414 
L 197.037766 198.301161 
L 197.443991 203.558414 
L 197.850215 198.301161 
L 198.662664 208.815667 
L 199.068888 203.558414 
L 200.287561 219.330174 
L 200.693786 214.072921 
L 201.10001 219.330174 
L 201.506235 214.072921 
L 202.724908 229.844681 
L 203.131132 224.587427 
L 203.943581 235.101934 
L 205.162254 219.330174 
L 205.568479 224.587427 
L 205.974703 219.330174 
L 206.380928 224.587427 
L 208.41205 198.301161 
L 209.224498 208.815667 
L 209.630723 203.558414 
L 210.036947 208.815667 
L 210.443172 203.558414 
L 211.25562 214.072921 
L 212.068069 203.558414 
L 213.286742 219.330174 
L 214.099191 208.815667 
L 216.536538 240.359188 
L 219.786333 198.301161 
L 222.629904 235.101934 
L 223.036128 229.844681 
L 223.442353 235.101934 
L 223.848577 229.844681 
L 224.254801 235.101934 
L 224.661026 229.844681 
L 225.06725 235.101934 
L 225.879699 224.587427 
L 226.285923 229.844681 
L 227.098372 219.330174 
L 227.504597 224.587427 
L 227.910821 219.330174 
L 229.129494 235.101934 
L 229.941943 224.587427 
L 230.754392 235.101934 
L 231.160616 229.844681 
L 231.973065 240.359188 
L 232.37929 235.101934 
L 232.785514 240.359188 
L 233.597963 229.844681 
L 234.410412 240.359188 
L 235.629085 224.587427 
L 236.441534 235.101934 
L 236.847758 229.844681 
L 237.660207 240.359188 
L 238.472656 229.844681 
L 240.097553 250.873694 
L 241.722451 229.844681 
L 242.5349 240.359188 
L 242.941124 235.101934 
L 243.753573 245.616441 
L 244.159797 240.359188 
L 245.378471 256.130948 
L 245.784695 250.873694 
L 246.190919 256.130948 
L 247.003368 245.616441 
L 247.409593 250.873694 
L 248.222041 240.359188 
L 250.253163 266.645455 
L 251.471837 250.873694 
L 251.878061 256.130948 
L 252.69051 245.616441 
L 253.096734 250.873694 
L 253.502959 245.616441 
L 255.127856 266.645455 
L 257.158978 240.359188 
L 257.565203 245.616441 
L 257.971427 240.359188 
L 258.377652 245.616441 
L 260.408774 219.330174 
L 261.221222 229.844681 
L 262.033671 219.330174 
L 262.84612 229.844681 
L 264.471018 208.815667 
L 266.908364 240.359188 
L 267.720813 229.844681 
L 269.34571 250.873694 
L 270.158159 240.359188 
L 270.970608 250.873694 
L 271.376833 245.616441 
L 271.783057 250.873694 
L 272.595506 240.359188 
L 273.407955 250.873694 
L 274.220403 240.359188 
L 274.626628 245.616441 
L 275.032852 240.359188 
L 275.845301 250.873694 
L 276.65775 240.359188 
L 277.470199 250.873694 
L 277.876423 245.616441 
L 279.095096 261.388201 
L 280.313769 245.616441 
L 280.719994 250.873694 
L 281.532443 240.359188 
L 282.344891 250.873694 
L 283.969789 229.844681 
L 284.376014 235.101934 
L 285.188462 224.587427 
L 286.000911 235.101934 
L 288.032033 208.815667 
L 288.844482 219.330174 
L 289.250706 214.072921 
L 289.656931 219.330174 
L 290.063155 214.072921 
L 290.46938 219.330174 
L 291.281828 208.815667 
L 291.688053 214.072921 
L 294.125399 182.5294 
L 294.937848 193.043907 
L 295.750297 182.5294 
L 297.375195 203.558414 
L 298.187643 193.043907 
L 299.812541 214.072921 
L 300.218765 208.815667 
L 301.437439 224.587427 
L 302.656112 208.815667 
L 303.062336 214.072921 
L 303.874785 203.558414 
L 304.281009 208.815667 
L 304.687234 203.558414 
L 305.093458 208.815667 
L 305.905907 198.301161 
L 306.718356 208.815667 
L 307.530805 198.301161 
L 307.937029 203.558414 
L 308.343253 198.301161 
L 309.561927 214.072921 
L 311.593049 187.786654 
L 311.999273 193.043907 
L 312.405498 187.786654 
L 313.217946 198.301161 
L 313.624171 193.043907 
L 314.030395 198.301161 
L 314.43662 193.043907 
L 315.655293 208.815667 
L 317.28019 187.786654 
L 317.686415 193.043907 
L 318.498864 182.5294 
L 319.311312 193.043907 
L 319.717537 187.786654 
L 320.123761 193.043907 
L 320.529986 187.786654 
L 320.93621 193.043907 
L 321.342434 187.786654 
L 321.748659 193.043907 
L 322.154883 187.786654 
L 322.561108 193.043907 
L 324.998454 161.500387 
L 325.404679 166.75764 
L 325.810903 161.500387 
L 326.217127 166.75764 
L 326.623352 161.500387 
L 327.029576 166.75764 
L 327.435801 161.500387 
L 327.842025 166.75764 
L 328.248249 161.500387 
L 328.654474 166.75764 
L 329.060698 161.500387 
L 330.279371 177.272147 
L 330.685596 172.014894 
L 331.09182 177.272147 
L 332.716718 156.243133 
L 333.122942 161.500387 
L 333.529167 156.243133 
L 333.935391 161.500387 
L 334.341615 156.243133 
L 334.74784 161.500387 
L 335.560289 150.98588 
L 335.966513 156.243133 
L 339.216308 114.185106 
L 339.622533 119.44236 
L 340.028757 114.185106 
L 340.434982 119.44236 
L 340.841206 114.185106 
L 342.059879 129.956867 
L 342.872328 119.44236 
L 343.278552 124.699613 
L 344.091001 114.185106 
L 344.497226 119.44236 
L 344.90345 114.185106 
L 345.715899 124.699613 
L 346.122123 119.44236 
L 346.528348 124.699613 
L 348.153245 103.6706 
L 348.55947 108.927853 
L 349.778143 93.156093 
L 350.590592 103.6706 
L 352.621714 77.384333 
L 353.027938 82.641586 
L 353.434163 77.384333 
L 354.246611 87.898839 
L 354.652836 82.641586 
L 355.05906 87.898839 
L 355.465285 82.641586 
L 356.277733 93.156093 
L 356.683958 87.898839 
L 357.090182 93.156093 
L 359.527529 61.612573 
L 360.339977 72.127079 
L 360.746202 66.869826 
L 361.558651 77.384333 
L 361.964875 72.127079 
L 362.3711 77.384333 
L 363.183548 66.869826 
L 363.589773 72.127079 
L 365.21467 51.098066 
L 365.620895 56.355319 
L 366.027119 51.098066 
L 366.433344 56.355319 
L 366.839568 51.098066 
L 367.652017 61.612573 
L 368.058241 56.355319 
L 368.464466 61.612573 
L 369.276914 51.098066 
L 370.901812 72.127079 
L 371.308036 66.869826 
L 371.714261 72.127079 
L 372.120485 66.869826 
L 372.932934 77.384333 
L 373.339158 72.127079 
L 373.745383 77.384333 
L 374.151607 72.127079 
L 374.964056 82.641586 
L 377.807627 45.840812 
L 378.213851 51.098066 
L 378.620076 45.840812 
L 379.432525 56.355319 
L 379.838749 51.098066 
L 380.651198 61.612573 
L 381.057422 56.355319 
L 381.463647 61.612573 
L 381.869871 56.355319 
L 382.68232 66.869826 
L 383.088544 61.612573 
L 383.900993 72.127079 
L 384.713442 61.612573 
L 385.525891 72.127079 
L 385.932115 66.869826 
L 386.338339 72.127079 
L 387.150788 61.612573 
L 387.557013 66.869826 
L 388.369462 56.355319 
L 388.775686 61.612573 
L 389.18191 56.355319 
L 390.400584 72.127079 
L 390.806808 66.869826 
L 392.431706 87.898839 
L 393.244154 77.384333 
L 393.650379 82.641586 
L 394.869052 66.869826 
L 395.275276 72.127079 
L 397.306398 45.840812 
L 397.712623 51.098066 
L 398.525072 40.583559 
L 400.149969 61.612573 
L 402.181091 35.326306 
L 402.587316 40.583559 
L 402.99354 35.326306 
L 404.212213 51.098066 
L 405.024662 40.583559 
L 407.462009 72.127079 
L 407.868233 66.869826 
L 409.899355 93.156093 
L 410.305579 87.898839 
L 410.711804 93.156093 
L 411.118028 87.898839 
L 411.930477 98.413346 
L 412.336701 93.156093 
L 412.742926 98.413346 
L 415.180272 66.869826 
L 415.586497 72.127079 
L 415.992721 66.869826 
L 416.80517 77.384333 
L 418.023843 61.612573 
L 418.430068 66.869826 
L 419.242516 56.355319 
L 419.648741 61.612573 
L 420.054965 56.355319 
L 420.46119 61.612573 
L 420.867414 56.355319 
L 421.273638 61.612573 
L 421.679863 56.355319 
L 422.086087 61.612573 
L 422.898536 51.098066 
L 423.30476 56.355319 
L 424.117209 45.840812 
L 424.929658 56.355319 
L 425.335882 51.098066 
L 425.742107 56.355319 
L 426.554556 45.840812 
L 427.367005 56.355319 
L 427.773229 51.098066 
L 428.179453 56.355319 
L 428.585678 51.098066 
L 428.991902 56.355319 
L 431.835473 19.554545 
L 433.054146 35.326306 
L 433.460371 30.069052 
L 435.085268 51.098066 
L 435.897717 40.583559 
L 436.303941 45.840812 
L 438.335063 19.554545 
L 438.741288 24.811799 
L 439.147512 19.554545 
L 439.553737 24.811799 
L 439.959961 19.554545 
L 440.77241 30.069052 
L 441.178634 24.811799 
L 441.584859 30.069052 
L 441.991083 24.811799 
L 442.803532 35.326306 
L 443.209756 30.069052 
L 443.615981 35.326306 
L 444.022205 30.069052 
L 444.42843 35.326306 
L 444.834654 30.069052 
L 445.647103 40.583559 
L 446.459552 30.069052 
L 446.865776 35.326306 
L 447.272 30.069052 
L 448.490674 45.840812 
L 449.709347 30.069052 
L 450.92802 45.840812 
L 451.334244 40.583559 
L 451.740469 45.840812 
L 453.771591 19.554545 
L 453.771591 19.554545 
" style="fill:none;stroke:#8dd3c7;stroke-linecap:round;stroke-width:1.5;"/>
   </g>
   <g id="patch_3">
    <path d="M 27.6625 279 
L 27.6625 7.2 
" style="fill:none;stroke:#cccccc;stroke-linecap:square;stroke-linejoin:miter;"/>
   </g>
   <g id="patch_4">
    <path d="M 474.0625 279 
L 474.0625 7.2 
" style="fill:none;stroke:#cccccc;stroke-linecap:square;stroke-linejoin:miter;"/>
   </g>
   <g id="patch_5">
    <path d="M 27.6625 279 
L 474.0625 279 
" style="fill:none;stroke:#cccccc;stroke-linecap:square;stroke-linejoin:miter;"/>
   </g>
   <g id="patch_6">
    <path d="M 27.6625 7.2 
L 474.0625 7.2 
" style="fill:none;stroke:#cccccc;stroke-linecap:square;stroke-linejoin:miter;"/>
   </g>
  </g>
 </g>
 <defs>
  <clipPath id="p3cfa6ffdf9">
   <rect height="271.8" width="446.4" x="27.6625" y="7.2"/>
  </clipPath>
 </defs>
</svg>
