<?xml version="1.0" encoding="utf-8" standalone="no"?>
<!DOCTYPE svg PUBLIC "-//W3C//DTD SVG 1.1//EN"
  "http://www.w3.org/Graphics/SVG/1.1/DTD/svg11.dtd">
<!-- Created with matplotlib (https://matplotlib.org/) -->
<svg height="298.845312pt" version="1.1" viewBox="0 0 475.421875 298.845312" width="475.421875pt" xmlns="http://www.w3.org/2000/svg" xmlns:xlink="http://www.w3.org/1999/xlink">
 <defs>
  <style type="text/css">
*{stroke-linecap:butt;stroke-linejoin:round;}
  </style>
 </defs>
 <g id="figure_1">
  <g id="patch_1">
   <path d="M 0 298.845312 
L 475.421875 298.845312 
L 475.421875 0 
L 0 0 
z
" style="fill:#ffffff;"/>
  </g>
  <g id="axes_1">
   <g id="patch_2">
    <path d="M 21.821875 143.1 
L 245.021875 143.1 
L 245.021875 7.2 
L 21.821875 7.2 
z
" style="fill:#ffffff;"/>
   </g>
   <g id="matplotlib.axis_1">
    <g id="xtick_1">
     <g id="line2d_1">
      <path clip-path="url(#p0ac385437c)" d="M 35.738306 143.1 
L 35.738306 7.2 
" style="fill:none;stroke:#cccccc;stroke-linecap:round;stroke-width:0.8;"/>
     </g>
     <g id="line2d_2"/>
    </g>
    <g id="xtick_2">
     <g id="line2d_3">
      <path clip-path="url(#p0ac385437c)" d="M 68.008429 143.1 
L 68.008429 7.2 
" style="fill:none;stroke:#cccccc;stroke-linecap:round;stroke-width:0.8;"/>
     </g>
     <g id="line2d_4"/>
    </g>
    <g id="xtick_3">
     <g id="line2d_5">
      <path clip-path="url(#p0ac385437c)" d="M 100.278552 143.1 
L 100.278552 7.2 
" style="fill:none;stroke:#cccccc;stroke-linecap:round;stroke-width:0.8;"/>
     </g>
     <g id="line2d_6"/>
    </g>
    <g id="xtick_4">
     <g id="line2d_7">
      <path clip-path="url(#p0ac385437c)" d="M 132.548675 143.1 
L 132.548675 7.2 
" style="fill:none;stroke:#cccccc;stroke-linecap:round;stroke-width:0.8;"/>
     </g>
     <g id="line2d_8"/>
    </g>
    <g id="xtick_5">
     <g id="line2d_9">
      <path clip-path="url(#p0ac385437c)" d="M 164.818798 143.1 
L 164.818798 7.2 
" style="fill:none;stroke:#cccccc;stroke-linecap:round;stroke-width:0.8;"/>
     </g>
     <g id="line2d_10"/>
    </g>
    <g id="xtick_6">
     <g id="line2d_11">
      <path clip-path="url(#p0ac385437c)" d="M 197.088921 143.1 
L 197.088921 7.2 
" style="fill:none;stroke:#cccccc;stroke-linecap:round;stroke-width:0.8;"/>
     </g>
     <g id="line2d_12"/>
    </g>
    <g id="xtick_7">
     <g id="line2d_13">
      <path clip-path="url(#p0ac385437c)" d="M 229.359044 143.1 
L 229.359044 7.2 
" style="fill:none;stroke:#cccccc;stroke-linecap:round;stroke-width:0.8;"/>
     </g>
     <g id="line2d_14"/>
    </g>
   </g>
   <g id="matplotlib.axis_2">
    <g id="ytick_1">
     <g id="line2d_15">
      <path clip-path="url(#p0ac385437c)" d="M 21.821875 143.1 
L 245.021875 143.1 
" style="fill:none;stroke:#cccccc;stroke-linecap:round;stroke-width:0.8;"/>
     </g>
     <g id="line2d_16"/>
     <g id="text_1">
      <!-- 0 -->
      <defs>
       <path d="M 4.15625 35.296875 
Q 4.15625 48 6.765625 55.734375 
Q 9.375 63.484375 14.515625 67.671875 
Q 19.671875 71.875 27.484375 71.875 
Q 33.25 71.875 37.59375 69.546875 
Q 41.9375 67.234375 44.765625 62.859375 
Q 47.609375 58.5 49.21875 52.21875 
Q 50.828125 45.953125 50.828125 35.296875 
Q 50.828125 22.703125 48.234375 14.96875 
Q 45.65625 7.234375 40.5 3 
Q 35.359375 -1.21875 27.484375 -1.21875 
Q 17.140625 -1.21875 11.234375 6.203125 
Q 4.15625 15.140625 4.15625 35.296875 
z
M 13.1875 35.296875 
Q 13.1875 17.671875 17.3125 11.828125 
Q 21.4375 6 27.484375 6 
Q 33.546875 6 37.671875 11.859375 
Q 41.796875 17.71875 41.796875 35.296875 
Q 41.796875 52.984375 37.671875 58.78125 
Q 33.546875 64.59375 27.390625 64.59375 
Q 21.34375 64.59375 17.71875 59.46875 
Q 13.1875 52.9375 13.1875 35.296875 
z
" id="ArialMT-48"/>
      </defs>
      <g style="fill:#262626;" transform="translate(12.760938 146.678906)scale(0.1 -0.1)">
       <use xlink:href="#ArialMT-48"/>
      </g>
     </g>
    </g>
    <g id="ytick_2">
     <g id="line2d_17">
      <path clip-path="url(#p0ac385437c)" d="M 21.821875 105.032773 
L 245.021875 105.032773 
" style="fill:none;stroke:#cccccc;stroke-linecap:round;stroke-width:0.8;"/>
     </g>
     <g id="line2d_18"/>
     <g id="text_2">
      <!-- 10 -->
      <defs>
       <path d="M 37.25 0 
L 28.46875 0 
L 28.46875 56 
Q 25.296875 52.984375 20.140625 49.953125 
Q 14.984375 46.921875 10.890625 45.40625 
L 10.890625 53.90625 
Q 18.265625 57.375 23.78125 62.296875 
Q 29.296875 67.234375 31.59375 71.875 
L 37.25 71.875 
z
" id="ArialMT-49"/>
      </defs>
      <g style="fill:#262626;" transform="translate(7.2 108.611679)scale(0.1 -0.1)">
       <use xlink:href="#ArialMT-49"/>
       <use x="55.615234" xlink:href="#ArialMT-48"/>
      </g>
     </g>
    </g>
    <g id="ytick_3">
     <g id="line2d_19">
      <path clip-path="url(#p0ac385437c)" d="M 21.821875 66.965546 
L 245.021875 66.965546 
" style="fill:none;stroke:#cccccc;stroke-linecap:round;stroke-width:0.8;"/>
     </g>
     <g id="line2d_20"/>
     <g id="text_3">
      <!-- 20 -->
      <defs>
       <path d="M 50.34375 8.453125 
L 50.34375 0 
L 3.03125 0 
Q 2.9375 3.171875 4.046875 6.109375 
Q 5.859375 10.9375 9.828125 15.625 
Q 13.8125 20.3125 21.34375 26.46875 
Q 33.015625 36.03125 37.109375 41.625 
Q 41.21875 47.21875 41.21875 52.203125 
Q 41.21875 57.421875 37.46875 61 
Q 33.734375 64.59375 27.734375 64.59375 
Q 21.390625 64.59375 17.578125 60.78125 
Q 13.765625 56.984375 13.71875 50.25 
L 4.6875 51.171875 
Q 5.609375 61.28125 11.65625 66.578125 
Q 17.71875 71.875 27.9375 71.875 
Q 38.234375 71.875 44.234375 66.15625 
Q 50.25 60.453125 50.25 52 
Q 50.25 47.703125 48.484375 43.546875 
Q 46.734375 39.40625 42.65625 34.8125 
Q 38.578125 30.21875 29.109375 22.21875 
Q 21.1875 15.578125 18.9375 13.203125 
Q 16.703125 10.84375 15.234375 8.453125 
z
" id="ArialMT-50"/>
      </defs>
      <g style="fill:#262626;" transform="translate(7.2 70.544452)scale(0.1 -0.1)">
       <use xlink:href="#ArialMT-50"/>
       <use x="55.615234" xlink:href="#ArialMT-48"/>
      </g>
     </g>
    </g>
    <g id="ytick_4">
     <g id="line2d_21">
      <path clip-path="url(#p0ac385437c)" d="M 21.821875 28.898319 
L 245.021875 28.898319 
" style="fill:none;stroke:#cccccc;stroke-linecap:round;stroke-width:0.8;"/>
     </g>
     <g id="line2d_22"/>
     <g id="text_4">
      <!-- 30 -->
      <defs>
       <path d="M 4.203125 18.890625 
L 12.984375 20.0625 
Q 14.5 12.59375 18.140625 9.296875 
Q 21.78125 6 27 6 
Q 33.203125 6 37.46875 10.296875 
Q 41.75 14.59375 41.75 20.953125 
Q 41.75 27 37.796875 30.921875 
Q 33.84375 34.859375 27.734375 34.859375 
Q 25.25 34.859375 21.53125 33.890625 
L 22.515625 41.609375 
Q 23.390625 41.5 23.921875 41.5 
Q 29.546875 41.5 34.03125 44.421875 
Q 38.53125 47.359375 38.53125 53.46875 
Q 38.53125 58.296875 35.25 61.46875 
Q 31.984375 64.65625 26.8125 64.65625 
Q 21.6875 64.65625 18.265625 61.421875 
Q 14.84375 58.203125 13.875 51.765625 
L 5.078125 53.328125 
Q 6.6875 62.15625 12.390625 67.015625 
Q 18.109375 71.875 26.609375 71.875 
Q 32.46875 71.875 37.390625 69.359375 
Q 42.328125 66.84375 44.9375 62.5 
Q 47.5625 58.15625 47.5625 53.265625 
Q 47.5625 48.640625 45.0625 44.828125 
Q 42.578125 41.015625 37.703125 38.765625 
Q 44.046875 37.3125 47.5625 32.6875 
Q 51.078125 28.078125 51.078125 21.140625 
Q 51.078125 11.765625 44.234375 5.25 
Q 37.40625 -1.265625 26.953125 -1.265625 
Q 17.53125 -1.265625 11.296875 4.34375 
Q 5.078125 9.96875 4.203125 18.890625 
z
" id="ArialMT-51"/>
      </defs>
      <g style="fill:#262626;" transform="translate(7.2 32.477226)scale(0.1 -0.1)">
       <use xlink:href="#ArialMT-51"/>
       <use x="55.615234" xlink:href="#ArialMT-48"/>
      </g>
     </g>
    </g>
   </g>
   <g id="patch_3">
    <path clip-path="url(#p0ac385437c)" d="M 34.249264 143.1 
L 37.955402 143.1 
L 37.955402 139.293277 
L 34.249264 139.293277 
z
" style="opacity:0.5;"/>
   </g>
   <g id="patch_4">
    <path clip-path="url(#p0ac385437c)" d="M 37.955402 143.1 
L 41.66154 143.1 
L 41.66154 139.293277 
L 37.955402 139.293277 
z
" style="opacity:0.5;"/>
   </g>
   <g id="patch_5">
    <path clip-path="url(#p0ac385437c)" d="M 41.66154 143.1 
L 45.367678 143.1 
L 45.367678 135.486555 
L 41.66154 135.486555 
z
" style="opacity:0.5;"/>
   </g>
   <g id="patch_6">
    <path clip-path="url(#p0ac385437c)" d="M 45.367678 143.1 
L 49.073815 143.1 
L 49.073815 135.486555 
L 45.367678 135.486555 
z
" style="opacity:0.5;"/>
   </g>
   <g id="patch_7">
    <path clip-path="url(#p0ac385437c)" d="M 49.073815 143.1 
L 52.779953 143.1 
L 52.779953 139.293277 
L 49.073815 139.293277 
z
" style="opacity:0.5;"/>
   </g>
   <g id="patch_8">
    <path clip-path="url(#p0ac385437c)" d="M 52.779953 143.1 
L 56.486091 143.1 
L 56.486091 135.486555 
L 52.779953 135.486555 
z
" style="opacity:0.5;"/>
   </g>
   <g id="patch_9">
    <path clip-path="url(#p0ac385437c)" d="M 56.486091 143.1 
L 60.192229 143.1 
L 60.192229 131.679832 
L 56.486091 131.679832 
z
" style="opacity:0.5;"/>
   </g>
   <g id="patch_10">
    <path clip-path="url(#p0ac385437c)" d="M 60.192229 143.1 
L 63.898367 143.1 
L 63.898367 135.486555 
L 60.192229 135.486555 
z
" style="opacity:0.5;"/>
   </g>
   <g id="patch_11">
    <path clip-path="url(#p0ac385437c)" d="M 63.898367 143.1 
L 67.604505 143.1 
L 67.604505 127.873109 
L 63.898367 127.873109 
z
" style="opacity:0.5;"/>
   </g>
   <g id="patch_12">
    <path clip-path="url(#p0ac385437c)" d="M 67.604505 143.1 
L 71.310643 143.1 
L 71.310643 124.066387 
L 67.604505 124.066387 
z
" style="opacity:0.5;"/>
   </g>
   <g id="patch_13">
    <path clip-path="url(#p0ac385437c)" d="M 71.310643 143.1 
L 75.01678 143.1 
L 75.01678 131.679832 
L 71.310643 131.679832 
z
" style="opacity:0.5;"/>
   </g>
   <g id="patch_14">
    <path clip-path="url(#p0ac385437c)" d="M 75.01678 143.1 
L 78.722918 143.1 
L 78.722918 112.646218 
L 75.01678 112.646218 
z
" style="opacity:0.5;"/>
   </g>
   <g id="patch_15">
    <path clip-path="url(#p0ac385437c)" d="M 78.722918 143.1 
L 82.429056 143.1 
L 82.429056 108.839496 
L 78.722918 108.839496 
z
" style="opacity:0.5;"/>
   </g>
   <g id="patch_16">
    <path clip-path="url(#p0ac385437c)" d="M 82.429056 143.1 
L 86.135194 143.1 
L 86.135194 116.452941 
L 82.429056 116.452941 
z
" style="opacity:0.5;"/>
   </g>
   <g id="patch_17">
    <path clip-path="url(#p0ac385437c)" d="M 86.135194 143.1 
L 89.841332 143.1 
L 89.841332 108.839496 
L 86.135194 108.839496 
z
" style="opacity:0.5;"/>
   </g>
   <g id="patch_18">
    <path clip-path="url(#p0ac385437c)" d="M 89.841332 143.1 
L 93.54747 143.1 
L 93.54747 112.646218 
L 89.841332 112.646218 
z
" style="opacity:0.5;"/>
   </g>
   <g id="patch_19">
    <path clip-path="url(#p0ac385437c)" d="M 93.54747 143.1 
L 97.253607 143.1 
L 97.253607 93.612605 
L 93.54747 93.612605 
z
" style="opacity:0.5;"/>
   </g>
   <g id="patch_20">
    <path clip-path="url(#p0ac385437c)" d="M 97.253607 143.1 
L 100.959745 143.1 
L 100.959745 105.032773 
L 97.253607 105.032773 
z
" style="opacity:0.5;"/>
   </g>
   <g id="patch_21">
    <path clip-path="url(#p0ac385437c)" d="M 100.959745 143.1 
L 104.665883 143.1 
L 104.665883 70.772269 
L 100.959745 70.772269 
z
" style="opacity:0.5;"/>
   </g>
   <g id="patch_22">
    <path clip-path="url(#p0ac385437c)" d="M 104.665883 143.1 
L 108.372021 143.1 
L 108.372021 105.032773 
L 104.665883 105.032773 
z
" style="opacity:0.5;"/>
   </g>
   <g id="patch_23">
    <path clip-path="url(#p0ac385437c)" d="M 108.372021 143.1 
L 112.078159 143.1 
L 112.078159 59.352101 
L 108.372021 59.352101 
z
" style="opacity:0.5;"/>
   </g>
   <g id="patch_24">
    <path clip-path="url(#p0ac385437c)" d="M 112.078159 143.1 
L 115.784297 143.1 
L 115.784297 74.578992 
L 112.078159 74.578992 
z
" style="opacity:0.5;"/>
   </g>
   <g id="patch_25">
    <path clip-path="url(#p0ac385437c)" d="M 115.784297 143.1 
L 119.490435 143.1 
L 119.490435 55.545378 
L 115.784297 55.545378 
z
" style="opacity:0.5;"/>
   </g>
   <g id="patch_26">
    <path clip-path="url(#p0ac385437c)" d="M 119.490435 143.1 
L 123.196572 143.1 
L 123.196572 28.898319 
L 119.490435 28.898319 
z
" style="opacity:0.5;"/>
   </g>
   <g id="patch_27">
    <path clip-path="url(#p0ac385437c)" d="M 123.196572 143.1 
L 126.90271 143.1 
L 126.90271 51.738655 
L 123.196572 51.738655 
z
" style="opacity:0.5;"/>
   </g>
   <g id="patch_28">
    <path clip-path="url(#p0ac385437c)" d="M 126.90271 143.1 
L 130.608848 143.1 
L 130.608848 47.931933 
L 126.90271 47.931933 
z
" style="opacity:0.5;"/>
   </g>
   <g id="patch_29">
    <path clip-path="url(#p0ac385437c)" d="M 130.608848 143.1 
L 134.314986 143.1 
L 134.314986 63.158824 
L 130.608848 63.158824 
z
" style="opacity:0.5;"/>
   </g>
   <g id="patch_30">
    <path clip-path="url(#p0ac385437c)" d="M 134.314986 143.1 
L 138.021124 143.1 
L 138.021124 66.965546 
L 134.314986 66.965546 
z
" style="opacity:0.5;"/>
   </g>
   <g id="patch_31">
    <path clip-path="url(#p0ac385437c)" d="M 138.021124 143.1 
L 141.727262 143.1 
L 141.727262 44.12521 
L 138.021124 44.12521 
z
" style="opacity:0.5;"/>
   </g>
   <g id="patch_32">
    <path clip-path="url(#p0ac385437c)" d="M 141.727262 143.1 
L 145.433399 143.1 
L 145.433399 47.931933 
L 141.727262 47.931933 
z
" style="opacity:0.5;"/>
   </g>
   <g id="patch_33">
    <path clip-path="url(#p0ac385437c)" d="M 145.433399 143.1 
L 149.139537 143.1 
L 149.139537 66.965546 
L 145.433399 66.965546 
z
" style="opacity:0.5;"/>
   </g>
   <g id="patch_34">
    <path clip-path="url(#p0ac385437c)" d="M 149.139537 143.1 
L 152.845675 143.1 
L 152.845675 78.385714 
L 149.139537 78.385714 
z
" style="opacity:0.5;"/>
   </g>
   <g id="patch_35">
    <path clip-path="url(#p0ac385437c)" d="M 152.845675 143.1 
L 156.551813 143.1 
L 156.551813 97.419328 
L 152.845675 97.419328 
z
" style="opacity:0.5;"/>
   </g>
   <g id="patch_36">
    <path clip-path="url(#p0ac385437c)" d="M 156.551813 143.1 
L 160.257951 143.1 
L 160.257951 74.578992 
L 156.551813 74.578992 
z
" style="opacity:0.5;"/>
   </g>
   <g id="patch_37">
    <path clip-path="url(#p0ac385437c)" d="M 160.257951 143.1 
L 163.964089 143.1 
L 163.964089 82.192437 
L 160.257951 82.192437 
z
" style="opacity:0.5;"/>
   </g>
   <g id="patch_38">
    <path clip-path="url(#p0ac385437c)" d="M 163.964089 143.1 
L 167.670227 143.1 
L 167.670227 93.612605 
L 163.964089 93.612605 
z
" style="opacity:0.5;"/>
   </g>
   <g id="patch_39">
    <path clip-path="url(#p0ac385437c)" d="M 167.670227 143.1 
L 171.376364 143.1 
L 171.376364 101.22605 
L 167.670227 101.22605 
z
" style="opacity:0.5;"/>
   </g>
   <g id="patch_40">
    <path clip-path="url(#p0ac385437c)" d="M 171.376364 143.1 
L 175.082502 143.1 
L 175.082502 116.452941 
L 171.376364 116.452941 
z
" style="opacity:0.5;"/>
   </g>
   <g id="patch_41">
    <path clip-path="url(#p0ac385437c)" d="M 175.082502 143.1 
L 178.78864 143.1 
L 178.78864 116.452941 
L 175.082502 116.452941 
z
" style="opacity:0.5;"/>
   </g>
   <g id="patch_42">
    <path clip-path="url(#p0ac385437c)" d="M 178.78864 143.1 
L 182.494778 143.1 
L 182.494778 120.259664 
L 178.78864 120.259664 
z
" style="opacity:0.5;"/>
   </g>
   <g id="patch_43">
    <path clip-path="url(#p0ac385437c)" d="M 182.494778 143.1 
L 186.200916 143.1 
L 186.200916 127.873109 
L 182.494778 127.873109 
z
" style="opacity:0.5;"/>
   </g>
   <g id="patch_44">
    <path clip-path="url(#p0ac385437c)" d="M 186.200916 143.1 
L 189.907054 143.1 
L 189.907054 124.066387 
L 186.200916 124.066387 
z
" style="opacity:0.5;"/>
   </g>
   <g id="patch_45">
    <path clip-path="url(#p0ac385437c)" d="M 189.907054 143.1 
L 193.613191 143.1 
L 193.613191 143.1 
L 189.907054 143.1 
z
" style="opacity:0.5;"/>
   </g>
   <g id="patch_46">
    <path clip-path="url(#p0ac385437c)" d="M 193.613191 143.1 
L 197.319329 143.1 
L 197.319329 139.293277 
L 193.613191 139.293277 
z
" style="opacity:0.5;"/>
   </g>
   <g id="patch_47">
    <path clip-path="url(#p0ac385437c)" d="M 197.319329 143.1 
L 201.025467 143.1 
L 201.025467 127.873109 
L 197.319329 127.873109 
z
" style="opacity:0.5;"/>
   </g>
   <g id="patch_48">
    <path clip-path="url(#p0ac385437c)" d="M 201.025467 143.1 
L 204.731605 143.1 
L 204.731605 143.1 
L 201.025467 143.1 
z
" style="opacity:0.5;"/>
   </g>
   <g id="patch_49">
    <path clip-path="url(#p0ac385437c)" d="M 204.731605 143.1 
L 208.437743 143.1 
L 208.437743 131.679832 
L 204.731605 131.679832 
z
" style="opacity:0.5;"/>
   </g>
   <g id="patch_50">
    <path clip-path="url(#p0ac385437c)" d="M 208.437743 143.1 
L 212.143881 143.1 
L 212.143881 135.486555 
L 208.437743 135.486555 
z
" style="opacity:0.5;"/>
   </g>
   <g id="patch_51">
    <path clip-path="url(#p0ac385437c)" d="M 212.143881 143.1 
L 215.850019 143.1 
L 215.850019 143.1 
L 212.143881 143.1 
z
" style="opacity:0.5;"/>
   </g>
   <g id="patch_52">
    <path clip-path="url(#p0ac385437c)" d="M 215.850019 143.1 
L 219.556156 143.1 
L 219.556156 139.293277 
L 215.850019 139.293277 
z
" style="opacity:0.5;"/>
   </g>
   <g id="patch_53">
    <path d="M 21.821875 143.1 
L 21.821875 7.2 
" style="fill:none;stroke:#cccccc;stroke-linecap:square;stroke-linejoin:miter;"/>
   </g>
   <g id="patch_54">
    <path d="M 245.021875 143.1 
L 245.021875 7.2 
" style="fill:none;stroke:#cccccc;stroke-linecap:square;stroke-linejoin:miter;"/>
   </g>
   <g id="patch_55">
    <path d="M 21.821875 143.1 
L 245.021875 143.1 
" style="fill:none;stroke:#cccccc;stroke-linecap:square;stroke-linejoin:miter;"/>
   </g>
   <g id="patch_56">
    <path d="M 21.821875 7.2 
L 245.021875 7.2 
" style="fill:none;stroke:#cccccc;stroke-linecap:square;stroke-linejoin:miter;"/>
   </g>
  </g>
  <g id="axes_2">
   <g id="patch_57">
    <path d="M 245.021875 143.1 
L 468.221875 143.1 
L 468.221875 7.2 
L 245.021875 7.2 
z
" style="fill:#ffffff;"/>
   </g>
   <g id="matplotlib.axis_3">
    <g id="xtick_8">
     <g id="line2d_23">
      <path clip-path="url(#p41b65cba61)" d="M 258.938306 143.1 
L 258.938306 7.2 
" style="fill:none;stroke:#cccccc;stroke-linecap:round;stroke-width:0.8;"/>
     </g>
     <g id="line2d_24"/>
    </g>
    <g id="xtick_9">
     <g id="line2d_25">
      <path clip-path="url(#p41b65cba61)" d="M 291.208429 143.1 
L 291.208429 7.2 
" style="fill:none;stroke:#cccccc;stroke-linecap:round;stroke-width:0.8;"/>
     </g>
     <g id="line2d_26"/>
    </g>
    <g id="xtick_10">
     <g id="line2d_27">
      <path clip-path="url(#p41b65cba61)" d="M 323.478552 143.1 
L 323.478552 7.2 
" style="fill:none;stroke:#cccccc;stroke-linecap:round;stroke-width:0.8;"/>
     </g>
     <g id="line2d_28"/>
    </g>
    <g id="xtick_11">
     <g id="line2d_29">
      <path clip-path="url(#p41b65cba61)" d="M 355.748675 143.1 
L 355.748675 7.2 
" style="fill:none;stroke:#cccccc;stroke-linecap:round;stroke-width:0.8;"/>
     </g>
     <g id="line2d_30"/>
    </g>
    <g id="xtick_12">
     <g id="line2d_31">
      <path clip-path="url(#p41b65cba61)" d="M 388.018798 143.1 
L 388.018798 7.2 
" style="fill:none;stroke:#cccccc;stroke-linecap:round;stroke-width:0.8;"/>
     </g>
     <g id="line2d_32"/>
    </g>
    <g id="xtick_13">
     <g id="line2d_33">
      <path clip-path="url(#p41b65cba61)" d="M 420.288921 143.1 
L 420.288921 7.2 
" style="fill:none;stroke:#cccccc;stroke-linecap:round;stroke-width:0.8;"/>
     </g>
     <g id="line2d_34"/>
    </g>
    <g id="xtick_14">
     <g id="line2d_35">
      <path clip-path="url(#p41b65cba61)" d="M 452.559044 143.1 
L 452.559044 7.2 
" style="fill:none;stroke:#cccccc;stroke-linecap:round;stroke-width:0.8;"/>
     </g>
     <g id="line2d_36"/>
    </g>
   </g>
   <g id="matplotlib.axis_4">
    <g id="ytick_5">
     <g id="line2d_37">
      <path clip-path="url(#p41b65cba61)" d="M 245.021875 143.1 
L 468.221875 143.1 
" style="fill:none;stroke:#cccccc;stroke-linecap:round;stroke-width:0.8;"/>
     </g>
     <g id="line2d_38"/>
    </g>
    <g id="ytick_6">
     <g id="line2d_39">
      <path clip-path="url(#p41b65cba61)" d="M 245.021875 105.032773 
L 468.221875 105.032773 
" style="fill:none;stroke:#cccccc;stroke-linecap:round;stroke-width:0.8;"/>
     </g>
     <g id="line2d_40"/>
    </g>
    <g id="ytick_7">
     <g id="line2d_41">
      <path clip-path="url(#p41b65cba61)" d="M 245.021875 66.965546 
L 468.221875 66.965546 
" style="fill:none;stroke:#cccccc;stroke-linecap:round;stroke-width:0.8;"/>
     </g>
     <g id="line2d_42"/>
    </g>
    <g id="ytick_8">
     <g id="line2d_43">
      <path clip-path="url(#p41b65cba61)" d="M 245.021875 28.898319 
L 468.221875 28.898319 
" style="fill:none;stroke:#cccccc;stroke-linecap:round;stroke-width:0.8;"/>
     </g>
     <g id="line2d_44"/>
    </g>
   </g>
   <g id="patch_58">
    <path clip-path="url(#p41b65cba61)" d="M 272.40151 143.1 
L 276.115008 143.1 
L 276.115008 139.293277 
L 272.40151 139.293277 
z
" style="opacity:0.5;"/>
   </g>
   <g id="patch_59">
    <path clip-path="url(#p41b65cba61)" d="M 276.115008 143.1 
L 279.828506 143.1 
L 279.828506 143.1 
L 276.115008 143.1 
z
" style="opacity:0.5;"/>
   </g>
   <g id="patch_60">
    <path clip-path="url(#p41b65cba61)" d="M 279.828506 143.1 
L 283.542005 143.1 
L 283.542005 139.293277 
L 279.828506 139.293277 
z
" style="opacity:0.5;"/>
   </g>
   <g id="patch_61">
    <path clip-path="url(#p41b65cba61)" d="M 283.542005 143.1 
L 287.255503 143.1 
L 287.255503 143.1 
L 283.542005 143.1 
z
" style="opacity:0.5;"/>
   </g>
   <g id="patch_62">
    <path clip-path="url(#p41b65cba61)" d="M 287.255503 143.1 
L 290.969001 143.1 
L 290.969001 135.486555 
L 287.255503 135.486555 
z
" style="opacity:0.5;"/>
   </g>
   <g id="patch_63">
    <path clip-path="url(#p41b65cba61)" d="M 290.969001 143.1 
L 294.682499 143.1 
L 294.682499 135.486555 
L 290.969001 135.486555 
z
" style="opacity:0.5;"/>
   </g>
   <g id="patch_64">
    <path clip-path="url(#p41b65cba61)" d="M 294.682499 143.1 
L 298.395998 143.1 
L 298.395998 127.873109 
L 294.682499 127.873109 
z
" style="opacity:0.5;"/>
   </g>
   <g id="patch_65">
    <path clip-path="url(#p41b65cba61)" d="M 298.395998 143.1 
L 302.109496 143.1 
L 302.109496 131.679832 
L 298.395998 131.679832 
z
" style="opacity:0.5;"/>
   </g>
   <g id="patch_66">
    <path clip-path="url(#p41b65cba61)" d="M 302.109496 143.1 
L 305.822994 143.1 
L 305.822994 116.452941 
L 302.109496 116.452941 
z
" style="opacity:0.5;"/>
   </g>
   <g id="patch_67">
    <path clip-path="url(#p41b65cba61)" d="M 305.822994 143.1 
L 309.536492 143.1 
L 309.536492 116.452941 
L 305.822994 116.452941 
z
" style="opacity:0.5;"/>
   </g>
   <g id="patch_68">
    <path clip-path="url(#p41b65cba61)" d="M 309.536492 143.1 
L 313.24999 143.1 
L 313.24999 108.839496 
L 309.536492 108.839496 
z
" style="opacity:0.5;"/>
   </g>
   <g id="patch_69">
    <path clip-path="url(#p41b65cba61)" d="M 313.24999 143.1 
L 316.963489 143.1 
L 316.963489 116.452941 
L 313.24999 116.452941 
z
" style="opacity:0.5;"/>
   </g>
   <g id="patch_70">
    <path clip-path="url(#p41b65cba61)" d="M 316.963489 143.1 
L 320.676987 143.1 
L 320.676987 101.22605 
L 316.963489 101.22605 
z
" style="opacity:0.5;"/>
   </g>
   <g id="patch_71">
    <path clip-path="url(#p41b65cba61)" d="M 320.676987 143.1 
L 324.390485 143.1 
L 324.390485 85.99916 
L 320.676987 85.99916 
z
" style="opacity:0.5;"/>
   </g>
   <g id="patch_72">
    <path clip-path="url(#p41b65cba61)" d="M 324.390485 143.1 
L 328.103983 143.1 
L 328.103983 74.578992 
L 324.390485 74.578992 
z
" style="opacity:0.5;"/>
   </g>
   <g id="patch_73">
    <path clip-path="url(#p41b65cba61)" d="M 328.103983 143.1 
L 331.817481 143.1 
L 331.817481 47.931933 
L 328.103983 47.931933 
z
" style="opacity:0.5;"/>
   </g>
   <g id="patch_74">
    <path clip-path="url(#p41b65cba61)" d="M 331.817481 143.1 
L 335.53098 143.1 
L 335.53098 89.805882 
L 331.817481 89.805882 
z
" style="opacity:0.5;"/>
   </g>
   <g id="patch_75">
    <path clip-path="url(#p41b65cba61)" d="M 335.53098 143.1 
L 339.244478 143.1 
L 339.244478 89.805882 
L 335.53098 89.805882 
z
" style="opacity:0.5;"/>
   </g>
   <g id="patch_76">
    <path clip-path="url(#p41b65cba61)" d="M 339.244478 143.1 
L 342.957976 143.1 
L 342.957976 59.352101 
L 339.244478 59.352101 
z
" style="opacity:0.5;"/>
   </g>
   <g id="patch_77">
    <path clip-path="url(#p41b65cba61)" d="M 342.957976 143.1 
L 346.671474 143.1 
L 346.671474 59.352101 
L 342.957976 59.352101 
z
" style="opacity:0.5;"/>
   </g>
   <g id="patch_78">
    <path clip-path="url(#p41b65cba61)" d="M 346.671474 143.1 
L 350.384972 143.1 
L 350.384972 59.352101 
L 346.671474 59.352101 
z
" style="opacity:0.5;"/>
   </g>
   <g id="patch_79">
    <path clip-path="url(#p41b65cba61)" d="M 350.384972 143.1 
L 354.098471 143.1 
L 354.098471 36.511765 
L 350.384972 36.511765 
z
" style="opacity:0.5;"/>
   </g>
   <g id="patch_80">
    <path clip-path="url(#p41b65cba61)" d="M 354.098471 143.1 
L 357.811969 143.1 
L 357.811969 21.284874 
L 354.098471 21.284874 
z
" style="opacity:0.5;"/>
   </g>
   <g id="patch_81">
    <path clip-path="url(#p41b65cba61)" d="M 357.811969 143.1 
L 361.525467 143.1 
L 361.525467 82.192437 
L 357.811969 82.192437 
z
" style="opacity:0.5;"/>
   </g>
   <g id="patch_82">
    <path clip-path="url(#p41b65cba61)" d="M 361.525467 143.1 
L 365.238965 143.1 
L 365.238965 13.671429 
L 361.525467 13.671429 
z
" style="opacity:0.5;"/>
   </g>
   <g id="patch_83">
    <path clip-path="url(#p41b65cba61)" d="M 365.238965 143.1 
L 368.952463 143.1 
L 368.952463 51.738655 
L 365.238965 51.738655 
z
" style="opacity:0.5;"/>
   </g>
   <g id="patch_84">
    <path clip-path="url(#p41b65cba61)" d="M 368.952463 143.1 
L 372.665962 143.1 
L 372.665962 70.772269 
L 368.952463 70.772269 
z
" style="opacity:0.5;"/>
   </g>
   <g id="patch_85">
    <path clip-path="url(#p41b65cba61)" d="M 372.665962 143.1 
L 376.37946 143.1 
L 376.37946 85.99916 
L 372.665962 85.99916 
z
" style="opacity:0.5;"/>
   </g>
   <g id="patch_86">
    <path clip-path="url(#p41b65cba61)" d="M 376.37946 143.1 
L 380.092958 143.1 
L 380.092958 78.385714 
L 376.37946 78.385714 
z
" style="opacity:0.5;"/>
   </g>
   <g id="patch_87">
    <path clip-path="url(#p41b65cba61)" d="M 380.092958 143.1 
L 383.806456 143.1 
L 383.806456 85.99916 
L 380.092958 85.99916 
z
" style="opacity:0.5;"/>
   </g>
   <g id="patch_88">
    <path clip-path="url(#p41b65cba61)" d="M 383.806456 143.1 
L 387.519954 143.1 
L 387.519954 85.99916 
L 383.806456 85.99916 
z
" style="opacity:0.5;"/>
   </g>
   <g id="patch_89">
    <path clip-path="url(#p41b65cba61)" d="M 387.519954 143.1 
L 391.233453 143.1 
L 391.233453 89.805882 
L 387.519954 89.805882 
z
" style="opacity:0.5;"/>
   </g>
   <g id="patch_90">
    <path clip-path="url(#p41b65cba61)" d="M 391.233453 143.1 
L 394.946951 143.1 
L 394.946951 124.066387 
L 391.233453 124.066387 
z
" style="opacity:0.5;"/>
   </g>
   <g id="patch_91">
    <path clip-path="url(#p41b65cba61)" d="M 394.946951 143.1 
L 398.660449 143.1 
L 398.660449 89.805882 
L 394.946951 89.805882 
z
" style="opacity:0.5;"/>
   </g>
   <g id="patch_92">
    <path clip-path="url(#p41b65cba61)" d="M 398.660449 143.1 
L 402.373947 143.1 
L 402.373947 101.22605 
L 398.660449 101.22605 
z
" style="opacity:0.5;"/>
   </g>
   <g id="patch_93">
    <path clip-path="url(#p41b65cba61)" d="M 402.373947 143.1 
L 406.087446 143.1 
L 406.087446 131.679832 
L 402.373947 131.679832 
z
" style="opacity:0.5;"/>
   </g>
   <g id="patch_94">
    <path clip-path="url(#p41b65cba61)" d="M 406.087446 143.1 
L 409.800944 143.1 
L 409.800944 112.646218 
L 406.087446 112.646218 
z
" style="opacity:0.5;"/>
   </g>
   <g id="patch_95">
    <path clip-path="url(#p41b65cba61)" d="M 409.800944 143.1 
L 413.514442 143.1 
L 413.514442 116.452941 
L 409.800944 116.452941 
z
" style="opacity:0.5;"/>
   </g>
   <g id="patch_96">
    <path clip-path="url(#p41b65cba61)" d="M 413.514442 143.1 
L 417.22794 143.1 
L 417.22794 127.873109 
L 413.514442 127.873109 
z
" style="opacity:0.5;"/>
   </g>
   <g id="patch_97">
    <path clip-path="url(#p41b65cba61)" d="M 417.22794 143.1 
L 420.941438 143.1 
L 420.941438 135.486555 
L 417.22794 135.486555 
z
" style="opacity:0.5;"/>
   </g>
   <g id="patch_98">
    <path clip-path="url(#p41b65cba61)" d="M 420.941438 143.1 
L 424.654937 143.1 
L 424.654937 135.486555 
L 420.941438 135.486555 
z
" style="opacity:0.5;"/>
   </g>
   <g id="patch_99">
    <path clip-path="url(#p41b65cba61)" d="M 424.654937 143.1 
L 428.368435 143.1 
L 428.368435 135.486555 
L 424.654937 135.486555 
z
" style="opacity:0.5;"/>
   </g>
   <g id="patch_100">
    <path clip-path="url(#p41b65cba61)" d="M 428.368435 143.1 
L 432.081933 143.1 
L 432.081933 135.486555 
L 428.368435 135.486555 
z
" style="opacity:0.5;"/>
   </g>
   <g id="patch_101">
    <path clip-path="url(#p41b65cba61)" d="M 432.081933 143.1 
L 435.795431 143.1 
L 435.795431 143.1 
L 432.081933 143.1 
z
" style="opacity:0.5;"/>
   </g>
   <g id="patch_102">
    <path clip-path="url(#p41b65cba61)" d="M 435.795431 143.1 
L 439.508929 143.1 
L 439.508929 131.679832 
L 435.795431 131.679832 
z
" style="opacity:0.5;"/>
   </g>
   <g id="patch_103">
    <path clip-path="url(#p41b65cba61)" d="M 439.508929 143.1 
L 443.222428 143.1 
L 443.222428 143.1 
L 439.508929 143.1 
z
" style="opacity:0.5;"/>
   </g>
   <g id="patch_104">
    <path clip-path="url(#p41b65cba61)" d="M 443.222428 143.1 
L 446.935926 143.1 
L 446.935926 139.293277 
L 443.222428 139.293277 
z
" style="opacity:0.5;"/>
   </g>
   <g id="patch_105">
    <path clip-path="url(#p41b65cba61)" d="M 446.935926 143.1 
L 450.649424 143.1 
L 450.649424 143.1 
L 446.935926 143.1 
z
" style="opacity:0.5;"/>
   </g>
   <g id="patch_106">
    <path clip-path="url(#p41b65cba61)" d="M 450.649424 143.1 
L 454.362922 143.1 
L 454.362922 143.1 
L 450.649424 143.1 
z
" style="opacity:0.5;"/>
   </g>
   <g id="patch_107">
    <path clip-path="url(#p41b65cba61)" d="M 454.362922 143.1 
L 458.07642 143.1 
L 458.07642 139.293277 
L 454.362922 139.293277 
z
" style="opacity:0.5;"/>
   </g>
   <g id="patch_108">
    <path d="M 245.021875 143.1 
L 245.021875 7.2 
" style="fill:none;stroke:#cccccc;stroke-linecap:square;stroke-linejoin:miter;"/>
   </g>
   <g id="patch_109">
    <path d="M 468.221875 143.1 
L 468.221875 7.2 
" style="fill:none;stroke:#cccccc;stroke-linecap:square;stroke-linejoin:miter;"/>
   </g>
   <g id="patch_110">
    <path d="M 245.021875 143.1 
L 468.221875 143.1 
" style="fill:none;stroke:#cccccc;stroke-linecap:square;stroke-linejoin:miter;"/>
   </g>
   <g id="patch_111">
    <path d="M 245.021875 7.2 
L 468.221875 7.2 
" style="fill:none;stroke:#cccccc;stroke-linecap:square;stroke-linejoin:miter;"/>
   </g>
  </g>
  <g id="axes_3">
   <g id="patch_112">
    <path d="M 21.821875 279 
L 245.021875 279 
L 245.021875 143.1 
L 21.821875 143.1 
z
" style="fill:#ffffff;"/>
   </g>
   <g id="matplotlib.axis_5">
    <g id="xtick_15">
     <g id="line2d_45">
      <path clip-path="url(#p5f84cc5d82)" d="M 35.738306 279 
L 35.738306 143.1 
" style="fill:none;stroke:#cccccc;stroke-linecap:round;stroke-width:0.8;"/>
     </g>
     <g id="line2d_46"/>
     <g id="text_5">
      <!-- −3 -->
      <defs>
       <path d="M 52.828125 31.203125 
L 5.5625 31.203125 
L 5.5625 39.40625 
L 52.828125 39.40625 
z
" id="ArialMT-8722"/>
      </defs>
      <g style="fill:#262626;" transform="translate(30.037525 289.657812)scale(0.1 -0.1)">
       <use xlink:href="#ArialMT-8722"/>
       <use x="58.398438" xlink:href="#ArialMT-51"/>
      </g>
     </g>
    </g>
    <g id="xtick_16">
     <g id="line2d_47">
      <path clip-path="url(#p5f84cc5d82)" d="M 68.008429 279 
L 68.008429 143.1 
" style="fill:none;stroke:#cccccc;stroke-linecap:round;stroke-width:0.8;"/>
     </g>
     <g id="line2d_48"/>
     <g id="text_6">
      <!-- −2 -->
      <g style="fill:#262626;" transform="translate(62.307648 289.657812)scale(0.1 -0.1)">
       <use xlink:href="#ArialMT-8722"/>
       <use x="58.398438" xlink:href="#ArialMT-50"/>
      </g>
     </g>
    </g>
    <g id="xtick_17">
     <g id="line2d_49">
      <path clip-path="url(#p5f84cc5d82)" d="M 100.278552 279 
L 100.278552 143.1 
" style="fill:none;stroke:#cccccc;stroke-linecap:round;stroke-width:0.8;"/>
     </g>
     <g id="line2d_50"/>
     <g id="text_7">
      <!-- −1 -->
      <g style="fill:#262626;" transform="translate(94.577771 289.657812)scale(0.1 -0.1)">
       <use xlink:href="#ArialMT-8722"/>
       <use x="58.398438" xlink:href="#ArialMT-49"/>
      </g>
     </g>
    </g>
    <g id="xtick_18">
     <g id="line2d_51">
      <path clip-path="url(#p5f84cc5d82)" d="M 132.548675 279 
L 132.548675 143.1 
" style="fill:none;stroke:#cccccc;stroke-linecap:round;stroke-width:0.8;"/>
     </g>
     <g id="line2d_52"/>
     <g id="text_8">
      <!-- 0 -->
      <g style="fill:#262626;" transform="translate(129.768206 289.657812)scale(0.1 -0.1)">
       <use xlink:href="#ArialMT-48"/>
      </g>
     </g>
    </g>
    <g id="xtick_19">
     <g id="line2d_53">
      <path clip-path="url(#p5f84cc5d82)" d="M 164.818798 279 
L 164.818798 143.1 
" style="fill:none;stroke:#cccccc;stroke-linecap:round;stroke-width:0.8;"/>
     </g>
     <g id="line2d_54"/>
     <g id="text_9">
      <!-- 1 -->
      <g style="fill:#262626;" transform="translate(162.038329 289.657812)scale(0.1 -0.1)">
       <use xlink:href="#ArialMT-49"/>
      </g>
     </g>
    </g>
    <g id="xtick_20">
     <g id="line2d_55">
      <path clip-path="url(#p5f84cc5d82)" d="M 197.088921 279 
L 197.088921 143.1 
" style="fill:none;stroke:#cccccc;stroke-linecap:round;stroke-width:0.8;"/>
     </g>
     <g id="line2d_56"/>
     <g id="text_10">
      <!-- 2 -->
      <g style="fill:#262626;" transform="translate(194.308452 289.657812)scale(0.1 -0.1)">
       <use xlink:href="#ArialMT-50"/>
      </g>
     </g>
    </g>
    <g id="xtick_21">
     <g id="line2d_57">
      <path clip-path="url(#p5f84cc5d82)" d="M 229.359044 279 
L 229.359044 143.1 
" style="fill:none;stroke:#cccccc;stroke-linecap:round;stroke-width:0.8;"/>
     </g>
     <g id="line2d_58"/>
     <g id="text_11">
      <!-- 3 -->
      <g style="fill:#262626;" transform="translate(226.578575 289.657812)scale(0.1 -0.1)">
       <use xlink:href="#ArialMT-51"/>
      </g>
     </g>
    </g>
   </g>
   <g id="matplotlib.axis_6">
    <g id="ytick_9">
     <g id="line2d_59">
      <path clip-path="url(#p5f84cc5d82)" d="M 21.821875 279 
L 245.021875 279 
" style="fill:none;stroke:#cccccc;stroke-linecap:round;stroke-width:0.8;"/>
     </g>
     <g id="line2d_60"/>
     <g id="text_12">
      <!-- 0 -->
      <g style="fill:#262626;" transform="translate(12.760938 282.578906)scale(0.1 -0.1)">
       <use xlink:href="#ArialMT-48"/>
      </g>
     </g>
    </g>
    <g id="ytick_10">
     <g id="line2d_61">
      <path clip-path="url(#p5f84cc5d82)" d="M 21.821875 240.932773 
L 245.021875 240.932773 
" style="fill:none;stroke:#cccccc;stroke-linecap:round;stroke-width:0.8;"/>
     </g>
     <g id="line2d_62"/>
     <g id="text_13">
      <!-- 10 -->
      <g style="fill:#262626;" transform="translate(7.2 244.511679)scale(0.1 -0.1)">
       <use xlink:href="#ArialMT-49"/>
       <use x="55.615234" xlink:href="#ArialMT-48"/>
      </g>
     </g>
    </g>
    <g id="ytick_11">
     <g id="line2d_63">
      <path clip-path="url(#p5f84cc5d82)" d="M 21.821875 202.865546 
L 245.021875 202.865546 
" style="fill:none;stroke:#cccccc;stroke-linecap:round;stroke-width:0.8;"/>
     </g>
     <g id="line2d_64"/>
     <g id="text_14">
      <!-- 20 -->
      <g style="fill:#262626;" transform="translate(7.2 206.444452)scale(0.1 -0.1)">
       <use xlink:href="#ArialMT-50"/>
       <use x="55.615234" xlink:href="#ArialMT-48"/>
      </g>
     </g>
    </g>
    <g id="ytick_12">
     <g id="line2d_65">
      <path clip-path="url(#p5f84cc5d82)" d="M 21.821875 164.798319 
L 245.021875 164.798319 
" style="fill:none;stroke:#cccccc;stroke-linecap:round;stroke-width:0.8;"/>
     </g>
     <g id="line2d_66"/>
     <g id="text_15">
      <!-- 30 -->
      <g style="fill:#262626;" transform="translate(7.2 168.377226)scale(0.1 -0.1)">
       <use xlink:href="#ArialMT-51"/>
       <use x="55.615234" xlink:href="#ArialMT-48"/>
      </g>
     </g>
    </g>
   </g>
   <g id="patch_113">
    <path clip-path="url(#p5f84cc5d82)" d="M 35.91215 279 
L 39.574927 279 
L 39.574927 275.193277 
L 35.91215 275.193277 
z
" style="opacity:0.5;"/>
   </g>
   <g id="patch_114">
    <path clip-path="url(#p5f84cc5d82)" d="M 39.574927 279 
L 43.237705 279 
L 43.237705 271.386555 
L 39.574927 271.386555 
z
" style="opacity:0.5;"/>
   </g>
   <g id="patch_115">
    <path clip-path="url(#p5f84cc5d82)" d="M 43.237705 279 
L 46.900482 279 
L 46.900482 279 
L 43.237705 279 
z
" style="opacity:0.5;"/>
   </g>
   <g id="patch_116">
    <path clip-path="url(#p5f84cc5d82)" d="M 46.900482 279 
L 50.56326 279 
L 50.56326 275.193277 
L 46.900482 275.193277 
z
" style="opacity:0.5;"/>
   </g>
   <g id="patch_117">
    <path clip-path="url(#p5f84cc5d82)" d="M 50.56326 279 
L 54.226037 279 
L 54.226037 275.193277 
L 50.56326 275.193277 
z
" style="opacity:0.5;"/>
   </g>
   <g id="patch_118">
    <path clip-path="url(#p5f84cc5d82)" d="M 54.226037 279 
L 57.888815 279 
L 57.888815 279 
L 54.226037 279 
z
" style="opacity:0.5;"/>
   </g>
   <g id="patch_119">
    <path clip-path="url(#p5f84cc5d82)" d="M 57.888815 279 
L 61.551592 279 
L 61.551592 279 
L 57.888815 279 
z
" style="opacity:0.5;"/>
   </g>
   <g id="patch_120">
    <path clip-path="url(#p5f84cc5d82)" d="M 61.551592 279 
L 65.21437 279 
L 65.21437 271.386555 
L 61.551592 271.386555 
z
" style="opacity:0.5;"/>
   </g>
   <g id="patch_121">
    <path clip-path="url(#p5f84cc5d82)" d="M 65.21437 279 
L 68.877147 279 
L 68.877147 275.193277 
L 65.21437 275.193277 
z
" style="opacity:0.5;"/>
   </g>
   <g id="patch_122">
    <path clip-path="url(#p5f84cc5d82)" d="M 68.877147 279 
L 72.539925 279 
L 72.539925 271.386555 
L 68.877147 271.386555 
z
" style="opacity:0.5;"/>
   </g>
   <g id="patch_123">
    <path clip-path="url(#p5f84cc5d82)" d="M 72.539925 279 
L 76.202702 279 
L 76.202702 259.966387 
L 72.539925 259.966387 
z
" style="opacity:0.5;"/>
   </g>
   <g id="patch_124">
    <path clip-path="url(#p5f84cc5d82)" d="M 76.202702 279 
L 79.86548 279 
L 79.86548 256.159664 
L 76.202702 256.159664 
z
" style="opacity:0.5;"/>
   </g>
   <g id="patch_125">
    <path clip-path="url(#p5f84cc5d82)" d="M 79.86548 279 
L 83.528257 279 
L 83.528257 252.352941 
L 79.86548 252.352941 
z
" style="opacity:0.5;"/>
   </g>
   <g id="patch_126">
    <path clip-path="url(#p5f84cc5d82)" d="M 83.528257 279 
L 87.191035 279 
L 87.191035 237.12605 
L 83.528257 237.12605 
z
" style="opacity:0.5;"/>
   </g>
   <g id="patch_127">
    <path clip-path="url(#p5f84cc5d82)" d="M 87.191035 279 
L 90.853812 279 
L 90.853812 237.12605 
L 87.191035 237.12605 
z
" style="opacity:0.5;"/>
   </g>
   <g id="patch_128">
    <path clip-path="url(#p5f84cc5d82)" d="M 90.853812 279 
L 94.51659 279 
L 94.51659 244.739496 
L 90.853812 244.739496 
z
" style="opacity:0.5;"/>
   </g>
   <g id="patch_129">
    <path clip-path="url(#p5f84cc5d82)" d="M 94.51659 279 
L 98.179367 279 
L 98.179367 240.932773 
L 94.51659 240.932773 
z
" style="opacity:0.5;"/>
   </g>
   <g id="patch_130">
    <path clip-path="url(#p5f84cc5d82)" d="M 98.179367 279 
L 101.842145 279 
L 101.842145 214.285714 
L 98.179367 214.285714 
z
" style="opacity:0.5;"/>
   </g>
   <g id="patch_131">
    <path clip-path="url(#p5f84cc5d82)" d="M 101.842145 279 
L 105.504922 279 
L 105.504922 229.512605 
L 101.842145 229.512605 
z
" style="opacity:0.5;"/>
   </g>
   <g id="patch_132">
    <path clip-path="url(#p5f84cc5d82)" d="M 105.504922 279 
L 109.1677 279 
L 109.1677 206.672269 
L 105.504922 206.672269 
z
" style="opacity:0.5;"/>
   </g>
   <g id="patch_133">
    <path clip-path="url(#p5f84cc5d82)" d="M 109.1677 279 
L 112.830477 279 
L 112.830477 233.319328 
L 109.1677 233.319328 
z
" style="opacity:0.5;"/>
   </g>
   <g id="patch_134">
    <path clip-path="url(#p5f84cc5d82)" d="M 112.830477 279 
L 116.493255 279 
L 116.493255 191.445378 
L 112.830477 191.445378 
z
" style="opacity:0.5;"/>
   </g>
   <g id="patch_135">
    <path clip-path="url(#p5f84cc5d82)" d="M 116.493255 279 
L 120.156033 279 
L 120.156033 183.831933 
L 116.493255 183.831933 
z
" style="opacity:0.5;"/>
   </g>
   <g id="patch_136">
    <path clip-path="url(#p5f84cc5d82)" d="M 120.156033 279 
L 123.81881 279 
L 123.81881 210.478992 
L 120.156033 210.478992 
z
" style="opacity:0.5;"/>
   </g>
   <g id="patch_137">
    <path clip-path="url(#p5f84cc5d82)" d="M 123.81881 279 
L 127.481588 279 
L 127.481588 225.705882 
L 123.81881 225.705882 
z
" style="opacity:0.5;"/>
   </g>
   <g id="patch_138">
    <path clip-path="url(#p5f84cc5d82)" d="M 127.481588 279 
L 131.144365 279 
L 131.144365 191.445378 
L 127.481588 191.445378 
z
" style="opacity:0.5;"/>
   </g>
   <g id="patch_139">
    <path clip-path="url(#p5f84cc5d82)" d="M 131.144365 279 
L 134.807143 279 
L 134.807143 210.478992 
L 131.144365 210.478992 
z
" style="opacity:0.5;"/>
   </g>
   <g id="patch_140">
    <path clip-path="url(#p5f84cc5d82)" d="M 134.807143 279 
L 138.46992 279 
L 138.46992 164.798319 
L 134.807143 164.798319 
z
" style="opacity:0.5;"/>
   </g>
   <g id="patch_141">
    <path clip-path="url(#p5f84cc5d82)" d="M 138.46992 279 
L 142.132698 279 
L 142.132698 199.058824 
L 138.46992 199.058824 
z
" style="opacity:0.5;"/>
   </g>
   <g id="patch_142">
    <path clip-path="url(#p5f84cc5d82)" d="M 142.132698 279 
L 145.795475 279 
L 145.795475 195.252101 
L 142.132698 195.252101 
z
" style="opacity:0.5;"/>
   </g>
   <g id="patch_143">
    <path clip-path="url(#p5f84cc5d82)" d="M 145.795475 279 
L 149.458253 279 
L 149.458253 191.445378 
L 145.795475 191.445378 
z
" style="opacity:0.5;"/>
   </g>
   <g id="patch_144">
    <path clip-path="url(#p5f84cc5d82)" d="M 149.458253 279 
L 153.12103 279 
L 153.12103 176.218487 
L 149.458253 176.218487 
z
" style="opacity:0.5;"/>
   </g>
   <g id="patch_145">
    <path clip-path="url(#p5f84cc5d82)" d="M 153.12103 279 
L 156.783808 279 
L 156.783808 233.319328 
L 153.12103 233.319328 
z
" style="opacity:0.5;"/>
   </g>
   <g id="patch_146">
    <path clip-path="url(#p5f84cc5d82)" d="M 156.783808 279 
L 160.446585 279 
L 160.446585 218.092437 
L 156.783808 218.092437 
z
" style="opacity:0.5;"/>
   </g>
   <g id="patch_147">
    <path clip-path="url(#p5f84cc5d82)" d="M 160.446585 279 
L 164.109363 279 
L 164.109363 202.865546 
L 160.446585 202.865546 
z
" style="opacity:0.5;"/>
   </g>
   <g id="patch_148">
    <path clip-path="url(#p5f84cc5d82)" d="M 164.109363 279 
L 167.77214 279 
L 167.77214 221.89916 
L 164.109363 221.89916 
z
" style="opacity:0.5;"/>
   </g>
   <g id="patch_149">
    <path clip-path="url(#p5f84cc5d82)" d="M 167.77214 279 
L 171.434918 279 
L 171.434918 244.739496 
L 167.77214 244.739496 
z
" style="opacity:0.5;"/>
   </g>
   <g id="patch_150">
    <path clip-path="url(#p5f84cc5d82)" d="M 171.434918 279 
L 175.097695 279 
L 175.097695 256.159664 
L 171.434918 256.159664 
z
" style="opacity:0.5;"/>
   </g>
   <g id="patch_151">
    <path clip-path="url(#p5f84cc5d82)" d="M 175.097695 279 
L 178.760473 279 
L 178.760473 240.932773 
L 175.097695 240.932773 
z
" style="opacity:0.5;"/>
   </g>
   <g id="patch_152">
    <path clip-path="url(#p5f84cc5d82)" d="M 178.760473 279 
L 182.42325 279 
L 182.42325 263.773109 
L 178.760473 263.773109 
z
" style="opacity:0.5;"/>
   </g>
   <g id="patch_153">
    <path clip-path="url(#p5f84cc5d82)" d="M 182.42325 279 
L 186.086028 279 
L 186.086028 240.932773 
L 182.42325 240.932773 
z
" style="opacity:0.5;"/>
   </g>
   <g id="patch_154">
    <path clip-path="url(#p5f84cc5d82)" d="M 186.086028 279 
L 189.748805 279 
L 189.748805 263.773109 
L 186.086028 263.773109 
z
" style="opacity:0.5;"/>
   </g>
   <g id="patch_155">
    <path clip-path="url(#p5f84cc5d82)" d="M 189.748805 279 
L 193.411583 279 
L 193.411583 263.773109 
L 189.748805 263.773109 
z
" style="opacity:0.5;"/>
   </g>
   <g id="patch_156">
    <path clip-path="url(#p5f84cc5d82)" d="M 193.411583 279 
L 197.07436 279 
L 197.07436 267.579832 
L 193.411583 267.579832 
z
" style="opacity:0.5;"/>
   </g>
   <g id="patch_157">
    <path clip-path="url(#p5f84cc5d82)" d="M 197.07436 279 
L 200.737138 279 
L 200.737138 275.193277 
L 197.07436 275.193277 
z
" style="opacity:0.5;"/>
   </g>
   <g id="patch_158">
    <path clip-path="url(#p5f84cc5d82)" d="M 200.737138 279 
L 204.399915 279 
L 204.399915 263.773109 
L 200.737138 263.773109 
z
" style="opacity:0.5;"/>
   </g>
   <g id="patch_159">
    <path clip-path="url(#p5f84cc5d82)" d="M 204.399915 279 
L 208.062693 279 
L 208.062693 263.773109 
L 204.399915 263.773109 
z
" style="opacity:0.5;"/>
   </g>
   <g id="patch_160">
    <path clip-path="url(#p5f84cc5d82)" d="M 208.062693 279 
L 211.72547 279 
L 211.72547 275.193277 
L 208.062693 275.193277 
z
" style="opacity:0.5;"/>
   </g>
   <g id="patch_161">
    <path clip-path="url(#p5f84cc5d82)" d="M 211.72547 279 
L 215.388248 279 
L 215.388248 275.193277 
L 211.72547 275.193277 
z
" style="opacity:0.5;"/>
   </g>
   <g id="patch_162">
    <path clip-path="url(#p5f84cc5d82)" d="M 215.388248 279 
L 219.051025 279 
L 219.051025 271.386555 
L 215.388248 271.386555 
z
" style="opacity:0.5;"/>
   </g>
   <g id="patch_163">
    <path d="M 21.821875 279 
L 21.821875 143.1 
" style="fill:none;stroke:#cccccc;stroke-linecap:square;stroke-linejoin:miter;"/>
   </g>
   <g id="patch_164">
    <path d="M 245.021875 279 
L 245.021875 143.1 
" style="fill:none;stroke:#cccccc;stroke-linecap:square;stroke-linejoin:miter;"/>
   </g>
   <g id="patch_165">
    <path d="M 21.821875 279 
L 245.021875 279 
" style="fill:none;stroke:#cccccc;stroke-linecap:square;stroke-linejoin:miter;"/>
   </g>
   <g id="patch_166">
    <path d="M 21.821875 143.1 
L 245.021875 143.1 
" style="fill:none;stroke:#cccccc;stroke-linecap:square;stroke-linejoin:miter;"/>
   </g>
  </g>
  <g id="axes_4">
   <g id="patch_167">
    <path d="M 245.021875 279 
L 468.221875 279 
L 468.221875 143.1 
L 245.021875 143.1 
z
" style="fill:#ffffff;"/>
   </g>
   <g id="matplotlib.axis_7">
    <g id="xtick_22">
     <g id="line2d_67">
      <path clip-path="url(#p410c0ece24)" d="M 258.938306 279 
L 258.938306 143.1 
" style="fill:none;stroke:#cccccc;stroke-linecap:round;stroke-width:0.8;"/>
     </g>
     <g id="line2d_68"/>
     <g id="text_16">
      <!-- −3 -->
      <g style="fill:#262626;" transform="translate(253.237525 289.657812)scale(0.1 -0.1)">
       <use xlink:href="#ArialMT-8722"/>
       <use x="58.398438" xlink:href="#ArialMT-51"/>
      </g>
     </g>
    </g>
    <g id="xtick_23">
     <g id="line2d_69">
      <path clip-path="url(#p410c0ece24)" d="M 291.208429 279 
L 291.208429 143.1 
" style="fill:none;stroke:#cccccc;stroke-linecap:round;stroke-width:0.8;"/>
     </g>
     <g id="line2d_70"/>
     <g id="text_17">
      <!-- −2 -->
      <g style="fill:#262626;" transform="translate(285.507648 289.657812)scale(0.1 -0.1)">
       <use xlink:href="#ArialMT-8722"/>
       <use x="58.398438" xlink:href="#ArialMT-50"/>
      </g>
     </g>
    </g>
    <g id="xtick_24">
     <g id="line2d_71">
      <path clip-path="url(#p410c0ece24)" d="M 323.478552 279 
L 323.478552 143.1 
" style="fill:none;stroke:#cccccc;stroke-linecap:round;stroke-width:0.8;"/>
     </g>
     <g id="line2d_72"/>
     <g id="text_18">
      <!-- −1 -->
      <g style="fill:#262626;" transform="translate(317.777771 289.657812)scale(0.1 -0.1)">
       <use xlink:href="#ArialMT-8722"/>
       <use x="58.398438" xlink:href="#ArialMT-49"/>
      </g>
     </g>
    </g>
    <g id="xtick_25">
     <g id="line2d_73">
      <path clip-path="url(#p410c0ece24)" d="M 355.748675 279 
L 355.748675 143.1 
" style="fill:none;stroke:#cccccc;stroke-linecap:round;stroke-width:0.8;"/>
     </g>
     <g id="line2d_74"/>
     <g id="text_19">
      <!-- 0 -->
      <g style="fill:#262626;" transform="translate(352.968206 289.657812)scale(0.1 -0.1)">
       <use xlink:href="#ArialMT-48"/>
      </g>
     </g>
    </g>
    <g id="xtick_26">
     <g id="line2d_75">
      <path clip-path="url(#p410c0ece24)" d="M 388.018798 279 
L 388.018798 143.1 
" style="fill:none;stroke:#cccccc;stroke-linecap:round;stroke-width:0.8;"/>
     </g>
     <g id="line2d_76"/>
     <g id="text_20">
      <!-- 1 -->
      <g style="fill:#262626;" transform="translate(385.238329 289.657812)scale(0.1 -0.1)">
       <use xlink:href="#ArialMT-49"/>
      </g>
     </g>
    </g>
    <g id="xtick_27">
     <g id="line2d_77">
      <path clip-path="url(#p410c0ece24)" d="M 420.288921 279 
L 420.288921 143.1 
" style="fill:none;stroke:#cccccc;stroke-linecap:round;stroke-width:0.8;"/>
     </g>
     <g id="line2d_78"/>
     <g id="text_21">
      <!-- 2 -->
      <g style="fill:#262626;" transform="translate(417.508452 289.657812)scale(0.1 -0.1)">
       <use xlink:href="#ArialMT-50"/>
      </g>
     </g>
    </g>
    <g id="xtick_28">
     <g id="line2d_79">
      <path clip-path="url(#p410c0ece24)" d="M 452.559044 279 
L 452.559044 143.1 
" style="fill:none;stroke:#cccccc;stroke-linecap:round;stroke-width:0.8;"/>
     </g>
     <g id="line2d_80"/>
     <g id="text_22">
      <!-- 3 -->
      <g style="fill:#262626;" transform="translate(449.778575 289.657812)scale(0.1 -0.1)">
       <use xlink:href="#ArialMT-51"/>
      </g>
     </g>
    </g>
   </g>
   <g id="matplotlib.axis_8">
    <g id="ytick_13">
     <g id="line2d_81">
      <path clip-path="url(#p410c0ece24)" d="M 245.021875 279 
L 468.221875 279 
" style="fill:none;stroke:#cccccc;stroke-linecap:round;stroke-width:0.8;"/>
     </g>
     <g id="line2d_82"/>
    </g>
    <g id="ytick_14">
     <g id="line2d_83">
      <path clip-path="url(#p410c0ece24)" d="M 245.021875 240.932773 
L 468.221875 240.932773 
" style="fill:none;stroke:#cccccc;stroke-linecap:round;stroke-width:0.8;"/>
     </g>
     <g id="line2d_84"/>
    </g>
    <g id="ytick_15">
     <g id="line2d_85">
      <path clip-path="url(#p410c0ece24)" d="M 245.021875 202.865546 
L 468.221875 202.865546 
" style="fill:none;stroke:#cccccc;stroke-linecap:round;stroke-width:0.8;"/>
     </g>
     <g id="line2d_86"/>
    </g>
    <g id="ytick_16">
     <g id="line2d_87">
      <path clip-path="url(#p410c0ece24)" d="M 245.021875 164.798319 
L 468.221875 164.798319 
" style="fill:none;stroke:#cccccc;stroke-linecap:round;stroke-width:0.8;"/>
     </g>
     <g id="line2d_88"/>
    </g>
   </g>
   <g id="patch_168">
    <path clip-path="url(#p410c0ece24)" d="M 255.16733 279 
L 259.069402 279 
L 259.069402 275.193277 
L 255.16733 275.193277 
z
" style="opacity:0.5;"/>
   </g>
   <g id="patch_169">
    <path clip-path="url(#p410c0ece24)" d="M 259.069402 279 
L 262.971475 279 
L 262.971475 279 
L 259.069402 279 
z
" style="opacity:0.5;"/>
   </g>
   <g id="patch_170">
    <path clip-path="url(#p410c0ece24)" d="M 262.971475 279 
L 266.873548 279 
L 266.873548 275.193277 
L 262.971475 275.193277 
z
" style="opacity:0.5;"/>
   </g>
   <g id="patch_171">
    <path clip-path="url(#p410c0ece24)" d="M 266.873548 279 
L 270.775621 279 
L 270.775621 279 
L 266.873548 279 
z
" style="opacity:0.5;"/>
   </g>
   <g id="patch_172">
    <path clip-path="url(#p410c0ece24)" d="M 270.775621 279 
L 274.677694 279 
L 274.677694 279 
L 270.775621 279 
z
" style="opacity:0.5;"/>
   </g>
   <g id="patch_173">
    <path clip-path="url(#p410c0ece24)" d="M 274.677694 279 
L 278.579766 279 
L 278.579766 275.193277 
L 274.677694 275.193277 
z
" style="opacity:0.5;"/>
   </g>
   <g id="patch_174">
    <path clip-path="url(#p410c0ece24)" d="M 278.579766 279 
L 282.481839 279 
L 282.481839 275.193277 
L 278.579766 275.193277 
z
" style="opacity:0.5;"/>
   </g>
   <g id="patch_175">
    <path clip-path="url(#p410c0ece24)" d="M 282.481839 279 
L 286.383912 279 
L 286.383912 275.193277 
L 282.481839 275.193277 
z
" style="opacity:0.5;"/>
   </g>
   <g id="patch_176">
    <path clip-path="url(#p410c0ece24)" d="M 286.383912 279 
L 290.285985 279 
L 290.285985 267.579832 
L 286.383912 267.579832 
z
" style="opacity:0.5;"/>
   </g>
   <g id="patch_177">
    <path clip-path="url(#p410c0ece24)" d="M 290.285985 279 
L 294.188058 279 
L 294.188058 275.193277 
L 290.285985 275.193277 
z
" style="opacity:0.5;"/>
   </g>
   <g id="patch_178">
    <path clip-path="url(#p410c0ece24)" d="M 294.188058 279 
L 298.090131 279 
L 298.090131 259.966387 
L 294.188058 259.966387 
z
" style="opacity:0.5;"/>
   </g>
   <g id="patch_179">
    <path clip-path="url(#p410c0ece24)" d="M 298.090131 279 
L 301.992203 279 
L 301.992203 252.352941 
L 298.090131 252.352941 
z
" style="opacity:0.5;"/>
   </g>
   <g id="patch_180">
    <path clip-path="url(#p410c0ece24)" d="M 301.992203 279 
L 305.894276 279 
L 305.894276 221.89916 
L 301.992203 221.89916 
z
" style="opacity:0.5;"/>
   </g>
   <g id="patch_181">
    <path clip-path="url(#p410c0ece24)" d="M 305.894276 279 
L 309.796349 279 
L 309.796349 248.546218 
L 305.894276 248.546218 
z
" style="opacity:0.5;"/>
   </g>
   <g id="patch_182">
    <path clip-path="url(#p410c0ece24)" d="M 309.796349 279 
L 313.698422 279 
L 313.698422 240.932773 
L 309.796349 240.932773 
z
" style="opacity:0.5;"/>
   </g>
   <g id="patch_183">
    <path clip-path="url(#p410c0ece24)" d="M 313.698422 279 
L 317.600495 279 
L 317.600495 252.352941 
L 313.698422 252.352941 
z
" style="opacity:0.5;"/>
   </g>
   <g id="patch_184">
    <path clip-path="url(#p410c0ece24)" d="M 317.600495 279 
L 321.502567 279 
L 321.502567 244.739496 
L 317.600495 244.739496 
z
" style="opacity:0.5;"/>
   </g>
   <g id="patch_185">
    <path clip-path="url(#p410c0ece24)" d="M 321.502567 279 
L 325.40464 279 
L 325.40464 195.252101 
L 321.502567 195.252101 
z
" style="opacity:0.5;"/>
   </g>
   <g id="patch_186">
    <path clip-path="url(#p410c0ece24)" d="M 325.40464 279 
L 329.306713 279 
L 329.306713 210.478992 
L 325.40464 210.478992 
z
" style="opacity:0.5;"/>
   </g>
   <g id="patch_187">
    <path clip-path="url(#p410c0ece24)" d="M 329.306713 279 
L 333.208786 279 
L 333.208786 176.218487 
L 329.306713 176.218487 
z
" style="opacity:0.5;"/>
   </g>
   <g id="patch_188">
    <path clip-path="url(#p410c0ece24)" d="M 333.208786 279 
L 337.110859 279 
L 337.110859 199.058824 
L 333.208786 199.058824 
z
" style="opacity:0.5;"/>
   </g>
   <g id="patch_189">
    <path clip-path="url(#p410c0ece24)" d="M 337.110859 279 
L 341.012932 279 
L 341.012932 221.89916 
L 337.110859 221.89916 
z
" style="opacity:0.5;"/>
   </g>
   <g id="patch_190">
    <path clip-path="url(#p410c0ece24)" d="M 341.012932 279 
L 344.915004 279 
L 344.915004 214.285714 
L 341.012932 214.285714 
z
" style="opacity:0.5;"/>
   </g>
   <g id="patch_191">
    <path clip-path="url(#p410c0ece24)" d="M 344.915004 279 
L 348.817077 279 
L 348.817077 191.445378 
L 344.915004 191.445378 
z
" style="opacity:0.5;"/>
   </g>
   <g id="patch_192">
    <path clip-path="url(#p410c0ece24)" d="M 348.817077 279 
L 352.71915 279 
L 352.71915 172.411765 
L 348.817077 172.411765 
z
" style="opacity:0.5;"/>
   </g>
   <g id="patch_193">
    <path clip-path="url(#p410c0ece24)" d="M 352.71915 279 
L 356.621223 279 
L 356.621223 172.411765 
L 352.71915 172.411765 
z
" style="opacity:0.5;"/>
   </g>
   <g id="patch_194">
    <path clip-path="url(#p410c0ece24)" d="M 356.621223 279 
L 360.523296 279 
L 360.523296 157.184874 
L 356.621223 157.184874 
z
" style="opacity:0.5;"/>
   </g>
   <g id="patch_195">
    <path clip-path="url(#p410c0ece24)" d="M 360.523296 279 
L 364.425368 279 
L 364.425368 206.672269 
L 360.523296 206.672269 
z
" style="opacity:0.5;"/>
   </g>
   <g id="patch_196">
    <path clip-path="url(#p410c0ece24)" d="M 364.425368 279 
L 368.327441 279 
L 368.327441 221.89916 
L 364.425368 221.89916 
z
" style="opacity:0.5;"/>
   </g>
   <g id="patch_197">
    <path clip-path="url(#p410c0ece24)" d="M 368.327441 279 
L 372.229514 279 
L 372.229514 183.831933 
L 368.327441 183.831933 
z
" style="opacity:0.5;"/>
   </g>
   <g id="patch_198">
    <path clip-path="url(#p410c0ece24)" d="M 372.229514 279 
L 376.131587 279 
L 376.131587 206.672269 
L 372.229514 206.672269 
z
" style="opacity:0.5;"/>
   </g>
   <g id="patch_199">
    <path clip-path="url(#p410c0ece24)" d="M 376.131587 279 
L 380.03366 279 
L 380.03366 218.092437 
L 376.131587 218.092437 
z
" style="opacity:0.5;"/>
   </g>
   <g id="patch_200">
    <path clip-path="url(#p410c0ece24)" d="M 380.03366 279 
L 383.935733 279 
L 383.935733 233.319328 
L 380.03366 233.319328 
z
" style="opacity:0.5;"/>
   </g>
   <g id="patch_201">
    <path clip-path="url(#p410c0ece24)" d="M 383.935733 279 
L 387.837805 279 
L 387.837805 225.705882 
L 383.935733 225.705882 
z
" style="opacity:0.5;"/>
   </g>
   <g id="patch_202">
    <path clip-path="url(#p410c0ece24)" d="M 387.837805 279 
L 391.739878 279 
L 391.739878 233.319328 
L 387.837805 233.319328 
z
" style="opacity:0.5;"/>
   </g>
   <g id="patch_203">
    <path clip-path="url(#p410c0ece24)" d="M 391.739878 279 
L 395.641951 279 
L 395.641951 252.352941 
L 391.739878 252.352941 
z
" style="opacity:0.5;"/>
   </g>
   <g id="patch_204">
    <path clip-path="url(#p410c0ece24)" d="M 395.641951 279 
L 399.544024 279 
L 399.544024 233.319328 
L 395.641951 233.319328 
z
" style="opacity:0.5;"/>
   </g>
   <g id="patch_205">
    <path clip-path="url(#p410c0ece24)" d="M 399.544024 279 
L 403.446097 279 
L 403.446097 229.512605 
L 399.544024 229.512605 
z
" style="opacity:0.5;"/>
   </g>
   <g id="patch_206">
    <path clip-path="url(#p410c0ece24)" d="M 403.446097 279 
L 407.34817 279 
L 407.34817 240.932773 
L 403.446097 240.932773 
z
" style="opacity:0.5;"/>
   </g>
   <g id="patch_207">
    <path clip-path="url(#p410c0ece24)" d="M 407.34817 279 
L 411.250242 279 
L 411.250242 252.352941 
L 407.34817 252.352941 
z
" style="opacity:0.5;"/>
   </g>
   <g id="patch_208">
    <path clip-path="url(#p410c0ece24)" d="M 411.250242 279 
L 415.152315 279 
L 415.152315 256.159664 
L 411.250242 256.159664 
z
" style="opacity:0.5;"/>
   </g>
   <g id="patch_209">
    <path clip-path="url(#p410c0ece24)" d="M 415.152315 279 
L 419.054388 279 
L 419.054388 267.579832 
L 415.152315 267.579832 
z
" style="opacity:0.5;"/>
   </g>
   <g id="patch_210">
    <path clip-path="url(#p410c0ece24)" d="M 419.054388 279 
L 422.956461 279 
L 422.956461 263.773109 
L 419.054388 263.773109 
z
" style="opacity:0.5;"/>
   </g>
   <g id="patch_211">
    <path clip-path="url(#p410c0ece24)" d="M 422.956461 279 
L 426.858534 279 
L 426.858534 275.193277 
L 422.956461 275.193277 
z
" style="opacity:0.5;"/>
   </g>
   <g id="patch_212">
    <path clip-path="url(#p410c0ece24)" d="M 426.858534 279 
L 430.760606 279 
L 430.760606 275.193277 
L 426.858534 275.193277 
z
" style="opacity:0.5;"/>
   </g>
   <g id="patch_213">
    <path clip-path="url(#p410c0ece24)" d="M 430.760606 279 
L 434.662679 279 
L 434.662679 279 
L 430.760606 279 
z
" style="opacity:0.5;"/>
   </g>
   <g id="patch_214">
    <path clip-path="url(#p410c0ece24)" d="M 434.662679 279 
L 438.564752 279 
L 438.564752 275.193277 
L 434.662679 275.193277 
z
" style="opacity:0.5;"/>
   </g>
   <g id="patch_215">
    <path clip-path="url(#p410c0ece24)" d="M 438.564752 279 
L 442.466825 279 
L 442.466825 275.193277 
L 438.564752 275.193277 
z
" style="opacity:0.5;"/>
   </g>
   <g id="patch_216">
    <path clip-path="url(#p410c0ece24)" d="M 442.466825 279 
L 446.368898 279 
L 446.368898 279 
L 442.466825 279 
z
" style="opacity:0.5;"/>
   </g>
   <g id="patch_217">
    <path clip-path="url(#p410c0ece24)" d="M 446.368898 279 
L 450.270971 279 
L 450.270971 275.193277 
L 446.368898 275.193277 
z
" style="opacity:0.5;"/>
   </g>
   <g id="patch_218">
    <path d="M 245.021875 279 
L 245.021875 143.1 
" style="fill:none;stroke:#cccccc;stroke-linecap:square;stroke-linejoin:miter;"/>
   </g>
   <g id="patch_219">
    <path d="M 468.221875 279 
L 468.221875 143.1 
" style="fill:none;stroke:#cccccc;stroke-linecap:square;stroke-linejoin:miter;"/>
   </g>
   <g id="patch_220">
    <path d="M 245.021875 279 
L 468.221875 279 
" style="fill:none;stroke:#cccccc;stroke-linecap:square;stroke-linejoin:miter;"/>
   </g>
   <g id="patch_221">
    <path d="M 245.021875 143.1 
L 468.221875 143.1 
" style="fill:none;stroke:#cccccc;stroke-linecap:square;stroke-linejoin:miter;"/>
   </g>
  </g>
 </g>
 <defs>
  <clipPath id="p0ac385437c">
   <rect height="135.9" width="223.2" x="21.821875" y="7.2"/>
  </clipPath>
  <clipPath id="p41b65cba61">
   <rect height="135.9" width="223.2" x="245.021875" y="7.2"/>
  </clipPath>
  <clipPath id="p5f84cc5d82">
   <rect height="135.9" width="223.2" x="21.821875" y="143.1"/>
  </clipPath>
  <clipPath id="p410c0ece24">
   <rect height="135.9" width="223.2" x="245.021875" y="143.1"/>
  </clipPath>
 </defs>
</svg>
