<?xml version="1.0" encoding="utf-8" standalone="no"?>
<!DOCTYPE svg PUBLIC "-//W3C//DTD SVG 1.1//EN"
  "http://www.w3.org/Graphics/SVG/1.1/DTD/svg11.dtd">
<!-- Created with matplotlib (https://matplotlib.org/) -->
<svg height="326.72625pt" version="1.1" viewBox="0 0 502.746875 326.72625" width="502.746875pt" xmlns="http://www.w3.org/2000/svg" xmlns:xlink="http://www.w3.org/1999/xlink">
 <defs>
  <style type="text/css">
*{stroke-linecap:butt;stroke-linejoin:round;}
  </style>
 </defs>
 <g id="figure_1">
  <g id="patch_1">
   <path d="M 0 326.72625 
L 502.746875 326.72625 
L 502.746875 0 
L 0 0 
z
" style="fill:#ffffff;"/>
  </g>
  <g id="axes_1">
   <g id="patch_2">
    <path d="M 49.146875 293.735625 
L 495.546875 293.735625 
L 495.546875 21.935625 
L 49.146875 21.935625 
z
" style="fill:#ffffff;"/>
   </g>
   <g id="matplotlib.axis_1">
    <g id="xtick_1">
     <g id="line2d_1">
      <path clip-path="url(#p714992d649)" d="M 87.047469 293.735625 
L 87.047469 21.935625 
" style="fill:none;stroke:#cccccc;stroke-linecap:round;stroke-width:0.8;"/>
     </g>
     <g id="line2d_2"/>
     <g id="text_1">
      <!-- −0.02 -->
      <defs>
       <path d="M 52.828125 31.203125 
L 5.5625 31.203125 
L 5.5625 39.40625 
L 52.828125 39.40625 
z
" id="ArialMT-8722"/>
       <path d="M 4.15625 35.296875 
Q 4.15625 48 6.765625 55.734375 
Q 9.375 63.484375 14.515625 67.671875 
Q 19.671875 71.875 27.484375 71.875 
Q 33.25 71.875 37.59375 69.546875 
Q 41.9375 67.234375 44.765625 62.859375 
Q 47.609375 58.5 49.21875 52.21875 
Q 50.828125 45.953125 50.828125 35.296875 
Q 50.828125 22.703125 48.234375 14.96875 
Q 45.65625 7.234375 40.5 3 
Q 35.359375 -1.21875 27.484375 -1.21875 
Q 17.140625 -1.21875 11.234375 6.203125 
Q 4.15625 15.140625 4.15625 35.296875 
z
M 13.1875 35.296875 
Q 13.1875 17.671875 17.3125 11.828125 
Q 21.4375 6 27.484375 6 
Q 33.546875 6 37.671875 11.859375 
Q 41.796875 17.71875 41.796875 35.296875 
Q 41.796875 52.984375 37.671875 58.78125 
Q 33.546875 64.59375 27.390625 64.59375 
Q 21.34375 64.59375 17.71875 59.46875 
Q 13.1875 52.9375 13.1875 35.296875 
z
" id="ArialMT-48"/>
       <path d="M 9.078125 0 
L 9.078125 10.015625 
L 19.09375 10.015625 
L 19.09375 0 
z
" id="ArialMT-46"/>
       <path d="M 50.34375 8.453125 
L 50.34375 0 
L 3.03125 0 
Q 2.9375 3.171875 4.046875 6.109375 
Q 5.859375 10.9375 9.828125 15.625 
Q 13.8125 20.3125 21.34375 26.46875 
Q 33.015625 36.03125 37.109375 41.625 
Q 41.21875 47.21875 41.21875 52.203125 
Q 41.21875 57.421875 37.46875 61 
Q 33.734375 64.59375 27.734375 64.59375 
Q 21.390625 64.59375 17.578125 60.78125 
Q 13.765625 56.984375 13.71875 50.25 
L 4.6875 51.171875 
Q 5.609375 61.28125 11.65625 66.578125 
Q 17.71875 71.875 27.9375 71.875 
Q 38.234375 71.875 44.234375 66.15625 
Q 50.25 60.453125 50.25 52 
Q 50.25 47.703125 48.484375 43.546875 
Q 46.734375 39.40625 42.65625 34.8125 
Q 38.578125 30.21875 29.109375 22.21875 
Q 21.1875 15.578125 18.9375 13.203125 
Q 16.703125 10.84375 15.234375 8.453125 
z
" id="ArialMT-50"/>
      </defs>
      <g style="fill:#262626;" transform="translate(74.396688 304.393437)scale(0.1 -0.1)">
       <use xlink:href="#ArialMT-8722"/>
       <use x="58.398438" xlink:href="#ArialMT-48"/>
       <use x="114.013672" xlink:href="#ArialMT-46"/>
       <use x="141.796875" xlink:href="#ArialMT-48"/>
       <use x="197.412109" xlink:href="#ArialMT-50"/>
      </g>
     </g>
    </g>
    <g id="xtick_2">
     <g id="line2d_3">
      <path clip-path="url(#p714992d649)" d="M 176.535908 293.735625 
L 176.535908 21.935625 
" style="fill:none;stroke:#cccccc;stroke-linecap:round;stroke-width:0.8;"/>
     </g>
     <g id="line2d_4"/>
     <g id="text_2">
      <!-- 0.00 -->
      <g style="fill:#262626;" transform="translate(166.805439 304.393437)scale(0.1 -0.1)">
       <use xlink:href="#ArialMT-48"/>
       <use x="55.615234" xlink:href="#ArialMT-46"/>
       <use x="83.398438" xlink:href="#ArialMT-48"/>
       <use x="139.013672" xlink:href="#ArialMT-48"/>
      </g>
     </g>
    </g>
    <g id="xtick_3">
     <g id="line2d_5">
      <path clip-path="url(#p714992d649)" d="M 266.024348 293.735625 
L 266.024348 21.935625 
" style="fill:none;stroke:#cccccc;stroke-linecap:round;stroke-width:0.8;"/>
     </g>
     <g id="line2d_6"/>
     <g id="text_3">
      <!-- 0.02 -->
      <g style="fill:#262626;" transform="translate(256.293879 304.393437)scale(0.1 -0.1)">
       <use xlink:href="#ArialMT-48"/>
       <use x="55.615234" xlink:href="#ArialMT-46"/>
       <use x="83.398438" xlink:href="#ArialMT-48"/>
       <use x="139.013672" xlink:href="#ArialMT-50"/>
      </g>
     </g>
    </g>
    <g id="xtick_4">
     <g id="line2d_7">
      <path clip-path="url(#p714992d649)" d="M 355.512787 293.735625 
L 355.512787 21.935625 
" style="fill:none;stroke:#cccccc;stroke-linecap:round;stroke-width:0.8;"/>
     </g>
     <g id="line2d_8"/>
     <g id="text_4">
      <!-- 0.04 -->
      <defs>
       <path d="M 32.328125 0 
L 32.328125 17.140625 
L 1.265625 17.140625 
L 1.265625 25.203125 
L 33.9375 71.578125 
L 41.109375 71.578125 
L 41.109375 25.203125 
L 50.78125 25.203125 
L 50.78125 17.140625 
L 41.109375 17.140625 
L 41.109375 0 
z
M 32.328125 25.203125 
L 32.328125 57.46875 
L 9.90625 25.203125 
z
" id="ArialMT-52"/>
      </defs>
      <g style="fill:#262626;" transform="translate(345.782318 304.393437)scale(0.1 -0.1)">
       <use xlink:href="#ArialMT-48"/>
       <use x="55.615234" xlink:href="#ArialMT-46"/>
       <use x="83.398438" xlink:href="#ArialMT-48"/>
       <use x="139.013672" xlink:href="#ArialMT-52"/>
      </g>
     </g>
    </g>
    <g id="xtick_5">
     <g id="line2d_9">
      <path clip-path="url(#p714992d649)" d="M 445.001226 293.735625 
L 445.001226 21.935625 
" style="fill:none;stroke:#cccccc;stroke-linecap:round;stroke-width:0.8;"/>
     </g>
     <g id="line2d_10"/>
     <g id="text_5">
      <!-- 0.06 -->
      <defs>
       <path d="M 49.75 54.046875 
L 41.015625 53.375 
Q 39.84375 58.546875 37.703125 60.890625 
Q 34.125 64.65625 28.90625 64.65625 
Q 24.703125 64.65625 21.53125 62.3125 
Q 17.390625 59.28125 14.984375 53.46875 
Q 12.59375 47.65625 12.5 36.921875 
Q 15.671875 41.75 20.265625 44.09375 
Q 24.859375 46.4375 29.890625 46.4375 
Q 38.671875 46.4375 44.84375 39.96875 
Q 51.03125 33.5 51.03125 23.25 
Q 51.03125 16.5 48.125 10.71875 
Q 45.21875 4.9375 40.140625 1.859375 
Q 35.0625 -1.21875 28.609375 -1.21875 
Q 17.625 -1.21875 10.6875 6.859375 
Q 3.765625 14.9375 3.765625 33.5 
Q 3.765625 54.25 11.421875 63.671875 
Q 18.109375 71.875 29.4375 71.875 
Q 37.890625 71.875 43.28125 67.140625 
Q 48.6875 62.40625 49.75 54.046875 
z
M 13.875 23.1875 
Q 13.875 18.65625 15.796875 14.5 
Q 17.71875 10.359375 21.1875 8.171875 
Q 24.65625 6 28.46875 6 
Q 34.03125 6 38.03125 10.484375 
Q 42.046875 14.984375 42.046875 22.703125 
Q 42.046875 30.125 38.078125 34.390625 
Q 34.125 38.671875 28.125 38.671875 
Q 22.171875 38.671875 18.015625 34.390625 
Q 13.875 30.125 13.875 23.1875 
z
" id="ArialMT-54"/>
      </defs>
      <g style="fill:#262626;" transform="translate(435.270757 304.393437)scale(0.1 -0.1)">
       <use xlink:href="#ArialMT-48"/>
       <use x="55.615234" xlink:href="#ArialMT-46"/>
       <use x="83.398438" xlink:href="#ArialMT-48"/>
       <use x="139.013672" xlink:href="#ArialMT-54"/>
      </g>
     </g>
    </g>
    <g id="text_6">
     <!-- m1 -->
     <defs>
      <path d="M 6.59375 0 
L 6.59375 51.859375 
L 14.453125 51.859375 
L 14.453125 44.578125 
Q 16.890625 48.390625 20.9375 50.703125 
Q 25 53.03125 30.171875 53.03125 
Q 35.9375 53.03125 39.625 50.640625 
Q 43.3125 48.25 44.828125 43.953125 
Q 50.984375 53.03125 60.84375 53.03125 
Q 68.5625 53.03125 72.703125 48.75 
Q 76.859375 44.484375 76.859375 35.59375 
L 76.859375 0 
L 68.109375 0 
L 68.109375 32.671875 
Q 68.109375 37.9375 67.25 40.25 
Q 66.40625 42.578125 64.15625 43.984375 
Q 61.921875 45.40625 58.890625 45.40625 
Q 53.421875 45.40625 49.796875 41.765625 
Q 46.1875 38.140625 46.1875 30.125 
L 46.1875 0 
L 37.40625 0 
L 37.40625 33.6875 
Q 37.40625 39.546875 35.25 42.46875 
Q 33.109375 45.40625 28.21875 45.40625 
Q 24.515625 45.40625 21.359375 43.453125 
Q 18.21875 41.5 16.796875 37.734375 
Q 15.375 33.984375 15.375 26.90625 
L 15.375 0 
z
" id="ArialMT-109"/>
      <path d="M 37.25 0 
L 28.46875 0 
L 28.46875 56 
Q 25.296875 52.984375 20.140625 49.953125 
Q 14.984375 46.921875 10.890625 45.40625 
L 10.890625 53.90625 
Q 18.265625 57.375 23.78125 62.296875 
Q 29.296875 67.234375 31.59375 71.875 
L 37.25 71.875 
z
" id="ArialMT-49"/>
     </defs>
     <g style="fill:#262626;" transform="translate(265.401563 317.53875)scale(0.1 -0.1)">
      <use xlink:href="#ArialMT-109"/>
      <use x="83.300781" xlink:href="#ArialMT-49"/>
     </g>
    </g>
   </g>
   <g id="matplotlib.axis_2">
    <g id="ytick_1">
     <g id="line2d_11">
      <path clip-path="url(#p714992d649)" d="M 49.146875 260.923778 
L 495.546875 260.923778 
" style="fill:none;stroke:#cccccc;stroke-linecap:round;stroke-width:0.8;"/>
     </g>
     <g id="line2d_12"/>
     <g id="text_7">
      <!-- −0.10 -->
      <g style="fill:#262626;" transform="translate(20.345313 264.502685)scale(0.1 -0.1)">
       <use xlink:href="#ArialMT-8722"/>
       <use x="58.398438" xlink:href="#ArialMT-48"/>
       <use x="114.013672" xlink:href="#ArialMT-46"/>
       <use x="141.796875" xlink:href="#ArialMT-49"/>
       <use x="197.412109" xlink:href="#ArialMT-48"/>
      </g>
     </g>
    </g>
    <g id="ytick_2">
     <g id="line2d_13">
      <path clip-path="url(#p714992d649)" d="M 49.146875 225.184766 
L 495.546875 225.184766 
" style="fill:none;stroke:#cccccc;stroke-linecap:round;stroke-width:0.8;"/>
     </g>
     <g id="line2d_14"/>
     <g id="text_8">
      <!-- −0.05 -->
      <defs>
       <path d="M 4.15625 18.75 
L 13.375 19.53125 
Q 14.40625 12.796875 18.140625 9.390625 
Q 21.875 6 27.15625 6 
Q 33.5 6 37.890625 10.78125 
Q 42.28125 15.578125 42.28125 23.484375 
Q 42.28125 31 38.0625 35.34375 
Q 33.84375 39.703125 27 39.703125 
Q 22.75 39.703125 19.328125 37.765625 
Q 15.921875 35.84375 13.96875 32.765625 
L 5.71875 33.84375 
L 12.640625 70.609375 
L 48.25 70.609375 
L 48.25 62.203125 
L 19.671875 62.203125 
L 15.828125 42.96875 
Q 22.265625 47.46875 29.34375 47.46875 
Q 38.71875 47.46875 45.15625 40.96875 
Q 51.609375 34.46875 51.609375 24.265625 
Q 51.609375 14.546875 45.953125 7.46875 
Q 39.0625 -1.21875 27.15625 -1.21875 
Q 17.390625 -1.21875 11.203125 4.25 
Q 5.03125 9.71875 4.15625 18.75 
z
" id="ArialMT-53"/>
      </defs>
      <g style="fill:#262626;" transform="translate(20.345313 228.763673)scale(0.1 -0.1)">
       <use xlink:href="#ArialMT-8722"/>
       <use x="58.398438" xlink:href="#ArialMT-48"/>
       <use x="114.013672" xlink:href="#ArialMT-46"/>
       <use x="141.796875" xlink:href="#ArialMT-48"/>
       <use x="197.412109" xlink:href="#ArialMT-53"/>
      </g>
     </g>
    </g>
    <g id="ytick_3">
     <g id="line2d_15">
      <path clip-path="url(#p714992d649)" d="M 49.146875 189.445754 
L 495.546875 189.445754 
" style="fill:none;stroke:#cccccc;stroke-linecap:round;stroke-width:0.8;"/>
     </g>
     <g id="line2d_16"/>
     <g id="text_9">
      <!-- 0.00 -->
      <g style="fill:#262626;" transform="translate(26.185938 193.024661)scale(0.1 -0.1)">
       <use xlink:href="#ArialMT-48"/>
       <use x="55.615234" xlink:href="#ArialMT-46"/>
       <use x="83.398438" xlink:href="#ArialMT-48"/>
       <use x="139.013672" xlink:href="#ArialMT-48"/>
      </g>
     </g>
    </g>
    <g id="ytick_4">
     <g id="line2d_17">
      <path clip-path="url(#p714992d649)" d="M 49.146875 153.706742 
L 495.546875 153.706742 
" style="fill:none;stroke:#cccccc;stroke-linecap:round;stroke-width:0.8;"/>
     </g>
     <g id="line2d_18"/>
     <g id="text_10">
      <!-- 0.05 -->
      <g style="fill:#262626;" transform="translate(26.185938 157.285649)scale(0.1 -0.1)">
       <use xlink:href="#ArialMT-48"/>
       <use x="55.615234" xlink:href="#ArialMT-46"/>
       <use x="83.398438" xlink:href="#ArialMT-48"/>
       <use x="139.013672" xlink:href="#ArialMT-53"/>
      </g>
     </g>
    </g>
    <g id="ytick_5">
     <g id="line2d_19">
      <path clip-path="url(#p714992d649)" d="M 49.146875 117.96773 
L 495.546875 117.96773 
" style="fill:none;stroke:#cccccc;stroke-linecap:round;stroke-width:0.8;"/>
     </g>
     <g id="line2d_20"/>
     <g id="text_11">
      <!-- 0.10 -->
      <g style="fill:#262626;" transform="translate(26.185938 121.546637)scale(0.1 -0.1)">
       <use xlink:href="#ArialMT-48"/>
       <use x="55.615234" xlink:href="#ArialMT-46"/>
       <use x="83.398438" xlink:href="#ArialMT-49"/>
       <use x="139.013672" xlink:href="#ArialMT-48"/>
      </g>
     </g>
    </g>
    <g id="ytick_6">
     <g id="line2d_21">
      <path clip-path="url(#p714992d649)" d="M 49.146875 82.228718 
L 495.546875 82.228718 
" style="fill:none;stroke:#cccccc;stroke-linecap:round;stroke-width:0.8;"/>
     </g>
     <g id="line2d_22"/>
     <g id="text_12">
      <!-- 0.15 -->
      <g style="fill:#262626;" transform="translate(26.185938 85.807625)scale(0.1 -0.1)">
       <use xlink:href="#ArialMT-48"/>
       <use x="55.615234" xlink:href="#ArialMT-46"/>
       <use x="83.398438" xlink:href="#ArialMT-49"/>
       <use x="139.013672" xlink:href="#ArialMT-53"/>
      </g>
     </g>
    </g>
    <g id="ytick_7">
     <g id="line2d_23">
      <path clip-path="url(#p714992d649)" d="M 49.146875 46.489706 
L 495.546875 46.489706 
" style="fill:none;stroke:#cccccc;stroke-linecap:round;stroke-width:0.8;"/>
     </g>
     <g id="line2d_24"/>
     <g id="text_13">
      <!-- 0.20 -->
      <g style="fill:#262626;" transform="translate(26.185938 50.068613)scale(0.1 -0.1)">
       <use xlink:href="#ArialMT-48"/>
       <use x="55.615234" xlink:href="#ArialMT-46"/>
       <use x="83.398438" xlink:href="#ArialMT-50"/>
       <use x="139.013672" xlink:href="#ArialMT-48"/>
      </g>
     </g>
    </g>
    <g id="text_14">
     <!-- unemp -->
     <defs>
      <path d="M 40.578125 0 
L 40.578125 7.625 
Q 34.515625 -1.171875 24.125 -1.171875 
Q 19.53125 -1.171875 15.546875 0.578125 
Q 11.578125 2.34375 9.640625 5 
Q 7.71875 7.671875 6.9375 11.53125 
Q 6.390625 14.109375 6.390625 19.734375 
L 6.390625 51.859375 
L 15.1875 51.859375 
L 15.1875 23.09375 
Q 15.1875 16.21875 15.71875 13.8125 
Q 16.546875 10.359375 19.234375 8.375 
Q 21.921875 6.390625 25.875 6.390625 
Q 29.828125 6.390625 33.296875 8.421875 
Q 36.765625 10.453125 38.203125 13.9375 
Q 39.65625 17.4375 39.65625 24.078125 
L 39.65625 51.859375 
L 48.4375 51.859375 
L 48.4375 0 
z
" id="ArialMT-117"/>
      <path d="M 6.59375 0 
L 6.59375 51.859375 
L 14.5 51.859375 
L 14.5 44.484375 
Q 20.21875 53.03125 31 53.03125 
Q 35.6875 53.03125 39.625 51.34375 
Q 43.5625 49.65625 45.515625 46.921875 
Q 47.46875 44.1875 48.25 40.4375 
Q 48.734375 37.984375 48.734375 31.890625 
L 48.734375 0 
L 39.9375 0 
L 39.9375 31.546875 
Q 39.9375 36.921875 38.90625 39.578125 
Q 37.890625 42.234375 35.28125 43.8125 
Q 32.671875 45.40625 29.15625 45.40625 
Q 23.53125 45.40625 19.453125 41.84375 
Q 15.375 38.28125 15.375 28.328125 
L 15.375 0 
z
" id="ArialMT-110"/>
      <path d="M 42.09375 16.703125 
L 51.171875 15.578125 
Q 49.03125 7.625 43.21875 3.21875 
Q 37.40625 -1.171875 28.375 -1.171875 
Q 17 -1.171875 10.328125 5.828125 
Q 3.65625 12.84375 3.65625 25.484375 
Q 3.65625 38.578125 10.390625 45.796875 
Q 17.140625 53.03125 27.875 53.03125 
Q 38.28125 53.03125 44.875 45.953125 
Q 51.46875 38.875 51.46875 26.03125 
Q 51.46875 25.25 51.421875 23.6875 
L 12.75 23.6875 
Q 13.234375 15.140625 17.578125 10.59375 
Q 21.921875 6.0625 28.421875 6.0625 
Q 33.25 6.0625 36.671875 8.59375 
Q 40.09375 11.140625 42.09375 16.703125 
z
M 13.234375 30.90625 
L 42.1875 30.90625 
Q 41.609375 37.453125 38.875 40.71875 
Q 34.671875 45.796875 27.984375 45.796875 
Q 21.921875 45.796875 17.796875 41.75 
Q 13.671875 37.703125 13.234375 30.90625 
z
" id="ArialMT-101"/>
      <path d="M 6.59375 -19.875 
L 6.59375 51.859375 
L 14.59375 51.859375 
L 14.59375 45.125 
Q 17.4375 49.078125 21 51.046875 
Q 24.5625 53.03125 29.640625 53.03125 
Q 36.28125 53.03125 41.359375 49.609375 
Q 46.4375 46.1875 49.015625 39.953125 
Q 51.609375 33.734375 51.609375 26.3125 
Q 51.609375 18.359375 48.75 11.984375 
Q 45.90625 5.609375 40.453125 2.21875 
Q 35.015625 -1.171875 29 -1.171875 
Q 24.609375 -1.171875 21.109375 0.6875 
Q 17.625 2.546875 15.375 5.375 
L 15.375 -19.875 
z
M 14.546875 25.640625 
Q 14.546875 15.625 18.59375 10.84375 
Q 22.65625 6.0625 28.421875 6.0625 
Q 34.28125 6.0625 38.453125 11.015625 
Q 42.625 15.96875 42.625 26.375 
Q 42.625 36.28125 38.546875 41.203125 
Q 34.46875 46.140625 28.8125 46.140625 
Q 23.1875 46.140625 18.859375 40.890625 
Q 14.546875 35.640625 14.546875 25.640625 
z
" id="ArialMT-112"/>
     </defs>
     <g style="fill:#262626;" transform="translate(14.357813 173.122344)rotate(-90)scale(0.1 -0.1)">
      <use xlink:href="#ArialMT-117"/>
      <use x="55.615234" xlink:href="#ArialMT-110"/>
      <use x="111.230469" xlink:href="#ArialMT-101"/>
      <use x="166.845703" xlink:href="#ArialMT-109"/>
      <use x="250.146484" xlink:href="#ArialMT-112"/>
     </g>
    </g>
   </g>
   <g id="PathCollection_1">
    <defs>
     <path d="M 0 3 
C 0.795609 3 1.55874 2.683901 2.12132 2.12132 
C 2.683901 1.55874 3 0.795609 3 0 
C 3 -0.795609 2.683901 -1.55874 2.12132 -2.12132 
C 1.55874 -2.683901 0.795609 -3 0 -3 
C -0.795609 -3 -1.55874 -2.683901 -2.12132 -2.12132 
C -2.683901 -1.55874 -3 -0.795609 -3 0 
C -3 0.795609 -2.683901 1.55874 -2.12132 2.12132 
C -1.55874 2.683901 -0.795609 3 0 3 
z
" id="m4cf892921a" style="stroke:#8dd3c7;stroke-opacity:0.8;"/>
    </defs>
    <g clip-path="url(#p714992d649)">
     <use style="fill:#8dd3c7;fill-opacity:0.8;stroke:#8dd3c7;stroke-opacity:0.8;" x="240.139281" xlink:href="#m4cf892921a" y="281.378915"/>
     <use style="fill:#8dd3c7;fill-opacity:0.8;stroke:#8dd3c7;stroke-opacity:0.8;" x="138.48248" xlink:href="#m4cf892921a" y="161.950817"/>
     <use style="fill:#8dd3c7;fill-opacity:0.8;stroke:#8dd3c7;stroke-opacity:0.8;" x="160.584298" xlink:href="#m4cf892921a" y="150.090114"/>
     <use style="fill:#8dd3c7;fill-opacity:0.8;stroke:#8dd3c7;stroke-opacity:0.8;" x="163.733548" xlink:href="#m4cf892921a" y="242.416669"/>
     <use style="fill:#8dd3c7;fill-opacity:0.8;stroke:#8dd3c7;stroke-opacity:0.8;" x="195.725739" xlink:href="#m4cf892921a" y="189.445754"/>
     <use style="fill:#8dd3c7;fill-opacity:0.8;stroke:#8dd3c7;stroke-opacity:0.8;" x="198.820518" xlink:href="#m4cf892921a" y="136.47484"/>
     <use style="fill:#8dd3c7;fill-opacity:0.8;stroke:#8dd3c7;stroke-opacity:0.8;" x="182.882607" xlink:href="#m4cf892921a" y="105.256768"/>
     <use style="fill:#8dd3c7;fill-opacity:0.8;stroke:#8dd3c7;stroke-opacity:0.8;" x="208.135065" xlink:href="#m4cf892921a" y="134.855858"/>
     <use style="fill:#8dd3c7;fill-opacity:0.8;stroke:#8dd3c7;stroke-opacity:0.8;" x="201.655536" xlink:href="#m4cf892921a" y="168.726036"/>
     <use style="fill:#8dd3c7;fill-opacity:0.8;stroke:#8dd3c7;stroke-opacity:0.8;" x="213.952895" xlink:href="#m4cf892921a" y="210.165473"/>
     <use style="fill:#8dd3c7;fill-opacity:0.8;stroke:#8dd3c7;stroke-opacity:0.8;" x="210.562095" xlink:href="#m4cf892921a" y="255.472378"/>
     <use style="fill:#8dd3c7;fill-opacity:0.8;stroke:#8dd3c7;stroke-opacity:0.8;" x="213.362634" xlink:href="#m4cf892921a" y="262.198013"/>
     <use style="fill:#8dd3c7;fill-opacity:0.8;stroke:#8dd3c7;stroke-opacity:0.8;" x="179.591164" xlink:href="#m4cf892921a" y="202.325026"/>
     <use style="fill:#8dd3c7;fill-opacity:0.8;stroke:#8dd3c7;stroke-opacity:0.8;" x="182.640168" xlink:href="#m4cf892921a" y="176.566483"/>
     <use style="fill:#8dd3c7;fill-opacity:0.8;stroke:#8dd3c7;stroke-opacity:0.8;" x="225.072487" xlink:href="#m4cf892921a" y="202.325026"/>
     <use style="fill:#8dd3c7;fill-opacity:0.8;stroke:#8dd3c7;stroke-opacity:0.8;" x="218.577766" xlink:href="#m4cf892921a" y="151.483901"/>
     <use style="fill:#8dd3c7;fill-opacity:0.8;stroke:#8dd3c7;stroke-opacity:0.8;" x="224.104962" xlink:href="#m4cf892921a" y="201.877029"/>
     <use style="fill:#8dd3c7;fill-opacity:0.8;stroke:#8dd3c7;stroke-opacity:0.8;" x="214.816817" xlink:href="#m4cf892921a" y="214.976334"/>
     <use style="fill:#8dd3c7;fill-opacity:0.8;stroke:#8dd3c7;stroke-opacity:0.8;" x="208.673586" xlink:href="#m4cf892921a" y="176.566483"/>
     <use style="fill:#8dd3c7;fill-opacity:0.8;stroke:#8dd3c7;stroke-opacity:0.8;" x="208.444401" xlink:href="#m4cf892921a" y="202.325026"/>
     <use style="fill:#8dd3c7;fill-opacity:0.8;stroke:#8dd3c7;stroke-opacity:0.8;" x="233.97472" xlink:href="#m4cf892921a" y="229.537397"/>
     <use style="fill:#8dd3c7;fill-opacity:0.8;stroke:#8dd3c7;stroke-opacity:0.8;" x="244.503118" xlink:href="#m4cf892921a" y="217.479945"/>
     <use style="fill:#8dd3c7;fill-opacity:0.8;stroke:#8dd3c7;stroke-opacity:0.8;" x="218.497034" xlink:href="#m4cf892921a" y="189.445754"/>
     <use style="fill:#8dd3c7;fill-opacity:0.8;stroke:#8dd3c7;stroke-opacity:0.8;" x="212.586606" xlink:href="#m4cf892921a" y="203.88625"/>
     <use style="fill:#8dd3c7;fill-opacity:0.8;stroke:#8dd3c7;stroke-opacity:0.8;" x="206.815102" xlink:href="#m4cf892921a" y="219.232574"/>
     <use style="fill:#8dd3c7;fill-opacity:0.8;stroke:#8dd3c7;stroke-opacity:0.8;" x="255.394368" xlink:href="#m4cf892921a" y="236.591207"/>
     <use style="fill:#8dd3c7;fill-opacity:0.8;stroke:#8dd3c7;stroke-opacity:0.8;" x="259.323755" xlink:href="#m4cf892921a" y="239.921796"/>
     <use style="fill:#8dd3c7;fill-opacity:0.8;stroke:#8dd3c7;stroke-opacity:0.8;" x="247.414124" xlink:href="#m4cf892921a" y="225.192215"/>
     <use style="fill:#8dd3c7;fill-opacity:0.8;stroke:#8dd3c7;stroke-opacity:0.8;" x="137.297814" xlink:href="#m4cf892921a" y="208.012519"/>
     <use style="fill:#8dd3c7;fill-opacity:0.8;stroke:#8dd3c7;stroke-opacity:0.8;" x="200.120032" xlink:href="#m4cf892921a" y="189.445754"/>
     <use style="fill:#8dd3c7;fill-opacity:0.8;stroke:#8dd3c7;stroke-opacity:0.8;" x="194.793557" xlink:href="#m4cf892921a" y="208.507691"/>
     <use style="fill:#8dd3c7;fill-opacity:0.8;stroke:#8dd3c7;stroke-opacity:0.8;" x="236.006131" xlink:href="#m4cf892921a" y="170.383818"/>
     <use style="fill:#8dd3c7;fill-opacity:0.8;stroke:#8dd3c7;stroke-opacity:0.8;" x="275.604648" xlink:href="#m4cf892921a" y="189.445754"/>
     <use style="fill:#8dd3c7;fill-opacity:0.8;stroke:#8dd3c7;stroke-opacity:0.8;" x="263.613868" xlink:href="#m4cf892921a" y="189.445754"/>
     <use style="fill:#8dd3c7;fill-opacity:0.8;stroke:#8dd3c7;stroke-opacity:0.8;" x="242.571211" xlink:href="#m4cf892921a" y="170.87899"/>
     <use style="fill:#8dd3c7;fill-opacity:0.8;stroke:#8dd3c7;stroke-opacity:0.8;" x="232.029585" xlink:href="#m4cf892921a" y="227.074455"/>
     <use style="fill:#8dd3c7;fill-opacity:0.8;stroke:#8dd3c7;stroke-opacity:0.8;" x="269.088907" xlink:href="#m4cf892921a" y="229.165986"/>
     <use style="fill:#8dd3c7;fill-opacity:0.8;stroke:#8dd3c7;stroke-opacity:0.8;" x="257.997076" xlink:href="#m4cf892921a" y="189.445754"/>
     <use style="fill:#8dd3c7;fill-opacity:0.8;stroke:#8dd3c7;stroke-opacity:0.8;" x="283.644579" xlink:href="#m4cf892921a" y="210.165473"/>
     <use style="fill:#8dd3c7;fill-opacity:0.8;stroke:#8dd3c7;stroke-opacity:0.8;" x="221.34772" xlink:href="#m4cf892921a" y="189.445754"/>
     <use style="fill:#8dd3c7;fill-opacity:0.8;stroke:#8dd3c7;stroke-opacity:0.8;" x="198.774632" xlink:href="#m4cf892921a" y="189.445754"/>
     <use style="fill:#8dd3c7;fill-opacity:0.8;stroke:#8dd3c7;stroke-opacity:0.8;" x="203.077293" xlink:href="#m4cf892921a" y="148.59005"/>
     <use style="fill:#8dd3c7;fill-opacity:0.8;stroke:#8dd3c7;stroke-opacity:0.8;" x="248.723211" xlink:href="#m4cf892921a" y="189.445754"/>
     <use style="fill:#8dd3c7;fill-opacity:0.8;stroke:#8dd3c7;stroke-opacity:0.8;" x="187.372489" xlink:href="#m4cf892921a" y="79.261895"/>
     <use style="fill:#8dd3c7;fill-opacity:0.8;stroke:#8dd3c7;stroke-opacity:0.8;" x="204.588802" xlink:href="#m4cf892921a" y="94.000154"/>
     <use style="fill:#8dd3c7;fill-opacity:0.8;stroke:#8dd3c7;stroke-opacity:0.8;" x="280.720552" xlink:href="#m4cf892921a" y="132.232809"/>
     <use style="fill:#8dd3c7;fill-opacity:0.8;stroke:#8dd3c7;stroke-opacity:0.8;" x="230.847953" xlink:href="#m4cf892921a" y="111.392258"/>
     <use style="fill:#8dd3c7;fill-opacity:0.8;stroke:#8dd3c7;stroke-opacity:0.8;" x="269.007162" xlink:href="#m4cf892921a" y="177.226991"/>
     <use style="fill:#8dd3c7;fill-opacity:0.8;stroke:#8dd3c7;stroke-opacity:0.8;" x="275.099874" xlink:href="#m4cf892921a" y="189.445754"/>
     <use style="fill:#8dd3c7;fill-opacity:0.8;stroke:#8dd3c7;stroke-opacity:0.8;" x="222.062382" xlink:href="#m4cf892921a" y="177.432358"/>
     <use style="fill:#8dd3c7;fill-opacity:0.8;stroke:#8dd3c7;stroke-opacity:0.8;" x="233.28639" xlink:href="#m4cf892921a" y="189.445754"/>
     <use style="fill:#8dd3c7;fill-opacity:0.8;stroke:#8dd3c7;stroke-opacity:0.8;" x="282.228264" xlink:href="#m4cf892921a" y="213.677914"/>
     <use style="fill:#8dd3c7;fill-opacity:0.8;stroke:#8dd3c7;stroke-opacity:0.8;" x="236.900021" xlink:href="#m4cf892921a" y="201.877029"/>
     <use style="fill:#8dd3c7;fill-opacity:0.8;stroke:#8dd3c7;stroke-opacity:0.8;" x="291.223527" xlink:href="#m4cf892921a" y="202.097062"/>
     <use style="fill:#8dd3c7;fill-opacity:0.8;stroke:#8dd3c7;stroke-opacity:0.8;" x="293.697658" xlink:href="#m4cf892921a" y="228.801395"/>
     <use style="fill:#8dd3c7;fill-opacity:0.8;stroke:#8dd3c7;stroke-opacity:0.8;" x="197.834268" xlink:href="#m4cf892921a" y="231.095219"/>
     <use style="fill:#8dd3c7;fill-opacity:0.8;stroke:#8dd3c7;stroke-opacity:0.8;" x="260.72979" xlink:href="#m4cf892921a" y="203.88625"/>
     <use style="fill:#8dd3c7;fill-opacity:0.8;stroke:#8dd3c7;stroke-opacity:0.8;" x="202.524879" xlink:href="#m4cf892921a" y="204.184014"/>
     <use style="fill:#8dd3c7;fill-opacity:0.8;stroke:#8dd3c7;stroke-opacity:0.8;" x="258.700518" xlink:href="#m4cf892921a" y="189.445754"/>
     <use style="fill:#8dd3c7;fill-opacity:0.8;stroke:#8dd3c7;stroke-opacity:0.8;" x="233.836257" xlink:href="#m4cf892921a" y="146.112473"/>
     <use style="fill:#8dd3c7;fill-opacity:0.8;stroke:#8dd3c7;stroke-opacity:0.8;" x="211.564181" xlink:href="#m4cf892921a" y="175.56609"/>
     <use style="fill:#8dd3c7;fill-opacity:0.8;stroke:#8dd3c7;stroke-opacity:0.8;" x="226.105344" xlink:href="#m4cf892921a" y="136.47484"/>
     <use style="fill:#8dd3c7;fill-opacity:0.8;stroke:#8dd3c7;stroke-opacity:0.8;" x="202.750099" xlink:href="#m4cf892921a" y="72.00518"/>
     <use style="fill:#8dd3c7;fill-opacity:0.8;stroke:#8dd3c7;stroke-opacity:0.8;" x="213.951762" xlink:href="#m4cf892921a" y="34.292335"/>
     <use style="fill:#8dd3c7;fill-opacity:0.8;stroke:#8dd3c7;stroke-opacity:0.8;" x="296.415073" xlink:href="#m4cf892921a" y="130.893014"/>
     <use style="fill:#8dd3c7;fill-opacity:0.8;stroke:#8dd3c7;stroke-opacity:0.8;" x="203.26773" xlink:href="#m4cf892921a" y="222.315005"/>
     <use style="fill:#8dd3c7;fill-opacity:0.8;stroke:#8dd3c7;stroke-opacity:0.8;" x="223.323598" xlink:href="#m4cf892921a" y="206.465136"/>
     <use style="fill:#8dd3c7;fill-opacity:0.8;stroke:#8dd3c7;stroke-opacity:0.8;" x="273.22586" xlink:href="#m4cf892921a" y="243.079423"/>
     <use style="fill:#8dd3c7;fill-opacity:0.8;stroke:#8dd3c7;stroke-opacity:0.8;" x="214.333244" xlink:href="#m4cf892921a" y="198.78942"/>
     <use style="fill:#8dd3c7;fill-opacity:0.8;stroke:#8dd3c7;stroke-opacity:0.8;" x="248.223775" xlink:href="#m4cf892921a" y="180.102089"/>
     <use style="fill:#8dd3c7;fill-opacity:0.8;stroke:#8dd3c7;stroke-opacity:0.8;" x="268.916245" xlink:href="#m4cf892921a" y="180.222656"/>
     <use style="fill:#8dd3c7;fill-opacity:0.8;stroke:#8dd3c7;stroke-opacity:0.8;" x="286.914881" xlink:href="#m4cf892921a" y="217.479945"/>
     <use style="fill:#8dd3c7;fill-opacity:0.8;stroke:#8dd3c7;stroke-opacity:0.8;" x="235.614328" xlink:href="#m4cf892921a" y="228.621599"/>
     <use style="fill:#8dd3c7;fill-opacity:0.8;stroke:#8dd3c7;stroke-opacity:0.8;" x="262.345579" xlink:href="#m4cf892921a" y="209.869436"/>
     <use style="fill:#8dd3c7;fill-opacity:0.8;stroke:#8dd3c7;stroke-opacity:0.8;" x="284.880717" xlink:href="#m4cf892921a" y="221.218996"/>
     <use style="fill:#8dd3c7;fill-opacity:0.8;stroke:#8dd3c7;stroke-opacity:0.8;" x="249.529729" xlink:href="#m4cf892921a" y="222.697342"/>
     <use style="fill:#8dd3c7;fill-opacity:0.8;stroke:#8dd3c7;stroke-opacity:0.8;" x="276.767151" xlink:href="#m4cf892921a" y="224.32"/>
     <use style="fill:#8dd3c7;fill-opacity:0.8;stroke:#8dd3c7;stroke-opacity:0.8;" x="249.313102" xlink:href="#m4cf892921a" y="189.445754"/>
     <use style="fill:#8dd3c7;fill-opacity:0.8;stroke:#8dd3c7;stroke-opacity:0.8;" x="243.160082" xlink:href="#m4cf892921a" y="201.459151"/>
     <use style="fill:#8dd3c7;fill-opacity:0.8;stroke:#8dd3c7;stroke-opacity:0.8;" x="292.313263" xlink:href="#m4cf892921a" y="189.445754"/>
     <use style="fill:#8dd3c7;fill-opacity:0.8;stroke:#8dd3c7;stroke-opacity:0.8;" x="287.021076" xlink:href="#m4cf892921a" y="214.095792"/>
     <use style="fill:#8dd3c7;fill-opacity:0.8;stroke:#8dd3c7;stroke-opacity:0.8;" x="219.037334" xlink:href="#m4cf892921a" y="164.795717"/>
     <use style="fill:#8dd3c7;fill-opacity:0.8;stroke:#8dd3c7;stroke-opacity:0.8;" x="234.903837" xlink:href="#m4cf892921a" y="189.445754"/>
     <use style="fill:#8dd3c7;fill-opacity:0.8;stroke:#8dd3c7;stroke-opacity:0.8;" x="153.280024" xlink:href="#m4cf892921a" y="142.558113"/>
     <use style="fill:#8dd3c7;fill-opacity:0.8;stroke:#8dd3c7;stroke-opacity:0.8;" x="293.896979" xlink:href="#m4cf892921a" y="84.14096"/>
     <use style="fill:#8dd3c7;fill-opacity:0.8;stroke:#8dd3c7;stroke-opacity:0.8;" x="343.719315" xlink:href="#m4cf892921a" y="151.315102"/>
     <use style="fill:#8dd3c7;fill-opacity:0.8;stroke:#8dd3c7;stroke-opacity:0.8;" x="201.62721" xlink:href="#m4cf892921a" y="217.851356"/>
     <use style="fill:#8dd3c7;fill-opacity:0.8;stroke:#8dd3c7;stroke-opacity:0.8;" x="348.342381" xlink:href="#m4cf892921a" y="189.445754"/>
     <use style="fill:#8dd3c7;fill-opacity:0.8;stroke:#8dd3c7;stroke-opacity:0.8;" x="171.298378" xlink:href="#m4cf892921a" y="189.445754"/>
     <use style="fill:#8dd3c7;fill-opacity:0.8;stroke:#8dd3c7;stroke-opacity:0.8;" x="192.230144" xlink:href="#m4cf892921a" y="189.445754"/>
     <use style="fill:#8dd3c7;fill-opacity:0.8;stroke:#8dd3c7;stroke-opacity:0.8;" x="323.453559" xlink:href="#m4cf892921a" y="116.070594"/>
     <use style="fill:#8dd3c7;fill-opacity:0.8;stroke:#8dd3c7;stroke-opacity:0.8;" x="220.787689" xlink:href="#m4cf892921a" y="138.969713"/>
     <use style="fill:#8dd3c7;fill-opacity:0.8;stroke:#8dd3c7;stroke-opacity:0.8;" x="185.533743" xlink:href="#m4cf892921a" y="142.300302"/>
     <use style="fill:#8dd3c7;fill-opacity:0.8;stroke:#8dd3c7;stroke-opacity:0.8;" x="338.36826" xlink:href="#m4cf892921a" y="152.40222"/>
     <use style="fill:#8dd3c7;fill-opacity:0.8;stroke:#8dd3c7;stroke-opacity:0.8;" x="297.229557" xlink:href="#m4cf892921a" y="133.900908"/>
     <use style="fill:#8dd3c7;fill-opacity:0.8;stroke:#8dd3c7;stroke-opacity:0.8;" x="324.098233" xlink:href="#m4cf892921a" y="209.772629"/>
     <use style="fill:#8dd3c7;fill-opacity:0.8;stroke:#8dd3c7;stroke-opacity:0.8;" x="307.067764" xlink:href="#m4cf892921a" y="210.367645"/>
     <use style="fill:#8dd3c7;fill-opacity:0.8;stroke:#8dd3c7;stroke-opacity:0.8;" x="258.605656" xlink:href="#m4cf892921a" y="240.78537"/>
     <use style="fill:#8dd3c7;fill-opacity:0.8;stroke:#8dd3c7;stroke-opacity:0.8;" x="244.364001" xlink:href="#m4cf892921a" y="261.383758"/>
     <use style="fill:#8dd3c7;fill-opacity:0.8;stroke:#8dd3c7;stroke-opacity:0.8;" x="260.109279" xlink:href="#m4cf892921a" y="241.770101"/>
     <use style="fill:#8dd3c7;fill-opacity:0.8;stroke:#8dd3c7;stroke-opacity:0.8;" x="225.609901" xlink:href="#m4cf892921a" y="226.585549"/>
     <use style="fill:#8dd3c7;fill-opacity:0.8;stroke:#8dd3c7;stroke-opacity:0.8;" x="199.638267" xlink:href="#m4cf892921a" y="199.040264"/>
     <use style="fill:#8dd3c7;fill-opacity:0.8;stroke:#8dd3c7;stroke-opacity:0.8;" x="284.672019" xlink:href="#m4cf892921a" y="199.170806"/>
     <use style="fill:#8dd3c7;fill-opacity:0.8;stroke:#8dd3c7;stroke-opacity:0.8;" x="282.904682" xlink:href="#m4cf892921a" y="189.445754"/>
     <use style="fill:#8dd3c7;fill-opacity:0.8;stroke:#8dd3c7;stroke-opacity:0.8;" x="320.872167" xlink:href="#m4cf892921a" y="189.445754"/>
     <use style="fill:#8dd3c7;fill-opacity:0.8;stroke:#8dd3c7;stroke-opacity:0.8;" x="316.36129" xlink:href="#m4cf892921a" y="199.304949"/>
     <use style="fill:#8dd3c7;fill-opacity:0.8;stroke:#8dd3c7;stroke-opacity:0.8;" x="275.550913" xlink:href="#m4cf892921a" y="209.581741"/>
     <use style="fill:#8dd3c7;fill-opacity:0.8;stroke:#8dd3c7;stroke-opacity:0.8;" x="315.486666" xlink:href="#m4cf892921a" y="189.445754"/>
     <use style="fill:#8dd3c7;fill-opacity:0.8;stroke:#8dd3c7;stroke-opacity:0.8;" x="376.524298" xlink:href="#m4cf892921a" y="169.309768"/>
     <use style="fill:#8dd3c7;fill-opacity:0.8;stroke:#8dd3c7;stroke-opacity:0.8;" x="337.805606" xlink:href="#m4cf892921a" y="209.581741"/>
     <use style="fill:#8dd3c7;fill-opacity:0.8;stroke:#8dd3c7;stroke-opacity:0.8;" x="398.245838" xlink:href="#m4cf892921a" y="210.165473"/>
     <use style="fill:#8dd3c7;fill-opacity:0.8;stroke:#8dd3c7;stroke-opacity:0.8;" x="259.707126" xlink:href="#m4cf892921a" y="210.784063"/>
     <use style="fill:#8dd3c7;fill-opacity:0.8;stroke:#8dd3c7;stroke-opacity:0.8;" x="171.119296" xlink:href="#m4cf892921a" y="222.697342"/>
     <use style="fill:#8dd3c7;fill-opacity:0.8;stroke:#8dd3c7;stroke-opacity:0.8;" x="255.329793" xlink:href="#m4cf892921a" y="224.32"/>
     <use style="fill:#8dd3c7;fill-opacity:0.8;stroke:#8dd3c7;stroke-opacity:0.8;" x="176.535908" xlink:href="#m4cf892921a" y="201.459151"/>
     <use style="fill:#8dd3c7;fill-opacity:0.8;stroke:#8dd3c7;stroke-opacity:0.8;" x="246.399719" xlink:href="#m4cf892921a" y="214.095792"/>
     <use style="fill:#8dd3c7;fill-opacity:0.8;stroke:#8dd3c7;stroke-opacity:0.8;" x="253.349427" xlink:href="#m4cf892921a" y="214.976334"/>
     <use style="fill:#8dd3c7;fill-opacity:0.8;stroke:#8dd3c7;stroke-opacity:0.8;" x="187.402408" xlink:href="#m4cf892921a" y="189.445754"/>
     <use style="fill:#8dd3c7;fill-opacity:0.8;stroke:#8dd3c7;stroke-opacity:0.8;" x="190.224399" xlink:href="#m4cf892921a" y="215.922124"/>
     <use style="fill:#8dd3c7;fill-opacity:0.8;stroke:#8dd3c7;stroke-opacity:0.8;" x="139.365597" xlink:href="#m4cf892921a" y="203.061028"/>
     <use style="fill:#8dd3c7;fill-opacity:0.8;stroke:#8dd3c7;stroke-opacity:0.8;" x="168.489418" xlink:href="#m4cf892921a" y="189.445754"/>
     <use style="fill:#8dd3c7;fill-opacity:0.8;stroke:#8dd3c7;stroke-opacity:0.8;" x="226.875116" xlink:href="#m4cf892921a" y="175.830481"/>
     <use style="fill:#8dd3c7;fill-opacity:0.8;stroke:#8dd3c7;stroke-opacity:0.8;" x="226.315073" xlink:href="#m4cf892921a" y="176.084987"/>
     <use style="fill:#8dd3c7;fill-opacity:0.8;stroke:#8dd3c7;stroke-opacity:0.8;" x="236.881175" xlink:href="#m4cf892921a" y="202.806522"/>
     <use style="fill:#8dd3c7;fill-opacity:0.8;stroke:#8dd3c7;stroke-opacity:0.8;" x="198.12878" xlink:href="#m4cf892921a" y="189.445754"/>
     <use style="fill:#8dd3c7;fill-opacity:0.8;stroke:#8dd3c7;stroke-opacity:0.8;" x="229.793661" xlink:href="#m4cf892921a" y="137.438806"/>
     <use style="fill:#8dd3c7;fill-opacity:0.8;stroke:#8dd3c7;stroke-opacity:0.8;" x="216.743492" xlink:href="#m4cf892921a" y="140.967503"/>
     <use style="fill:#8dd3c7;fill-opacity:0.8;stroke:#8dd3c7;stroke-opacity:0.8;" x="262.255426" xlink:href="#m4cf892921a" y="133.13474"/>
     <use style="fill:#8dd3c7;fill-opacity:0.8;stroke:#8dd3c7;stroke-opacity:0.8;" x="272.605677" xlink:href="#m4cf892921a" y="168.107446"/>
     <use style="fill:#8dd3c7;fill-opacity:0.8;stroke:#8dd3c7;stroke-opacity:0.8;" x="261.422573" xlink:href="#m4cf892921a" y="179.010821"/>
     <use style="fill:#8dd3c7;fill-opacity:0.8;stroke:#8dd3c7;stroke-opacity:0.8;" x="338.677639" xlink:href="#m4cf892921a" y="169.022072"/>
     <use style="fill:#8dd3c7;fill-opacity:0.8;stroke:#8dd3c7;stroke-opacity:0.8;" x="337.750298" xlink:href="#m4cf892921a" y="159.86442"/>
     <use style="fill:#8dd3c7;fill-opacity:0.8;stroke:#8dd3c7;stroke-opacity:0.8;" x="267.576056" xlink:href="#m4cf892921a" y="170.383818"/>
     <use style="fill:#8dd3c7;fill-opacity:0.8;stroke:#8dd3c7;stroke-opacity:0.8;" x="361.27138" xlink:href="#m4cf892921a" y="189.445754"/>
     <use style="fill:#8dd3c7;fill-opacity:0.8;stroke:#8dd3c7;stroke-opacity:0.8;" x="293.561185" xlink:href="#m4cf892921a" y="208.507691"/>
     <use style="fill:#8dd3c7;fill-opacity:0.8;stroke:#8dd3c7;stroke-opacity:0.8;" x="250.608878" xlink:href="#m4cf892921a" y="209.03"/>
     <use style="fill:#8dd3c7;fill-opacity:0.8;stroke:#8dd3c7;stroke-opacity:0.8;" x="331.427947" xlink:href="#m4cf892921a" y="199.442844"/>
     <use style="fill:#8dd3c7;fill-opacity:0.8;stroke:#8dd3c7;stroke-opacity:0.8;" x="292.602508" xlink:href="#m4cf892921a" y="220.30437"/>
     <use style="fill:#8dd3c7;fill-opacity:0.8;stroke:#8dd3c7;stroke-opacity:0.8;" x="250.692688" xlink:href="#m4cf892921a" y="210.784063"/>
     <use style="fill:#8dd3c7;fill-opacity:0.8;stroke:#8dd3c7;stroke-opacity:0.8;" x="213.942743" xlink:href="#m4cf892921a" y="189.445754"/>
     <use style="fill:#8dd3c7;fill-opacity:0.8;stroke:#8dd3c7;stroke-opacity:0.8;" x="213.243713" xlink:href="#m4cf892921a" y="234.13407"/>
     <use style="fill:#8dd3c7;fill-opacity:0.8;stroke:#8dd3c7;stroke-opacity:0.8;" x="174.979993" xlink:href="#m4cf892921a" y="212.883272"/>
     <use style="fill:#8dd3c7;fill-opacity:0.8;stroke:#8dd3c7;stroke-opacity:0.8;" x="181.590654" xlink:href="#m4cf892921a" y="238.760496"/>
     <use style="fill:#8dd3c7;fill-opacity:0.8;stroke:#8dd3c7;stroke-opacity:0.8;" x="168.367708" xlink:href="#m4cf892921a" y="202.325026"/>
     <use style="fill:#8dd3c7;fill-opacity:0.8;stroke:#8dd3c7;stroke-opacity:0.8;" x="161.32672" xlink:href="#m4cf892921a" y="163.915175"/>
     <use style="fill:#8dd3c7;fill-opacity:0.8;stroke:#8dd3c7;stroke-opacity:0.8;" x="144.781433" xlink:href="#m4cf892921a" y="189.445754"/>
     <use style="fill:#8dd3c7;fill-opacity:0.8;stroke:#8dd3c7;stroke-opacity:0.8;" x="121.911182" xlink:href="#m4cf892921a" y="202.097062"/>
     <use style="fill:#8dd3c7;fill-opacity:0.8;stroke:#8dd3c7;stroke-opacity:0.8;" x="181.710261" xlink:href="#m4cf892921a" y="202.325026"/>
     <use style="fill:#8dd3c7;fill-opacity:0.8;stroke:#8dd3c7;stroke-opacity:0.8;" x="126.935157" xlink:href="#m4cf892921a" y="189.445754"/>
     <use style="fill:#8dd3c7;fill-opacity:0.8;stroke:#8dd3c7;stroke-opacity:0.8;" x="69.478449" xlink:href="#m4cf892921a" y="215.922124"/>
     <use style="fill:#8dd3c7;fill-opacity:0.8;stroke:#8dd3c7;stroke-opacity:0.8;" x="157.544976" xlink:href="#m4cf892921a" y="189.445754"/>
     <use style="fill:#8dd3c7;fill-opacity:0.8;stroke:#8dd3c7;stroke-opacity:0.8;" x="102.700952" xlink:href="#m4cf892921a" y="203.061028"/>
     <use style="fill:#8dd3c7;fill-opacity:0.8;stroke:#8dd3c7;stroke-opacity:0.8;" x="186.619117" xlink:href="#m4cf892921a" y="217.479945"/>
     <use style="fill:#8dd3c7;fill-opacity:0.8;stroke:#8dd3c7;stroke-opacity:0.8;" x="173.597319" xlink:href="#m4cf892921a" y="203.88625"/>
     <use style="fill:#8dd3c7;fill-opacity:0.8;stroke:#8dd3c7;stroke-opacity:0.8;" x="213.755017" xlink:href="#m4cf892921a" y="219.232574"/>
     <use style="fill:#8dd3c7;fill-opacity:0.8;stroke:#8dd3c7;stroke-opacity:0.8;" x="183.610095" xlink:href="#m4cf892921a" y="204.817965"/>
     <use style="fill:#8dd3c7;fill-opacity:0.8;stroke:#8dd3c7;stroke-opacity:0.8;" x="171.959771" xlink:href="#m4cf892921a" y="221.218996"/>
     <use style="fill:#8dd3c7;fill-opacity:0.8;stroke:#8dd3c7;stroke-opacity:0.8;" x="222.088029" xlink:href="#m4cf892921a" y="173.382601"/>
     <use style="fill:#8dd3c7;fill-opacity:0.8;stroke:#8dd3c7;stroke-opacity:0.8;" x="224.890788" xlink:href="#m4cf892921a" y="205.508908"/>
     <use style="fill:#8dd3c7;fill-opacity:0.8;stroke:#8dd3c7;stroke-opacity:0.8;" x="193.215593" xlink:href="#m4cf892921a" y="205.878208"/>
     <use style="fill:#8dd3c7;fill-opacity:0.8;stroke:#8dd3c7;stroke-opacity:0.8;" x="163.522948" xlink:href="#m4cf892921a" y="189.445754"/>
     <use style="fill:#8dd3c7;fill-opacity:0.8;stroke:#8dd3c7;stroke-opacity:0.8;" x="191.172831" xlink:href="#m4cf892921a" y="206.264889"/>
     <use style="fill:#8dd3c7;fill-opacity:0.8;stroke:#8dd3c7;stroke-opacity:0.8;" x="255.396569" xlink:href="#m4cf892921a" y="206.670208"/>
     <use style="fill:#8dd3c7;fill-opacity:0.8;stroke:#8dd3c7;stroke-opacity:0.8;" x="142.908529" xlink:href="#m4cf892921a" y="207.095546"/>
     <use style="fill:#8dd3c7;fill-opacity:0.8;stroke:#8dd3c7;stroke-opacity:0.8;" x="134.143143" xlink:href="#m4cf892921a" y="207.542423"/>
     <use style="fill:#8dd3c7;fill-opacity:0.8;stroke:#8dd3c7;stroke-opacity:0.8;" x="159.058469" xlink:href="#m4cf892921a" y="171.349086"/>
     <use style="fill:#8dd3c7;fill-opacity:0.8;stroke:#8dd3c7;stroke-opacity:0.8;" x="172.461585" xlink:href="#m4cf892921a" y="207.542423"/>
     <use style="fill:#8dd3c7;fill-opacity:0.8;stroke:#8dd3c7;stroke-opacity:0.8;" x="246.102579" xlink:href="#m4cf892921a" y="136.47484"/>
     <use style="fill:#8dd3c7;fill-opacity:0.8;stroke:#8dd3c7;stroke-opacity:0.8;" x="274.97478" xlink:href="#m4cf892921a" y="156.194167"/>
     <use style="fill:#8dd3c7;fill-opacity:0.8;stroke:#8dd3c7;stroke-opacity:0.8;" x="278.615452" xlink:href="#m4cf892921a" y="127.251742"/>
     <use style="fill:#8dd3c7;fill-opacity:0.8;stroke:#8dd3c7;stroke-opacity:0.8;" x="271.0815" xlink:href="#m4cf892921a" y="92.141166"/>
     <use style="fill:#8dd3c7;fill-opacity:0.8;stroke:#8dd3c7;stroke-opacity:0.8;" x="157.710477" xlink:href="#m4cf892921a" y="163.915175"/>
     <use style="fill:#8dd3c7;fill-opacity:0.8;stroke:#8dd3c7;stroke-opacity:0.8;" x="227.556951" xlink:href="#m4cf892921a" y="177.01448"/>
     <use style="fill:#8dd3c7;fill-opacity:0.8;stroke:#8dd3c7;stroke-opacity:0.8;" x="193.290576" xlink:href="#m4cf892921a" y="201.877029"/>
     <use style="fill:#8dd3c7;fill-opacity:0.8;stroke:#8dd3c7;stroke-opacity:0.8;" x="260.475198" xlink:href="#m4cf892921a" y="177.01448"/>
     <use style="fill:#8dd3c7;fill-opacity:0.8;stroke:#8dd3c7;stroke-opacity:0.8;" x="254.630582" xlink:href="#m4cf892921a" y="177.226991"/>
     <use style="fill:#8dd3c7;fill-opacity:0.8;stroke:#8dd3c7;stroke-opacity:0.8;" x="315.915287" xlink:href="#m4cf892921a" y="153.994841"/>
     <use style="fill:#8dd3c7;fill-opacity:0.8;stroke:#8dd3c7;stroke-opacity:0.8;" x="209.074785" xlink:href="#m4cf892921a" y="201.068453"/>
     <use style="fill:#8dd3c7;fill-opacity:0.8;stroke:#8dd3c7;stroke-opacity:0.8;" x="206.784862" xlink:href="#m4cf892921a" y="225.492732"/>
     <use style="fill:#8dd3c7;fill-opacity:0.8;stroke:#8dd3c7;stroke-opacity:0.8;" x="264.731449" xlink:href="#m4cf892921a" y="201.877029"/>
     <use style="fill:#8dd3c7;fill-opacity:0.8;stroke:#8dd3c7;stroke-opacity:0.8;" x="204.662278" xlink:href="#m4cf892921a" y="202.097062"/>
     <use style="fill:#8dd3c7;fill-opacity:0.8;stroke:#8dd3c7;stroke-opacity:0.8;" x="244.444412" xlink:href="#m4cf892921a" y="215.440628"/>
     <use style="fill:#8dd3c7;fill-opacity:0.8;stroke:#8dd3c7;stroke-opacity:0.8;" x="194.908689" xlink:href="#m4cf892921a" y="189.445754"/>
     <use style="fill:#8dd3c7;fill-opacity:0.8;stroke:#8dd3c7;stroke-opacity:0.8;" x="147.630424" xlink:href="#m4cf892921a" y="202.806522"/>
     <use style="fill:#8dd3c7;fill-opacity:0.8;stroke:#8dd3c7;stroke-opacity:0.8;" x="205.441392" xlink:href="#m4cf892921a" y="216.940692"/>
     <use style="fill:#8dd3c7;fill-opacity:0.8;stroke:#8dd3c7;stroke-opacity:0.8;" x="203.954395" xlink:href="#m4cf892921a" y="203.600281"/>
     <use style="fill:#8dd3c7;fill-opacity:0.8;stroke:#8dd3c7;stroke-opacity:0.8;" x="194.722" xlink:href="#m4cf892921a" y="203.88625"/>
     <use style="fill:#8dd3c7;fill-opacity:0.8;stroke:#8dd3c7;stroke-opacity:0.8;" x="176.211804" xlink:href="#m4cf892921a" y="219.232574"/>
     <use style="fill:#8dd3c7;fill-opacity:0.8;stroke:#8dd3c7;stroke-opacity:0.8;" x="139.760076" xlink:href="#m4cf892921a" y="189.445754"/>
     <use style="fill:#8dd3c7;fill-opacity:0.8;stroke:#8dd3c7;stroke-opacity:0.8;" x="177.189442" xlink:href="#m4cf892921a" y="189.445754"/>
     <use style="fill:#8dd3c7;fill-opacity:0.8;stroke:#8dd3c7;stroke-opacity:0.8;" x="190.238123" xlink:href="#m4cf892921a" y="236.591207"/>
     <use style="fill:#8dd3c7;fill-opacity:0.8;stroke:#8dd3c7;stroke-opacity:0.8;" x="196.362312" xlink:href="#m4cf892921a" y="173.382601"/>
     <use style="fill:#8dd3c7;fill-opacity:0.8;stroke:#8dd3c7;stroke-opacity:0.8;" x="144.96732" xlink:href="#m4cf892921a" y="189.445754"/>
     <use style="fill:#8dd3c7;fill-opacity:0.8;stroke:#8dd3c7;stroke-opacity:0.8;" x="206.482682" xlink:href="#m4cf892921a" y="158.363456"/>
     <use style="fill:#8dd3c7;fill-opacity:0.8;stroke:#8dd3c7;stroke-opacity:0.8;" x="170.692506" xlink:href="#m4cf892921a" y="174.397194"/>
     <use style="fill:#8dd3c7;fill-opacity:0.8;stroke:#8dd3c7;stroke-opacity:0.8;" x="197.924509" xlink:href="#m4cf892921a" y="174.707495"/>
     <use style="fill:#8dd3c7;fill-opacity:0.8;stroke:#8dd3c7;stroke-opacity:0.8;" x="257.59127" xlink:href="#m4cf892921a" y="119.995027"/>
     <use style="fill:#8dd3c7;fill-opacity:0.8;stroke:#8dd3c7;stroke-opacity:0.8;" x="379.502186" xlink:href="#m4cf892921a" y="114.13614"/>
     <use style="fill:#8dd3c7;fill-opacity:0.8;stroke:#8dd3c7;stroke-opacity:0.8;" x="475.215301" xlink:href="#m4cf892921a" y="89.54668"/>
     <use style="fill:#8dd3c7;fill-opacity:0.8;stroke:#8dd3c7;stroke-opacity:0.8;" x="222.561037" xlink:href="#m4cf892921a" y="74.835997"/>
     <use style="fill:#8dd3c7;fill-opacity:0.8;stroke:#8dd3c7;stroke-opacity:0.8;" x="344.153373" xlink:href="#m4cf892921a" y="98.426052"/>
     <use style="fill:#8dd3c7;fill-opacity:0.8;stroke:#8dd3c7;stroke-opacity:0.8;" x="231.130585" xlink:href="#m4cf892921a" y="159.024983"/>
    </g>
   </g>
   <g id="PolyCollection_1">
    <path clip-path="url(#p714992d649)" d="M 49.146875 188.977141 
L 49.146875 221.765342 
L 53.655966 220.955561 
L 58.165057 220.14578 
L 62.674148 219.335999 
L 67.183239 218.524193 
L 71.69233 217.715621 
L 76.20142 216.905806 
L 80.710511 216.095991 
L 85.219602 215.286176 
L 89.728693 214.476361 
L 94.237784 213.689386 
L 98.746875 212.882933 
L 103.255966 212.077533 
L 107.765057 211.271607 
L 112.274148 210.465681 
L 116.783239 209.650129 
L 121.29233 208.807657 
L 125.80142 207.997842 
L 130.310511 207.188027 
L 134.819602 206.379492 
L 139.328693 205.568232 
L 143.837784 204.721033 
L 148.346875 203.9482 
L 152.855966 203.164074 
L 157.365057 202.339464 
L 161.874148 201.599063 
L 166.383239 200.854805 
L 170.89233 200.13284 
L 175.40142 199.413879 
L 179.910511 198.861034 
L 184.419602 198.183605 
L 188.928693 197.617446 
L 193.437784 196.949398 
L 197.946875 196.539556 
L 202.455966 195.980275 
L 206.965057 195.327977 
L 211.474148 194.796239 
L 215.983239 194.278204 
L 220.49233 193.894046 
L 225.00142 193.435888 
L 229.510511 192.91184 
L 234.019602 192.415231 
L 238.528693 191.942938 
L 243.037784 191.639113 
L 247.546875 191.47243 
L 252.055966 191.349338 
L 256.565057 191.265287 
L 261.074148 191.097001 
L 265.583239 190.816125 
L 270.09233 190.773617 
L 274.60142 190.684286 
L 279.110511 190.649647 
L 283.619602 190.380722 
L 288.128693 190.113658 
L 292.637784 190.009832 
L 297.146875 189.912537 
L 301.655966 189.815243 
L 306.165057 189.726729 
L 310.674148 189.656734 
L 315.183239 189.537212 
L 319.69233 189.503561 
L 324.20142 189.41651 
L 328.710511 189.264232 
L 333.219602 189.125794 
L 337.728693 189.025801 
L 342.237784 188.925807 
L 346.746875 188.826399 
L 351.255966 188.808019 
L 355.765057 188.854543 
L 360.274148 188.810355 
L 364.783239 188.737249 
L 369.29233 188.81542 
L 373.80142 188.754843 
L 378.310511 188.633848 
L 382.819602 188.49273 
L 387.328693 188.351612 
L 391.837784 188.411179 
L 396.346875 188.4547 
L 400.855966 188.397856 
L 405.365057 188.341012 
L 409.874148 188.284168 
L 414.383239 188.227324 
L 418.89233 188.168975 
L 423.40142 188.109319 
L 427.910511 188.049664 
L 432.419602 188.022017 
L 436.928693 188.014271 
L 441.437784 188.006526 
L 445.946875 187.99878 
L 450.455966 187.991034 
L 454.965057 187.983289 
L 459.474148 187.975543 
L 463.983239 187.967797 
L 468.49233 187.960052 
L 473.00142 187.952306 
L 477.510511 187.944561 
L 482.019602 187.936815 
L 486.528693 187.937853 
L 491.037784 187.97506 
L 495.546875 187.989623 
L 495.546875 135.686575 
L 495.546875 135.686575 
L 491.037784 136.484004 
L 486.528693 137.283231 
L 482.019602 138.152065 
L 477.510511 139.047771 
L 473.00142 139.943477 
L 468.49233 140.839183 
L 463.983239 141.7349 
L 459.474148 142.63218 
L 454.965057 143.451668 
L 450.455966 144.247047 
L 445.946875 145.042426 
L 441.437784 145.837805 
L 436.928693 146.633184 
L 432.419602 147.446556 
L 427.910511 148.396173 
L 423.40142 149.347122 
L 418.89233 150.298071 
L 414.383239 151.124562 
L 409.874148 151.942909 
L 405.365057 152.761256 
L 400.855966 153.580348 
L 396.346875 154.546913 
L 391.837784 155.564666 
L 387.328693 156.418063 
L 382.819602 157.205175 
L 378.310511 157.992288 
L 373.80142 158.7794 
L 369.29233 159.619771 
L 364.783239 160.49214 
L 360.274148 161.335755 
L 355.765057 162.086113 
L 351.255966 162.848153 
L 346.746875 163.743922 
L 342.237784 164.63969 
L 337.728693 165.468214 
L 333.219602 166.058702 
L 328.710511 166.652103 
L 324.20142 167.514984 
L 319.69233 168.429312 
L 315.183239 169.182827 
L 310.674148 169.916734 
L 306.165057 170.732086 
L 301.655966 171.462022 
L 297.146875 172.096355 
L 292.637784 172.907245 
L 288.128693 173.841586 
L 283.619602 174.542846 
L 279.110511 175.260578 
L 274.60142 176.045364 
L 270.09233 176.829737 
L 265.583239 177.651243 
L 261.074148 178.34301 
L 256.565057 178.984219 
L 252.055966 179.707267 
L 247.546875 180.27078 
L 243.037784 180.817522 
L 238.528693 181.317586 
L 234.019602 181.877861 
L 229.510511 182.355806 
L 225.00142 182.956463 
L 220.49233 183.257815 
L 215.983239 183.708067 
L 211.474148 183.833844 
L 206.965057 184.2344 
L 202.455966 184.614375 
L 197.946875 184.82107 
L 193.437784 185.175141 
L 188.928693 185.371043 
L 184.419602 185.609699 
L 179.910511 185.86487 
L 175.40142 186.135589 
L 170.89233 186.336572 
L 166.383239 186.576448 
L 161.874148 186.740716 
L 157.365057 186.80449 
L 152.855966 187.039377 
L 148.346875 187.213038 
L 143.837784 187.474318 
L 139.328693 187.605918 
L 134.819602 187.792142 
L 130.310511 187.861439 
L 125.80142 188.03869 
L 121.29233 187.994081 
L 116.783239 188.073931 
L 112.274148 188.040436 
L 107.765057 188.011328 
L 103.255966 188.069578 
L 98.746875 188.182103 
L 94.237784 188.297872 
L 89.728693 188.417686 
L 85.219602 188.536685 
L 80.710511 188.650197 
L 76.20142 188.763709 
L 71.69233 188.87722 
L 67.183239 188.914245 
L 62.674148 188.875185 
L 58.165057 188.838708 
L 53.655966 188.827571 
L 49.146875 188.977141 
z
" style="fill:#8dd3c7;fill-opacity:0.15;"/>
   </g>
   <g id="line2d_25">
    <path clip-path="url(#p714992d649)" d="M 49.146875 205.894887 
L 53.655966 205.444166 
L 58.165057 204.993445 
L 62.674148 204.542724 
L 67.183239 204.092003 
L 71.69233 203.641282 
L 76.20142 203.190561 
L 80.710511 202.73984 
L 85.219602 202.289119 
L 89.728693 201.838398 
L 94.237784 201.387677 
L 98.746875 200.936956 
L 103.255966 200.486235 
L 107.765057 200.035513 
L 112.274148 199.584792 
L 116.783239 199.134071 
L 121.29233 198.68335 
L 125.80142 198.232629 
L 130.310511 197.781908 
L 134.819602 197.331187 
L 139.328693 196.880466 
L 143.837784 196.429745 
L 148.346875 195.979024 
L 152.855966 195.528303 
L 157.365057 195.077582 
L 161.874148 194.626861 
L 166.383239 194.17614 
L 170.89233 193.725419 
L 175.40142 193.274698 
L 179.910511 192.823977 
L 184.419602 192.373256 
L 188.928693 191.922535 
L 193.437784 191.471814 
L 197.946875 191.021093 
L 202.455966 190.570372 
L 206.965057 190.11965 
L 211.474148 189.668929 
L 215.983239 189.218208 
L 220.49233 188.767487 
L 225.00142 188.316766 
L 229.510511 187.866045 
L 234.019602 187.415324 
L 238.528693 186.964603 
L 243.037784 186.513882 
L 247.546875 186.063161 
L 252.055966 185.61244 
L 256.565057 185.161719 
L 261.074148 184.710998 
L 265.583239 184.260277 
L 270.09233 183.809556 
L 274.60142 183.358835 
L 279.110511 182.908114 
L 283.619602 182.457393 
L 288.128693 182.006672 
L 292.637784 181.555951 
L 297.146875 181.10523 
L 301.655966 180.654509 
L 306.165057 180.203787 
L 310.674148 179.753066 
L 315.183239 179.302345 
L 319.69233 178.851624 
L 324.20142 178.400903 
L 328.710511 177.950182 
L 333.219602 177.499461 
L 337.728693 177.04874 
L 342.237784 176.598019 
L 346.746875 176.147298 
L 351.255966 175.696577 
L 355.765057 175.245856 
L 360.274148 174.795135 
L 364.783239 174.344414 
L 369.29233 173.893693 
L 373.80142 173.442972 
L 378.310511 172.992251 
L 382.819602 172.54153 
L 387.328693 172.090809 
L 391.837784 171.640088 
L 396.346875 171.189367 
L 400.855966 170.738646 
L 405.365057 170.287924 
L 409.874148 169.837203 
L 414.383239 169.386482 
L 418.89233 168.935761 
L 423.40142 168.48504 
L 427.910511 168.034319 
L 432.419602 167.583598 
L 436.928693 167.132877 
L 441.437784 166.682156 
L 445.946875 166.231435 
L 450.455966 165.780714 
L 454.965057 165.329993 
L 459.474148 164.879272 
L 463.983239 164.428551 
L 468.49233 163.97783 
L 473.00142 163.527109 
L 477.510511 163.076388 
L 482.019602 162.625667 
L 486.528693 162.174946 
L 491.037784 161.724225 
L 495.546875 161.273504 
" style="fill:none;stroke:#8dd3c7;stroke-linecap:round;stroke-width:2.25;"/>
   </g>
   <g id="patch_3">
    <path d="M 49.146875 293.735625 
L 49.146875 21.935625 
" style="fill:none;stroke:#cccccc;stroke-linecap:square;stroke-linejoin:miter;"/>
   </g>
   <g id="patch_4">
    <path d="M 495.546875 293.735625 
L 495.546875 21.935625 
" style="fill:none;stroke:#cccccc;stroke-linecap:square;stroke-linejoin:miter;"/>
   </g>
   <g id="patch_5">
    <path d="M 49.146875 293.735625 
L 495.546875 293.735625 
" style="fill:none;stroke:#cccccc;stroke-linecap:square;stroke-linejoin:miter;"/>
   </g>
   <g id="patch_6">
    <path d="M 49.146875 21.935625 
L 495.546875 21.935625 
" style="fill:none;stroke:#cccccc;stroke-linecap:square;stroke-linejoin:miter;"/>
   </g>
   <g id="text_15">
    <!-- Changes in log m1 versus log unemp -->
    <defs>
     <path d="M 58.796875 25.09375 
L 68.265625 22.703125 
Q 65.28125 11.03125 57.546875 4.90625 
Q 49.8125 -1.21875 38.625 -1.21875 
Q 27.046875 -1.21875 19.796875 3.484375 
Q 12.546875 8.203125 8.765625 17.140625 
Q 4.984375 26.078125 4.984375 36.328125 
Q 4.984375 47.515625 9.25 55.828125 
Q 13.53125 64.15625 21.40625 68.46875 
Q 29.296875 72.796875 38.765625 72.796875 
Q 49.515625 72.796875 56.828125 67.328125 
Q 64.15625 61.859375 67.046875 51.953125 
L 57.71875 49.75 
Q 55.21875 57.5625 50.484375 61.125 
Q 45.75 64.703125 38.578125 64.703125 
Q 30.328125 64.703125 24.78125 60.734375 
Q 19.234375 56.78125 16.984375 50.109375 
Q 14.75 43.453125 14.75 36.375 
Q 14.75 27.25 17.40625 20.4375 
Q 20.0625 13.625 25.671875 10.25 
Q 31.296875 6.890625 37.84375 6.890625 
Q 45.796875 6.890625 51.3125 11.46875 
Q 56.84375 16.0625 58.796875 25.09375 
z
" id="ArialMT-67"/>
     <path d="M 6.59375 0 
L 6.59375 71.578125 
L 15.375 71.578125 
L 15.375 45.90625 
Q 21.53125 53.03125 30.90625 53.03125 
Q 36.671875 53.03125 40.921875 50.75 
Q 45.171875 48.484375 47 44.484375 
Q 48.828125 40.484375 48.828125 32.859375 
L 48.828125 0 
L 40.046875 0 
L 40.046875 32.859375 
Q 40.046875 39.453125 37.1875 42.453125 
Q 34.328125 45.453125 29.109375 45.453125 
Q 25.203125 45.453125 21.75 43.421875 
Q 18.3125 41.40625 16.84375 37.9375 
Q 15.375 34.46875 15.375 28.375 
L 15.375 0 
z
" id="ArialMT-104"/>
     <path d="M 40.4375 6.390625 
Q 35.546875 2.25 31.03125 0.53125 
Q 26.515625 -1.171875 21.34375 -1.171875 
Q 12.796875 -1.171875 8.203125 3 
Q 3.609375 7.171875 3.609375 13.671875 
Q 3.609375 17.484375 5.34375 20.625 
Q 7.078125 23.78125 9.890625 25.6875 
Q 12.703125 27.59375 16.21875 28.5625 
Q 18.796875 29.25 24.03125 29.890625 
Q 34.671875 31.15625 39.703125 32.90625 
Q 39.75 34.71875 39.75 35.203125 
Q 39.75 40.578125 37.25 42.78125 
Q 33.890625 45.75 27.25 45.75 
Q 21.046875 45.75 18.09375 43.578125 
Q 15.140625 41.40625 13.71875 35.890625 
L 5.125 37.0625 
Q 6.296875 42.578125 8.984375 45.96875 
Q 11.671875 49.359375 16.75 51.1875 
Q 21.828125 53.03125 28.515625 53.03125 
Q 35.15625 53.03125 39.296875 51.46875 
Q 43.453125 49.90625 45.40625 47.53125 
Q 47.359375 45.171875 48.140625 41.546875 
Q 48.578125 39.3125 48.578125 33.453125 
L 48.578125 21.734375 
Q 48.578125 9.46875 49.140625 6.21875 
Q 49.703125 2.984375 51.375 0 
L 42.1875 0 
Q 40.828125 2.734375 40.4375 6.390625 
z
M 39.703125 26.03125 
Q 34.90625 24.078125 25.34375 22.703125 
Q 19.921875 21.921875 17.671875 20.9375 
Q 15.4375 19.96875 14.203125 18.09375 
Q 12.984375 16.21875 12.984375 13.921875 
Q 12.984375 10.40625 15.640625 8.0625 
Q 18.3125 5.71875 23.4375 5.71875 
Q 28.515625 5.71875 32.46875 7.9375 
Q 36.421875 10.15625 38.28125 14.015625 
Q 39.703125 17 39.703125 22.796875 
z
" id="ArialMT-97"/>
     <path d="M 4.984375 -4.296875 
L 13.53125 -5.5625 
Q 14.0625 -9.515625 16.5 -11.328125 
Q 19.78125 -13.765625 25.4375 -13.765625 
Q 31.546875 -13.765625 34.859375 -11.328125 
Q 38.1875 -8.890625 39.359375 -4.5 
Q 40.046875 -1.8125 39.984375 6.78125 
Q 34.234375 0 25.640625 0 
Q 14.9375 0 9.078125 7.71875 
Q 3.21875 15.4375 3.21875 26.21875 
Q 3.21875 33.640625 5.90625 39.90625 
Q 8.59375 46.1875 13.6875 49.609375 
Q 18.796875 53.03125 25.6875 53.03125 
Q 34.859375 53.03125 40.828125 45.609375 
L 40.828125 51.859375 
L 48.921875 51.859375 
L 48.921875 7.03125 
Q 48.921875 -5.078125 46.453125 -10.125 
Q 44 -15.1875 38.640625 -18.109375 
Q 33.296875 -21.046875 25.484375 -21.046875 
Q 16.21875 -21.046875 10.5 -16.875 
Q 4.78125 -12.703125 4.984375 -4.296875 
z
M 12.25 26.859375 
Q 12.25 16.65625 16.296875 11.96875 
Q 20.359375 7.28125 26.46875 7.28125 
Q 32.515625 7.28125 36.609375 11.9375 
Q 40.71875 16.609375 40.71875 26.5625 
Q 40.71875 36.078125 36.5 40.90625 
Q 32.28125 45.75 26.3125 45.75 
Q 20.453125 45.75 16.34375 40.984375 
Q 12.25 36.234375 12.25 26.859375 
z
" id="ArialMT-103"/>
     <path d="M 3.078125 15.484375 
L 11.765625 16.84375 
Q 12.5 11.625 15.84375 8.84375 
Q 19.1875 6.0625 25.203125 6.0625 
Q 31.25 6.0625 34.171875 8.515625 
Q 37.109375 10.984375 37.109375 14.3125 
Q 37.109375 17.28125 34.515625 19 
Q 32.71875 20.171875 25.53125 21.96875 
Q 15.875 24.421875 12.140625 26.203125 
Q 8.40625 27.984375 6.46875 31.125 
Q 4.546875 34.28125 4.546875 38.09375 
Q 4.546875 41.546875 6.125 44.5 
Q 7.71875 47.46875 10.453125 49.421875 
Q 12.5 50.921875 16.03125 51.96875 
Q 19.578125 53.03125 23.640625 53.03125 
Q 29.734375 53.03125 34.34375 51.265625 
Q 38.96875 49.515625 41.15625 46.5 
Q 43.359375 43.5 44.1875 38.484375 
L 35.59375 37.3125 
Q 35.015625 41.3125 32.203125 43.546875 
Q 29.390625 45.796875 24.265625 45.796875 
Q 18.21875 45.796875 15.625 43.796875 
Q 13.03125 41.796875 13.03125 39.109375 
Q 13.03125 37.40625 14.109375 36.03125 
Q 15.1875 34.625 17.484375 33.6875 
Q 18.796875 33.203125 25.25 31.453125 
Q 34.578125 28.953125 38.25 27.359375 
Q 41.9375 25.78125 44.03125 22.75 
Q 46.140625 19.734375 46.140625 15.234375 
Q 46.140625 10.84375 43.578125 6.953125 
Q 41.015625 3.078125 36.171875 0.953125 
Q 31.34375 -1.171875 25.25 -1.171875 
Q 15.140625 -1.171875 9.84375 3.03125 
Q 4.546875 7.234375 3.078125 15.484375 
z
" id="ArialMT-115"/>
     <path id="ArialMT-32"/>
     <path d="M 6.640625 61.46875 
L 6.640625 71.578125 
L 15.4375 71.578125 
L 15.4375 61.46875 
z
M 6.640625 0 
L 6.640625 51.859375 
L 15.4375 51.859375 
L 15.4375 0 
z
" id="ArialMT-105"/>
     <path d="M 6.390625 0 
L 6.390625 71.578125 
L 15.1875 71.578125 
L 15.1875 0 
z
" id="ArialMT-108"/>
     <path d="M 3.328125 25.921875 
Q 3.328125 40.328125 11.328125 47.265625 
Q 18.015625 53.03125 27.640625 53.03125 
Q 38.328125 53.03125 45.109375 46.015625 
Q 51.90625 39.015625 51.90625 26.65625 
Q 51.90625 16.65625 48.90625 10.90625 
Q 45.90625 5.171875 40.15625 2 
Q 34.421875 -1.171875 27.640625 -1.171875 
Q 16.75 -1.171875 10.03125 5.8125 
Q 3.328125 12.796875 3.328125 25.921875 
z
M 12.359375 25.921875 
Q 12.359375 15.96875 16.703125 11.015625 
Q 21.046875 6.0625 27.640625 6.0625 
Q 34.1875 6.0625 38.53125 11.03125 
Q 42.875 16.015625 42.875 26.21875 
Q 42.875 35.84375 38.5 40.796875 
Q 34.125 45.75 27.640625 45.75 
Q 21.046875 45.75 16.703125 40.8125 
Q 12.359375 35.890625 12.359375 25.921875 
z
" id="ArialMT-111"/>
     <path d="M 21 0 
L 1.265625 51.859375 
L 10.546875 51.859375 
L 21.6875 20.796875 
Q 23.484375 15.765625 25 10.359375 
Q 26.171875 14.453125 28.265625 20.21875 
L 39.796875 51.859375 
L 48.828125 51.859375 
L 29.203125 0 
z
" id="ArialMT-118"/>
     <path d="M 6.5 0 
L 6.5 51.859375 
L 14.40625 51.859375 
L 14.40625 44 
Q 17.4375 49.515625 20 51.265625 
Q 22.5625 53.03125 25.640625 53.03125 
Q 30.078125 53.03125 34.671875 50.203125 
L 31.640625 42.046875 
Q 28.421875 43.953125 25.203125 43.953125 
Q 22.3125 43.953125 20.015625 42.21875 
Q 17.71875 40.484375 16.75 37.40625 
Q 15.28125 32.71875 15.28125 27.15625 
L 15.28125 0 
z
" id="ArialMT-114"/>
    </defs>
    <g style="fill:#262626;" transform="translate(173.298125 15.935625)scale(0.12 -0.12)">
     <use xlink:href="#ArialMT-67"/>
     <use x="72.216797" xlink:href="#ArialMT-104"/>
     <use x="127.832031" xlink:href="#ArialMT-97"/>
     <use x="183.447266" xlink:href="#ArialMT-110"/>
     <use x="239.0625" xlink:href="#ArialMT-103"/>
     <use x="294.677734" xlink:href="#ArialMT-101"/>
     <use x="350.292969" xlink:href="#ArialMT-115"/>
     <use x="400.292969" xlink:href="#ArialMT-32"/>
     <use x="428.076172" xlink:href="#ArialMT-105"/>
     <use x="450.292969" xlink:href="#ArialMT-110"/>
     <use x="505.908203" xlink:href="#ArialMT-32"/>
     <use x="533.691406" xlink:href="#ArialMT-108"/>
     <use x="555.908203" xlink:href="#ArialMT-111"/>
     <use x="611.523438" xlink:href="#ArialMT-103"/>
     <use x="667.138672" xlink:href="#ArialMT-32"/>
     <use x="694.921875" xlink:href="#ArialMT-109"/>
     <use x="778.222656" xlink:href="#ArialMT-49"/>
     <use x="833.837891" xlink:href="#ArialMT-32"/>
     <use x="861.621094" xlink:href="#ArialMT-118"/>
     <use x="911.621094" xlink:href="#ArialMT-101"/>
     <use x="967.236328" xlink:href="#ArialMT-114"/>
     <use x="1000.537109" xlink:href="#ArialMT-115"/>
     <use x="1050.537109" xlink:href="#ArialMT-117"/>
     <use x="1106.152344" xlink:href="#ArialMT-115"/>
     <use x="1156.152344" xlink:href="#ArialMT-32"/>
     <use x="1183.935547" xlink:href="#ArialMT-108"/>
     <use x="1206.152344" xlink:href="#ArialMT-111"/>
     <use x="1261.767578" xlink:href="#ArialMT-103"/>
     <use x="1317.382812" xlink:href="#ArialMT-32"/>
     <use x="1345.166016" xlink:href="#ArialMT-117"/>
     <use x="1400.78125" xlink:href="#ArialMT-110"/>
     <use x="1456.396484" xlink:href="#ArialMT-101"/>
     <use x="1512.011719" xlink:href="#ArialMT-109"/>
     <use x="1595.3125" xlink:href="#ArialMT-112"/>
    </g>
   </g>
  </g>
 </g>
 <defs>
  <clipPath id="p714992d649">
   <rect height="271.8" width="446.4" x="49.146875" y="21.935625"/>
  </clipPath>
 </defs>
</svg>
