<?xml version="1.0" encoding="utf-8" standalone="no"?>
<!DOCTYPE svg PUBLIC "-//W3C//DTD SVG 1.1//EN"
  "http://www.w3.org/Graphics/SVG/1.1/DTD/svg11.dtd">
<!-- Created with matplotlib (https://matplotlib.org/) -->
<svg height="307.188906pt" version="1.1" viewBox="0 0 539.078437 307.188906" width="539.078437pt" xmlns="http://www.w3.org/2000/svg" xmlns:xlink="http://www.w3.org/1999/xlink">
 <defs>
  <style type="text/css">
*{stroke-linecap:butt;stroke-linejoin:round;}
  </style>
 </defs>
 <g id="figure_1">
  <g id="patch_1">
   <path d="M 0 307.188906 
L 539.078437 307.188906 
L 539.078437 0 
L 0 0 
z
" style="fill:#ffffff;"/>
  </g>
  <g id="axes_1">
   <g id="patch_2">
    <path d="M 30.758438 143.1 
L 281.318438 143.1 
L 281.318438 7.2 
L 30.758438 7.2 
z
" style="fill:#ffffff;"/>
   </g>
   <g id="matplotlib.axis_1">
    <g id="xtick_1">
     <g id="line2d_1">
      <path clip-path="url(#p90e43aaa4b)" d="M 82.606569 143.1 
L 82.606569 7.2 
" style="fill:none;stroke:#cccccc;stroke-linecap:round;"/>
     </g>
     <g id="line2d_2"/>
    </g>
    <g id="xtick_2">
     <g id="line2d_3">
      <path clip-path="url(#p90e43aaa4b)" d="M 155.0582 143.1 
L 155.0582 7.2 
" style="fill:none;stroke:#cccccc;stroke-linecap:round;"/>
     </g>
     <g id="line2d_4"/>
    </g>
    <g id="xtick_3">
     <g id="line2d_5">
      <path clip-path="url(#p90e43aaa4b)" d="M 227.509831 143.1 
L 227.509831 7.2 
" style="fill:none;stroke:#cccccc;stroke-linecap:round;"/>
     </g>
     <g id="line2d_6"/>
    </g>
   </g>
   <g id="matplotlib.axis_2">
    <g id="ytick_1">
     <g id="line2d_7">
      <path clip-path="url(#p90e43aaa4b)" d="M 30.758438 143.1 
L 281.318438 143.1 
" style="fill:none;stroke:#cccccc;stroke-linecap:round;"/>
     </g>
     <g id="line2d_8"/>
     <g id="text_1">
      <!-- 0 -->
      <defs>
       <path d="M 4.15625 35.296875 
Q 4.15625 48 6.765625 55.734375 
Q 9.375 63.484375 14.515625 67.671875 
Q 19.671875 71.875 27.484375 71.875 
Q 33.25 71.875 37.59375 69.546875 
Q 41.9375 67.234375 44.765625 62.859375 
Q 47.609375 58.5 49.21875 52.21875 
Q 50.828125 45.953125 50.828125 35.296875 
Q 50.828125 22.703125 48.234375 14.96875 
Q 45.65625 7.234375 40.5 3 
Q 35.359375 -1.21875 27.484375 -1.21875 
Q 17.140625 -1.21875 11.234375 6.203125 
Q 4.15625 15.140625 4.15625 35.296875 
z
M 13.1875 35.296875 
Q 13.1875 17.671875 17.3125 11.828125 
Q 21.4375 6 27.484375 6 
Q 33.546875 6 37.671875 11.859375 
Q 41.796875 17.71875 41.796875 35.296875 
Q 41.796875 52.984375 37.671875 58.78125 
Q 33.546875 64.59375 27.390625 64.59375 
Q 21.34375 64.59375 17.71875 59.46875 
Q 13.1875 52.9375 13.1875 35.296875 
z
" id="ArialMT-48"/>
      </defs>
      <g style="fill:#262626;" transform="translate(14.429219 147.752578)scale(0.13 -0.13)">
       <use xlink:href="#ArialMT-48"/>
      </g>
     </g>
    </g>
    <g id="ytick_2">
     <g id="line2d_9">
      <path clip-path="url(#p90e43aaa4b)" d="M 30.758438 105.032773 
L 281.318438 105.032773 
" style="fill:none;stroke:#cccccc;stroke-linecap:round;"/>
     </g>
     <g id="line2d_10"/>
     <g id="text_2">
      <!-- 10 -->
      <defs>
       <path d="M 37.25 0 
L 28.46875 0 
L 28.46875 56 
Q 25.296875 52.984375 20.140625 49.953125 
Q 14.984375 46.921875 10.890625 45.40625 
L 10.890625 53.90625 
Q 18.265625 57.375 23.78125 62.296875 
Q 29.296875 67.234375 31.59375 71.875 
L 37.25 71.875 
z
" id="ArialMT-49"/>
      </defs>
      <g style="fill:#262626;" transform="translate(7.2 109.685351)scale(0.13 -0.13)">
       <use xlink:href="#ArialMT-49"/>
       <use x="55.615234" xlink:href="#ArialMT-48"/>
      </g>
     </g>
    </g>
    <g id="ytick_3">
     <g id="line2d_11">
      <path clip-path="url(#p90e43aaa4b)" d="M 30.758438 66.965546 
L 281.318438 66.965546 
" style="fill:none;stroke:#cccccc;stroke-linecap:round;"/>
     </g>
     <g id="line2d_12"/>
     <g id="text_3">
      <!-- 20 -->
      <defs>
       <path d="M 50.34375 8.453125 
L 50.34375 0 
L 3.03125 0 
Q 2.9375 3.171875 4.046875 6.109375 
Q 5.859375 10.9375 9.828125 15.625 
Q 13.8125 20.3125 21.34375 26.46875 
Q 33.015625 36.03125 37.109375 41.625 
Q 41.21875 47.21875 41.21875 52.203125 
Q 41.21875 57.421875 37.46875 61 
Q 33.734375 64.59375 27.734375 64.59375 
Q 21.390625 64.59375 17.578125 60.78125 
Q 13.765625 56.984375 13.71875 50.25 
L 4.6875 51.171875 
Q 5.609375 61.28125 11.65625 66.578125 
Q 17.71875 71.875 27.9375 71.875 
Q 38.234375 71.875 44.234375 66.15625 
Q 50.25 60.453125 50.25 52 
Q 50.25 47.703125 48.484375 43.546875 
Q 46.734375 39.40625 42.65625 34.8125 
Q 38.578125 30.21875 29.109375 22.21875 
Q 21.1875 15.578125 18.9375 13.203125 
Q 16.703125 10.84375 15.234375 8.453125 
z
" id="ArialMT-50"/>
      </defs>
      <g style="fill:#262626;" transform="translate(7.2 71.618124)scale(0.13 -0.13)">
       <use xlink:href="#ArialMT-50"/>
       <use x="55.615234" xlink:href="#ArialMT-48"/>
      </g>
     </g>
    </g>
    <g id="ytick_4">
     <g id="line2d_13">
      <path clip-path="url(#p90e43aaa4b)" d="M 30.758438 28.898319 
L 281.318438 28.898319 
" style="fill:none;stroke:#cccccc;stroke-linecap:round;"/>
     </g>
     <g id="line2d_14"/>
     <g id="text_4">
      <!-- 30 -->
      <defs>
       <path d="M 4.203125 18.890625 
L 12.984375 20.0625 
Q 14.5 12.59375 18.140625 9.296875 
Q 21.78125 6 27 6 
Q 33.203125 6 37.46875 10.296875 
Q 41.75 14.59375 41.75 20.953125 
Q 41.75 27 37.796875 30.921875 
Q 33.84375 34.859375 27.734375 34.859375 
Q 25.25 34.859375 21.53125 33.890625 
L 22.515625 41.609375 
Q 23.390625 41.5 23.921875 41.5 
Q 29.546875 41.5 34.03125 44.421875 
Q 38.53125 47.359375 38.53125 53.46875 
Q 38.53125 58.296875 35.25 61.46875 
Q 31.984375 64.65625 26.8125 64.65625 
Q 21.6875 64.65625 18.265625 61.421875 
Q 14.84375 58.203125 13.875 51.765625 
L 5.078125 53.328125 
Q 6.6875 62.15625 12.390625 67.015625 
Q 18.109375 71.875 26.609375 71.875 
Q 32.46875 71.875 37.390625 69.359375 
Q 42.328125 66.84375 44.9375 62.5 
Q 47.5625 58.15625 47.5625 53.265625 
Q 47.5625 48.640625 45.0625 44.828125 
Q 42.578125 41.015625 37.703125 38.765625 
Q 44.046875 37.3125 47.5625 32.6875 
Q 51.078125 28.078125 51.078125 21.140625 
Q 51.078125 11.765625 44.234375 5.25 
Q 37.40625 -1.265625 26.953125 -1.265625 
Q 17.53125 -1.265625 11.296875 4.34375 
Q 5.078125 9.96875 4.203125 18.890625 
z
" id="ArialMT-51"/>
      </defs>
      <g style="fill:#262626;" transform="translate(7.2 33.550897)scale(0.13 -0.13)">
       <use xlink:href="#ArialMT-51"/>
       <use x="55.615234" xlink:href="#ArialMT-48"/>
      </g>
     </g>
    </g>
   </g>
   <g id="patch_3">
    <path clip-path="url(#p90e43aaa4b)" d="M 44.709184 143.1 
L 48.869623 143.1 
L 48.869623 139.293277 
L 44.709184 139.293277 
z
" style="opacity:0.5;"/>
   </g>
   <g id="patch_4">
    <path clip-path="url(#p90e43aaa4b)" d="M 48.869623 143.1 
L 53.030061 143.1 
L 53.030061 139.293277 
L 48.869623 139.293277 
z
" style="opacity:0.5;"/>
   </g>
   <g id="patch_5">
    <path clip-path="url(#p90e43aaa4b)" d="M 53.030061 143.1 
L 57.1905 143.1 
L 57.1905 135.486555 
L 53.030061 135.486555 
z
" style="opacity:0.5;"/>
   </g>
   <g id="patch_6">
    <path clip-path="url(#p90e43aaa4b)" d="M 57.1905 143.1 
L 61.350938 143.1 
L 61.350938 135.486555 
L 57.1905 135.486555 
z
" style="opacity:0.5;"/>
   </g>
   <g id="patch_7">
    <path clip-path="url(#p90e43aaa4b)" d="M 61.350938 143.1 
L 65.511377 143.1 
L 65.511377 139.293277 
L 61.350938 139.293277 
z
" style="opacity:0.5;"/>
   </g>
   <g id="patch_8">
    <path clip-path="url(#p90e43aaa4b)" d="M 65.511377 143.1 
L 69.671816 143.1 
L 69.671816 135.486555 
L 65.511377 135.486555 
z
" style="opacity:0.5;"/>
   </g>
   <g id="patch_9">
    <path clip-path="url(#p90e43aaa4b)" d="M 69.671816 143.1 
L 73.832254 143.1 
L 73.832254 131.679832 
L 69.671816 131.679832 
z
" style="opacity:0.5;"/>
   </g>
   <g id="patch_10">
    <path clip-path="url(#p90e43aaa4b)" d="M 73.832254 143.1 
L 77.992693 143.1 
L 77.992693 135.486555 
L 73.832254 135.486555 
z
" style="opacity:0.5;"/>
   </g>
   <g id="patch_11">
    <path clip-path="url(#p90e43aaa4b)" d="M 77.992693 143.1 
L 82.153131 143.1 
L 82.153131 127.873109 
L 77.992693 127.873109 
z
" style="opacity:0.5;"/>
   </g>
   <g id="patch_12">
    <path clip-path="url(#p90e43aaa4b)" d="M 82.153131 143.1 
L 86.31357 143.1 
L 86.31357 124.066387 
L 82.153131 124.066387 
z
" style="opacity:0.5;"/>
   </g>
   <g id="patch_13">
    <path clip-path="url(#p90e43aaa4b)" d="M 86.31357 143.1 
L 90.474009 143.1 
L 90.474009 131.679832 
L 86.31357 131.679832 
z
" style="opacity:0.5;"/>
   </g>
   <g id="patch_14">
    <path clip-path="url(#p90e43aaa4b)" d="M 90.474009 143.1 
L 94.634447 143.1 
L 94.634447 112.646218 
L 90.474009 112.646218 
z
" style="opacity:0.5;"/>
   </g>
   <g id="patch_15">
    <path clip-path="url(#p90e43aaa4b)" d="M 94.634447 143.1 
L 98.794886 143.1 
L 98.794886 108.839496 
L 94.634447 108.839496 
z
" style="opacity:0.5;"/>
   </g>
   <g id="patch_16">
    <path clip-path="url(#p90e43aaa4b)" d="M 98.794886 143.1 
L 102.955325 143.1 
L 102.955325 116.452941 
L 98.794886 116.452941 
z
" style="opacity:0.5;"/>
   </g>
   <g id="patch_17">
    <path clip-path="url(#p90e43aaa4b)" d="M 102.955325 143.1 
L 107.115763 143.1 
L 107.115763 108.839496 
L 102.955325 108.839496 
z
" style="opacity:0.5;"/>
   </g>
   <g id="patch_18">
    <path clip-path="url(#p90e43aaa4b)" d="M 107.115763 143.1 
L 111.276202 143.1 
L 111.276202 112.646218 
L 107.115763 112.646218 
z
" style="opacity:0.5;"/>
   </g>
   <g id="patch_19">
    <path clip-path="url(#p90e43aaa4b)" d="M 111.276202 143.1 
L 115.43664 143.1 
L 115.43664 93.612605 
L 111.276202 93.612605 
z
" style="opacity:0.5;"/>
   </g>
   <g id="patch_20">
    <path clip-path="url(#p90e43aaa4b)" d="M 115.43664 143.1 
L 119.597079 143.1 
L 119.597079 105.032773 
L 115.43664 105.032773 
z
" style="opacity:0.5;"/>
   </g>
   <g id="patch_21">
    <path clip-path="url(#p90e43aaa4b)" d="M 119.597079 143.1 
L 123.757518 143.1 
L 123.757518 70.772269 
L 119.597079 70.772269 
z
" style="opacity:0.5;"/>
   </g>
   <g id="patch_22">
    <path clip-path="url(#p90e43aaa4b)" d="M 123.757518 143.1 
L 127.917956 143.1 
L 127.917956 105.032773 
L 123.757518 105.032773 
z
" style="opacity:0.5;"/>
   </g>
   <g id="patch_23">
    <path clip-path="url(#p90e43aaa4b)" d="M 127.917956 143.1 
L 132.078395 143.1 
L 132.078395 59.352101 
L 127.917956 59.352101 
z
" style="opacity:0.5;"/>
   </g>
   <g id="patch_24">
    <path clip-path="url(#p90e43aaa4b)" d="M 132.078395 143.1 
L 136.238833 143.1 
L 136.238833 74.578992 
L 132.078395 74.578992 
z
" style="opacity:0.5;"/>
   </g>
   <g id="patch_25">
    <path clip-path="url(#p90e43aaa4b)" d="M 136.238833 143.1 
L 140.399272 143.1 
L 140.399272 55.545378 
L 136.238833 55.545378 
z
" style="opacity:0.5;"/>
   </g>
   <g id="patch_26">
    <path clip-path="url(#p90e43aaa4b)" d="M 140.399272 143.1 
L 144.559711 143.1 
L 144.559711 28.898319 
L 140.399272 28.898319 
z
" style="opacity:0.5;"/>
   </g>
   <g id="patch_27">
    <path clip-path="url(#p90e43aaa4b)" d="M 144.559711 143.1 
L 148.720149 143.1 
L 148.720149 51.738655 
L 144.559711 51.738655 
z
" style="opacity:0.5;"/>
   </g>
   <g id="patch_28">
    <path clip-path="url(#p90e43aaa4b)" d="M 148.720149 143.1 
L 152.880588 143.1 
L 152.880588 47.931933 
L 148.720149 47.931933 
z
" style="opacity:0.5;"/>
   </g>
   <g id="patch_29">
    <path clip-path="url(#p90e43aaa4b)" d="M 152.880588 143.1 
L 157.041027 143.1 
L 157.041027 63.158824 
L 152.880588 63.158824 
z
" style="opacity:0.5;"/>
   </g>
   <g id="patch_30">
    <path clip-path="url(#p90e43aaa4b)" d="M 157.041027 143.1 
L 161.201465 143.1 
L 161.201465 66.965546 
L 157.041027 66.965546 
z
" style="opacity:0.5;"/>
   </g>
   <g id="patch_31">
    <path clip-path="url(#p90e43aaa4b)" d="M 161.201465 143.1 
L 165.361904 143.1 
L 165.361904 44.12521 
L 161.201465 44.12521 
z
" style="opacity:0.5;"/>
   </g>
   <g id="patch_32">
    <path clip-path="url(#p90e43aaa4b)" d="M 165.361904 143.1 
L 169.522342 143.1 
L 169.522342 47.931933 
L 165.361904 47.931933 
z
" style="opacity:0.5;"/>
   </g>
   <g id="patch_33">
    <path clip-path="url(#p90e43aaa4b)" d="M 169.522342 143.1 
L 173.682781 143.1 
L 173.682781 66.965546 
L 169.522342 66.965546 
z
" style="opacity:0.5;"/>
   </g>
   <g id="patch_34">
    <path clip-path="url(#p90e43aaa4b)" d="M 173.682781 143.1 
L 177.84322 143.1 
L 177.84322 78.385714 
L 173.682781 78.385714 
z
" style="opacity:0.5;"/>
   </g>
   <g id="patch_35">
    <path clip-path="url(#p90e43aaa4b)" d="M 177.84322 143.1 
L 182.003658 143.1 
L 182.003658 97.419328 
L 177.84322 97.419328 
z
" style="opacity:0.5;"/>
   </g>
   <g id="patch_36">
    <path clip-path="url(#p90e43aaa4b)" d="M 182.003658 143.1 
L 186.164097 143.1 
L 186.164097 74.578992 
L 182.003658 74.578992 
z
" style="opacity:0.5;"/>
   </g>
   <g id="patch_37">
    <path clip-path="url(#p90e43aaa4b)" d="M 186.164097 143.1 
L 190.324535 143.1 
L 190.324535 82.192437 
L 186.164097 82.192437 
z
" style="opacity:0.5;"/>
   </g>
   <g id="patch_38">
    <path clip-path="url(#p90e43aaa4b)" d="M 190.324535 143.1 
L 194.484974 143.1 
L 194.484974 93.612605 
L 190.324535 93.612605 
z
" style="opacity:0.5;"/>
   </g>
   <g id="patch_39">
    <path clip-path="url(#p90e43aaa4b)" d="M 194.484974 143.1 
L 198.645413 143.1 
L 198.645413 101.22605 
L 194.484974 101.22605 
z
" style="opacity:0.5;"/>
   </g>
   <g id="patch_40">
    <path clip-path="url(#p90e43aaa4b)" d="M 198.645413 143.1 
L 202.805851 143.1 
L 202.805851 116.452941 
L 198.645413 116.452941 
z
" style="opacity:0.5;"/>
   </g>
   <g id="patch_41">
    <path clip-path="url(#p90e43aaa4b)" d="M 202.805851 143.1 
L 206.96629 143.1 
L 206.96629 116.452941 
L 202.805851 116.452941 
z
" style="opacity:0.5;"/>
   </g>
   <g id="patch_42">
    <path clip-path="url(#p90e43aaa4b)" d="M 206.96629 143.1 
L 211.126728 143.1 
L 211.126728 120.259664 
L 206.96629 120.259664 
z
" style="opacity:0.5;"/>
   </g>
   <g id="patch_43">
    <path clip-path="url(#p90e43aaa4b)" d="M 211.126728 143.1 
L 215.287167 143.1 
L 215.287167 127.873109 
L 211.126728 127.873109 
z
" style="opacity:0.5;"/>
   </g>
   <g id="patch_44">
    <path clip-path="url(#p90e43aaa4b)" d="M 215.287167 143.1 
L 219.447606 143.1 
L 219.447606 124.066387 
L 215.287167 124.066387 
z
" style="opacity:0.5;"/>
   </g>
   <g id="patch_45">
    <path clip-path="url(#p90e43aaa4b)" d="M 219.447606 143.1 
L 223.608044 143.1 
L 223.608044 143.1 
L 219.447606 143.1 
z
" style="opacity:0.5;"/>
   </g>
   <g id="patch_46">
    <path clip-path="url(#p90e43aaa4b)" d="M 223.608044 143.1 
L 227.768483 143.1 
L 227.768483 139.293277 
L 223.608044 139.293277 
z
" style="opacity:0.5;"/>
   </g>
   <g id="patch_47">
    <path clip-path="url(#p90e43aaa4b)" d="M 227.768483 143.1 
L 231.928922 143.1 
L 231.928922 127.873109 
L 227.768483 127.873109 
z
" style="opacity:0.5;"/>
   </g>
   <g id="patch_48">
    <path clip-path="url(#p90e43aaa4b)" d="M 231.928922 143.1 
L 236.08936 143.1 
L 236.08936 143.1 
L 231.928922 143.1 
z
" style="opacity:0.5;"/>
   </g>
   <g id="patch_49">
    <path clip-path="url(#p90e43aaa4b)" d="M 236.08936 143.1 
L 240.249799 143.1 
L 240.249799 131.679832 
L 236.08936 131.679832 
z
" style="opacity:0.5;"/>
   </g>
   <g id="patch_50">
    <path clip-path="url(#p90e43aaa4b)" d="M 240.249799 143.1 
L 244.410237 143.1 
L 244.410237 135.486555 
L 240.249799 135.486555 
z
" style="opacity:0.5;"/>
   </g>
   <g id="patch_51">
    <path clip-path="url(#p90e43aaa4b)" d="M 244.410237 143.1 
L 248.570676 143.1 
L 248.570676 143.1 
L 244.410237 143.1 
z
" style="opacity:0.5;"/>
   </g>
   <g id="patch_52">
    <path clip-path="url(#p90e43aaa4b)" d="M 248.570676 143.1 
L 252.731115 143.1 
L 252.731115 139.293277 
L 248.570676 139.293277 
z
" style="opacity:0.5;"/>
   </g>
   <g id="patch_53">
    <path d="M 30.758438 143.1 
L 30.758438 7.2 
" style="fill:none;stroke:#cccccc;stroke-linecap:square;stroke-linejoin:miter;"/>
   </g>
   <g id="patch_54">
    <path d="M 281.318438 143.1 
L 281.318438 7.2 
" style="fill:none;stroke:#cccccc;stroke-linecap:square;stroke-linejoin:miter;"/>
   </g>
   <g id="patch_55">
    <path d="M 30.758438 143.1 
L 281.318438 143.1 
" style="fill:none;stroke:#cccccc;stroke-linecap:square;stroke-linejoin:miter;"/>
   </g>
   <g id="patch_56">
    <path d="M 30.758438 7.2 
L 281.318438 7.2 
" style="fill:none;stroke:#cccccc;stroke-linecap:square;stroke-linejoin:miter;"/>
   </g>
  </g>
  <g id="axes_2">
   <g id="patch_57">
    <path d="M 281.318438 143.1 
L 531.878437 143.1 
L 531.878437 7.2 
L 281.318438 7.2 
z
" style="fill:#ffffff;"/>
   </g>
   <g id="matplotlib.axis_3">
    <g id="xtick_4">
     <g id="line2d_15">
      <path clip-path="url(#p9d7681eb4c)" d="M 333.166569 143.1 
L 333.166569 7.2 
" style="fill:none;stroke:#cccccc;stroke-linecap:round;"/>
     </g>
     <g id="line2d_16"/>
    </g>
    <g id="xtick_5">
     <g id="line2d_17">
      <path clip-path="url(#p9d7681eb4c)" d="M 405.6182 143.1 
L 405.6182 7.2 
" style="fill:none;stroke:#cccccc;stroke-linecap:round;"/>
     </g>
     <g id="line2d_18"/>
    </g>
    <g id="xtick_6">
     <g id="line2d_19">
      <path clip-path="url(#p9d7681eb4c)" d="M 478.069831 143.1 
L 478.069831 7.2 
" style="fill:none;stroke:#cccccc;stroke-linecap:round;"/>
     </g>
     <g id="line2d_20"/>
    </g>
   </g>
   <g id="matplotlib.axis_4">
    <g id="ytick_5">
     <g id="line2d_21">
      <path clip-path="url(#p9d7681eb4c)" d="M 281.318438 143.1 
L 531.878437 143.1 
" style="fill:none;stroke:#cccccc;stroke-linecap:round;"/>
     </g>
     <g id="line2d_22"/>
    </g>
    <g id="ytick_6">
     <g id="line2d_23">
      <path clip-path="url(#p9d7681eb4c)" d="M 281.318438 105.032773 
L 531.878437 105.032773 
" style="fill:none;stroke:#cccccc;stroke-linecap:round;"/>
     </g>
     <g id="line2d_24"/>
    </g>
    <g id="ytick_7">
     <g id="line2d_25">
      <path clip-path="url(#p9d7681eb4c)" d="M 281.318438 66.965546 
L 531.878437 66.965546 
" style="fill:none;stroke:#cccccc;stroke-linecap:round;"/>
     </g>
     <g id="line2d_26"/>
    </g>
    <g id="ytick_8">
     <g id="line2d_27">
      <path clip-path="url(#p9d7681eb4c)" d="M 281.318438 28.898319 
L 531.878437 28.898319 
" style="fill:none;stroke:#cccccc;stroke-linecap:round;"/>
     </g>
     <g id="line2d_28"/>
    </g>
   </g>
   <g id="patch_58">
    <path clip-path="url(#p9d7681eb4c)" d="M 312.054286 143.1 
L 316.222987 143.1 
L 316.222987 139.293277 
L 312.054286 139.293277 
z
" style="opacity:0.5;"/>
   </g>
   <g id="patch_59">
    <path clip-path="url(#p9d7681eb4c)" d="M 316.222987 143.1 
L 320.391688 143.1 
L 320.391688 143.1 
L 316.222987 143.1 
z
" style="opacity:0.5;"/>
   </g>
   <g id="patch_60">
    <path clip-path="url(#p9d7681eb4c)" d="M 320.391688 143.1 
L 324.56039 143.1 
L 324.56039 139.293277 
L 320.391688 139.293277 
z
" style="opacity:0.5;"/>
   </g>
   <g id="patch_61">
    <path clip-path="url(#p9d7681eb4c)" d="M 324.56039 143.1 
L 328.729091 143.1 
L 328.729091 143.1 
L 324.56039 143.1 
z
" style="opacity:0.5;"/>
   </g>
   <g id="patch_62">
    <path clip-path="url(#p9d7681eb4c)" d="M 328.729091 143.1 
L 332.897792 143.1 
L 332.897792 135.486555 
L 328.729091 135.486555 
z
" style="opacity:0.5;"/>
   </g>
   <g id="patch_63">
    <path clip-path="url(#p9d7681eb4c)" d="M 332.897792 143.1 
L 337.066493 143.1 
L 337.066493 135.486555 
L 332.897792 135.486555 
z
" style="opacity:0.5;"/>
   </g>
   <g id="patch_64">
    <path clip-path="url(#p9d7681eb4c)" d="M 337.066493 143.1 
L 341.235194 143.1 
L 341.235194 127.873109 
L 337.066493 127.873109 
z
" style="opacity:0.5;"/>
   </g>
   <g id="patch_65">
    <path clip-path="url(#p9d7681eb4c)" d="M 341.235194 143.1 
L 345.403896 143.1 
L 345.403896 131.679832 
L 341.235194 131.679832 
z
" style="opacity:0.5;"/>
   </g>
   <g id="patch_66">
    <path clip-path="url(#p9d7681eb4c)" d="M 345.403896 143.1 
L 349.572597 143.1 
L 349.572597 116.452941 
L 345.403896 116.452941 
z
" style="opacity:0.5;"/>
   </g>
   <g id="patch_67">
    <path clip-path="url(#p9d7681eb4c)" d="M 349.572597 143.1 
L 353.741298 143.1 
L 353.741298 116.452941 
L 349.572597 116.452941 
z
" style="opacity:0.5;"/>
   </g>
   <g id="patch_68">
    <path clip-path="url(#p9d7681eb4c)" d="M 353.741298 143.1 
L 357.909999 143.1 
L 357.909999 108.839496 
L 353.741298 108.839496 
z
" style="opacity:0.5;"/>
   </g>
   <g id="patch_69">
    <path clip-path="url(#p9d7681eb4c)" d="M 357.909999 143.1 
L 362.0787 143.1 
L 362.0787 116.452941 
L 357.909999 116.452941 
z
" style="opacity:0.5;"/>
   </g>
   <g id="patch_70">
    <path clip-path="url(#p9d7681eb4c)" d="M 362.0787 143.1 
L 366.247402 143.1 
L 366.247402 101.22605 
L 362.0787 101.22605 
z
" style="opacity:0.5;"/>
   </g>
   <g id="patch_71">
    <path clip-path="url(#p9d7681eb4c)" d="M 366.247402 143.1 
L 370.416103 143.1 
L 370.416103 85.99916 
L 366.247402 85.99916 
z
" style="opacity:0.5;"/>
   </g>
   <g id="patch_72">
    <path clip-path="url(#p9d7681eb4c)" d="M 370.416103 143.1 
L 374.584804 143.1 
L 374.584804 74.578992 
L 370.416103 74.578992 
z
" style="opacity:0.5;"/>
   </g>
   <g id="patch_73">
    <path clip-path="url(#p9d7681eb4c)" d="M 374.584804 143.1 
L 378.753505 143.1 
L 378.753505 47.931933 
L 374.584804 47.931933 
z
" style="opacity:0.5;"/>
   </g>
   <g id="patch_74">
    <path clip-path="url(#p9d7681eb4c)" d="M 378.753505 143.1 
L 382.922207 143.1 
L 382.922207 89.805882 
L 378.753505 89.805882 
z
" style="opacity:0.5;"/>
   </g>
   <g id="patch_75">
    <path clip-path="url(#p9d7681eb4c)" d="M 382.922207 143.1 
L 387.090908 143.1 
L 387.090908 89.805882 
L 382.922207 89.805882 
z
" style="opacity:0.5;"/>
   </g>
   <g id="patch_76">
    <path clip-path="url(#p9d7681eb4c)" d="M 387.090908 143.1 
L 391.259609 143.1 
L 391.259609 59.352101 
L 387.090908 59.352101 
z
" style="opacity:0.5;"/>
   </g>
   <g id="patch_77">
    <path clip-path="url(#p9d7681eb4c)" d="M 391.259609 143.1 
L 395.42831 143.1 
L 395.42831 59.352101 
L 391.259609 59.352101 
z
" style="opacity:0.5;"/>
   </g>
   <g id="patch_78">
    <path clip-path="url(#p9d7681eb4c)" d="M 395.42831 143.1 
L 399.597011 143.1 
L 399.597011 59.352101 
L 395.42831 59.352101 
z
" style="opacity:0.5;"/>
   </g>
   <g id="patch_79">
    <path clip-path="url(#p9d7681eb4c)" d="M 399.597011 143.1 
L 403.765713 143.1 
L 403.765713 36.511765 
L 399.597011 36.511765 
z
" style="opacity:0.5;"/>
   </g>
   <g id="patch_80">
    <path clip-path="url(#p9d7681eb4c)" d="M 403.765713 143.1 
L 407.934414 143.1 
L 407.934414 21.284874 
L 403.765713 21.284874 
z
" style="opacity:0.5;"/>
   </g>
   <g id="patch_81">
    <path clip-path="url(#p9d7681eb4c)" d="M 407.934414 143.1 
L 412.103115 143.1 
L 412.103115 82.192437 
L 407.934414 82.192437 
z
" style="opacity:0.5;"/>
   </g>
   <g id="patch_82">
    <path clip-path="url(#p9d7681eb4c)" d="M 412.103115 143.1 
L 416.271816 143.1 
L 416.271816 13.671429 
L 412.103115 13.671429 
z
" style="opacity:0.5;"/>
   </g>
   <g id="patch_83">
    <path clip-path="url(#p9d7681eb4c)" d="M 416.271816 143.1 
L 420.440517 143.1 
L 420.440517 51.738655 
L 416.271816 51.738655 
z
" style="opacity:0.5;"/>
   </g>
   <g id="patch_84">
    <path clip-path="url(#p9d7681eb4c)" d="M 420.440517 143.1 
L 424.609219 143.1 
L 424.609219 70.772269 
L 420.440517 70.772269 
z
" style="opacity:0.5;"/>
   </g>
   <g id="patch_85">
    <path clip-path="url(#p9d7681eb4c)" d="M 424.609219 143.1 
L 428.77792 143.1 
L 428.77792 85.99916 
L 424.609219 85.99916 
z
" style="opacity:0.5;"/>
   </g>
   <g id="patch_86">
    <path clip-path="url(#p9d7681eb4c)" d="M 428.77792 143.1 
L 432.946621 143.1 
L 432.946621 78.385714 
L 428.77792 78.385714 
z
" style="opacity:0.5;"/>
   </g>
   <g id="patch_87">
    <path clip-path="url(#p9d7681eb4c)" d="M 432.946621 143.1 
L 437.115322 143.1 
L 437.115322 85.99916 
L 432.946621 85.99916 
z
" style="opacity:0.5;"/>
   </g>
   <g id="patch_88">
    <path clip-path="url(#p9d7681eb4c)" d="M 437.115322 143.1 
L 441.284024 143.1 
L 441.284024 85.99916 
L 437.115322 85.99916 
z
" style="opacity:0.5;"/>
   </g>
   <g id="patch_89">
    <path clip-path="url(#p9d7681eb4c)" d="M 441.284024 143.1 
L 445.452725 143.1 
L 445.452725 89.805882 
L 441.284024 89.805882 
z
" style="opacity:0.5;"/>
   </g>
   <g id="patch_90">
    <path clip-path="url(#p9d7681eb4c)" d="M 445.452725 143.1 
L 449.621426 143.1 
L 449.621426 124.066387 
L 445.452725 124.066387 
z
" style="opacity:0.5;"/>
   </g>
   <g id="patch_91">
    <path clip-path="url(#p9d7681eb4c)" d="M 449.621426 143.1 
L 453.790127 143.1 
L 453.790127 89.805882 
L 449.621426 89.805882 
z
" style="opacity:0.5;"/>
   </g>
   <g id="patch_92">
    <path clip-path="url(#p9d7681eb4c)" d="M 453.790127 143.1 
L 457.958828 143.1 
L 457.958828 101.22605 
L 453.790127 101.22605 
z
" style="opacity:0.5;"/>
   </g>
   <g id="patch_93">
    <path clip-path="url(#p9d7681eb4c)" d="M 457.958828 143.1 
L 462.12753 143.1 
L 462.12753 131.679832 
L 457.958828 131.679832 
z
" style="opacity:0.5;"/>
   </g>
   <g id="patch_94">
    <path clip-path="url(#p9d7681eb4c)" d="M 462.12753 143.1 
L 466.296231 143.1 
L 466.296231 112.646218 
L 462.12753 112.646218 
z
" style="opacity:0.5;"/>
   </g>
   <g id="patch_95">
    <path clip-path="url(#p9d7681eb4c)" d="M 466.296231 143.1 
L 470.464932 143.1 
L 470.464932 116.452941 
L 466.296231 116.452941 
z
" style="opacity:0.5;"/>
   </g>
   <g id="patch_96">
    <path clip-path="url(#p9d7681eb4c)" d="M 470.464932 143.1 
L 474.633633 143.1 
L 474.633633 127.873109 
L 470.464932 127.873109 
z
" style="opacity:0.5;"/>
   </g>
   <g id="patch_97">
    <path clip-path="url(#p9d7681eb4c)" d="M 474.633633 143.1 
L 478.802334 143.1 
L 478.802334 135.486555 
L 474.633633 135.486555 
z
" style="opacity:0.5;"/>
   </g>
   <g id="patch_98">
    <path clip-path="url(#p9d7681eb4c)" d="M 478.802334 143.1 
L 482.971036 143.1 
L 482.971036 135.486555 
L 478.802334 135.486555 
z
" style="opacity:0.5;"/>
   </g>
   <g id="patch_99">
    <path clip-path="url(#p9d7681eb4c)" d="M 482.971036 143.1 
L 487.139737 143.1 
L 487.139737 135.486555 
L 482.971036 135.486555 
z
" style="opacity:0.5;"/>
   </g>
   <g id="patch_100">
    <path clip-path="url(#p9d7681eb4c)" d="M 487.139737 143.1 
L 491.308438 143.1 
L 491.308438 135.486555 
L 487.139737 135.486555 
z
" style="opacity:0.5;"/>
   </g>
   <g id="patch_101">
    <path clip-path="url(#p9d7681eb4c)" d="M 491.308438 143.1 
L 495.477139 143.1 
L 495.477139 143.1 
L 491.308438 143.1 
z
" style="opacity:0.5;"/>
   </g>
   <g id="patch_102">
    <path clip-path="url(#p9d7681eb4c)" d="M 495.477139 143.1 
L 499.645841 143.1 
L 499.645841 131.679832 
L 495.477139 131.679832 
z
" style="opacity:0.5;"/>
   </g>
   <g id="patch_103">
    <path clip-path="url(#p9d7681eb4c)" d="M 499.645841 143.1 
L 503.814542 143.1 
L 503.814542 143.1 
L 499.645841 143.1 
z
" style="opacity:0.5;"/>
   </g>
   <g id="patch_104">
    <path clip-path="url(#p9d7681eb4c)" d="M 503.814542 143.1 
L 507.983243 143.1 
L 507.983243 139.293277 
L 503.814542 139.293277 
z
" style="opacity:0.5;"/>
   </g>
   <g id="patch_105">
    <path clip-path="url(#p9d7681eb4c)" d="M 507.983243 143.1 
L 512.151944 143.1 
L 512.151944 143.1 
L 507.983243 143.1 
z
" style="opacity:0.5;"/>
   </g>
   <g id="patch_106">
    <path clip-path="url(#p9d7681eb4c)" d="M 512.151944 143.1 
L 516.320645 143.1 
L 516.320645 143.1 
L 512.151944 143.1 
z
" style="opacity:0.5;"/>
   </g>
   <g id="patch_107">
    <path clip-path="url(#p9d7681eb4c)" d="M 516.320645 143.1 
L 520.489347 143.1 
L 520.489347 139.293277 
L 516.320645 139.293277 
z
" style="opacity:0.5;"/>
   </g>
   <g id="patch_108">
    <path d="M 281.318438 143.1 
L 281.318438 7.2 
" style="fill:none;stroke:#cccccc;stroke-linecap:square;stroke-linejoin:miter;"/>
   </g>
   <g id="patch_109">
    <path d="M 531.878437 143.1 
L 531.878437 7.2 
" style="fill:none;stroke:#cccccc;stroke-linecap:square;stroke-linejoin:miter;"/>
   </g>
   <g id="patch_110">
    <path d="M 281.318438 143.1 
L 531.878437 143.1 
" style="fill:none;stroke:#cccccc;stroke-linecap:square;stroke-linejoin:miter;"/>
   </g>
   <g id="patch_111">
    <path d="M 281.318438 7.2 
L 531.878437 7.2 
" style="fill:none;stroke:#cccccc;stroke-linecap:square;stroke-linejoin:miter;"/>
   </g>
  </g>
  <g id="axes_3">
   <g id="patch_112">
    <path d="M 30.758438 279 
L 281.318438 279 
L 281.318438 143.1 
L 30.758438 143.1 
z
" style="fill:#ffffff;"/>
   </g>
   <g id="matplotlib.axis_5">
    <g id="xtick_7">
     <g id="line2d_29">
      <path clip-path="url(#pd13245ecb9)" d="M 82.606569 279 
L 82.606569 143.1 
" style="fill:none;stroke:#cccccc;stroke-linecap:round;"/>
     </g>
     <g id="line2d_30"/>
     <g id="text_5">
      <!-- −2 -->
      <defs>
       <path d="M 52.828125 31.203125 
L 5.5625 31.203125 
L 5.5625 39.40625 
L 52.828125 39.40625 
z
" id="ArialMT-8722"/>
      </defs>
      <g style="fill:#262626;" transform="translate(75.195553 297.405156)scale(0.13 -0.13)">
       <use xlink:href="#ArialMT-8722"/>
       <use x="58.398438" xlink:href="#ArialMT-50"/>
      </g>
     </g>
    </g>
    <g id="xtick_8">
     <g id="line2d_31">
      <path clip-path="url(#pd13245ecb9)" d="M 155.0582 279 
L 155.0582 143.1 
" style="fill:none;stroke:#cccccc;stroke-linecap:round;"/>
     </g>
     <g id="line2d_32"/>
     <g id="text_6">
      <!-- 0 -->
      <g style="fill:#262626;" transform="translate(151.44359 297.405156)scale(0.13 -0.13)">
       <use xlink:href="#ArialMT-48"/>
      </g>
     </g>
    </g>
    <g id="xtick_9">
     <g id="line2d_33">
      <path clip-path="url(#pd13245ecb9)" d="M 227.509831 279 
L 227.509831 143.1 
" style="fill:none;stroke:#cccccc;stroke-linecap:round;"/>
     </g>
     <g id="line2d_34"/>
     <g id="text_7">
      <!-- 2 -->
      <g style="fill:#262626;" transform="translate(223.895221 297.405156)scale(0.13 -0.13)">
       <use xlink:href="#ArialMT-50"/>
      </g>
     </g>
    </g>
   </g>
   <g id="matplotlib.axis_6">
    <g id="ytick_9">
     <g id="line2d_35">
      <path clip-path="url(#pd13245ecb9)" d="M 30.758438 279 
L 281.318438 279 
" style="fill:none;stroke:#cccccc;stroke-linecap:round;"/>
     </g>
     <g id="line2d_36"/>
     <g id="text_8">
      <!-- 0 -->
      <g style="fill:#262626;" transform="translate(14.429219 283.652578)scale(0.13 -0.13)">
       <use xlink:href="#ArialMT-48"/>
      </g>
     </g>
    </g>
    <g id="ytick_10">
     <g id="line2d_37">
      <path clip-path="url(#pd13245ecb9)" d="M 30.758438 240.932773 
L 281.318438 240.932773 
" style="fill:none;stroke:#cccccc;stroke-linecap:round;"/>
     </g>
     <g id="line2d_38"/>
     <g id="text_9">
      <!-- 10 -->
      <g style="fill:#262626;" transform="translate(7.2 245.585351)scale(0.13 -0.13)">
       <use xlink:href="#ArialMT-49"/>
       <use x="55.615234" xlink:href="#ArialMT-48"/>
      </g>
     </g>
    </g>
    <g id="ytick_11">
     <g id="line2d_39">
      <path clip-path="url(#pd13245ecb9)" d="M 30.758438 202.865546 
L 281.318438 202.865546 
" style="fill:none;stroke:#cccccc;stroke-linecap:round;"/>
     </g>
     <g id="line2d_40"/>
     <g id="text_10">
      <!-- 20 -->
      <g style="fill:#262626;" transform="translate(7.2 207.518124)scale(0.13 -0.13)">
       <use xlink:href="#ArialMT-50"/>
       <use x="55.615234" xlink:href="#ArialMT-48"/>
      </g>
     </g>
    </g>
    <g id="ytick_12">
     <g id="line2d_41">
      <path clip-path="url(#pd13245ecb9)" d="M 30.758438 164.798319 
L 281.318438 164.798319 
" style="fill:none;stroke:#cccccc;stroke-linecap:round;"/>
     </g>
     <g id="line2d_42"/>
     <g id="text_11">
      <!-- 30 -->
      <g style="fill:#262626;" transform="translate(7.2 169.450897)scale(0.13 -0.13)">
       <use xlink:href="#ArialMT-51"/>
       <use x="55.615234" xlink:href="#ArialMT-48"/>
      </g>
     </g>
    </g>
   </g>
   <g id="patch_113">
    <path clip-path="url(#pd13245ecb9)" d="M 46.575907 279 
L 50.68767 279 
L 50.68767 275.193277 
L 46.575907 275.193277 
z
" style="opacity:0.5;"/>
   </g>
   <g id="patch_114">
    <path clip-path="url(#pd13245ecb9)" d="M 50.68767 279 
L 54.799434 279 
L 54.799434 271.386555 
L 50.68767 271.386555 
z
" style="opacity:0.5;"/>
   </g>
   <g id="patch_115">
    <path clip-path="url(#pd13245ecb9)" d="M 54.799434 279 
L 58.911197 279 
L 58.911197 279 
L 54.799434 279 
z
" style="opacity:0.5;"/>
   </g>
   <g id="patch_116">
    <path clip-path="url(#pd13245ecb9)" d="M 58.911197 279 
L 63.02296 279 
L 63.02296 275.193277 
L 58.911197 275.193277 
z
" style="opacity:0.5;"/>
   </g>
   <g id="patch_117">
    <path clip-path="url(#pd13245ecb9)" d="M 63.02296 279 
L 67.134723 279 
L 67.134723 275.193277 
L 63.02296 275.193277 
z
" style="opacity:0.5;"/>
   </g>
   <g id="patch_118">
    <path clip-path="url(#pd13245ecb9)" d="M 67.134723 279 
L 71.246486 279 
L 71.246486 279 
L 67.134723 279 
z
" style="opacity:0.5;"/>
   </g>
   <g id="patch_119">
    <path clip-path="url(#pd13245ecb9)" d="M 71.246486 279 
L 75.358249 279 
L 75.358249 279 
L 71.246486 279 
z
" style="opacity:0.5;"/>
   </g>
   <g id="patch_120">
    <path clip-path="url(#pd13245ecb9)" d="M 75.358249 279 
L 79.470012 279 
L 79.470012 271.386555 
L 75.358249 271.386555 
z
" style="opacity:0.5;"/>
   </g>
   <g id="patch_121">
    <path clip-path="url(#pd13245ecb9)" d="M 79.470012 279 
L 83.581776 279 
L 83.581776 275.193277 
L 79.470012 275.193277 
z
" style="opacity:0.5;"/>
   </g>
   <g id="patch_122">
    <path clip-path="url(#pd13245ecb9)" d="M 83.581776 279 
L 87.693539 279 
L 87.693539 271.386555 
L 83.581776 271.386555 
z
" style="opacity:0.5;"/>
   </g>
   <g id="patch_123">
    <path clip-path="url(#pd13245ecb9)" d="M 87.693539 279 
L 91.805302 279 
L 91.805302 259.966387 
L 87.693539 259.966387 
z
" style="opacity:0.5;"/>
   </g>
   <g id="patch_124">
    <path clip-path="url(#pd13245ecb9)" d="M 91.805302 279 
L 95.917065 279 
L 95.917065 256.159664 
L 91.805302 256.159664 
z
" style="opacity:0.5;"/>
   </g>
   <g id="patch_125">
    <path clip-path="url(#pd13245ecb9)" d="M 95.917065 279 
L 100.028828 279 
L 100.028828 252.352941 
L 95.917065 252.352941 
z
" style="opacity:0.5;"/>
   </g>
   <g id="patch_126">
    <path clip-path="url(#pd13245ecb9)" d="M 100.028828 279 
L 104.140591 279 
L 104.140591 237.12605 
L 100.028828 237.12605 
z
" style="opacity:0.5;"/>
   </g>
   <g id="patch_127">
    <path clip-path="url(#pd13245ecb9)" d="M 104.140591 279 
L 108.252354 279 
L 108.252354 237.12605 
L 104.140591 237.12605 
z
" style="opacity:0.5;"/>
   </g>
   <g id="patch_128">
    <path clip-path="url(#pd13245ecb9)" d="M 108.252354 279 
L 112.364117 279 
L 112.364117 244.739496 
L 108.252354 244.739496 
z
" style="opacity:0.5;"/>
   </g>
   <g id="patch_129">
    <path clip-path="url(#pd13245ecb9)" d="M 112.364117 279 
L 116.475881 279 
L 116.475881 240.932773 
L 112.364117 240.932773 
z
" style="opacity:0.5;"/>
   </g>
   <g id="patch_130">
    <path clip-path="url(#pd13245ecb9)" d="M 116.475881 279 
L 120.587644 279 
L 120.587644 214.285714 
L 116.475881 214.285714 
z
" style="opacity:0.5;"/>
   </g>
   <g id="patch_131">
    <path clip-path="url(#pd13245ecb9)" d="M 120.587644 279 
L 124.699407 279 
L 124.699407 229.512605 
L 120.587644 229.512605 
z
" style="opacity:0.5;"/>
   </g>
   <g id="patch_132">
    <path clip-path="url(#pd13245ecb9)" d="M 124.699407 279 
L 128.81117 279 
L 128.81117 206.672269 
L 124.699407 206.672269 
z
" style="opacity:0.5;"/>
   </g>
   <g id="patch_133">
    <path clip-path="url(#pd13245ecb9)" d="M 128.81117 279 
L 132.922933 279 
L 132.922933 233.319328 
L 128.81117 233.319328 
z
" style="opacity:0.5;"/>
   </g>
   <g id="patch_134">
    <path clip-path="url(#pd13245ecb9)" d="M 132.922933 279 
L 137.034696 279 
L 137.034696 191.445378 
L 132.922933 191.445378 
z
" style="opacity:0.5;"/>
   </g>
   <g id="patch_135">
    <path clip-path="url(#pd13245ecb9)" d="M 137.034696 279 
L 141.146459 279 
L 141.146459 183.831933 
L 137.034696 183.831933 
z
" style="opacity:0.5;"/>
   </g>
   <g id="patch_136">
    <path clip-path="url(#pd13245ecb9)" d="M 141.146459 279 
L 145.258223 279 
L 145.258223 210.478992 
L 141.146459 210.478992 
z
" style="opacity:0.5;"/>
   </g>
   <g id="patch_137">
    <path clip-path="url(#pd13245ecb9)" d="M 145.258223 279 
L 149.369986 279 
L 149.369986 225.705882 
L 145.258223 225.705882 
z
" style="opacity:0.5;"/>
   </g>
   <g id="patch_138">
    <path clip-path="url(#pd13245ecb9)" d="M 149.369986 279 
L 153.481749 279 
L 153.481749 191.445378 
L 149.369986 191.445378 
z
" style="opacity:0.5;"/>
   </g>
   <g id="patch_139">
    <path clip-path="url(#pd13245ecb9)" d="M 153.481749 279 
L 157.593512 279 
L 157.593512 210.478992 
L 153.481749 210.478992 
z
" style="opacity:0.5;"/>
   </g>
   <g id="patch_140">
    <path clip-path="url(#pd13245ecb9)" d="M 157.593512 279 
L 161.705275 279 
L 161.705275 164.798319 
L 157.593512 164.798319 
z
" style="opacity:0.5;"/>
   </g>
   <g id="patch_141">
    <path clip-path="url(#pd13245ecb9)" d="M 161.705275 279 
L 165.817038 279 
L 165.817038 199.058824 
L 161.705275 199.058824 
z
" style="opacity:0.5;"/>
   </g>
   <g id="patch_142">
    <path clip-path="url(#pd13245ecb9)" d="M 165.817038 279 
L 169.928801 279 
L 169.928801 195.252101 
L 165.817038 195.252101 
z
" style="opacity:0.5;"/>
   </g>
   <g id="patch_143">
    <path clip-path="url(#pd13245ecb9)" d="M 169.928801 279 
L 174.040565 279 
L 174.040565 191.445378 
L 169.928801 191.445378 
z
" style="opacity:0.5;"/>
   </g>
   <g id="patch_144">
    <path clip-path="url(#pd13245ecb9)" d="M 174.040565 279 
L 178.152328 279 
L 178.152328 176.218487 
L 174.040565 176.218487 
z
" style="opacity:0.5;"/>
   </g>
   <g id="patch_145">
    <path clip-path="url(#pd13245ecb9)" d="M 178.152328 279 
L 182.264091 279 
L 182.264091 233.319328 
L 178.152328 233.319328 
z
" style="opacity:0.5;"/>
   </g>
   <g id="patch_146">
    <path clip-path="url(#pd13245ecb9)" d="M 182.264091 279 
L 186.375854 279 
L 186.375854 218.092437 
L 182.264091 218.092437 
z
" style="opacity:0.5;"/>
   </g>
   <g id="patch_147">
    <path clip-path="url(#pd13245ecb9)" d="M 186.375854 279 
L 190.487617 279 
L 190.487617 202.865546 
L 186.375854 202.865546 
z
" style="opacity:0.5;"/>
   </g>
   <g id="patch_148">
    <path clip-path="url(#pd13245ecb9)" d="M 190.487617 279 
L 194.59938 279 
L 194.59938 221.89916 
L 190.487617 221.89916 
z
" style="opacity:0.5;"/>
   </g>
   <g id="patch_149">
    <path clip-path="url(#pd13245ecb9)" d="M 194.59938 279 
L 198.711143 279 
L 198.711143 244.739496 
L 194.59938 244.739496 
z
" style="opacity:0.5;"/>
   </g>
   <g id="patch_150">
    <path clip-path="url(#pd13245ecb9)" d="M 198.711143 279 
L 202.822907 279 
L 202.822907 256.159664 
L 198.711143 256.159664 
z
" style="opacity:0.5;"/>
   </g>
   <g id="patch_151">
    <path clip-path="url(#pd13245ecb9)" d="M 202.822907 279 
L 206.93467 279 
L 206.93467 240.932773 
L 202.822907 240.932773 
z
" style="opacity:0.5;"/>
   </g>
   <g id="patch_152">
    <path clip-path="url(#pd13245ecb9)" d="M 206.93467 279 
L 211.046433 279 
L 211.046433 263.773109 
L 206.93467 263.773109 
z
" style="opacity:0.5;"/>
   </g>
   <g id="patch_153">
    <path clip-path="url(#pd13245ecb9)" d="M 211.046433 279 
L 215.158196 279 
L 215.158196 240.932773 
L 211.046433 240.932773 
z
" style="opacity:0.5;"/>
   </g>
   <g id="patch_154">
    <path clip-path="url(#pd13245ecb9)" d="M 215.158196 279 
L 219.269959 279 
L 219.269959 263.773109 
L 215.158196 263.773109 
z
" style="opacity:0.5;"/>
   </g>
   <g id="patch_155">
    <path clip-path="url(#pd13245ecb9)" d="M 219.269959 279 
L 223.381722 279 
L 223.381722 263.773109 
L 219.269959 263.773109 
z
" style="opacity:0.5;"/>
   </g>
   <g id="patch_156">
    <path clip-path="url(#pd13245ecb9)" d="M 223.381722 279 
L 227.493485 279 
L 227.493485 267.579832 
L 223.381722 267.579832 
z
" style="opacity:0.5;"/>
   </g>
   <g id="patch_157">
    <path clip-path="url(#pd13245ecb9)" d="M 227.493485 279 
L 231.605249 279 
L 231.605249 275.193277 
L 227.493485 275.193277 
z
" style="opacity:0.5;"/>
   </g>
   <g id="patch_158">
    <path clip-path="url(#pd13245ecb9)" d="M 231.605249 279 
L 235.717012 279 
L 235.717012 263.773109 
L 231.605249 263.773109 
z
" style="opacity:0.5;"/>
   </g>
   <g id="patch_159">
    <path clip-path="url(#pd13245ecb9)" d="M 235.717012 279 
L 239.828775 279 
L 239.828775 263.773109 
L 235.717012 263.773109 
z
" style="opacity:0.5;"/>
   </g>
   <g id="patch_160">
    <path clip-path="url(#pd13245ecb9)" d="M 239.828775 279 
L 243.940538 279 
L 243.940538 275.193277 
L 239.828775 275.193277 
z
" style="opacity:0.5;"/>
   </g>
   <g id="patch_161">
    <path clip-path="url(#pd13245ecb9)" d="M 243.940538 279 
L 248.052301 279 
L 248.052301 275.193277 
L 243.940538 275.193277 
z
" style="opacity:0.5;"/>
   </g>
   <g id="patch_162">
    <path clip-path="url(#pd13245ecb9)" d="M 248.052301 279 
L 252.164064 279 
L 252.164064 271.386555 
L 248.052301 271.386555 
z
" style="opacity:0.5;"/>
   </g>
   <g id="patch_163">
    <path d="M 30.758438 279 
L 30.758438 143.1 
" style="fill:none;stroke:#cccccc;stroke-linecap:square;stroke-linejoin:miter;"/>
   </g>
   <g id="patch_164">
    <path d="M 281.318438 279 
L 281.318438 143.1 
" style="fill:none;stroke:#cccccc;stroke-linecap:square;stroke-linejoin:miter;"/>
   </g>
   <g id="patch_165">
    <path d="M 30.758438 279 
L 281.318438 279 
" style="fill:none;stroke:#cccccc;stroke-linecap:square;stroke-linejoin:miter;"/>
   </g>
   <g id="patch_166">
    <path d="M 30.758438 143.1 
L 281.318438 143.1 
" style="fill:none;stroke:#cccccc;stroke-linecap:square;stroke-linejoin:miter;"/>
   </g>
  </g>
  <g id="axes_4">
   <g id="patch_167">
    <path d="M 281.318438 279 
L 531.878437 279 
L 531.878437 143.1 
L 281.318438 143.1 
z
" style="fill:#ffffff;"/>
   </g>
   <g id="matplotlib.axis_7">
    <g id="xtick_10">
     <g id="line2d_43">
      <path clip-path="url(#p40380536d3)" d="M 333.166569 279 
L 333.166569 143.1 
" style="fill:none;stroke:#cccccc;stroke-linecap:round;"/>
     </g>
     <g id="line2d_44"/>
     <g id="text_12">
      <!-- −2 -->
      <g style="fill:#262626;" transform="translate(325.755553 297.405156)scale(0.13 -0.13)">
       <use xlink:href="#ArialMT-8722"/>
       <use x="58.398438" xlink:href="#ArialMT-50"/>
      </g>
     </g>
    </g>
    <g id="xtick_11">
     <g id="line2d_45">
      <path clip-path="url(#p40380536d3)" d="M 405.6182 279 
L 405.6182 143.1 
" style="fill:none;stroke:#cccccc;stroke-linecap:round;"/>
     </g>
     <g id="line2d_46"/>
     <g id="text_13">
      <!-- 0 -->
      <g style="fill:#262626;" transform="translate(402.00359 297.405156)scale(0.13 -0.13)">
       <use xlink:href="#ArialMT-48"/>
      </g>
     </g>
    </g>
    <g id="xtick_12">
     <g id="line2d_47">
      <path clip-path="url(#p40380536d3)" d="M 478.069831 279 
L 478.069831 143.1 
" style="fill:none;stroke:#cccccc;stroke-linecap:round;"/>
     </g>
     <g id="line2d_48"/>
     <g id="text_14">
      <!-- 2 -->
      <g style="fill:#262626;" transform="translate(474.455221 297.405156)scale(0.13 -0.13)">
       <use xlink:href="#ArialMT-50"/>
      </g>
     </g>
    </g>
   </g>
   <g id="matplotlib.axis_8">
    <g id="ytick_13">
     <g id="line2d_49">
      <path clip-path="url(#p40380536d3)" d="M 281.318438 279 
L 531.878437 279 
" style="fill:none;stroke:#cccccc;stroke-linecap:round;"/>
     </g>
     <g id="line2d_50"/>
    </g>
    <g id="ytick_14">
     <g id="line2d_51">
      <path clip-path="url(#p40380536d3)" d="M 281.318438 240.932773 
L 531.878437 240.932773 
" style="fill:none;stroke:#cccccc;stroke-linecap:round;"/>
     </g>
     <g id="line2d_52"/>
    </g>
    <g id="ytick_15">
     <g id="line2d_53">
      <path clip-path="url(#p40380536d3)" d="M 281.318438 202.865546 
L 531.878437 202.865546 
" style="fill:none;stroke:#cccccc;stroke-linecap:round;"/>
     </g>
     <g id="line2d_54"/>
    </g>
    <g id="ytick_16">
     <g id="line2d_55">
      <path clip-path="url(#p40380536d3)" d="M 281.318438 164.798319 
L 531.878437 164.798319 
" style="fill:none;stroke:#cccccc;stroke-linecap:round;"/>
     </g>
     <g id="line2d_56"/>
    </g>
   </g>
   <g id="patch_168">
    <path clip-path="url(#p40380536d3)" d="M 292.707528 279 
L 297.08792 279 
L 297.08792 275.193277 
L 292.707528 275.193277 
z
" style="opacity:0.5;"/>
   </g>
   <g id="patch_169">
    <path clip-path="url(#p40380536d3)" d="M 297.08792 279 
L 301.468311 279 
L 301.468311 279 
L 297.08792 279 
z
" style="opacity:0.5;"/>
   </g>
   <g id="patch_170">
    <path clip-path="url(#p40380536d3)" d="M 301.468311 279 
L 305.848703 279 
L 305.848703 275.193277 
L 301.468311 275.193277 
z
" style="opacity:0.5;"/>
   </g>
   <g id="patch_171">
    <path clip-path="url(#p40380536d3)" d="M 305.848703 279 
L 310.229094 279 
L 310.229094 279 
L 305.848703 279 
z
" style="opacity:0.5;"/>
   </g>
   <g id="patch_172">
    <path clip-path="url(#p40380536d3)" d="M 310.229094 279 
L 314.609486 279 
L 314.609486 279 
L 310.229094 279 
z
" style="opacity:0.5;"/>
   </g>
   <g id="patch_173">
    <path clip-path="url(#p40380536d3)" d="M 314.609486 279 
L 318.989877 279 
L 318.989877 275.193277 
L 314.609486 275.193277 
z
" style="opacity:0.5;"/>
   </g>
   <g id="patch_174">
    <path clip-path="url(#p40380536d3)" d="M 318.989877 279 
L 323.370268 279 
L 323.370268 275.193277 
L 318.989877 275.193277 
z
" style="opacity:0.5;"/>
   </g>
   <g id="patch_175">
    <path clip-path="url(#p40380536d3)" d="M 323.370268 279 
L 327.75066 279 
L 327.75066 275.193277 
L 323.370268 275.193277 
z
" style="opacity:0.5;"/>
   </g>
   <g id="patch_176">
    <path clip-path="url(#p40380536d3)" d="M 327.75066 279 
L 332.131051 279 
L 332.131051 267.579832 
L 327.75066 267.579832 
z
" style="opacity:0.5;"/>
   </g>
   <g id="patch_177">
    <path clip-path="url(#p40380536d3)" d="M 332.131051 279 
L 336.511443 279 
L 336.511443 275.193277 
L 332.131051 275.193277 
z
" style="opacity:0.5;"/>
   </g>
   <g id="patch_178">
    <path clip-path="url(#p40380536d3)" d="M 336.511443 279 
L 340.891834 279 
L 340.891834 259.966387 
L 336.511443 259.966387 
z
" style="opacity:0.5;"/>
   </g>
   <g id="patch_179">
    <path clip-path="url(#p40380536d3)" d="M 340.891834 279 
L 345.272225 279 
L 345.272225 252.352941 
L 340.891834 252.352941 
z
" style="opacity:0.5;"/>
   </g>
   <g id="patch_180">
    <path clip-path="url(#p40380536d3)" d="M 345.272225 279 
L 349.652617 279 
L 349.652617 221.89916 
L 345.272225 221.89916 
z
" style="opacity:0.5;"/>
   </g>
   <g id="patch_181">
    <path clip-path="url(#p40380536d3)" d="M 349.652617 279 
L 354.033008 279 
L 354.033008 248.546218 
L 349.652617 248.546218 
z
" style="opacity:0.5;"/>
   </g>
   <g id="patch_182">
    <path clip-path="url(#p40380536d3)" d="M 354.033008 279 
L 358.4134 279 
L 358.4134 240.932773 
L 354.033008 240.932773 
z
" style="opacity:0.5;"/>
   </g>
   <g id="patch_183">
    <path clip-path="url(#p40380536d3)" d="M 358.4134 279 
L 362.793791 279 
L 362.793791 252.352941 
L 358.4134 252.352941 
z
" style="opacity:0.5;"/>
   </g>
   <g id="patch_184">
    <path clip-path="url(#p40380536d3)" d="M 362.793791 279 
L 367.174183 279 
L 367.174183 244.739496 
L 362.793791 244.739496 
z
" style="opacity:0.5;"/>
   </g>
   <g id="patch_185">
    <path clip-path="url(#p40380536d3)" d="M 367.174183 279 
L 371.554574 279 
L 371.554574 195.252101 
L 367.174183 195.252101 
z
" style="opacity:0.5;"/>
   </g>
   <g id="patch_186">
    <path clip-path="url(#p40380536d3)" d="M 371.554574 279 
L 375.934965 279 
L 375.934965 210.478992 
L 371.554574 210.478992 
z
" style="opacity:0.5;"/>
   </g>
   <g id="patch_187">
    <path clip-path="url(#p40380536d3)" d="M 375.934965 279 
L 380.315357 279 
L 380.315357 176.218487 
L 375.934965 176.218487 
z
" style="opacity:0.5;"/>
   </g>
   <g id="patch_188">
    <path clip-path="url(#p40380536d3)" d="M 380.315357 279 
L 384.695748 279 
L 384.695748 199.058824 
L 380.315357 199.058824 
z
" style="opacity:0.5;"/>
   </g>
   <g id="patch_189">
    <path clip-path="url(#p40380536d3)" d="M 384.695748 279 
L 389.07614 279 
L 389.07614 221.89916 
L 384.695748 221.89916 
z
" style="opacity:0.5;"/>
   </g>
   <g id="patch_190">
    <path clip-path="url(#p40380536d3)" d="M 389.07614 279 
L 393.456531 279 
L 393.456531 214.285714 
L 389.07614 214.285714 
z
" style="opacity:0.5;"/>
   </g>
   <g id="patch_191">
    <path clip-path="url(#p40380536d3)" d="M 393.456531 279 
L 397.836923 279 
L 397.836923 191.445378 
L 393.456531 191.445378 
z
" style="opacity:0.5;"/>
   </g>
   <g id="patch_192">
    <path clip-path="url(#p40380536d3)" d="M 397.836923 279 
L 402.217314 279 
L 402.217314 172.411765 
L 397.836923 172.411765 
z
" style="opacity:0.5;"/>
   </g>
   <g id="patch_193">
    <path clip-path="url(#p40380536d3)" d="M 402.217314 279 
L 406.597705 279 
L 406.597705 172.411765 
L 402.217314 172.411765 
z
" style="opacity:0.5;"/>
   </g>
   <g id="patch_194">
    <path clip-path="url(#p40380536d3)" d="M 406.597705 279 
L 410.978097 279 
L 410.978097 157.184874 
L 406.597705 157.184874 
z
" style="opacity:0.5;"/>
   </g>
   <g id="patch_195">
    <path clip-path="url(#p40380536d3)" d="M 410.978097 279 
L 415.358488 279 
L 415.358488 206.672269 
L 410.978097 206.672269 
z
" style="opacity:0.5;"/>
   </g>
   <g id="patch_196">
    <path clip-path="url(#p40380536d3)" d="M 415.358488 279 
L 419.73888 279 
L 419.73888 221.89916 
L 415.358488 221.89916 
z
" style="opacity:0.5;"/>
   </g>
   <g id="patch_197">
    <path clip-path="url(#p40380536d3)" d="M 419.73888 279 
L 424.119271 279 
L 424.119271 183.831933 
L 419.73888 183.831933 
z
" style="opacity:0.5;"/>
   </g>
   <g id="patch_198">
    <path clip-path="url(#p40380536d3)" d="M 424.119271 279 
L 428.499663 279 
L 428.499663 206.672269 
L 424.119271 206.672269 
z
" style="opacity:0.5;"/>
   </g>
   <g id="patch_199">
    <path clip-path="url(#p40380536d3)" d="M 428.499663 279 
L 432.880054 279 
L 432.880054 218.092437 
L 428.499663 218.092437 
z
" style="opacity:0.5;"/>
   </g>
   <g id="patch_200">
    <path clip-path="url(#p40380536d3)" d="M 432.880054 279 
L 437.260445 279 
L 437.260445 233.319328 
L 432.880054 233.319328 
z
" style="opacity:0.5;"/>
   </g>
   <g id="patch_201">
    <path clip-path="url(#p40380536d3)" d="M 437.260445 279 
L 441.640837 279 
L 441.640837 225.705882 
L 437.260445 225.705882 
z
" style="opacity:0.5;"/>
   </g>
   <g id="patch_202">
    <path clip-path="url(#p40380536d3)" d="M 441.640837 279 
L 446.021228 279 
L 446.021228 233.319328 
L 441.640837 233.319328 
z
" style="opacity:0.5;"/>
   </g>
   <g id="patch_203">
    <path clip-path="url(#p40380536d3)" d="M 446.021228 279 
L 450.40162 279 
L 450.40162 252.352941 
L 446.021228 252.352941 
z
" style="opacity:0.5;"/>
   </g>
   <g id="patch_204">
    <path clip-path="url(#p40380536d3)" d="M 450.40162 279 
L 454.782011 279 
L 454.782011 233.319328 
L 450.40162 233.319328 
z
" style="opacity:0.5;"/>
   </g>
   <g id="patch_205">
    <path clip-path="url(#p40380536d3)" d="M 454.782011 279 
L 459.162402 279 
L 459.162402 229.512605 
L 454.782011 229.512605 
z
" style="opacity:0.5;"/>
   </g>
   <g id="patch_206">
    <path clip-path="url(#p40380536d3)" d="M 459.162402 279 
L 463.542794 279 
L 463.542794 240.932773 
L 459.162402 240.932773 
z
" style="opacity:0.5;"/>
   </g>
   <g id="patch_207">
    <path clip-path="url(#p40380536d3)" d="M 463.542794 279 
L 467.923185 279 
L 467.923185 252.352941 
L 463.542794 252.352941 
z
" style="opacity:0.5;"/>
   </g>
   <g id="patch_208">
    <path clip-path="url(#p40380536d3)" d="M 467.923185 279 
L 472.303577 279 
L 472.303577 256.159664 
L 467.923185 256.159664 
z
" style="opacity:0.5;"/>
   </g>
   <g id="patch_209">
    <path clip-path="url(#p40380536d3)" d="M 472.303577 279 
L 476.683968 279 
L 476.683968 267.579832 
L 472.303577 267.579832 
z
" style="opacity:0.5;"/>
   </g>
   <g id="patch_210">
    <path clip-path="url(#p40380536d3)" d="M 476.683968 279 
L 481.06436 279 
L 481.06436 263.773109 
L 476.683968 263.773109 
z
" style="opacity:0.5;"/>
   </g>
   <g id="patch_211">
    <path clip-path="url(#p40380536d3)" d="M 481.06436 279 
L 485.444751 279 
L 485.444751 275.193277 
L 481.06436 275.193277 
z
" style="opacity:0.5;"/>
   </g>
   <g id="patch_212">
    <path clip-path="url(#p40380536d3)" d="M 485.444751 279 
L 489.825142 279 
L 489.825142 275.193277 
L 485.444751 275.193277 
z
" style="opacity:0.5;"/>
   </g>
   <g id="patch_213">
    <path clip-path="url(#p40380536d3)" d="M 489.825142 279 
L 494.205534 279 
L 494.205534 279 
L 489.825142 279 
z
" style="opacity:0.5;"/>
   </g>
   <g id="patch_214">
    <path clip-path="url(#p40380536d3)" d="M 494.205534 279 
L 498.585925 279 
L 498.585925 275.193277 
L 494.205534 275.193277 
z
" style="opacity:0.5;"/>
   </g>
   <g id="patch_215">
    <path clip-path="url(#p40380536d3)" d="M 498.585925 279 
L 502.966317 279 
L 502.966317 275.193277 
L 498.585925 275.193277 
z
" style="opacity:0.5;"/>
   </g>
   <g id="patch_216">
    <path clip-path="url(#p40380536d3)" d="M 502.966317 279 
L 507.346708 279 
L 507.346708 279 
L 502.966317 279 
z
" style="opacity:0.5;"/>
   </g>
   <g id="patch_217">
    <path clip-path="url(#p40380536d3)" d="M 507.346708 279 
L 511.7271 279 
L 511.7271 275.193277 
L 507.346708 275.193277 
z
" style="opacity:0.5;"/>
   </g>
   <g id="patch_218">
    <path d="M 281.318438 279 
L 281.318438 143.1 
" style="fill:none;stroke:#cccccc;stroke-linecap:square;stroke-linejoin:miter;"/>
   </g>
   <g id="patch_219">
    <path d="M 531.878437 279 
L 531.878437 143.1 
" style="fill:none;stroke:#cccccc;stroke-linecap:square;stroke-linejoin:miter;"/>
   </g>
   <g id="patch_220">
    <path d="M 281.318438 279 
L 531.878437 279 
" style="fill:none;stroke:#cccccc;stroke-linecap:square;stroke-linejoin:miter;"/>
   </g>
   <g id="patch_221">
    <path d="M 281.318438 143.1 
L 531.878437 143.1 
" style="fill:none;stroke:#cccccc;stroke-linecap:square;stroke-linejoin:miter;"/>
   </g>
  </g>
 </g>
 <defs>
  <clipPath id="p90e43aaa4b">
   <rect height="135.9" width="250.56" x="30.758438" y="7.2"/>
  </clipPath>
  <clipPath id="p9d7681eb4c">
   <rect height="135.9" width="250.56" x="281.318438" y="7.2"/>
  </clipPath>
  <clipPath id="pd13245ecb9">
   <rect height="135.9" width="250.56" x="30.758438" y="143.1"/>
  </clipPath>
  <clipPath id="p40380536d3">
   <rect height="135.9" width="250.56" x="281.318438" y="143.1"/>
  </clipPath>
 </defs>
</svg>
