<?xml version="1.0" encoding="utf-8" standalone="no"?>
<!DOCTYPE svg PUBLIC "-//W3C//DTD SVG 1.1//EN"
  "http://www.w3.org/Graphics/SVG/1.1/DTD/svg11.dtd">
<!-- Created with matplotlib (https://matplotlib.org/) -->
<svg height="298.845312pt" version="1.1" viewBox="0 0 475.701562 298.845312" width="475.701562pt" xmlns="http://www.w3.org/2000/svg" xmlns:xlink="http://www.w3.org/1999/xlink">
 <defs>
  <style type="text/css">
*{stroke-linecap:butt;stroke-linejoin:round;}
  </style>
 </defs>
 <g id="figure_1">
  <g id="patch_1">
   <path d="M 0 298.845312 
L 475.701562 298.845312 
L 475.701562 0 
L 0 0 
z
" style="fill:#ffffff;"/>
  </g>
  <g id="axes_1">
   <g id="patch_2">
    <path d="M 22.101562 279 
L 468.501562 279 
L 468.501562 7.2 
L 22.101562 7.2 
z
" style="fill:#ffffff;"/>
   </g>
   <g id="matplotlib.axis_1">
    <g id="xtick_1">
     <g id="line2d_1">
      <path clip-path="url(#pa4e2497d8c)" d="M 42.392472 279 
L 42.392472 7.2 
" style="fill:none;stroke:#cccccc;stroke-linecap:round;stroke-width:0.8;"/>
     </g>
     <g id="line2d_2"/>
     <g id="text_1">
      <!-- 0 -->
      <defs>
       <path d="M 4.15625 35.296875 
Q 4.15625 48 6.765625 55.734375 
Q 9.375 63.484375 14.515625 67.671875 
Q 19.671875 71.875 27.484375 71.875 
Q 33.25 71.875 37.59375 69.546875 
Q 41.9375 67.234375 44.765625 62.859375 
Q 47.609375 58.5 49.21875 52.21875 
Q 50.828125 45.953125 50.828125 35.296875 
Q 50.828125 22.703125 48.234375 14.96875 
Q 45.65625 7.234375 40.5 3 
Q 35.359375 -1.21875 27.484375 -1.21875 
Q 17.140625 -1.21875 11.234375 6.203125 
Q 4.15625 15.140625 4.15625 35.296875 
z
M 13.1875 35.296875 
Q 13.1875 17.671875 17.3125 11.828125 
Q 21.4375 6 27.484375 6 
Q 33.546875 6 37.671875 11.859375 
Q 41.796875 17.71875 41.796875 35.296875 
Q 41.796875 52.984375 37.671875 58.78125 
Q 33.546875 64.59375 27.390625 64.59375 
Q 21.34375 64.59375 17.71875 59.46875 
Q 13.1875 52.9375 13.1875 35.296875 
z
" id="ArialMT-48"/>
      </defs>
      <g style="fill:#262626;" transform="translate(39.612003 289.657812)scale(0.1 -0.1)">
       <use xlink:href="#ArialMT-48"/>
      </g>
     </g>
    </g>
    <g id="xtick_2">
     <g id="line2d_3">
      <path clip-path="url(#pa4e2497d8c)" d="M 112.361124 279 
L 112.361124 7.2 
" style="fill:none;stroke:#cccccc;stroke-linecap:round;stroke-width:0.8;"/>
     </g>
     <g id="line2d_4"/>
     <g id="text_2">
      <!-- 5 -->
      <defs>
       <path d="M 4.15625 18.75 
L 13.375 19.53125 
Q 14.40625 12.796875 18.140625 9.390625 
Q 21.875 6 27.15625 6 
Q 33.5 6 37.890625 10.78125 
Q 42.28125 15.578125 42.28125 23.484375 
Q 42.28125 31 38.0625 35.34375 
Q 33.84375 39.703125 27 39.703125 
Q 22.75 39.703125 19.328125 37.765625 
Q 15.921875 35.84375 13.96875 32.765625 
L 5.71875 33.84375 
L 12.640625 70.609375 
L 48.25 70.609375 
L 48.25 62.203125 
L 19.671875 62.203125 
L 15.828125 42.96875 
Q 22.265625 47.46875 29.34375 47.46875 
Q 38.71875 47.46875 45.15625 40.96875 
Q 51.609375 34.46875 51.609375 24.265625 
Q 51.609375 14.546875 45.953125 7.46875 
Q 39.0625 -1.21875 27.15625 -1.21875 
Q 17.390625 -1.21875 11.203125 4.25 
Q 5.03125 9.71875 4.15625 18.75 
z
" id="ArialMT-53"/>
      </defs>
      <g style="fill:#262626;" transform="translate(109.580655 289.657812)scale(0.1 -0.1)">
       <use xlink:href="#ArialMT-53"/>
      </g>
     </g>
    </g>
    <g id="xtick_3">
     <g id="line2d_5">
      <path clip-path="url(#pa4e2497d8c)" d="M 182.329776 279 
L 182.329776 7.2 
" style="fill:none;stroke:#cccccc;stroke-linecap:round;stroke-width:0.8;"/>
     </g>
     <g id="line2d_6"/>
     <g id="text_3">
      <!-- 10 -->
      <defs>
       <path d="M 37.25 0 
L 28.46875 0 
L 28.46875 56 
Q 25.296875 52.984375 20.140625 49.953125 
Q 14.984375 46.921875 10.890625 45.40625 
L 10.890625 53.90625 
Q 18.265625 57.375 23.78125 62.296875 
Q 29.296875 67.234375 31.59375 71.875 
L 37.25 71.875 
z
" id="ArialMT-49"/>
      </defs>
      <g style="fill:#262626;" transform="translate(176.768838 289.657812)scale(0.1 -0.1)">
       <use xlink:href="#ArialMT-49"/>
       <use x="55.615234" xlink:href="#ArialMT-48"/>
      </g>
     </g>
    </g>
    <g id="xtick_4">
     <g id="line2d_7">
      <path clip-path="url(#pa4e2497d8c)" d="M 252.298428 279 
L 252.298428 7.2 
" style="fill:none;stroke:#cccccc;stroke-linecap:round;stroke-width:0.8;"/>
     </g>
     <g id="line2d_8"/>
     <g id="text_4">
      <!-- 15 -->
      <g style="fill:#262626;" transform="translate(246.73749 289.657812)scale(0.1 -0.1)">
       <use xlink:href="#ArialMT-49"/>
       <use x="55.615234" xlink:href="#ArialMT-53"/>
      </g>
     </g>
    </g>
    <g id="xtick_5">
     <g id="line2d_9">
      <path clip-path="url(#pa4e2497d8c)" d="M 322.26708 279 
L 322.26708 7.2 
" style="fill:none;stroke:#cccccc;stroke-linecap:round;stroke-width:0.8;"/>
     </g>
     <g id="line2d_10"/>
     <g id="text_5">
      <!-- 20 -->
      <defs>
       <path d="M 50.34375 8.453125 
L 50.34375 0 
L 3.03125 0 
Q 2.9375 3.171875 4.046875 6.109375 
Q 5.859375 10.9375 9.828125 15.625 
Q 13.8125 20.3125 21.34375 26.46875 
Q 33.015625 36.03125 37.109375 41.625 
Q 41.21875 47.21875 41.21875 52.203125 
Q 41.21875 57.421875 37.46875 61 
Q 33.734375 64.59375 27.734375 64.59375 
Q 21.390625 64.59375 17.578125 60.78125 
Q 13.765625 56.984375 13.71875 50.25 
L 4.6875 51.171875 
Q 5.609375 61.28125 11.65625 66.578125 
Q 17.71875 71.875 27.9375 71.875 
Q 38.234375 71.875 44.234375 66.15625 
Q 50.25 60.453125 50.25 52 
Q 50.25 47.703125 48.484375 43.546875 
Q 46.734375 39.40625 42.65625 34.8125 
Q 38.578125 30.21875 29.109375 22.21875 
Q 21.1875 15.578125 18.9375 13.203125 
Q 16.703125 10.84375 15.234375 8.453125 
z
" id="ArialMT-50"/>
      </defs>
      <g style="fill:#262626;" transform="translate(316.706142 289.657812)scale(0.1 -0.1)">
       <use xlink:href="#ArialMT-50"/>
       <use x="55.615234" xlink:href="#ArialMT-48"/>
      </g>
     </g>
    </g>
    <g id="xtick_6">
     <g id="line2d_11">
      <path clip-path="url(#pa4e2497d8c)" d="M 392.235732 279 
L 392.235732 7.2 
" style="fill:none;stroke:#cccccc;stroke-linecap:round;stroke-width:0.8;"/>
     </g>
     <g id="line2d_12"/>
     <g id="text_6">
      <!-- 25 -->
      <g style="fill:#262626;" transform="translate(386.674794 289.657812)scale(0.1 -0.1)">
       <use xlink:href="#ArialMT-50"/>
       <use x="55.615234" xlink:href="#ArialMT-53"/>
      </g>
     </g>
    </g>
    <g id="xtick_7">
     <g id="line2d_13">
      <path clip-path="url(#pa4e2497d8c)" d="M 462.204384 279 
L 462.204384 7.2 
" style="fill:none;stroke:#cccccc;stroke-linecap:round;stroke-width:0.8;"/>
     </g>
     <g id="line2d_14"/>
     <g id="text_7">
      <!-- 30 -->
      <defs>
       <path d="M 4.203125 18.890625 
L 12.984375 20.0625 
Q 14.5 12.59375 18.140625 9.296875 
Q 21.78125 6 27 6 
Q 33.203125 6 37.46875 10.296875 
Q 41.75 14.59375 41.75 20.953125 
Q 41.75 27 37.796875 30.921875 
Q 33.84375 34.859375 27.734375 34.859375 
Q 25.25 34.859375 21.53125 33.890625 
L 22.515625 41.609375 
Q 23.390625 41.5 23.921875 41.5 
Q 29.546875 41.5 34.03125 44.421875 
Q 38.53125 47.359375 38.53125 53.46875 
Q 38.53125 58.296875 35.25 61.46875 
Q 31.984375 64.65625 26.8125 64.65625 
Q 21.6875 64.65625 18.265625 61.421875 
Q 14.84375 58.203125 13.875 51.765625 
L 5.078125 53.328125 
Q 6.6875 62.15625 12.390625 67.015625 
Q 18.109375 71.875 26.609375 71.875 
Q 32.46875 71.875 37.390625 69.359375 
Q 42.328125 66.84375 44.9375 62.5 
Q 47.5625 58.15625 47.5625 53.265625 
Q 47.5625 48.640625 45.0625 44.828125 
Q 42.578125 41.015625 37.703125 38.765625 
Q 44.046875 37.3125 47.5625 32.6875 
Q 51.078125 28.078125 51.078125 21.140625 
Q 51.078125 11.765625 44.234375 5.25 
Q 37.40625 -1.265625 26.953125 -1.265625 
Q 17.53125 -1.265625 11.296875 4.34375 
Q 5.078125 9.96875 4.203125 18.890625 
z
" id="ArialMT-51"/>
      </defs>
      <g style="fill:#262626;" transform="translate(456.643446 289.657812)scale(0.1 -0.1)">
       <use xlink:href="#ArialMT-51"/>
       <use x="55.615234" xlink:href="#ArialMT-48"/>
      </g>
     </g>
    </g>
   </g>
   <g id="matplotlib.axis_2">
    <g id="ytick_1">
     <g id="line2d_15">
      <path clip-path="url(#pa4e2497d8c)" d="M 22.101562 254.589408 
L 468.501562 254.589408 
" style="fill:none;stroke:#cccccc;stroke-linecap:round;stroke-width:0.8;"/>
     </g>
     <g id="line2d_16"/>
     <g id="text_8">
      <!-- −4 -->
      <defs>
       <path d="M 52.828125 31.203125 
L 5.5625 31.203125 
L 5.5625 39.40625 
L 52.828125 39.40625 
z
" id="ArialMT-8722"/>
       <path d="M 32.328125 0 
L 32.328125 17.140625 
L 1.265625 17.140625 
L 1.265625 25.203125 
L 33.9375 71.578125 
L 41.109375 71.578125 
L 41.109375 25.203125 
L 50.78125 25.203125 
L 50.78125 17.140625 
L 41.109375 17.140625 
L 41.109375 0 
z
M 32.328125 25.203125 
L 32.328125 57.46875 
L 9.90625 25.203125 
z
" id="ArialMT-52"/>
      </defs>
      <g style="fill:#262626;" transform="translate(7.2 258.168314)scale(0.1 -0.1)">
       <use xlink:href="#ArialMT-8722"/>
       <use x="58.398438" xlink:href="#ArialMT-52"/>
      </g>
     </g>
    </g>
    <g id="ytick_2">
     <g id="line2d_17">
      <path clip-path="url(#pa4e2497d8c)" d="M 22.101562 208.617049 
L 468.501562 208.617049 
" style="fill:none;stroke:#cccccc;stroke-linecap:round;stroke-width:0.8;"/>
     </g>
     <g id="line2d_18"/>
     <g id="text_9">
      <!-- −3 -->
      <g style="fill:#262626;" transform="translate(7.2 212.195955)scale(0.1 -0.1)">
       <use xlink:href="#ArialMT-8722"/>
       <use x="58.398438" xlink:href="#ArialMT-51"/>
      </g>
     </g>
    </g>
    <g id="ytick_3">
     <g id="line2d_19">
      <path clip-path="url(#pa4e2497d8c)" d="M 22.101562 162.644689 
L 468.501562 162.644689 
" style="fill:none;stroke:#cccccc;stroke-linecap:round;stroke-width:0.8;"/>
     </g>
     <g id="line2d_20"/>
     <g id="text_10">
      <!-- −2 -->
      <g style="fill:#262626;" transform="translate(7.2 166.223596)scale(0.1 -0.1)">
       <use xlink:href="#ArialMT-8722"/>
       <use x="58.398438" xlink:href="#ArialMT-50"/>
      </g>
     </g>
    </g>
    <g id="ytick_4">
     <g id="line2d_21">
      <path clip-path="url(#pa4e2497d8c)" d="M 22.101562 116.67233 
L 468.501562 116.67233 
" style="fill:none;stroke:#cccccc;stroke-linecap:round;stroke-width:0.8;"/>
     </g>
     <g id="line2d_22"/>
     <g id="text_11">
      <!-- −1 -->
      <g style="fill:#262626;" transform="translate(7.2 120.251236)scale(0.1 -0.1)">
       <use xlink:href="#ArialMT-8722"/>
       <use x="58.398438" xlink:href="#ArialMT-49"/>
      </g>
     </g>
    </g>
    <g id="ytick_5">
     <g id="line2d_23">
      <path clip-path="url(#pa4e2497d8c)" d="M 22.101562 70.699971 
L 468.501562 70.699971 
" style="fill:none;stroke:#cccccc;stroke-linecap:round;stroke-width:0.8;"/>
     </g>
     <g id="line2d_24"/>
     <g id="text_12">
      <!-- 0 -->
      <g style="fill:#262626;" transform="translate(13.040625 74.278877)scale(0.1 -0.1)">
       <use xlink:href="#ArialMT-48"/>
      </g>
     </g>
    </g>
    <g id="ytick_6">
     <g id="line2d_25">
      <path clip-path="url(#pa4e2497d8c)" d="M 22.101562 24.727611 
L 468.501562 24.727611 
" style="fill:none;stroke:#cccccc;stroke-linecap:round;stroke-width:0.8;"/>
     </g>
     <g id="line2d_26"/>
     <g id="text_13">
      <!-- 1 -->
      <g style="fill:#262626;" transform="translate(13.040625 28.306518)scale(0.1 -0.1)">
       <use xlink:href="#ArialMT-49"/>
      </g>
     </g>
    </g>
   </g>
   <g id="line2d_27">
    <path clip-path="url(#pa4e2497d8c)" d="M 42.392472 19.969299 
L 56.386202 46.415174 
L 70.379932 131.424077 
L 84.373663 66.60525 
L 98.367393 129.580923 
L 112.361124 93.747284 
L 126.354854 85.314636 
L 140.348584 72.078485 
L 154.342315 98.943595 
L 168.336045 82.136493 
L 182.329776 158.808269 
L 196.323506 131.774786 
L 210.317236 60.195361 
L 224.310967 19.554545 
L 238.304697 112.397568 
L 252.298428 157.643978 
L 266.292158 166.277353 
L 280.285889 143.891697 
L 294.279619 148.794772 
L 308.273349 171.469001 
L 322.26708 144.101641 
L 336.26081 90.582838 
L 350.254541 101.261941 
L 364.248271 67.751316 
L 378.242001 186.316363 
L 392.235732 229.415881 
L 406.229462 244.184913 
L 420.223193 266.645455 
L 434.216923 251.345935 
L 448.210653 204.741431 
" style="fill:none;stroke:#000000;stroke-dasharray:5.55,2.4;stroke-dashoffset:0;stroke-width:1.5;"/>
    <defs>
     <path d="M 0 3 
C 0.795609 3 1.55874 2.683901 2.12132 2.12132 
C 2.683901 1.55874 3 0.795609 3 0 
C 3 -0.795609 2.683901 -1.55874 2.12132 -2.12132 
C 1.55874 -2.683901 0.795609 -3 0 -3 
C -0.795609 -3 -1.55874 -2.683901 -2.12132 -2.12132 
C -2.683901 -1.55874 -3 -0.795609 -3 0 
C -3 0.795609 -2.683901 1.55874 -2.12132 2.12132 
C -1.55874 2.683901 -0.795609 3 0 3 
z
" id="mf28ea9f62e" style="stroke:#000000;"/>
    </defs>
    <g clip-path="url(#pa4e2497d8c)">
     <use style="stroke:#000000;" x="42.392472" xlink:href="#mf28ea9f62e" y="19.969299"/>
     <use style="stroke:#000000;" x="56.386202" xlink:href="#mf28ea9f62e" y="46.415174"/>
     <use style="stroke:#000000;" x="70.379932" xlink:href="#mf28ea9f62e" y="131.424077"/>
     <use style="stroke:#000000;" x="84.373663" xlink:href="#mf28ea9f62e" y="66.60525"/>
     <use style="stroke:#000000;" x="98.367393" xlink:href="#mf28ea9f62e" y="129.580923"/>
     <use style="stroke:#000000;" x="112.361124" xlink:href="#mf28ea9f62e" y="93.747284"/>
     <use style="stroke:#000000;" x="126.354854" xlink:href="#mf28ea9f62e" y="85.314636"/>
     <use style="stroke:#000000;" x="140.348584" xlink:href="#mf28ea9f62e" y="72.078485"/>
     <use style="stroke:#000000;" x="154.342315" xlink:href="#mf28ea9f62e" y="98.943595"/>
     <use style="stroke:#000000;" x="168.336045" xlink:href="#mf28ea9f62e" y="82.136493"/>
     <use style="stroke:#000000;" x="182.329776" xlink:href="#mf28ea9f62e" y="158.808269"/>
     <use style="stroke:#000000;" x="196.323506" xlink:href="#mf28ea9f62e" y="131.774786"/>
     <use style="stroke:#000000;" x="210.317236" xlink:href="#mf28ea9f62e" y="60.195361"/>
     <use style="stroke:#000000;" x="224.310967" xlink:href="#mf28ea9f62e" y="19.554545"/>
     <use style="stroke:#000000;" x="238.304697" xlink:href="#mf28ea9f62e" y="112.397568"/>
     <use style="stroke:#000000;" x="252.298428" xlink:href="#mf28ea9f62e" y="157.643978"/>
     <use style="stroke:#000000;" x="266.292158" xlink:href="#mf28ea9f62e" y="166.277353"/>
     <use style="stroke:#000000;" x="280.285889" xlink:href="#mf28ea9f62e" y="143.891697"/>
     <use style="stroke:#000000;" x="294.279619" xlink:href="#mf28ea9f62e" y="148.794772"/>
     <use style="stroke:#000000;" x="308.273349" xlink:href="#mf28ea9f62e" y="171.469001"/>
     <use style="stroke:#000000;" x="322.26708" xlink:href="#mf28ea9f62e" y="144.101641"/>
     <use style="stroke:#000000;" x="336.26081" xlink:href="#mf28ea9f62e" y="90.582838"/>
     <use style="stroke:#000000;" x="350.254541" xlink:href="#mf28ea9f62e" y="101.261941"/>
     <use style="stroke:#000000;" x="364.248271" xlink:href="#mf28ea9f62e" y="67.751316"/>
     <use style="stroke:#000000;" x="378.242001" xlink:href="#mf28ea9f62e" y="186.316363"/>
     <use style="stroke:#000000;" x="392.235732" xlink:href="#mf28ea9f62e" y="229.415881"/>
     <use style="stroke:#000000;" x="406.229462" xlink:href="#mf28ea9f62e" y="244.184913"/>
     <use style="stroke:#000000;" x="420.223193" xlink:href="#mf28ea9f62e" y="266.645455"/>
     <use style="stroke:#000000;" x="434.216923" xlink:href="#mf28ea9f62e" y="251.345935"/>
     <use style="stroke:#000000;" x="448.210653" xlink:href="#mf28ea9f62e" y="204.741431"/>
    </g>
   </g>
   <g id="patch_3">
    <path d="M 22.101562 279 
L 22.101562 7.2 
" style="fill:none;stroke:#cccccc;stroke-linecap:square;stroke-linejoin:miter;"/>
   </g>
   <g id="patch_4">
    <path d="M 468.501562 279 
L 468.501562 7.2 
" style="fill:none;stroke:#cccccc;stroke-linecap:square;stroke-linejoin:miter;"/>
   </g>
   <g id="patch_5">
    <path d="M 22.101563 279 
L 468.501563 279 
" style="fill:none;stroke:#cccccc;stroke-linecap:square;stroke-linejoin:miter;"/>
   </g>
   <g id="patch_6">
    <path d="M 22.101563 7.2 
L 468.501563 7.2 
" style="fill:none;stroke:#cccccc;stroke-linecap:square;stroke-linejoin:miter;"/>
   </g>
  </g>
 </g>
 <defs>
  <clipPath id="pa4e2497d8c">
   <rect height="271.8" width="446.4" x="22.101562" y="7.2"/>
  </clipPath>
 </defs>
</svg>
