<?xml version="1.0" encoding="utf-8" standalone="no"?>
<!DOCTYPE svg PUBLIC "-//W3C//DTD SVG 1.1//EN"
  "http://www.w3.org/Graphics/SVG/1.1/DTD/svg11.dtd">
<!-- Created with matplotlib (https://matplotlib.org/) -->
<svg height="307.188906pt" version="1.1" viewBox="0 0 546.67125 307.188906" width="546.67125pt" xmlns="http://www.w3.org/2000/svg" xmlns:xlink="http://www.w3.org/1999/xlink">
 <defs>
  <style type="text/css">
*{stroke-linecap:butt;stroke-linejoin:round;}
  </style>
 </defs>
 <g id="figure_1">
  <g id="patch_1">
   <path d="M 0 307.188906 
L 546.67125 307.188906 
L 546.67125 0 
L 0 0 
z
" style="fill:#ffffff;"/>
  </g>
  <g id="axes_1">
   <g id="patch_2">
    <path d="M 38.35125 279 
L 539.47125 279 
L 539.47125 7.2 
L 38.35125 7.2 
z
" style="fill:#ffffff;"/>
   </g>
   <g id="matplotlib.axis_1">
    <g id="xtick_1">
     <g id="line2d_1">
      <path clip-path="url(#pc515d94df9)" d="M 61.129432 279 
L 61.129432 7.2 
" style="fill:none;stroke:#cccccc;stroke-linecap:round;"/>
     </g>
     <g id="line2d_2"/>
     <g id="text_1">
      <!-- 0 -->
      <defs>
       <path d="M 4.15625 35.296875 
Q 4.15625 48 6.765625 55.734375 
Q 9.375 63.484375 14.515625 67.671875 
Q 19.671875 71.875 27.484375 71.875 
Q 33.25 71.875 37.59375 69.546875 
Q 41.9375 67.234375 44.765625 62.859375 
Q 47.609375 58.5 49.21875 52.21875 
Q 50.828125 45.953125 50.828125 35.296875 
Q 50.828125 22.703125 48.234375 14.96875 
Q 45.65625 7.234375 40.5 3 
Q 35.359375 -1.21875 27.484375 -1.21875 
Q 17.140625 -1.21875 11.234375 6.203125 
Q 4.15625 15.140625 4.15625 35.296875 
z
M 13.1875 35.296875 
Q 13.1875 17.671875 17.3125 11.828125 
Q 21.4375 6 27.484375 6 
Q 33.546875 6 37.671875 11.859375 
Q 41.796875 17.71875 41.796875 35.296875 
Q 41.796875 52.984375 37.671875 58.78125 
Q 33.546875 64.59375 27.390625 64.59375 
Q 21.34375 64.59375 17.71875 59.46875 
Q 13.1875 52.9375 13.1875 35.296875 
z
" id="ArialMT-48"/>
      </defs>
      <g style="fill:#262626;" transform="translate(57.514822 297.405156)scale(0.13 -0.13)">
       <use xlink:href="#ArialMT-48"/>
      </g>
     </g>
    </g>
    <g id="xtick_2">
     <g id="line2d_3">
      <path clip-path="url(#pc515d94df9)" d="M 152.333363 279 
L 152.333363 7.2 
" style="fill:none;stroke:#cccccc;stroke-linecap:round;"/>
     </g>
     <g id="line2d_4"/>
     <g id="text_2">
      <!-- 200 -->
      <defs>
       <path d="M 50.34375 8.453125 
L 50.34375 0 
L 3.03125 0 
Q 2.9375 3.171875 4.046875 6.109375 
Q 5.859375 10.9375 9.828125 15.625 
Q 13.8125 20.3125 21.34375 26.46875 
Q 33.015625 36.03125 37.109375 41.625 
Q 41.21875 47.21875 41.21875 52.203125 
Q 41.21875 57.421875 37.46875 61 
Q 33.734375 64.59375 27.734375 64.59375 
Q 21.390625 64.59375 17.578125 60.78125 
Q 13.765625 56.984375 13.71875 50.25 
L 4.6875 51.171875 
Q 5.609375 61.28125 11.65625 66.578125 
Q 17.71875 71.875 27.9375 71.875 
Q 38.234375 71.875 44.234375 66.15625 
Q 50.25 60.453125 50.25 52 
Q 50.25 47.703125 48.484375 43.546875 
Q 46.734375 39.40625 42.65625 34.8125 
Q 38.578125 30.21875 29.109375 22.21875 
Q 21.1875 15.578125 18.9375 13.203125 
Q 16.703125 10.84375 15.234375 8.453125 
z
" id="ArialMT-50"/>
      </defs>
      <g style="fill:#262626;" transform="translate(141.489535 297.405156)scale(0.13 -0.13)">
       <use xlink:href="#ArialMT-50"/>
       <use x="55.615234" xlink:href="#ArialMT-48"/>
       <use x="111.230469" xlink:href="#ArialMT-48"/>
      </g>
     </g>
    </g>
    <g id="xtick_3">
     <g id="line2d_5">
      <path clip-path="url(#pc515d94df9)" d="M 243.537294 279 
L 243.537294 7.2 
" style="fill:none;stroke:#cccccc;stroke-linecap:round;"/>
     </g>
     <g id="line2d_6"/>
     <g id="text_3">
      <!-- 400 -->
      <defs>
       <path d="M 32.328125 0 
L 32.328125 17.140625 
L 1.265625 17.140625 
L 1.265625 25.203125 
L 33.9375 71.578125 
L 41.109375 71.578125 
L 41.109375 25.203125 
L 50.78125 25.203125 
L 50.78125 17.140625 
L 41.109375 17.140625 
L 41.109375 0 
z
M 32.328125 25.203125 
L 32.328125 57.46875 
L 9.90625 25.203125 
z
" id="ArialMT-52"/>
      </defs>
      <g style="fill:#262626;" transform="translate(232.693466 297.405156)scale(0.13 -0.13)">
       <use xlink:href="#ArialMT-52"/>
       <use x="55.615234" xlink:href="#ArialMT-48"/>
       <use x="111.230469" xlink:href="#ArialMT-48"/>
      </g>
     </g>
    </g>
    <g id="xtick_4">
     <g id="line2d_7">
      <path clip-path="url(#pc515d94df9)" d="M 334.741225 279 
L 334.741225 7.2 
" style="fill:none;stroke:#cccccc;stroke-linecap:round;"/>
     </g>
     <g id="line2d_8"/>
     <g id="text_4">
      <!-- 600 -->
      <defs>
       <path d="M 49.75 54.046875 
L 41.015625 53.375 
Q 39.84375 58.546875 37.703125 60.890625 
Q 34.125 64.65625 28.90625 64.65625 
Q 24.703125 64.65625 21.53125 62.3125 
Q 17.390625 59.28125 14.984375 53.46875 
Q 12.59375 47.65625 12.5 36.921875 
Q 15.671875 41.75 20.265625 44.09375 
Q 24.859375 46.4375 29.890625 46.4375 
Q 38.671875 46.4375 44.84375 39.96875 
Q 51.03125 33.5 51.03125 23.25 
Q 51.03125 16.5 48.125 10.71875 
Q 45.21875 4.9375 40.140625 1.859375 
Q 35.0625 -1.21875 28.609375 -1.21875 
Q 17.625 -1.21875 10.6875 6.859375 
Q 3.765625 14.9375 3.765625 33.5 
Q 3.765625 54.25 11.421875 63.671875 
Q 18.109375 71.875 29.4375 71.875 
Q 37.890625 71.875 43.28125 67.140625 
Q 48.6875 62.40625 49.75 54.046875 
z
M 13.875 23.1875 
Q 13.875 18.65625 15.796875 14.5 
Q 17.71875 10.359375 21.1875 8.171875 
Q 24.65625 6 28.46875 6 
Q 34.03125 6 38.03125 10.484375 
Q 42.046875 14.984375 42.046875 22.703125 
Q 42.046875 30.125 38.078125 34.390625 
Q 34.125 38.671875 28.125 38.671875 
Q 22.171875 38.671875 18.015625 34.390625 
Q 13.875 30.125 13.875 23.1875 
z
" id="ArialMT-54"/>
      </defs>
      <g style="fill:#262626;" transform="translate(323.897397 297.405156)scale(0.13 -0.13)">
       <use xlink:href="#ArialMT-54"/>
       <use x="55.615234" xlink:href="#ArialMT-48"/>
       <use x="111.230469" xlink:href="#ArialMT-48"/>
      </g>
     </g>
    </g>
    <g id="xtick_5">
     <g id="line2d_9">
      <path clip-path="url(#pc515d94df9)" d="M 425.945157 279 
L 425.945157 7.2 
" style="fill:none;stroke:#cccccc;stroke-linecap:round;"/>
     </g>
     <g id="line2d_10"/>
     <g id="text_5">
      <!-- 800 -->
      <defs>
       <path d="M 17.671875 38.8125 
Q 12.203125 40.828125 9.5625 44.53125 
Q 6.9375 48.25 6.9375 53.421875 
Q 6.9375 61.234375 12.546875 66.546875 
Q 18.171875 71.875 27.484375 71.875 
Q 36.859375 71.875 42.578125 66.421875 
Q 48.296875 60.984375 48.296875 53.171875 
Q 48.296875 48.1875 45.671875 44.5 
Q 43.0625 40.828125 37.75 38.8125 
Q 44.34375 36.671875 47.78125 31.875 
Q 51.21875 27.09375 51.21875 20.453125 
Q 51.21875 11.28125 44.71875 5.03125 
Q 38.234375 -1.21875 27.640625 -1.21875 
Q 17.046875 -1.21875 10.546875 5.046875 
Q 4.046875 11.328125 4.046875 20.703125 
Q 4.046875 27.6875 7.59375 32.390625 
Q 11.140625 37.109375 17.671875 38.8125 
z
M 15.921875 53.71875 
Q 15.921875 48.640625 19.1875 45.40625 
Q 22.46875 42.1875 27.6875 42.1875 
Q 32.765625 42.1875 36.015625 45.375 
Q 39.265625 48.578125 39.265625 53.21875 
Q 39.265625 58.0625 35.90625 61.359375 
Q 32.5625 64.65625 27.59375 64.65625 
Q 22.5625 64.65625 19.234375 61.421875 
Q 15.921875 58.203125 15.921875 53.71875 
z
M 13.09375 20.65625 
Q 13.09375 16.890625 14.875 13.375 
Q 16.65625 9.859375 20.171875 7.921875 
Q 23.6875 6 27.734375 6 
Q 34.03125 6 38.125 10.046875 
Q 42.234375 14.109375 42.234375 20.359375 
Q 42.234375 26.703125 38.015625 30.859375 
Q 33.796875 35.015625 27.4375 35.015625 
Q 21.234375 35.015625 17.15625 30.90625 
Q 13.09375 26.8125 13.09375 20.65625 
z
" id="ArialMT-56"/>
      </defs>
      <g style="fill:#262626;" transform="translate(415.101329 297.405156)scale(0.13 -0.13)">
       <use xlink:href="#ArialMT-56"/>
       <use x="55.615234" xlink:href="#ArialMT-48"/>
       <use x="111.230469" xlink:href="#ArialMT-48"/>
      </g>
     </g>
    </g>
    <g id="xtick_6">
     <g id="line2d_11">
      <path clip-path="url(#pc515d94df9)" d="M 517.149088 279 
L 517.149088 7.2 
" style="fill:none;stroke:#cccccc;stroke-linecap:round;"/>
     </g>
     <g id="line2d_12"/>
     <g id="text_6">
      <!-- 1000 -->
      <defs>
       <path d="M 37.25 0 
L 28.46875 0 
L 28.46875 56 
Q 25.296875 52.984375 20.140625 49.953125 
Q 14.984375 46.921875 10.890625 45.40625 
L 10.890625 53.90625 
Q 18.265625 57.375 23.78125 62.296875 
Q 29.296875 67.234375 31.59375 71.875 
L 37.25 71.875 
z
" id="ArialMT-49"/>
      </defs>
      <g style="fill:#262626;" transform="translate(502.69065 297.405156)scale(0.13 -0.13)">
       <use xlink:href="#ArialMT-49"/>
       <use x="55.615234" xlink:href="#ArialMT-48"/>
       <use x="111.230469" xlink:href="#ArialMT-48"/>
       <use x="166.845703" xlink:href="#ArialMT-48"/>
      </g>
     </g>
    </g>
   </g>
   <g id="matplotlib.axis_2">
    <g id="ytick_1">
     <g id="line2d_13">
      <path clip-path="url(#pc515d94df9)" d="M 38.35125 250.950518 
L 539.47125 250.950518 
" style="fill:none;stroke:#cccccc;stroke-linecap:round;"/>
     </g>
     <g id="line2d_14"/>
     <g id="text_7">
      <!-- −20 -->
      <defs>
       <path d="M 52.828125 31.203125 
L 5.5625 31.203125 
L 5.5625 39.40625 
L 52.828125 39.40625 
z
" id="ArialMT-8722"/>
      </defs>
      <g style="fill:#262626;" transform="translate(7.2 255.603096)scale(0.13 -0.13)">
       <use xlink:href="#ArialMT-8722"/>
       <use x="58.398438" xlink:href="#ArialMT-50"/>
       <use x="114.013672" xlink:href="#ArialMT-48"/>
      </g>
     </g>
    </g>
    <g id="ytick_2">
     <g id="line2d_15">
      <path clip-path="url(#pc515d94df9)" d="M 38.35125 217.555027 
L 539.47125 217.555027 
" style="fill:none;stroke:#cccccc;stroke-linecap:round;"/>
     </g>
     <g id="line2d_16"/>
     <g id="text_8">
      <!-- −10 -->
      <g style="fill:#262626;" transform="translate(7.2 222.207605)scale(0.13 -0.13)">
       <use xlink:href="#ArialMT-8722"/>
       <use x="58.398438" xlink:href="#ArialMT-49"/>
       <use x="114.013672" xlink:href="#ArialMT-48"/>
      </g>
     </g>
    </g>
    <g id="ytick_3">
     <g id="line2d_17">
      <path clip-path="url(#pc515d94df9)" d="M 38.35125 184.159537 
L 539.47125 184.159537 
" style="fill:none;stroke:#cccccc;stroke-linecap:round;"/>
     </g>
     <g id="line2d_18"/>
     <g id="text_9">
      <!-- 0 -->
      <g style="fill:#262626;" transform="translate(22.022031 188.812115)scale(0.13 -0.13)">
       <use xlink:href="#ArialMT-48"/>
      </g>
     </g>
    </g>
    <g id="ytick_4">
     <g id="line2d_19">
      <path clip-path="url(#pc515d94df9)" d="M 38.35125 150.764046 
L 539.47125 150.764046 
" style="fill:none;stroke:#cccccc;stroke-linecap:round;"/>
     </g>
     <g id="line2d_20"/>
     <g id="text_10">
      <!-- 10 -->
      <g style="fill:#262626;" transform="translate(14.792812 155.416624)scale(0.13 -0.13)">
       <use xlink:href="#ArialMT-49"/>
       <use x="55.615234" xlink:href="#ArialMT-48"/>
      </g>
     </g>
    </g>
    <g id="ytick_5">
     <g id="line2d_21">
      <path clip-path="url(#pc515d94df9)" d="M 38.35125 117.368556 
L 539.47125 117.368556 
" style="fill:none;stroke:#cccccc;stroke-linecap:round;"/>
     </g>
     <g id="line2d_22"/>
     <g id="text_11">
      <!-- 20 -->
      <g style="fill:#262626;" transform="translate(14.792812 122.021134)scale(0.13 -0.13)">
       <use xlink:href="#ArialMT-50"/>
       <use x="55.615234" xlink:href="#ArialMT-48"/>
      </g>
     </g>
    </g>
    <g id="ytick_6">
     <g id="line2d_23">
      <path clip-path="url(#pc515d94df9)" d="M 38.35125 83.973065 
L 539.47125 83.973065 
" style="fill:none;stroke:#cccccc;stroke-linecap:round;"/>
     </g>
     <g id="line2d_24"/>
     <g id="text_12">
      <!-- 30 -->
      <defs>
       <path d="M 4.203125 18.890625 
L 12.984375 20.0625 
Q 14.5 12.59375 18.140625 9.296875 
Q 21.78125 6 27 6 
Q 33.203125 6 37.46875 10.296875 
Q 41.75 14.59375 41.75 20.953125 
Q 41.75 27 37.796875 30.921875 
Q 33.84375 34.859375 27.734375 34.859375 
Q 25.25 34.859375 21.53125 33.890625 
L 22.515625 41.609375 
Q 23.390625 41.5 23.921875 41.5 
Q 29.546875 41.5 34.03125 44.421875 
Q 38.53125 47.359375 38.53125 53.46875 
Q 38.53125 58.296875 35.25 61.46875 
Q 31.984375 64.65625 26.8125 64.65625 
Q 21.6875 64.65625 18.265625 61.421875 
Q 14.84375 58.203125 13.875 51.765625 
L 5.078125 53.328125 
Q 6.6875 62.15625 12.390625 67.015625 
Q 18.109375 71.875 26.609375 71.875 
Q 32.46875 71.875 37.390625 69.359375 
Q 42.328125 66.84375 44.9375 62.5 
Q 47.5625 58.15625 47.5625 53.265625 
Q 47.5625 48.640625 45.0625 44.828125 
Q 42.578125 41.015625 37.703125 38.765625 
Q 44.046875 37.3125 47.5625 32.6875 
Q 51.078125 28.078125 51.078125 21.140625 
Q 51.078125 11.765625 44.234375 5.25 
Q 37.40625 -1.265625 26.953125 -1.265625 
Q 17.53125 -1.265625 11.296875 4.34375 
Q 5.078125 9.96875 4.203125 18.890625 
z
" id="ArialMT-51"/>
      </defs>
      <g style="fill:#262626;" transform="translate(14.792812 88.625643)scale(0.13 -0.13)">
       <use xlink:href="#ArialMT-51"/>
       <use x="55.615234" xlink:href="#ArialMT-48"/>
      </g>
     </g>
    </g>
    <g id="ytick_7">
     <g id="line2d_25">
      <path clip-path="url(#pc515d94df9)" d="M 38.35125 50.577575 
L 539.47125 50.577575 
" style="fill:none;stroke:#cccccc;stroke-linecap:round;"/>
     </g>
     <g id="line2d_26"/>
     <g id="text_13">
      <!-- 40 -->
      <g style="fill:#262626;" transform="translate(14.792812 55.230153)scale(0.13 -0.13)">
       <use xlink:href="#ArialMT-52"/>
       <use x="55.615234" xlink:href="#ArialMT-48"/>
      </g>
     </g>
    </g>
    <g id="ytick_8">
     <g id="line2d_27">
      <path clip-path="url(#pc515d94df9)" d="M 38.35125 17.182084 
L 539.47125 17.182084 
" style="fill:none;stroke:#cccccc;stroke-linecap:round;"/>
     </g>
     <g id="line2d_28"/>
     <g id="text_14">
      <!-- 50 -->
      <defs>
       <path d="M 4.15625 18.75 
L 13.375 19.53125 
Q 14.40625 12.796875 18.140625 9.390625 
Q 21.875 6 27.15625 6 
Q 33.5 6 37.890625 10.78125 
Q 42.28125 15.578125 42.28125 23.484375 
Q 42.28125 31 38.0625 35.34375 
Q 33.84375 39.703125 27 39.703125 
Q 22.75 39.703125 19.328125 37.765625 
Q 15.921875 35.84375 13.96875 32.765625 
L 5.71875 33.84375 
L 12.640625 70.609375 
L 48.25 70.609375 
L 48.25 62.203125 
L 19.671875 62.203125 
L 15.828125 42.96875 
Q 22.265625 47.46875 29.34375 47.46875 
Q 38.71875 47.46875 45.15625 40.96875 
Q 51.609375 34.46875 51.609375 24.265625 
Q 51.609375 14.546875 45.953125 7.46875 
Q 39.0625 -1.21875 27.15625 -1.21875 
Q 17.390625 -1.21875 11.203125 4.25 
Q 5.03125 9.71875 4.15625 18.75 
z
" id="ArialMT-53"/>
      </defs>
      <g style="fill:#262626;" transform="translate(14.792812 21.834662)scale(0.13 -0.13)">
       <use xlink:href="#ArialMT-53"/>
       <use x="55.615234" xlink:href="#ArialMT-48"/>
      </g>
     </g>
    </g>
   </g>
   <g id="line2d_29">
    <path clip-path="url(#pc515d94df9)" d="M 61.129432 188.379817 
L 61.585451 182.819303 
L 62.041471 181.4425 
L 62.497491 179.647837 
L 62.95351 178.703818 
L 63.40953 182.352412 
L 63.86555 181.937913 
L 64.321569 175.802892 
L 64.777589 175.774322 
L 65.233609 179.170698 
L 65.689628 185.356687 
L 66.145648 187.738877 
L 66.601668 193.623927 
L 67.513707 188.241627 
L 67.969727 191.16601 
L 68.425746 189.115589 
L 68.881766 191.040687 
L 69.337786 191.193019 
L 69.793805 189.950855 
L 70.249825 191.433481 
L 70.705845 190.03687 
L 71.161864 195.666442 
L 71.617884 195.274128 
L 72.073904 195.390852 
L 73.441963 214.478402 
L 73.897982 213.094804 
L 74.354002 212.680835 
L 74.810021 211.76594 
L 75.266041 216.195446 
L 76.17808 209.109541 
L 76.6341 211.670851 
L 77.09012 207.74334 
L 77.546139 208.581308 
L 78.458179 219.965496 
L 78.914198 217.515191 
L 79.370218 217.862667 
L 79.826238 214.919773 
L 80.282257 215.214899 
L 80.738277 214.320999 
L 81.194297 207.229378 
L 81.650316 202.564532 
L 82.106336 204.00998 
L 82.562356 202.757754 
L 83.018375 201.106529 
L 83.474395 198.563826 
L 83.930415 198.326688 
L 84.386434 199.974862 
L 84.842454 199.986961 
L 85.298474 201.590903 
L 85.754493 195.969216 
L 86.210513 191.82575 
L 86.666533 192.505732 
L 87.122552 191.075429 
L 87.578572 191.627988 
L 88.490611 184.140313 
L 88.946631 182.241409 
L 90.31469 173.204934 
L 90.770709 171.431194 
L 91.226729 170.923915 
L 91.682749 172.851588 
L 92.138768 178.100527 
L 92.594788 178.193528 
L 93.050808 180.668319 
L 93.506827 180.467916 
L 93.962847 176.659199 
L 94.418867 176.082043 
L 94.874886 177.467961 
L 95.330906 180.317026 
L 95.786926 185.093033 
L 96.242945 180.642064 
L 96.698965 186.575411 
L 97.154985 189.697164 
L 97.611004 197.422216 
L 98.523044 199.621062 
L 98.979063 200.971223 
L 99.435083 201.182049 
L 100.347122 206.975901 
L 100.803142 200.905181 
L 101.259162 202.020801 
L 101.715181 198.98963 
L 102.171201 201.784068 
L 103.08324 191.341596 
L 103.53926 190.570098 
L 103.995279 194.242038 
L 104.451299 193.951492 
L 104.907319 193.793517 
L 105.363338 192.993281 
L 105.819358 196.260097 
L 106.275378 201.34623 
L 106.731397 200.804011 
L 107.643437 200.83145 
L 108.099456 197.402399 
L 108.555476 202.328769 
L 109.011496 198.953508 
L 109.467515 201.435553 
L 109.923535 202.755417 
L 110.379555 205.513147 
L 110.835574 205.213857 
L 111.291594 211.57843 
L 112.203633 215.197974 
L 112.659653 210.977017 
L 113.115673 210.473753 
L 113.571692 208.151036 
L 114.027712 208.131203 
L 114.483732 211.634057 
L 114.939751 208.604402 
L 115.395771 211.427795 
L 115.851791 213.18521 
L 116.30781 212.577079 
L 116.76383 209.419406 
L 117.21985 210.091939 
L 117.675869 205.047468 
L 118.131889 206.955948 
L 118.587908 204.73318 
L 119.043928 204.721103 
L 119.499948 199.555917 
L 119.955967 198.839897 
L 120.411987 205.109276 
L 120.868007 201.474727 
L 121.324026 201.747062 
L 121.780046 203.594039 
L 122.236066 199.509889 
L 122.692085 200.61631 
L 123.148105 198.612625 
L 124.060144 203.970976 
L 124.516164 197.92445 
L 124.972184 200.552784 
L 125.428203 202.505655 
L 125.884223 208.210676 
L 126.340243 202.767271 
L 126.796262 201.438136 
L 127.252282 200.644059 
L 127.708302 197.387537 
L 128.164321 201.826921 
L 128.620341 203.633773 
L 129.076361 203.939134 
L 129.53238 209.110329 
L 129.9884 204.730754 
L 130.44442 204.792299 
L 130.900439 205.871937 
L 131.356459 205.08305 
L 131.812479 207.596336 
L 132.268498 207.445679 
L 132.724518 195.999246 
L 133.180537 193.97988 
L 133.636557 188.408474 
L 134.092577 189.594291 
L 134.548596 192.104193 
L 135.004616 191.069922 
L 135.460636 195.550612 
L 135.916655 203.254811 
L 137.284714 195.885154 
L 137.740734 195.79108 
L 138.196754 189.184207 
L 138.652773 189.475844 
L 139.108793 191.325836 
L 139.564813 201.366186 
L 140.020832 201.523699 
L 140.476852 198.745602 
L 140.932872 198.722689 
L 141.388891 194.968295 
L 141.844911 187.304427 
L 142.300931 187.883338 
L 142.75695 183.771507 
L 143.21297 189.067539 
L 143.66899 185.623399 
L 144.125009 185.411369 
L 145.037049 186.696392 
L 145.493068 187.218375 
L 145.949088 188.249638 
L 146.405107 187.58616 
L 146.861127 188.168217 
L 147.317147 192.028042 
L 147.773166 190.63527 
L 148.229186 192.665275 
L 148.685206 189.165473 
L 149.141225 189.278439 
L 149.597245 188.854237 
L 150.053265 195.697747 
L 150.509284 199.894492 
L 150.965304 196.756604 
L 151.421324 199.207221 
L 151.877343 200.985322 
L 152.333363 201.913516 
L 152.789383 197.359231 
L 153.245402 196.109779 
L 153.701422 191.734086 
L 154.157442 192.628243 
L 154.613461 191.91633 
L 155.069481 195.934621 
L 155.525501 192.000528 
L 155.98152 191.637692 
L 156.43754 191.490321 
L 156.89356 190.360499 
L 157.349579 185.528866 
L 157.805599 186.245183 
L 158.261619 180.691383 
L 158.717638 183.535084 
L 159.173658 182.125178 
L 159.629678 175.415294 
L 160.085697 177.051054 
L 160.541717 176.232011 
L 160.997736 173.301539 
L 161.453756 173.762062 
L 161.909776 178.772565 
L 162.365795 182.298994 
L 162.821815 180.358941 
L 164.189874 170.933055 
L 164.645894 170.692656 
L 165.101913 169.997252 
L 165.557933 175.069588 
L 166.013953 174.009852 
L 166.469972 171.963775 
L 166.925992 173.911438 
L 167.382012 171.760762 
L 167.838031 177.825012 
L 168.294051 175.316678 
L 168.750071 174.313864 
L 169.20609 167.265383 
L 170.11813 157.51368 
L 171.030169 152.624538 
L 171.486189 156.570653 
L 171.942208 157.689707 
L 172.398228 151.589258 
L 172.854248 156.452191 
L 173.310267 157.955929 
L 173.766287 162.695531 
L 174.222307 157.850006 
L 174.678326 159.73946 
L 175.134346 154.581412 
L 176.046385 157.646766 
L 176.502405 153.377055 
L 176.958424 150.241781 
L 177.414444 159.312932 
L 177.870464 157.806325 
L 178.326483 155.802038 
L 178.782503 155.101378 
L 179.238523 157.297659 
L 179.694542 157.202788 
L 180.150562 158.532133 
L 180.606582 157.82641 
L 181.062601 158.502315 
L 181.518621 160.579275 
L 181.974641 160.032356 
L 182.43066 157.352571 
L 182.88668 156.387422 
L 183.3427 158.236338 
L 183.798719 157.113401 
L 184.254739 153.540777 
L 185.166778 144.180165 
L 185.622798 142.385558 
L 186.078818 145.755577 
L 186.534837 150.315907 
L 186.990857 150.991769 
L 187.446877 155.697811 
L 187.902896 158.318638 
L 188.358916 158.88677 
L 188.814936 160.503814 
L 189.270955 161.598913 
L 189.726975 166.03385 
L 190.182994 165.260855 
L 190.639014 161.932967 
L 191.095034 163.763499 
L 191.551053 161.339804 
L 192.007073 152.447497 
L 192.463093 152.754105 
L 192.919112 150.579357 
L 193.375132 149.922234 
L 193.831152 146.684128 
L 194.287171 152.423643 
L 194.743191 155.953402 
L 195.199211 155.474297 
L 195.65523 152.512242 
L 196.11125 152.076351 
L 196.56727 157.635275 
L 197.479309 163.039732 
L 197.935329 161.740674 
L 198.847368 166.559129 
L 199.759407 158.477208 
L 200.215427 159.857359 
L 200.671447 158.438376 
L 201.127466 164.721683 
L 201.583486 164.05936 
L 202.039506 160.08537 
L 202.495525 158.326157 
L 202.951545 157.988659 
L 203.407564 159.286551 
L 203.863584 161.446545 
L 204.319604 162.0446 
L 204.775623 167.225713 
L 205.231643 161.847507 
L 205.687663 159.963297 
L 206.143682 160.305391 
L 206.599702 162.375259 
L 207.055722 162.610162 
L 207.511741 159.945887 
L 207.967761 156.568107 
L 208.8798 162.837174 
L 209.33582 155.896823 
L 209.79184 152.101116 
L 210.247859 149.734978 
L 210.703879 150.197994 
L 211.159899 147.112183 
L 211.615918 151.364208 
L 212.071938 146.248792 
L 212.527958 146.368255 
L 213.439997 141.569058 
L 214.352036 142.59409 
L 215.264076 135.086515 
L 216.176115 146.65684 
L 217.544174 156.536201 
L 218.000193 155.627474 
L 218.456213 157.176038 
L 219.368252 148.296169 
L 219.824272 148.391958 
L 220.280292 142.769967 
L 220.736311 142.689103 
L 221.192331 144.141107 
L 221.648351 143.924752 
L 222.10437 140.769346 
L 222.56039 146.160917 
L 223.01641 146.857545 
L 223.928449 144.651805 
L 224.384469 145.882216 
L 224.840488 144.249893 
L 225.296508 143.274338 
L 225.752528 145.251044 
L 226.208547 137.965489 
L 226.664567 136.497589 
L 227.120587 137.603592 
L 227.576606 139.512876 
L 228.032626 136.075114 
L 228.488646 135.734281 
L 228.944665 127.224733 
L 229.400685 128.680523 
L 229.856705 132.83027 
L 230.312724 132.92277 
L 230.768744 132.338124 
L 231.224764 139.412794 
L 232.136803 141.675619 
L 232.592822 142.907123 
L 233.048842 145.011793 
L 233.504862 149.49745 
L 233.960881 146.965945 
L 234.416901 148.91571 
L 234.872921 152.334411 
L 235.32894 154.872249 
L 235.78496 156.449595 
L 236.24098 156.086763 
L 236.696999 153.854812 
L 237.153019 157.038002 
L 237.609039 158.638639 
L 238.065058 163.132028 
L 238.521078 174.46078 
L 238.977098 173.940499 
L 239.433117 168.864373 
L 239.889137 167.12085 
L 240.345157 168.814202 
L 240.801176 168.492005 
L 241.257196 172.415374 
L 241.713216 172.823775 
L 242.169235 174.252131 
L 242.625255 177.099812 
L 243.081275 175.745117 
L 243.537294 167.062733 
L 243.993314 161.500883 
L 244.449334 161.741574 
L 245.361373 155.907976 
L 245.817393 158.070461 
L 246.273412 155.920112 
L 246.729432 160.732376 
L 247.185451 163.421709 
L 247.641471 162.624382 
L 248.097491 164.009586 
L 248.55351 158.143739 
L 249.00953 155.979576 
L 249.921569 158.826935 
L 250.377589 158.202538 
L 250.833609 161.727536 
L 251.289628 159.738461 
L 251.745648 164.331349 
L 252.201668 162.250776 
L 252.657687 162.800449 
L 253.113707 161.415826 
L 253.569727 164.797407 
L 254.025746 163.979267 
L 254.481766 155.923113 
L 254.937786 157.450011 
L 255.393805 156.390038 
L 255.849825 151.362124 
L 256.305845 148.818375 
L 256.761864 147.376073 
L 257.217884 150.761338 
L 257.673904 155.027907 
L 258.129923 154.849466 
L 258.585943 156.396465 
L 259.041963 156.460111 
L 259.497982 155.773311 
L 259.954002 158.032275 
L 260.410021 156.382193 
L 260.866041 150.175454 
L 261.322061 153.546197 
L 261.77808 155.11427 
L 262.2341 155.279948 
L 262.69012 151.471327 
L 263.602159 158.990422 
L 264.058179 166.216074 
L 264.514198 167.686685 
L 264.970218 165.415305 
L 265.426238 161.857935 
L 265.882257 160.665203 
L 266.338277 162.672128 
L 266.794297 160.312831 
L 267.250316 159.630499 
L 267.706336 166.04479 
L 268.162356 170.146073 
L 268.618375 165.097125 
L 269.074395 164.021105 
L 269.530415 168.612298 
L 269.986434 165.874025 
L 270.442454 162.329311 
L 270.898474 163.782128 
L 271.354493 161.585766 
L 271.810513 174.076016 
L 272.722552 166.900219 
L 273.178572 170.656219 
L 273.634592 169.714181 
L 274.090611 170.843351 
L 274.546631 171.185754 
L 275.00265 172.604663 
L 275.45867 177.053929 
L 275.91469 170.740833 
L 276.370709 171.777131 
L 276.826729 171.427297 
L 277.738768 178.260908 
L 278.194788 176.883015 
L 278.650808 175.125103 
L 279.106827 172.193232 
L 279.562847 168.507125 
L 280.018867 169.209123 
L 280.474886 170.692561 
L 280.930906 168.19854 
L 281.386926 170.327299 
L 281.842945 167.416019 
L 282.298965 166.165357 
L 282.754985 162.30809 
L 283.211004 160.069284 
L 284.123044 166.481483 
L 284.579063 164.035313 
L 285.035083 157.666606 
L 285.491103 162.084201 
L 285.947122 162.006684 
L 286.403142 161.066018 
L 286.859162 166.161427 
L 287.315181 164.564705 
L 287.771201 164.875693 
L 288.227221 171.87725 
L 288.68324 166.46141 
L 289.13926 169.344136 
L 289.595279 173.627119 
L 290.051299 172.224036 
L 290.507319 170.362281 
L 290.963338 167.902999 
L 291.419358 169.192076 
L 291.875378 169.228525 
L 292.331397 171.66909 
L 292.787417 176.044558 
L 293.243437 172.440749 
L 293.699456 172.78393 
L 294.155476 173.392777 
L 294.611496 180.069429 
L 295.067515 180.665108 
L 295.523535 183.47866 
L 296.435574 184.793968 
L 296.891594 186.284959 
L 297.347614 183.149661 
L 297.803633 181.656702 
L 298.259653 177.892514 
L 298.715673 182.31684 
L 299.171692 184.48406 
L 299.627712 184.61858 
L 300.083732 185.976571 
L 300.539751 186.241256 
L 300.995771 190.188948 
L 301.451791 192.58066 
L 301.90781 198.06271 
L 302.36383 201.034994 
L 302.81985 198.716756 
L 303.275869 199.432111 
L 303.731889 194.403574 
L 304.187908 196.392389 
L 304.643928 195.994745 
L 305.099948 200.046461 
L 305.555967 191.361389 
L 306.011987 191.957901 
L 306.468007 189.187312 
L 306.924026 187.806792 
L 307.380046 189.756684 
L 307.836066 194.201294 
L 308.292085 193.679847 
L 308.748105 195.539273 
L 309.204125 196.058588 
L 309.660144 193.883533 
L 310.116164 193.622242 
L 310.572184 192.362844 
L 311.028203 191.861756 
L 311.484223 196.761707 
L 312.396262 188.172673 
L 312.852282 191.966951 
L 313.308302 190.279475 
L 314.220341 194.984701 
L 314.676361 195.00087 
L 315.13238 189.164446 
L 315.5884 185.631345 
L 316.04442 183.610179 
L 316.500439 187.452683 
L 316.956459 178.921973 
L 317.412479 176.004106 
L 317.868498 183.848163 
L 318.324518 182.514099 
L 318.780537 184.146119 
L 319.692577 181.439005 
L 320.148596 184.506444 
L 320.604616 178.408809 
L 321.060636 177.741619 
L 321.516655 174.597941 
L 321.972675 170.084796 
L 322.884714 175.594805 
L 323.796754 167.196692 
L 324.252773 171.795313 
L 324.708793 165.078667 
L 325.164813 165.865142 
L 326.076852 161.670092 
L 326.988891 167.799468 
L 327.444911 174.757727 
L 327.900931 178.602049 
L 328.35695 183.552851 
L 328.81297 183.418632 
L 329.26899 178.845447 
L 329.725009 178.936099 
L 330.181029 177.804478 
L 331.093068 172.936374 
L 331.549088 174.224878 
L 332.005107 179.11179 
L 332.461127 180.547147 
L 332.917147 180.336891 
L 333.373166 183.247793 
L 333.829186 182.039007 
L 334.285206 183.016534 
L 334.741225 180.93993 
L 335.653265 186.701344 
L 336.109284 180.776796 
L 336.565304 180.680763 
L 337.021324 178.834113 
L 337.477343 182.502348 
L 337.933363 183.762241 
L 338.389383 181.484103 
L 338.845402 176.255652 
L 339.757442 181.356488 
L 340.213461 181.432192 
L 340.669481 186.522984 
L 341.125501 186.623616 
L 341.58152 186.839779 
L 342.03754 184.419444 
L 342.49356 179.695285 
L 342.949579 177.792262 
L 343.405599 175.315816 
L 343.861619 175.141228 
L 344.317638 176.342613 
L 344.773658 183.008275 
L 345.229678 185.967853 
L 345.685697 185.24228 
L 346.141717 190.737821 
L 346.597736 189.926679 
L 347.053756 191.265286 
L 347.509776 194.676835 
L 347.965795 196.246505 
L 348.877835 190.855529 
L 349.333854 197.324307 
L 349.789874 197.823516 
L 350.245894 194.771553 
L 350.701913 195.632806 
L 351.157933 195.269412 
L 351.613953 200.26341 
L 352.069972 201.866506 
L 352.525992 195.75922 
L 352.982012 198.391012 
L 353.438031 203.202075 
L 353.894051 202.702906 
L 354.350071 200.06924 
L 354.80609 196.082451 
L 355.26211 197.811411 
L 355.71813 197.068443 
L 356.630169 193.082473 
L 357.086189 194.909884 
L 357.542208 189.190155 
L 357.998228 191.485417 
L 358.454248 189.121443 
L 358.910267 189.194617 
L 360.734346 196.752977 
L 361.190365 200.155596 
L 361.646385 197.826562 
L 362.558424 202.229878 
L 363.014444 200.597872 
L 363.470464 200.958416 
L 363.926483 205.706933 
L 364.382503 208.832783 
L 364.838523 209.489195 
L 365.294542 211.409395 
L 365.750562 208.903122 
L 366.206582 211.45588 
L 367.118621 218.060417 
L 368.03066 215.087788 
L 368.48668 220.672998 
L 368.9427 218.595548 
L 369.398719 215.720285 
L 369.854739 221.367455 
L 370.310759 223.673185 
L 370.766778 218.901329 
L 371.222798 215.541403 
L 371.678818 215.458606 
L 372.134837 213.784659 
L 372.590857 206.731466 
L 373.046877 205.052351 
L 373.502896 209.129302 
L 373.958916 204.571021 
L 374.414936 207.479565 
L 374.870955 204.160379 
L 375.326975 201.968731 
L 375.782994 198.998157 
L 376.239014 193.852136 
L 376.695034 198.747629 
L 377.151053 198.980023 
L 377.607073 192.481095 
L 378.063093 189.220421 
L 378.519112 188.628792 
L 378.975132 192.045728 
L 379.431152 191.68933 
L 379.887171 194.734602 
L 380.343191 199.638286 
L 380.799211 197.713107 
L 381.25523 197.495016 
L 381.71125 200.0782 
L 382.16727 198.759251 
L 382.623289 200.442016 
L 383.079309 194.499091 
L 383.535329 194.601189 
L 383.991348 189.334426 
L 384.447368 192.048818 
L 384.903388 190.000509 
L 385.359407 183.843382 
L 385.815427 182.93806 
L 386.271447 179.142838 
L 386.727466 184.948082 
L 387.183486 182.586571 
L 387.639506 182.485095 
L 388.551545 177.032723 
L 389.007564 184.567581 
L 389.463584 186.049014 
L 389.919604 188.28659 
L 390.375623 187.77843 
L 390.831643 194.258936 
L 391.287663 197.900744 
L 391.743682 194.55478 
L 392.199702 193.964039 
L 392.655722 197.597517 
L 393.111741 198.443149 
L 393.567761 194.775412 
L 394.023781 200.918736 
L 394.93582 202.391784 
L 395.39184 201.767357 
L 395.847859 200.08496 
L 396.303879 193.705278 
L 396.759899 191.855899 
L 397.215918 193.817822 
L 397.671938 189.616836 
L 398.127958 192.484401 
L 398.583977 191.027733 
L 399.039997 185.779755 
L 399.496017 182.182009 
L 399.952036 179.473336 
L 400.408056 186.925665 
L 400.864076 187.262968 
L 401.320095 189.224536 
L 401.776115 184.800073 
L 402.232135 181.992686 
L 402.688154 181.120709 
L 403.144174 178.467633 
L 403.600193 180.637059 
L 404.056213 178.518834 
L 404.512233 178.201568 
L 404.968252 183.82272 
L 405.424272 182.673761 
L 405.880292 180.312172 
L 406.336311 176.326706 
L 406.792331 174.565466 
L 407.248351 171.203529 
L 407.70437 176.988721 
L 408.16039 178.235749 
L 408.61641 178.711669 
L 409.072429 179.81286 
L 409.528449 180.110221 
L 409.984469 182.038464 
L 410.440488 179.580003 
L 410.896508 182.890183 
L 411.352528 182.472156 
L 411.808547 182.227859 
L 412.264567 181.747173 
L 412.720587 184.912145 
L 413.176606 180.239348 
L 413.632626 180.9945 
L 414.088646 185.799624 
L 414.544665 183.12364 
L 415.000685 183.134765 
L 415.912724 183.778674 
L 416.368744 182.458092 
L 416.824764 182.6359 
L 417.280783 185.21904 
L 417.736803 189.95848 
L 418.192822 188.945087 
L 418.648842 194.015213 
L 419.104862 190.275894 
L 420.472921 199.577789 
L 420.92894 204.129854 
L 421.38496 206.709985 
L 421.84098 207.657166 
L 422.753019 223.596271 
L 423.209039 225.986937 
L 423.665058 223.03679 
L 424.121078 227.379673 
L 424.577098 227.634611 
L 425.033117 222.857196 
L 425.489137 227.276784 
L 425.945157 228.740696 
L 426.401176 231.22249 
L 426.857196 228.243721 
L 427.313216 226.694595 
L 427.769235 224.631886 
L 428.225255 216.294979 
L 428.681275 210.853266 
L 429.137294 211.184031 
L 429.593314 211.858593 
L 430.505353 222.421555 
L 430.961373 222.587336 
L 431.417393 226.926731 
L 431.873412 224.838325 
L 432.329432 227.482311 
L 432.785451 229.429079 
L 433.241471 234.614332 
L 433.697491 227.56737 
L 434.15351 225.033222 
L 434.60953 227.404069 
L 435.06555 226.899306 
L 435.521569 222.480778 
L 435.977589 225.579295 
L 436.433609 219.212115 
L 436.889628 222.659114 
L 437.345648 223.251421 
L 437.801668 228.762941 
L 438.257687 237.240423 
L 438.713707 233.867175 
L 439.169727 233.580969 
L 440.081766 244.850151 
L 440.537786 241.025161 
L 440.993805 241.52808 
L 441.449825 236.747705 
L 441.905845 234.621793 
L 442.361864 234.844083 
L 442.817884 234.736115 
L 443.273904 236.589811 
L 443.729923 236.263249 
L 444.185943 236.466911 
L 444.641963 233.669983 
L 445.097982 234.215727 
L 446.010021 228.390927 
L 446.466041 227.787261 
L 446.922061 232.171983 
L 447.37808 232.707903 
L 447.8341 239.073333 
L 448.29012 243.102905 
L 448.746139 240.663637 
L 449.202159 239.010918 
L 449.658179 239.021635 
L 450.114198 240.031625 
L 450.570218 242.500891 
L 451.026238 244.213452 
L 451.482257 240.989947 
L 451.938277 239.398053 
L 452.394297 243.977298 
L 452.850316 243.313219 
L 453.306336 242.845806 
L 453.762356 237.33998 
L 454.218375 243.209411 
L 454.674395 245.82471 
L 455.130415 242.573239 
L 455.586434 246.283252 
L 456.042454 238.316351 
L 456.498474 242.253493 
L 456.954493 242.156238 
L 457.410513 240.287602 
L 458.322552 234.956861 
L 458.778572 236.499992 
L 459.234592 233.450292 
L 459.690611 235.970491 
L 460.146631 237.757074 
L 460.60265 236.232094 
L 461.05867 231.190788 
L 461.51469 231.952777 
L 461.970709 234.926116 
L 462.426729 230.886023 
L 462.882749 235.109885 
L 463.338768 228.971188 
L 463.794788 232.25758 
L 464.250808 230.117101 
L 465.162847 224.400711 
L 465.618867 223.642624 
L 466.074886 223.477218 
L 466.530906 228.998095 
L 466.986926 231.605681 
L 467.898965 226.970341 
L 468.354985 230.436396 
L 468.811004 229.277643 
L 469.267024 228.435973 
L 469.723044 222.588693 
L 470.635083 225.722053 
L 471.547122 232.143076 
L 472.003142 230.890918 
L 472.459162 233.243099 
L 472.915181 229.654073 
L 473.371201 231.748969 
L 473.827221 226.626115 
L 474.28324 225.231101 
L 474.73926 224.368216 
L 475.195279 228.210128 
L 475.651299 227.111035 
L 476.107319 226.959013 
L 476.563338 224.848142 
L 477.019358 226.554141 
L 477.475378 231.40861 
L 477.931397 230.489494 
L 478.387417 230.022667 
L 478.843437 229.208177 
L 479.299456 225.849759 
L 479.755476 228.987735 
L 480.211496 236.941706 
L 481.123535 233.999765 
L 481.579555 235.592918 
L 482.035574 235.023197 
L 482.491594 238.522313 
L 483.403633 251.209622 
L 483.859653 251.068155 
L 484.315673 246.450526 
L 484.771692 247.751342 
L 485.227712 245.033156 
L 485.683732 247.017957 
L 486.139751 247.203098 
L 486.595771 244.542945 
L 487.051791 244.098184 
L 487.50781 245.907145 
L 487.96383 248.796865 
L 488.41985 249.105867 
L 488.875869 245.158179 
L 489.331889 250.403457 
L 489.787908 247.53368 
L 490.243928 246.586427 
L 490.699948 249.822825 
L 491.155967 249.884185 
L 491.611987 250.565571 
L 492.068007 253.730597 
L 492.524026 255.532067 
L 492.980046 259.7275 
L 493.436066 266.645455 
L 493.892085 266.140393 
L 494.348105 262.652269 
L 494.804125 257.19762 
L 495.260144 260.909123 
L 495.716164 253.737892 
L 496.628203 243.886951 
L 497.084223 246.510722 
L 497.540243 248.388389 
L 497.996262 254.861629 
L 498.452282 254.223243 
L 498.908302 255.5377 
L 499.364321 254.997392 
L 499.820341 257.784306 
L 500.276361 255.537222 
L 500.73238 254.391128 
L 501.1884 258.211983 
L 501.64442 258.365228 
L 502.100439 257.41451 
L 502.556459 250.707221 
L 503.012479 250.387356 
L 503.468498 253.527898 
L 503.924518 254.584074 
L 504.380537 254.688347 
L 504.836557 255.134495 
L 505.292577 261.28418 
L 505.748596 262.391498 
L 506.204616 264.706837 
L 506.660636 265.576833 
L 507.116655 258.493775 
L 507.572675 261.27325 
L 508.484714 252.595234 
L 508.940734 250.31266 
L 509.396754 250.302272 
L 509.852773 248.116893 
L 510.764813 251.44435 
L 511.220832 253.94187 
L 511.676852 253.027163 
L 512.588891 254.527808 
L 513.044911 249.784884 
L 513.500931 252.138426 
L 513.95695 249.682639 
L 514.41297 251.425642 
L 515.325009 261.504887 
L 515.781029 263.14645 
L 516.693068 258.900555 
L 516.693068 258.900555 
" style="fill:none;stroke:#ffa500;stroke-linecap:round;stroke-width:4;"/>
   </g>
   <g id="line2d_30">
    <path clip-path="url(#pc515d94df9)" d="M 61.129432 184.963323 
L 61.585451 182.898074 
L 62.041471 182.643389 
L 62.497491 183.516649 
L 62.95351 180.662232 
L 63.86555 173.302129 
L 64.321569 174.326946 
L 64.777589 172.431059 
L 65.233609 179.541779 
L 65.689628 178.890343 
L 66.145648 177.684758 
L 66.601668 177.17723 
L 67.057687 177.91952 
L 67.513707 173.562166 
L 67.969727 173.873538 
L 68.425746 174.339532 
L 68.881766 175.144152 
L 69.337786 171.690706 
L 69.793805 172.66739 
L 70.249825 175.45374 
L 70.705845 175.816945 
L 71.161864 170.113951 
L 71.617884 171.118107 
L 72.073904 169.061707 
L 72.985943 170.914681 
L 73.441963 172.787639 
L 73.897982 176.849546 
L 74.354002 177.216167 
L 74.810021 174.816849 
L 75.266041 169.553075 
L 75.722061 168.07743 
L 76.17808 170.805378 
L 76.6341 168.315729 
L 77.09012 166.799476 
L 77.546139 162.129573 
L 78.002159 155.151217 
L 78.458179 151.094975 
L 78.914198 152.40661 
L 79.370218 152.938365 
L 79.826238 149.071366 
L 80.282257 150.766832 
L 80.738277 151.235983 
L 81.194297 149.117573 
L 81.650316 145.542231 
L 82.106336 144.79781 
L 82.562356 154.457522 
L 83.018375 153.324192 
L 83.474395 154.366296 
L 83.930415 157.625432 
L 84.386434 157.544848 
L 84.842454 153.803003 
L 85.298474 157.576284 
L 85.754493 152.266658 
L 86.666533 145.878455 
L 87.122552 148.599215 
L 87.578572 149.438251 
L 88.034592 150.716747 
L 88.490611 150.715608 
L 88.946631 150.923344 
L 89.40265 151.983146 
L 90.31469 153.28406 
L 90.770709 152.390785 
L 91.226729 157.907109 
L 91.682749 156.282156 
L 92.138768 150.614034 
L 92.594788 147.032365 
L 93.050808 150.191235 
L 93.506827 146.702715 
L 93.962847 139.056391 
L 94.418867 139.866419 
L 94.874886 137.458498 
L 95.330906 129.779604 
L 95.786926 126.338882 
L 96.242945 121.160174 
L 96.698965 124.817733 
L 97.154985 124.030866 
L 97.611004 122.721866 
L 98.067024 120.837401 
L 98.523044 118.200802 
L 98.979063 117.679248 
L 99.435083 122.062053 
L 99.891103 118.501184 
L 100.347122 117.235961 
L 100.803142 121.172009 
L 101.259162 118.637305 
L 102.171201 114.997148 
L 102.627221 115.955048 
L 103.08324 110.496871 
L 103.53926 108.589231 
L 103.995279 111.227322 
L 104.451299 116.379437 
L 104.907319 118.941981 
L 105.363338 126.855454 
L 105.819358 127.725606 
L 106.275378 127.294948 
L 106.731397 131.328009 
L 107.187417 133.149545 
L 107.643437 127.962281 
L 108.099456 127.603977 
L 108.555476 122.476622 
L 109.467515 123.68465 
L 109.923535 131.029167 
L 110.379555 128.593672 
L 110.835574 124.918303 
L 111.747614 127.097935 
L 112.203633 124.38276 
L 113.115673 129.45427 
L 113.571692 128.395305 
L 114.027712 130.419912 
L 114.483732 128.379254 
L 114.939751 131.452673 
L 115.395771 126.411593 
L 115.851791 124.219301 
L 116.30781 123.999388 
L 117.675869 133.445708 
L 118.131889 138.228621 
L 118.587908 133.752188 
L 119.043928 132.609813 
L 119.499948 129.034397 
L 119.955967 123.226704 
L 120.411987 118.863229 
L 120.868007 117.361712 
L 121.324026 118.734435 
L 121.780046 116.232112 
L 122.236066 115.527007 
L 122.692085 116.397464 
L 123.148105 118.117995 
L 123.604125 114.513897 
L 124.060144 109.579838 
L 124.516164 110.498577 
L 124.972184 111.957986 
L 125.428203 109.626414 
L 125.884223 111.747616 
L 126.340243 109.731608 
L 126.796262 103.931047 
L 127.252282 105.326425 
L 127.708302 105.244562 
L 128.164321 98.599885 
L 128.620341 99.846098 
L 129.076361 99.375099 
L 129.53238 102.520338 
L 129.9884 104.867489 
L 130.44442 109.472183 
L 130.900439 99.703168 
L 131.356459 97.793774 
L 131.812479 97.946978 
L 132.268498 101.477096 
L 132.724518 107.570748 
L 133.180537 106.763451 
L 133.636557 107.248193 
L 134.092577 105.571764 
L 134.548596 103.259698 
L 135.004616 99.879155 
L 135.460636 100.020008 
L 135.916655 97.942773 
L 136.372675 99.30376 
L 136.828695 102.147207 
L 137.284714 103.276587 
L 138.196754 98.683153 
L 138.652773 98.725275 
L 139.108793 97.648512 
L 139.564813 92.280159 
L 140.020832 98.299396 
L 140.476852 102.490757 
L 140.932872 102.534284 
L 141.388891 100.195406 
L 141.844911 100.914321 
L 142.300931 97.898413 
L 143.21297 115.724607 
L 143.66899 117.620814 
L 144.125009 108.713161 
L 144.581029 108.713389 
L 145.037049 116.198818 
L 145.493068 117.401155 
L 145.949088 115.339004 
L 146.405107 112.125615 
L 146.861127 110.554194 
L 147.317147 111.341674 
L 147.773166 109.074823 
L 148.229186 105.222259 
L 148.685206 107.074817 
L 149.597245 107.942093 
L 150.053265 113.637835 
L 150.509284 117.83597 
L 150.965304 125.579132 
L 151.421324 125.297482 
L 152.333363 127.423793 
L 152.789383 127.538686 
L 153.245402 125.804561 
L 153.701422 128.050685 
L 154.157442 124.131353 
L 154.613461 129.448681 
L 155.069481 129.494264 
L 155.525501 129.822693 
L 155.98152 126.984487 
L 156.43754 128.637516 
L 156.89356 125.068437 
L 157.349579 125.849445 
L 157.805599 126.189428 
L 158.261619 126.687279 
L 159.173658 121.506822 
L 159.629678 123.526384 
L 160.085697 128.231444 
L 160.541717 131.507881 
L 160.997736 130.956244 
L 161.453756 131.011834 
L 161.909776 130.541182 
L 162.365795 132.96293 
L 162.821815 130.305515 
L 163.277835 130.89474 
L 163.733854 136.349675 
L 164.189874 135.830876 
L 164.645894 134.00272 
L 165.557933 133.087746 
L 166.013953 132.329095 
L 166.469972 135.848075 
L 166.925992 130.73271 
L 167.382012 131.823052 
L 167.838031 126.92445 
L 168.294051 128.774991 
L 168.750071 125.546731 
L 169.20609 124.744639 
L 169.66211 124.409634 
L 170.11813 127.544774 
L 170.574149 123.517884 
L 171.030169 122.118707 
L 171.486189 122.420101 
L 171.942208 118.388013 
L 172.398228 118.092195 
L 172.854248 110.712441 
L 173.310267 107.317198 
L 173.766287 108.421617 
L 174.222307 103.885234 
L 174.678326 103.682001 
L 175.134346 96.983228 
L 175.590365 96.710526 
L 176.046385 96.97505 
L 176.502405 96.661238 
L 176.958424 95.327066 
L 177.414444 90.153065 
L 177.870464 89.175055 
L 178.326483 89.531435 
L 178.782503 91.179369 
L 179.238523 88.555547 
L 179.694542 90.40681 
L 180.606582 97.456855 
L 181.062601 99.009503 
L 181.518621 99.425058 
L 181.974641 95.907938 
L 182.43066 97.835671 
L 182.88668 93.837802 
L 183.3427 99.307002 
L 183.798719 90.508617 
L 184.254739 95.806558 
L 184.710759 95.145036 
L 185.166778 95.871655 
L 185.622798 98.494252 
L 186.078818 96.235352 
L 186.534837 92.704734 
L 186.990857 93.279758 
L 187.446877 89.240958 
L 187.902896 89.027034 
L 188.358916 92.579579 
L 188.814936 92.84403 
L 189.270955 94.605629 
L 189.726975 93.068719 
L 190.182994 94.401756 
L 190.639014 94.649495 
L 191.095034 98.274099 
L 191.551053 94.702931 
L 192.007073 95.890569 
L 192.463093 99.462141 
L 192.919112 90.674203 
L 193.375132 95.3929 
L 193.831152 93.698312 
L 194.287171 100.923979 
L 194.743191 99.893652 
L 195.199211 99.265438 
L 195.65523 100.108267 
L 196.11125 104.661889 
L 197.023289 110.222544 
L 197.935329 117.309633 
L 198.391348 112.51696 
L 198.847368 111.210498 
L 199.303388 106.766134 
L 199.759407 110.068421 
L 200.215427 111.508779 
L 200.671447 117.309741 
L 201.127466 121.285327 
L 201.583486 122.257513 
L 202.039506 123.662149 
L 202.495525 117.726589 
L 202.951545 117.365762 
L 203.407564 118.251076 
L 203.863584 116.716678 
L 204.319604 116.626916 
L 204.775623 120.252676 
L 205.231643 122.346198 
L 206.143682 113.32025 
L 206.599702 112.4612 
L 207.055722 109.056579 
L 207.511741 103.570337 
L 207.967761 105.045502 
L 208.8798 103.69163 
L 209.33582 106.452814 
L 209.79184 104.961934 
L 210.247859 108.781303 
L 210.703879 108.4398 
L 211.159899 109.337851 
L 211.615918 107.903358 
L 212.071938 112.427983 
L 212.527958 114.168221 
L 212.983977 107.879302 
L 213.439997 108.329627 
L 213.896017 108.102056 
L 214.352036 110.338122 
L 214.808056 110.186604 
L 215.264076 108.918339 
L 215.720095 110.506508 
L 216.176115 111.339713 
L 216.632135 111.895613 
L 217.088154 110.907984 
L 217.544174 107.132566 
L 218.000193 109.367812 
L 218.912233 103.989179 
L 219.368252 103.138154 
L 219.824272 99.525925 
L 220.736311 98.835024 
L 221.192331 99.414611 
L 222.10437 101.020473 
L 222.56039 107.234776 
L 223.01641 105.230133 
L 223.472429 106.306324 
L 223.928449 111.211674 
L 224.384469 107.971236 
L 224.840488 111.229107 
L 225.296508 108.358791 
L 225.752528 110.835253 
L 226.208547 107.633001 
L 226.664567 101.291461 
L 227.120587 106.618251 
L 227.576606 107.46971 
L 228.032626 104.274401 
L 228.944665 102.399626 
L 229.400685 99.341924 
L 229.856705 101.976361 
L 230.312724 106.261159 
L 230.768744 108.644962 
L 231.224764 104.1915 
L 231.680783 106.742603 
L 232.136803 111.86867 
L 232.592822 108.005544 
L 233.504862 111.215485 
L 233.960881 115.87039 
L 234.872921 112.202381 
L 235.32894 114.040655 
L 235.78496 118.027183 
L 236.24098 124.345944 
L 236.696999 122.448885 
L 237.153019 113.777762 
L 237.609039 112.427506 
L 238.065058 110.395985 
L 238.521078 109.906537 
L 238.977098 108.739108 
L 239.433117 109.517278 
L 239.889137 108.534821 
L 240.345157 111.209823 
L 240.801176 115.353179 
L 241.713216 114.653874 
L 242.169235 118.575915 
L 242.625255 120.417448 
L 243.081275 121.586534 
L 243.537294 119.19614 
L 243.993314 118.666262 
L 244.449334 119.226004 
L 244.905353 124.543287 
L 245.361373 123.640237 
L 245.817393 121.872951 
L 246.273412 114.532246 
L 246.729432 113.041694 
L 247.641471 106.837575 
L 248.097491 112.891183 
L 249.00953 113.87389 
L 249.46555 115.409981 
L 249.921569 112.549544 
L 250.377589 107.117031 
L 250.833609 110.204342 
L 251.289628 110.725293 
L 251.745648 109.305992 
L 252.201668 111.909343 
L 252.657687 118.977619 
L 253.113707 119.695833 
L 253.569727 123.382998 
L 254.025746 129.856576 
L 254.481766 126.844647 
L 254.937786 121.382877 
L 255.849825 118.22737 
L 256.305845 116.777728 
L 256.761864 117.036904 
L 257.217884 115.536882 
L 257.673904 115.975371 
L 258.129923 118.483156 
L 258.585943 114.216375 
L 259.041963 111.715849 
L 259.497982 102.841755 
L 259.954002 105.575534 
L 260.410021 110.401687 
L 260.866041 105.920803 
L 261.322061 106.272089 
L 261.77808 101.741032 
L 262.2341 95.015133 
L 262.69012 99.599097 
L 263.146139 102.462521 
L 263.602159 108.077266 
L 264.058179 108.580198 
L 264.514198 110.988226 
L 264.970218 117.469898 
L 265.426238 117.136261 
L 265.882257 112.855505 
L 266.338277 116.095133 
L 266.794297 111.936137 
L 267.250316 109.6089 
L 267.706336 109.824475 
L 268.162356 113.357185 
L 268.618375 114.924176 
L 269.074395 107.816294 
L 269.530415 109.116183 
L 269.986434 107.213933 
L 270.442454 108.129969 
L 270.898474 111.798186 
L 271.354493 109.49483 
L 271.810513 103.987084 
L 272.266533 100.430022 
L 272.722552 95.056537 
L 273.178572 94.578926 
L 273.634592 94.587465 
L 274.090611 92.82525 
L 274.546631 93.568705 
L 275.00265 95.210043 
L 275.45867 100.532749 
L 275.91469 97.131842 
L 276.370709 96.965915 
L 277.282749 108.38804 
L 277.738768 102.471505 
L 278.194788 98.879475 
L 278.650808 97.599083 
L 279.106827 102.498193 
L 279.562847 103.382445 
L 280.018867 106.829123 
L 280.474886 108.046172 
L 280.930906 108.770434 
L 281.386926 111.192549 
L 281.842945 115.84711 
L 282.298965 113.380168 
L 282.754985 112.547461 
L 283.211004 110.715546 
L 284.123044 103.242151 
L 284.579063 97.687712 
L 285.035083 94.595736 
L 285.491103 93.062496 
L 285.947122 94.439544 
L 286.403142 98.746665 
L 286.859162 96.775466 
L 287.315181 97.750817 
L 287.771201 91.079646 
L 288.227221 92.764625 
L 289.13926 90.878639 
L 289.595279 95.798576 
L 290.051299 98.353656 
L 290.507319 104.988205 
L 290.963338 104.071487 
L 291.419358 103.448057 
L 291.875378 100.964224 
L 292.331397 103.386028 
L 292.787417 106.924365 
L 293.243437 107.999575 
L 293.699456 106.619487 
L 294.155476 110.236199 
L 294.611496 108.960996 
L 295.067515 107.323772 
L 295.523535 104.584285 
L 295.979555 105.778059 
L 296.435574 105.487058 
L 296.891594 101.384416 
L 297.347614 103.721995 
L 297.803633 103.849712 
L 298.259653 97.150488 
L 298.715673 96.135109 
L 299.171692 92.985 
L 299.627712 91.981538 
L 300.083732 88.618833 
L 300.539751 87.00022 
L 301.90781 89.298243 
L 302.36383 87.101526 
L 302.81985 87.020135 
L 303.275869 87.076033 
L 303.731889 86.807382 
L 304.187908 85.890679 
L 304.643928 80.670137 
L 305.099948 83.764495 
L 305.555967 80.162554 
L 306.468007 82.704859 
L 306.924026 83.20009 
L 307.380046 87.723791 
L 307.836066 89.843885 
L 308.292085 90.297637 
L 308.748105 92.290582 
L 309.204125 87.958914 
L 309.660144 90.711195 
L 310.116164 91.269743 
L 310.572184 93.286941 
L 311.028203 89.108189 
L 311.484223 93.592758 
L 311.940243 92.206007 
L 312.852282 83.507906 
L 313.308302 82.917182 
L 313.764321 77.145333 
L 314.220341 80.323527 
L 315.13238 83.96596 
L 315.5884 83.10679 
L 316.04442 90.166369 
L 316.500439 86.998697 
L 316.956459 82.88679 
L 317.412479 83.849203 
L 317.868498 79.647393 
L 318.324518 77.731306 
L 318.780537 80.993627 
L 319.236557 83.301354 
L 319.692577 84.995478 
L 320.148596 83.897591 
L 320.604616 80.756454 
L 321.060636 78.512254 
L 321.516655 80.583695 
L 321.972675 80.206828 
L 322.428695 82.254652 
L 322.884714 76.970581 
L 323.340734 78.254431 
L 323.796754 78.479433 
L 324.252773 79.425895 
L 324.708793 83.431744 
L 325.164813 83.695684 
L 325.620832 80.950999 
L 326.076852 81.521228 
L 326.532872 87.034926 
L 326.988891 87.731642 
L 327.444911 90.105884 
L 327.900931 89.931069 
L 328.35695 86.707203 
L 328.81297 89.045584 
L 329.26899 89.564909 
L 329.725009 89.410083 
L 330.181029 94.177875 
L 330.637049 92.999235 
L 331.093068 93.981592 
L 331.549088 97.175243 
L 332.005107 101.669519 
L 332.461127 101.811443 
L 332.917147 99.071336 
L 333.373166 97.431634 
L 333.829186 101.365764 
L 334.285206 102.504815 
L 334.741225 100.97303 
L 335.197245 96.989587 
L 335.653265 91.954831 
L 336.109284 91.233723 
L 336.565304 87.639699 
L 337.021324 92.312917 
L 337.477343 90.614346 
L 337.933363 85.296362 
L 338.389383 85.434762 
L 339.301422 76.312631 
L 339.757442 74.224327 
L 340.213461 68.628907 
L 341.125501 70.362772 
L 341.58152 65.271141 
L 342.03754 63.971406 
L 342.49356 68.122279 
L 342.949579 68.031781 
L 343.405599 58.080004 
L 343.861619 65.99074 
L 344.317638 61.575207 
L 344.773658 63.273953 
L 345.229678 61.509206 
L 345.685697 58.753354 
L 347.053756 71.364898 
L 347.509776 71.691634 
L 347.965795 77.310429 
L 348.877835 73.141032 
L 349.789874 71.394047 
L 350.245894 75.798505 
L 350.701913 76.853483 
L 351.157933 76.714299 
L 351.613953 74.1311 
L 352.069972 73.69368 
L 352.525992 68.12612 
L 352.982012 66.040748 
L 353.438031 65.858537 
L 353.894051 64.347727 
L 354.350071 58.955035 
L 354.80609 62.718176 
L 355.71813 65.088505 
L 356.174149 67.328536 
L 356.630169 70.523081 
L 357.086189 68.526234 
L 357.542208 70.051655 
L 357.998228 68.01087 
L 358.454248 69.548578 
L 358.910267 73.763153 
L 359.366287 69.762215 
L 359.822307 63.75633 
L 360.278326 63.006004 
L 360.734346 61.259134 
L 361.190365 55.459116 
L 361.646385 53.760442 
L 362.102405 49.869738 
L 362.558424 47.488238 
L 363.014444 43.08011 
L 363.926483 41.042846 
L 364.382503 39.010153 
L 364.838523 43.51703 
L 365.294542 46.433512 
L 366.206582 37.1439 
L 366.662601 35.706644 
L 367.118621 38.885867 
L 367.574641 34.869165 
L 368.03066 34.602247 
L 368.48668 38.510392 
L 368.9427 36.441398 
L 369.854739 30.535059 
L 370.310759 31.56892 
L 370.766778 33.304164 
L 371.222798 37.668526 
L 371.678818 32.593751 
L 372.134837 31.88289 
L 372.590857 26.651493 
L 373.046877 27.51612 
L 373.502896 21.800519 
L 373.958916 27.881224 
L 374.414936 27.335226 
L 374.870955 30.05067 
L 375.326975 32.072282 
L 375.782994 36.505612 
L 376.239014 38.656855 
L 376.695034 32.282045 
L 377.151053 34.164032 
L 377.607073 30.549062 
L 378.063093 37.067564 
L 378.519112 28.915003 
L 378.975132 28.972728 
L 379.431152 25.926117 
L 379.887171 21.786217 
L 380.343191 23.701005 
L 380.799211 22.282066 
L 381.25523 23.187952 
L 381.71125 25.470759 
L 382.16727 30.605108 
L 382.623289 30.943653 
L 383.535329 25.347077 
L 383.991348 24.580925 
L 384.903388 22.162658 
L 385.359407 24.625429 
L 385.815427 29.758049 
L 386.271447 31.635726 
L 386.727466 36.977372 
L 387.183486 34.224281 
L 387.639506 25.903841 
L 388.095525 22.524701 
L 388.551545 23.463909 
L 389.007564 23.408117 
L 389.463584 19.554545 
L 389.919604 21.561331 
L 390.375623 21.11738 
L 390.831643 28.364116 
L 391.287663 32.092919 
L 391.743682 33.994352 
L 392.199702 31.869508 
L 392.655722 34.43311 
L 393.111741 32.367668 
L 393.567761 31.755992 
L 394.023781 25.546597 
L 394.4798 29.138331 
L 395.39184 44.021646 
L 395.847859 44.517781 
L 396.303879 40.673455 
L 396.759899 40.054558 
L 397.215918 37.855595 
L 397.671938 38.021024 
L 398.127958 37.228219 
L 398.583977 42.276215 
L 399.039997 35.82297 
L 399.496017 34.211898 
L 399.952036 38.60602 
L 400.408056 45.163609 
L 400.864076 43.383401 
L 401.320095 43.748491 
L 401.776115 44.694196 
L 402.232135 39.906138 
L 402.688154 41.805064 
L 403.144174 44.643168 
L 404.056213 40.200416 
L 404.512233 44.509297 
L 404.968252 41.872947 
L 405.424272 35.324379 
L 405.880292 36.444931 
L 406.792331 40.902741 
L 407.70437 35.092509 
L 408.16039 38.803828 
L 409.072429 30.744182 
L 409.528449 29.760353 
L 409.984469 37.059537 
L 410.440488 34.413353 
L 410.896508 39.840259 
L 411.352528 37.369558 
L 412.264567 30.782373 
L 412.720587 39.516533 
L 413.176606 41.948161 
L 413.632626 39.468551 
L 414.088646 39.742875 
L 414.544665 44.83536 
L 415.000685 46.29868 
L 415.456705 46.316686 
L 415.912724 52.034277 
L 416.368744 46.338388 
L 416.824764 43.62938 
L 417.280783 43.130582 
L 417.736803 45.586672 
L 418.192822 46.631839 
L 418.648842 48.813955 
L 419.104862 52.124202 
L 419.560881 51.626721 
L 420.016901 47.942118 
L 420.472921 48.576795 
L 420.92894 49.953571 
L 421.38496 49.35706 
L 421.84098 46.746597 
L 422.296999 48.498659 
L 422.753019 53.1109 
L 423.209039 49.953436 
L 423.665058 54.50087 
L 424.121078 52.714252 
L 424.577098 53.034713 
L 425.033117 56.028308 
L 425.489137 51.395747 
L 425.945157 48.064904 
L 426.857196 44.670358 
L 427.313216 43.082502 
L 427.769235 46.367207 
L 428.225255 48.244013 
L 428.681275 53.724223 
L 429.137294 52.748131 
L 429.593314 47.962207 
L 430.049334 49.243629 
L 430.505353 48.450511 
L 431.417393 51.803201 
L 431.873412 52.93893 
L 432.329432 57.825377 
L 432.785451 54.022973 
L 433.241471 54.039753 
L 433.697491 50.795089 
L 434.15351 49.785405 
L 434.60953 52.477869 
L 435.06555 53.536212 
L 435.521569 58.835626 
L 435.977589 56.201767 
L 436.433609 55.743498 
L 436.889628 58.365647 
L 437.345648 63.396912 
L 437.801668 65.321861 
L 438.257687 69.019705 
L 438.713707 68.567922 
L 439.169727 72.083725 
L 439.625746 65.22999 
L 440.081766 61.939503 
L 440.537786 63.184621 
L 440.993805 68.147978 
L 441.449825 68.520877 
L 441.905845 75.065108 
L 442.361864 71.522844 
L 442.817884 68.880266 
L 443.273904 64.042446 
L 443.729923 65.901421 
L 444.185943 63.211199 
L 444.641963 58.589127 
L 445.097982 60.04405 
L 445.554002 62.494751 
L 446.010021 57.992661 
L 446.466041 57.506835 
L 446.922061 56.086532 
L 447.37808 56.380545 
L 447.8341 60.549884 
L 448.29012 56.861027 
L 448.746139 63.638261 
L 449.202159 60.305472 
L 449.658179 61.238002 
L 450.114198 61.86461 
L 450.570218 63.643056 
L 451.482257 60.518589 
L 451.938277 55.136911 
L 452.850316 56.359631 
L 453.306336 57.541147 
L 453.762356 57.194064 
L 454.218375 58.693457 
L 455.130415 50.25887 
L 455.586434 56.678772 
L 456.498474 64.385264 
L 456.954493 62.175763 
L 457.410513 65.15477 
L 457.866533 63.311708 
L 458.322552 58.732084 
L 458.778572 56.157675 
L 459.690611 63.654036 
L 460.146631 72.564158 
L 460.60265 70.927739 
L 461.05867 75.119003 
L 461.51469 74.977425 
L 461.970709 74.206696 
L 462.426729 78.580752 
L 462.882749 75.430246 
L 463.338768 78.889907 
L 463.794788 80.87412 
L 464.250808 84.822388 
L 464.706827 84.658618 
L 465.162847 86.878228 
L 465.618867 79.297255 
L 466.074886 81.446569 
L 466.530906 80.824165 
L 466.986926 81.76029 
L 467.442945 78.79925 
L 467.898965 78.786195 
L 468.354985 83.667852 
L 468.811004 83.003696 
L 469.267024 81.534379 
L 470.179063 89.288575 
L 470.635083 91.478007 
L 471.091103 90.619228 
L 471.547122 91.81081 
L 472.003142 99.332299 
L 472.459162 101.871276 
L 472.915181 98.080367 
L 473.827221 93.783889 
L 474.28324 93.971133 
L 474.73926 86.714306 
L 475.195279 86.943836 
L 475.651299 87.716338 
L 476.563338 90.625199 
L 477.019358 88.012735 
L 477.475378 94.972355 
L 477.931397 98.930449 
L 478.387417 94.252484 
L 478.843437 96.843184 
L 479.299456 100.608798 
L 479.755476 101.167332 
L 480.211496 103.666312 
L 480.667515 102.688256 
L 481.123535 106.683465 
L 481.579555 101.677143 
L 482.035574 106.055059 
L 482.491594 106.335402 
L 482.947614 106.148986 
L 483.403633 105.326148 
L 483.859653 105.528546 
L 484.315673 105.547847 
L 484.771692 105.781623 
L 485.227712 101.421229 
L 485.683732 101.840004 
L 486.139751 98.622171 
L 486.595771 101.067605 
L 487.051791 101.075683 
L 487.50781 101.510393 
L 487.96383 98.169271 
L 488.875869 102.438299 
L 489.331889 102.959537 
L 489.787908 103.030346 
L 490.243928 110.051249 
L 490.699948 112.918188 
L 491.155967 109.210714 
L 492.068007 110.867797 
L 492.980046 107.15829 
L 493.436066 101.349894 
L 493.892085 99.241825 
L 494.348105 100.712177 
L 494.804125 100.528379 
L 495.716164 94.73168 
L 496.172184 97.746036 
L 496.628203 95.509262 
L 497.084223 89.60784 
L 497.540243 90.186987 
L 497.996262 90.149216 
L 498.908302 96.786024 
L 499.364321 96.747504 
L 499.820341 94.115631 
L 500.276361 95.113297 
L 501.1884 88.389269 
L 501.64442 89.612035 
L 502.100439 87.173851 
L 502.556459 87.605791 
L 503.012479 87.295381 
L 503.468498 83.709177 
L 503.924518 75.565072 
L 504.380537 80.227802 
L 504.836557 81.330959 
L 505.292577 77.456214 
L 505.748596 78.271869 
L 506.204616 79.705746 
L 506.660636 74.136416 
L 507.116655 74.339582 
L 507.572675 71.710362 
L 508.028695 72.743404 
L 508.484714 77.948551 
L 508.940734 79.655399 
L 509.396754 77.371929 
L 509.852773 76.727455 
L 510.308793 79.391951 
L 510.764813 72.499551 
L 511.220832 72.105834 
L 511.676852 75.429887 
L 512.132872 71.090102 
L 512.588891 68.029061 
L 513.044911 69.898989 
L 514.41297 63.530259 
L 514.86899 63.096604 
L 515.325009 69.001188 
L 515.781029 70.081133 
L 516.237049 70.257844 
L 516.693068 72.206012 
L 516.693068 72.206012 
" style="fill:none;stroke:#ff00ff;stroke-linecap:round;stroke-width:4;"/>
   </g>
   <g id="line2d_31">
    <path clip-path="url(#pc515d94df9)" d="M 61.129432 185.349238 
L 61.585451 183.00652 
L 62.041471 184.671963 
L 62.497491 190.336412 
L 63.40953 194.215005 
L 63.86555 194.75565 
L 64.321569 198.852476 
L 64.777589 199.889867 
L 65.233609 202.818185 
L 65.689628 200.214849 
L 66.145648 200.861182 
L 66.601668 199.03255 
L 67.057687 198.108123 
L 67.513707 202.398009 
L 67.969727 202.539471 
L 68.425746 196.96281 
L 68.881766 202.342324 
L 69.337786 199.176944 
L 69.793805 198.847509 
L 70.249825 203.892446 
L 70.705845 201.977495 
L 71.161864 198.62641 
L 71.617884 198.830092 
L 72.073904 197.804299 
L 72.529923 191.718329 
L 72.985943 193.740152 
L 73.897982 182.152572 
L 74.354002 186.578454 
L 74.810021 186.165883 
L 75.266041 185.942359 
L 76.6341 172.675504 
L 77.09012 178.083313 
L 77.546139 173.484234 
L 78.002159 171.587649 
L 78.458179 177.727988 
L 78.914198 173.342884 
L 79.370218 177.040072 
L 79.826238 174.458738 
L 80.282257 176.415988 
L 80.738277 177.103399 
L 81.194297 175.621962 
L 81.650316 176.32226 
L 82.106336 181.171862 
L 82.562356 180.150618 
L 83.018375 183.999515 
L 83.474395 182.181613 
L 83.930415 186.36363 
L 84.386434 185.898319 
L 84.842454 184.682029 
L 85.298474 177.957121 
L 85.754493 184.427822 
L 86.210513 183.37199 
L 86.666533 187.580944 
L 87.122552 185.982593 
L 87.578572 186.35745 
L 88.034592 183.788733 
L 88.490611 179.059311 
L 88.946631 180.186289 
L 89.40265 180.230939 
L 89.85867 177.211511 
L 90.31469 178.978604 
L 90.770709 177.632217 
L 91.226729 174.830807 
L 91.682749 178.424789 
L 92.138768 183.517509 
L 92.594788 182.930707 
L 93.050808 180.002837 
L 93.506827 185.028748 
L 93.962847 183.388716 
L 94.418867 184.608963 
L 94.874886 185.182041 
L 95.330906 181.736765 
L 95.786926 181.267543 
L 96.242945 184.123141 
L 96.698965 184.164067 
L 97.611004 185.883173 
L 98.067024 181.944725 
L 98.979063 186.779725 
L 99.435083 185.943323 
L 99.891103 183.809643 
L 100.347122 184.2566 
L 100.803142 188.369427 
L 101.259162 188.006263 
L 101.715181 179.910345 
L 102.171201 178.019114 
L 102.627221 183.570179 
L 103.08324 186.748246 
L 103.53926 186.435996 
L 103.995279 184.626538 
L 104.451299 186.949774 
L 104.907319 179.722412 
L 105.363338 177.926227 
L 105.819358 176.815347 
L 106.275378 172.617711 
L 106.731397 171.797454 
L 107.187417 178.361208 
L 107.643437 179.677734 
L 108.099456 181.812663 
L 108.555476 182.939115 
L 109.011496 182.55831 
L 109.467515 180.245649 
L 110.379555 185.385179 
L 110.835574 185.64446 
L 112.203633 179.877067 
L 112.659653 176.171643 
L 113.115673 177.377171 
L 113.571692 173.636446 
L 114.027712 172.519219 
L 114.483732 171.991917 
L 114.939751 165.975905 
L 115.395771 167.040369 
L 115.851791 169.59935 
L 116.30781 164.706407 
L 116.76383 164.856217 
L 117.21985 161.165018 
L 117.675869 159.834283 
L 118.131889 165.686571 
L 118.587908 164.748082 
L 119.043928 162.662168 
L 119.499948 162.90444 
L 119.955967 160.822729 
L 121.324026 149.28232 
L 121.780046 152.103428 
L 122.236066 151.688842 
L 122.692085 154.072958 
L 123.604125 157.199125 
L 124.060144 157.377453 
L 124.516164 156.636476 
L 124.972184 149.677212 
L 125.428203 148.850623 
L 125.884223 142.897055 
L 126.340243 142.942103 
L 126.796262 140.377424 
L 127.252282 141.564606 
L 127.708302 141.443674 
L 128.164321 143.83694 
L 128.620341 141.523493 
L 129.076361 144.125449 
L 129.53238 145.118702 
L 129.9884 144.382878 
L 130.900439 141.177286 
L 131.356459 142.759533 
L 131.812479 147.299049 
L 132.268498 154.846349 
L 132.724518 157.830173 
L 133.636557 162.337581 
L 134.092577 165.148325 
L 134.548596 163.610061 
L 135.004616 164.52811 
L 135.460636 164.986139 
L 135.916655 167.611975 
L 136.372675 162.162567 
L 136.828695 163.084369 
L 137.284714 170.936159 
L 137.740734 173.531769 
L 138.652773 182.64732 
L 139.108793 181.102135 
L 139.564813 173.148376 
L 140.020832 177.185843 
L 140.476852 178.584672 
L 140.932872 181.207291 
L 141.388891 188.435917 
L 141.844911 184.613532 
L 142.300931 187.787779 
L 142.75695 185.235952 
L 143.21297 180.829451 
L 143.66899 181.231282 
L 144.125009 184.7522 
L 144.581029 193.965774 
L 145.037049 191.762488 
L 145.493068 184.60448 
L 145.949088 186.110206 
L 146.405107 184.556957 
L 146.861127 185.851847 
L 147.317147 187.87807 
L 147.773166 182.746656 
L 148.229186 182.17507 
L 148.685206 182.129775 
L 149.597245 181.287183 
L 150.053265 186.672829 
L 150.509284 187.240239 
L 150.965304 181.500252 
L 151.421324 178.844389 
L 151.877343 180.721837 
L 152.333363 180.074131 
L 152.789383 175.865271 
L 153.245402 174.75446 
L 153.701422 166.418964 
L 154.157442 165.300641 
L 154.613461 164.485506 
L 155.069481 168.097144 
L 155.525501 173.678234 
L 155.98152 170.24033 
L 156.43754 171.561296 
L 156.89356 174.115323 
L 157.349579 172.231812 
L 157.805599 174.282059 
L 158.261619 171.925551 
L 158.717638 171.120478 
L 159.173658 173.20858 
L 159.629678 172.348326 
L 160.085697 177.279169 
L 160.541717 175.811002 
L 160.997736 177.525561 
L 161.453756 177.648812 
L 161.909776 173.527593 
L 162.365795 173.423753 
L 162.821815 175.609893 
L 163.277835 172.315664 
L 163.733854 172.467805 
L 164.189874 168.449386 
L 164.645894 170.940229 
L 165.101913 171.9349 
L 165.557933 175.215123 
L 166.013953 179.629423 
L 166.469972 179.083885 
L 167.382012 183.647978 
L 167.838031 183.193056 
L 168.294051 186.731139 
L 168.750071 187.001555 
L 169.20609 188.75331 
L 169.66211 182.614331 
L 170.11813 185.406433 
L 170.574149 189.945407 
L 171.030169 191.793825 
L 171.486189 191.277074 
L 171.942208 194.208735 
L 172.398228 196.060592 
L 172.854248 200.321487 
L 173.310267 203.151005 
L 173.766287 202.017261 
L 174.222307 199.055803 
L 174.678326 197.729999 
L 175.134346 194.514148 
L 175.590365 194.7804 
L 176.046385 192.626916 
L 176.502405 191.275494 
L 176.958424 191.34657 
L 177.414444 199.488833 
L 177.870464 200.042232 
L 178.326483 196.961982 
L 178.782503 199.651952 
L 179.238523 193.581792 
L 179.694542 190.821389 
L 180.606582 179.861086 
L 181.062601 186.876409 
L 181.518621 183.679417 
L 181.974641 182.851625 
L 182.88668 175.634555 
L 183.3427 177.548666 
L 184.254739 184.156406 
L 184.710759 183.590993 
L 185.622798 189.889642 
L 186.078818 191.935471 
L 186.534837 190.84519 
L 186.990857 193.52207 
L 187.446877 190.020398 
L 187.902896 192.630518 
L 188.358916 188.06374 
L 188.814936 191.474842 
L 189.270955 192.145805 
L 189.726975 191.803327 
L 190.639014 197.474689 
L 191.095034 196.65021 
L 192.463093 201.49322 
L 192.919112 200.882743 
L 193.375132 203.686018 
L 193.831152 198.130942 
L 194.287171 204.421469 
L 194.743191 204.290991 
L 195.199211 204.787865 
L 195.65523 205.977331 
L 196.11125 210.657282 
L 196.56727 208.587126 
L 197.023289 214.169395 
L 197.479309 212.42611 
L 197.935329 212.769217 
L 198.391348 214.569214 
L 198.847368 218.838447 
L 199.303388 221.247331 
L 199.759407 229.09965 
L 200.215427 227.038571 
L 200.671447 226.577398 
L 201.127466 224.865741 
L 201.583486 228.876939 
L 202.039506 230.868697 
L 202.495525 228.881213 
L 202.951545 228.100069 
L 203.407564 224.424457 
L 204.319604 221.879791 
L 204.775623 221.415806 
L 205.231643 216.720588 
L 205.687663 218.318073 
L 206.143682 220.47181 
L 206.599702 220.427895 
L 207.055722 220.553048 
L 207.511741 221.366609 
L 207.967761 218.429795 
L 208.423781 217.13651 
L 208.8798 218.820494 
L 209.33582 211.614744 
L 209.79184 213.515902 
L 210.247859 211.548953 
L 210.703879 214.393948 
L 211.159899 216.199378 
L 211.615918 217.372423 
L 212.071938 211.163514 
L 212.527958 210.805755 
L 212.983977 210.177514 
L 213.439997 214.982382 
L 213.896017 214.221473 
L 214.352036 217.661782 
L 214.808056 219.919973 
L 215.264076 218.437228 
L 215.720095 220.010687 
L 216.632135 210.641545 
L 217.088154 210.023559 
L 217.544174 209.781659 
L 218.000193 210.385999 
L 218.456213 209.304606 
L 218.912233 207.734869 
L 219.368252 208.584204 
L 219.824272 212.472179 
L 220.280292 211.614818 
L 220.736311 211.024147 
L 221.192331 213.275411 
L 221.648351 213.457091 
L 222.10437 216.184699 
L 222.56039 214.172076 
L 223.472429 213.02994 
L 223.928449 210.610023 
L 224.384469 203.290953 
L 224.840488 203.158943 
L 225.296508 201.193518 
L 225.752528 197.565978 
L 226.208547 197.877709 
L 226.664567 194.880722 
L 227.120587 190.690908 
L 227.576606 190.64944 
L 228.032626 181.159219 
L 228.488646 186.994246 
L 228.944665 189.574751 
L 229.400685 193.46491 
L 229.856705 189.628146 
L 230.312724 188.698394 
L 230.768744 191.199141 
L 231.224764 188.531638 
L 231.680783 189.505451 
L 232.136803 180.722247 
L 232.592822 182.405696 
L 233.048842 178.768636 
L 233.504862 182.131668 
L 233.960881 180.331656 
L 234.416901 181.834126 
L 234.872921 186.177644 
L 235.32894 193.023799 
L 235.78496 193.976362 
L 236.24098 190.697357 
L 236.696999 190.566427 
L 237.153019 195.295759 
L 237.609039 190.584919 
L 238.065058 189.166429 
L 238.521078 186.554142 
L 238.977098 185.060986 
L 239.433117 176.588836 
L 239.889137 175.985968 
L 240.345157 178.659662 
L 240.801176 175.053551 
L 241.257196 182.343344 
L 241.713216 181.380518 
L 242.169235 182.645327 
L 242.625255 178.360748 
L 243.081275 178.205953 
L 243.537294 180.728122 
L 243.993314 180.263384 
L 244.449334 184.632086 
L 244.905353 178.462556 
L 245.361373 179.230318 
L 245.817393 176.929549 
L 246.273412 179.030849 
L 246.729432 177.562723 
L 247.185451 177.842066 
L 247.641471 171.408242 
L 248.097491 176.323195 
L 249.00953 179.403155 
L 249.46555 183.514307 
L 249.921569 183.943658 
L 250.377589 181.092895 
L 250.833609 183.523258 
L 251.289628 183.565433 
L 252.201668 180.211785 
L 252.657687 181.941592 
L 253.113707 189.997792 
L 253.569727 191.490542 
L 254.025746 184.579427 
L 254.937786 191.230301 
L 255.393805 190.550047 
L 255.849825 190.526232 
L 256.305845 192.820671 
L 256.761864 192.872708 
L 257.217884 193.422881 
L 258.129923 190.703606 
L 258.585943 194.320205 
L 259.041963 191.996859 
L 259.497982 192.731856 
L 259.954002 194.863913 
L 260.410021 191.373932 
L 260.866041 191.465884 
L 261.322061 192.668006 
L 261.77808 193.546094 
L 262.2341 191.780259 
L 262.69012 191.169396 
L 263.146139 188.909084 
L 263.602159 195.008255 
L 264.058179 191.233294 
L 264.514198 191.514583 
L 264.970218 189.662172 
L 265.882257 180.420945 
L 266.338277 185.006395 
L 266.794297 181.616353 
L 267.250316 180.732309 
L 267.706336 177.287489 
L 268.162356 182.558829 
L 268.618375 185.867531 
L 269.074395 185.010182 
L 269.530415 188.014533 
L 269.986434 189.306188 
L 270.442454 184.598183 
L 270.898474 177.151076 
L 271.354493 177.784316 
L 271.810513 174.603507 
L 272.266533 174.035084 
L 272.722552 170.896293 
L 273.178572 169.119112 
L 273.634592 173.256061 
L 274.090611 168.949939 
L 274.546631 171.81596 
L 275.00265 176.160038 
L 275.45867 172.158633 
L 275.91469 173.282893 
L 276.370709 170.471168 
L 276.826729 168.65655 
L 277.282749 171.872494 
L 277.738768 177.218963 
L 278.194788 171.350249 
L 278.650808 169.033953 
L 279.106827 164.13991 
L 279.562847 164.740155 
L 280.018867 160.586564 
L 280.474886 154.867354 
L 281.386926 156.596054 
L 281.842945 156.285349 
L 282.298965 156.410788 
L 282.754985 165.294062 
L 283.211004 168.469682 
L 284.579063 165.694345 
L 285.035083 166.700971 
L 285.491103 173.491233 
L 285.947122 173.080324 
L 286.403142 172.366572 
L 286.859162 175.397332 
L 287.315181 174.219499 
L 287.771201 173.363379 
L 288.227221 175.169329 
L 288.68324 175.582342 
L 289.13926 172.787058 
L 289.595279 171.808279 
L 290.051299 174.918625 
L 290.507319 169.685015 
L 290.963338 165.805959 
L 291.875378 170.93207 
L 292.331397 173.047261 
L 293.699456 166.85988 
L 294.155476 164.480921 
L 294.611496 168.771893 
L 295.067515 170.645147 
L 295.523535 177.028417 
L 296.435574 170.838199 
L 296.891594 167.180346 
L 297.347614 168.516446 
L 298.259653 166.109705 
L 298.715673 161.044716 
L 299.171692 167.4315 
L 299.627712 164.95215 
L 300.539751 167.253832 
L 300.995771 165.148657 
L 301.451791 163.709035 
L 301.90781 166.546668 
L 302.81985 163.451761 
L 303.275869 157.940651 
L 303.731889 157.108366 
L 304.187908 154.48963 
L 304.643928 159.440244 
L 305.099948 160.958222 
L 305.555967 164.205178 
L 306.011987 164.375277 
L 306.468007 158.673152 
L 306.924026 164.435272 
L 307.380046 165.467198 
L 307.836066 165.618744 
L 308.292085 167.307951 
L 309.204125 158.932592 
L 309.660144 155.551542 
L 310.116164 156.565897 
L 310.572184 156.917915 
L 311.028203 155.168765 
L 311.484223 154.691295 
L 311.940243 157.425544 
L 312.396262 154.934806 
L 312.852282 161.982481 
L 313.308302 158.399734 
L 313.764321 152.618024 
L 314.220341 151.418107 
L 314.676361 148.490716 
L 315.13238 148.585022 
L 315.5884 152.049479 
L 316.04442 147.542655 
L 316.500439 150.480826 
L 316.956459 143.084328 
L 317.412479 144.26498 
L 317.868498 144.052973 
L 318.324518 144.031443 
L 318.780537 142.661401 
L 319.236557 144.590578 
L 319.692577 145.686735 
L 320.148596 141.637989 
L 320.604616 146.418267 
L 321.060636 148.697142 
L 321.516655 151.657528 
L 321.972675 152.01342 
L 322.428695 151.788568 
L 322.884714 152.481507 
L 323.340734 151.508978 
L 324.252773 145.66028 
L 324.708793 146.228473 
L 325.164813 145.464791 
L 325.620832 148.370541 
L 326.076852 143.954925 
L 326.532872 143.348778 
L 326.988891 151.495305 
L 327.444911 152.655505 
L 327.900931 155.684428 
L 328.35695 152.38445 
L 329.725009 158.320699 
L 330.637049 169.071865 
L 331.093068 167.29417 
L 331.549088 169.965902 
L 332.005107 166.064204 
L 332.461127 169.553257 
L 332.917147 169.340959 
L 333.373166 170.461987 
L 333.829186 174.294613 
L 334.285206 173.817123 
L 334.741225 175.982061 
L 335.197245 175.95793 
L 335.653265 174.502147 
L 336.109284 177.467174 
L 336.565304 169.233861 
L 337.021324 171.192699 
L 337.477343 168.562859 
L 337.933363 168.820734 
L 338.389383 168.517949 
L 338.845402 167.936425 
L 339.301422 170.324017 
L 339.757442 170.469128 
L 340.213461 170.389056 
L 340.669481 169.829937 
L 341.125501 171.105742 
L 341.58152 171.214659 
L 342.03754 175.494789 
L 342.49356 176.462342 
L 342.949579 178.448355 
L 343.405599 178.304565 
L 343.861619 177.052398 
L 344.317638 177.011929 
L 344.773658 171.122691 
L 345.229678 175.63458 
L 345.685697 171.666694 
L 346.141717 170.025249 
L 346.597736 170.02213 
L 347.053756 176.338417 
L 347.509776 174.823415 
L 347.965795 176.066851 
L 348.421815 175.294544 
L 348.877835 180.015643 
L 349.333854 181.966108 
L 349.789874 182.321578 
L 350.245894 177.725682 
L 350.701913 179.145386 
L 351.157933 185.515849 
L 351.613953 184.571635 
L 352.069972 179.578162 
L 352.525992 180.572005 
L 352.982012 183.06369 
L 353.438031 181.986872 
L 353.894051 186.689855 
L 354.350071 186.202135 
L 354.80609 186.719361 
L 355.71813 188.273971 
L 357.086189 194.73156 
L 357.542208 193.842888 
L 357.998228 193.610593 
L 358.454248 195.233748 
L 359.366287 191.902348 
L 359.822307 186.016917 
L 360.278326 183.014287 
L 360.734346 183.075843 
L 361.190365 186.583722 
L 361.646385 185.731581 
L 362.102405 189.695935 
L 362.558424 187.493979 
L 363.014444 188.541405 
L 363.470464 184.474846 
L 363.926483 188.10649 
L 364.382503 188.278607 
L 364.838523 187.590227 
L 365.294542 189.682544 
L 365.750562 185.033335 
L 366.206582 175.596536 
L 366.662601 172.144921 
L 367.118621 174.84544 
L 367.574641 178.485974 
L 368.03066 179.523464 
L 368.48668 180.068688 
L 368.9427 181.60602 
L 369.398719 186.06145 
L 369.854739 184.340072 
L 370.310759 185.976269 
L 370.766778 184.963438 
L 371.222798 176.771536 
L 371.678818 183.02863 
L 372.134837 183.256082 
L 372.590857 183.06497 
L 373.046877 183.050205 
L 373.502896 183.268474 
L 373.958916 182.487567 
L 374.414936 186.291981 
L 374.870955 186.326712 
L 375.326975 188.066415 
L 375.782994 191.703922 
L 376.239014 192.860085 
L 376.695034 199.022913 
L 377.151053 207.702142 
L 377.607073 207.040171 
L 378.063093 208.657114 
L 378.519112 207.965732 
L 378.975132 205.444415 
L 379.431152 200.904565 
L 380.343191 196.301753 
L 380.799211 196.339203 
L 381.25523 191.84831 
L 381.71125 194.625119 
L 382.16727 195.987561 
L 382.623289 200.431846 
L 383.079309 199.254326 
L 383.535329 201.050618 
L 383.991348 199.736691 
L 384.447368 198.77985 
L 384.903388 191.9587 
L 385.359407 195.029285 
L 385.815427 194.646339 
L 386.271447 195.105272 
L 386.727466 190.545028 
L 387.183486 191.418782 
L 387.639506 195.714247 
L 388.095525 201.240057 
L 388.551545 201.115716 
L 389.007564 196.873483 
L 389.463584 197.351962 
L 389.919604 194.696168 
L 390.375623 194.936858 
L 390.831643 197.416219 
L 391.287663 193.323088 
L 391.743682 200.688089 
L 392.199702 202.46018 
L 392.655722 201.89842 
L 393.111741 205.133929 
L 393.567761 204.099824 
L 394.023781 200.960288 
L 394.4798 201.505938 
L 395.39184 203.924817 
L 395.847859 206.1425 
L 396.303879 206.530848 
L 396.759899 207.921451 
L 397.215918 208.624842 
L 397.671938 199.902608 
L 398.127958 202.63134 
L 398.583977 201.864268 
L 399.039997 201.412472 
L 399.496017 194.682248 
L 399.952036 197.967011 
L 400.408056 198.100058 
L 400.864076 200.47109 
L 401.320095 199.629845 
L 401.776115 196.25673 
L 402.232135 198.751356 
L 402.688154 199.509901 
L 403.144174 196.69644 
L 403.600193 196.705942 
L 404.056213 196.514522 
L 404.512233 199.156622 
L 404.968252 194.108868 
L 405.424272 195.542216 
L 406.336311 197.479624 
L 407.248351 190.342016 
L 407.70437 190.958182 
L 408.16039 190.93619 
L 408.61641 189.244547 
L 409.072429 188.590721 
L 409.528449 185.968454 
L 409.984469 182.297452 
L 410.440488 184.428614 
L 410.896508 185.182722 
L 411.352528 185.356014 
L 411.808547 186.995852 
L 412.264567 194.496446 
L 413.176606 199.866122 
L 413.632626 199.06319 
L 414.088646 197.601483 
L 415.000685 195.667966 
L 415.456705 198.714674 
L 415.912724 203.602584 
L 416.368744 200.927238 
L 416.824764 205.861745 
L 417.280783 199.315273 
L 417.736803 198.34013 
L 418.192822 197.956407 
L 418.648842 196.656336 
L 419.104862 198.198708 
L 419.560881 195.787483 
L 420.016901 196.232899 
L 420.472921 199.031258 
L 420.92894 197.548218 
L 421.38496 188.452711 
L 421.84098 192.179063 
L 422.296999 192.93966 
L 422.753019 188.49234 
L 423.209039 190.135885 
L 424.121078 181.974632 
L 424.577098 181.922482 
L 425.033117 182.501654 
L 425.489137 179.361529 
L 425.945157 181.957909 
L 426.401176 179.416858 
L 427.313216 170.62247 
L 427.769235 167.279053 
L 428.225255 170.545304 
L 428.681275 168.281237 
L 429.137294 168.513216 
L 429.593314 172.044325 
L 430.049334 172.512265 
L 430.505353 177.299493 
L 430.961373 177.897544 
L 431.417393 178.30845 
L 431.873412 176.511121 
L 432.329432 172.952904 
L 433.241471 182.066279 
L 433.697491 188.900052 
L 434.15351 186.099728 
L 435.06555 190.270638 
L 435.521569 190.418541 
L 435.977589 190.43436 
L 436.433609 188.149487 
L 436.889628 195.363818 
L 437.345648 196.022909 
L 437.801668 200.139012 
L 438.257687 194.489031 
L 438.713707 192.714769 
L 439.169727 191.539352 
L 439.625746 184.285544 
L 440.081766 184.773809 
L 440.537786 181.780922 
L 440.993805 186.660675 
L 441.449825 185.98805 
L 441.905845 178.391725 
L 442.361864 176.728593 
L 442.817884 179.23945 
L 443.273904 182.4975 
L 443.729923 187.753504 
L 444.185943 186.271955 
L 444.641963 183.396431 
L 445.097982 182.971954 
L 445.554002 185.681486 
L 446.010021 184.873914 
L 446.466041 187.167325 
L 446.922061 183.090622 
L 447.37808 184.462739 
L 447.8341 187.41079 
L 448.29012 189.232943 
L 448.746139 187.941205 
L 449.202159 192.050491 
L 449.658179 189.822914 
L 450.114198 190.728804 
L 450.570218 190.455561 
L 451.026238 190.889588 
L 451.482257 183.328653 
L 451.938277 183.894724 
L 452.394297 181.072053 
L 452.850316 172.879374 
L 453.306336 171.457553 
L 453.762356 165.287416 
L 454.218375 164.961961 
L 454.674395 162.301321 
L 455.130415 164.26734 
L 456.042454 171.216775 
L 456.498474 171.297442 
L 456.954493 170.343204 
L 457.866533 178.676246 
L 458.322552 184.943671 
L 458.778572 177.841422 
L 459.234592 177.482109 
L 459.690611 184.646337 
L 460.146631 184.676697 
L 460.60265 185.20859 
L 461.05867 189.807728 
L 461.51469 185.936151 
L 461.970709 187.463535 
L 462.426729 187.325634 
L 462.882749 188.275109 
L 463.338768 188.120203 
L 463.794788 184.722102 
L 464.250808 182.699435 
L 464.706827 184.208533 
L 465.618867 173.803563 
L 466.530906 182.412092 
L 466.986926 184.453105 
L 467.442945 179.360011 
L 467.898965 179.970191 
L 468.354985 181.88015 
L 468.811004 181.993674 
L 469.267024 182.74221 
L 469.723044 183.263108 
L 470.179063 186.835215 
L 470.635083 189.484008 
L 471.091103 190.376205 
L 472.003142 181.457148 
L 472.459162 178.399167 
L 472.915181 177.185822 
L 473.371201 185.908308 
L 473.827221 179.962684 
L 474.28324 176.229028 
L 474.73926 177.462388 
L 475.195279 179.627696 
L 475.651299 179.006299 
L 476.107319 178.856988 
L 476.563338 181.170204 
L 477.019358 176.180983 
L 477.475378 178.368566 
L 477.931397 177.534109 
L 478.387417 181.555766 
L 478.843437 182.408317 
L 479.299456 178.794036 
L 479.755476 178.651873 
L 480.211496 180.611899 
L 480.667515 187.117928 
L 481.579555 189.441069 
L 482.035574 186.992024 
L 482.491594 182.57641 
L 482.947614 186.645887 
L 483.403633 183.968602 
L 483.859653 187.203744 
L 484.315673 183.365474 
L 484.771692 184.824174 
L 485.227712 182.963113 
L 485.683732 177.790721 
L 486.139751 183.480212 
L 486.595771 182.98977 
L 487.051791 177.721983 
L 487.50781 175.120068 
L 487.96383 167.886801 
L 488.41985 169.544046 
L 488.875869 165.919932 
L 489.331889 163.520666 
L 489.787908 163.351724 
L 490.243928 166.732415 
L 490.699948 165.985249 
L 491.155967 159.527363 
L 491.611987 155.353324 
L 492.068007 153.722235 
L 492.524026 155.371696 
L 492.980046 160.072153 
L 493.436066 160.736823 
L 493.892085 163.77243 
L 494.348105 164.961008 
L 495.716164 153.556293 
L 496.172184 151.739063 
L 496.628203 153.508344 
L 497.084223 152.042288 
L 497.540243 157.808715 
L 497.996262 154.121699 
L 498.452282 157.793008 
L 498.908302 153.337594 
L 499.364321 155.453347 
L 499.820341 147.995753 
L 500.276361 148.876919 
L 500.73238 149.263296 
L 501.1884 146.717223 
L 501.64442 151.198451 
L 502.100439 150.468426 
L 502.556459 153.825618 
L 503.012479 151.565242 
L 503.468498 149.896281 
L 503.924518 149.147119 
L 504.380537 145.018828 
L 504.836557 144.539612 
L 505.292577 151.869143 
L 505.748596 154.384545 
L 506.204616 157.589115 
L 506.660636 155.373705 
L 507.116655 156.049496 
L 507.572675 158.196923 
L 508.028695 160.913488 
L 508.484714 162.054336 
L 508.940734 160.645581 
L 509.396754 157.675029 
L 509.852773 157.549775 
L 510.308793 159.028791 
L 510.764813 158.897709 
L 511.220832 162.942236 
L 511.676852 164.471491 
L 512.132872 159.700568 
L 512.588891 156.119889 
L 513.044911 148.65111 
L 513.500931 151.099674 
L 513.95695 142.416036 
L 514.41297 144.10869 
L 514.86899 146.289925 
L 515.325009 145.298087 
L 515.781029 143.657354 
L 516.237049 143.008678 
L 516.693068 143.267743 
L 516.693068 143.267743 
" style="fill:none;stroke:#800080;stroke-linecap:round;stroke-width:4;"/>
   </g>
   <g id="patch_3">
    <path d="M 38.35125 279 
L 38.35125 7.2 
" style="fill:none;stroke:#cccccc;stroke-linecap:square;stroke-linejoin:miter;"/>
   </g>
   <g id="patch_4">
    <path d="M 539.47125 279 
L 539.47125 7.2 
" style="fill:none;stroke:#cccccc;stroke-linecap:square;stroke-linejoin:miter;"/>
   </g>
   <g id="patch_5">
    <path d="M 38.35125 279 
L 539.47125 279 
" style="fill:none;stroke:#cccccc;stroke-linecap:square;stroke-linejoin:miter;"/>
   </g>
   <g id="patch_6">
    <path d="M 38.35125 7.2 
L 539.47125 7.2 
" style="fill:none;stroke:#cccccc;stroke-linecap:square;stroke-linejoin:miter;"/>
   </g>
   <g id="legend_1">
    <g id="line2d_32">
     <path d="M 50.05125 23.655156 
L 76.05125 23.655156 
" style="fill:none;stroke:#ffa500;stroke-linecap:round;stroke-width:4;"/>
    </g>
    <g id="line2d_33"/>
    <g id="text_15">
     <!-- one -->
     <defs>
      <path d="M 3.328125 25.921875 
Q 3.328125 40.328125 11.328125 47.265625 
Q 18.015625 53.03125 27.640625 53.03125 
Q 38.328125 53.03125 45.109375 46.015625 
Q 51.90625 39.015625 51.90625 26.65625 
Q 51.90625 16.65625 48.90625 10.90625 
Q 45.90625 5.171875 40.15625 2 
Q 34.421875 -1.171875 27.640625 -1.171875 
Q 16.75 -1.171875 10.03125 5.8125 
Q 3.328125 12.796875 3.328125 25.921875 
z
M 12.359375 25.921875 
Q 12.359375 15.96875 16.703125 11.015625 
Q 21.046875 6.0625 27.640625 6.0625 
Q 34.1875 6.0625 38.53125 11.03125 
Q 42.875 16.015625 42.875 26.21875 
Q 42.875 35.84375 38.5 40.796875 
Q 34.125 45.75 27.640625 45.75 
Q 21.046875 45.75 16.703125 40.8125 
Q 12.359375 35.890625 12.359375 25.921875 
z
" id="ArialMT-111"/>
      <path d="M 6.59375 0 
L 6.59375 51.859375 
L 14.5 51.859375 
L 14.5 44.484375 
Q 20.21875 53.03125 31 53.03125 
Q 35.6875 53.03125 39.625 51.34375 
Q 43.5625 49.65625 45.515625 46.921875 
Q 47.46875 44.1875 48.25 40.4375 
Q 48.734375 37.984375 48.734375 31.890625 
L 48.734375 0 
L 39.9375 0 
L 39.9375 31.546875 
Q 39.9375 36.921875 38.90625 39.578125 
Q 37.890625 42.234375 35.28125 43.8125 
Q 32.671875 45.40625 29.15625 45.40625 
Q 23.53125 45.40625 19.453125 41.84375 
Q 15.375 38.28125 15.375 28.328125 
L 15.375 0 
z
" id="ArialMT-110"/>
      <path d="M 42.09375 16.703125 
L 51.171875 15.578125 
Q 49.03125 7.625 43.21875 3.21875 
Q 37.40625 -1.171875 28.375 -1.171875 
Q 17 -1.171875 10.328125 5.828125 
Q 3.65625 12.84375 3.65625 25.484375 
Q 3.65625 38.578125 10.390625 45.796875 
Q 17.140625 53.03125 27.875 53.03125 
Q 38.28125 53.03125 44.875 45.953125 
Q 51.46875 38.875 51.46875 26.03125 
Q 51.46875 25.25 51.421875 23.6875 
L 12.75 23.6875 
Q 13.234375 15.140625 17.578125 10.59375 
Q 21.921875 6.0625 28.421875 6.0625 
Q 33.25 6.0625 36.671875 8.59375 
Q 40.09375 11.140625 42.09375 16.703125 
z
M 13.234375 30.90625 
L 42.1875 30.90625 
Q 41.609375 37.453125 38.875 40.71875 
Q 34.671875 45.796875 27.984375 45.796875 
Q 21.921875 45.796875 17.796875 41.75 
Q 13.671875 37.703125 13.234375 30.90625 
z
" id="ArialMT-101"/>
     </defs>
     <g style="fill:#262626;" transform="translate(86.45125 28.205156)scale(0.13 -0.13)">
      <use xlink:href="#ArialMT-111"/>
      <use x="55.615234" xlink:href="#ArialMT-110"/>
      <use x="111.230469" xlink:href="#ArialMT-101"/>
     </g>
    </g>
    <g id="line2d_34">
     <path d="M 50.05125 42.044063 
L 76.05125 42.044063 
" style="fill:none;stroke:#ff00ff;stroke-linecap:round;stroke-width:4;"/>
    </g>
    <g id="line2d_35"/>
    <g id="text_16">
     <!-- two -->
     <defs>
      <path d="M 25.78125 7.859375 
L 27.046875 0.09375 
Q 23.34375 -0.6875 20.40625 -0.6875 
Q 15.625 -0.6875 12.984375 0.828125 
Q 10.359375 2.34375 9.28125 4.8125 
Q 8.203125 7.28125 8.203125 15.1875 
L 8.203125 45.015625 
L 1.765625 45.015625 
L 1.765625 51.859375 
L 8.203125 51.859375 
L 8.203125 64.703125 
L 16.9375 69.96875 
L 16.9375 51.859375 
L 25.78125 51.859375 
L 25.78125 45.015625 
L 16.9375 45.015625 
L 16.9375 14.703125 
Q 16.9375 10.9375 17.40625 9.859375 
Q 17.875 8.796875 18.921875 8.15625 
Q 19.96875 7.515625 21.921875 7.515625 
Q 23.390625 7.515625 25.78125 7.859375 
z
" id="ArialMT-116"/>
      <path d="M 16.15625 0 
L 0.296875 51.859375 
L 9.375 51.859375 
L 17.625 21.921875 
L 20.703125 10.796875 
Q 20.90625 11.625 23.390625 21.484375 
L 31.640625 51.859375 
L 40.671875 51.859375 
L 48.4375 21.78125 
L 51.03125 11.859375 
L 54 21.875 
L 62.890625 51.859375 
L 71.4375 51.859375 
L 55.21875 0 
L 46.09375 0 
L 37.84375 31.0625 
L 35.84375 39.890625 
L 25.34375 0 
z
" id="ArialMT-119"/>
     </defs>
     <g style="fill:#262626;" transform="translate(86.45125 46.594063)scale(0.13 -0.13)">
      <use xlink:href="#ArialMT-116"/>
      <use x="27.783203" xlink:href="#ArialMT-119"/>
      <use x="100" xlink:href="#ArialMT-111"/>
     </g>
    </g>
    <g id="line2d_36">
     <path d="M 50.05125 60.432969 
L 76.05125 60.432969 
" style="fill:none;stroke:#800080;stroke-linecap:round;stroke-width:4;"/>
    </g>
    <g id="line2d_37"/>
    <g id="text_17">
     <!-- three -->
     <defs>
      <path d="M 6.59375 0 
L 6.59375 71.578125 
L 15.375 71.578125 
L 15.375 45.90625 
Q 21.53125 53.03125 30.90625 53.03125 
Q 36.671875 53.03125 40.921875 50.75 
Q 45.171875 48.484375 47 44.484375 
Q 48.828125 40.484375 48.828125 32.859375 
L 48.828125 0 
L 40.046875 0 
L 40.046875 32.859375 
Q 40.046875 39.453125 37.1875 42.453125 
Q 34.328125 45.453125 29.109375 45.453125 
Q 25.203125 45.453125 21.75 43.421875 
Q 18.3125 41.40625 16.84375 37.9375 
Q 15.375 34.46875 15.375 28.375 
L 15.375 0 
z
" id="ArialMT-104"/>
      <path d="M 6.5 0 
L 6.5 51.859375 
L 14.40625 51.859375 
L 14.40625 44 
Q 17.4375 49.515625 20 51.265625 
Q 22.5625 53.03125 25.640625 53.03125 
Q 30.078125 53.03125 34.671875 50.203125 
L 31.640625 42.046875 
Q 28.421875 43.953125 25.203125 43.953125 
Q 22.3125 43.953125 20.015625 42.21875 
Q 17.71875 40.484375 16.75 37.40625 
Q 15.28125 32.71875 15.28125 27.15625 
L 15.28125 0 
z
" id="ArialMT-114"/>
     </defs>
     <g style="fill:#262626;" transform="translate(86.45125 64.982969)scale(0.13 -0.13)">
      <use xlink:href="#ArialMT-116"/>
      <use x="27.783203" xlink:href="#ArialMT-104"/>
      <use x="83.398438" xlink:href="#ArialMT-114"/>
      <use x="116.699219" xlink:href="#ArialMT-101"/>
      <use x="172.314453" xlink:href="#ArialMT-101"/>
     </g>
    </g>
   </g>
  </g>
 </g>
 <defs>
  <clipPath id="pc515d94df9">
   <rect height="271.8" width="501.12" x="38.35125" y="7.2"/>
  </clipPath>
 </defs>
</svg>
