<?xml version="1.0" encoding="utf-8" standalone="no"?>
<!DOCTYPE svg PUBLIC "-//W3C//DTD SVG 1.1//EN"
  "http://www.w3.org/Graphics/SVG/1.1/DTD/svg11.dtd">
<!-- Created with matplotlib (https://matplotlib.org/) -->
<svg height="343.133716pt" version="1.1" viewBox="0 0 546.67125 343.133716" width="546.67125pt" xmlns="http://www.w3.org/2000/svg" xmlns:xlink="http://www.w3.org/1999/xlink">
 <defs>
  <style type="text/css">
*{stroke-linecap:butt;stroke-linejoin:round;}
  </style>
 </defs>
 <g id="figure_1">
  <g id="patch_1">
   <path d="M 0 343.133716 
L 546.67125 343.133716 
L 546.67125 0 
L 0 0 
z
" style="fill:#ffffff;"/>
  </g>
  <g id="axes_1">
   <g id="patch_2">
    <path d="M 38.35125 295.48275 
L 539.47125 295.48275 
L 539.47125 23.68275 
L 38.35125 23.68275 
z
" style="fill:#ffffff;"/>
   </g>
   <g id="matplotlib.axis_1">
    <g id="xtick_1">
     <g id="line2d_1">
      <path clip-path="url(#p23eba2462b)" d="M 61.129432 295.48275 
L 61.129432 23.68275 
" style="fill:none;stroke:#cccccc;stroke-linecap:round;"/>
     </g>
     <g id="line2d_2"/>
     <g id="text_1">
      <!-- one -->
      <defs>
       <path d="M 3.328125 25.921875 
Q 3.328125 40.328125 11.328125 47.265625 
Q 18.015625 53.03125 27.640625 53.03125 
Q 38.328125 53.03125 45.109375 46.015625 
Q 51.90625 39.015625 51.90625 26.65625 
Q 51.90625 16.65625 48.90625 10.90625 
Q 45.90625 5.171875 40.15625 2 
Q 34.421875 -1.171875 27.640625 -1.171875 
Q 16.75 -1.171875 10.03125 5.8125 
Q 3.328125 12.796875 3.328125 25.921875 
z
M 12.359375 25.921875 
Q 12.359375 15.96875 16.703125 11.015625 
Q 21.046875 6.0625 27.640625 6.0625 
Q 34.1875 6.0625 38.53125 11.03125 
Q 42.875 16.015625 42.875 26.21875 
Q 42.875 35.84375 38.5 40.796875 
Q 34.125 45.75 27.640625 45.75 
Q 21.046875 45.75 16.703125 40.8125 
Q 12.359375 35.890625 12.359375 25.921875 
z
" id="ArialMT-111"/>
       <path d="M 6.59375 0 
L 6.59375 51.859375 
L 14.5 51.859375 
L 14.5 44.484375 
Q 20.21875 53.03125 31 53.03125 
Q 35.6875 53.03125 39.625 51.34375 
Q 43.5625 49.65625 45.515625 46.921875 
Q 47.46875 44.1875 48.25 40.4375 
Q 48.734375 37.984375 48.734375 31.890625 
L 48.734375 0 
L 39.9375 0 
L 39.9375 31.546875 
Q 39.9375 36.921875 38.90625 39.578125 
Q 37.890625 42.234375 35.28125 43.8125 
Q 32.671875 45.40625 29.15625 45.40625 
Q 23.53125 45.40625 19.453125 41.84375 
Q 15.375 38.28125 15.375 28.328125 
L 15.375 0 
z
" id="ArialMT-110"/>
       <path d="M 42.09375 16.703125 
L 51.171875 15.578125 
Q 49.03125 7.625 43.21875 3.21875 
Q 37.40625 -1.171875 28.375 -1.171875 
Q 17 -1.171875 10.328125 5.828125 
Q 3.65625 12.84375 3.65625 25.484375 
Q 3.65625 38.578125 10.390625 45.796875 
Q 17.140625 53.03125 27.875 53.03125 
Q 38.28125 53.03125 44.875 45.953125 
Q 51.46875 38.875 51.46875 26.03125 
Q 51.46875 25.25 51.421875 23.6875 
L 12.75 23.6875 
Q 13.234375 15.140625 17.578125 10.59375 
Q 21.921875 6.0625 28.421875 6.0625 
Q 33.25 6.0625 36.671875 8.59375 
Q 40.09375 11.140625 42.09375 16.703125 
z
M 13.234375 30.90625 
L 42.1875 30.90625 
Q 41.609375 37.453125 38.875 40.71875 
Q 34.671875 45.796875 27.984375 45.796875 
Q 21.921875 45.796875 17.796875 41.75 
Q 13.671875 37.703125 13.234375 30.90625 
z
" id="ArialMT-101"/>
      </defs>
      <g style="fill:#262626;" transform="translate(56.188666 316.694781)rotate(-30)scale(0.0833 -0.0833)">
       <use xlink:href="#ArialMT-111"/>
       <use x="55.615234" xlink:href="#ArialMT-110"/>
       <use x="111.230469" xlink:href="#ArialMT-101"/>
      </g>
     </g>
    </g>
    <g id="xtick_2">
     <g id="line2d_3">
      <path clip-path="url(#p23eba2462b)" d="M 175.134346 295.48275 
L 175.134346 23.68275 
" style="fill:none;stroke:#cccccc;stroke-linecap:round;"/>
     </g>
     <g id="line2d_4"/>
     <g id="text_2">
      <!-- two -->
      <defs>
       <path d="M 25.78125 7.859375 
L 27.046875 0.09375 
Q 23.34375 -0.6875 20.40625 -0.6875 
Q 15.625 -0.6875 12.984375 0.828125 
Q 10.359375 2.34375 9.28125 4.8125 
Q 8.203125 7.28125 8.203125 15.1875 
L 8.203125 45.015625 
L 1.765625 45.015625 
L 1.765625 51.859375 
L 8.203125 51.859375 
L 8.203125 64.703125 
L 16.9375 69.96875 
L 16.9375 51.859375 
L 25.78125 51.859375 
L 25.78125 45.015625 
L 16.9375 45.015625 
L 16.9375 14.703125 
Q 16.9375 10.9375 17.40625 9.859375 
Q 17.875 8.796875 18.921875 8.15625 
Q 19.96875 7.515625 21.921875 7.515625 
Q 23.390625 7.515625 25.78125 7.859375 
z
" id="ArialMT-116"/>
       <path d="M 16.15625 0 
L 0.296875 51.859375 
L 9.375 51.859375 
L 17.625 21.921875 
L 20.703125 10.796875 
Q 20.90625 11.625 23.390625 21.484375 
L 31.640625 51.859375 
L 40.671875 51.859375 
L 48.4375 21.78125 
L 51.03125 11.859375 
L 54 21.875 
L 62.890625 51.859375 
L 71.4375 51.859375 
L 55.21875 0 
L 46.09375 0 
L 37.84375 31.0625 
L 35.84375 39.890625 
L 25.34375 0 
z
" id="ArialMT-119"/>
      </defs>
      <g style="fill:#262626;" transform="translate(170.59824 316.22752)rotate(-30)scale(0.0833 -0.0833)">
       <use xlink:href="#ArialMT-116"/>
       <use x="27.783203" xlink:href="#ArialMT-119"/>
       <use x="100" xlink:href="#ArialMT-111"/>
      </g>
     </g>
    </g>
    <g id="xtick_3">
     <g id="line2d_5">
      <path clip-path="url(#p23eba2462b)" d="M 289.13926 295.48275 
L 289.13926 23.68275 
" style="fill:none;stroke:#cccccc;stroke-linecap:round;"/>
     </g>
     <g id="line2d_6"/>
     <g id="text_3">
      <!-- three -->
      <defs>
       <path d="M 6.59375 0 
L 6.59375 71.578125 
L 15.375 71.578125 
L 15.375 45.90625 
Q 21.53125 53.03125 30.90625 53.03125 
Q 36.671875 53.03125 40.921875 50.75 
Q 45.171875 48.484375 47 44.484375 
Q 48.828125 40.484375 48.828125 32.859375 
L 48.828125 0 
L 40.046875 0 
L 40.046875 32.859375 
Q 40.046875 39.453125 37.1875 42.453125 
Q 34.328125 45.453125 29.109375 45.453125 
Q 25.203125 45.453125 21.75 43.421875 
Q 18.3125 41.40625 16.84375 37.9375 
Q 15.375 34.46875 15.375 28.375 
L 15.375 0 
z
" id="ArialMT-104"/>
       <path d="M 6.5 0 
L 6.5 51.859375 
L 14.40625 51.859375 
L 14.40625 44 
Q 17.4375 49.515625 20 51.265625 
Q 22.5625 53.03125 25.640625 53.03125 
Q 30.078125 53.03125 34.671875 50.203125 
L 31.640625 42.046875 
Q 28.421875 43.953125 25.203125 43.953125 
Q 22.3125 43.953125 20.015625 42.21875 
Q 17.71875 40.484375 16.75 37.40625 
Q 15.28125 32.71875 15.28125 27.15625 
L 15.28125 0 
z
" id="ArialMT-114"/>
      </defs>
      <g style="fill:#262626;" transform="translate(281.995409 319.238685)rotate(-30)scale(0.0833 -0.0833)">
       <use xlink:href="#ArialMT-116"/>
       <use x="27.783203" xlink:href="#ArialMT-104"/>
       <use x="83.398438" xlink:href="#ArialMT-114"/>
       <use x="116.699219" xlink:href="#ArialMT-101"/>
       <use x="172.314453" xlink:href="#ArialMT-101"/>
      </g>
     </g>
    </g>
    <g id="xtick_4">
     <g id="line2d_7">
      <path clip-path="url(#p23eba2462b)" d="M 403.144174 295.48275 
L 403.144174 23.68275 
" style="fill:none;stroke:#cccccc;stroke-linecap:round;"/>
     </g>
     <g id="line2d_8"/>
     <g id="text_4">
      <!-- four -->
      <defs>
       <path d="M 8.6875 0 
L 8.6875 45.015625 
L 0.921875 45.015625 
L 0.921875 51.859375 
L 8.6875 51.859375 
L 8.6875 57.375 
Q 8.6875 62.59375 9.625 65.140625 
Q 10.890625 68.5625 14.078125 70.671875 
Q 17.28125 72.796875 23.046875 72.796875 
Q 26.765625 72.796875 31.25 71.921875 
L 29.9375 64.265625 
Q 27.203125 64.75 24.75 64.75 
Q 20.75 64.75 19.09375 63.03125 
Q 17.4375 61.328125 17.4375 56.640625 
L 17.4375 51.859375 
L 27.546875 51.859375 
L 27.546875 45.015625 
L 17.4375 45.015625 
L 17.4375 0 
z
" id="ArialMT-102"/>
       <path d="M 40.578125 0 
L 40.578125 7.625 
Q 34.515625 -1.171875 24.125 -1.171875 
Q 19.53125 -1.171875 15.546875 0.578125 
Q 11.578125 2.34375 9.640625 5 
Q 7.71875 7.671875 6.9375 11.53125 
Q 6.390625 14.109375 6.390625 19.734375 
L 6.390625 51.859375 
L 15.1875 51.859375 
L 15.1875 23.09375 
Q 15.1875 16.21875 15.71875 13.8125 
Q 16.546875 10.359375 19.234375 8.375 
Q 21.921875 6.390625 25.875 6.390625 
Q 29.828125 6.390625 33.296875 8.421875 
Q 36.765625 10.453125 38.203125 13.9375 
Q 39.65625 17.4375 39.65625 24.078125 
L 39.65625 51.859375 
L 48.4375 51.859375 
L 48.4375 0 
z
" id="ArialMT-117"/>
      </defs>
      <g style="fill:#262626;" transform="translate(398.00615 316.922555)rotate(-30)scale(0.0833 -0.0833)">
       <use xlink:href="#ArialMT-102"/>
       <use x="27.783203" xlink:href="#ArialMT-111"/>
       <use x="83.398438" xlink:href="#ArialMT-117"/>
       <use x="139.013672" xlink:href="#ArialMT-114"/>
      </g>
     </g>
    </g>
    <g id="xtick_5">
     <g id="line2d_9">
      <path clip-path="url(#p23eba2462b)" d="M 517.149088 295.48275 
L 517.149088 23.68275 
" style="fill:none;stroke:#cccccc;stroke-linecap:round;"/>
     </g>
     <g id="line2d_10"/>
     <g id="text_5">
      <!-- five -->
      <defs>
       <path d="M 6.640625 61.46875 
L 6.640625 71.578125 
L 15.4375 71.578125 
L 15.4375 61.46875 
z
M 6.640625 0 
L 6.640625 51.859375 
L 15.4375 51.859375 
L 15.4375 0 
z
" id="ArialMT-105"/>
       <path d="M 21 0 
L 1.265625 51.859375 
L 10.546875 51.859375 
L 21.6875 20.796875 
Q 23.484375 15.765625 25 10.359375 
Q 26.171875 14.453125 28.265625 20.21875 
L 39.796875 51.859375 
L 48.828125 51.859375 
L 29.203125 0 
z
" id="ArialMT-118"/>
      </defs>
      <g style="fill:#262626;" transform="translate(512.612982 316.22752)rotate(-30)scale(0.0833 -0.0833)">
       <use xlink:href="#ArialMT-102"/>
       <use x="27.783203" xlink:href="#ArialMT-105"/>
       <use x="50" xlink:href="#ArialMT-118"/>
       <use x="100" xlink:href="#ArialMT-101"/>
      </g>
     </g>
    </g>
    <g id="text_6">
     <!-- Stages -->
     <defs>
      <path d="M 4.5 23 
L 13.421875 23.78125 
Q 14.0625 18.40625 16.375 14.96875 
Q 18.703125 11.53125 23.578125 9.40625 
Q 28.46875 7.28125 34.578125 7.28125 
Q 39.984375 7.28125 44.140625 8.890625 
Q 48.296875 10.5 50.3125 13.296875 
Q 52.34375 16.109375 52.34375 19.4375 
Q 52.34375 22.796875 50.390625 25.3125 
Q 48.4375 27.828125 43.953125 29.546875 
Q 41.0625 30.671875 31.203125 33.03125 
Q 21.34375 35.40625 17.390625 37.5 
Q 12.25 40.1875 9.734375 44.15625 
Q 7.234375 48.140625 7.234375 53.078125 
Q 7.234375 58.5 10.296875 63.203125 
Q 13.375 67.921875 19.28125 70.359375 
Q 25.203125 72.796875 32.421875 72.796875 
Q 40.375 72.796875 46.453125 70.234375 
Q 52.546875 67.671875 55.8125 62.6875 
Q 59.078125 57.71875 59.328125 51.421875 
L 50.25 50.734375 
Q 49.515625 57.515625 45.28125 60.984375 
Q 41.0625 64.453125 32.8125 64.453125 
Q 24.21875 64.453125 20.28125 61.296875 
Q 16.359375 58.15625 16.359375 53.71875 
Q 16.359375 49.859375 19.140625 47.359375 
Q 21.875 44.875 33.421875 42.265625 
Q 44.96875 39.65625 49.265625 37.703125 
Q 55.515625 34.8125 58.484375 30.390625 
Q 61.46875 25.984375 61.46875 20.21875 
Q 61.46875 14.5 58.203125 9.4375 
Q 54.9375 4.390625 48.796875 1.578125 
Q 42.671875 -1.21875 35.015625 -1.21875 
Q 25.296875 -1.21875 18.71875 1.609375 
Q 12.15625 4.4375 8.421875 10.125 
Q 4.6875 15.828125 4.5 23 
z
" id="ArialMT-83"/>
      <path d="M 40.4375 6.390625 
Q 35.546875 2.25 31.03125 0.53125 
Q 26.515625 -1.171875 21.34375 -1.171875 
Q 12.796875 -1.171875 8.203125 3 
Q 3.609375 7.171875 3.609375 13.671875 
Q 3.609375 17.484375 5.34375 20.625 
Q 7.078125 23.78125 9.890625 25.6875 
Q 12.703125 27.59375 16.21875 28.5625 
Q 18.796875 29.25 24.03125 29.890625 
Q 34.671875 31.15625 39.703125 32.90625 
Q 39.75 34.71875 39.75 35.203125 
Q 39.75 40.578125 37.25 42.78125 
Q 33.890625 45.75 27.25 45.75 
Q 21.046875 45.75 18.09375 43.578125 
Q 15.140625 41.40625 13.71875 35.890625 
L 5.125 37.0625 
Q 6.296875 42.578125 8.984375 45.96875 
Q 11.671875 49.359375 16.75 51.1875 
Q 21.828125 53.03125 28.515625 53.03125 
Q 35.15625 53.03125 39.296875 51.46875 
Q 43.453125 49.90625 45.40625 47.53125 
Q 47.359375 45.171875 48.140625 41.546875 
Q 48.578125 39.3125 48.578125 33.453125 
L 48.578125 21.734375 
Q 48.578125 9.46875 49.140625 6.21875 
Q 49.703125 2.984375 51.375 0 
L 42.1875 0 
Q 40.828125 2.734375 40.4375 6.390625 
z
M 39.703125 26.03125 
Q 34.90625 24.078125 25.34375 22.703125 
Q 19.921875 21.921875 17.671875 20.9375 
Q 15.4375 19.96875 14.203125 18.09375 
Q 12.984375 16.21875 12.984375 13.921875 
Q 12.984375 10.40625 15.640625 8.0625 
Q 18.3125 5.71875 23.4375 5.71875 
Q 28.515625 5.71875 32.46875 7.9375 
Q 36.421875 10.15625 38.28125 14.015625 
Q 39.703125 17 39.703125 22.796875 
z
" id="ArialMT-97"/>
      <path d="M 4.984375 -4.296875 
L 13.53125 -5.5625 
Q 14.0625 -9.515625 16.5 -11.328125 
Q 19.78125 -13.765625 25.4375 -13.765625 
Q 31.546875 -13.765625 34.859375 -11.328125 
Q 38.1875 -8.890625 39.359375 -4.5 
Q 40.046875 -1.8125 39.984375 6.78125 
Q 34.234375 0 25.640625 0 
Q 14.9375 0 9.078125 7.71875 
Q 3.21875 15.4375 3.21875 26.21875 
Q 3.21875 33.640625 5.90625 39.90625 
Q 8.59375 46.1875 13.6875 49.609375 
Q 18.796875 53.03125 25.6875 53.03125 
Q 34.859375 53.03125 40.828125 45.609375 
L 40.828125 51.859375 
L 48.921875 51.859375 
L 48.921875 7.03125 
Q 48.921875 -5.078125 46.453125 -10.125 
Q 44 -15.1875 38.640625 -18.109375 
Q 33.296875 -21.046875 25.484375 -21.046875 
Q 16.21875 -21.046875 10.5 -16.875 
Q 4.78125 -12.703125 4.984375 -4.296875 
z
M 12.25 26.859375 
Q 12.25 16.65625 16.296875 11.96875 
Q 20.359375 7.28125 26.46875 7.28125 
Q 32.515625 7.28125 36.609375 11.9375 
Q 40.71875 16.609375 40.71875 26.5625 
Q 40.71875 36.078125 36.5 40.90625 
Q 32.28125 45.75 26.3125 45.75 
Q 20.453125 45.75 16.34375 40.984375 
Q 12.25 36.234375 12.25 26.859375 
z
" id="ArialMT-103"/>
      <path d="M 3.078125 15.484375 
L 11.765625 16.84375 
Q 12.5 11.625 15.84375 8.84375 
Q 19.1875 6.0625 25.203125 6.0625 
Q 31.25 6.0625 34.171875 8.515625 
Q 37.109375 10.984375 37.109375 14.3125 
Q 37.109375 17.28125 34.515625 19 
Q 32.71875 20.171875 25.53125 21.96875 
Q 15.875 24.421875 12.140625 26.203125 
Q 8.40625 27.984375 6.46875 31.125 
Q 4.546875 34.28125 4.546875 38.09375 
Q 4.546875 41.546875 6.125 44.5 
Q 7.71875 47.46875 10.453125 49.421875 
Q 12.5 50.921875 16.03125 51.96875 
Q 19.578125 53.03125 23.640625 53.03125 
Q 29.734375 53.03125 34.34375 51.265625 
Q 38.96875 49.515625 41.15625 46.5 
Q 43.359375 43.5 44.1875 38.484375 
L 35.59375 37.3125 
Q 35.015625 41.3125 32.203125 43.546875 
Q 29.390625 45.796875 24.265625 45.796875 
Q 18.21875 45.796875 15.625 43.796875 
Q 13.03125 41.796875 13.03125 39.109375 
Q 13.03125 37.40625 14.109375 36.03125 
Q 15.1875 34.625 17.484375 33.6875 
Q 18.796875 33.203125 25.25 31.453125 
Q 34.578125 28.953125 38.25 27.359375 
Q 41.9375 25.78125 44.03125 22.75 
Q 46.140625 19.734375 46.140625 15.234375 
Q 46.140625 10.84375 43.578125 6.953125 
Q 41.015625 3.078125 36.171875 0.953125 
Q 31.34375 -1.171875 25.25 -1.171875 
Q 15.140625 -1.171875 9.84375 3.03125 
Q 4.546875 7.234375 3.078125 15.484375 
z
" id="ArialMT-115"/>
     </defs>
     <g style="fill:#262626;" transform="translate(270.2325 333.408091)scale(0.12 -0.12)">
      <use xlink:href="#ArialMT-83"/>
      <use x="66.699219" xlink:href="#ArialMT-116"/>
      <use x="94.482422" xlink:href="#ArialMT-97"/>
      <use x="150.097656" xlink:href="#ArialMT-103"/>
      <use x="205.712891" xlink:href="#ArialMT-101"/>
      <use x="261.328125" xlink:href="#ArialMT-115"/>
     </g>
    </g>
   </g>
   <g id="matplotlib.axis_2">
    <g id="ytick_1">
     <g id="line2d_11">
      <path clip-path="url(#p23eba2462b)" d="M 38.35125 286.809361 
L 539.47125 286.809361 
" style="fill:none;stroke:#cccccc;stroke-linecap:round;"/>
     </g>
     <g id="line2d_12"/>
     <g id="text_7">
      <!-- −60 -->
      <defs>
       <path d="M 52.828125 31.203125 
L 5.5625 31.203125 
L 5.5625 39.40625 
L 52.828125 39.40625 
z
" id="ArialMT-8722"/>
       <path d="M 49.75 54.046875 
L 41.015625 53.375 
Q 39.84375 58.546875 37.703125 60.890625 
Q 34.125 64.65625 28.90625 64.65625 
Q 24.703125 64.65625 21.53125 62.3125 
Q 17.390625 59.28125 14.984375 53.46875 
Q 12.59375 47.65625 12.5 36.921875 
Q 15.671875 41.75 20.265625 44.09375 
Q 24.859375 46.4375 29.890625 46.4375 
Q 38.671875 46.4375 44.84375 39.96875 
Q 51.03125 33.5 51.03125 23.25 
Q 51.03125 16.5 48.125 10.71875 
Q 45.21875 4.9375 40.140625 1.859375 
Q 35.0625 -1.21875 28.609375 -1.21875 
Q 17.625 -1.21875 10.6875 6.859375 
Q 3.765625 14.9375 3.765625 33.5 
Q 3.765625 54.25 11.421875 63.671875 
Q 18.109375 71.875 29.4375 71.875 
Q 37.890625 71.875 43.28125 67.140625 
Q 48.6875 62.40625 49.75 54.046875 
z
M 13.875 23.1875 
Q 13.875 18.65625 15.796875 14.5 
Q 17.71875 10.359375 21.1875 8.171875 
Q 24.65625 6 28.46875 6 
Q 34.03125 6 38.03125 10.484375 
Q 42.046875 14.984375 42.046875 22.703125 
Q 42.046875 30.125 38.078125 34.390625 
Q 34.125 38.671875 28.125 38.671875 
Q 22.171875 38.671875 18.015625 34.390625 
Q 13.875 30.125 13.875 23.1875 
z
" id="ArialMT-54"/>
       <path d="M 4.15625 35.296875 
Q 4.15625 48 6.765625 55.734375 
Q 9.375 63.484375 14.515625 67.671875 
Q 19.671875 71.875 27.484375 71.875 
Q 33.25 71.875 37.59375 69.546875 
Q 41.9375 67.234375 44.765625 62.859375 
Q 47.609375 58.5 49.21875 52.21875 
Q 50.828125 45.953125 50.828125 35.296875 
Q 50.828125 22.703125 48.234375 14.96875 
Q 45.65625 7.234375 40.5 3 
Q 35.359375 -1.21875 27.484375 -1.21875 
Q 17.140625 -1.21875 11.234375 6.203125 
Q 4.15625 15.140625 4.15625 35.296875 
z
M 13.1875 35.296875 
Q 13.1875 17.671875 17.3125 11.828125 
Q 21.4375 6 27.484375 6 
Q 33.546875 6 37.671875 11.859375 
Q 41.796875 17.71875 41.796875 35.296875 
Q 41.796875 52.984375 37.671875 58.78125 
Q 33.546875 64.59375 27.390625 64.59375 
Q 21.34375 64.59375 17.71875 59.46875 
Q 13.1875 52.9375 13.1875 35.296875 
z
" id="ArialMT-48"/>
      </defs>
      <g style="fill:#262626;" transform="translate(7.2 291.461939)scale(0.13 -0.13)">
       <use xlink:href="#ArialMT-8722"/>
       <use x="58.398438" xlink:href="#ArialMT-54"/>
       <use x="114.013672" xlink:href="#ArialMT-48"/>
      </g>
     </g>
    </g>
    <g id="ytick_2">
     <g id="line2d_13">
      <path clip-path="url(#p23eba2462b)" d="M 38.35125 248.686843 
L 539.47125 248.686843 
" style="fill:none;stroke:#cccccc;stroke-linecap:round;"/>
     </g>
     <g id="line2d_14"/>
     <g id="text_8">
      <!-- −50 -->
      <defs>
       <path d="M 4.15625 18.75 
L 13.375 19.53125 
Q 14.40625 12.796875 18.140625 9.390625 
Q 21.875 6 27.15625 6 
Q 33.5 6 37.890625 10.78125 
Q 42.28125 15.578125 42.28125 23.484375 
Q 42.28125 31 38.0625 35.34375 
Q 33.84375 39.703125 27 39.703125 
Q 22.75 39.703125 19.328125 37.765625 
Q 15.921875 35.84375 13.96875 32.765625 
L 5.71875 33.84375 
L 12.640625 70.609375 
L 48.25 70.609375 
L 48.25 62.203125 
L 19.671875 62.203125 
L 15.828125 42.96875 
Q 22.265625 47.46875 29.34375 47.46875 
Q 38.71875 47.46875 45.15625 40.96875 
Q 51.609375 34.46875 51.609375 24.265625 
Q 51.609375 14.546875 45.953125 7.46875 
Q 39.0625 -1.21875 27.15625 -1.21875 
Q 17.390625 -1.21875 11.203125 4.25 
Q 5.03125 9.71875 4.15625 18.75 
z
" id="ArialMT-53"/>
      </defs>
      <g style="fill:#262626;" transform="translate(7.2 253.339421)scale(0.13 -0.13)">
       <use xlink:href="#ArialMT-8722"/>
       <use x="58.398438" xlink:href="#ArialMT-53"/>
       <use x="114.013672" xlink:href="#ArialMT-48"/>
      </g>
     </g>
    </g>
    <g id="ytick_3">
     <g id="line2d_15">
      <path clip-path="url(#p23eba2462b)" d="M 38.35125 210.564324 
L 539.47125 210.564324 
" style="fill:none;stroke:#cccccc;stroke-linecap:round;"/>
     </g>
     <g id="line2d_16"/>
     <g id="text_9">
      <!-- −40 -->
      <defs>
       <path d="M 32.328125 0 
L 32.328125 17.140625 
L 1.265625 17.140625 
L 1.265625 25.203125 
L 33.9375 71.578125 
L 41.109375 71.578125 
L 41.109375 25.203125 
L 50.78125 25.203125 
L 50.78125 17.140625 
L 41.109375 17.140625 
L 41.109375 0 
z
M 32.328125 25.203125 
L 32.328125 57.46875 
L 9.90625 25.203125 
z
" id="ArialMT-52"/>
      </defs>
      <g style="fill:#262626;" transform="translate(7.2 215.216903)scale(0.13 -0.13)">
       <use xlink:href="#ArialMT-8722"/>
       <use x="58.398438" xlink:href="#ArialMT-52"/>
       <use x="114.013672" xlink:href="#ArialMT-48"/>
      </g>
     </g>
    </g>
    <g id="ytick_4">
     <g id="line2d_17">
      <path clip-path="url(#p23eba2462b)" d="M 38.35125 172.441806 
L 539.47125 172.441806 
" style="fill:none;stroke:#cccccc;stroke-linecap:round;"/>
     </g>
     <g id="line2d_18"/>
     <g id="text_10">
      <!-- −30 -->
      <defs>
       <path d="M 4.203125 18.890625 
L 12.984375 20.0625 
Q 14.5 12.59375 18.140625 9.296875 
Q 21.78125 6 27 6 
Q 33.203125 6 37.46875 10.296875 
Q 41.75 14.59375 41.75 20.953125 
Q 41.75 27 37.796875 30.921875 
Q 33.84375 34.859375 27.734375 34.859375 
Q 25.25 34.859375 21.53125 33.890625 
L 22.515625 41.609375 
Q 23.390625 41.5 23.921875 41.5 
Q 29.546875 41.5 34.03125 44.421875 
Q 38.53125 47.359375 38.53125 53.46875 
Q 38.53125 58.296875 35.25 61.46875 
Q 31.984375 64.65625 26.8125 64.65625 
Q 21.6875 64.65625 18.265625 61.421875 
Q 14.84375 58.203125 13.875 51.765625 
L 5.078125 53.328125 
Q 6.6875 62.15625 12.390625 67.015625 
Q 18.109375 71.875 26.609375 71.875 
Q 32.46875 71.875 37.390625 69.359375 
Q 42.328125 66.84375 44.9375 62.5 
Q 47.5625 58.15625 47.5625 53.265625 
Q 47.5625 48.640625 45.0625 44.828125 
Q 42.578125 41.015625 37.703125 38.765625 
Q 44.046875 37.3125 47.5625 32.6875 
Q 51.078125 28.078125 51.078125 21.140625 
Q 51.078125 11.765625 44.234375 5.25 
Q 37.40625 -1.265625 26.953125 -1.265625 
Q 17.53125 -1.265625 11.296875 4.34375 
Q 5.078125 9.96875 4.203125 18.890625 
z
" id="ArialMT-51"/>
      </defs>
      <g style="fill:#262626;" transform="translate(7.2 177.094384)scale(0.13 -0.13)">
       <use xlink:href="#ArialMT-8722"/>
       <use x="58.398438" xlink:href="#ArialMT-51"/>
       <use x="114.013672" xlink:href="#ArialMT-48"/>
      </g>
     </g>
    </g>
    <g id="ytick_5">
     <g id="line2d_19">
      <path clip-path="url(#p23eba2462b)" d="M 38.35125 134.319287 
L 539.47125 134.319287 
" style="fill:none;stroke:#cccccc;stroke-linecap:round;"/>
     </g>
     <g id="line2d_20"/>
     <g id="text_11">
      <!-- −20 -->
      <defs>
       <path d="M 50.34375 8.453125 
L 50.34375 0 
L 3.03125 0 
Q 2.9375 3.171875 4.046875 6.109375 
Q 5.859375 10.9375 9.828125 15.625 
Q 13.8125 20.3125 21.34375 26.46875 
Q 33.015625 36.03125 37.109375 41.625 
Q 41.21875 47.21875 41.21875 52.203125 
Q 41.21875 57.421875 37.46875 61 
Q 33.734375 64.59375 27.734375 64.59375 
Q 21.390625 64.59375 17.578125 60.78125 
Q 13.765625 56.984375 13.71875 50.25 
L 4.6875 51.171875 
Q 5.609375 61.28125 11.65625 66.578125 
Q 17.71875 71.875 27.9375 71.875 
Q 38.234375 71.875 44.234375 66.15625 
Q 50.25 60.453125 50.25 52 
Q 50.25 47.703125 48.484375 43.546875 
Q 46.734375 39.40625 42.65625 34.8125 
Q 38.578125 30.21875 29.109375 22.21875 
Q 21.1875 15.578125 18.9375 13.203125 
Q 16.703125 10.84375 15.234375 8.453125 
z
" id="ArialMT-50"/>
      </defs>
      <g style="fill:#262626;" transform="translate(7.2 138.971866)scale(0.13 -0.13)">
       <use xlink:href="#ArialMT-8722"/>
       <use x="58.398438" xlink:href="#ArialMT-50"/>
       <use x="114.013672" xlink:href="#ArialMT-48"/>
      </g>
     </g>
    </g>
    <g id="ytick_6">
     <g id="line2d_21">
      <path clip-path="url(#p23eba2462b)" d="M 38.35125 96.196769 
L 539.47125 96.196769 
" style="fill:none;stroke:#cccccc;stroke-linecap:round;"/>
     </g>
     <g id="line2d_22"/>
     <g id="text_12">
      <!-- −10 -->
      <defs>
       <path d="M 37.25 0 
L 28.46875 0 
L 28.46875 56 
Q 25.296875 52.984375 20.140625 49.953125 
Q 14.984375 46.921875 10.890625 45.40625 
L 10.890625 53.90625 
Q 18.265625 57.375 23.78125 62.296875 
Q 29.296875 67.234375 31.59375 71.875 
L 37.25 71.875 
z
" id="ArialMT-49"/>
      </defs>
      <g style="fill:#262626;" transform="translate(7.2 100.849347)scale(0.13 -0.13)">
       <use xlink:href="#ArialMT-8722"/>
       <use x="58.398438" xlink:href="#ArialMT-49"/>
       <use x="114.013672" xlink:href="#ArialMT-48"/>
      </g>
     </g>
    </g>
    <g id="ytick_7">
     <g id="line2d_23">
      <path clip-path="url(#p23eba2462b)" d="M 38.35125 58.074251 
L 539.47125 58.074251 
" style="fill:none;stroke:#cccccc;stroke-linecap:round;"/>
     </g>
     <g id="line2d_24"/>
     <g id="text_13">
      <!-- 0 -->
      <g style="fill:#262626;" transform="translate(22.022031 62.726829)scale(0.13 -0.13)">
       <use xlink:href="#ArialMT-48"/>
      </g>
     </g>
    </g>
   </g>
   <g id="line2d_25">
    <path clip-path="url(#p23eba2462b)" d="M 61.129432 59.513554 
L 61.585451 56.255441 
L 62.041471 54.950022 
L 62.497491 55.801778 
L 62.95351 46.407163 
L 63.40953 45.668227 
L 63.86555 41.352739 
L 64.321569 43.491339 
L 64.777589 48.687214 
L 65.233609 51.705589 
L 65.689628 52.72731 
L 66.145648 54.620505 
L 66.601668 49.525864 
L 67.057687 49.983491 
L 67.513707 48.224256 
L 67.969727 48.401454 
L 68.425746 50.054272 
L 68.881766 49.909422 
L 69.337786 43.375026 
L 69.793805 46.302639 
L 70.249825 43.378679 
L 70.705845 47.290077 
L 71.161864 49.042288 
L 71.617884 49.028628 
L 72.073904 47.784404 
L 72.529923 42.130344 
L 72.985943 42.321272 
L 73.441963 45.537347 
L 73.897982 43.059223 
L 74.354002 44.44753 
L 74.810021 43.537616 
L 75.266041 43.980685 
L 75.722061 51.389632 
L 76.6341 47.227922 
L 77.09012 43.695471 
L 77.546139 36.831654 
L 78.002159 41.38769 
L 78.914198 37.858298 
L 79.370218 39.455944 
L 79.826238 37.942075 
L 80.282257 36.037295 
L 80.738277 40.683225 
L 81.194297 39.744562 
L 81.650316 43.244149 
L 82.106336 45.72919 
L 82.562356 52.494965 
L 83.018375 54.299536 
L 83.474395 55.075598 
L 83.930415 52.979406 
L 84.386434 52.975975 
L 84.842454 58.855566 
L 85.298474 55.56884 
L 85.754493 56.020922 
L 86.210513 54.159131 
L 86.666533 50.476739 
L 87.122552 45.053411 
L 87.578572 37.57672 
L 88.034592 37.852112 
L 88.490611 36.666028 
L 88.946631 40.777012 
L 89.40265 36.729924 
L 89.85867 41.247014 
L 90.31469 48.129088 
L 90.770709 44.963447 
L 91.226729 46.952286 
L 91.682749 43.987851 
L 92.138768 42.432168 
L 92.594788 48.646148 
L 93.050808 59.014251 
L 93.506827 63.194773 
L 93.962847 63.131903 
L 94.418867 67.789622 
L 94.874886 70.278113 
L 95.330906 75.839963 
L 95.786926 75.192345 
L 96.242945 74.846094 
L 96.698965 76.681284 
L 97.611004 65.645652 
L 98.067024 63.490711 
L 98.523044 70.351892 
L 98.979063 74.563249 
L 99.435083 73.011166 
L 100.347122 77.264301 
L 100.803142 73.837211 
L 101.259162 71.889627 
L 101.715181 66.87974 
L 102.171201 68.515994 
L 102.627221 63.273288 
L 103.08324 65.385776 
L 103.53926 59.669337 
L 103.995279 59.265868 
L 104.451299 62.546348 
L 104.907319 68.764968 
L 105.819358 70.89108 
L 106.275378 67.621457 
L 106.731397 68.043056 
L 107.187417 69.691595 
L 107.643437 65.585657 
L 108.099456 66.442753 
L 108.555476 68.639531 
L 109.011496 66.448978 
L 109.467515 68.316326 
L 109.923535 65.804806 
L 110.379555 68.080405 
L 110.835574 68.930381 
L 111.291594 68.350244 
L 111.747614 69.776508 
L 112.203633 69.827788 
L 112.659653 66.719004 
L 113.571692 63.320108 
L 114.027712 65.742529 
L 115.395771 56.109688 
L 115.851791 58.878778 
L 116.30781 59.536233 
L 116.76383 57.121042 
L 117.21985 59.441999 
L 117.675869 60.304035 
L 118.587908 45.521774 
L 119.499948 37.216685 
L 119.955967 41.102327 
L 120.411987 39.148311 
L 120.868007 40.517354 
L 121.324026 44.552897 
L 121.780046 46.493355 
L 122.236066 46.052411 
L 123.148105 50.238854 
L 123.604125 47.219392 
L 124.060144 46.670022 
L 124.516164 45.780021 
L 124.972184 45.353535 
L 125.428203 47.929486 
L 125.884223 53.154451 
L 126.340243 51.9705 
L 126.796262 53.903452 
L 127.252282 61.56906 
L 127.708302 63.065625 
L 128.164321 67.229435 
L 128.620341 64.566005 
L 129.53238 60.683156 
L 129.9884 63.218462 
L 130.44442 60.429603 
L 130.900439 59.211018 
L 131.812479 62.501723 
L 132.268498 59.098495 
L 132.724518 60.903993 
L 133.180537 59.746378 
L 133.636557 55.804673 
L 134.548596 42.182675 
L 135.004616 38.748512 
L 135.460636 44.489425 
L 136.372675 49.205698 
L 136.828695 42.903474 
L 137.284714 45.56945 
L 137.740734 44.097287 
L 138.196754 43.712756 
L 138.652773 47.277697 
L 139.564813 44.303682 
L 140.020832 49.091012 
L 140.476852 44.429096 
L 140.932872 52.383397 
L 141.388891 54.635512 
L 141.844911 50.930117 
L 142.300931 55.479116 
L 142.75695 54.143814 
L 143.21297 59.085867 
L 143.66899 59.440498 
L 144.125009 68.261184 
L 144.581029 71.473279 
L 145.037049 77.355284 
L 145.949088 80.469876 
L 146.405107 83.038053 
L 146.861127 79.996207 
L 147.317147 83.377216 
L 147.773166 80.958774 
L 148.229186 74.747564 
L 148.685206 74.217417 
L 149.141225 77.487071 
L 149.597245 82.249865 
L 150.053265 84.955744 
L 150.509284 82.269469 
L 150.965304 81.676318 
L 151.877343 75.168323 
L 152.333363 74.631517 
L 152.789383 72.826461 
L 153.701422 60.356957 
L 154.157442 61.511101 
L 154.613461 57.738194 
L 155.069481 55.504783 
L 155.525501 51.172585 
L 155.98152 48.612214 
L 156.43754 52.325985 
L 156.89356 58.500631 
L 157.349579 56.317632 
L 157.805599 49.064373 
L 158.261619 52.0214 
L 158.717638 52.738445 
L 159.173658 56.686976 
L 159.629678 52.196794 
L 160.541717 69.614313 
L 160.997736 68.184643 
L 161.453756 68.498558 
L 161.909776 70.327001 
L 162.365795 71.474851 
L 162.821815 69.427717 
L 163.277835 71.005242 
L 164.189874 78.722338 
L 164.645894 75.335766 
L 165.101913 77.336215 
L 165.557933 82.617242 
L 166.013953 82.227712 
L 166.469972 80.302545 
L 166.925992 75.236212 
L 167.382012 74.40551 
L 167.838031 76.920495 
L 168.294051 75.113458 
L 168.750071 72.341284 
L 169.66211 72.659625 
L 170.11813 71.667933 
L 170.574149 71.934243 
L 171.030169 70.980746 
L 172.398228 82.449763 
L 172.854248 80.001493 
L 173.310267 79.014891 
L 173.766287 75.049238 
L 174.222307 75.760951 
L 174.678326 80.1208 
L 175.134346 75.757474 
L 175.590365 75.829019 
L 176.046385 70.936165 
L 176.502405 68.656642 
L 176.958424 60.313077 
L 177.414444 61.150907 
L 178.326483 54.319016 
L 178.782503 56.435297 
L 179.238523 57.092843 
L 180.150562 68.569759 
L 180.606582 68.087247 
L 181.518621 62.631796 
L 181.974641 61.335536 
L 182.43066 58.045498 
L 182.88668 60.293574 
L 183.3427 61.332537 
L 183.798719 58.52092 
L 184.254739 56.869762 
L 184.710759 57.671055 
L 185.166778 52.635854 
L 185.622798 57.561288 
L 186.078818 59.538622 
L 186.534837 60.619006 
L 186.990857 57.506169 
L 187.446877 57.497076 
L 187.902896 62.3062 
L 188.358916 60.346687 
L 188.814936 56.200686 
L 189.726975 51.021897 
L 190.182994 58.167252 
L 190.639014 61.597846 
L 191.095034 59.760033 
L 191.551053 59.969281 
L 192.007073 57.977159 
L 192.463093 62.804777 
L 192.919112 63.03921 
L 193.375132 68.337405 
L 193.831152 75.78532 
L 194.287171 74.657736 
L 194.743191 71.445575 
L 195.199211 70.509223 
L 195.65523 70.635014 
L 196.11125 76.589806 
L 196.56727 72.754273 
L 197.023289 72.922183 
L 197.479309 65.451839 
L 197.935329 61.8595 
L 198.391348 69.503543 
L 198.847368 66.625103 
L 199.303388 71.949047 
L 199.759407 74.844435 
L 200.215427 75.800383 
L 200.671447 76.158973 
L 201.127466 74.643354 
L 202.039506 82.929463 
L 202.495525 80.639805 
L 202.951545 80.690318 
L 203.407564 80.025564 
L 203.863584 88.388437 
L 204.319604 89.06373 
L 205.231643 95.969073 
L 205.687663 92.454426 
L 206.599702 100.797797 
L 207.055722 102.059693 
L 207.511741 100.343079 
L 207.967761 103.713165 
L 208.8798 93.481114 
L 209.33582 96.841412 
L 209.79184 97.775725 
L 210.247859 100.744232 
L 210.703879 107.169333 
L 211.159899 106.014179 
L 211.615918 103.21753 
L 212.071938 95.547797 
L 212.527958 98.968948 
L 213.439997 88.757493 
L 213.896017 88.003227 
L 214.352036 85.707628 
L 214.808056 82.378491 
L 215.264076 74.852725 
L 215.720095 73.031198 
L 216.176115 73.260459 
L 216.632135 76.562513 
L 217.088154 75.398553 
L 217.544174 71.494178 
L 218.000193 70.561662 
L 218.456213 73.534926 
L 218.912233 73.195345 
L 219.368252 73.687711 
L 219.824272 72.67846 
L 220.280292 79.013844 
L 221.648351 72.948303 
L 222.10437 72.962648 
L 222.56039 79.847332 
L 223.01641 79.920995 
L 223.472429 75.877282 
L 223.928449 79.15631 
L 224.840488 92.612901 
L 225.752528 89.994259 
L 226.208547 86.615486 
L 226.664567 86.826147 
L 227.120587 92.545777 
L 227.576606 95.666121 
L 228.032626 92.544499 
L 228.488646 92.008893 
L 228.944665 89.531579 
L 229.400685 87.874055 
L 230.312724 89.318774 
L 230.768744 82.239032 
L 231.224764 80.658189 
L 231.680783 81.148398 
L 232.136803 79.412222 
L 232.592822 78.562449 
L 233.048842 86.786834 
L 233.504862 84.308549 
L 233.960881 77.366669 
L 234.416901 80.341293 
L 234.872921 74.798142 
L 235.32894 75.777394 
L 235.78496 74.658607 
L 236.24098 70.578126 
L 236.696999 73.322952 
L 237.153019 68.586253 
L 237.609039 73.215155 
L 238.065058 76.551465 
L 238.521078 78.814114 
L 238.977098 76.290383 
L 239.433117 77.589882 
L 239.889137 83.384407 
L 240.345157 84.209885 
L 240.801176 87.199535 
L 241.257196 84.411659 
L 241.713216 85.720158 
L 242.169235 85.450349 
L 242.625255 86.996112 
L 243.081275 85.341827 
L 243.537294 86.041722 
L 243.993314 84.801982 
L 244.449334 94.688633 
L 244.905353 94.317888 
L 245.361373 92.739945 
L 245.817393 93.49965 
L 246.729432 88.132002 
L 247.185451 83.16001 
L 247.641471 82.760442 
L 249.00953 104.875853 
L 249.46555 105.020364 
L 249.921569 105.620051 
L 250.377589 104.566955 
L 251.289628 109.75824 
L 252.201668 105.141708 
L 252.657687 106.120123 
L 253.113707 106.266806 
L 254.025746 102.802773 
L 254.481766 107.163916 
L 254.937786 109.907113 
L 255.393805 114.598264 
L 255.849825 116.53072 
L 256.305845 113.433899 
L 256.761864 111.351374 
L 257.217884 115.537599 
L 257.673904 113.58471 
L 258.129923 113.257454 
L 258.585943 115.140427 
L 259.041963 120.502206 
L 259.497982 121.168676 
L 259.954002 118.576559 
L 260.410021 126.822832 
L 260.866041 128.332953 
L 261.322061 119.739056 
L 261.77808 117.174795 
L 262.2341 116.184248 
L 263.146139 121.580548 
L 263.602159 121.898064 
L 264.058179 115.787544 
L 264.514198 114.012601 
L 264.970218 117.337489 
L 265.426238 112.85128 
L 265.882257 113.966723 
L 266.338277 107.496011 
L 266.794297 109.656044 
L 267.250316 113.480746 
L 267.706336 112.815014 
L 268.618375 105.115135 
L 269.074395 104.508256 
L 269.530415 108.27513 
L 269.986434 110.201616 
L 270.442454 117.895815 
L 270.898474 121.376864 
L 271.354493 122.057186 
L 271.810513 120.574212 
L 272.266533 121.868297 
L 272.722552 122.085516 
L 273.178572 123.595875 
L 273.634592 120.732777 
L 274.090611 124.160422 
L 274.546631 120.967478 
L 275.00265 113.492107 
L 275.45867 111.689714 
L 276.370709 115.743517 
L 276.826729 111.131312 
L 279.106827 132.358588 
L 279.562847 129.347272 
L 280.018867 125.145093 
L 280.474886 127.802511 
L 280.930906 127.012101 
L 281.386926 124.118005 
L 281.842945 123.734629 
L 282.298965 127.375111 
L 282.754985 132.980653 
L 283.211004 129.128648 
L 284.123044 125.037586 
L 284.579063 129.260215 
L 285.035083 128.364423 
L 285.491103 125.966518 
L 285.947122 124.769342 
L 286.403142 127.609558 
L 286.859162 123.750566 
L 287.315181 129.574284 
L 288.227221 121.912428 
L 288.68324 115.918309 
L 289.13926 117.223976 
L 289.595279 121.034055 
L 290.051299 118.007583 
L 290.507319 120.673168 
L 290.963338 120.505446 
L 291.419358 121.715691 
L 291.875378 125.154617 
L 292.331397 123.930886 
L 292.787417 129.237601 
L 293.243437 126.979964 
L 293.699456 130.666149 
L 294.155476 137.267945 
L 294.611496 137.458967 
L 295.067515 135.81347 
L 295.523535 133.61405 
L 295.979555 130.49428 
L 296.435574 139.46695 
L 296.891594 143.298814 
L 297.347614 142.892228 
L 297.803633 137.101405 
L 298.259653 134.113574 
L 298.715673 126.865187 
L 299.171692 128.866388 
L 299.627712 127.820241 
L 300.083732 132.013607 
L 300.539751 133.555099 
L 301.451791 138.775156 
L 301.90781 140.275083 
L 302.81985 140.180043 
L 303.275869 138.108262 
L 303.731889 137.574591 
L 304.187908 138.886179 
L 304.643928 140.87838 
L 305.099948 142.049244 
L 305.555967 143.761086 
L 306.011987 141.889381 
L 306.468007 138.589781 
L 306.924026 133.732802 
L 307.380046 136.773846 
L 307.836066 134.984481 
L 308.292085 140.301351 
L 308.748105 138.878715 
L 309.204125 134.751296 
L 309.660144 135.321569 
L 310.116164 131.23241 
L 311.028203 138.960657 
L 311.484223 139.478398 
L 311.940243 135.581475 
L 312.852282 138.90188 
L 313.308302 142.682217 
L 313.764321 141.908783 
L 314.220341 137.156067 
L 315.13238 131.82909 
L 315.5884 132.618129 
L 316.04442 134.765606 
L 316.500439 132.183774 
L 316.956459 132.305428 
L 317.412479 132.967266 
L 317.868498 129.542946 
L 318.324518 130.296962 
L 318.780537 133.490776 
L 319.236557 130.024721 
L 319.692577 129.716996 
L 320.604616 137.913091 
L 321.060636 137.549356 
L 321.516655 128.638562 
L 322.428695 131.418054 
L 322.884714 125.609054 
L 323.340734 125.827425 
L 324.252773 137.345241 
L 324.708793 132.668889 
L 325.620832 126.979179 
L 326.076852 127.199361 
L 326.532872 129.969771 
L 326.988891 130.797651 
L 327.444911 130.279066 
L 327.900931 133.474919 
L 328.35695 131.334531 
L 328.81297 136.136428 
L 329.26899 137.404989 
L 329.725009 138.182718 
L 330.181029 140.81706 
L 330.637049 149.225001 
L 331.093068 147.517609 
L 331.549088 150.398722 
L 332.005107 145.344789 
L 332.461127 146.648512 
L 332.917147 148.712311 
L 333.373166 148.363406 
L 333.829186 144.347428 
L 334.285206 146.49528 
L 334.741225 142.626845 
L 335.197245 137.136044 
L 335.653265 133.360684 
L 336.565304 122.232426 
L 337.477343 110.341217 
L 337.933363 109.548004 
L 338.389383 111.184313 
L 338.845402 119.808556 
L 339.301422 124.851147 
L 340.213461 128.015385 
L 340.669481 128.597876 
L 341.125501 132.413027 
L 341.58152 138.496533 
L 342.03754 138.992976 
L 342.49356 139.715085 
L 343.861619 149.207069 
L 344.317638 150.718718 
L 344.773658 153.98316 
L 345.229678 149.180198 
L 345.685697 148.261457 
L 346.141717 151.968178 
L 346.597736 153.037316 
L 347.053756 157.536862 
L 347.509776 153.678221 
L 348.421815 143.628406 
L 348.877835 147.992263 
L 349.333854 148.340195 
L 349.789874 149.871084 
L 350.245894 147.728548 
L 350.701913 151.570954 
L 351.157933 154.147624 
L 351.613953 155.722911 
L 352.069972 155.138537 
L 352.525992 152.492343 
L 352.982012 153.745536 
L 353.894051 148.080372 
L 354.350071 148.893202 
L 355.26211 158.106837 
L 355.71813 155.851025 
L 356.174149 157.666512 
L 356.630169 164.195487 
L 357.086189 161.858758 
L 357.542208 161.364864 
L 357.998228 166.724764 
L 358.454248 162.228518 
L 358.910267 159.039051 
L 359.366287 158.510119 
L 360.278326 168.714183 
L 360.734346 169.884805 
L 361.190365 176.418682 
L 361.646385 174.874414 
L 362.102405 180.252828 
L 362.558424 179.624139 
L 363.014444 180.722569 
L 363.470464 178.009064 
L 363.926483 181.584757 
L 364.382503 180.541231 
L 364.838523 185.858713 
L 365.294542 182.825878 
L 365.750562 183.264141 
L 366.206582 181.373833 
L 366.662601 186.408009 
L 367.118621 184.505374 
L 368.48668 180.759702 
L 368.9427 181.497235 
L 369.398719 176.76509 
L 369.854739 177.359412 
L 370.310759 180.177311 
L 370.766778 180.40119 
L 371.222798 184.024804 
L 371.678818 185.793675 
L 372.134837 186.469384 
L 372.590857 187.91634 
L 373.046877 187.156188 
L 373.502896 179.738455 
L 373.958916 177.561851 
L 374.414936 173.473971 
L 375.782994 179.073802 
L 376.239014 175.822374 
L 376.695034 184.011543 
L 377.151053 187.950227 
L 377.607073 187.560097 
L 378.063093 188.414393 
L 378.519112 180.912912 
L 378.975132 179.206231 
L 379.431152 181.730672 
L 379.887171 187.744907 
L 380.343191 189.043208 
L 380.799211 194.011411 
L 381.25523 192.23204 
L 381.71125 191.617862 
L 382.16727 190.39782 
L 382.623289 182.471475 
L 383.079309 185.930963 
L 383.535329 186.664457 
L 383.991348 191.286872 
L 384.447368 191.594134 
L 384.903388 185.520174 
L 385.359407 183.352061 
L 385.815427 183.788514 
L 386.271447 182.829236 
L 386.727466 187.445323 
L 387.183486 188.946335 
L 388.095525 188.242309 
L 388.551545 194.077404 
L 389.463584 191.764054 
L 389.919604 193.201468 
L 390.375623 193.185552 
L 391.287663 204.482349 
L 391.743682 203.968887 
L 392.199702 206.514416 
L 392.655722 206.558469 
L 393.111741 203.358119 
L 393.567761 204.021184 
L 394.023781 214.736158 
L 394.4798 215.310488 
L 394.93582 217.144349 
L 395.39184 218.039063 
L 395.847859 214.609062 
L 396.303879 220.626817 
L 396.759899 219.696793 
L 397.215918 213.710399 
L 397.671938 216.096652 
L 398.127958 214.296019 
L 398.583977 210.612218 
L 399.039997 209.810763 
L 399.952036 215.127398 
L 400.864076 210.034423 
L 401.320095 213.032638 
L 402.232135 222.400408 
L 402.688154 216.065773 
L 403.144174 216.324797 
L 403.600193 207.327011 
L 404.512233 203.533561 
L 404.968252 202.365973 
L 405.424272 198.556963 
L 405.880292 202.239839 
L 406.336311 194.005325 
L 406.792331 194.3877 
L 407.248351 197.069238 
L 407.70437 195.9158 
L 408.16039 191.751529 
L 408.61641 195.592582 
L 409.072429 193.431533 
L 409.528449 196.162798 
L 410.440488 199.958871 
L 410.896508 197.048059 
L 411.352528 201.276123 
L 411.808547 200.541822 
L 412.264567 201.851017 
L 412.720587 205.080796 
L 413.632626 214.292767 
L 414.088646 220.521209 
L 414.544665 217.104794 
L 415.000685 218.026036 
L 415.456705 217.421215 
L 415.912724 212.929661 
L 416.824764 221.170464 
L 417.280783 220.199424 
L 417.736803 227.153275 
L 418.192822 229.359457 
L 418.648842 232.885383 
L 419.104862 231.62916 
L 419.560881 233.252477 
L 420.016901 225.596907 
L 420.472921 222.021428 
L 420.92894 225.274188 
L 421.84098 228.075804 
L 422.296999 215.47031 
L 422.753019 221.227572 
L 423.209039 220.451627 
L 423.665058 228.398007 
L 424.121078 228.424455 
L 424.577098 221.143471 
L 425.033117 222.700606 
L 425.489137 218.489766 
L 425.945157 218.741814 
L 426.401176 220.352486 
L 426.857196 221.311863 
L 427.769235 225.935975 
L 428.225255 231.007012 
L 428.681275 225.262708 
L 429.137294 226.761214 
L 429.593314 225.641272 
L 430.049334 228.982832 
L 430.505353 224.724583 
L 430.961373 225.767447 
L 431.417393 226.114486 
L 431.873412 233.087006 
L 432.329432 231.577445 
L 432.785451 224.671529 
L 433.241471 227.984671 
L 433.697491 229.731556 
L 434.15351 234.071134 
L 434.60953 233.578735 
L 435.06555 233.334659 
L 435.977589 228.544356 
L 436.433609 231.641872 
L 436.889628 230.784313 
L 437.345648 232.03588 
L 437.801668 236.195172 
L 438.257687 236.678779 
L 438.713707 222.185892 
L 439.169727 213.359879 
L 439.625746 212.826825 
L 440.081766 206.197863 
L 440.993805 206.573453 
L 441.449825 214.005711 
L 442.361864 220.652772 
L 442.817884 220.242882 
L 443.273904 220.18957 
L 444.185943 224.641348 
L 444.641963 225.274766 
L 445.097982 230.541055 
L 445.554002 232.876587 
L 446.010021 234.33016 
L 446.466041 239.091468 
L 446.922061 240.350418 
L 447.37808 243.532913 
L 447.8341 238.823325 
L 448.746139 240.475362 
L 449.202159 238.843611 
L 449.658179 236.720307 
L 450.114198 243.339298 
L 450.570218 244.775694 
L 451.026238 248.241155 
L 451.482257 248.79458 
L 451.938277 250.839215 
L 452.394297 250.240426 
L 452.850316 253.978184 
L 453.762356 258.396305 
L 454.218375 254.269194 
L 455.130415 251.459975 
L 455.586434 252.551492 
L 456.042454 254.018134 
L 456.498474 251.879449 
L 456.954493 248.915675 
L 457.410513 248.857932 
L 458.322552 239.648283 
L 458.778572 245.994531 
L 459.234592 244.353818 
L 459.690611 244.516227 
L 460.146631 243.035973 
L 460.60265 238.781589 
L 461.05867 242.290912 
L 461.51469 248.467805 
L 461.970709 244.250725 
L 462.426729 248.0572 
L 462.882749 250.673241 
L 463.338768 249.893175 
L 463.794788 252.508768 
L 464.250808 258.578676 
L 464.706827 258.448336 
L 465.162847 261.427552 
L 465.618867 259.14836 
L 466.074886 261.077651 
L 466.530906 263.702181 
L 466.986926 264.502756 
L 467.898965 257.030523 
L 468.354985 261.198177 
L 468.811004 250.524986 
L 469.267024 251.766927 
L 469.723044 256.160226 
L 470.179063 252.774062 
L 470.635083 254.152849 
L 471.091103 245.942328 
L 471.547122 242.711794 
L 472.003142 243.469364 
L 472.459162 237.463897 
L 472.915181 234.226856 
L 473.371201 238.911714 
L 473.827221 235.524932 
L 474.28324 237.493912 
L 474.73926 237.811573 
L 475.195279 237.31196 
L 475.651299 240.663296 
L 476.107319 245.746332 
L 476.563338 244.344247 
L 477.019358 249.636543 
L 477.475378 259.453864 
L 477.931397 262.641309 
L 478.387417 261.379101 
L 478.843437 262.407956 
L 479.299456 257.577334 
L 479.755476 256.876819 
L 480.211496 259.798185 
L 480.667515 261.473988 
L 481.123535 266.950445 
L 481.579555 262.811113 
L 482.035574 268.076214 
L 482.491594 271.58504 
L 482.947614 272.196091 
L 483.403633 272.18712 
L 483.859653 277.915602 
L 484.315673 281.367732 
L 484.771692 280.357331 
L 485.227712 276.050541 
L 485.683732 274.720051 
L 486.139751 274.818444 
L 486.595771 280.77474 
L 487.051791 283.128205 
L 487.50781 281.140137 
L 488.41985 273.628771 
L 488.875869 273.102407 
L 489.331889 268.510167 
L 489.787908 257.525313 
L 490.243928 259.789264 
L 490.699948 262.698454 
L 491.155967 256.909615 
L 491.611987 256.011964 
L 492.068007 255.583819 
L 492.524026 254.08799 
L 492.980046 256.583057 
L 493.436066 260.527957 
L 493.892085 263.490639 
L 494.348105 258.740778 
L 494.804125 264.217614 
L 495.260144 262.316617 
L 495.716164 264.442662 
L 496.172184 265.789786 
L 497.084223 259.739971 
L 497.540243 258.432458 
L 497.996262 265.573262 
L 498.908302 254.58955 
L 499.364321 254.24097 
L 499.820341 254.201864 
L 500.276361 247.334286 
L 500.73238 243.723229 
L 501.1884 243.834907 
L 501.64442 244.949375 
L 502.100439 245.687187 
L 503.012479 237.234572 
L 503.468498 243.385347 
L 503.924518 241.614013 
L 504.380537 238.319765 
L 504.836557 244.062782 
L 505.292577 244.074084 
L 505.748596 250.848622 
L 506.204616 250.354962 
L 506.660636 258.296777 
L 508.028695 265.927614 
L 508.484714 260.394023 
L 508.940734 258.352522 
L 509.396754 259.875779 
L 509.852773 263.432907 
L 510.308793 264.343183 
L 510.764813 268.26642 
L 511.220832 264.556794 
L 511.676852 256.94462 
L 512.132872 252.929556 
L 512.588891 251.665069 
L 513.044911 252.296488 
L 513.500931 253.840855 
L 513.95695 247.187391 
L 514.41297 249.383002 
L 514.86899 243.431701 
L 515.325009 247.745414 
L 515.781029 248.874724 
L 516.237049 255.409139 
L 516.693068 254.802098 
L 516.693068 254.802098 
" style="fill:none;stroke:#8dd3c7;stroke-linecap:round;stroke-width:4;"/>
   </g>
   <g id="patch_3">
    <path d="M 38.35125 295.48275 
L 38.35125 23.68275 
" style="fill:none;stroke:#cccccc;stroke-linecap:square;stroke-linejoin:miter;"/>
   </g>
   <g id="patch_4">
    <path d="M 539.47125 295.48275 
L 539.47125 23.68275 
" style="fill:none;stroke:#cccccc;stroke-linecap:square;stroke-linejoin:miter;"/>
   </g>
   <g id="patch_5">
    <path d="M 38.35125 295.48275 
L 539.47125 295.48275 
" style="fill:none;stroke:#cccccc;stroke-linecap:square;stroke-linejoin:miter;"/>
   </g>
   <g id="patch_6">
    <path d="M 38.35125 23.68275 
L 539.47125 23.68275 
" style="fill:none;stroke:#cccccc;stroke-linecap:square;stroke-linejoin:miter;"/>
   </g>
   <g id="text_14">
    <!-- My fiirst matplotlib plot title -->
    <defs>
     <path d="M 7.421875 0 
L 7.421875 71.578125 
L 21.6875 71.578125 
L 38.625 20.90625 
Q 40.96875 13.8125 42.046875 10.296875 
Q 43.265625 14.203125 45.84375 21.78125 
L 62.984375 71.578125 
L 75.734375 71.578125 
L 75.734375 0 
L 66.609375 0 
L 66.609375 59.90625 
L 45.796875 0 
L 37.25 0 
L 16.546875 60.9375 
L 16.546875 0 
z
" id="ArialMT-77"/>
     <path d="M 6.203125 -19.96875 
L 5.21875 -11.71875 
Q 8.109375 -12.5 10.25 -12.5 
Q 13.1875 -12.5 14.9375 -11.515625 
Q 16.703125 -10.546875 17.828125 -8.796875 
Q 18.65625 -7.46875 20.515625 -2.25 
Q 20.75 -1.515625 21.296875 -0.09375 
L 1.609375 51.859375 
L 11.078125 51.859375 
L 21.875 21.828125 
Q 23.96875 16.109375 25.640625 9.8125 
Q 27.15625 15.875 29.25 21.625 
L 40.328125 51.859375 
L 49.125 51.859375 
L 29.390625 -0.875 
Q 26.21875 -9.421875 24.46875 -12.640625 
Q 22.125 -17 19.09375 -19.015625 
Q 16.0625 -21.046875 11.859375 -21.046875 
Q 9.328125 -21.046875 6.203125 -19.96875 
z
" id="ArialMT-121"/>
     <path id="ArialMT-32"/>
     <path d="M 6.59375 0 
L 6.59375 51.859375 
L 14.453125 51.859375 
L 14.453125 44.578125 
Q 16.890625 48.390625 20.9375 50.703125 
Q 25 53.03125 30.171875 53.03125 
Q 35.9375 53.03125 39.625 50.640625 
Q 43.3125 48.25 44.828125 43.953125 
Q 50.984375 53.03125 60.84375 53.03125 
Q 68.5625 53.03125 72.703125 48.75 
Q 76.859375 44.484375 76.859375 35.59375 
L 76.859375 0 
L 68.109375 0 
L 68.109375 32.671875 
Q 68.109375 37.9375 67.25 40.25 
Q 66.40625 42.578125 64.15625 43.984375 
Q 61.921875 45.40625 58.890625 45.40625 
Q 53.421875 45.40625 49.796875 41.765625 
Q 46.1875 38.140625 46.1875 30.125 
L 46.1875 0 
L 37.40625 0 
L 37.40625 33.6875 
Q 37.40625 39.546875 35.25 42.46875 
Q 33.109375 45.40625 28.21875 45.40625 
Q 24.515625 45.40625 21.359375 43.453125 
Q 18.21875 41.5 16.796875 37.734375 
Q 15.375 33.984375 15.375 26.90625 
L 15.375 0 
z
" id="ArialMT-109"/>
     <path d="M 6.59375 -19.875 
L 6.59375 51.859375 
L 14.59375 51.859375 
L 14.59375 45.125 
Q 17.4375 49.078125 21 51.046875 
Q 24.5625 53.03125 29.640625 53.03125 
Q 36.28125 53.03125 41.359375 49.609375 
Q 46.4375 46.1875 49.015625 39.953125 
Q 51.609375 33.734375 51.609375 26.3125 
Q 51.609375 18.359375 48.75 11.984375 
Q 45.90625 5.609375 40.453125 2.21875 
Q 35.015625 -1.171875 29 -1.171875 
Q 24.609375 -1.171875 21.109375 0.6875 
Q 17.625 2.546875 15.375 5.375 
L 15.375 -19.875 
z
M 14.546875 25.640625 
Q 14.546875 15.625 18.59375 10.84375 
Q 22.65625 6.0625 28.421875 6.0625 
Q 34.28125 6.0625 38.453125 11.015625 
Q 42.625 15.96875 42.625 26.375 
Q 42.625 36.28125 38.546875 41.203125 
Q 34.46875 46.140625 28.8125 46.140625 
Q 23.1875 46.140625 18.859375 40.890625 
Q 14.546875 35.640625 14.546875 25.640625 
z
" id="ArialMT-112"/>
     <path d="M 6.390625 0 
L 6.390625 71.578125 
L 15.1875 71.578125 
L 15.1875 0 
z
" id="ArialMT-108"/>
     <path d="M 14.703125 0 
L 6.546875 0 
L 6.546875 71.578125 
L 15.328125 71.578125 
L 15.328125 46.046875 
Q 20.90625 53.03125 29.546875 53.03125 
Q 34.328125 53.03125 38.59375 51.09375 
Q 42.875 49.171875 45.625 45.671875 
Q 48.390625 42.1875 49.953125 37.25 
Q 51.515625 32.328125 51.515625 26.703125 
Q 51.515625 13.375 44.921875 6.09375 
Q 38.328125 -1.171875 29.109375 -1.171875 
Q 19.921875 -1.171875 14.703125 6.5 
z
M 14.59375 26.3125 
Q 14.59375 17 17.140625 12.84375 
Q 21.296875 6.0625 28.375 6.0625 
Q 34.125 6.0625 38.328125 11.0625 
Q 42.53125 16.0625 42.53125 25.984375 
Q 42.53125 36.140625 38.5 40.96875 
Q 34.46875 45.796875 28.765625 45.796875 
Q 23 45.796875 18.796875 40.796875 
Q 14.59375 35.796875 14.59375 26.3125 
z
" id="ArialMT-98"/>
    </defs>
    <g style="fill:#262626;" transform="translate(204.49125 17.68275)scale(0.144 -0.144)">
     <use xlink:href="#ArialMT-77"/>
     <use x="83.300781" xlink:href="#ArialMT-121"/>
     <use x="133.300781" xlink:href="#ArialMT-32"/>
     <use x="161.083984" xlink:href="#ArialMT-102"/>
     <use x="188.867188" xlink:href="#ArialMT-105"/>
     <use x="211.083984" xlink:href="#ArialMT-105"/>
     <use x="233.300781" xlink:href="#ArialMT-114"/>
     <use x="266.601562" xlink:href="#ArialMT-115"/>
     <use x="316.601562" xlink:href="#ArialMT-116"/>
     <use x="344.384766" xlink:href="#ArialMT-32"/>
     <use x="372.167969" xlink:href="#ArialMT-109"/>
     <use x="455.46875" xlink:href="#ArialMT-97"/>
     <use x="511.083984" xlink:href="#ArialMT-116"/>
     <use x="538.867188" xlink:href="#ArialMT-112"/>
     <use x="594.482422" xlink:href="#ArialMT-108"/>
     <use x="616.699219" xlink:href="#ArialMT-111"/>
     <use x="672.314453" xlink:href="#ArialMT-116"/>
     <use x="700.097656" xlink:href="#ArialMT-108"/>
     <use x="722.314453" xlink:href="#ArialMT-105"/>
     <use x="744.53125" xlink:href="#ArialMT-98"/>
     <use x="800.146484" xlink:href="#ArialMT-32"/>
     <use x="827.929688" xlink:href="#ArialMT-112"/>
     <use x="883.544922" xlink:href="#ArialMT-108"/>
     <use x="905.761719" xlink:href="#ArialMT-111"/>
     <use x="961.376953" xlink:href="#ArialMT-116"/>
     <use x="989.160156" xlink:href="#ArialMT-32"/>
     <use x="1016.943359" xlink:href="#ArialMT-116"/>
     <use x="1044.726562" xlink:href="#ArialMT-105"/>
     <use x="1066.943359" xlink:href="#ArialMT-116"/>
     <use x="1094.726562" xlink:href="#ArialMT-108"/>
     <use x="1116.943359" xlink:href="#ArialMT-101"/>
    </g>
   </g>
  </g>
 </g>
 <defs>
  <clipPath id="p23eba2462b">
   <rect height="271.8" width="501.12" x="38.35125" y="23.68275"/>
  </clipPath>
 </defs>
</svg>
