<?xml version="1.0" encoding="utf-8" standalone="no"?>
<!DOCTYPE svg PUBLIC "-//W3C//DTD SVG 1.1//EN"
  "http://www.w3.org/Graphics/SVG/1.1/DTD/svg11.dtd">
<!-- Created with matplotlib (https://matplotlib.org/) -->
<svg height="298.845312pt" version="1.1" viewBox="0 0 488.684375 298.845312" width="488.684375pt" xmlns="http://www.w3.org/2000/svg" xmlns:xlink="http://www.w3.org/1999/xlink">
 <defs>
  <style type="text/css">
*{stroke-linecap:butt;stroke-linejoin:round;}
  </style>
 </defs>
 <g id="figure_1">
  <g id="patch_1">
   <path d="M 0 298.845312 
L 488.684375 298.845312 
L 488.684375 0 
L 0 0 
z
" style="fill:#ffffff;"/>
  </g>
  <g id="axes_1">
   <g id="patch_2">
    <path d="M 35.084375 279 
L 481.484375 279 
L 481.484375 7.2 
L 35.084375 7.2 
z
" style="fill:#ffffff;"/>
   </g>
   <g id="matplotlib.axis_1">
    <g id="xtick_1">
     <g id="line2d_1">
      <path clip-path="url(#p00e4a7bf35)" d="M 49.166411 279 
L 49.166411 7.2 
" style="fill:none;stroke:#cccccc;stroke-linecap:round;stroke-width:0.8;"/>
     </g>
     <g id="line2d_2"/>
     <g id="text_1">
      <!-- 0.0 -->
      <defs>
       <path d="M 4.15625 35.296875 
Q 4.15625 48 6.765625 55.734375 
Q 9.375 63.484375 14.515625 67.671875 
Q 19.671875 71.875 27.484375 71.875 
Q 33.25 71.875 37.59375 69.546875 
Q 41.9375 67.234375 44.765625 62.859375 
Q 47.609375 58.5 49.21875 52.21875 
Q 50.828125 45.953125 50.828125 35.296875 
Q 50.828125 22.703125 48.234375 14.96875 
Q 45.65625 7.234375 40.5 3 
Q 35.359375 -1.21875 27.484375 -1.21875 
Q 17.140625 -1.21875 11.234375 6.203125 
Q 4.15625 15.140625 4.15625 35.296875 
z
M 13.1875 35.296875 
Q 13.1875 17.671875 17.3125 11.828125 
Q 21.4375 6 27.484375 6 
Q 33.546875 6 37.671875 11.859375 
Q 41.796875 17.71875 41.796875 35.296875 
Q 41.796875 52.984375 37.671875 58.78125 
Q 33.546875 64.59375 27.390625 64.59375 
Q 21.34375 64.59375 17.71875 59.46875 
Q 13.1875 52.9375 13.1875 35.296875 
z
" id="ArialMT-48"/>
       <path d="M 9.078125 0 
L 9.078125 10.015625 
L 19.09375 10.015625 
L 19.09375 0 
z
" id="ArialMT-46"/>
      </defs>
      <g style="fill:#262626;" transform="translate(42.216411 289.657812)scale(0.1 -0.1)">
       <use xlink:href="#ArialMT-48"/>
       <use x="55.615234" xlink:href="#ArialMT-46"/>
       <use x="83.398438" xlink:href="#ArialMT-48"/>
      </g>
     </g>
    </g>
    <g id="xtick_2">
     <g id="line2d_3">
      <path clip-path="url(#p00e4a7bf35)" d="M 133.171927 279 
L 133.171927 7.2 
" style="fill:none;stroke:#cccccc;stroke-linecap:round;stroke-width:0.8;"/>
     </g>
     <g id="line2d_4"/>
     <g id="text_2">
      <!-- 0.5 -->
      <defs>
       <path d="M 4.15625 18.75 
L 13.375 19.53125 
Q 14.40625 12.796875 18.140625 9.390625 
Q 21.875 6 27.15625 6 
Q 33.5 6 37.890625 10.78125 
Q 42.28125 15.578125 42.28125 23.484375 
Q 42.28125 31 38.0625 35.34375 
Q 33.84375 39.703125 27 39.703125 
Q 22.75 39.703125 19.328125 37.765625 
Q 15.921875 35.84375 13.96875 32.765625 
L 5.71875 33.84375 
L 12.640625 70.609375 
L 48.25 70.609375 
L 48.25 62.203125 
L 19.671875 62.203125 
L 15.828125 42.96875 
Q 22.265625 47.46875 29.34375 47.46875 
Q 38.71875 47.46875 45.15625 40.96875 
Q 51.609375 34.46875 51.609375 24.265625 
Q 51.609375 14.546875 45.953125 7.46875 
Q 39.0625 -1.21875 27.15625 -1.21875 
Q 17.390625 -1.21875 11.203125 4.25 
Q 5.03125 9.71875 4.15625 18.75 
z
" id="ArialMT-53"/>
      </defs>
      <g style="fill:#262626;" transform="translate(126.221927 289.657812)scale(0.1 -0.1)">
       <use xlink:href="#ArialMT-48"/>
       <use x="55.615234" xlink:href="#ArialMT-46"/>
       <use x="83.398438" xlink:href="#ArialMT-53"/>
      </g>
     </g>
    </g>
    <g id="xtick_3">
     <g id="line2d_5">
      <path clip-path="url(#p00e4a7bf35)" d="M 217.177443 279 
L 217.177443 7.2 
" style="fill:none;stroke:#cccccc;stroke-linecap:round;stroke-width:0.8;"/>
     </g>
     <g id="line2d_6"/>
     <g id="text_3">
      <!-- 1.0 -->
      <defs>
       <path d="M 37.25 0 
L 28.46875 0 
L 28.46875 56 
Q 25.296875 52.984375 20.140625 49.953125 
Q 14.984375 46.921875 10.890625 45.40625 
L 10.890625 53.90625 
Q 18.265625 57.375 23.78125 62.296875 
Q 29.296875 67.234375 31.59375 71.875 
L 37.25 71.875 
z
" id="ArialMT-49"/>
      </defs>
      <g style="fill:#262626;" transform="translate(210.227443 289.657812)scale(0.1 -0.1)">
       <use xlink:href="#ArialMT-49"/>
       <use x="55.615234" xlink:href="#ArialMT-46"/>
       <use x="83.398438" xlink:href="#ArialMT-48"/>
      </g>
     </g>
    </g>
    <g id="xtick_4">
     <g id="line2d_7">
      <path clip-path="url(#p00e4a7bf35)" d="M 301.182959 279 
L 301.182959 7.2 
" style="fill:none;stroke:#cccccc;stroke-linecap:round;stroke-width:0.8;"/>
     </g>
     <g id="line2d_8"/>
     <g id="text_4">
      <!-- 1.5 -->
      <g style="fill:#262626;" transform="translate(294.232959 289.657812)scale(0.1 -0.1)">
       <use xlink:href="#ArialMT-49"/>
       <use x="55.615234" xlink:href="#ArialMT-46"/>
       <use x="83.398438" xlink:href="#ArialMT-53"/>
      </g>
     </g>
    </g>
    <g id="xtick_5">
     <g id="line2d_9">
      <path clip-path="url(#p00e4a7bf35)" d="M 385.188475 279 
L 385.188475 7.2 
" style="fill:none;stroke:#cccccc;stroke-linecap:round;stroke-width:0.8;"/>
     </g>
     <g id="line2d_10"/>
     <g id="text_5">
      <!-- 2.0 -->
      <defs>
       <path d="M 50.34375 8.453125 
L 50.34375 0 
L 3.03125 0 
Q 2.9375 3.171875 4.046875 6.109375 
Q 5.859375 10.9375 9.828125 15.625 
Q 13.8125 20.3125 21.34375 26.46875 
Q 33.015625 36.03125 37.109375 41.625 
Q 41.21875 47.21875 41.21875 52.203125 
Q 41.21875 57.421875 37.46875 61 
Q 33.734375 64.59375 27.734375 64.59375 
Q 21.390625 64.59375 17.578125 60.78125 
Q 13.765625 56.984375 13.71875 50.25 
L 4.6875 51.171875 
Q 5.609375 61.28125 11.65625 66.578125 
Q 17.71875 71.875 27.9375 71.875 
Q 38.234375 71.875 44.234375 66.15625 
Q 50.25 60.453125 50.25 52 
Q 50.25 47.703125 48.484375 43.546875 
Q 46.734375 39.40625 42.65625 34.8125 
Q 38.578125 30.21875 29.109375 22.21875 
Q 21.1875 15.578125 18.9375 13.203125 
Q 16.703125 10.84375 15.234375 8.453125 
z
" id="ArialMT-50"/>
      </defs>
      <g style="fill:#262626;" transform="translate(378.238475 289.657812)scale(0.1 -0.1)">
       <use xlink:href="#ArialMT-50"/>
       <use x="55.615234" xlink:href="#ArialMT-46"/>
       <use x="83.398438" xlink:href="#ArialMT-48"/>
      </g>
     </g>
    </g>
    <g id="xtick_6">
     <g id="line2d_11">
      <path clip-path="url(#p00e4a7bf35)" d="M 469.193991 279 
L 469.193991 7.2 
" style="fill:none;stroke:#cccccc;stroke-linecap:round;stroke-width:0.8;"/>
     </g>
     <g id="line2d_12"/>
     <g id="text_6">
      <!-- 2.5 -->
      <g style="fill:#262626;" transform="translate(462.243991 289.657812)scale(0.1 -0.1)">
       <use xlink:href="#ArialMT-50"/>
       <use x="55.615234" xlink:href="#ArialMT-46"/>
       <use x="83.398438" xlink:href="#ArialMT-53"/>
      </g>
     </g>
    </g>
   </g>
   <g id="matplotlib.axis_2">
    <g id="ytick_1">
     <g id="line2d_13">
      <path clip-path="url(#p00e4a7bf35)" d="M 35.084375 279 
L 481.484375 279 
" style="fill:none;stroke:#cccccc;stroke-linecap:round;stroke-width:0.8;"/>
     </g>
     <g id="line2d_14"/>
     <g id="text_7">
      <!-- 0 -->
      <g style="fill:#262626;" transform="translate(26.023438 282.578906)scale(0.1 -0.1)">
       <use xlink:href="#ArialMT-48"/>
      </g>
     </g>
    </g>
    <g id="ytick_2">
     <g id="line2d_15">
      <path clip-path="url(#p00e4a7bf35)" d="M 35.084375 244.93985 
L 481.484375 244.93985 
" style="fill:none;stroke:#cccccc;stroke-linecap:round;stroke-width:0.8;"/>
     </g>
     <g id="line2d_16"/>
     <g id="text_8">
      <!-- 10 -->
      <g style="fill:#262626;" transform="translate(20.4625 248.518756)scale(0.1 -0.1)">
       <use xlink:href="#ArialMT-49"/>
       <use x="55.615234" xlink:href="#ArialMT-48"/>
      </g>
     </g>
    </g>
    <g id="ytick_3">
     <g id="line2d_17">
      <path clip-path="url(#p00e4a7bf35)" d="M 35.084375 210.879699 
L 481.484375 210.879699 
" style="fill:none;stroke:#cccccc;stroke-linecap:round;stroke-width:0.8;"/>
     </g>
     <g id="line2d_18"/>
     <g id="text_9">
      <!-- 20 -->
      <g style="fill:#262626;" transform="translate(20.4625 214.458605)scale(0.1 -0.1)">
       <use xlink:href="#ArialMT-50"/>
       <use x="55.615234" xlink:href="#ArialMT-48"/>
      </g>
     </g>
    </g>
    <g id="ytick_4">
     <g id="line2d_19">
      <path clip-path="url(#p00e4a7bf35)" d="M 35.084375 176.819549 
L 481.484375 176.819549 
" style="fill:none;stroke:#cccccc;stroke-linecap:round;stroke-width:0.8;"/>
     </g>
     <g id="line2d_20"/>
     <g id="text_10">
      <!-- 30 -->
      <defs>
       <path d="M 4.203125 18.890625 
L 12.984375 20.0625 
Q 14.5 12.59375 18.140625 9.296875 
Q 21.78125 6 27 6 
Q 33.203125 6 37.46875 10.296875 
Q 41.75 14.59375 41.75 20.953125 
Q 41.75 27 37.796875 30.921875 
Q 33.84375 34.859375 27.734375 34.859375 
Q 25.25 34.859375 21.53125 33.890625 
L 22.515625 41.609375 
Q 23.390625 41.5 23.921875 41.5 
Q 29.546875 41.5 34.03125 44.421875 
Q 38.53125 47.359375 38.53125 53.46875 
Q 38.53125 58.296875 35.25 61.46875 
Q 31.984375 64.65625 26.8125 64.65625 
Q 21.6875 64.65625 18.265625 61.421875 
Q 14.84375 58.203125 13.875 51.765625 
L 5.078125 53.328125 
Q 6.6875 62.15625 12.390625 67.015625 
Q 18.109375 71.875 26.609375 71.875 
Q 32.46875 71.875 37.390625 69.359375 
Q 42.328125 66.84375 44.9375 62.5 
Q 47.5625 58.15625 47.5625 53.265625 
Q 47.5625 48.640625 45.0625 44.828125 
Q 42.578125 41.015625 37.703125 38.765625 
Q 44.046875 37.3125 47.5625 32.6875 
Q 51.078125 28.078125 51.078125 21.140625 
Q 51.078125 11.765625 44.234375 5.25 
Q 37.40625 -1.265625 26.953125 -1.265625 
Q 17.53125 -1.265625 11.296875 4.34375 
Q 5.078125 9.96875 4.203125 18.890625 
z
" id="ArialMT-51"/>
      </defs>
      <g style="fill:#262626;" transform="translate(20.4625 180.398455)scale(0.1 -0.1)">
       <use xlink:href="#ArialMT-51"/>
       <use x="55.615234" xlink:href="#ArialMT-48"/>
      </g>
     </g>
    </g>
    <g id="ytick_5">
     <g id="line2d_21">
      <path clip-path="url(#p00e4a7bf35)" d="M 35.084375 142.759398 
L 481.484375 142.759398 
" style="fill:none;stroke:#cccccc;stroke-linecap:round;stroke-width:0.8;"/>
     </g>
     <g id="line2d_22"/>
     <g id="text_11">
      <!-- 40 -->
      <defs>
       <path d="M 32.328125 0 
L 32.328125 17.140625 
L 1.265625 17.140625 
L 1.265625 25.203125 
L 33.9375 71.578125 
L 41.109375 71.578125 
L 41.109375 25.203125 
L 50.78125 25.203125 
L 50.78125 17.140625 
L 41.109375 17.140625 
L 41.109375 0 
z
M 32.328125 25.203125 
L 32.328125 57.46875 
L 9.90625 25.203125 
z
" id="ArialMT-52"/>
      </defs>
      <g style="fill:#262626;" transform="translate(20.4625 146.338305)scale(0.1 -0.1)">
       <use xlink:href="#ArialMT-52"/>
       <use x="55.615234" xlink:href="#ArialMT-48"/>
      </g>
     </g>
    </g>
    <g id="ytick_6">
     <g id="line2d_23">
      <path clip-path="url(#p00e4a7bf35)" d="M 35.084375 108.699248 
L 481.484375 108.699248 
" style="fill:none;stroke:#cccccc;stroke-linecap:round;stroke-width:0.8;"/>
     </g>
     <g id="line2d_24"/>
     <g id="text_12">
      <!-- 50 -->
      <g style="fill:#262626;" transform="translate(20.4625 112.278154)scale(0.1 -0.1)">
       <use xlink:href="#ArialMT-53"/>
       <use x="55.615234" xlink:href="#ArialMT-48"/>
      </g>
     </g>
    </g>
    <g id="ytick_7">
     <g id="line2d_25">
      <path clip-path="url(#p00e4a7bf35)" d="M 35.084375 74.639098 
L 481.484375 74.639098 
" style="fill:none;stroke:#cccccc;stroke-linecap:round;stroke-width:0.8;"/>
     </g>
     <g id="line2d_26"/>
     <g id="text_13">
      <!-- 60 -->
      <defs>
       <path d="M 49.75 54.046875 
L 41.015625 53.375 
Q 39.84375 58.546875 37.703125 60.890625 
Q 34.125 64.65625 28.90625 64.65625 
Q 24.703125 64.65625 21.53125 62.3125 
Q 17.390625 59.28125 14.984375 53.46875 
Q 12.59375 47.65625 12.5 36.921875 
Q 15.671875 41.75 20.265625 44.09375 
Q 24.859375 46.4375 29.890625 46.4375 
Q 38.671875 46.4375 44.84375 39.96875 
Q 51.03125 33.5 51.03125 23.25 
Q 51.03125 16.5 48.125 10.71875 
Q 45.21875 4.9375 40.140625 1.859375 
Q 35.0625 -1.21875 28.609375 -1.21875 
Q 17.625 -1.21875 10.6875 6.859375 
Q 3.765625 14.9375 3.765625 33.5 
Q 3.765625 54.25 11.421875 63.671875 
Q 18.109375 71.875 29.4375 71.875 
Q 37.890625 71.875 43.28125 67.140625 
Q 48.6875 62.40625 49.75 54.046875 
z
M 13.875 23.1875 
Q 13.875 18.65625 15.796875 14.5 
Q 17.71875 10.359375 21.1875 8.171875 
Q 24.65625 6 28.46875 6 
Q 34.03125 6 38.03125 10.484375 
Q 42.046875 14.984375 42.046875 22.703125 
Q 42.046875 30.125 38.078125 34.390625 
Q 34.125 38.671875 28.125 38.671875 
Q 22.171875 38.671875 18.015625 34.390625 
Q 13.875 30.125 13.875 23.1875 
z
" id="ArialMT-54"/>
      </defs>
      <g style="fill:#262626;" transform="translate(20.4625 78.218004)scale(0.1 -0.1)">
       <use xlink:href="#ArialMT-54"/>
       <use x="55.615234" xlink:href="#ArialMT-48"/>
      </g>
     </g>
    </g>
    <g id="ytick_8">
     <g id="line2d_27">
      <path clip-path="url(#p00e4a7bf35)" d="M 35.084375 40.578947 
L 481.484375 40.578947 
" style="fill:none;stroke:#cccccc;stroke-linecap:round;stroke-width:0.8;"/>
     </g>
     <g id="line2d_28"/>
     <g id="text_14">
      <!-- 70 -->
      <defs>
       <path d="M 4.734375 62.203125 
L 4.734375 70.65625 
L 51.078125 70.65625 
L 51.078125 63.8125 
Q 44.234375 56.546875 37.515625 44.484375 
Q 30.8125 32.421875 27.15625 19.671875 
Q 24.515625 10.6875 23.78125 0 
L 14.75 0 
Q 14.890625 8.453125 18.0625 20.40625 
Q 21.234375 32.375 27.171875 43.484375 
Q 33.109375 54.59375 39.796875 62.203125 
z
" id="ArialMT-55"/>
      </defs>
      <g style="fill:#262626;" transform="translate(20.4625 44.157854)scale(0.1 -0.1)">
       <use xlink:href="#ArialMT-55"/>
       <use x="55.615234" xlink:href="#ArialMT-48"/>
      </g>
     </g>
    </g>
    <g id="text_15">
     <!-- Frequency -->
     <defs>
      <path d="M 8.203125 0 
L 8.203125 71.578125 
L 56.5 71.578125 
L 56.5 63.140625 
L 17.671875 63.140625 
L 17.671875 40.96875 
L 51.265625 40.96875 
L 51.265625 32.515625 
L 17.671875 32.515625 
L 17.671875 0 
z
" id="ArialMT-70"/>
      <path d="M 6.5 0 
L 6.5 51.859375 
L 14.40625 51.859375 
L 14.40625 44 
Q 17.4375 49.515625 20 51.265625 
Q 22.5625 53.03125 25.640625 53.03125 
Q 30.078125 53.03125 34.671875 50.203125 
L 31.640625 42.046875 
Q 28.421875 43.953125 25.203125 43.953125 
Q 22.3125 43.953125 20.015625 42.21875 
Q 17.71875 40.484375 16.75 37.40625 
Q 15.28125 32.71875 15.28125 27.15625 
L 15.28125 0 
z
" id="ArialMT-114"/>
      <path d="M 42.09375 16.703125 
L 51.171875 15.578125 
Q 49.03125 7.625 43.21875 3.21875 
Q 37.40625 -1.171875 28.375 -1.171875 
Q 17 -1.171875 10.328125 5.828125 
Q 3.65625 12.84375 3.65625 25.484375 
Q 3.65625 38.578125 10.390625 45.796875 
Q 17.140625 53.03125 27.875 53.03125 
Q 38.28125 53.03125 44.875 45.953125 
Q 51.46875 38.875 51.46875 26.03125 
Q 51.46875 25.25 51.421875 23.6875 
L 12.75 23.6875 
Q 13.234375 15.140625 17.578125 10.59375 
Q 21.921875 6.0625 28.421875 6.0625 
Q 33.25 6.0625 36.671875 8.59375 
Q 40.09375 11.140625 42.09375 16.703125 
z
M 13.234375 30.90625 
L 42.1875 30.90625 
Q 41.609375 37.453125 38.875 40.71875 
Q 34.671875 45.796875 27.984375 45.796875 
Q 21.921875 45.796875 17.796875 41.75 
Q 13.671875 37.703125 13.234375 30.90625 
z
" id="ArialMT-101"/>
      <path d="M 39.65625 -19.875 
L 39.65625 5.515625 
Q 37.59375 2.640625 33.90625 0.734375 
Q 30.21875 -1.171875 26.078125 -1.171875 
Q 16.84375 -1.171875 10.171875 6.203125 
Q 3.515625 13.578125 3.515625 26.421875 
Q 3.515625 34.234375 6.21875 40.421875 
Q 8.9375 46.625 14.078125 49.828125 
Q 19.234375 53.03125 25.390625 53.03125 
Q 35.015625 53.03125 40.53125 44.921875 
L 40.53125 51.859375 
L 48.4375 51.859375 
L 48.4375 -19.875 
z
M 12.546875 26.078125 
Q 12.546875 16.0625 16.75 11.0625 
Q 20.953125 6.0625 26.8125 6.0625 
Q 32.421875 6.0625 36.46875 10.8125 
Q 40.53125 15.578125 40.53125 25.296875 
Q 40.53125 35.640625 36.25 40.859375 
Q 31.984375 46.09375 26.21875 46.09375 
Q 20.515625 46.09375 16.53125 41.234375 
Q 12.546875 36.375 12.546875 26.078125 
z
" id="ArialMT-113"/>
      <path d="M 40.578125 0 
L 40.578125 7.625 
Q 34.515625 -1.171875 24.125 -1.171875 
Q 19.53125 -1.171875 15.546875 0.578125 
Q 11.578125 2.34375 9.640625 5 
Q 7.71875 7.671875 6.9375 11.53125 
Q 6.390625 14.109375 6.390625 19.734375 
L 6.390625 51.859375 
L 15.1875 51.859375 
L 15.1875 23.09375 
Q 15.1875 16.21875 15.71875 13.8125 
Q 16.546875 10.359375 19.234375 8.375 
Q 21.921875 6.390625 25.875 6.390625 
Q 29.828125 6.390625 33.296875 8.421875 
Q 36.765625 10.453125 38.203125 13.9375 
Q 39.65625 17.4375 39.65625 24.078125 
L 39.65625 51.859375 
L 48.4375 51.859375 
L 48.4375 0 
z
" id="ArialMT-117"/>
      <path d="M 6.59375 0 
L 6.59375 51.859375 
L 14.5 51.859375 
L 14.5 44.484375 
Q 20.21875 53.03125 31 53.03125 
Q 35.6875 53.03125 39.625 51.34375 
Q 43.5625 49.65625 45.515625 46.921875 
Q 47.46875 44.1875 48.25 40.4375 
Q 48.734375 37.984375 48.734375 31.890625 
L 48.734375 0 
L 39.9375 0 
L 39.9375 31.546875 
Q 39.9375 36.921875 38.90625 39.578125 
Q 37.890625 42.234375 35.28125 43.8125 
Q 32.671875 45.40625 29.15625 45.40625 
Q 23.53125 45.40625 19.453125 41.84375 
Q 15.375 38.28125 15.375 28.328125 
L 15.375 0 
z
" id="ArialMT-110"/>
      <path d="M 40.4375 19 
L 49.078125 17.875 
Q 47.65625 8.9375 41.8125 3.875 
Q 35.984375 -1.171875 27.484375 -1.171875 
Q 16.84375 -1.171875 10.375 5.78125 
Q 3.90625 12.75 3.90625 25.734375 
Q 3.90625 34.125 6.6875 40.421875 
Q 9.46875 46.734375 15.15625 49.875 
Q 20.84375 53.03125 27.546875 53.03125 
Q 35.984375 53.03125 41.359375 48.75 
Q 46.734375 44.484375 48.25 36.625 
L 39.703125 35.296875 
Q 38.484375 40.53125 35.375 43.15625 
Q 32.28125 45.796875 27.875 45.796875 
Q 21.234375 45.796875 17.078125 41.03125 
Q 12.9375 36.28125 12.9375 25.984375 
Q 12.9375 15.53125 16.9375 10.796875 
Q 20.953125 6.0625 27.390625 6.0625 
Q 32.5625 6.0625 36.03125 9.234375 
Q 39.5 12.40625 40.4375 19 
z
" id="ArialMT-99"/>
      <path d="M 6.203125 -19.96875 
L 5.21875 -11.71875 
Q 8.109375 -12.5 10.25 -12.5 
Q 13.1875 -12.5 14.9375 -11.515625 
Q 16.703125 -10.546875 17.828125 -8.796875 
Q 18.65625 -7.46875 20.515625 -2.25 
Q 20.75 -1.515625 21.296875 -0.09375 
L 1.609375 51.859375 
L 11.078125 51.859375 
L 21.875 21.828125 
Q 23.96875 16.109375 25.640625 9.8125 
Q 27.15625 15.875 29.25 21.625 
L 40.328125 51.859375 
L 49.125 51.859375 
L 29.390625 -0.875 
Q 26.21875 -9.421875 24.46875 -12.640625 
Q 22.125 -17 19.09375 -19.015625 
Q 16.0625 -21.046875 11.859375 -21.046875 
Q 9.328125 -21.046875 6.203125 -19.96875 
z
" id="ArialMT-121"/>
     </defs>
     <g style="fill:#262626;" transform="translate(14.357813 166.721094)rotate(-90)scale(0.1 -0.1)">
      <use xlink:href="#ArialMT-70"/>
      <use x="61.083984" xlink:href="#ArialMT-114"/>
      <use x="94.384766" xlink:href="#ArialMT-101"/>
      <use x="150" xlink:href="#ArialMT-113"/>
      <use x="205.615234" xlink:href="#ArialMT-117"/>
      <use x="261.230469" xlink:href="#ArialMT-101"/>
      <use x="316.845703" xlink:href="#ArialMT-110"/>
      <use x="372.460938" xlink:href="#ArialMT-99"/>
      <use x="422.460938" xlink:href="#ArialMT-121"/>
     </g>
    </g>
   </g>
   <g id="patch_3">
    <path clip-path="url(#p00e4a7bf35)" d="M 55.375284 279 
L 63.491648 279 
L 63.491648 238.12782 
L 55.375284 238.12782 
z
" style="fill:#8dd3c7;"/>
   </g>
   <g id="patch_4">
    <path clip-path="url(#p00e4a7bf35)" d="M 63.491648 279 
L 71.608011 279 
L 71.608011 166.601504 
L 63.491648 166.601504 
z
" style="fill:#8dd3c7;"/>
   </g>
   <g id="patch_5">
    <path clip-path="url(#p00e4a7bf35)" d="M 71.608011 279 
L 79.724375 279 
L 79.724375 20.142857 
L 71.608011 20.142857 
z
" style="fill:#8dd3c7;"/>
   </g>
   <g id="patch_6">
    <path clip-path="url(#p00e4a7bf35)" d="M 79.724375 279 
L 87.840739 279 
L 87.840739 84.857143 
L 79.724375 84.857143 
z
" style="fill:#8dd3c7;"/>
   </g>
   <g id="patch_7">
    <path clip-path="url(#p00e4a7bf35)" d="M 87.840739 279 
L 95.957102 279 
L 95.957102 139.353383 
L 87.840739 139.353383 
z
" style="fill:#8dd3c7;"/>
   </g>
   <g id="patch_8">
    <path clip-path="url(#p00e4a7bf35)" d="M 95.957102 279 
L 104.073466 279 
L 104.073466 227.909774 
L 95.957102 227.909774 
z
" style="fill:#8dd3c7;"/>
   </g>
   <g id="patch_9">
    <path clip-path="url(#p00e4a7bf35)" d="M 104.073466 279 
L 112.18983 279 
L 112.18983 265.37594 
L 104.073466 265.37594 
z
" style="fill:#8dd3c7;"/>
   </g>
   <g id="patch_10">
    <path clip-path="url(#p00e4a7bf35)" d="M 112.18983 279 
L 120.306193 279 
L 120.306193 268.781955 
L 112.18983 268.781955 
z
" style="fill:#8dd3c7;"/>
   </g>
   <g id="patch_11">
    <path clip-path="url(#p00e4a7bf35)" d="M 120.306193 279 
L 128.422557 279 
L 128.422557 279 
L 120.306193 279 
z
" style="fill:#8dd3c7;"/>
   </g>
   <g id="patch_12">
    <path clip-path="url(#p00e4a7bf35)" d="M 128.422557 279 
L 136.53892 279 
L 136.53892 275.593985 
L 128.422557 275.593985 
z
" style="fill:#8dd3c7;"/>
   </g>
   <g id="patch_13">
    <path clip-path="url(#p00e4a7bf35)" d="M 136.53892 279 
L 144.655284 279 
L 144.655284 279 
L 136.53892 279 
z
" style="fill:#8dd3c7;"/>
   </g>
   <g id="patch_14">
    <path clip-path="url(#p00e4a7bf35)" d="M 144.655284 279 
L 152.771648 279 
L 152.771648 279 
L 144.655284 279 
z
" style="fill:#8dd3c7;"/>
   </g>
   <g id="patch_15">
    <path clip-path="url(#p00e4a7bf35)" d="M 152.771648 279 
L 160.888011 279 
L 160.888011 279 
L 152.771648 279 
z
" style="fill:#8dd3c7;"/>
   </g>
   <g id="patch_16">
    <path clip-path="url(#p00e4a7bf35)" d="M 160.888011 279 
L 169.004375 279 
L 169.004375 279 
L 160.888011 279 
z
" style="fill:#8dd3c7;"/>
   </g>
   <g id="patch_17">
    <path clip-path="url(#p00e4a7bf35)" d="M 169.004375 279 
L 177.120739 279 
L 177.120739 275.593985 
L 169.004375 275.593985 
z
" style="fill:#8dd3c7;"/>
   </g>
   <g id="patch_18">
    <path clip-path="url(#p00e4a7bf35)" d="M 177.120739 279 
L 185.237102 279 
L 185.237102 279 
L 177.120739 279 
z
" style="fill:#8dd3c7;"/>
   </g>
   <g id="patch_19">
    <path clip-path="url(#p00e4a7bf35)" d="M 185.237102 279 
L 193.353466 279 
L 193.353466 279 
L 185.237102 279 
z
" style="fill:#8dd3c7;"/>
   </g>
   <g id="patch_20">
    <path clip-path="url(#p00e4a7bf35)" d="M 193.353466 279 
L 201.46983 279 
L 201.46983 279 
L 193.353466 279 
z
" style="fill:#8dd3c7;"/>
   </g>
   <g id="patch_21">
    <path clip-path="url(#p00e4a7bf35)" d="M 201.46983 279 
L 209.586193 279 
L 209.586193 279 
L 201.46983 279 
z
" style="fill:#8dd3c7;"/>
   </g>
   <g id="patch_22">
    <path clip-path="url(#p00e4a7bf35)" d="M 209.586193 279 
L 217.702557 279 
L 217.702557 279 
L 209.586193 279 
z
" style="fill:#8dd3c7;"/>
   </g>
   <g id="patch_23">
    <path clip-path="url(#p00e4a7bf35)" d="M 217.702557 279 
L 225.81892 279 
L 225.81892 279 
L 217.702557 279 
z
" style="fill:#8dd3c7;"/>
   </g>
   <g id="patch_24">
    <path clip-path="url(#p00e4a7bf35)" d="M 225.81892 279 
L 233.935284 279 
L 233.935284 279 
L 225.81892 279 
z
" style="fill:#8dd3c7;"/>
   </g>
   <g id="patch_25">
    <path clip-path="url(#p00e4a7bf35)" d="M 233.935284 279 
L 242.051648 279 
L 242.051648 279 
L 233.935284 279 
z
" style="fill:#8dd3c7;"/>
   </g>
   <g id="patch_26">
    <path clip-path="url(#p00e4a7bf35)" d="M 242.051648 279 
L 250.168011 279 
L 250.168011 279 
L 242.051648 279 
z
" style="fill:#8dd3c7;"/>
   </g>
   <g id="patch_27">
    <path clip-path="url(#p00e4a7bf35)" d="M 250.168011 279 
L 258.284375 279 
L 258.284375 279 
L 250.168011 279 
z
" style="fill:#8dd3c7;"/>
   </g>
   <g id="patch_28">
    <path clip-path="url(#p00e4a7bf35)" d="M 258.284375 279 
L 266.400739 279 
L 266.400739 279 
L 258.284375 279 
z
" style="fill:#8dd3c7;"/>
   </g>
   <g id="patch_29">
    <path clip-path="url(#p00e4a7bf35)" d="M 266.400739 279 
L 274.517102 279 
L 274.517102 279 
L 266.400739 279 
z
" style="fill:#8dd3c7;"/>
   </g>
   <g id="patch_30">
    <path clip-path="url(#p00e4a7bf35)" d="M 274.517102 279 
L 282.633466 279 
L 282.633466 279 
L 274.517102 279 
z
" style="fill:#8dd3c7;"/>
   </g>
   <g id="patch_31">
    <path clip-path="url(#p00e4a7bf35)" d="M 282.633466 279 
L 290.74983 279 
L 290.74983 279 
L 282.633466 279 
z
" style="fill:#8dd3c7;"/>
   </g>
   <g id="patch_32">
    <path clip-path="url(#p00e4a7bf35)" d="M 290.74983 279 
L 298.866193 279 
L 298.866193 279 
L 290.74983 279 
z
" style="fill:#8dd3c7;"/>
   </g>
   <g id="patch_33">
    <path clip-path="url(#p00e4a7bf35)" d="M 298.866193 279 
L 306.982557 279 
L 306.982557 279 
L 298.866193 279 
z
" style="fill:#8dd3c7;"/>
   </g>
   <g id="patch_34">
    <path clip-path="url(#p00e4a7bf35)" d="M 306.982557 279 
L 315.09892 279 
L 315.09892 279 
L 306.982557 279 
z
" style="fill:#8dd3c7;"/>
   </g>
   <g id="patch_35">
    <path clip-path="url(#p00e4a7bf35)" d="M 315.09892 279 
L 323.215284 279 
L 323.215284 279 
L 315.09892 279 
z
" style="fill:#8dd3c7;"/>
   </g>
   <g id="patch_36">
    <path clip-path="url(#p00e4a7bf35)" d="M 323.215284 279 
L 331.331648 279 
L 331.331648 279 
L 323.215284 279 
z
" style="fill:#8dd3c7;"/>
   </g>
   <g id="patch_37">
    <path clip-path="url(#p00e4a7bf35)" d="M 331.331648 279 
L 339.448011 279 
L 339.448011 279 
L 331.331648 279 
z
" style="fill:#8dd3c7;"/>
   </g>
   <g id="patch_38">
    <path clip-path="url(#p00e4a7bf35)" d="M 339.448011 279 
L 347.564375 279 
L 347.564375 279 
L 339.448011 279 
z
" style="fill:#8dd3c7;"/>
   </g>
   <g id="patch_39">
    <path clip-path="url(#p00e4a7bf35)" d="M 347.564375 279 
L 355.680739 279 
L 355.680739 279 
L 347.564375 279 
z
" style="fill:#8dd3c7;"/>
   </g>
   <g id="patch_40">
    <path clip-path="url(#p00e4a7bf35)" d="M 355.680739 279 
L 363.797102 279 
L 363.797102 279 
L 355.680739 279 
z
" style="fill:#8dd3c7;"/>
   </g>
   <g id="patch_41">
    <path clip-path="url(#p00e4a7bf35)" d="M 363.797102 279 
L 371.913466 279 
L 371.913466 279 
L 363.797102 279 
z
" style="fill:#8dd3c7;"/>
   </g>
   <g id="patch_42">
    <path clip-path="url(#p00e4a7bf35)" d="M 371.913466 279 
L 380.02983 279 
L 380.02983 279 
L 371.913466 279 
z
" style="fill:#8dd3c7;"/>
   </g>
   <g id="patch_43">
    <path clip-path="url(#p00e4a7bf35)" d="M 380.02983 279 
L 388.146193 279 
L 388.146193 279 
L 380.02983 279 
z
" style="fill:#8dd3c7;"/>
   </g>
   <g id="patch_44">
    <path clip-path="url(#p00e4a7bf35)" d="M 388.146193 279 
L 396.262557 279 
L 396.262557 279 
L 388.146193 279 
z
" style="fill:#8dd3c7;"/>
   </g>
   <g id="patch_45">
    <path clip-path="url(#p00e4a7bf35)" d="M 396.262557 279 
L 404.37892 279 
L 404.37892 279 
L 396.262557 279 
z
" style="fill:#8dd3c7;"/>
   </g>
   <g id="patch_46">
    <path clip-path="url(#p00e4a7bf35)" d="M 404.37892 279 
L 412.495284 279 
L 412.495284 279 
L 404.37892 279 
z
" style="fill:#8dd3c7;"/>
   </g>
   <g id="patch_47">
    <path clip-path="url(#p00e4a7bf35)" d="M 412.495284 279 
L 420.611648 279 
L 420.611648 279 
L 412.495284 279 
z
" style="fill:#8dd3c7;"/>
   </g>
   <g id="patch_48">
    <path clip-path="url(#p00e4a7bf35)" d="M 420.611648 279 
L 428.728011 279 
L 428.728011 279 
L 420.611648 279 
z
" style="fill:#8dd3c7;"/>
   </g>
   <g id="patch_49">
    <path clip-path="url(#p00e4a7bf35)" d="M 428.728011 279 
L 436.844375 279 
L 436.844375 279 
L 428.728011 279 
z
" style="fill:#8dd3c7;"/>
   </g>
   <g id="patch_50">
    <path clip-path="url(#p00e4a7bf35)" d="M 436.844375 279 
L 444.960739 279 
L 444.960739 279 
L 436.844375 279 
z
" style="fill:#8dd3c7;"/>
   </g>
   <g id="patch_51">
    <path clip-path="url(#p00e4a7bf35)" d="M 444.960739 279 
L 453.077102 279 
L 453.077102 279 
L 444.960739 279 
z
" style="fill:#8dd3c7;"/>
   </g>
   <g id="patch_52">
    <path clip-path="url(#p00e4a7bf35)" d="M 453.077102 279 
L 461.193466 279 
L 461.193466 275.593985 
L 453.077102 275.593985 
z
" style="fill:#8dd3c7;"/>
   </g>
   <g id="patch_53">
    <path d="M 35.084375 279 
L 35.084375 7.2 
" style="fill:none;stroke:#cccccc;stroke-linecap:square;stroke-linejoin:miter;"/>
   </g>
   <g id="patch_54">
    <path d="M 481.484375 279 
L 481.484375 7.2 
" style="fill:none;stroke:#cccccc;stroke-linecap:square;stroke-linejoin:miter;"/>
   </g>
   <g id="patch_55">
    <path d="M 35.084375 279 
L 481.484375 279 
" style="fill:none;stroke:#cccccc;stroke-linecap:square;stroke-linejoin:miter;"/>
   </g>
   <g id="patch_56">
    <path d="M 35.084375 7.2 
L 481.484375 7.2 
" style="fill:none;stroke:#cccccc;stroke-linecap:square;stroke-linejoin:miter;"/>
   </g>
  </g>
 </g>
 <defs>
  <clipPath id="p00e4a7bf35">
   <rect height="271.8" width="446.4" x="35.084375" y="7.2"/>
  </clipPath>
 </defs>
</svg>
