<?xml version="1.0" encoding="utf-8" standalone="no"?>
<!DOCTYPE svg PUBLIC "-//W3C//DTD SVG 1.1//EN"
  "http://www.w3.org/Graphics/SVG/1.1/DTD/svg11.dtd">
<!-- Created with matplotlib (https://matplotlib.org/) -->
<svg height="298.845312pt" version="1.1" viewBox="0 0 481.2625 298.845312" width="481.2625pt" xmlns="http://www.w3.org/2000/svg" xmlns:xlink="http://www.w3.org/1999/xlink">
 <defs>
  <style type="text/css">
*{stroke-linecap:butt;stroke-linejoin:round;}
  </style>
 </defs>
 <g id="figure_1">
  <g id="patch_1">
   <path d="M 0 298.845312 
L 481.2625 298.845312 
L 481.2625 0 
L 0 0 
z
" style="fill:#ffffff;"/>
  </g>
  <g id="axes_1">
   <g id="patch_2">
    <path d="M 27.6625 279 
L 474.0625 279 
L 474.0625 7.2 
L 27.6625 7.2 
z
" style="fill:#ffffff;"/>
   </g>
   <g id="matplotlib.axis_1">
    <g id="xtick_1">
     <g id="line2d_1">
      <path clip-path="url(#p427d75969b)" d="M 47.953409 279 
L 47.953409 7.2 
" style="fill:none;stroke:#cccccc;stroke-linecap:round;stroke-width:0.8;"/>
     </g>
     <g id="line2d_2"/>
     <g id="text_1">
      <!-- 0 -->
      <defs>
       <path d="M 4.15625 35.296875 
Q 4.15625 48 6.765625 55.734375 
Q 9.375 63.484375 14.515625 67.671875 
Q 19.671875 71.875 27.484375 71.875 
Q 33.25 71.875 37.59375 69.546875 
Q 41.9375 67.234375 44.765625 62.859375 
Q 47.609375 58.5 49.21875 52.21875 
Q 50.828125 45.953125 50.828125 35.296875 
Q 50.828125 22.703125 48.234375 14.96875 
Q 45.65625 7.234375 40.5 3 
Q 35.359375 -1.21875 27.484375 -1.21875 
Q 17.140625 -1.21875 11.234375 6.203125 
Q 4.15625 15.140625 4.15625 35.296875 
z
M 13.1875 35.296875 
Q 13.1875 17.671875 17.3125 11.828125 
Q 21.4375 6 27.484375 6 
Q 33.546875 6 37.671875 11.859375 
Q 41.796875 17.71875 41.796875 35.296875 
Q 41.796875 52.984375 37.671875 58.78125 
Q 33.546875 64.59375 27.390625 64.59375 
Q 21.34375 64.59375 17.71875 59.46875 
Q 13.1875 52.9375 13.1875 35.296875 
z
" id="ArialMT-48"/>
      </defs>
      <g style="fill:#262626;" transform="translate(45.17294 289.657812)scale(0.1 -0.1)">
       <use xlink:href="#ArialMT-48"/>
      </g>
     </g>
    </g>
    <g id="xtick_2">
     <g id="line2d_3">
      <path clip-path="url(#p427d75969b)" d="M 129.19829 279 
L 129.19829 7.2 
" style="fill:none;stroke:#cccccc;stroke-linecap:round;stroke-width:0.8;"/>
     </g>
     <g id="line2d_4"/>
     <g id="text_2">
      <!-- 200 -->
      <defs>
       <path d="M 50.34375 8.453125 
L 50.34375 0 
L 3.03125 0 
Q 2.9375 3.171875 4.046875 6.109375 
Q 5.859375 10.9375 9.828125 15.625 
Q 13.8125 20.3125 21.34375 26.46875 
Q 33.015625 36.03125 37.109375 41.625 
Q 41.21875 47.21875 41.21875 52.203125 
Q 41.21875 57.421875 37.46875 61 
Q 33.734375 64.59375 27.734375 64.59375 
Q 21.390625 64.59375 17.578125 60.78125 
Q 13.765625 56.984375 13.71875 50.25 
L 4.6875 51.171875 
Q 5.609375 61.28125 11.65625 66.578125 
Q 17.71875 71.875 27.9375 71.875 
Q 38.234375 71.875 44.234375 66.15625 
Q 50.25 60.453125 50.25 52 
Q 50.25 47.703125 48.484375 43.546875 
Q 46.734375 39.40625 42.65625 34.8125 
Q 38.578125 30.21875 29.109375 22.21875 
Q 21.1875 15.578125 18.9375 13.203125 
Q 16.703125 10.84375 15.234375 8.453125 
z
" id="ArialMT-50"/>
      </defs>
      <g style="fill:#262626;" transform="translate(120.856884 289.657812)scale(0.1 -0.1)">
       <use xlink:href="#ArialMT-50"/>
       <use x="55.615234" xlink:href="#ArialMT-48"/>
       <use x="111.230469" xlink:href="#ArialMT-48"/>
      </g>
     </g>
    </g>
    <g id="xtick_3">
     <g id="line2d_5">
      <path clip-path="url(#p427d75969b)" d="M 210.443172 279 
L 210.443172 7.2 
" style="fill:none;stroke:#cccccc;stroke-linecap:round;stroke-width:0.8;"/>
     </g>
     <g id="line2d_6"/>
     <g id="text_3">
      <!-- 400 -->
      <defs>
       <path d="M 32.328125 0 
L 32.328125 17.140625 
L 1.265625 17.140625 
L 1.265625 25.203125 
L 33.9375 71.578125 
L 41.109375 71.578125 
L 41.109375 25.203125 
L 50.78125 25.203125 
L 50.78125 17.140625 
L 41.109375 17.140625 
L 41.109375 0 
z
M 32.328125 25.203125 
L 32.328125 57.46875 
L 9.90625 25.203125 
z
" id="ArialMT-52"/>
      </defs>
      <g style="fill:#262626;" transform="translate(202.101765 289.657812)scale(0.1 -0.1)">
       <use xlink:href="#ArialMT-52"/>
       <use x="55.615234" xlink:href="#ArialMT-48"/>
       <use x="111.230469" xlink:href="#ArialMT-48"/>
      </g>
     </g>
    </g>
    <g id="xtick_4">
     <g id="line2d_7">
      <path clip-path="url(#p427d75969b)" d="M 291.688053 279 
L 291.688053 7.2 
" style="fill:none;stroke:#cccccc;stroke-linecap:round;stroke-width:0.8;"/>
     </g>
     <g id="line2d_8"/>
     <g id="text_4">
      <!-- 600 -->
      <defs>
       <path d="M 49.75 54.046875 
L 41.015625 53.375 
Q 39.84375 58.546875 37.703125 60.890625 
Q 34.125 64.65625 28.90625 64.65625 
Q 24.703125 64.65625 21.53125 62.3125 
Q 17.390625 59.28125 14.984375 53.46875 
Q 12.59375 47.65625 12.5 36.921875 
Q 15.671875 41.75 20.265625 44.09375 
Q 24.859375 46.4375 29.890625 46.4375 
Q 38.671875 46.4375 44.84375 39.96875 
Q 51.03125 33.5 51.03125 23.25 
Q 51.03125 16.5 48.125 10.71875 
Q 45.21875 4.9375 40.140625 1.859375 
Q 35.0625 -1.21875 28.609375 -1.21875 
Q 17.625 -1.21875 10.6875 6.859375 
Q 3.765625 14.9375 3.765625 33.5 
Q 3.765625 54.25 11.421875 63.671875 
Q 18.109375 71.875 29.4375 71.875 
Q 37.890625 71.875 43.28125 67.140625 
Q 48.6875 62.40625 49.75 54.046875 
z
M 13.875 23.1875 
Q 13.875 18.65625 15.796875 14.5 
Q 17.71875 10.359375 21.1875 8.171875 
Q 24.65625 6 28.46875 6 
Q 34.03125 6 38.03125 10.484375 
Q 42.046875 14.984375 42.046875 22.703125 
Q 42.046875 30.125 38.078125 34.390625 
Q 34.125 38.671875 28.125 38.671875 
Q 22.171875 38.671875 18.015625 34.390625 
Q 13.875 30.125 13.875 23.1875 
z
" id="ArialMT-54"/>
      </defs>
      <g style="fill:#262626;" transform="translate(283.346647 289.657812)scale(0.1 -0.1)">
       <use xlink:href="#ArialMT-54"/>
       <use x="55.615234" xlink:href="#ArialMT-48"/>
       <use x="111.230469" xlink:href="#ArialMT-48"/>
      </g>
     </g>
    </g>
    <g id="xtick_5">
     <g id="line2d_9">
      <path clip-path="url(#p427d75969b)" d="M 372.932934 279 
L 372.932934 7.2 
" style="fill:none;stroke:#cccccc;stroke-linecap:round;stroke-width:0.8;"/>
     </g>
     <g id="line2d_10"/>
     <g id="text_5">
      <!-- 800 -->
      <defs>
       <path d="M 17.671875 38.8125 
Q 12.203125 40.828125 9.5625 44.53125 
Q 6.9375 48.25 6.9375 53.421875 
Q 6.9375 61.234375 12.546875 66.546875 
Q 18.171875 71.875 27.484375 71.875 
Q 36.859375 71.875 42.578125 66.421875 
Q 48.296875 60.984375 48.296875 53.171875 
Q 48.296875 48.1875 45.671875 44.5 
Q 43.0625 40.828125 37.75 38.8125 
Q 44.34375 36.671875 47.78125 31.875 
Q 51.21875 27.09375 51.21875 20.453125 
Q 51.21875 11.28125 44.71875 5.03125 
Q 38.234375 -1.21875 27.640625 -1.21875 
Q 17.046875 -1.21875 10.546875 5.046875 
Q 4.046875 11.328125 4.046875 20.703125 
Q 4.046875 27.6875 7.59375 32.390625 
Q 11.140625 37.109375 17.671875 38.8125 
z
M 15.921875 53.71875 
Q 15.921875 48.640625 19.1875 45.40625 
Q 22.46875 42.1875 27.6875 42.1875 
Q 32.765625 42.1875 36.015625 45.375 
Q 39.265625 48.578125 39.265625 53.21875 
Q 39.265625 58.0625 35.90625 61.359375 
Q 32.5625 64.65625 27.59375 64.65625 
Q 22.5625 64.65625 19.234375 61.421875 
Q 15.921875 58.203125 15.921875 53.71875 
z
M 13.09375 20.65625 
Q 13.09375 16.890625 14.875 13.375 
Q 16.65625 9.859375 20.171875 7.921875 
Q 23.6875 6 27.734375 6 
Q 34.03125 6 38.125 10.046875 
Q 42.234375 14.109375 42.234375 20.359375 
Q 42.234375 26.703125 38.015625 30.859375 
Q 33.796875 35.015625 27.4375 35.015625 
Q 21.234375 35.015625 17.15625 30.90625 
Q 13.09375 26.8125 13.09375 20.65625 
z
" id="ArialMT-56"/>
      </defs>
      <g style="fill:#262626;" transform="translate(364.591528 289.657812)scale(0.1 -0.1)">
       <use xlink:href="#ArialMT-56"/>
       <use x="55.615234" xlink:href="#ArialMT-48"/>
       <use x="111.230469" xlink:href="#ArialMT-48"/>
      </g>
     </g>
    </g>
    <g id="xtick_6">
     <g id="line2d_11">
      <path clip-path="url(#p427d75969b)" d="M 454.177815 279 
L 454.177815 7.2 
" style="fill:none;stroke:#cccccc;stroke-linecap:round;stroke-width:0.8;"/>
     </g>
     <g id="line2d_12"/>
     <g id="text_6">
      <!-- 1000 -->
      <defs>
       <path d="M 37.25 0 
L 28.46875 0 
L 28.46875 56 
Q 25.296875 52.984375 20.140625 49.953125 
Q 14.984375 46.921875 10.890625 45.40625 
L 10.890625 53.90625 
Q 18.265625 57.375 23.78125 62.296875 
Q 29.296875 67.234375 31.59375 71.875 
L 37.25 71.875 
z
" id="ArialMT-49"/>
      </defs>
      <g style="fill:#262626;" transform="translate(443.05594 289.657812)scale(0.1 -0.1)">
       <use xlink:href="#ArialMT-49"/>
       <use x="55.615234" xlink:href="#ArialMT-48"/>
       <use x="111.230469" xlink:href="#ArialMT-48"/>
       <use x="166.845703" xlink:href="#ArialMT-48"/>
      </g>
     </g>
    </g>
   </g>
   <g id="matplotlib.axis_2">
    <g id="ytick_1">
     <g id="line2d_13">
      <path clip-path="url(#p427d75969b)" d="M 27.6625 250.950518 
L 474.0625 250.950518 
" style="fill:none;stroke:#cccccc;stroke-linecap:round;stroke-width:0.8;"/>
     </g>
     <g id="line2d_14"/>
     <g id="text_7">
      <!-- −20 -->
      <defs>
       <path d="M 52.828125 31.203125 
L 5.5625 31.203125 
L 5.5625 39.40625 
L 52.828125 39.40625 
z
" id="ArialMT-8722"/>
      </defs>
      <g style="fill:#262626;" transform="translate(7.2 254.529424)scale(0.1 -0.1)">
       <use xlink:href="#ArialMT-8722"/>
       <use x="58.398438" xlink:href="#ArialMT-50"/>
       <use x="114.013672" xlink:href="#ArialMT-48"/>
      </g>
     </g>
    </g>
    <g id="ytick_2">
     <g id="line2d_15">
      <path clip-path="url(#p427d75969b)" d="M 27.6625 217.555027 
L 474.0625 217.555027 
" style="fill:none;stroke:#cccccc;stroke-linecap:round;stroke-width:0.8;"/>
     </g>
     <g id="line2d_16"/>
     <g id="text_8">
      <!-- −10 -->
      <g style="fill:#262626;" transform="translate(7.2 221.133934)scale(0.1 -0.1)">
       <use xlink:href="#ArialMT-8722"/>
       <use x="58.398438" xlink:href="#ArialMT-49"/>
       <use x="114.013672" xlink:href="#ArialMT-48"/>
      </g>
     </g>
    </g>
    <g id="ytick_3">
     <g id="line2d_17">
      <path clip-path="url(#p427d75969b)" d="M 27.6625 184.159537 
L 474.0625 184.159537 
" style="fill:none;stroke:#cccccc;stroke-linecap:round;stroke-width:0.8;"/>
     </g>
     <g id="line2d_18"/>
     <g id="text_9">
      <!-- 0 -->
      <g style="fill:#262626;" transform="translate(18.601563 187.738443)scale(0.1 -0.1)">
       <use xlink:href="#ArialMT-48"/>
      </g>
     </g>
    </g>
    <g id="ytick_4">
     <g id="line2d_19">
      <path clip-path="url(#p427d75969b)" d="M 27.6625 150.764046 
L 474.0625 150.764046 
" style="fill:none;stroke:#cccccc;stroke-linecap:round;stroke-width:0.8;"/>
     </g>
     <g id="line2d_20"/>
     <g id="text_10">
      <!-- 10 -->
      <g style="fill:#262626;" transform="translate(13.040625 154.342952)scale(0.1 -0.1)">
       <use xlink:href="#ArialMT-49"/>
       <use x="55.615234" xlink:href="#ArialMT-48"/>
      </g>
     </g>
    </g>
    <g id="ytick_5">
     <g id="line2d_21">
      <path clip-path="url(#p427d75969b)" d="M 27.6625 117.368556 
L 474.0625 117.368556 
" style="fill:none;stroke:#cccccc;stroke-linecap:round;stroke-width:0.8;"/>
     </g>
     <g id="line2d_22"/>
     <g id="text_11">
      <!-- 20 -->
      <g style="fill:#262626;" transform="translate(13.040625 120.947462)scale(0.1 -0.1)">
       <use xlink:href="#ArialMT-50"/>
       <use x="55.615234" xlink:href="#ArialMT-48"/>
      </g>
     </g>
    </g>
    <g id="ytick_6">
     <g id="line2d_23">
      <path clip-path="url(#p427d75969b)" d="M 27.6625 83.973065 
L 474.0625 83.973065 
" style="fill:none;stroke:#cccccc;stroke-linecap:round;stroke-width:0.8;"/>
     </g>
     <g id="line2d_24"/>
     <g id="text_12">
      <!-- 30 -->
      <defs>
       <path d="M 4.203125 18.890625 
L 12.984375 20.0625 
Q 14.5 12.59375 18.140625 9.296875 
Q 21.78125 6 27 6 
Q 33.203125 6 37.46875 10.296875 
Q 41.75 14.59375 41.75 20.953125 
Q 41.75 27 37.796875 30.921875 
Q 33.84375 34.859375 27.734375 34.859375 
Q 25.25 34.859375 21.53125 33.890625 
L 22.515625 41.609375 
Q 23.390625 41.5 23.921875 41.5 
Q 29.546875 41.5 34.03125 44.421875 
Q 38.53125 47.359375 38.53125 53.46875 
Q 38.53125 58.296875 35.25 61.46875 
Q 31.984375 64.65625 26.8125 64.65625 
Q 21.6875 64.65625 18.265625 61.421875 
Q 14.84375 58.203125 13.875 51.765625 
L 5.078125 53.328125 
Q 6.6875 62.15625 12.390625 67.015625 
Q 18.109375 71.875 26.609375 71.875 
Q 32.46875 71.875 37.390625 69.359375 
Q 42.328125 66.84375 44.9375 62.5 
Q 47.5625 58.15625 47.5625 53.265625 
Q 47.5625 48.640625 45.0625 44.828125 
Q 42.578125 41.015625 37.703125 38.765625 
Q 44.046875 37.3125 47.5625 32.6875 
Q 51.078125 28.078125 51.078125 21.140625 
Q 51.078125 11.765625 44.234375 5.25 
Q 37.40625 -1.265625 26.953125 -1.265625 
Q 17.53125 -1.265625 11.296875 4.34375 
Q 5.078125 9.96875 4.203125 18.890625 
z
" id="ArialMT-51"/>
      </defs>
      <g style="fill:#262626;" transform="translate(13.040625 87.551971)scale(0.1 -0.1)">
       <use xlink:href="#ArialMT-51"/>
       <use x="55.615234" xlink:href="#ArialMT-48"/>
      </g>
     </g>
    </g>
    <g id="ytick_7">
     <g id="line2d_25">
      <path clip-path="url(#p427d75969b)" d="M 27.6625 50.577575 
L 474.0625 50.577575 
" style="fill:none;stroke:#cccccc;stroke-linecap:round;stroke-width:0.8;"/>
     </g>
     <g id="line2d_26"/>
     <g id="text_13">
      <!-- 40 -->
      <g style="fill:#262626;" transform="translate(13.040625 54.156481)scale(0.1 -0.1)">
       <use xlink:href="#ArialMT-52"/>
       <use x="55.615234" xlink:href="#ArialMT-48"/>
      </g>
     </g>
    </g>
    <g id="ytick_8">
     <g id="line2d_27">
      <path clip-path="url(#p427d75969b)" d="M 27.6625 17.182084 
L 474.0625 17.182084 
" style="fill:none;stroke:#cccccc;stroke-linecap:round;stroke-width:0.8;"/>
     </g>
     <g id="line2d_28"/>
     <g id="text_14">
      <!-- 50 -->
      <defs>
       <path d="M 4.15625 18.75 
L 13.375 19.53125 
Q 14.40625 12.796875 18.140625 9.390625 
Q 21.875 6 27.15625 6 
Q 33.5 6 37.890625 10.78125 
Q 42.28125 15.578125 42.28125 23.484375 
Q 42.28125 31 38.0625 35.34375 
Q 33.84375 39.703125 27 39.703125 
Q 22.75 39.703125 19.328125 37.765625 
Q 15.921875 35.84375 13.96875 32.765625 
L 5.71875 33.84375 
L 12.640625 70.609375 
L 48.25 70.609375 
L 48.25 62.203125 
L 19.671875 62.203125 
L 15.828125 42.96875 
Q 22.265625 47.46875 29.34375 47.46875 
Q 38.71875 47.46875 45.15625 40.96875 
Q 51.609375 34.46875 51.609375 24.265625 
Q 51.609375 14.546875 45.953125 7.46875 
Q 39.0625 -1.21875 27.15625 -1.21875 
Q 17.390625 -1.21875 11.203125 4.25 
Q 5.03125 9.71875 4.15625 18.75 
z
" id="ArialMT-53"/>
      </defs>
      <g style="fill:#262626;" transform="translate(13.040625 20.76099)scale(0.1 -0.1)">
       <use xlink:href="#ArialMT-53"/>
       <use x="55.615234" xlink:href="#ArialMT-48"/>
      </g>
     </g>
    </g>
   </g>
   <g id="line2d_29">
    <path clip-path="url(#p427d75969b)" d="M 47.953409 188.379817 
L 48.359633 182.819303 
L 48.765858 181.4425 
L 49.172082 179.647837 
L 49.578307 178.703818 
L 49.984531 182.352412 
L 50.390756 181.937913 
L 50.79698 175.802892 
L 51.203204 175.774322 
L 51.609429 179.170698 
L 52.015653 185.356687 
L 52.421878 187.738877 
L 52.828102 193.623927 
L 53.640551 188.241627 
L 54.046775 191.16601 
L 54.453 189.115589 
L 54.859224 191.040687 
L 55.265448 191.193019 
L 55.671673 189.950855 
L 56.077897 191.433481 
L 56.484122 190.03687 
L 56.890346 195.666442 
L 57.29657 195.274128 
L 57.702795 195.390852 
L 58.921468 214.478402 
L 59.327692 213.094804 
L 59.733917 212.680835 
L 60.140141 211.76594 
L 60.546366 216.195446 
L 61.358814 209.109541 
L 61.765039 211.670851 
L 62.171263 207.74334 
L 62.577488 208.581308 
L 63.389937 219.965496 
L 63.796161 217.515191 
L 64.202385 217.862667 
L 64.60861 214.919773 
L 65.014834 215.214899 
L 65.421059 214.320999 
L 65.827283 207.229378 
L 66.233507 202.564532 
L 66.639732 204.00998 
L 67.045956 202.757754 
L 67.452181 201.106529 
L 67.858405 198.563826 
L 68.264629 198.326688 
L 68.670854 199.974862 
L 69.077078 199.986961 
L 69.483303 201.590903 
L 70.295751 191.82575 
L 70.701976 192.505732 
L 71.1082 191.075429 
L 71.514425 191.627988 
L 72.326873 184.140313 
L 72.733098 182.241409 
L 73.951771 173.204934 
L 74.357995 171.431194 
L 74.76422 170.923915 
L 75.170444 172.851588 
L 75.576669 178.100527 
L 75.982893 178.193528 
L 76.389118 180.668319 
L 76.795342 180.467916 
L 77.201566 176.659199 
L 77.607791 176.082043 
L 78.014015 177.467961 
L 78.42024 180.317026 
L 78.826464 185.093033 
L 79.232688 180.642064 
L 79.638913 186.575411 
L 80.045137 189.697164 
L 80.451362 197.422216 
L 81.26381 199.621062 
L 81.670035 200.971223 
L 82.076259 201.182049 
L 82.888708 206.975901 
L 83.294932 200.905181 
L 83.701157 202.020801 
L 84.107381 198.98963 
L 84.513606 201.784068 
L 85.326054 191.341596 
L 85.732279 190.570098 
L 86.138503 194.242038 
L 86.950952 193.793517 
L 87.357176 192.993281 
L 87.763401 196.260097 
L 88.169625 201.34623 
L 88.57585 200.804011 
L 89.388299 200.83145 
L 89.794523 197.402399 
L 90.200747 202.328769 
L 90.606972 198.953508 
L 91.013196 201.435553 
L 91.419421 202.755417 
L 91.825645 205.513147 
L 92.231869 205.213857 
L 92.638094 211.57843 
L 93.450543 215.197974 
L 93.856767 210.977017 
L 94.262991 210.473753 
L 94.669216 208.151036 
L 95.07544 208.131203 
L 95.481665 211.634057 
L 95.887889 208.604402 
L 96.294113 211.427795 
L 96.700338 213.18521 
L 97.106562 212.577079 
L 97.512787 209.419406 
L 97.919011 210.091939 
L 98.325235 205.047468 
L 98.73146 206.955948 
L 99.137684 204.73318 
L 99.543909 204.721103 
L 99.950133 199.555917 
L 100.356357 198.839897 
L 100.762582 205.109276 
L 101.168806 201.474727 
L 101.575031 201.747062 
L 101.981255 203.594039 
L 102.38748 199.509889 
L 102.793704 200.61631 
L 103.199928 198.612625 
L 104.012377 203.970976 
L 104.418602 197.92445 
L 105.23105 202.505655 
L 105.637275 208.210676 
L 106.043499 202.767271 
L 106.449724 201.438136 
L 106.855948 200.644059 
L 107.262172 197.387537 
L 107.668397 201.826921 
L 108.074621 203.633773 
L 108.480846 203.939134 
L 108.88707 209.110329 
L 109.293294 204.730754 
L 109.699519 204.792299 
L 110.105743 205.871937 
L 110.511968 205.08305 
L 110.918192 207.596336 
L 111.324416 207.445679 
L 111.730641 195.999246 
L 112.136865 193.97988 
L 112.54309 188.408474 
L 112.949314 189.594291 
L 113.355538 192.104193 
L 113.761763 191.069922 
L 114.167987 195.550612 
L 114.574212 203.254811 
L 115.792885 195.885154 
L 116.199109 195.79108 
L 116.605334 189.184207 
L 117.011558 189.475844 
L 117.417783 191.325836 
L 117.824007 201.366186 
L 118.230231 201.523699 
L 118.636456 198.745602 
L 119.04268 198.722689 
L 119.448905 194.968295 
L 119.855129 187.304427 
L 120.261353 187.883338 
L 120.667578 183.771507 
L 121.073802 189.067539 
L 121.480027 185.623399 
L 121.886251 185.411369 
L 122.6987 186.696392 
L 123.104924 187.218375 
L 123.511149 188.249638 
L 123.917373 187.58616 
L 124.323597 188.168217 
L 124.729822 192.028042 
L 125.136046 190.63527 
L 125.542271 192.665275 
L 125.948495 189.165473 
L 126.354719 189.278439 
L 126.760944 188.854237 
L 127.167168 195.697747 
L 127.573393 199.894492 
L 127.979617 196.756604 
L 128.792066 200.985322 
L 129.19829 201.913516 
L 129.604515 197.359231 
L 130.010739 196.109779 
L 130.416964 191.734086 
L 130.823188 192.628243 
L 131.229412 191.91633 
L 131.635637 195.934621 
L 132.041861 192.000528 
L 132.448086 191.637692 
L 132.85431 191.490321 
L 133.260534 190.360499 
L 133.666759 185.528866 
L 134.072983 186.245183 
L 134.479208 180.691383 
L 134.885432 183.535084 
L 135.291656 182.125178 
L 135.697881 175.415294 
L 136.104105 177.051054 
L 136.51033 176.232011 
L 136.916554 173.301539 
L 137.322778 173.762062 
L 137.729003 178.772565 
L 138.135227 182.298994 
L 138.541452 180.358941 
L 139.760125 170.933055 
L 140.166349 170.692656 
L 140.572574 169.997252 
L 140.978798 175.069588 
L 141.385023 174.009852 
L 141.791247 171.963775 
L 142.197471 173.911438 
L 142.603696 171.760762 
L 143.00992 177.825012 
L 143.416145 175.316678 
L 143.822369 174.313864 
L 144.228593 167.265383 
L 145.041042 157.51368 
L 145.853491 152.624538 
L 146.259715 156.570653 
L 146.66594 157.689707 
L 147.072164 151.589258 
L 147.478389 156.452191 
L 147.884613 157.955929 
L 148.290837 162.695531 
L 148.697062 157.850006 
L 149.103286 159.73946 
L 149.509511 154.581412 
L 150.321959 157.646766 
L 151.134408 150.241781 
L 151.540633 159.312932 
L 151.946857 157.806325 
L 152.353081 155.802038 
L 152.759306 155.101378 
L 153.16553 157.297659 
L 153.571755 157.202788 
L 153.977979 158.532133 
L 154.384204 157.82641 
L 154.790428 158.502315 
L 155.196652 160.579275 
L 155.602877 160.032356 
L 156.009101 157.352571 
L 156.415326 156.387422 
L 156.82155 158.236338 
L 157.227774 157.113401 
L 157.633999 153.540777 
L 158.446448 144.180165 
L 158.852672 142.385558 
L 159.258896 145.755577 
L 159.665121 150.315907 
L 160.071345 150.991769 
L 160.47757 155.697811 
L 160.883794 158.318638 
L 161.290018 158.88677 
L 161.696243 160.503814 
L 162.102467 161.598913 
L 162.508692 166.03385 
L 162.914916 165.260855 
L 163.32114 161.932967 
L 163.727365 163.763499 
L 164.133589 161.339804 
L 164.539814 152.447497 
L 164.946038 152.754105 
L 165.352262 150.579357 
L 165.758487 149.922234 
L 166.164711 146.684128 
L 166.570936 152.423643 
L 166.97716 155.953402 
L 167.383385 155.474297 
L 167.789609 152.512242 
L 168.195833 152.076351 
L 168.602058 157.635275 
L 169.414507 163.039732 
L 169.820731 161.740674 
L 170.63318 166.559129 
L 171.445629 158.477208 
L 171.851853 159.857359 
L 172.258077 158.438376 
L 172.664302 164.721683 
L 173.070526 164.05936 
L 173.476751 160.08537 
L 173.882975 158.326157 
L 174.289199 157.988659 
L 174.695424 159.286551 
L 175.101648 161.446545 
L 175.507873 162.0446 
L 175.914097 167.225713 
L 176.320321 161.847507 
L 176.726546 159.963297 
L 177.13277 160.305391 
L 177.538995 162.375259 
L 177.945219 162.610162 
L 178.757668 156.568107 
L 179.570117 162.837174 
L 179.976341 155.896823 
L 180.382566 152.101116 
L 180.78879 149.734978 
L 181.195014 150.197994 
L 181.601239 147.112183 
L 182.007463 151.364208 
L 182.413688 146.248792 
L 182.819912 146.368255 
L 183.632361 141.569058 
L 184.44481 142.59409 
L 185.257258 135.086515 
L 186.069707 146.65684 
L 187.28838 156.536201 
L 187.694605 155.627474 
L 188.100829 157.176038 
L 188.913278 148.296169 
L 189.319502 148.391958 
L 189.725727 142.769967 
L 190.131951 142.689103 
L 190.538176 144.141107 
L 190.9444 143.924752 
L 191.350624 140.769346 
L 191.756849 146.160917 
L 192.163073 146.857545 
L 192.975522 144.651805 
L 193.381747 145.882216 
L 193.787971 144.249893 
L 194.194195 143.274338 
L 194.60042 145.251044 
L 195.006644 137.965489 
L 195.412869 136.497589 
L 195.819093 137.603592 
L 196.225317 139.512876 
L 196.631542 136.075114 
L 197.037766 135.734281 
L 197.443991 127.224733 
L 197.850215 128.680523 
L 198.256439 132.83027 
L 198.662664 132.92277 
L 199.068888 132.338124 
L 199.475113 139.412794 
L 200.287561 141.675619 
L 200.693786 142.907123 
L 201.10001 145.011793 
L 201.506235 149.49745 
L 201.912459 146.965945 
L 202.318683 148.91571 
L 203.131132 154.872249 
L 203.537357 156.449595 
L 203.943581 156.086763 
L 204.349805 153.854812 
L 204.75603 157.038002 
L 205.162254 158.638639 
L 205.568479 163.132028 
L 205.974703 174.46078 
L 206.380928 173.940499 
L 206.787152 168.864373 
L 207.193376 167.12085 
L 207.599601 168.814202 
L 208.005825 168.492005 
L 208.41205 172.415374 
L 208.818274 172.823775 
L 209.224498 174.252131 
L 209.630723 177.099812 
L 210.036947 175.745117 
L 210.443172 167.062733 
L 210.849396 161.500883 
L 211.25562 161.741574 
L 212.068069 155.907976 
L 212.474294 158.070461 
L 212.880518 155.920112 
L 213.286742 160.732376 
L 213.692967 163.421709 
L 214.099191 162.624382 
L 214.505416 164.009586 
L 214.91164 158.143739 
L 215.317864 155.979576 
L 216.130313 158.826935 
L 216.536538 158.202538 
L 216.942762 161.727536 
L 217.348986 159.738461 
L 217.755211 164.331349 
L 218.161435 162.250776 
L 218.56766 162.800449 
L 218.973884 161.415826 
L 219.380109 164.797407 
L 219.786333 163.979267 
L 220.192557 155.923113 
L 220.598782 157.450011 
L 221.005006 156.390038 
L 221.411231 151.362124 
L 221.817455 148.818375 
L 222.223679 147.376073 
L 223.036128 155.027907 
L 223.442353 154.849466 
L 223.848577 156.396465 
L 224.254801 156.460111 
L 224.661026 155.773311 
L 225.06725 158.032275 
L 225.473475 156.382193 
L 225.879699 150.175454 
L 226.285923 153.546197 
L 226.692148 155.11427 
L 227.098372 155.279948 
L 227.504597 151.471327 
L 228.317045 158.990422 
L 228.72327 166.216074 
L 229.129494 167.686685 
L 229.535719 165.415305 
L 229.941943 161.857935 
L 230.348167 160.665203 
L 230.754392 162.672128 
L 231.160616 160.312831 
L 231.566841 159.630499 
L 231.973065 166.04479 
L 232.37929 170.146073 
L 232.785514 165.097125 
L 233.191738 164.021105 
L 233.597963 168.612298 
L 234.004187 165.874025 
L 234.410412 162.329311 
L 234.816636 163.782128 
L 235.22286 161.585766 
L 235.629085 174.076016 
L 236.441534 166.900219 
L 236.847758 170.656219 
L 237.253982 169.714181 
L 237.660207 170.843351 
L 238.066431 171.185754 
L 238.472656 172.604663 
L 238.87888 177.053929 
L 239.285104 170.740833 
L 239.691329 171.777131 
L 240.097553 171.427297 
L 240.910002 178.260908 
L 241.722451 175.125103 
L 242.5349 168.507125 
L 242.941124 169.209123 
L 243.347348 170.692561 
L 243.753573 168.19854 
L 244.159797 170.327299 
L 244.566022 167.416019 
L 244.972246 166.165357 
L 245.378471 162.30809 
L 245.784695 160.069284 
L 246.597144 166.481483 
L 247.003368 164.035313 
L 247.409593 157.666606 
L 247.815817 162.084201 
L 248.222041 162.006684 
L 248.628266 161.066018 
L 249.03449 166.161427 
L 249.440715 164.564705 
L 249.846939 164.875693 
L 250.253163 171.87725 
L 250.659388 166.46141 
L 251.065612 169.344136 
L 251.471837 173.627119 
L 251.878061 172.224036 
L 252.284285 170.362281 
L 252.69051 167.902999 
L 253.096734 169.192076 
L 253.502959 169.228525 
L 253.909183 171.66909 
L 254.315407 176.044558 
L 254.721632 172.440749 
L 255.127856 172.78393 
L 255.534081 173.392777 
L 255.940305 180.069429 
L 256.346529 180.665108 
L 256.752754 183.47866 
L 257.565203 184.793968 
L 257.971427 186.284959 
L 258.377652 183.149661 
L 258.783876 181.656702 
L 259.1901 177.892514 
L 259.596325 182.31684 
L 260.002549 184.48406 
L 260.408774 184.61858 
L 260.814998 185.976571 
L 261.221222 186.241256 
L 261.627447 190.188948 
L 262.033671 192.58066 
L 262.439896 198.06271 
L 262.84612 201.034994 
L 263.252344 198.716756 
L 263.658569 199.432111 
L 264.064793 194.403574 
L 264.471018 196.392389 
L 264.877242 195.994745 
L 265.283466 200.046461 
L 265.689691 191.361389 
L 266.095915 191.957901 
L 266.50214 189.187312 
L 266.908364 187.806792 
L 267.314588 189.756684 
L 267.720813 194.201294 
L 268.127037 193.679847 
L 268.533262 195.539273 
L 268.939486 196.058588 
L 269.34571 193.883533 
L 269.751935 193.622242 
L 270.158159 192.362844 
L 270.564384 191.861756 
L 270.970608 196.761707 
L 271.783057 188.172673 
L 272.189281 191.966951 
L 272.595506 190.279475 
L 273.407955 194.984701 
L 273.814179 195.00087 
L 274.220403 189.164446 
L 274.626628 185.631345 
L 275.032852 183.610179 
L 275.439077 187.452683 
L 275.845301 178.921973 
L 276.251525 176.004106 
L 276.65775 183.848163 
L 277.063974 182.514099 
L 277.470199 184.146119 
L 278.282647 181.439005 
L 278.688872 184.506444 
L 279.095096 178.408809 
L 279.501321 177.741619 
L 279.907545 174.597941 
L 280.313769 170.084796 
L 281.126218 175.594805 
L 281.938667 167.196692 
L 282.344891 171.795313 
L 282.751116 165.078667 
L 283.15734 165.865142 
L 283.969789 161.670092 
L 284.782238 167.799468 
L 285.188462 174.757727 
L 285.594687 178.602049 
L 286.000911 183.552851 
L 286.407136 183.418632 
L 286.81336 178.845447 
L 287.219584 178.936099 
L 287.625809 177.804478 
L 288.438258 172.936374 
L 288.844482 174.224878 
L 289.250706 179.11179 
L 289.656931 180.547147 
L 290.063155 180.336891 
L 290.46938 183.247793 
L 290.875604 182.039007 
L 291.281828 183.016534 
L 291.688053 180.93993 
L 292.500502 186.701344 
L 292.906726 180.776796 
L 293.31295 180.680763 
L 293.719175 178.834113 
L 294.125399 182.502348 
L 294.531624 183.762241 
L 294.937848 181.484103 
L 295.344072 176.255652 
L 296.156521 181.356488 
L 296.562746 181.432192 
L 296.96897 186.522984 
L 297.375195 186.623616 
L 297.781419 186.839779 
L 298.187643 184.419444 
L 298.593868 179.695285 
L 299.000092 177.792262 
L 299.406317 175.315816 
L 299.812541 175.141228 
L 300.218765 176.342613 
L 300.62499 183.008275 
L 301.031214 185.967853 
L 301.437439 185.24228 
L 301.843663 190.737821 
L 302.249887 189.926679 
L 302.656112 191.265286 
L 303.062336 194.676835 
L 303.468561 196.246505 
L 304.281009 190.855529 
L 304.687234 197.324307 
L 305.093458 197.823516 
L 305.499683 194.771553 
L 305.905907 195.632806 
L 306.312131 195.269412 
L 306.718356 200.26341 
L 307.12458 201.866506 
L 307.530805 195.75922 
L 307.937029 198.391012 
L 308.343253 203.202075 
L 308.749478 202.702906 
L 309.155702 200.06924 
L 309.561927 196.082451 
L 309.968151 197.811411 
L 310.374376 197.068443 
L 311.186824 193.082473 
L 311.593049 194.909884 
L 311.999273 189.190155 
L 312.405498 191.485417 
L 312.811722 189.121443 
L 313.217946 189.194617 
L 314.842844 196.752977 
L 315.249068 200.155596 
L 315.655293 197.826562 
L 316.467742 202.229878 
L 316.873966 200.597872 
L 317.28019 200.958416 
L 317.686415 205.706933 
L 318.092639 208.832783 
L 318.498864 209.489195 
L 318.905088 211.409395 
L 319.311312 208.903122 
L 320.123761 214.685648 
L 320.529986 218.060417 
L 321.342434 215.087788 
L 321.748659 220.672998 
L 322.154883 218.595548 
L 322.561108 215.720285 
L 322.967332 221.367455 
L 323.373557 223.673185 
L 323.779781 218.901329 
L 324.186005 215.541403 
L 324.59223 215.458606 
L 324.998454 213.784659 
L 325.404679 206.731466 
L 325.810903 205.052351 
L 326.217127 209.129302 
L 326.623352 204.571021 
L 327.029576 207.479565 
L 327.435801 204.160379 
L 327.842025 201.968731 
L 328.248249 198.998157 
L 328.654474 193.852136 
L 329.060698 198.747629 
L 329.466923 198.980023 
L 329.873147 192.481095 
L 330.279371 189.220421 
L 330.685596 188.628792 
L 331.09182 192.045728 
L 331.498045 191.68933 
L 331.904269 194.734602 
L 332.310493 199.638286 
L 332.716718 197.713107 
L 333.122942 197.495016 
L 333.529167 200.0782 
L 333.935391 198.759251 
L 334.341615 200.442016 
L 334.74784 194.499091 
L 335.154064 194.601189 
L 335.560289 189.334426 
L 335.966513 192.048818 
L 336.372738 190.000509 
L 336.778962 183.843382 
L 337.185186 182.93806 
L 337.591411 179.142838 
L 337.997635 184.948082 
L 338.40386 182.586571 
L 338.810084 182.485095 
L 339.622533 177.032723 
L 340.028757 184.567581 
L 340.434982 186.049014 
L 340.841206 188.28659 
L 341.24743 187.77843 
L 341.653655 194.258936 
L 342.059879 197.900744 
L 342.466104 194.55478 
L 342.872328 193.964039 
L 343.278552 197.597517 
L 343.684777 198.443149 
L 344.091001 194.775412 
L 344.497226 200.918736 
L 345.309674 202.391784 
L 345.715899 201.767357 
L 346.122123 200.08496 
L 346.528348 193.705278 
L 346.934572 191.855899 
L 347.340796 193.817822 
L 347.747021 189.616836 
L 348.153245 192.484401 
L 348.55947 191.027733 
L 348.965694 185.779755 
L 349.778143 179.473336 
L 350.184367 186.925665 
L 350.590592 187.262968 
L 350.996816 189.224536 
L 351.403041 184.800073 
L 351.809265 181.992686 
L 352.215489 181.120709 
L 352.621714 178.467633 
L 353.027938 180.637059 
L 353.434163 178.518834 
L 353.840387 178.201568 
L 354.246611 183.82272 
L 354.652836 182.673761 
L 355.05906 180.312172 
L 355.465285 176.326706 
L 355.871509 174.565466 
L 356.277733 171.203529 
L 356.683958 176.988721 
L 357.090182 178.235749 
L 357.496407 178.711669 
L 357.902631 179.81286 
L 358.308855 180.110221 
L 358.71508 182.038464 
L 359.121304 179.580003 
L 359.527529 182.890183 
L 359.933753 182.472156 
L 360.339977 182.227859 
L 360.746202 181.747173 
L 361.152426 184.912145 
L 361.558651 180.239348 
L 361.964875 180.9945 
L 362.3711 185.799624 
L 362.777324 183.12364 
L 363.183548 183.134765 
L 363.995997 183.778674 
L 364.402222 182.458092 
L 364.808446 182.6359 
L 365.21467 185.21904 
L 365.620895 189.95848 
L 366.027119 188.945087 
L 366.433344 194.015213 
L 366.839568 190.275894 
L 368.058241 199.577789 
L 368.464466 204.129854 
L 368.87069 206.709985 
L 369.276914 207.657166 
L 370.089363 223.596271 
L 370.495588 225.986937 
L 370.901812 223.03679 
L 371.308036 227.379673 
L 371.714261 227.634611 
L 372.120485 222.857196 
L 372.52671 227.276784 
L 372.932934 228.740696 
L 373.339158 231.22249 
L 373.745383 228.243721 
L 374.151607 226.694595 
L 374.557832 224.631886 
L 374.964056 216.294979 
L 375.370281 210.853266 
L 375.776505 211.184031 
L 376.182729 211.858593 
L 376.995178 222.421555 
L 377.401403 222.587336 
L 377.807627 226.926731 
L 378.213851 224.838325 
L 379.0263 229.429079 
L 379.432525 234.614332 
L 379.838749 227.56737 
L 380.244973 225.033222 
L 380.651198 227.404069 
L 381.057422 226.899306 
L 381.463647 222.480778 
L 381.869871 225.579295 
L 382.276095 219.212115 
L 382.68232 222.659114 
L 383.088544 223.251421 
L 383.494769 228.762941 
L 383.900993 237.240423 
L 384.307217 233.867175 
L 384.713442 233.580969 
L 385.525891 244.850151 
L 385.932115 241.025161 
L 386.338339 241.52808 
L 386.744564 236.747705 
L 387.150788 234.621793 
L 387.557013 234.844083 
L 387.963237 234.736115 
L 388.369462 236.589811 
L 388.775686 236.263249 
L 389.18191 236.466911 
L 389.588135 233.669983 
L 389.994359 234.215727 
L 390.806808 228.390927 
L 391.213032 227.787261 
L 391.619257 232.171983 
L 392.025481 232.707903 
L 392.431706 239.073333 
L 392.83793 243.102905 
L 393.244154 240.663637 
L 393.650379 239.010918 
L 394.056603 239.021635 
L 394.462828 240.031625 
L 394.869052 242.500891 
L 395.275276 244.213452 
L 395.681501 240.989947 
L 396.087725 239.398053 
L 396.49395 243.977298 
L 397.306398 242.845806 
L 397.712623 237.33998 
L 398.118847 243.209411 
L 398.525072 245.82471 
L 398.931296 242.573239 
L 399.33752 246.283252 
L 399.743745 238.316351 
L 400.149969 242.253493 
L 400.556194 242.156238 
L 400.962418 240.287602 
L 401.774867 234.956861 
L 402.181091 236.499992 
L 402.587316 233.450292 
L 402.99354 235.970491 
L 403.399765 237.757074 
L 403.805989 236.232094 
L 404.212213 231.190788 
L 404.618438 231.952777 
L 405.024662 234.926116 
L 405.430887 230.886023 
L 405.837111 235.109885 
L 406.243335 228.971188 
L 406.64956 232.25758 
L 407.055784 230.117101 
L 407.868233 224.400711 
L 408.274457 223.642624 
L 408.680682 223.477218 
L 409.086906 228.998095 
L 409.493131 231.605681 
L 410.305579 226.970341 
L 410.711804 230.436396 
L 411.524253 228.435973 
L 411.930477 222.588693 
L 412.742926 225.722053 
L 413.555375 232.143076 
L 413.961599 230.890918 
L 414.367824 233.243099 
L 414.774048 229.654073 
L 415.180272 231.748969 
L 415.586497 226.626115 
L 415.992721 225.231101 
L 416.398946 224.368216 
L 416.80517 228.210128 
L 417.211394 227.111035 
L 417.617619 226.959013 
L 418.023843 224.848142 
L 418.430068 226.554141 
L 418.836292 231.40861 
L 419.242516 230.489494 
L 419.648741 230.022667 
L 420.054965 229.208177 
L 420.46119 225.849759 
L 420.867414 228.987735 
L 421.273638 236.941706 
L 422.086087 233.999765 
L 422.492312 235.592918 
L 422.898536 235.023197 
L 423.30476 238.522313 
L 424.117209 251.209622 
L 424.523434 251.068155 
L 424.929658 246.450526 
L 425.335882 247.751342 
L 425.742107 245.033156 
L 426.148331 247.017957 
L 426.554556 247.203098 
L 426.96078 244.542945 
L 427.367005 244.098184 
L 427.773229 245.907145 
L 428.179453 248.796865 
L 428.585678 249.105867 
L 428.991902 245.158179 
L 429.398127 250.403457 
L 429.804351 247.53368 
L 430.210575 246.586427 
L 430.6168 249.822825 
L 431.023024 249.884185 
L 431.429249 250.565571 
L 431.835473 253.730597 
L 432.241697 255.532067 
L 432.647922 259.7275 
L 433.054146 266.645455 
L 433.460371 266.140393 
L 433.866595 262.652269 
L 434.272819 257.19762 
L 434.679044 260.909123 
L 435.085268 253.737892 
L 435.897717 243.886951 
L 436.303941 246.510722 
L 436.710166 248.388389 
L 437.11639 254.861629 
L 437.522615 254.223243 
L 437.928839 255.5377 
L 438.335063 254.997392 
L 438.741288 257.784306 
L 439.147512 255.537222 
L 439.553737 254.391128 
L 439.959961 258.211983 
L 440.366186 258.365228 
L 440.77241 257.41451 
L 441.178634 250.707221 
L 441.584859 250.387356 
L 441.991083 253.527898 
L 442.397308 254.584074 
L 442.803532 254.688347 
L 443.209756 255.134495 
L 443.615981 261.28418 
L 444.022205 262.391498 
L 444.42843 264.706837 
L 444.834654 265.576833 
L 445.240878 258.493775 
L 445.647103 261.27325 
L 446.459552 252.595234 
L 446.865776 250.31266 
L 447.272 250.302272 
L 447.678225 248.116893 
L 448.490674 251.44435 
L 448.896898 253.94187 
L 449.303122 253.027163 
L 450.115571 254.527808 
L 450.521796 249.784884 
L 450.92802 252.138426 
L 451.334244 249.682639 
L 451.740469 251.425642 
L 452.552918 261.504887 
L 452.959142 263.14645 
L 453.771591 258.900555 
L 453.771591 258.900555 
" style="fill:none;stroke:#ffa500;stroke-linecap:round;stroke-width:1.5;"/>
   </g>
   <g id="line2d_30">
    <path clip-path="url(#p427d75969b)" d="M 47.953409 184.963323 
L 48.359633 182.898074 
L 48.765858 182.643389 
L 49.172082 183.516649 
L 49.578307 180.662232 
L 50.390756 173.302129 
L 50.79698 174.326946 
L 51.203204 172.431059 
L 51.609429 179.541779 
L 52.015653 178.890343 
L 52.421878 177.684758 
L 52.828102 177.17723 
L 53.234326 177.91952 
L 53.640551 173.562166 
L 54.046775 173.873538 
L 54.453 174.339532 
L 54.859224 175.144152 
L 55.265448 171.690706 
L 55.671673 172.66739 
L 56.077897 175.45374 
L 56.484122 175.816945 
L 56.890346 170.113951 
L 57.29657 171.118107 
L 57.702795 169.061707 
L 58.515244 170.914681 
L 58.921468 172.787639 
L 59.327692 176.849546 
L 59.733917 177.216167 
L 60.140141 174.816849 
L 60.546366 169.553075 
L 60.95259 168.07743 
L 61.358814 170.805378 
L 61.765039 168.315729 
L 62.171263 166.799476 
L 62.577488 162.129573 
L 62.983712 155.151217 
L 63.389937 151.094975 
L 63.796161 152.40661 
L 64.202385 152.938365 
L 64.60861 149.071366 
L 65.014834 150.766832 
L 65.421059 151.235983 
L 65.827283 149.117573 
L 66.233507 145.542231 
L 66.639732 144.79781 
L 67.045956 154.457522 
L 67.452181 153.324192 
L 67.858405 154.366296 
L 68.264629 157.625432 
L 68.670854 157.544848 
L 69.077078 153.803003 
L 69.483303 157.576284 
L 69.889527 152.266658 
L 70.701976 145.878455 
L 71.1082 148.599215 
L 71.514425 149.438251 
L 71.920649 150.716747 
L 72.326873 150.715608 
L 72.733098 150.923344 
L 73.139322 151.983146 
L 73.951771 153.28406 
L 74.357995 152.390785 
L 74.76422 157.907109 
L 75.170444 156.282156 
L 75.576669 150.614034 
L 75.982893 147.032365 
L 76.389118 150.191235 
L 76.795342 146.702715 
L 77.201566 139.056391 
L 77.607791 139.866419 
L 78.014015 137.458498 
L 78.42024 129.779604 
L 78.826464 126.338882 
L 79.232688 121.160174 
L 79.638913 124.817733 
L 80.045137 124.030866 
L 80.451362 122.721866 
L 80.857586 120.837401 
L 81.26381 118.200802 
L 81.670035 117.679248 
L 82.076259 122.062053 
L 82.482484 118.501184 
L 82.888708 117.235961 
L 83.294932 121.172009 
L 84.107381 116.790601 
L 84.513606 114.997148 
L 84.91983 115.955048 
L 85.326054 110.496871 
L 85.732279 108.589231 
L 86.138503 111.227322 
L 86.544728 116.379437 
L 86.950952 118.941981 
L 87.357176 126.855454 
L 87.763401 127.725606 
L 88.169625 127.294948 
L 88.57585 131.328009 
L 88.982074 133.149545 
L 89.388299 127.962281 
L 89.794523 127.603977 
L 90.200747 122.476622 
L 91.013196 123.68465 
L 91.419421 131.029167 
L 91.825645 128.593672 
L 92.231869 124.918303 
L 93.044318 127.097935 
L 93.450543 124.38276 
L 94.262991 129.45427 
L 94.669216 128.395305 
L 95.07544 130.419912 
L 95.481665 128.379254 
L 95.887889 131.452673 
L 96.294113 126.411593 
L 96.700338 124.219301 
L 97.106562 123.999388 
L 98.325235 133.445708 
L 98.73146 138.228621 
L 99.137684 133.752188 
L 99.543909 132.609813 
L 99.950133 129.034397 
L 100.762582 118.863229 
L 101.168806 117.361712 
L 101.575031 118.734435 
L 101.981255 116.232112 
L 102.38748 115.527007 
L 102.793704 116.397464 
L 103.199928 118.117995 
L 103.606153 114.513897 
L 104.012377 109.579838 
L 104.418602 110.498577 
L 104.824826 111.957986 
L 105.23105 109.626414 
L 105.637275 111.747616 
L 106.043499 109.731608 
L 106.449724 103.931047 
L 106.855948 105.326425 
L 107.262172 105.244562 
L 107.668397 98.599885 
L 108.074621 99.846098 
L 108.480846 99.375099 
L 109.699519 109.472183 
L 110.105743 99.703168 
L 110.511968 97.793774 
L 110.918192 97.946978 
L 111.324416 101.477096 
L 111.730641 107.570748 
L 112.136865 106.763451 
L 112.54309 107.248193 
L 112.949314 105.571764 
L 113.355538 103.259698 
L 113.761763 99.879155 
L 114.167987 100.020008 
L 114.574212 97.942773 
L 114.980436 99.30376 
L 115.386661 102.147207 
L 115.792885 103.276587 
L 116.605334 98.683153 
L 117.011558 98.725275 
L 117.417783 97.648512 
L 117.824007 92.280159 
L 118.230231 98.299396 
L 118.636456 102.490757 
L 119.04268 102.534284 
L 119.448905 100.195406 
L 119.855129 100.914321 
L 120.261353 97.898413 
L 121.073802 115.724607 
L 121.480027 117.620814 
L 121.886251 108.713161 
L 122.292475 108.713389 
L 122.6987 116.198818 
L 123.104924 117.401155 
L 123.511149 115.339004 
L 123.917373 112.125615 
L 124.323597 110.554194 
L 124.729822 111.341674 
L 125.136046 109.074823 
L 125.542271 105.222259 
L 125.948495 107.074817 
L 126.760944 107.942093 
L 127.979617 125.579132 
L 128.385842 125.297482 
L 129.19829 127.423793 
L 129.604515 127.538686 
L 130.010739 125.804561 
L 130.416964 128.050685 
L 130.823188 124.131353 
L 131.229412 129.448681 
L 131.635637 129.494264 
L 132.041861 129.822693 
L 132.448086 126.984487 
L 132.85431 128.637516 
L 133.260534 125.068437 
L 133.666759 125.849445 
L 134.072983 126.189428 
L 134.479208 126.687279 
L 135.291656 121.506822 
L 135.697881 123.526384 
L 136.104105 128.231444 
L 136.51033 131.507881 
L 136.916554 130.956244 
L 137.322778 131.011834 
L 137.729003 130.541182 
L 138.135227 132.96293 
L 138.541452 130.305515 
L 138.947676 130.89474 
L 139.3539 136.349675 
L 139.760125 135.830876 
L 140.166349 134.00272 
L 140.978798 133.087746 
L 141.385023 132.329095 
L 141.791247 135.848075 
L 142.197471 130.73271 
L 142.603696 131.823052 
L 143.00992 126.92445 
L 143.416145 128.774991 
L 143.822369 125.546731 
L 144.228593 124.744639 
L 144.634818 124.409634 
L 145.041042 127.544774 
L 145.447267 123.517884 
L 145.853491 122.118707 
L 146.259715 122.420101 
L 146.66594 118.388013 
L 147.072164 118.092195 
L 147.478389 110.712441 
L 147.884613 107.317198 
L 148.290837 108.421617 
L 148.697062 103.885234 
L 149.103286 103.682001 
L 149.509511 96.983228 
L 149.915735 96.710526 
L 150.321959 96.97505 
L 150.728184 96.661238 
L 151.134408 95.327066 
L 151.540633 90.153065 
L 151.946857 89.175055 
L 152.353081 89.531435 
L 152.759306 91.179369 
L 153.16553 88.555547 
L 153.571755 90.40681 
L 154.384204 97.456855 
L 154.790428 99.009503 
L 155.196652 99.425058 
L 155.602877 95.907938 
L 156.009101 97.835671 
L 156.415326 93.837802 
L 156.82155 99.307002 
L 157.227774 90.508617 
L 157.633999 95.806558 
L 158.040223 95.145036 
L 158.446448 95.871655 
L 158.852672 98.494252 
L 159.258896 96.235352 
L 159.665121 92.704734 
L 160.071345 93.279758 
L 160.47757 89.240958 
L 160.883794 89.027034 
L 161.290018 92.579579 
L 161.696243 92.84403 
L 162.102467 94.605629 
L 162.508692 93.068719 
L 162.914916 94.401756 
L 163.32114 94.649495 
L 163.727365 98.274099 
L 164.133589 94.702931 
L 164.539814 95.890569 
L 164.946038 99.462141 
L 165.352262 90.674203 
L 165.758487 95.3929 
L 166.164711 93.698312 
L 166.570936 100.923979 
L 166.97716 99.893652 
L 167.383385 99.265438 
L 167.789609 100.108267 
L 168.195833 104.661889 
L 169.008282 110.222544 
L 169.820731 117.309633 
L 170.226955 112.51696 
L 170.63318 111.210498 
L 171.039404 106.766134 
L 171.445629 110.068421 
L 171.851853 111.508779 
L 172.258077 117.309741 
L 172.664302 121.285327 
L 173.070526 122.257513 
L 173.476751 123.662149 
L 173.882975 117.726589 
L 174.289199 117.365762 
L 174.695424 118.251076 
L 175.101648 116.716678 
L 175.507873 116.626916 
L 175.914097 120.252676 
L 176.320321 122.346198 
L 177.13277 113.32025 
L 177.538995 112.4612 
L 177.945219 109.056579 
L 178.351443 103.570337 
L 178.757668 105.045502 
L 179.570117 103.69163 
L 179.976341 106.452814 
L 180.382566 104.961934 
L 180.78879 108.781303 
L 181.195014 108.4398 
L 181.601239 109.337851 
L 182.007463 107.903358 
L 182.413688 112.427983 
L 182.819912 114.168221 
L 183.226136 107.879302 
L 183.632361 108.329627 
L 184.038585 108.102056 
L 184.44481 110.338122 
L 184.851034 110.186604 
L 185.257258 108.918339 
L 185.663483 110.506508 
L 186.069707 111.339713 
L 186.475932 111.895613 
L 186.882156 110.907984 
L 187.28838 107.132566 
L 187.694605 109.367812 
L 188.507054 103.989179 
L 188.913278 103.138154 
L 189.319502 99.525925 
L 190.131951 98.835024 
L 190.538176 99.414611 
L 191.350624 101.020473 
L 191.756849 107.234776 
L 192.163073 105.230133 
L 192.569298 106.306324 
L 192.975522 111.211674 
L 193.381747 107.971236 
L 193.787971 111.229107 
L 194.194195 108.358791 
L 194.60042 110.835253 
L 195.006644 107.633001 
L 195.412869 101.291461 
L 195.819093 106.618251 
L 196.225317 107.46971 
L 196.631542 104.274401 
L 197.443991 102.399626 
L 197.850215 99.341924 
L 198.256439 101.976361 
L 198.662664 106.261159 
L 199.068888 108.644962 
L 199.475113 104.1915 
L 199.881337 106.742603 
L 200.287561 111.86867 
L 200.693786 108.005544 
L 201.506235 111.215485 
L 201.912459 115.87039 
L 202.724908 112.202381 
L 203.131132 114.040655 
L 203.537357 118.027183 
L 203.943581 124.345944 
L 204.349805 122.448885 
L 204.75603 113.777762 
L 205.162254 112.427506 
L 205.568479 110.395985 
L 205.974703 109.906537 
L 206.380928 108.739108 
L 206.787152 109.517278 
L 207.193376 108.534821 
L 207.599601 111.209823 
L 208.005825 115.353179 
L 208.818274 114.653874 
L 209.224498 118.575915 
L 209.630723 120.417448 
L 210.036947 121.586534 
L 210.443172 119.19614 
L 210.849396 118.666262 
L 211.25562 119.226004 
L 211.661845 124.543287 
L 212.068069 123.640237 
L 212.474294 121.872951 
L 212.880518 114.532246 
L 213.286742 113.041694 
L 214.099191 106.837575 
L 214.505416 112.891183 
L 215.317864 113.87389 
L 215.724089 115.409981 
L 216.130313 112.549544 
L 216.536538 107.117031 
L 216.942762 110.204342 
L 217.348986 110.725293 
L 217.755211 109.305992 
L 218.161435 111.909343 
L 218.56766 118.977619 
L 218.973884 119.695833 
L 219.380109 123.382998 
L 219.786333 129.856576 
L 220.192557 126.844647 
L 220.598782 121.382877 
L 221.411231 118.22737 
L 221.817455 116.777728 
L 222.223679 117.036904 
L 222.629904 115.536882 
L 223.036128 115.975371 
L 223.442353 118.483156 
L 223.848577 114.216375 
L 224.254801 111.715849 
L 224.661026 102.841755 
L 225.06725 105.575534 
L 225.473475 110.401687 
L 225.879699 105.920803 
L 226.285923 106.272089 
L 226.692148 101.741032 
L 227.098372 95.015133 
L 227.504597 99.599097 
L 227.910821 102.462521 
L 228.317045 108.077266 
L 228.72327 108.580198 
L 229.129494 110.988226 
L 229.535719 117.469898 
L 229.941943 117.136261 
L 230.348167 112.855505 
L 230.754392 116.095133 
L 231.160616 111.936137 
L 231.566841 109.6089 
L 231.973065 109.824475 
L 232.37929 113.357185 
L 232.785514 114.924176 
L 233.191738 107.816294 
L 233.597963 109.116183 
L 234.004187 107.213933 
L 234.410412 108.129969 
L 234.816636 111.798186 
L 235.22286 109.49483 
L 235.629085 103.987084 
L 236.035309 100.430022 
L 236.441534 95.056537 
L 236.847758 94.578926 
L 237.253982 94.587465 
L 237.660207 92.82525 
L 238.066431 93.568705 
L 238.472656 95.210043 
L 238.87888 100.532749 
L 239.285104 97.131842 
L 239.691329 96.965915 
L 240.503778 108.38804 
L 240.910002 102.471505 
L 241.316226 98.879475 
L 241.722451 97.599083 
L 242.128675 102.498193 
L 242.5349 103.382445 
L 242.941124 106.829123 
L 243.347348 108.046172 
L 243.753573 108.770434 
L 244.159797 111.192549 
L 244.566022 115.84711 
L 244.972246 113.380168 
L 245.378471 112.547461 
L 245.784695 110.715546 
L 246.597144 103.242151 
L 247.003368 97.687712 
L 247.409593 94.595736 
L 247.815817 93.062496 
L 248.222041 94.439544 
L 248.628266 98.746665 
L 249.03449 96.775466 
L 249.440715 97.750817 
L 249.846939 91.079646 
L 250.253163 92.764625 
L 251.065612 90.878639 
L 251.471837 95.798576 
L 251.878061 98.353656 
L 252.284285 104.988205 
L 252.69051 104.071487 
L 253.096734 103.448057 
L 253.502959 100.964224 
L 253.909183 103.386028 
L 254.315407 106.924365 
L 254.721632 107.999575 
L 255.127856 106.619487 
L 255.534081 110.236199 
L 256.346529 107.323772 
L 256.752754 104.584285 
L 257.158978 105.778059 
L 257.565203 105.487058 
L 257.971427 101.384416 
L 258.377652 103.721995 
L 258.783876 103.849712 
L 259.1901 97.150488 
L 259.596325 96.135109 
L 260.002549 92.985 
L 260.408774 91.981538 
L 260.814998 88.618833 
L 261.221222 87.00022 
L 262.439896 89.298243 
L 262.84612 87.101526 
L 263.252344 87.020135 
L 263.658569 87.076033 
L 264.064793 86.807382 
L 264.471018 85.890679 
L 264.877242 80.670137 
L 265.283466 83.764495 
L 265.689691 80.162554 
L 266.50214 82.704859 
L 266.908364 83.20009 
L 267.314588 87.723791 
L 267.720813 89.843885 
L 268.127037 90.297637 
L 268.533262 92.290582 
L 268.939486 87.958914 
L 269.34571 90.711195 
L 269.751935 91.269743 
L 270.158159 93.286941 
L 270.564384 89.108189 
L 270.970608 93.592758 
L 271.376833 92.206007 
L 272.189281 83.507906 
L 272.595506 82.917182 
L 273.00173 77.145333 
L 273.407955 80.323527 
L 274.220403 83.96596 
L 274.626628 83.10679 
L 275.032852 90.166369 
L 275.439077 86.998697 
L 275.845301 82.88679 
L 276.251525 83.849203 
L 276.65775 79.647393 
L 277.063974 77.731306 
L 277.470199 80.993627 
L 278.282647 84.995478 
L 278.688872 83.897591 
L 279.095096 80.756454 
L 279.501321 78.512254 
L 279.907545 80.583695 
L 280.313769 80.206828 
L 280.719994 82.254652 
L 281.126218 76.970581 
L 281.532443 78.254431 
L 281.938667 78.479433 
L 282.344891 79.425895 
L 282.751116 83.431744 
L 283.15734 83.695684 
L 283.563565 80.950999 
L 283.969789 81.521228 
L 284.376014 87.034926 
L 284.782238 87.731642 
L 285.188462 90.105884 
L 285.594687 89.931069 
L 286.000911 86.707203 
L 286.407136 89.045584 
L 286.81336 89.564909 
L 287.219584 89.410083 
L 287.625809 94.177875 
L 288.032033 92.999235 
L 288.438258 93.981592 
L 288.844482 97.175243 
L 289.250706 101.669519 
L 289.656931 101.811443 
L 290.063155 99.071336 
L 290.46938 97.431634 
L 290.875604 101.365764 
L 291.281828 102.504815 
L 291.688053 100.97303 
L 292.500502 91.954831 
L 292.906726 91.233723 
L 293.31295 87.639699 
L 293.719175 92.312917 
L 294.125399 90.614346 
L 294.531624 85.296362 
L 294.937848 85.434762 
L 295.750297 76.312631 
L 296.156521 74.224327 
L 296.562746 68.628907 
L 297.375195 70.362772 
L 297.781419 65.271141 
L 298.187643 63.971406 
L 298.593868 68.122279 
L 299.000092 68.031781 
L 299.406317 58.080004 
L 299.812541 65.99074 
L 300.218765 61.575207 
L 300.62499 63.273953 
L 301.031214 61.509206 
L 301.437439 58.753354 
L 302.656112 71.364898 
L 303.062336 71.691634 
L 303.468561 77.310429 
L 304.281009 73.141032 
L 305.093458 71.394047 
L 305.499683 75.798505 
L 305.905907 76.853483 
L 306.312131 76.714299 
L 306.718356 74.1311 
L 307.12458 73.69368 
L 307.530805 68.12612 
L 307.937029 66.040748 
L 308.343253 65.858537 
L 308.749478 64.347727 
L 309.155702 58.955035 
L 309.561927 62.718176 
L 310.374376 65.088505 
L 310.7806 67.328536 
L 311.186824 70.523081 
L 311.593049 68.526234 
L 311.999273 70.051655 
L 312.405498 68.01087 
L 312.811722 69.548578 
L 313.217946 73.763153 
L 313.624171 69.762215 
L 314.030395 63.75633 
L 314.43662 63.006004 
L 314.842844 61.259134 
L 315.249068 55.459116 
L 315.655293 53.760442 
L 316.061517 49.869738 
L 316.467742 47.488238 
L 316.873966 43.08011 
L 317.686415 41.042846 
L 318.092639 39.010153 
L 318.498864 43.51703 
L 318.905088 46.433512 
L 319.717537 37.1439 
L 320.123761 35.706644 
L 320.529986 38.885867 
L 320.93621 34.869165 
L 321.342434 34.602247 
L 321.748659 38.510392 
L 322.154883 36.441398 
L 322.967332 30.535059 
L 323.373557 31.56892 
L 323.779781 33.304164 
L 324.186005 37.668526 
L 324.59223 32.593751 
L 324.998454 31.88289 
L 325.404679 26.651493 
L 325.810903 27.51612 
L 326.217127 21.800519 
L 326.623352 27.881224 
L 327.029576 27.335226 
L 327.842025 32.072282 
L 328.248249 36.505612 
L 328.654474 38.656855 
L 329.060698 32.282045 
L 329.466923 34.164032 
L 329.873147 30.549062 
L 330.279371 37.067564 
L 330.685596 28.915003 
L 331.09182 28.972728 
L 331.498045 25.926117 
L 331.904269 21.786217 
L 332.310493 23.701005 
L 332.716718 22.282066 
L 333.122942 23.187952 
L 333.529167 25.470759 
L 333.935391 30.605108 
L 334.341615 30.943653 
L 335.154064 25.347077 
L 335.560289 24.580925 
L 336.372738 22.162658 
L 336.778962 24.625429 
L 337.185186 29.758049 
L 337.591411 31.635726 
L 337.997635 36.977372 
L 338.40386 34.224281 
L 338.810084 25.903841 
L 339.216308 22.524701 
L 339.622533 23.463909 
L 340.028757 23.408117 
L 340.434982 19.554545 
L 340.841206 21.561331 
L 341.24743 21.11738 
L 341.653655 28.364116 
L 342.059879 32.092919 
L 342.466104 33.994352 
L 342.872328 31.869508 
L 343.278552 34.43311 
L 343.684777 32.367668 
L 344.091001 31.755992 
L 344.497226 25.546597 
L 344.90345 29.138331 
L 345.715899 44.021646 
L 346.122123 44.517781 
L 346.528348 40.673455 
L 346.934572 40.054558 
L 347.340796 37.855595 
L 347.747021 38.021024 
L 348.153245 37.228219 
L 348.55947 42.276215 
L 348.965694 35.82297 
L 349.371919 34.211898 
L 349.778143 38.60602 
L 350.184367 45.163609 
L 350.590592 43.383401 
L 350.996816 43.748491 
L 351.403041 44.694196 
L 351.809265 39.906138 
L 352.215489 41.805064 
L 352.621714 44.643168 
L 353.434163 40.200416 
L 353.840387 44.509297 
L 354.246611 41.872947 
L 354.652836 35.324379 
L 355.05906 36.444931 
L 355.871509 40.902741 
L 356.683958 35.092509 
L 357.090182 38.803828 
L 357.902631 30.744182 
L 358.308855 29.760353 
L 358.71508 37.059537 
L 359.121304 34.413353 
L 359.527529 39.840259 
L 359.933753 37.369558 
L 360.746202 30.782373 
L 361.152426 39.516533 
L 361.558651 41.948161 
L 361.964875 39.468551 
L 362.3711 39.742875 
L 362.777324 44.83536 
L 363.183548 46.29868 
L 363.589773 46.316686 
L 363.995997 52.034277 
L 364.402222 46.338388 
L 364.808446 43.62938 
L 365.21467 43.130582 
L 365.620895 45.586672 
L 366.027119 46.631839 
L 366.433344 48.813955 
L 366.839568 52.124202 
L 367.245792 51.626721 
L 367.652017 47.942118 
L 368.058241 48.576795 
L 368.464466 49.953571 
L 368.87069 49.35706 
L 369.276914 46.746597 
L 369.683139 48.498659 
L 370.089363 53.1109 
L 370.495588 49.953436 
L 370.901812 54.50087 
L 371.308036 52.714252 
L 371.714261 53.034713 
L 372.120485 56.028308 
L 372.52671 51.395747 
L 372.932934 48.064904 
L 373.745383 44.670358 
L 374.151607 43.082502 
L 374.557832 46.367207 
L 374.964056 48.244013 
L 375.370281 53.724223 
L 375.776505 52.748131 
L 376.182729 47.962207 
L 376.588954 49.243629 
L 376.995178 48.450511 
L 377.807627 51.803201 
L 378.213851 52.93893 
L 378.620076 57.825377 
L 379.0263 54.022973 
L 379.432525 54.039753 
L 379.838749 50.795089 
L 380.244973 49.785405 
L 380.651198 52.477869 
L 381.057422 53.536212 
L 381.463647 58.835626 
L 381.869871 56.201767 
L 382.276095 55.743498 
L 382.68232 58.365647 
L 383.088544 63.396912 
L 383.494769 65.321861 
L 383.900993 69.019705 
L 384.307217 68.567922 
L 384.713442 72.083725 
L 385.119666 65.22999 
L 385.525891 61.939503 
L 385.932115 63.184621 
L 386.338339 68.147978 
L 386.744564 68.520877 
L 387.150788 75.065108 
L 388.369462 64.042446 
L 388.775686 65.901421 
L 389.18191 63.211199 
L 389.588135 58.589127 
L 389.994359 60.04405 
L 390.400584 62.494751 
L 390.806808 57.992661 
L 391.213032 57.506835 
L 391.619257 56.086532 
L 392.025481 56.380545 
L 392.431706 60.549884 
L 392.83793 56.861027 
L 393.244154 63.638261 
L 393.650379 60.305472 
L 394.056603 61.238002 
L 394.462828 61.86461 
L 394.869052 63.643056 
L 395.681501 60.518589 
L 396.087725 55.136911 
L 396.900174 56.359631 
L 397.306398 57.541147 
L 397.712623 57.194064 
L 398.118847 58.693457 
L 398.931296 50.25887 
L 399.33752 56.678772 
L 400.149969 64.385264 
L 400.556194 62.175763 
L 400.962418 65.15477 
L 401.368643 63.311708 
L 401.774867 58.732084 
L 402.181091 56.157675 
L 402.99354 63.654036 
L 403.399765 72.564158 
L 403.805989 70.927739 
L 404.212213 75.119003 
L 404.618438 74.977425 
L 405.024662 74.206696 
L 405.430887 78.580752 
L 405.837111 75.430246 
L 406.243335 78.889907 
L 406.64956 80.87412 
L 407.055784 84.822388 
L 407.462009 84.658618 
L 407.868233 86.878228 
L 408.274457 79.297255 
L 408.680682 81.446569 
L 409.086906 80.824165 
L 409.493131 81.76029 
L 409.899355 78.79925 
L 410.305579 78.786195 
L 410.711804 83.667852 
L 411.118028 83.003696 
L 411.524253 81.534379 
L 412.336701 89.288575 
L 412.742926 91.478007 
L 413.14915 90.619228 
L 413.555375 91.81081 
L 413.961599 99.332299 
L 414.367824 101.871276 
L 414.774048 98.080367 
L 415.586497 93.783889 
L 415.992721 93.971133 
L 416.398946 86.714306 
L 416.80517 86.943836 
L 417.211394 87.716338 
L 418.023843 90.625199 
L 418.430068 88.012735 
L 418.836292 94.972355 
L 419.242516 98.930449 
L 419.648741 94.252484 
L 420.054965 96.843184 
L 420.46119 100.608798 
L 420.867414 101.167332 
L 421.273638 103.666312 
L 421.679863 102.688256 
L 422.086087 106.683465 
L 422.492312 101.677143 
L 422.898536 106.055059 
L 423.30476 106.335402 
L 423.710985 106.148986 
L 424.117209 105.326148 
L 424.523434 105.528546 
L 424.929658 105.547847 
L 425.335882 105.781623 
L 425.742107 101.421229 
L 426.148331 101.840004 
L 426.554556 98.622171 
L 426.96078 101.067605 
L 427.367005 101.075683 
L 427.773229 101.510393 
L 428.179453 98.169271 
L 428.991902 102.438299 
L 429.398127 102.959537 
L 429.804351 103.030346 
L 430.210575 110.051249 
L 430.6168 112.918188 
L 431.023024 109.210714 
L 431.835473 110.867797 
L 432.647922 107.15829 
L 433.054146 101.349894 
L 433.460371 99.241825 
L 433.866595 100.712177 
L 434.272819 100.528379 
L 435.085268 94.73168 
L 435.491493 97.746036 
L 435.897717 95.509262 
L 436.303941 89.60784 
L 436.710166 90.186987 
L 437.11639 90.149216 
L 437.928839 96.786024 
L 438.335063 96.747504 
L 438.741288 94.115631 
L 439.147512 95.113297 
L 439.959961 88.389269 
L 440.366186 89.612035 
L 440.77241 87.173851 
L 441.178634 87.605791 
L 441.584859 87.295381 
L 441.991083 83.709177 
L 442.397308 75.565072 
L 442.803532 80.227802 
L 443.209756 81.330959 
L 443.615981 77.456214 
L 444.022205 78.271869 
L 444.42843 79.705746 
L 444.834654 74.136416 
L 445.240878 74.339582 
L 445.647103 71.710362 
L 446.053327 72.743404 
L 446.459552 77.948551 
L 446.865776 79.655399 
L 447.272 77.371929 
L 447.678225 76.727455 
L 448.084449 79.391951 
L 448.490674 72.499551 
L 448.896898 72.105834 
L 449.303122 75.429887 
L 449.709347 71.090102 
L 450.115571 68.029061 
L 450.521796 69.898989 
L 451.740469 63.530259 
L 452.146693 63.096604 
L 452.552918 69.001188 
L 452.959142 70.081133 
L 453.365367 70.257844 
L 453.771591 72.206012 
L 453.771591 72.206012 
" style="fill:none;stroke:#ff00ff;stroke-linecap:round;stroke-width:1.5;"/>
   </g>
   <g id="line2d_31">
    <path clip-path="url(#p427d75969b)" d="M 47.953409 185.349238 
L 48.359633 183.00652 
L 48.765858 184.671963 
L 49.172082 190.336412 
L 49.984531 194.215005 
L 50.390756 194.75565 
L 50.79698 198.852476 
L 51.203204 199.889867 
L 51.609429 202.818185 
L 52.015653 200.214849 
L 52.421878 200.861182 
L 52.828102 199.03255 
L 53.234326 198.108123 
L 53.640551 202.398009 
L 54.046775 202.539471 
L 54.453 196.96281 
L 54.859224 202.342324 
L 55.265448 199.176944 
L 55.671673 198.847509 
L 56.077897 203.892446 
L 56.484122 201.977495 
L 56.890346 198.62641 
L 57.29657 198.830092 
L 57.702795 197.804299 
L 58.109019 191.718329 
L 58.515244 193.740152 
L 59.327692 182.152572 
L 59.733917 186.578454 
L 60.140141 186.165883 
L 60.546366 185.942359 
L 61.765039 172.675504 
L 62.171263 178.083313 
L 62.577488 173.484234 
L 62.983712 171.587649 
L 63.389937 177.727988 
L 63.796161 173.342884 
L 64.202385 177.040072 
L 64.60861 174.458738 
L 65.014834 176.415988 
L 65.421059 177.103399 
L 65.827283 175.621962 
L 66.233507 176.32226 
L 66.639732 181.171862 
L 67.045956 180.150618 
L 67.452181 183.999515 
L 67.858405 182.181613 
L 68.264629 186.36363 
L 68.670854 185.898319 
L 69.077078 184.682029 
L 69.483303 177.957121 
L 69.889527 184.427822 
L 70.295751 183.37199 
L 70.701976 187.580944 
L 71.1082 185.982593 
L 71.514425 186.35745 
L 71.920649 183.788733 
L 72.326873 179.059311 
L 72.733098 180.186289 
L 73.139322 180.230939 
L 73.545547 177.211511 
L 73.951771 178.978604 
L 74.357995 177.632217 
L 74.76422 174.830807 
L 75.170444 178.424789 
L 75.576669 183.517509 
L 75.982893 182.930707 
L 76.389118 180.002837 
L 76.795342 185.028748 
L 77.201566 183.388716 
L 77.607791 184.608963 
L 78.014015 185.182041 
L 78.42024 181.736765 
L 78.826464 181.267543 
L 79.232688 184.123141 
L 79.638913 184.164067 
L 80.451362 185.883173 
L 80.857586 181.944725 
L 81.670035 186.779725 
L 82.076259 185.943323 
L 82.482484 183.809643 
L 82.888708 184.2566 
L 83.294932 188.369427 
L 83.701157 188.006263 
L 84.107381 179.910345 
L 84.513606 178.019114 
L 84.91983 183.570179 
L 85.326054 186.748246 
L 85.732279 186.435996 
L 86.138503 184.626538 
L 86.544728 186.949774 
L 86.950952 179.722412 
L 87.357176 177.926227 
L 87.763401 176.815347 
L 88.169625 172.617711 
L 88.57585 171.797454 
L 88.982074 178.361208 
L 89.388299 179.677734 
L 89.794523 181.812663 
L 90.200747 182.939115 
L 90.606972 182.55831 
L 91.013196 180.245649 
L 91.825645 185.385179 
L 92.231869 185.64446 
L 93.450543 179.877067 
L 93.856767 176.171643 
L 94.262991 177.377171 
L 94.669216 173.636446 
L 95.07544 172.519219 
L 95.481665 171.991917 
L 95.887889 165.975905 
L 96.294113 167.040369 
L 96.700338 169.59935 
L 97.106562 164.706407 
L 97.512787 164.856217 
L 97.919011 161.165018 
L 98.325235 159.834283 
L 98.73146 165.686571 
L 99.137684 164.748082 
L 99.543909 162.662168 
L 99.950133 162.90444 
L 100.356357 160.822729 
L 101.575031 149.28232 
L 101.981255 152.103428 
L 102.38748 151.688842 
L 102.793704 154.072958 
L 103.606153 157.199125 
L 104.012377 157.377453 
L 104.418602 156.636476 
L 104.824826 149.677212 
L 105.23105 148.850623 
L 105.637275 142.897055 
L 106.043499 142.942103 
L 106.449724 140.377424 
L 106.855948 141.564606 
L 107.262172 141.443674 
L 107.668397 143.83694 
L 108.074621 141.523493 
L 108.480846 144.125449 
L 108.88707 145.118702 
L 109.293294 144.382878 
L 110.105743 141.177286 
L 110.511968 142.759533 
L 110.918192 147.299049 
L 111.324416 154.846349 
L 112.136865 160.023306 
L 112.949314 165.148325 
L 113.355538 163.610061 
L 113.761763 164.52811 
L 114.167987 164.986139 
L 114.574212 167.611975 
L 114.980436 162.162567 
L 115.386661 163.084369 
L 115.792885 170.936159 
L 116.199109 173.531769 
L 117.011558 182.64732 
L 117.417783 181.102135 
L 117.824007 173.148376 
L 118.230231 177.185843 
L 118.636456 178.584672 
L 119.04268 181.207291 
L 119.448905 188.435917 
L 119.855129 184.613532 
L 120.261353 187.787779 
L 120.667578 185.235952 
L 121.073802 180.829451 
L 121.480027 181.231282 
L 121.886251 184.7522 
L 122.292475 193.965774 
L 122.6987 191.762488 
L 123.104924 184.60448 
L 123.511149 186.110206 
L 123.917373 184.556957 
L 124.323597 185.851847 
L 124.729822 187.87807 
L 125.136046 182.746656 
L 125.542271 182.17507 
L 125.948495 182.129775 
L 126.760944 181.287183 
L 127.167168 186.672829 
L 127.573393 187.240239 
L 127.979617 181.500252 
L 128.385842 178.844389 
L 128.792066 180.721837 
L 129.19829 180.074131 
L 129.604515 175.865271 
L 130.010739 174.75446 
L 130.416964 166.418964 
L 131.229412 164.485506 
L 131.635637 168.097144 
L 132.041861 173.678234 
L 132.448086 170.24033 
L 132.85431 171.561296 
L 133.260534 174.115323 
L 133.666759 172.231812 
L 134.072983 174.282059 
L 134.479208 171.925551 
L 134.885432 171.120478 
L 135.291656 173.20858 
L 135.697881 172.348326 
L 136.104105 177.279169 
L 136.51033 175.811002 
L 136.916554 177.525561 
L 137.322778 177.648812 
L 137.729003 173.527593 
L 138.135227 173.423753 
L 138.541452 175.609893 
L 138.947676 172.315664 
L 139.3539 172.467805 
L 139.760125 168.449386 
L 140.166349 170.940229 
L 140.572574 171.9349 
L 140.978798 175.215123 
L 141.385023 179.629423 
L 141.791247 179.083885 
L 142.603696 183.647978 
L 143.00992 183.193056 
L 143.416145 186.731139 
L 143.822369 187.001555 
L 144.228593 188.75331 
L 144.634818 182.614331 
L 145.041042 185.406433 
L 145.447267 189.945407 
L 145.853491 191.793825 
L 146.259715 191.277074 
L 146.66594 194.208735 
L 147.072164 196.060592 
L 147.478389 200.321487 
L 147.884613 203.151005 
L 148.290837 202.017261 
L 148.697062 199.055803 
L 149.103286 197.729999 
L 149.509511 194.514148 
L 149.915735 194.7804 
L 150.321959 192.626916 
L 150.728184 191.275494 
L 151.134408 191.34657 
L 151.540633 199.488833 
L 151.946857 200.042232 
L 152.353081 196.961982 
L 152.759306 199.651952 
L 153.16553 193.581792 
L 153.571755 190.821389 
L 154.384204 179.861086 
L 154.790428 186.876409 
L 155.196652 183.679417 
L 155.602877 182.851625 
L 156.415326 175.634555 
L 156.82155 177.548666 
L 157.633999 184.156406 
L 158.040223 183.590993 
L 158.852672 189.889642 
L 159.258896 191.935471 
L 159.665121 190.84519 
L 160.071345 193.52207 
L 160.47757 190.020398 
L 160.883794 192.630518 
L 161.290018 188.06374 
L 161.696243 191.474842 
L 162.102467 192.145805 
L 162.508692 191.803327 
L 163.32114 197.474689 
L 163.727365 196.65021 
L 164.946038 201.49322 
L 165.352262 200.882743 
L 165.758487 203.686018 
L 166.164711 198.130942 
L 166.570936 204.421469 
L 166.97716 204.290991 
L 167.383385 204.787865 
L 167.789609 205.977331 
L 168.195833 210.657282 
L 168.602058 208.587126 
L 169.008282 214.169395 
L 169.414507 212.42611 
L 169.820731 212.769217 
L 170.226955 214.569214 
L 170.63318 218.838447 
L 171.039404 221.247331 
L 171.445629 229.09965 
L 171.851853 227.038571 
L 172.258077 226.577398 
L 172.664302 224.865741 
L 173.070526 228.876939 
L 173.476751 230.868697 
L 173.882975 228.881213 
L 174.289199 228.100069 
L 174.695424 224.424457 
L 175.507873 221.879791 
L 175.914097 221.415806 
L 176.320321 216.720588 
L 176.726546 218.318073 
L 177.13277 220.47181 
L 177.538995 220.427895 
L 177.945219 220.553048 
L 178.351443 221.366609 
L 178.757668 218.429795 
L 179.163892 217.13651 
L 179.570117 218.820494 
L 179.976341 211.614744 
L 180.382566 213.515902 
L 180.78879 211.548953 
L 181.195014 214.393948 
L 181.601239 216.199378 
L 182.007463 217.372423 
L 182.413688 211.163514 
L 182.819912 210.805755 
L 183.226136 210.177514 
L 183.632361 214.982382 
L 184.038585 214.221473 
L 184.44481 217.661782 
L 184.851034 219.919973 
L 185.257258 218.437228 
L 185.663483 220.010687 
L 186.475932 210.641545 
L 186.882156 210.023559 
L 187.28838 209.781659 
L 187.694605 210.385999 
L 188.100829 209.304606 
L 188.507054 207.734869 
L 188.913278 208.584204 
L 189.319502 212.472179 
L 189.725727 211.614818 
L 190.131951 211.024147 
L 190.538176 213.275411 
L 190.9444 213.457091 
L 191.350624 216.184699 
L 191.756849 214.172076 
L 192.569298 213.02994 
L 192.975522 210.610023 
L 193.381747 203.290953 
L 193.787971 203.158943 
L 194.194195 201.193518 
L 194.60042 197.565978 
L 195.006644 197.877709 
L 195.412869 194.880722 
L 195.819093 190.690908 
L 196.225317 190.64944 
L 196.631542 181.159219 
L 197.037766 186.994246 
L 197.443991 189.574751 
L 197.850215 193.46491 
L 198.256439 189.628146 
L 198.662664 188.698394 
L 199.068888 191.199141 
L 199.475113 188.531638 
L 199.881337 189.505451 
L 200.287561 180.722247 
L 200.693786 182.405696 
L 201.10001 178.768636 
L 201.506235 182.131668 
L 201.912459 180.331656 
L 202.318683 181.834126 
L 202.724908 186.177644 
L 203.131132 193.023799 
L 203.537357 193.976362 
L 203.943581 190.697357 
L 204.349805 190.566427 
L 204.75603 195.295759 
L 205.162254 190.584919 
L 205.568479 189.166429 
L 205.974703 186.554142 
L 206.380928 185.060986 
L 206.787152 176.588836 
L 207.193376 175.985968 
L 207.599601 178.659662 
L 208.005825 175.053551 
L 208.41205 182.343344 
L 208.818274 181.380518 
L 209.224498 182.645327 
L 209.630723 178.360748 
L 210.036947 178.205953 
L 210.443172 180.728122 
L 210.849396 180.263384 
L 211.25562 184.632086 
L 211.661845 178.462556 
L 212.068069 179.230318 
L 212.474294 176.929549 
L 212.880518 179.030849 
L 213.286742 177.562723 
L 213.692967 177.842066 
L 214.099191 171.408242 
L 214.505416 176.323195 
L 215.317864 179.403155 
L 215.724089 183.514307 
L 216.130313 183.943658 
L 216.536538 181.092895 
L 216.942762 183.523258 
L 217.348986 183.565433 
L 218.161435 180.211785 
L 218.56766 181.941592 
L 218.973884 189.997792 
L 219.380109 191.490542 
L 219.786333 184.579427 
L 220.598782 191.230301 
L 221.005006 190.550047 
L 221.411231 190.526232 
L 221.817455 192.820671 
L 222.223679 192.872708 
L 222.629904 193.422881 
L 223.442353 190.703606 
L 223.848577 194.320205 
L 224.254801 191.996859 
L 224.661026 192.731856 
L 225.06725 194.863913 
L 225.473475 191.373932 
L 225.879699 191.465884 
L 226.692148 193.546094 
L 227.098372 191.780259 
L 227.504597 191.169396 
L 227.910821 188.909084 
L 228.317045 195.008255 
L 228.72327 191.233294 
L 229.129494 191.514583 
L 229.535719 189.662172 
L 230.348167 180.420945 
L 230.754392 185.006395 
L 231.160616 181.616353 
L 231.566841 180.732309 
L 231.973065 177.287489 
L 232.37929 182.558829 
L 232.785514 185.867531 
L 233.191738 185.010182 
L 233.597963 188.014533 
L 234.004187 189.306188 
L 234.410412 184.598183 
L 234.816636 177.151076 
L 235.22286 177.784316 
L 235.629085 174.603507 
L 236.035309 174.035084 
L 236.441534 170.896293 
L 236.847758 169.119112 
L 237.253982 173.256061 
L 237.660207 168.949939 
L 238.066431 171.81596 
L 238.472656 176.160038 
L 238.87888 172.158633 
L 239.285104 173.282893 
L 239.691329 170.471168 
L 240.097553 168.65655 
L 240.503778 171.872494 
L 240.910002 177.218963 
L 241.316226 171.350249 
L 241.722451 169.033953 
L 242.128675 164.13991 
L 242.5349 164.740155 
L 242.941124 160.586564 
L 243.347348 154.867354 
L 244.159797 156.596054 
L 244.566022 156.285349 
L 244.972246 156.410788 
L 245.378471 165.294062 
L 245.784695 168.469682 
L 247.003368 165.694345 
L 247.409593 166.700971 
L 247.815817 173.491233 
L 248.222041 173.080324 
L 248.628266 172.366572 
L 249.03449 175.397332 
L 249.846939 173.363379 
L 250.253163 175.169329 
L 250.659388 175.582342 
L 251.065612 172.787058 
L 251.471837 171.808279 
L 251.878061 174.918625 
L 252.69051 165.805959 
L 253.502959 170.93207 
L 253.909183 173.047261 
L 255.127856 166.85988 
L 255.534081 164.480921 
L 255.940305 168.771893 
L 256.346529 170.645147 
L 256.752754 177.028417 
L 257.565203 170.838199 
L 257.971427 167.180346 
L 258.377652 168.516446 
L 259.1901 166.109705 
L 259.596325 161.044716 
L 260.002549 167.4315 
L 260.408774 164.95215 
L 261.221222 167.253832 
L 261.627447 165.148657 
L 262.033671 163.709035 
L 262.439896 166.546668 
L 263.252344 163.451761 
L 263.658569 157.940651 
L 264.064793 157.108366 
L 264.471018 154.48963 
L 264.877242 159.440244 
L 265.283466 160.958222 
L 265.689691 164.205178 
L 266.095915 164.375277 
L 266.50214 158.673152 
L 266.908364 164.435272 
L 267.314588 165.467198 
L 267.720813 165.618744 
L 268.127037 167.307951 
L 268.939486 158.932592 
L 269.34571 155.551542 
L 269.751935 156.565897 
L 270.158159 156.917915 
L 270.564384 155.168765 
L 270.970608 154.691295 
L 271.376833 157.425544 
L 271.783057 154.934806 
L 272.189281 161.982481 
L 272.595506 158.399734 
L 273.00173 152.618024 
L 273.407955 151.418107 
L 273.814179 148.490716 
L 274.220403 148.585022 
L 274.626628 152.049479 
L 275.032852 147.542655 
L 275.439077 150.480826 
L 275.845301 143.084328 
L 276.251525 144.26498 
L 276.65775 144.052973 
L 277.063974 144.031443 
L 277.470199 142.661401 
L 277.876423 144.590578 
L 278.282647 145.686735 
L 278.688872 141.637989 
L 279.095096 146.418267 
L 279.501321 148.697142 
L 279.907545 151.657528 
L 280.313769 152.01342 
L 280.719994 151.788568 
L 281.126218 152.481507 
L 281.532443 151.508978 
L 282.344891 145.66028 
L 282.751116 146.228473 
L 283.15734 145.464791 
L 283.563565 148.370541 
L 283.969789 143.954925 
L 284.376014 143.348778 
L 284.782238 151.495305 
L 285.188462 152.655505 
L 285.594687 155.684428 
L 286.000911 152.38445 
L 287.219584 158.320699 
L 288.032033 169.071865 
L 288.438258 167.29417 
L 288.844482 169.965902 
L 289.250706 166.064204 
L 289.656931 169.553257 
L 290.063155 169.340959 
L 290.46938 170.461987 
L 290.875604 174.294613 
L 291.281828 173.817123 
L 291.688053 175.982061 
L 292.094277 175.95793 
L 292.500502 174.502147 
L 292.906726 177.467174 
L 293.31295 169.233861 
L 293.719175 171.192699 
L 294.125399 168.562859 
L 294.531624 168.820734 
L 294.937848 168.517949 
L 295.344072 167.936425 
L 295.750297 170.324017 
L 296.156521 170.469128 
L 296.562746 170.389056 
L 296.96897 169.829937 
L 297.375195 171.105742 
L 297.781419 171.214659 
L 298.187643 175.494789 
L 298.593868 176.462342 
L 299.000092 178.448355 
L 299.406317 178.304565 
L 299.812541 177.052398 
L 300.218765 177.011929 
L 300.62499 171.122691 
L 301.031214 175.63458 
L 301.437439 171.666694 
L 301.843663 170.025249 
L 302.249887 170.02213 
L 302.656112 176.338417 
L 303.062336 174.823415 
L 303.468561 176.066851 
L 303.874785 175.294544 
L 304.281009 180.015643 
L 304.687234 181.966108 
L 305.093458 182.321578 
L 305.499683 177.725682 
L 305.905907 179.145386 
L 306.312131 185.515849 
L 306.718356 184.571635 
L 307.12458 179.578162 
L 307.530805 180.572005 
L 307.937029 183.06369 
L 308.343253 181.986872 
L 308.749478 186.689855 
L 309.155702 186.202135 
L 309.561927 186.719361 
L 310.374376 188.273971 
L 311.593049 194.73156 
L 311.999273 193.842888 
L 312.405498 193.610593 
L 312.811722 195.233748 
L 313.624171 191.902348 
L 314.030395 186.016917 
L 314.43662 183.014287 
L 314.842844 183.075843 
L 315.249068 186.583722 
L 315.655293 185.731581 
L 316.061517 189.695935 
L 316.467742 187.493979 
L 316.873966 188.541405 
L 317.28019 184.474846 
L 317.686415 188.10649 
L 318.092639 188.278607 
L 318.498864 187.590227 
L 318.905088 189.682544 
L 319.311312 185.033335 
L 319.717537 175.596536 
L 320.123761 172.144921 
L 320.529986 174.84544 
L 320.93621 178.485974 
L 321.342434 179.523464 
L 321.748659 180.068688 
L 322.154883 181.60602 
L 322.561108 186.06145 
L 322.967332 184.340072 
L 323.373557 185.976269 
L 323.779781 184.963438 
L 324.186005 176.771536 
L 324.59223 183.02863 
L 324.998454 183.256082 
L 325.404679 183.06497 
L 325.810903 183.050205 
L 326.217127 183.268474 
L 326.623352 182.487567 
L 327.029576 186.291981 
L 327.435801 186.326712 
L 327.842025 188.066415 
L 328.248249 191.703922 
L 328.654474 192.860085 
L 329.060698 199.022913 
L 329.466923 207.702142 
L 329.873147 207.040171 
L 330.279371 208.657114 
L 330.685596 207.965732 
L 331.09182 205.444415 
L 331.498045 200.904565 
L 332.310493 196.301753 
L 332.716718 196.339203 
L 333.122942 191.84831 
L 333.529167 194.625119 
L 333.935391 195.987561 
L 334.341615 200.431846 
L 334.74784 199.254326 
L 335.154064 201.050618 
L 335.966513 198.77985 
L 336.372738 191.9587 
L 336.778962 195.029285 
L 337.185186 194.646339 
L 337.591411 195.105272 
L 337.997635 190.545028 
L 338.40386 191.418782 
L 338.810084 195.714247 
L 339.216308 201.240057 
L 339.622533 201.115716 
L 340.028757 196.873483 
L 340.434982 197.351962 
L 340.841206 194.696168 
L 341.24743 194.936858 
L 341.653655 197.416219 
L 342.059879 193.323088 
L 342.466104 200.688089 
L 342.872328 202.46018 
L 343.278552 201.89842 
L 343.684777 205.133929 
L 344.091001 204.099824 
L 344.497226 200.960288 
L 344.90345 201.505938 
L 345.715899 203.924817 
L 346.122123 206.1425 
L 346.528348 206.530848 
L 346.934572 207.921451 
L 347.340796 208.624842 
L 347.747021 199.902608 
L 348.153245 202.63134 
L 348.55947 201.864268 
L 348.965694 201.412472 
L 349.371919 194.682248 
L 349.778143 197.967011 
L 350.184367 198.100058 
L 350.590592 200.47109 
L 350.996816 199.629845 
L 351.403041 196.25673 
L 351.809265 198.751356 
L 352.215489 199.509901 
L 352.621714 196.69644 
L 353.027938 196.705942 
L 353.434163 196.514522 
L 353.840387 199.156622 
L 354.246611 194.108868 
L 354.652836 195.542216 
L 355.465285 197.479624 
L 356.277733 190.342016 
L 356.683958 190.958182 
L 357.090182 190.93619 
L 357.496407 189.244547 
L 357.902631 188.590721 
L 358.308855 185.968454 
L 358.71508 182.297452 
L 359.121304 184.428614 
L 359.527529 185.182722 
L 359.933753 185.356014 
L 360.339977 186.995852 
L 360.746202 194.496446 
L 361.558651 199.866122 
L 361.964875 199.06319 
L 362.3711 197.601483 
L 363.183548 195.667966 
L 363.589773 198.714674 
L 363.995997 203.602584 
L 364.402222 200.927238 
L 364.808446 205.861745 
L 365.21467 199.315273 
L 365.620895 198.34013 
L 366.027119 197.956407 
L 366.433344 196.656336 
L 366.839568 198.198708 
L 367.245792 195.787483 
L 367.652017 196.232899 
L 368.058241 199.031258 
L 368.464466 197.548218 
L 368.87069 188.452711 
L 369.276914 192.179063 
L 369.683139 192.93966 
L 370.089363 188.49234 
L 370.495588 190.135885 
L 371.308036 181.974632 
L 371.714261 181.922482 
L 372.120485 182.501654 
L 372.52671 179.361529 
L 372.932934 181.957909 
L 373.339158 179.416858 
L 374.151607 170.62247 
L 374.557832 167.279053 
L 374.964056 170.545304 
L 375.370281 168.281237 
L 375.776505 168.513216 
L 376.182729 172.044325 
L 376.588954 172.512265 
L 376.995178 177.299493 
L 377.807627 178.30845 
L 378.213851 176.511121 
L 378.620076 172.952904 
L 379.432525 182.066279 
L 379.838749 188.900052 
L 380.244973 186.099728 
L 381.057422 190.270638 
L 381.463647 190.418541 
L 381.869871 190.43436 
L 382.276095 188.149487 
L 382.68232 195.363818 
L 383.088544 196.022909 
L 383.494769 200.139012 
L 383.900993 194.489031 
L 384.307217 192.714769 
L 384.713442 191.539352 
L 385.119666 184.285544 
L 385.525891 184.773809 
L 385.932115 181.780922 
L 386.338339 186.660675 
L 386.744564 185.98805 
L 387.150788 178.391725 
L 387.557013 176.728593 
L 387.963237 179.23945 
L 388.369462 182.4975 
L 388.775686 187.753504 
L 389.18191 186.271955 
L 389.588135 183.396431 
L 389.994359 182.971954 
L 390.400584 185.681486 
L 390.806808 184.873914 
L 391.213032 187.167325 
L 391.619257 183.090622 
L 392.025481 184.462739 
L 392.431706 187.41079 
L 392.83793 189.232943 
L 393.244154 187.941205 
L 393.650379 192.050491 
L 394.056603 189.822914 
L 394.462828 190.728804 
L 394.869052 190.455561 
L 395.275276 190.889588 
L 395.681501 183.328653 
L 396.087725 183.894724 
L 396.49395 181.072053 
L 396.900174 172.879374 
L 397.306398 171.457553 
L 397.712623 165.287416 
L 398.118847 164.961961 
L 398.525072 162.301321 
L 398.931296 164.26734 
L 399.743745 171.216775 
L 400.149969 171.297442 
L 400.556194 170.343204 
L 401.368643 178.676246 
L 401.774867 184.943671 
L 402.181091 177.841422 
L 402.587316 177.482109 
L 402.99354 184.646337 
L 403.399765 184.676697 
L 403.805989 185.20859 
L 404.212213 189.807728 
L 404.618438 185.936151 
L 405.024662 187.463535 
L 405.430887 187.325634 
L 405.837111 188.275109 
L 406.243335 188.120203 
L 406.64956 184.722102 
L 407.055784 182.699435 
L 407.462009 184.208533 
L 408.274457 173.803563 
L 409.086906 182.412092 
L 409.493131 184.453105 
L 409.899355 179.360011 
L 410.305579 179.970191 
L 410.711804 181.88015 
L 411.118028 181.993674 
L 411.930477 183.263108 
L 412.742926 189.484008 
L 413.14915 190.376205 
L 413.961599 181.457148 
L 414.367824 178.399167 
L 414.774048 177.185822 
L 415.180272 185.908308 
L 415.586497 179.962684 
L 415.992721 176.229028 
L 416.398946 177.462388 
L 416.80517 179.627696 
L 417.211394 179.006299 
L 417.617619 178.856988 
L 418.023843 181.170204 
L 418.430068 176.180983 
L 418.836292 178.368566 
L 419.242516 177.534109 
L 419.648741 181.555766 
L 420.054965 182.408317 
L 420.46119 178.794036 
L 420.867414 178.651873 
L 421.273638 180.611899 
L 421.679863 187.117928 
L 422.492312 189.441069 
L 422.898536 186.992024 
L 423.30476 182.57641 
L 423.710985 186.645887 
L 424.117209 183.968602 
L 424.523434 187.203744 
L 424.929658 183.365474 
L 425.335882 184.824174 
L 425.742107 182.963113 
L 426.148331 177.790721 
L 426.554556 183.480212 
L 426.96078 182.98977 
L 427.367005 177.721983 
L 427.773229 175.120068 
L 428.179453 167.886801 
L 428.585678 169.544046 
L 428.991902 165.919932 
L 429.398127 163.520666 
L 429.804351 163.351724 
L 430.210575 166.732415 
L 430.6168 165.985249 
L 431.023024 159.527363 
L 431.429249 155.353324 
L 431.835473 153.722235 
L 432.241697 155.371696 
L 432.647922 160.072153 
L 433.054146 160.736823 
L 433.460371 163.77243 
L 433.866595 164.961008 
L 435.085268 153.556293 
L 435.491493 151.739063 
L 435.897717 153.508344 
L 436.303941 152.042288 
L 436.710166 157.808715 
L 437.11639 154.121699 
L 437.522615 157.793008 
L 437.928839 153.337594 
L 438.335063 155.453347 
L 438.741288 147.995753 
L 439.147512 148.876919 
L 439.553737 149.263296 
L 439.959961 146.717223 
L 440.366186 151.198451 
L 440.77241 150.468426 
L 441.178634 153.825618 
L 441.991083 149.896281 
L 442.397308 149.147119 
L 442.803532 145.018828 
L 443.209756 144.539612 
L 443.615981 151.869143 
L 444.42843 157.589115 
L 444.834654 155.373705 
L 445.240878 156.049496 
L 446.459552 162.054336 
L 446.865776 160.645581 
L 447.272 157.675029 
L 447.678225 157.549775 
L 448.084449 159.028791 
L 448.490674 158.897709 
L 448.896898 162.942236 
L 449.303122 164.471491 
L 450.115571 156.119889 
L 450.521796 148.65111 
L 450.92802 151.099674 
L 451.334244 142.416036 
L 451.740469 144.10869 
L 452.146693 146.289925 
L 452.552918 145.298087 
L 452.959142 143.657354 
L 453.365367 143.008678 
L 453.771591 143.267743 
L 453.771591 143.267743 
" style="fill:none;stroke:#800080;stroke-linecap:round;stroke-width:1.5;"/>
   </g>
   <g id="patch_3">
    <path d="M 27.6625 279 
L 27.6625 7.2 
" style="fill:none;stroke:#cccccc;stroke-linecap:square;stroke-linejoin:miter;"/>
   </g>
   <g id="patch_4">
    <path d="M 474.0625 279 
L 474.0625 7.2 
" style="fill:none;stroke:#cccccc;stroke-linecap:square;stroke-linejoin:miter;"/>
   </g>
   <g id="patch_5">
    <path d="M 27.6625 279 
L 474.0625 279 
" style="fill:none;stroke:#cccccc;stroke-linecap:square;stroke-linejoin:miter;"/>
   </g>
   <g id="patch_6">
    <path d="M 27.6625 7.2 
L 474.0625 7.2 
" style="fill:none;stroke:#cccccc;stroke-linecap:square;stroke-linejoin:miter;"/>
   </g>
   <g id="legend_1">
    <g id="line2d_32">
     <path d="M 414.271875 19.857812 
L 434.271875 19.857812 
" style="fill:none;stroke:#ffa500;stroke-linecap:round;stroke-width:1.5;"/>
    </g>
    <g id="line2d_33"/>
    <g id="text_15">
     <!-- one -->
     <defs>
      <path d="M 3.328125 25.921875 
Q 3.328125 40.328125 11.328125 47.265625 
Q 18.015625 53.03125 27.640625 53.03125 
Q 38.328125 53.03125 45.109375 46.015625 
Q 51.90625 39.015625 51.90625 26.65625 
Q 51.90625 16.65625 48.90625 10.90625 
Q 45.90625 5.171875 40.15625 2 
Q 34.421875 -1.171875 27.640625 -1.171875 
Q 16.75 -1.171875 10.03125 5.8125 
Q 3.328125 12.796875 3.328125 25.921875 
z
M 12.359375 25.921875 
Q 12.359375 15.96875 16.703125 11.015625 
Q 21.046875 6.0625 27.640625 6.0625 
Q 34.1875 6.0625 38.53125 11.03125 
Q 42.875 16.015625 42.875 26.21875 
Q 42.875 35.84375 38.5 40.796875 
Q 34.125 45.75 27.640625 45.75 
Q 21.046875 45.75 16.703125 40.8125 
Q 12.359375 35.890625 12.359375 25.921875 
z
" id="ArialMT-111"/>
      <path d="M 6.59375 0 
L 6.59375 51.859375 
L 14.5 51.859375 
L 14.5 44.484375 
Q 20.21875 53.03125 31 53.03125 
Q 35.6875 53.03125 39.625 51.34375 
Q 43.5625 49.65625 45.515625 46.921875 
Q 47.46875 44.1875 48.25 40.4375 
Q 48.734375 37.984375 48.734375 31.890625 
L 48.734375 0 
L 39.9375 0 
L 39.9375 31.546875 
Q 39.9375 36.921875 38.90625 39.578125 
Q 37.890625 42.234375 35.28125 43.8125 
Q 32.671875 45.40625 29.15625 45.40625 
Q 23.53125 45.40625 19.453125 41.84375 
Q 15.375 38.28125 15.375 28.328125 
L 15.375 0 
z
" id="ArialMT-110"/>
      <path d="M 42.09375 16.703125 
L 51.171875 15.578125 
Q 49.03125 7.625 43.21875 3.21875 
Q 37.40625 -1.171875 28.375 -1.171875 
Q 17 -1.171875 10.328125 5.828125 
Q 3.65625 12.84375 3.65625 25.484375 
Q 3.65625 38.578125 10.390625 45.796875 
Q 17.140625 53.03125 27.875 53.03125 
Q 38.28125 53.03125 44.875 45.953125 
Q 51.46875 38.875 51.46875 26.03125 
Q 51.46875 25.25 51.421875 23.6875 
L 12.75 23.6875 
Q 13.234375 15.140625 17.578125 10.59375 
Q 21.921875 6.0625 28.421875 6.0625 
Q 33.25 6.0625 36.671875 8.59375 
Q 40.09375 11.140625 42.09375 16.703125 
z
M 13.234375 30.90625 
L 42.1875 30.90625 
Q 41.609375 37.453125 38.875 40.71875 
Q 34.671875 45.796875 27.984375 45.796875 
Q 21.921875 45.796875 17.796875 41.75 
Q 13.671875 37.703125 13.234375 30.90625 
z
" id="ArialMT-101"/>
     </defs>
     <g style="fill:#262626;" transform="translate(442.271875 23.357812)scale(0.1 -0.1)">
      <use xlink:href="#ArialMT-111"/>
      <use x="55.615234" xlink:href="#ArialMT-110"/>
      <use x="111.230469" xlink:href="#ArialMT-101"/>
     </g>
    </g>
    <g id="line2d_34">
     <path d="M 414.271875 34.003125 
L 434.271875 34.003125 
" style="fill:none;stroke:#ff00ff;stroke-linecap:round;stroke-width:1.5;"/>
    </g>
    <g id="line2d_35"/>
    <g id="text_16">
     <!-- two -->
     <defs>
      <path d="M 25.78125 7.859375 
L 27.046875 0.09375 
Q 23.34375 -0.6875 20.40625 -0.6875 
Q 15.625 -0.6875 12.984375 0.828125 
Q 10.359375 2.34375 9.28125 4.8125 
Q 8.203125 7.28125 8.203125 15.1875 
L 8.203125 45.015625 
L 1.765625 45.015625 
L 1.765625 51.859375 
L 8.203125 51.859375 
L 8.203125 64.703125 
L 16.9375 69.96875 
L 16.9375 51.859375 
L 25.78125 51.859375 
L 25.78125 45.015625 
L 16.9375 45.015625 
L 16.9375 14.703125 
Q 16.9375 10.9375 17.40625 9.859375 
Q 17.875 8.796875 18.921875 8.15625 
Q 19.96875 7.515625 21.921875 7.515625 
Q 23.390625 7.515625 25.78125 7.859375 
z
" id="ArialMT-116"/>
      <path d="M 16.15625 0 
L 0.296875 51.859375 
L 9.375 51.859375 
L 17.625 21.921875 
L 20.703125 10.796875 
Q 20.90625 11.625 23.390625 21.484375 
L 31.640625 51.859375 
L 40.671875 51.859375 
L 48.4375 21.78125 
L 51.03125 11.859375 
L 54 21.875 
L 62.890625 51.859375 
L 71.4375 51.859375 
L 55.21875 0 
L 46.09375 0 
L 37.84375 31.0625 
L 35.84375 39.890625 
L 25.34375 0 
z
" id="ArialMT-119"/>
     </defs>
     <g style="fill:#262626;" transform="translate(442.271875 37.503125)scale(0.1 -0.1)">
      <use xlink:href="#ArialMT-116"/>
      <use x="27.783203" xlink:href="#ArialMT-119"/>
      <use x="100" xlink:href="#ArialMT-111"/>
     </g>
    </g>
    <g id="line2d_36">
     <path d="M 414.271875 48.148437 
L 434.271875 48.148437 
" style="fill:none;stroke:#800080;stroke-linecap:round;stroke-width:1.5;"/>
    </g>
    <g id="line2d_37"/>
    <g id="text_17">
     <!-- three -->
     <defs>
      <path d="M 6.59375 0 
L 6.59375 71.578125 
L 15.375 71.578125 
L 15.375 45.90625 
Q 21.53125 53.03125 30.90625 53.03125 
Q 36.671875 53.03125 40.921875 50.75 
Q 45.171875 48.484375 47 44.484375 
Q 48.828125 40.484375 48.828125 32.859375 
L 48.828125 0 
L 40.046875 0 
L 40.046875 32.859375 
Q 40.046875 39.453125 37.1875 42.453125 
Q 34.328125 45.453125 29.109375 45.453125 
Q 25.203125 45.453125 21.75 43.421875 
Q 18.3125 41.40625 16.84375 37.9375 
Q 15.375 34.46875 15.375 28.375 
L 15.375 0 
z
" id="ArialMT-104"/>
      <path d="M 6.5 0 
L 6.5 51.859375 
L 14.40625 51.859375 
L 14.40625 44 
Q 17.4375 49.515625 20 51.265625 
Q 22.5625 53.03125 25.640625 53.03125 
Q 30.078125 53.03125 34.671875 50.203125 
L 31.640625 42.046875 
Q 28.421875 43.953125 25.203125 43.953125 
Q 22.3125 43.953125 20.015625 42.21875 
Q 17.71875 40.484375 16.75 37.40625 
Q 15.28125 32.71875 15.28125 27.15625 
L 15.28125 0 
z
" id="ArialMT-114"/>
     </defs>
     <g style="fill:#262626;" transform="translate(442.271875 51.648437)scale(0.1 -0.1)">
      <use xlink:href="#ArialMT-116"/>
      <use x="27.783203" xlink:href="#ArialMT-104"/>
      <use x="83.398438" xlink:href="#ArialMT-114"/>
      <use x="116.699219" xlink:href="#ArialMT-101"/>
      <use x="172.314453" xlink:href="#ArialMT-101"/>
     </g>
    </g>
   </g>
  </g>
 </g>
 <defs>
  <clipPath id="p427d75969b">
   <rect height="271.8" width="446.4" x="27.6625" y="7.2"/>
  </clipPath>
 </defs>
</svg>
