<?xml version="1.0" encoding="utf-8" standalone="no"?>
<!DOCTYPE svg PUBLIC "-//W3C//DTD SVG 1.1//EN"
  "http://www.w3.org/Graphics/SVG/1.1/DTD/svg11.dtd">
<!-- Created with matplotlib (https://matplotlib.org/) -->
<svg height="307.188906pt" version="1.1" viewBox="0 0 539.602159 307.188906" width="539.602159pt" xmlns="http://www.w3.org/2000/svg" xmlns:xlink="http://www.w3.org/1999/xlink">
 <defs>
  <style type="text/css">
*{stroke-linecap:butt;stroke-linejoin:round;}
  </style>
 </defs>
 <g id="figure_1">
  <g id="patch_1">
   <path d="M 0 307.188906 
L 539.602159 307.188906 
L 539.602159 0 
L 0 0 
z
" style="fill:#ffffff;"/>
  </g>
  <g id="axes_1">
   <g id="patch_2">
    <path d="M 31.122031 279 
L 532.242031 279 
L 532.242031 7.2 
L 31.122031 7.2 
z
" style="fill:#ffffff;"/>
   </g>
   <g id="matplotlib.axis_1">
    <g id="xtick_1">
     <g id="line2d_1">
      <path clip-path="url(#p9bf516dfbf)" d="M 53.900213 279 
L 53.900213 7.2 
" style="fill:none;stroke:#cccccc;stroke-linecap:round;"/>
     </g>
     <g id="line2d_2"/>
     <g id="text_1">
      <!-- 0 -->
      <defs>
       <path d="M 4.15625 35.296875 
Q 4.15625 48 6.765625 55.734375 
Q 9.375 63.484375 14.515625 67.671875 
Q 19.671875 71.875 27.484375 71.875 
Q 33.25 71.875 37.59375 69.546875 
Q 41.9375 67.234375 44.765625 62.859375 
Q 47.609375 58.5 49.21875 52.21875 
Q 50.828125 45.953125 50.828125 35.296875 
Q 50.828125 22.703125 48.234375 14.96875 
Q 45.65625 7.234375 40.5 3 
Q 35.359375 -1.21875 27.484375 -1.21875 
Q 17.140625 -1.21875 11.234375 6.203125 
Q 4.15625 15.140625 4.15625 35.296875 
z
M 13.1875 35.296875 
Q 13.1875 17.671875 17.3125 11.828125 
Q 21.4375 6 27.484375 6 
Q 33.546875 6 37.671875 11.859375 
Q 41.796875 17.71875 41.796875 35.296875 
Q 41.796875 52.984375 37.671875 58.78125 
Q 33.546875 64.59375 27.390625 64.59375 
Q 21.34375 64.59375 17.71875 59.46875 
Q 13.1875 52.9375 13.1875 35.296875 
z
" id="ArialMT-48"/>
      </defs>
      <g style="fill:#262626;" transform="translate(50.285604 297.405156)scale(0.13 -0.13)">
       <use xlink:href="#ArialMT-48"/>
      </g>
     </g>
    </g>
    <g id="xtick_2">
     <g id="line2d_3">
      <path clip-path="url(#p9bf516dfbf)" d="M 132.445668 279 
L 132.445668 7.2 
" style="fill:none;stroke:#cccccc;stroke-linecap:round;"/>
     </g>
     <g id="line2d_4"/>
     <g id="text_2">
      <!-- 5 -->
      <defs>
       <path d="M 4.15625 18.75 
L 13.375 19.53125 
Q 14.40625 12.796875 18.140625 9.390625 
Q 21.875 6 27.15625 6 
Q 33.5 6 37.890625 10.78125 
Q 42.28125 15.578125 42.28125 23.484375 
Q 42.28125 31 38.0625 35.34375 
Q 33.84375 39.703125 27 39.703125 
Q 22.75 39.703125 19.328125 37.765625 
Q 15.921875 35.84375 13.96875 32.765625 
L 5.71875 33.84375 
L 12.640625 70.609375 
L 48.25 70.609375 
L 48.25 62.203125 
L 19.671875 62.203125 
L 15.828125 42.96875 
Q 22.265625 47.46875 29.34375 47.46875 
Q 38.71875 47.46875 45.15625 40.96875 
Q 51.609375 34.46875 51.609375 24.265625 
Q 51.609375 14.546875 45.953125 7.46875 
Q 39.0625 -1.21875 27.15625 -1.21875 
Q 17.390625 -1.21875 11.203125 4.25 
Q 5.03125 9.71875 4.15625 18.75 
z
" id="ArialMT-53"/>
      </defs>
      <g style="fill:#262626;" transform="translate(128.831058 297.405156)scale(0.13 -0.13)">
       <use xlink:href="#ArialMT-53"/>
      </g>
     </g>
    </g>
    <g id="xtick_3">
     <g id="line2d_5">
      <path clip-path="url(#p9bf516dfbf)" d="M 210.991122 279 
L 210.991122 7.2 
" style="fill:none;stroke:#cccccc;stroke-linecap:round;"/>
     </g>
     <g id="line2d_6"/>
     <g id="text_3">
      <!-- 10 -->
      <defs>
       <path d="M 37.25 0 
L 28.46875 0 
L 28.46875 56 
Q 25.296875 52.984375 20.140625 49.953125 
Q 14.984375 46.921875 10.890625 45.40625 
L 10.890625 53.90625 
Q 18.265625 57.375 23.78125 62.296875 
Q 29.296875 67.234375 31.59375 71.875 
L 37.25 71.875 
z
" id="ArialMT-49"/>
      </defs>
      <g style="fill:#262626;" transform="translate(203.761903 297.405156)scale(0.13 -0.13)">
       <use xlink:href="#ArialMT-49"/>
       <use x="55.615234" xlink:href="#ArialMT-48"/>
      </g>
     </g>
    </g>
    <g id="xtick_4">
     <g id="line2d_7">
      <path clip-path="url(#p9bf516dfbf)" d="M 289.536577 279 
L 289.536577 7.2 
" style="fill:none;stroke:#cccccc;stroke-linecap:round;"/>
     </g>
     <g id="line2d_8"/>
     <g id="text_4">
      <!-- 15 -->
      <g style="fill:#262626;" transform="translate(282.307358 297.405156)scale(0.13 -0.13)">
       <use xlink:href="#ArialMT-49"/>
       <use x="55.615234" xlink:href="#ArialMT-53"/>
      </g>
     </g>
    </g>
    <g id="xtick_5">
     <g id="line2d_9">
      <path clip-path="url(#p9bf516dfbf)" d="M 368.082031 279 
L 368.082031 7.2 
" style="fill:none;stroke:#cccccc;stroke-linecap:round;"/>
     </g>
     <g id="line2d_10"/>
     <g id="text_5">
      <!-- 20 -->
      <defs>
       <path d="M 50.34375 8.453125 
L 50.34375 0 
L 3.03125 0 
Q 2.9375 3.171875 4.046875 6.109375 
Q 5.859375 10.9375 9.828125 15.625 
Q 13.8125 20.3125 21.34375 26.46875 
Q 33.015625 36.03125 37.109375 41.625 
Q 41.21875 47.21875 41.21875 52.203125 
Q 41.21875 57.421875 37.46875 61 
Q 33.734375 64.59375 27.734375 64.59375 
Q 21.390625 64.59375 17.578125 60.78125 
Q 13.765625 56.984375 13.71875 50.25 
L 4.6875 51.171875 
Q 5.609375 61.28125 11.65625 66.578125 
Q 17.71875 71.875 27.9375 71.875 
Q 38.234375 71.875 44.234375 66.15625 
Q 50.25 60.453125 50.25 52 
Q 50.25 47.703125 48.484375 43.546875 
Q 46.734375 39.40625 42.65625 34.8125 
Q 38.578125 30.21875 29.109375 22.21875 
Q 21.1875 15.578125 18.9375 13.203125 
Q 16.703125 10.84375 15.234375 8.453125 
z
" id="ArialMT-50"/>
      </defs>
      <g style="fill:#262626;" transform="translate(360.852813 297.405156)scale(0.13 -0.13)">
       <use xlink:href="#ArialMT-50"/>
       <use x="55.615234" xlink:href="#ArialMT-48"/>
      </g>
     </g>
    </g>
    <g id="xtick_6">
     <g id="line2d_11">
      <path clip-path="url(#p9bf516dfbf)" d="M 446.627486 279 
L 446.627486 7.2 
" style="fill:none;stroke:#cccccc;stroke-linecap:round;"/>
     </g>
     <g id="line2d_12"/>
     <g id="text_6">
      <!-- 25 -->
      <g style="fill:#262626;" transform="translate(439.398267 297.405156)scale(0.13 -0.13)">
       <use xlink:href="#ArialMT-50"/>
       <use x="55.615234" xlink:href="#ArialMT-53"/>
      </g>
     </g>
    </g>
    <g id="xtick_7">
     <g id="line2d_13">
      <path clip-path="url(#p9bf516dfbf)" d="M 525.17294 279 
L 525.17294 7.2 
" style="fill:none;stroke:#cccccc;stroke-linecap:round;"/>
     </g>
     <g id="line2d_14"/>
     <g id="text_7">
      <!-- 30 -->
      <defs>
       <path d="M 4.203125 18.890625 
L 12.984375 20.0625 
Q 14.5 12.59375 18.140625 9.296875 
Q 21.78125 6 27 6 
Q 33.203125 6 37.46875 10.296875 
Q 41.75 14.59375 41.75 20.953125 
Q 41.75 27 37.796875 30.921875 
Q 33.84375 34.859375 27.734375 34.859375 
Q 25.25 34.859375 21.53125 33.890625 
L 22.515625 41.609375 
Q 23.390625 41.5 23.921875 41.5 
Q 29.546875 41.5 34.03125 44.421875 
Q 38.53125 47.359375 38.53125 53.46875 
Q 38.53125 58.296875 35.25 61.46875 
Q 31.984375 64.65625 26.8125 64.65625 
Q 21.6875 64.65625 18.265625 61.421875 
Q 14.84375 58.203125 13.875 51.765625 
L 5.078125 53.328125 
Q 6.6875 62.15625 12.390625 67.015625 
Q 18.109375 71.875 26.609375 71.875 
Q 32.46875 71.875 37.390625 69.359375 
Q 42.328125 66.84375 44.9375 62.5 
Q 47.5625 58.15625 47.5625 53.265625 
Q 47.5625 48.640625 45.0625 44.828125 
Q 42.578125 41.015625 37.703125 38.765625 
Q 44.046875 37.3125 47.5625 32.6875 
Q 51.078125 28.078125 51.078125 21.140625 
Q 51.078125 11.765625 44.234375 5.25 
Q 37.40625 -1.265625 26.953125 -1.265625 
Q 17.53125 -1.265625 11.296875 4.34375 
Q 5.078125 9.96875 4.203125 18.890625 
z
" id="ArialMT-51"/>
      </defs>
      <g style="fill:#262626;" transform="translate(517.943722 297.405156)scale(0.13 -0.13)">
       <use xlink:href="#ArialMT-51"/>
       <use x="55.615234" xlink:href="#ArialMT-48"/>
      </g>
     </g>
    </g>
   </g>
   <g id="matplotlib.axis_2">
    <g id="ytick_1">
     <g id="line2d_15">
      <path clip-path="url(#p9bf516dfbf)" d="M 31.122031 237.952174 
L 532.242031 237.952174 
" style="fill:none;stroke:#cccccc;stroke-linecap:round;"/>
     </g>
     <g id="line2d_16"/>
     <g id="text_8">
      <!-- −2 -->
      <defs>
       <path d="M 52.828125 31.203125 
L 5.5625 31.203125 
L 5.5625 39.40625 
L 52.828125 39.40625 
z
" id="ArialMT-8722"/>
      </defs>
      <g style="fill:#262626;" transform="translate(7.2 242.604753)scale(0.13 -0.13)">
       <use xlink:href="#ArialMT-8722"/>
       <use x="58.398438" xlink:href="#ArialMT-50"/>
      </g>
     </g>
    </g>
    <g id="ytick_2">
     <g id="line2d_17">
      <path clip-path="url(#p9bf516dfbf)" d="M 31.122031 179.498156 
L 532.242031 179.498156 
" style="fill:none;stroke:#cccccc;stroke-linecap:round;"/>
     </g>
     <g id="line2d_18"/>
     <g id="text_9">
      <!-- −1 -->
      <g style="fill:#262626;" transform="translate(7.2 184.150734)scale(0.13 -0.13)">
       <use xlink:href="#ArialMT-8722"/>
       <use x="58.398438" xlink:href="#ArialMT-49"/>
      </g>
     </g>
    </g>
    <g id="ytick_3">
     <g id="line2d_19">
      <path clip-path="url(#p9bf516dfbf)" d="M 31.122031 121.044137 
L 532.242031 121.044137 
" style="fill:none;stroke:#cccccc;stroke-linecap:round;"/>
     </g>
     <g id="line2d_20"/>
     <g id="text_10">
      <!-- 0 -->
      <g style="fill:#262626;" transform="translate(14.792813 125.696715)scale(0.13 -0.13)">
       <use xlink:href="#ArialMT-48"/>
      </g>
     </g>
    </g>
    <g id="ytick_4">
     <g id="line2d_21">
      <path clip-path="url(#p9bf516dfbf)" d="M 31.122031 62.590118 
L 532.242031 62.590118 
" style="fill:none;stroke:#cccccc;stroke-linecap:round;"/>
     </g>
     <g id="line2d_22"/>
     <g id="text_11">
      <!-- 1 -->
      <g style="fill:#262626;" transform="translate(14.792813 67.242697)scale(0.13 -0.13)">
       <use xlink:href="#ArialMT-49"/>
      </g>
     </g>
    </g>
   </g>
   <g id="line2d_23">
    <path clip-path="url(#p9bf516dfbf)" d="M 53.900213 171.385647 
L 69.609304 201.173531 
L 85.318395 136.957018 
L 101.027486 144.384605 
L 116.736577 96.835052 
L 132.445668 69.169315 
L 148.154759 25.102836 
L 163.863849 77.021006 
L 179.57294 89.97292 
L 195.282031 65.17365 
L 210.991122 114.805371 
L 226.700213 19.554545 
L 242.409304 64.986648 
L 258.118395 82.523063 
L 273.827486 141.360485 
L 289.536577 266.645455 
L 305.245668 161.608346 
L 320.954759 173.552778 
L 336.663849 199.7352 
L 352.37294 211.350894 
L 368.082031 128.354139 
L 383.791122 184.768499 
L 399.500213 145.045026 
L 415.209304 169.817152 
L 430.918395 204.694961 
L 446.627486 171.54813 
L 462.336577 113.781497 
L 478.045668 143.82119 
L 493.754759 188.763513 
L 509.463849 257.101857 
" style="fill:none;stroke:#000000;stroke-dasharray:14.8,6.4;stroke-dashoffset:0;stroke-width:4;"/>
    <defs>
     <path d="M 0 4.55 
C 1.206674 4.55 2.364088 4.070583 3.217336 3.217336 
C 4.070583 2.364088 4.55 1.206674 4.55 0 
C 4.55 -1.206674 4.070583 -2.364088 3.217336 -3.217336 
C 2.364088 -4.070583 1.206674 -4.55 0 -4.55 
C -1.206674 -4.55 -2.364088 -4.070583 -3.217336 -3.217336 
C -4.070583 -2.364088 -4.55 -1.206674 -4.55 0 
C -4.55 1.206674 -4.070583 2.364088 -3.217336 3.217336 
C -2.364088 4.070583 -1.206674 4.55 0 4.55 
z
" id="m95b1272fe3"/>
    </defs>
    <g clip-path="url(#p9bf516dfbf)">
     <use x="53.900213" xlink:href="#m95b1272fe3" y="171.385647"/>
     <use x="69.609304" xlink:href="#m95b1272fe3" y="201.173531"/>
     <use x="85.318395" xlink:href="#m95b1272fe3" y="136.957018"/>
     <use x="101.027486" xlink:href="#m95b1272fe3" y="144.384605"/>
     <use x="116.736577" xlink:href="#m95b1272fe3" y="96.835052"/>
     <use x="132.445668" xlink:href="#m95b1272fe3" y="69.169315"/>
     <use x="148.154759" xlink:href="#m95b1272fe3" y="25.102836"/>
     <use x="163.863849" xlink:href="#m95b1272fe3" y="77.021006"/>
     <use x="179.57294" xlink:href="#m95b1272fe3" y="89.97292"/>
     <use x="195.282031" xlink:href="#m95b1272fe3" y="65.17365"/>
     <use x="210.991122" xlink:href="#m95b1272fe3" y="114.805371"/>
     <use x="226.700213" xlink:href="#m95b1272fe3" y="19.554545"/>
     <use x="242.409304" xlink:href="#m95b1272fe3" y="64.986648"/>
     <use x="258.118395" xlink:href="#m95b1272fe3" y="82.523063"/>
     <use x="273.827486" xlink:href="#m95b1272fe3" y="141.360485"/>
     <use x="289.536577" xlink:href="#m95b1272fe3" y="266.645455"/>
     <use x="305.245668" xlink:href="#m95b1272fe3" y="161.608346"/>
     <use x="320.954759" xlink:href="#m95b1272fe3" y="173.552778"/>
     <use x="336.663849" xlink:href="#m95b1272fe3" y="199.7352"/>
     <use x="352.37294" xlink:href="#m95b1272fe3" y="211.350894"/>
     <use x="368.082031" xlink:href="#m95b1272fe3" y="128.354139"/>
     <use x="383.791122" xlink:href="#m95b1272fe3" y="184.768499"/>
     <use x="399.500213" xlink:href="#m95b1272fe3" y="145.045026"/>
     <use x="415.209304" xlink:href="#m95b1272fe3" y="169.817152"/>
     <use x="430.918395" xlink:href="#m95b1272fe3" y="204.694961"/>
     <use x="446.627486" xlink:href="#m95b1272fe3" y="171.54813"/>
     <use x="462.336577" xlink:href="#m95b1272fe3" y="113.781497"/>
     <use x="478.045668" xlink:href="#m95b1272fe3" y="143.82119"/>
     <use x="493.754759" xlink:href="#m95b1272fe3" y="188.763513"/>
     <use x="509.463849" xlink:href="#m95b1272fe3" y="257.101857"/>
    </g>
   </g>
   <g id="patch_3">
    <path d="M 31.122031 279 
L 31.122031 7.2 
" style="fill:none;stroke:#cccccc;stroke-linecap:square;stroke-linejoin:miter;"/>
   </g>
   <g id="patch_4">
    <path d="M 532.242031 279 
L 532.242031 7.2 
" style="fill:none;stroke:#cccccc;stroke-linecap:square;stroke-linejoin:miter;"/>
   </g>
   <g id="patch_5">
    <path d="M 31.122031 279 
L 532.242031 279 
" style="fill:none;stroke:#cccccc;stroke-linecap:square;stroke-linejoin:miter;"/>
   </g>
   <g id="patch_6">
    <path d="M 31.122031 7.2 
L 532.242031 7.2 
" style="fill:none;stroke:#cccccc;stroke-linecap:square;stroke-linejoin:miter;"/>
   </g>
  </g>
 </g>
 <defs>
  <clipPath id="p9bf516dfbf">
   <rect height="271.8" width="501.12" x="31.122031" y="7.2"/>
  </clipPath>
 </defs>
</svg>
