<?xml version="1.0" encoding="utf-8" standalone="no"?>
<!DOCTYPE svg PUBLIC "-//W3C//DTD SVG 1.1//EN"
  "http://www.w3.org/Graphics/SVG/1.1/DTD/svg11.dtd">
<!-- Created with matplotlib (https://matplotlib.org/) -->
<svg height="318.930798pt" version="1.1" viewBox="0 0 562.777248 318.930798" width="562.777248pt" xmlns="http://www.w3.org/2000/svg" xmlns:xlink="http://www.w3.org/1999/xlink">
 <defs>
  <style type="text/css">
*{stroke-linecap:butt;stroke-linejoin:round;}
  </style>
 </defs>
 <g id="figure_1">
  <g id="patch_1">
   <path d="M 0 318.930798 
L 562.777248 318.930798 
L 562.777248 0 
L 0 0 
z
" style="fill:#ffffff;"/>
  </g>
  <g id="axes_1">
   <g id="patch_2">
    <path d="M 54.457248 268.48275 
L 555.577248 268.48275 
L 555.577248 23.68275 
L 54.457248 23.68275 
z
" style="fill:#ffffff;"/>
   </g>
   <g id="matplotlib.axis_1">
    <g id="xtick_1">
     <g id="line2d_1">
      <path clip-path="url(#pbd1c4d0c68)" d="M 54.457248 268.48275 
L 54.457248 23.68275 
" style="fill:none;stroke:#cccccc;stroke-linecap:round;"/>
     </g>
     <g id="line2d_2"/>
     <g id="text_1">
      <!-- 2007-01 -->
      <defs>
       <path d="M 50.34375 8.453125 
L 50.34375 0 
L 3.03125 0 
Q 2.9375 3.171875 4.046875 6.109375 
Q 5.859375 10.9375 9.828125 15.625 
Q 13.8125 20.3125 21.34375 26.46875 
Q 33.015625 36.03125 37.109375 41.625 
Q 41.21875 47.21875 41.21875 52.203125 
Q 41.21875 57.421875 37.46875 61 
Q 33.734375 64.59375 27.734375 64.59375 
Q 21.390625 64.59375 17.578125 60.78125 
Q 13.765625 56.984375 13.71875 50.25 
L 4.6875 51.171875 
Q 5.609375 61.28125 11.65625 66.578125 
Q 17.71875 71.875 27.9375 71.875 
Q 38.234375 71.875 44.234375 66.15625 
Q 50.25 60.453125 50.25 52 
Q 50.25 47.703125 48.484375 43.546875 
Q 46.734375 39.40625 42.65625 34.8125 
Q 38.578125 30.21875 29.109375 22.21875 
Q 21.1875 15.578125 18.9375 13.203125 
Q 16.703125 10.84375 15.234375 8.453125 
z
" id="ArialMT-50"/>
       <path d="M 4.15625 35.296875 
Q 4.15625 48 6.765625 55.734375 
Q 9.375 63.484375 14.515625 67.671875 
Q 19.671875 71.875 27.484375 71.875 
Q 33.25 71.875 37.59375 69.546875 
Q 41.9375 67.234375 44.765625 62.859375 
Q 47.609375 58.5 49.21875 52.21875 
Q 50.828125 45.953125 50.828125 35.296875 
Q 50.828125 22.703125 48.234375 14.96875 
Q 45.65625 7.234375 40.5 3 
Q 35.359375 -1.21875 27.484375 -1.21875 
Q 17.140625 -1.21875 11.234375 6.203125 
Q 4.15625 15.140625 4.15625 35.296875 
z
M 13.1875 35.296875 
Q 13.1875 17.671875 17.3125 11.828125 
Q 21.4375 6 27.484375 6 
Q 33.546875 6 37.671875 11.859375 
Q 41.796875 17.71875 41.796875 35.296875 
Q 41.796875 52.984375 37.671875 58.78125 
Q 33.546875 64.59375 27.390625 64.59375 
Q 21.34375 64.59375 17.71875 59.46875 
Q 13.1875 52.9375 13.1875 35.296875 
z
" id="ArialMT-48"/>
       <path d="M 4.734375 62.203125 
L 4.734375 70.65625 
L 51.078125 70.65625 
L 51.078125 63.8125 
Q 44.234375 56.546875 37.515625 44.484375 
Q 30.8125 32.421875 27.15625 19.671875 
Q 24.515625 10.6875 23.78125 0 
L 14.75 0 
Q 14.890625 8.453125 18.0625 20.40625 
Q 21.234375 32.375 27.171875 43.484375 
Q 33.109375 54.59375 39.796875 62.203125 
z
" id="ArialMT-55"/>
       <path d="M 3.171875 21.484375 
L 3.171875 30.328125 
L 30.171875 30.328125 
L 30.171875 21.484375 
z
" id="ArialMT-45"/>
       <path d="M 37.25 0 
L 28.46875 0 
L 28.46875 56 
Q 25.296875 52.984375 20.140625 49.953125 
Q 14.984375 46.921875 10.890625 45.40625 
L 10.890625 53.90625 
Q 18.265625 57.375 23.78125 62.296875 
Q 29.296875 67.234375 31.59375 71.875 
L 37.25 71.875 
z
" id="ArialMT-49"/>
      </defs>
      <g style="fill:#262626;" transform="translate(11.852578 309.493205)rotate(-30)scale(0.13 -0.13)">
       <use xlink:href="#ArialMT-50"/>
       <use x="55.615234" xlink:href="#ArialMT-48"/>
       <use x="111.230469" xlink:href="#ArialMT-48"/>
       <use x="166.845703" xlink:href="#ArialMT-55"/>
       <use x="222.460938" xlink:href="#ArialMT-45"/>
       <use x="255.761719" xlink:href="#ArialMT-48"/>
       <use x="311.376953" xlink:href="#ArialMT-49"/>
      </g>
     </g>
    </g>
    <g id="xtick_2">
     <g id="line2d_3">
      <path clip-path="url(#pbd1c4d0c68)" d="M 116.539876 268.48275 
L 116.539876 23.68275 
" style="fill:none;stroke:#cccccc;stroke-linecap:round;"/>
     </g>
     <g id="line2d_4"/>
     <g id="text_2">
      <!-- 2007-07 -->
      <g style="fill:#262626;" transform="translate(73.935206 309.493205)rotate(-30)scale(0.13 -0.13)">
       <use xlink:href="#ArialMT-50"/>
       <use x="55.615234" xlink:href="#ArialMT-48"/>
       <use x="111.230469" xlink:href="#ArialMT-48"/>
       <use x="166.845703" xlink:href="#ArialMT-55"/>
       <use x="222.460938" xlink:href="#ArialMT-45"/>
       <use x="255.761719" xlink:href="#ArialMT-48"/>
       <use x="311.376953" xlink:href="#ArialMT-55"/>
      </g>
     </g>
    </g>
    <g id="xtick_3">
     <g id="line2d_5">
      <path clip-path="url(#pbd1c4d0c68)" d="M 179.651498 268.48275 
L 179.651498 23.68275 
" style="fill:none;stroke:#cccccc;stroke-linecap:round;"/>
     </g>
     <g id="line2d_6"/>
     <g id="text_3">
      <!-- 2008-01 -->
      <defs>
       <path d="M 17.671875 38.8125 
Q 12.203125 40.828125 9.5625 44.53125 
Q 6.9375 48.25 6.9375 53.421875 
Q 6.9375 61.234375 12.546875 66.546875 
Q 18.171875 71.875 27.484375 71.875 
Q 36.859375 71.875 42.578125 66.421875 
Q 48.296875 60.984375 48.296875 53.171875 
Q 48.296875 48.1875 45.671875 44.5 
Q 43.0625 40.828125 37.75 38.8125 
Q 44.34375 36.671875 47.78125 31.875 
Q 51.21875 27.09375 51.21875 20.453125 
Q 51.21875 11.28125 44.71875 5.03125 
Q 38.234375 -1.21875 27.640625 -1.21875 
Q 17.046875 -1.21875 10.546875 5.046875 
Q 4.046875 11.328125 4.046875 20.703125 
Q 4.046875 27.6875 7.59375 32.390625 
Q 11.140625 37.109375 17.671875 38.8125 
z
M 15.921875 53.71875 
Q 15.921875 48.640625 19.1875 45.40625 
Q 22.46875 42.1875 27.6875 42.1875 
Q 32.765625 42.1875 36.015625 45.375 
Q 39.265625 48.578125 39.265625 53.21875 
Q 39.265625 58.0625 35.90625 61.359375 
Q 32.5625 64.65625 27.59375 64.65625 
Q 22.5625 64.65625 19.234375 61.421875 
Q 15.921875 58.203125 15.921875 53.71875 
z
M 13.09375 20.65625 
Q 13.09375 16.890625 14.875 13.375 
Q 16.65625 9.859375 20.171875 7.921875 
Q 23.6875 6 27.734375 6 
Q 34.03125 6 38.125 10.046875 
Q 42.234375 14.109375 42.234375 20.359375 
Q 42.234375 26.703125 38.015625 30.859375 
Q 33.796875 35.015625 27.4375 35.015625 
Q 21.234375 35.015625 17.15625 30.90625 
Q 13.09375 26.8125 13.09375 20.65625 
z
" id="ArialMT-56"/>
      </defs>
      <g style="fill:#262626;" transform="translate(137.046829 309.493205)rotate(-30)scale(0.13 -0.13)">
       <use xlink:href="#ArialMT-50"/>
       <use x="55.615234" xlink:href="#ArialMT-48"/>
       <use x="111.230469" xlink:href="#ArialMT-48"/>
       <use x="166.845703" xlink:href="#ArialMT-56"/>
       <use x="222.460938" xlink:href="#ArialMT-45"/>
       <use x="255.761719" xlink:href="#ArialMT-48"/>
       <use x="311.376953" xlink:href="#ArialMT-49"/>
      </g>
     </g>
    </g>
    <g id="xtick_4">
     <g id="line2d_7">
      <path clip-path="url(#pbd1c4d0c68)" d="M 242.077125 268.48275 
L 242.077125 23.68275 
" style="fill:none;stroke:#cccccc;stroke-linecap:round;"/>
     </g>
     <g id="line2d_8"/>
     <g id="text_4">
      <!-- 2008-07 -->
      <g style="fill:#262626;" transform="translate(199.472455 309.493205)rotate(-30)scale(0.13 -0.13)">
       <use xlink:href="#ArialMT-50"/>
       <use x="55.615234" xlink:href="#ArialMT-48"/>
       <use x="111.230469" xlink:href="#ArialMT-48"/>
       <use x="166.845703" xlink:href="#ArialMT-56"/>
       <use x="222.460938" xlink:href="#ArialMT-45"/>
       <use x="255.761719" xlink:href="#ArialMT-48"/>
       <use x="311.376953" xlink:href="#ArialMT-55"/>
      </g>
     </g>
    </g>
    <g id="xtick_5">
     <g id="line2d_9">
      <path clip-path="url(#pbd1c4d0c68)" d="M 305.188747 268.48275 
L 305.188747 23.68275 
" style="fill:none;stroke:#cccccc;stroke-linecap:round;"/>
     </g>
     <g id="line2d_10"/>
     <g id="text_5">
      <!-- 2009-01 -->
      <defs>
       <path d="M 5.46875 16.546875 
L 13.921875 17.328125 
Q 14.984375 11.375 18.015625 8.6875 
Q 21.046875 6 25.78125 6 
Q 29.828125 6 32.875 7.859375 
Q 35.9375 9.71875 37.890625 12.8125 
Q 39.84375 15.921875 41.15625 21.1875 
Q 42.484375 26.46875 42.484375 31.9375 
Q 42.484375 32.515625 42.4375 33.6875 
Q 39.796875 29.5 35.234375 26.875 
Q 30.671875 24.265625 25.34375 24.265625 
Q 16.453125 24.265625 10.296875 30.703125 
Q 4.15625 37.15625 4.15625 47.703125 
Q 4.15625 58.59375 10.578125 65.234375 
Q 17 71.875 26.65625 71.875 
Q 33.640625 71.875 39.421875 68.109375 
Q 45.21875 64.359375 48.21875 57.390625 
Q 51.21875 50.4375 51.21875 37.25 
Q 51.21875 23.53125 48.234375 15.40625 
Q 45.265625 7.28125 39.375 3.03125 
Q 33.5 -1.21875 25.59375 -1.21875 
Q 17.1875 -1.21875 11.859375 3.4375 
Q 6.546875 8.109375 5.46875 16.546875 
z
M 41.453125 48.140625 
Q 41.453125 55.71875 37.421875 60.15625 
Q 33.40625 64.59375 27.734375 64.59375 
Q 21.875 64.59375 17.53125 59.8125 
Q 13.1875 55.03125 13.1875 47.40625 
Q 13.1875 40.578125 17.3125 36.296875 
Q 21.4375 32.03125 27.484375 32.03125 
Q 33.59375 32.03125 37.515625 36.296875 
Q 41.453125 40.578125 41.453125 48.140625 
z
" id="ArialMT-57"/>
      </defs>
      <g style="fill:#262626;" transform="translate(262.584077 309.493205)rotate(-30)scale(0.13 -0.13)">
       <use xlink:href="#ArialMT-50"/>
       <use x="55.615234" xlink:href="#ArialMT-48"/>
       <use x="111.230469" xlink:href="#ArialMT-48"/>
       <use x="166.845703" xlink:href="#ArialMT-57"/>
       <use x="222.460938" xlink:href="#ArialMT-45"/>
       <use x="255.761719" xlink:href="#ArialMT-48"/>
       <use x="311.376953" xlink:href="#ArialMT-49"/>
      </g>
     </g>
    </g>
    <g id="xtick_6">
     <g id="line2d_11">
      <path clip-path="url(#pbd1c4d0c68)" d="M 367.271375 268.48275 
L 367.271375 23.68275 
" style="fill:none;stroke:#cccccc;stroke-linecap:round;"/>
     </g>
     <g id="line2d_12"/>
     <g id="text_6">
      <!-- 2009-07 -->
      <g style="fill:#262626;" transform="translate(324.666705 309.493205)rotate(-30)scale(0.13 -0.13)">
       <use xlink:href="#ArialMT-50"/>
       <use x="55.615234" xlink:href="#ArialMT-48"/>
       <use x="111.230469" xlink:href="#ArialMT-48"/>
       <use x="166.845703" xlink:href="#ArialMT-57"/>
       <use x="222.460938" xlink:href="#ArialMT-45"/>
       <use x="255.761719" xlink:href="#ArialMT-48"/>
       <use x="311.376953" xlink:href="#ArialMT-55"/>
      </g>
     </g>
    </g>
    <g id="xtick_7">
     <g id="line2d_13">
      <path clip-path="url(#pbd1c4d0c68)" d="M 430.382997 268.48275 
L 430.382997 23.68275 
" style="fill:none;stroke:#cccccc;stroke-linecap:round;"/>
     </g>
     <g id="line2d_14"/>
     <g id="text_7">
      <!-- 2010-01 -->
      <g style="fill:#262626;" transform="translate(387.778328 309.493205)rotate(-30)scale(0.13 -0.13)">
       <use xlink:href="#ArialMT-50"/>
       <use x="55.615234" xlink:href="#ArialMT-48"/>
       <use x="111.230469" xlink:href="#ArialMT-49"/>
       <use x="166.845703" xlink:href="#ArialMT-48"/>
       <use x="222.460938" xlink:href="#ArialMT-45"/>
       <use x="255.761719" xlink:href="#ArialMT-48"/>
       <use x="311.376953" xlink:href="#ArialMT-49"/>
      </g>
     </g>
    </g>
    <g id="xtick_8">
     <g id="line2d_15">
      <path clip-path="url(#pbd1c4d0c68)" d="M 492.465626 268.48275 
L 492.465626 23.68275 
" style="fill:none;stroke:#cccccc;stroke-linecap:round;"/>
     </g>
     <g id="line2d_16"/>
     <g id="text_8">
      <!-- 2010-07 -->
      <g style="fill:#262626;" transform="translate(449.860956 309.493205)rotate(-30)scale(0.13 -0.13)">
       <use xlink:href="#ArialMT-50"/>
       <use x="55.615234" xlink:href="#ArialMT-48"/>
       <use x="111.230469" xlink:href="#ArialMT-49"/>
       <use x="166.845703" xlink:href="#ArialMT-48"/>
       <use x="222.460938" xlink:href="#ArialMT-45"/>
       <use x="255.761719" xlink:href="#ArialMT-48"/>
       <use x="311.376953" xlink:href="#ArialMT-55"/>
      </g>
     </g>
    </g>
    <g id="xtick_9">
     <g id="line2d_17">
      <path clip-path="url(#pbd1c4d0c68)" d="M 555.577248 268.48275 
L 555.577248 23.68275 
" style="fill:none;stroke:#cccccc;stroke-linecap:round;"/>
     </g>
     <g id="line2d_18"/>
     <g id="text_9">
      <!-- 2011-01 -->
      <g style="fill:#262626;" transform="translate(512.984892 309.486095)rotate(-30)scale(0.13 -0.13)">
       <use xlink:href="#ArialMT-50"/>
       <use x="55.615234" xlink:href="#ArialMT-48"/>
       <use x="111.230469" xlink:href="#ArialMT-49"/>
       <use x="166.736328" xlink:href="#ArialMT-49"/>
       <use x="222.351562" xlink:href="#ArialMT-45"/>
       <use x="255.652344" xlink:href="#ArialMT-48"/>
       <use x="311.267578" xlink:href="#ArialMT-49"/>
      </g>
     </g>
    </g>
   </g>
   <g id="matplotlib.axis_2">
    <g id="ytick_1">
     <g id="line2d_19">
      <path clip-path="url(#pbd1c4d0c68)" d="M 54.457248 268.48275 
L 555.577248 268.48275 
" style="fill:none;stroke:#cccccc;stroke-linecap:round;"/>
     </g>
     <g id="line2d_20"/>
     <g id="text_10">
      <!-- 600 -->
      <defs>
       <path d="M 49.75 54.046875 
L 41.015625 53.375 
Q 39.84375 58.546875 37.703125 60.890625 
Q 34.125 64.65625 28.90625 64.65625 
Q 24.703125 64.65625 21.53125 62.3125 
Q 17.390625 59.28125 14.984375 53.46875 
Q 12.59375 47.65625 12.5 36.921875 
Q 15.671875 41.75 20.265625 44.09375 
Q 24.859375 46.4375 29.890625 46.4375 
Q 38.671875 46.4375 44.84375 39.96875 
Q 51.03125 33.5 51.03125 23.25 
Q 51.03125 16.5 48.125 10.71875 
Q 45.21875 4.9375 40.140625 1.859375 
Q 35.0625 -1.21875 28.609375 -1.21875 
Q 17.625 -1.21875 10.6875 6.859375 
Q 3.765625 14.9375 3.765625 33.5 
Q 3.765625 54.25 11.421875 63.671875 
Q 18.109375 71.875 29.4375 71.875 
Q 37.890625 71.875 43.28125 67.140625 
Q 48.6875 62.40625 49.75 54.046875 
z
M 13.875 23.1875 
Q 13.875 18.65625 15.796875 14.5 
Q 17.71875 10.359375 21.1875 8.171875 
Q 24.65625 6 28.46875 6 
Q 34.03125 6 38.03125 10.484375 
Q 42.046875 14.984375 42.046875 22.703125 
Q 42.046875 30.125 38.078125 34.390625 
Q 34.125 38.671875 28.125 38.671875 
Q 22.171875 38.671875 18.015625 34.390625 
Q 13.875 30.125 13.875 23.1875 
z
" id="ArialMT-54"/>
      </defs>
      <g style="fill:#262626;" transform="translate(23.669592 273.135328)scale(0.13 -0.13)">
       <use xlink:href="#ArialMT-54"/>
       <use x="55.615234" xlink:href="#ArialMT-48"/>
       <use x="111.230469" xlink:href="#ArialMT-48"/>
      </g>
     </g>
    </g>
    <g id="ytick_2">
     <g id="line2d_21">
      <path clip-path="url(#pbd1c4d0c68)" d="M 54.457248 227.68275 
L 555.577248 227.68275 
" style="fill:none;stroke:#cccccc;stroke-linecap:round;"/>
     </g>
     <g id="line2d_22"/>
     <g id="text_11">
      <!-- 800 -->
      <g style="fill:#262626;" transform="translate(23.669592 232.335328)scale(0.13 -0.13)">
       <use xlink:href="#ArialMT-56"/>
       <use x="55.615234" xlink:href="#ArialMT-48"/>
       <use x="111.230469" xlink:href="#ArialMT-48"/>
      </g>
     </g>
    </g>
    <g id="ytick_3">
     <g id="line2d_23">
      <path clip-path="url(#pbd1c4d0c68)" d="M 54.457248 186.88275 
L 555.577248 186.88275 
" style="fill:none;stroke:#cccccc;stroke-linecap:round;"/>
     </g>
     <g id="line2d_24"/>
     <g id="text_12">
      <!-- 1000 -->
      <g style="fill:#262626;" transform="translate(16.440373 191.535328)scale(0.13 -0.13)">
       <use xlink:href="#ArialMT-49"/>
       <use x="55.615234" xlink:href="#ArialMT-48"/>
       <use x="111.230469" xlink:href="#ArialMT-48"/>
       <use x="166.845703" xlink:href="#ArialMT-48"/>
      </g>
     </g>
    </g>
    <g id="ytick_4">
     <g id="line2d_25">
      <path clip-path="url(#pbd1c4d0c68)" d="M 54.457248 146.08275 
L 555.577248 146.08275 
" style="fill:none;stroke:#cccccc;stroke-linecap:round;"/>
     </g>
     <g id="line2d_26"/>
     <g id="text_13">
      <!-- 1200 -->
      <g style="fill:#262626;" transform="translate(16.440373 150.735328)scale(0.13 -0.13)">
       <use xlink:href="#ArialMT-49"/>
       <use x="55.615234" xlink:href="#ArialMT-50"/>
       <use x="111.230469" xlink:href="#ArialMT-48"/>
       <use x="166.845703" xlink:href="#ArialMT-48"/>
      </g>
     </g>
    </g>
    <g id="ytick_5">
     <g id="line2d_27">
      <path clip-path="url(#pbd1c4d0c68)" d="M 54.457248 105.28275 
L 555.577248 105.28275 
" style="fill:none;stroke:#cccccc;stroke-linecap:round;"/>
     </g>
     <g id="line2d_28"/>
     <g id="text_14">
      <!-- 1400 -->
      <defs>
       <path d="M 32.328125 0 
L 32.328125 17.140625 
L 1.265625 17.140625 
L 1.265625 25.203125 
L 33.9375 71.578125 
L 41.109375 71.578125 
L 41.109375 25.203125 
L 50.78125 25.203125 
L 50.78125 17.140625 
L 41.109375 17.140625 
L 41.109375 0 
z
M 32.328125 25.203125 
L 32.328125 57.46875 
L 9.90625 25.203125 
z
" id="ArialMT-52"/>
      </defs>
      <g style="fill:#262626;" transform="translate(16.440373 109.935328)scale(0.13 -0.13)">
       <use xlink:href="#ArialMT-49"/>
       <use x="55.615234" xlink:href="#ArialMT-52"/>
       <use x="111.230469" xlink:href="#ArialMT-48"/>
       <use x="166.845703" xlink:href="#ArialMT-48"/>
      </g>
     </g>
    </g>
    <g id="ytick_6">
     <g id="line2d_29">
      <path clip-path="url(#pbd1c4d0c68)" d="M 54.457248 64.48275 
L 555.577248 64.48275 
" style="fill:none;stroke:#cccccc;stroke-linecap:round;"/>
     </g>
     <g id="line2d_30"/>
     <g id="text_15">
      <!-- 1600 -->
      <g style="fill:#262626;" transform="translate(16.440373 69.135328)scale(0.13 -0.13)">
       <use xlink:href="#ArialMT-49"/>
       <use x="55.615234" xlink:href="#ArialMT-54"/>
       <use x="111.230469" xlink:href="#ArialMT-48"/>
       <use x="166.845703" xlink:href="#ArialMT-48"/>
      </g>
     </g>
    </g>
    <g id="ytick_7">
     <g id="line2d_31">
      <path clip-path="url(#pbd1c4d0c68)" d="M 54.457248 23.68275 
L 555.577248 23.68275 
" style="fill:none;stroke:#cccccc;stroke-linecap:round;"/>
     </g>
     <g id="line2d_32"/>
     <g id="text_16">
      <!-- 1800 -->
      <g style="fill:#262626;" transform="translate(16.440373 28.335328)scale(0.13 -0.13)">
       <use xlink:href="#ArialMT-49"/>
       <use x="55.615234" xlink:href="#ArialMT-56"/>
       <use x="111.230469" xlink:href="#ArialMT-48"/>
       <use x="166.845703" xlink:href="#ArialMT-48"/>
      </g>
     </g>
    </g>
   </g>
   <g id="line2d_33">
    <path clip-path="url(#pbd1c4d0c68)" d="M 53.428254 101.54955 
L 55.143244 101.89635 
L 55.486242 101.54139 
L 55.82924 103.30191 
L 56.858233 102.66339 
L 57.201231 102.81231 
L 57.544229 102.25335 
L 58.230225 99.01383 
L 59.602217 98.77515 
L 59.945215 99.03627 
L 60.288213 99.90327 
L 60.631211 99.06075 
L 61.660205 100.60095 
L 62.003203 99.57279 
L 62.346201 97.09623 
L 62.689199 100.40715 
L 63.032196 100.75803 
L 64.06119 101.07627 
L 65.090184 95.91099 
L 65.433182 95.41119 
L 66.462176 95.69679 
L 66.805174 95.49075 
L 67.148172 95.07867 
L 67.49117 95.42751 
L 67.834168 97.51851 
L 68.863162 98.47527 
L 69.549157 94.00155 
L 69.892155 93.69351 
L 70.235153 93.95259 
L 71.607145 93.10803 
L 72.293141 93.78123 
L 72.636139 94.83999 
L 73.665133 95.21127 
L 74.008131 105.47859 
L 74.351129 103.89147 
L 74.694127 104.63607 
L 75.037125 107.90007 
L 76.066118 110.56227 
L 76.409116 106.21911 
L 76.752114 106.92087 
L 77.095112 104.89719 
L 77.43811 104.70339 
L 78.467104 103.93635 
L 78.810102 109.78095 
L 79.1531 107.90007 
L 79.496098 106.85763 
L 79.839096 107.94495 
L 80.86809 104.86251 
L 81.211088 103.05099 
L 81.554086 98.13459 
L 81.897084 98.23659 
L 82.240081 97.91631 
L 83.269075 97.63275 
L 83.955071 101.76783 
L 84.298069 100.68663 
L 84.641067 101.02731 
L 85.670061 100.27455 
L 86.013059 97.57767 
L 86.356057 97.25127 
L 86.699055 96.35571 
L 88.071047 96.18231 
L 88.414045 95.41119 
L 88.757042 97.35327 
L 89.10004 95.53155 
L 90.81503 90.70083 
L 91.158028 90.49275 
L 91.501026 90.85383 
L 91.844024 88.07535 
L 93.216016 88.87911 
L 93.559014 85.81707 
L 93.902012 86.05575 
L 94.24501 86.09247 
L 95.274003 88.47927 
L 95.617001 87.67755 
L 96.302997 84.39519 
L 96.645995 83.73627 
L 97.674989 82.94883 
L 98.017987 83.30787 
L 98.360985 82.31643 
L 98.703983 86.62287 
L 99.046981 83.68935 
L 100.075975 84.24015 
L 100.418973 84.63999 
L 100.761971 81.99819 
L 101.104969 82.28175 
L 101.447966 80.24175 
L 102.47696 79.76235 
L 102.819958 79.96227 
L 103.162956 80.33763 
L 103.505954 83.35071 
L 103.848952 81.67383 
L 105.220944 81.18831 
L 105.563942 78.71583 
L 105.90694 78.63627 
L 106.249938 77.46939 
L 107.278932 76.89003 
L 107.62193 78.56895 
L 107.964927 81.33723 
L 108.307925 86.77587 
L 108.650923 83.31807 
L 109.679917 83.02227 
L 110.022915 86.31075 
L 110.365913 81.68607 
L 110.708911 80.19687 
L 111.051909 78.16911 
L 112.080903 78.54855 
L 112.423901 78.00795 
L 112.766899 82.26339 
L 113.109897 80.35599 
L 113.452895 84.36051 
L 114.481888 85.34379 
L 114.824886 86.33319 
L 115.167884 83.58939 
L 115.510882 83.71791 
L 115.85388 84.19935 
L 117.225872 79.80927 
L 117.911868 79.70115 
L 118.254866 78.67299 
L 119.28386 78.38535 
L 119.626858 82.81827 
L 119.969856 81.05571 
L 120.312854 75.15195 
L 120.655851 74.17275 
L 121.684845 74.78067 
L 122.027843 74.81127 
L 122.370841 75.46407 
L 122.713839 74.05443 
L 123.056837 77.92635 
L 124.085831 76.40247 
L 124.428829 82.63059 
L 124.771827 81.19239 
L 125.114825 88.42011 
L 125.457823 93.25695 
L 126.486817 90.20511 
L 126.829815 94.00767 
L 127.172812 91.85751 
L 127.51581 90.55395 
L 127.858808 98.53851 
L 129.2308 89.63391 
L 129.573798 85.39479 
L 129.916796 94.45239 
L 130.259794 94.34019 
L 131.288788 94.48707 
L 131.974784 103.91595 
L 132.317782 102.98367 
L 132.66078 95.91099 
L 133.689773 95.99055 
L 134.032771 95.67027 
L 134.375769 92.21247 
L 134.718767 92.53275 
L 135.061765 89.09127 
L 136.090759 91.65759 
L 136.433757 98.68131 
L 136.776755 92.27571 
L 137.119753 93.52419 
L 137.462751 90.18879 
L 138.834743 87.04107 
L 139.177741 90.53559 
L 139.520739 89.25855 
L 139.863737 94.35855 
L 140.89273 94.73595 
L 141.235728 90.69879 
L 141.578726 90.68451 
L 141.921724 88.15695 
L 142.264722 88.09575 
L 143.293716 89.64615 
L 143.636714 80.84763 
L 143.979712 78.96063 
L 144.32271 81.05775 
L 144.665708 79.62975 
L 145.694702 81.26583 
L 146.0377 81.37191 
L 146.723695 78.48123 
L 147.066693 79.42575 
L 148.095687 75.28659 
L 148.438685 75.37023 
L 148.781683 76.80639 
L 149.124681 76.14339 
L 149.467679 73.13439 
L 150.496673 74.15643 
L 150.839671 71.59215 
L 151.182669 72.13887 
L 151.525667 73.78311 
L 151.868665 72.27555 
L 152.897658 74.94591 
L 153.240656 77.02263 
L 153.583654 76.46979 
L 153.926652 76.70643 
L 154.26965 84.75423 
L 155.298644 83.59143 
L 155.641642 80.88639 
L 155.98464 81.64323 
L 156.327638 81.94515 
L 156.670636 77.68563 
L 157.69963 76.52283 
L 158.042628 78.55467 
L 158.385626 74.80923 
L 158.728624 83.16099 
L 159.071622 82.91415 
L 160.100615 84.44007 
L 160.443613 80.74767 
L 160.786611 89.85627 
L 161.129609 90.02967 
L 161.472607 94.32795 
L 162.501601 97.29003 
L 162.844599 88.74855 
L 163.187597 90.88443 
L 163.530595 94.84815 
L 163.873593 93.29979 
L 164.902587 98.49567 
L 165.245585 97.18395 
L 165.588582 101.86167 
L 166.274578 96.97995 
L 167.303572 103.80987 
L 167.64657 99.52383 
L 167.989568 91.20267 
L 168.332566 91.05987 
L 168.675564 88.73019 
L 169.704558 90.50907 
L 170.047556 92.47359 
L 170.733552 83.38539 
L 171.07655 83.93211 
L 172.105543 81.62691 
L 172.448541 89.44215 
L 172.791539 87.61839 
L 173.134537 87.24711 
L 173.477535 91.42095 
L 174.506529 95.91915 
L 174.849527 94.06683 
L 175.192525 94.47075 
L 175.535523 93.01827 
L 175.878521 88.05291 
L 176.907515 85.60695 
L 177.593511 85.36011 
L 177.936509 89.72367 
L 178.279507 89.27079 
L 179.3085 91.33731 
L 179.994496 95.66211 
L 180.337494 95.66211 
L 180.680492 102.91023 
L 181.709486 101.98203 
L 182.052484 107.28399 
L 182.395482 103.42023 
L 182.73848 101.13543 
L 183.081478 105.07467 
L 184.110472 101.96775 
L 184.45347 109.16895 
L 184.796468 110.74995 
L 185.139465 118.89975 
L 185.482463 120.54399 
L 186.854455 123.54075 
L 187.197453 117.80835 
L 187.540451 115.06047 
L 187.883449 119.43831 
L 189.255441 112.97355 
L 189.598439 114.29751 
L 190.284435 106.21707 
L 191.313428 109.19547 
L 191.656426 118.20819 
L 191.999424 120.28695 
L 192.342422 118.15311 
L 192.68542 119.29959 
L 193.714414 117.70023 
L 194.057412 115.71531 
L 194.40041 111.97191 
L 194.743408 115.71531 
L 195.086406 115.48479 
L 196.458398 115.73163 
L 196.801396 113.43663 
L 197.144394 117.00663 
L 197.487392 114.84831 
L 198.516385 111.03555 
L 198.859383 109.09959 
L 199.202381 109.35867 
L 199.545379 111.87603 
L 199.888377 119.43423 
L 200.917371 119.28939 
L 201.260369 120.22575 
L 201.603367 118.80795 
L 201.946365 124.79739 
L 202.289363 127.03527 
L 203.318357 131.11527 
L 203.661355 121.47015 
L 204.004353 123.89367 
L 204.34735 122.52483 
L 204.690348 128.10219 
L 205.719342 130.45635 
L 206.06234 119.41179 
L 206.405338 126.00507 
L 206.748336 119.66271 
L 208.120328 115.50723 
L 208.463326 114.87279 
L 209.49232 122.57787 
L 210.521314 121.05195 
L 210.864311 111.36603 
L 211.207309 111.90663 
L 211.893305 111.32115 
L 212.922299 110.88459 
L 213.265297 112.31259 
L 213.608295 114.56679 
L 213.951293 113.33055 
L 214.294291 118.98543 
L 215.323285 119.90547 
L 215.666283 118.65903 
L 216.009281 112.48191 
L 216.352279 112.30851 
L 216.695277 107.25543 
L 217.72427 107.69607 
L 218.067268 110.19099 
L 218.410266 109.37703 
L 219.096262 105.72339 
L 220.125256 106.02327 
L 220.811252 108.22239 
L 221.15425 103.37739 
L 221.497248 102.44715 
L 222.526242 103.75479 
L 222.86924 101.55771 
L 223.212238 106.79847 
L 223.555235 105.75603 
L 223.898233 107.67363 
L 224.927227 104.55243 
L 225.270225 104.66259 
L 225.613223 103.51611 
L 225.956221 100.47447 
L 226.299219 100.11135 
L 227.328213 99.85023 
L 227.671211 102.54915 
L 228.014209 107.17791 
L 228.357207 106.43535 
L 228.700205 110.19303 
L 230.072196 108.27135 
L 230.415194 107.15139 
L 230.758192 105.63771 
L 231.10119 105.20523 
L 232.130184 108.20607 
L 232.473182 109.84215 
L 232.81618 109.93395 
L 233.159178 104.45655 
L 233.502176 113.30403 
L 234.53117 113.08371 
L 234.874168 113.76099 
L 235.217166 118.44279 
L 235.560164 117.54927 
L 235.903162 113.43663 
L 236.932155 113.41419 
L 237.275153 115.29303 
L 237.618151 117.96951 
L 237.961149 116.94543 
L 238.304147 122.02503 
L 239.333141 122.01075 
L 239.676139 122.76759 
L 240.019137 121.20087 
L 240.362135 129.12015 
L 240.705133 130.09323 
L 241.734127 129.76275 
L 242.077125 128.76111 
L 242.420123 133.53267 
L 242.76312 133.25115 
L 244.135112 135.41151 
L 244.47811 131.04795 
L 244.821108 136.96599 
L 245.164106 135.19119 
L 245.507104 138.02679 
L 246.536098 140.30955 
L 246.879096 143.04111 
L 247.222094 136.82931 
L 247.565092 133.77747 
L 247.90809 133.70403 
L 248.937084 133.84275 
L 249.280081 130.37475 
L 249.623079 129.31599 
L 249.966077 135.36459 
L 250.309075 134.29971 
L 251.338069 139.07127 
L 252.024065 128.89371 
L 252.367063 132.33723 
L 252.710061 133.77951 
L 253.739055 136.08471 
L 254.082053 128.76723 
L 254.425051 127.88799 
L 254.768049 132.60447 
L 255.111047 126.43347 
L 256.14004 124.59747 
L 256.483038 127.80639 
L 256.826036 128.57343 
L 257.512032 126.04995 
L 258.541026 130.04835 
L 258.884024 132.47799 
L 259.227022 130.87659 
L 259.57002 130.22787 
L 259.913018 127.27395 
L 260.942012 132.44739 
L 261.28501 131.49471 
L 261.628008 129.42411 
L 261.971005 125.54403 
L 262.314003 129.18543 
L 263.685995 130.25643 
L 264.028993 130.78683 
L 264.371991 138.56943 
L 264.714989 137.45151 
L 265.743983 132.25359 
L 266.086981 141.08271 
L 266.429979 139.54659 
L 266.772977 136.07655 
L 267.115975 135.53595 
L 268.144969 147.57195 
L 268.487966 143.30835 
L 268.830964 154.97919 
L 269.51696 134.84643 
L 270.888952 148.48587 
L 271.23195 148.96527 
L 271.574948 144.21003 
L 271.917946 143.37567 
L 272.94694 165.17307 
L 273.289938 152.94531 
L 273.632936 154.02651 
L 273.975934 163.56963 
L 275.347925 175.27719 
L 275.690923 187.65183 
L 276.033921 189.95499 
L 276.376919 205.25907 
L 276.719917 207.44187 
L 277.748911 186.19935 
L 278.091909 187.28871 
L 278.434907 205.68339 
L 278.777905 197.81103 
L 279.120903 199.01055 
L 280.149897 189.86115 
L 280.492895 196.05255 
L 280.835893 207.93963 
L 281.178891 205.62831 
L 281.521888 212.02167 
L 282.550882 217.70307 
L 282.89388 199.01871 
L 283.236878 201.14439 
L 283.579876 196.24839 
L 283.922874 193.25775 
L 284.951868 193.75755 
L 285.294866 185.70975 
L 285.980862 206.28723 
L 286.32386 200.96079 
L 287.352854 203.36391 
L 287.695851 207.49695 
L 288.038849 217.01355 
L 288.381847 204.97959 
L 288.724845 212.73159 
L 289.753839 217.32975 
L 290.096837 215.62227 
L 290.782833 237.38499 
L 291.125831 227.67663 
L 292.154825 217.11351 
L 292.497823 215.97519 
L 292.840821 209.79603 
L 293.526817 208.04979 
L 294.55581 224.37591 
L 294.898808 217.72551 
L 295.241806 213.25179 
L 295.584804 218.45787 
L 295.927802 212.16447 
L 296.956796 205.30395 
L 297.299794 209.59407 
L 297.642792 207.43779 
L 297.98579 212.67039 
L 298.328788 211.41783 
L 299.357782 213.69447 
L 299.70078 204.59403 
L 300.043778 206.38107 
L 300.386776 210.28563 
L 300.729773 209.75523 
L 301.758767 213.07023 
L 302.101765 214.79811 
L 302.444763 213.78015 
L 303.130759 212.83155 
L 304.159753 213.52107 
L 304.502751 209.19219 
L 305.531745 200.79555 
L 306.560739 201.68295 
L 306.903737 200.20395 
L 307.246734 205.92615 
L 307.589732 205.29783 
L 307.93273 209.25135 
L 308.961724 213.34971 
L 309.304722 213.03759 
L 309.64772 218.98827 
L 309.990718 218.75979 
L 310.333716 217.45827 
L 311.705708 226.61787 
L 312.048706 219.47379 
L 312.391704 222.07275 
L 312.734702 221.16495 
L 313.763695 220.22247 
L 314.106693 218.35791 
L 314.449691 212.56839 
L 314.792689 218.47419 
L 315.135687 222.40323 
L 316.164681 222.49299 
L 316.507679 219.82671 
L 316.850677 221.10783 
L 317.193675 218.32935 
L 317.536673 213.68835 
L 318.565667 213.42519 
L 318.908665 222.14211 
L 319.251663 220.79979 
L 319.594661 220.50399 
L 319.937658 222.20739 
L 321.30965 229.89207 
L 321.652648 230.04507 
L 323.367638 239.24343 
L 323.710636 233.16219 
L 324.053634 234.84315 
L 324.396632 237.30543 
L 324.73963 240.92439 
L 325.768624 247.91547 
L 326.111622 248.83143 
L 326.454619 245.45727 
L 326.797617 251.64255 
L 327.140615 251.47323 
L 328.169609 252.87063 
L 328.512607 244.08435 
L 328.855605 243.72531 
L 329.198603 237.73179 
L 329.541601 236.54655 
L 330.570595 237.08919 
L 330.913593 232.14627 
L 331.256591 228.83535 
L 331.599589 230.93859 
L 331.942587 234.10059 
L 332.97158 223.00707 
L 333.314578 226.43427 
L 333.657576 224.85123 
L 334.000574 220.97931 
L 334.343572 224.43099 
L 335.372566 230.22663 
L 336.058562 225.42243 
L 336.40156 220.66923 
L 336.744558 219.01275 
L 337.773552 220.44483 
L 338.11655 224.51055 
L 338.459548 222.55011 
L 338.802546 216.14451 
L 340.174537 215.70183 
L 340.517535 219.21675 
L 341.203531 214.36155 
L 341.546529 213.48435 
L 342.575523 221.07519 
L 342.918521 217.46643 
L 343.261519 218.79855 
L 343.604517 217.09107 
L 343.947515 214.17183 
L 345.319507 216.43011 
L 345.662504 212.66019 
L 346.005502 212.82951 
L 346.3485 211.86867 
L 347.377494 205.80579 
L 347.720492 206.50755 
L 348.06349 203.29863 
L 348.406488 205.77519 
L 348.749486 201.31983 
L 349.77848 205.39779 
L 350.121478 205.57935 
L 350.464476 210.56307 
L 350.807474 208.69647 
L 351.150472 210.77523 
L 352.179465 205.30191 
L 352.522463 205.62423 
L 352.865461 206.57487 
L 353.208459 209.66343 
L 353.551457 209.93475 
L 354.923449 205.17543 
L 355.266447 208.69851 
L 355.952443 203.37819 
L 356.981437 198.53727 
L 357.324435 198.15579 
L 357.667433 200.80371 
L 358.010431 198.62091 
L 358.353428 199.10439 
L 359.382422 199.29819 
L 359.72542 198.62703 
L 360.068418 199.29615 
L 360.411416 198.12519 
L 360.754414 197.85591 
L 361.783408 202.44387 
L 362.126406 204.84087 
L 362.469404 205.09791 
L 362.812402 203.53527 
L 363.1554 202.95183 
L 364.184394 208.70259 
L 364.527392 208.28235 
L 364.870389 207.09099 
L 365.213387 203.14971 
L 365.556385 203.42715 
L 366.585379 201.72783 
L 366.928377 203.34147 
L 367.271375 202.52343 
L 367.614373 208.01307 
L 368.986365 207.54387 
L 369.329363 211.15263 
L 369.672361 211.45251 
L 370.015359 210.81603 
L 370.358357 211.54023 
L 371.38735 207.06855 
L 371.730348 206.09139 
L 372.073346 200.61603 
L 372.416344 198.97179 
L 372.759342 199.04523 
L 374.131334 196.14843 
L 374.474332 196.25247 
L 374.81733 191.71959 
L 375.160328 191.11371 
L 376.189322 190.51803 
L 376.53232 191.04027 
L 376.875318 191.95215 
L 377.218316 189.58575 
L 377.561314 189.43683 
L 378.590307 186.34623 
L 378.933305 185.73015 
L 379.276303 186.32787 
L 379.619301 187.47843 
L 379.962299 184.74483 
L 380.991293 185.43435 
L 381.334291 188.03535 
L 381.677289 185.69751 
L 382.020287 184.28583 
L 383.392279 191.01783 
L 384.421272 185.37927 
L 384.76427 181.55223 
L 385.793264 181.66647 
L 386.136262 181.17075 
L 386.47926 181.14627 
L 386.822258 180.56283 
L 387.165256 180.98103 
L 388.19425 182.67627 
L 388.537248 187.28259 
L 388.880246 187.95375 
L 389.223244 186.22179 
L 389.566242 183.53715 
L 390.938233 181.70319 
L 391.281231 180.07527 
L 391.624229 177.87819 
L 391.967227 178.16583 
L 392.996221 176.81739 
L 393.339219 176.14623 
L 393.682217 172.85571 
L 394.025215 173.52279 
L 394.368213 172.94955 
L 395.397207 173.69211 
L 395.740205 172.26411 
L 396.426201 176.52363 
L 396.769199 177.82923 
L 397.798192 174.03483 
L 398.14119 174.51831 
L 398.484188 175.23843 
L 398.827186 180.79335 
L 399.170184 181.73991 
L 400.199178 178.62891 
L 400.542176 175.71987 
L 400.885174 175.13643 
L 401.57117 172.29879 
L 402.600164 171.33999 
L 402.943162 171.95199 
L 403.28616 168.11067 
L 403.629157 167.18451 
L 403.972155 168.99603 
L 405.001149 166.90911 
L 405.344147 168.30651 
L 405.687145 170.27715 
L 406.030143 167.92911 
L 406.373141 170.64435 
L 407.745133 173.94711 
L 408.088131 178.18623 
L 408.431129 173.39631 
L 408.774127 179.49999 
L 410.489116 177.39675 
L 410.832114 173.29023 
L 411.175112 172.74555 
L 412.204106 167.89443 
L 412.547104 167.90871 
L 412.890102 166.78671 
L 413.2331 169.08579 
L 413.576098 167.81283 
L 414.605092 164.58555 
L 414.94809 164.37747 
L 415.291088 164.48355 
L 415.634086 167.52315 
L 415.977084 168.24123 
L 417.006077 165.20979 
L 417.349075 165.33015 
L 417.692073 164.31423 
L 418.378069 168.21879 
L 419.407063 167.37423 
L 419.750061 164.67531 
L 420.093059 164.59779 
L 420.436057 166.49907 
L 420.779055 165.26283 
L 421.808049 165.81975 
L 422.151047 168.12699 
L 422.494045 167.30895 
L 422.837042 166.00335 
L 423.18004 165.17511 
L 424.209034 163.60431 
L 424.552032 164.86503 
L 424.89503 164.61003 
L 425.238028 167.28243 
L 425.581026 165.97887 
L 427.639014 161.08083 
L 429.011005 160.81563 
L 429.354003 161.13795 
L 429.697001 161.09307 
L 430.039999 163.40235 
L 431.754989 159.03267 
L 432.097987 158.90619 
L 432.783983 157.30683 
L 433.812977 156.89883 
L 434.155975 159.09387 
L 434.498973 157.16403 
L 434.841971 156.59691 
L 435.184969 159.13263 
L 436.55696 156.23583 
L 436.899958 158.72259 
L 437.585954 168.16371 
L 438.614948 167.13963 
L 438.957946 168.08007 
L 439.300944 166.99275 
L 439.98694 171.81327 
L 441.015934 168.68799 
L 441.358932 165.80547 
L 441.70193 167.03763 
L 442.044927 174.00831 
L 442.387925 173.37999 
L 443.416919 175.30779 
L 443.759917 172.49667 
L 444.102915 172.98423 
L 444.445913 170.87487 
L 444.788911 171.47871 
L 446.503901 166.58271 
L 446.846899 165.10575 
L 447.189897 164.61207 
L 448.218891 164.84871 
L 448.561888 167.58435 
L 448.904886 165.41379 
L 449.247884 165.88299 
L 449.590882 165.56679 
L 450.962874 162.74751 
L 451.305872 162.64959 
L 451.64887 161.79687 
L 451.991868 158.58795 
L 453.020862 158.62875 
L 453.36386 158.23095 
L 454.049856 156.23379 
L 454.392854 156.28479 
L 455.421847 156.17871 
L 456.107843 152.97591 
L 456.450841 153.05343 
L 456.793839 154.26315 
L 457.822833 153.05751 
L 458.165831 151.35207 
L 458.508829 152.66787 
L 458.851827 153.07383 
L 459.194825 152.89839 
L 460.223819 151.54587 
L 460.566817 151.53567 
L 460.909815 152.31903 
L 461.252812 150.55035 
L 462.967802 148.23699 
L 463.3108 149.66295 
L 463.653798 148.84899 
L 463.996796 147.23127 
L 465.368788 146.63355 
L 465.711786 143.91015 
L 466.054784 143.70207 
L 466.397782 147.68823 
L 467.426776 146.58867 
L 467.769773 144.62007 
L 468.112771 144.87099 
L 468.455769 144.31407 
L 468.798767 142.55763 
L 469.827761 143.62455 
L 470.170759 149.40591 
L 470.513757 147.84531 
L 470.856755 144.69963 
L 471.199753 148.79799 
L 472.228747 145.62171 
L 472.571745 151.46835 
L 472.914743 153.04527 
L 473.257741 160.74015 
L 473.600739 164.26323 
L 474.629732 154.29783 
L 474.97273 155.10159 
L 475.315728 151.86207 
L 475.658726 154.76499 
L 476.001724 159.20403 
L 477.030718 158.94699 
L 477.373716 162.23955 
L 477.716714 163.41255 
L 478.059712 172.27839 
L 478.40271 168.99399 
L 479.431704 171.85815 
L 479.774702 171.78063 
L 480.1177 173.02095 
L 480.460697 165.85851 
L 480.803695 168.64311 
L 482.175687 172.45791 
L 482.518685 166.81323 
L 482.861683 165.90543 
L 483.204681 173.64723 
L 484.233675 176.58687 
L 484.576673 174.23475 
L 484.919671 175.52199 
L 485.262669 169.16739 
L 485.605667 168.19635 
L 486.634661 168.59823 
L 486.977658 163.37583 
L 487.320656 163.50231 
L 488.006652 162.91071 
L 489.035646 163.78995 
L 489.378644 167.43951 
L 489.721642 168.10659 
L 490.06464 171.84999 
L 490.407638 171.22371 
L 491.436632 171.67047 
L 491.77963 178.46979 
L 492.122628 180.61791 
L 492.465626 181.29927 
L 492.808624 182.27643 
L 494.180615 181.15851 
L 494.523613 174.58767 
L 495.209609 170.97891 
L 496.238603 170.81775 
L 496.581601 167.43339 
L 496.924599 167.46807 
L 497.267597 167.20083 
L 497.610595 173.64723 
L 498.639589 172.34775 
L 498.982587 169.85283 
L 499.325585 172.68639 
L 499.668582 167.77407 
L 500.01158 165.94011 
L 501.040574 163.42071 
L 501.383572 163.65939 
L 501.72657 165.23223 
L 502.069568 166.17063 
L 502.412566 166.15635 
L 503.44156 161.20731 
L 503.784558 162.30891 
L 504.127556 160.92579 
L 504.470554 161.21751 
L 504.813552 162.06819 
L 505.842546 160.81359 
L 506.185543 162.18651 
L 506.528541 168.63087 
L 507.214537 170.71575 
L 508.243531 170.68923 
L 508.586529 168.00459 
L 508.929527 167.67411 
L 509.272525 171.45423 
L 509.615523 172.25799 
L 510.644517 173.14131 
L 510.987515 176.30127 
L 511.330513 175.59543 
L 511.673511 177.24987 
L 512.016509 173.70639 
L 513.045502 176.90307 
L 513.3885 176.81943 
L 513.731498 170.50359 
L 514.074496 168.50235 
L 514.417494 165.56271 
L 515.789486 168.14739 
L 516.475482 165.63003 
L 516.81848 164.53455 
L 517.847474 162.01515 
L 518.190472 162.17835 
L 518.53347 161.36847 
L 518.876468 161.45211 
L 519.219465 161.26239 
L 520.248459 157.76991 
L 520.591457 158.36763 
L 520.934455 159.48963 
L 521.277453 161.41743 
L 521.620451 156.55407 
L 522.649445 157.88211 
L 522.992443 156.75195 
L 523.678439 158.07795 
L 524.021437 157.04979 
L 525.050431 158.92863 
L 525.393428 154.08975 
L 525.736426 154.24887 
L 526.079424 154.63851 
L 526.422422 153.19215 
L 527.451416 153.15747 
L 527.794414 152.24967 
L 528.137412 150.55035 
L 528.48041 151.42551 
L 528.823408 150.93999 
L 529.852402 149.20191 
L 530.1954 153.03915 
L 530.538398 150.53607 
L 531.224394 149.53443 
L 532.253387 149.01627 
L 532.596385 149.01219 
L 532.939383 149.66295 
L 533.282381 149.39163 
L 533.625379 149.49771 
L 534.654373 149.26923 
L 534.997371 147.39447 
L 535.340369 146.49891 
L 535.683367 141.78651 
L 536.026365 140.80935 
L 537.055359 141.33975 
L 537.398357 143.34915 
L 537.741355 142.26591 
L 538.084353 143.32059 
L 538.42735 146.24391 
L 539.456344 146.54175 
L 539.799342 150.50139 
L 540.14234 150.45039 
L 540.485338 146.75799 
L 540.828336 146.13783 
L 541.85733 146.52339 
L 542.200328 150.01383 
L 542.543326 146.41935 
L 543.229322 148.24515 
L 544.258316 148.57971 
L 544.601314 150.05055 
L 544.944311 144.84447 
L 545.287309 141.69063 
L 545.630307 141.04191 
L 546.659301 141.36627 
L 547.002299 141.23775 
L 547.688295 139.35075 
L 548.031293 137.84115 
L 549.060287 137.82891 
L 549.403285 137.59839 
L 549.746283 138.89583 
L 550.089281 137.33727 
L 551.461272 136.47843 
L 551.80427 134.94435 
L 552.147268 134.07939 
L 552.490266 134.50167 
L 553.862258 134.34459 
L 554.548254 133.88763 
L 554.891252 134.27523 
L 555.23425 134.32419 
L 556.263244 131.42127 
L 556.263244 131.42127 
" style="fill:none;stroke:#000000;stroke-linecap:round;stroke-width:4;"/>
   </g>
   <g id="patch_3">
    <path d="M 54.457248 268.48275 
L 54.457248 23.68275 
" style="fill:none;stroke:#cccccc;stroke-linecap:square;stroke-linejoin:miter;"/>
   </g>
   <g id="patch_4">
    <path d="M 555.577248 268.48275 
L 555.577248 23.68275 
" style="fill:none;stroke:#cccccc;stroke-linecap:square;stroke-linejoin:miter;"/>
   </g>
   <g id="patch_5">
    <path d="M 54.457248 268.48275 
L 555.577248 268.48275 
" style="fill:none;stroke:#cccccc;stroke-linecap:square;stroke-linejoin:miter;"/>
   </g>
   <g id="patch_6">
    <path d="M 54.457248 23.68275 
L 555.577248 23.68275 
" style="fill:none;stroke:#cccccc;stroke-linecap:square;stroke-linejoin:miter;"/>
   </g>
   <g id="patch_7">
    <path d="M 152.525667 44.126705 
Q 152.525667 51.852741 152.525667 59.578777 
L 153.525667 59.578777 
Q 152.525667 61.580943 151.525667 63.58311 
Q 150.525667 61.580943 149.525667 59.578777 
L 150.525667 59.578777 
Q 150.525667 51.852741 150.525667 44.126705 
L 152.525667 44.126705 
z
" style="stroke:#ffffff;stroke-linecap:round;stroke-width:0.5;"/>
   </g>
   <g id="text_17">
    <!-- Peak of bull market -->
    <defs>
     <path d="M 7.71875 0 
L 7.71875 71.578125 
L 34.71875 71.578125 
Q 41.84375 71.578125 45.609375 70.90625 
Q 50.875 70.015625 54.4375 67.546875 
Q 58.015625 65.09375 60.1875 60.640625 
Q 62.359375 56.203125 62.359375 50.875 
Q 62.359375 41.75 56.546875 35.421875 
Q 50.734375 29.109375 35.546875 29.109375 
L 17.1875 29.109375 
L 17.1875 0 
z
M 17.1875 37.546875 
L 35.6875 37.546875 
Q 44.875 37.546875 48.734375 40.96875 
Q 52.59375 44.390625 52.59375 50.59375 
Q 52.59375 55.078125 50.3125 58.265625 
Q 48.046875 61.46875 44.34375 62.5 
Q 41.9375 63.140625 35.5 63.140625 
L 17.1875 63.140625 
z
" id="ArialMT-80"/>
     <path d="M 42.09375 16.703125 
L 51.171875 15.578125 
Q 49.03125 7.625 43.21875 3.21875 
Q 37.40625 -1.171875 28.375 -1.171875 
Q 17 -1.171875 10.328125 5.828125 
Q 3.65625 12.84375 3.65625 25.484375 
Q 3.65625 38.578125 10.390625 45.796875 
Q 17.140625 53.03125 27.875 53.03125 
Q 38.28125 53.03125 44.875 45.953125 
Q 51.46875 38.875 51.46875 26.03125 
Q 51.46875 25.25 51.421875 23.6875 
L 12.75 23.6875 
Q 13.234375 15.140625 17.578125 10.59375 
Q 21.921875 6.0625 28.421875 6.0625 
Q 33.25 6.0625 36.671875 8.59375 
Q 40.09375 11.140625 42.09375 16.703125 
z
M 13.234375 30.90625 
L 42.1875 30.90625 
Q 41.609375 37.453125 38.875 40.71875 
Q 34.671875 45.796875 27.984375 45.796875 
Q 21.921875 45.796875 17.796875 41.75 
Q 13.671875 37.703125 13.234375 30.90625 
z
" id="ArialMT-101"/>
     <path d="M 40.4375 6.390625 
Q 35.546875 2.25 31.03125 0.53125 
Q 26.515625 -1.171875 21.34375 -1.171875 
Q 12.796875 -1.171875 8.203125 3 
Q 3.609375 7.171875 3.609375 13.671875 
Q 3.609375 17.484375 5.34375 20.625 
Q 7.078125 23.78125 9.890625 25.6875 
Q 12.703125 27.59375 16.21875 28.5625 
Q 18.796875 29.25 24.03125 29.890625 
Q 34.671875 31.15625 39.703125 32.90625 
Q 39.75 34.71875 39.75 35.203125 
Q 39.75 40.578125 37.25 42.78125 
Q 33.890625 45.75 27.25 45.75 
Q 21.046875 45.75 18.09375 43.578125 
Q 15.140625 41.40625 13.71875 35.890625 
L 5.125 37.0625 
Q 6.296875 42.578125 8.984375 45.96875 
Q 11.671875 49.359375 16.75 51.1875 
Q 21.828125 53.03125 28.515625 53.03125 
Q 35.15625 53.03125 39.296875 51.46875 
Q 43.453125 49.90625 45.40625 47.53125 
Q 47.359375 45.171875 48.140625 41.546875 
Q 48.578125 39.3125 48.578125 33.453125 
L 48.578125 21.734375 
Q 48.578125 9.46875 49.140625 6.21875 
Q 49.703125 2.984375 51.375 0 
L 42.1875 0 
Q 40.828125 2.734375 40.4375 6.390625 
z
M 39.703125 26.03125 
Q 34.90625 24.078125 25.34375 22.703125 
Q 19.921875 21.921875 17.671875 20.9375 
Q 15.4375 19.96875 14.203125 18.09375 
Q 12.984375 16.21875 12.984375 13.921875 
Q 12.984375 10.40625 15.640625 8.0625 
Q 18.3125 5.71875 23.4375 5.71875 
Q 28.515625 5.71875 32.46875 7.9375 
Q 36.421875 10.15625 38.28125 14.015625 
Q 39.703125 17 39.703125 22.796875 
z
" id="ArialMT-97"/>
     <path d="M 6.640625 0 
L 6.640625 71.578125 
L 15.4375 71.578125 
L 15.4375 30.765625 
L 36.234375 51.859375 
L 47.609375 51.859375 
L 27.78125 32.625 
L 49.609375 0 
L 38.765625 0 
L 21.625 26.515625 
L 15.4375 20.5625 
L 15.4375 0 
z
" id="ArialMT-107"/>
     <path id="ArialMT-32"/>
     <path d="M 3.328125 25.921875 
Q 3.328125 40.328125 11.328125 47.265625 
Q 18.015625 53.03125 27.640625 53.03125 
Q 38.328125 53.03125 45.109375 46.015625 
Q 51.90625 39.015625 51.90625 26.65625 
Q 51.90625 16.65625 48.90625 10.90625 
Q 45.90625 5.171875 40.15625 2 
Q 34.421875 -1.171875 27.640625 -1.171875 
Q 16.75 -1.171875 10.03125 5.8125 
Q 3.328125 12.796875 3.328125 25.921875 
z
M 12.359375 25.921875 
Q 12.359375 15.96875 16.703125 11.015625 
Q 21.046875 6.0625 27.640625 6.0625 
Q 34.1875 6.0625 38.53125 11.03125 
Q 42.875 16.015625 42.875 26.21875 
Q 42.875 35.84375 38.5 40.796875 
Q 34.125 45.75 27.640625 45.75 
Q 21.046875 45.75 16.703125 40.8125 
Q 12.359375 35.890625 12.359375 25.921875 
z
" id="ArialMT-111"/>
     <path d="M 8.6875 0 
L 8.6875 45.015625 
L 0.921875 45.015625 
L 0.921875 51.859375 
L 8.6875 51.859375 
L 8.6875 57.375 
Q 8.6875 62.59375 9.625 65.140625 
Q 10.890625 68.5625 14.078125 70.671875 
Q 17.28125 72.796875 23.046875 72.796875 
Q 26.765625 72.796875 31.25 71.921875 
L 29.9375 64.265625 
Q 27.203125 64.75 24.75 64.75 
Q 20.75 64.75 19.09375 63.03125 
Q 17.4375 61.328125 17.4375 56.640625 
L 17.4375 51.859375 
L 27.546875 51.859375 
L 27.546875 45.015625 
L 17.4375 45.015625 
L 17.4375 0 
z
" id="ArialMT-102"/>
     <path d="M 14.703125 0 
L 6.546875 0 
L 6.546875 71.578125 
L 15.328125 71.578125 
L 15.328125 46.046875 
Q 20.90625 53.03125 29.546875 53.03125 
Q 34.328125 53.03125 38.59375 51.09375 
Q 42.875 49.171875 45.625 45.671875 
Q 48.390625 42.1875 49.953125 37.25 
Q 51.515625 32.328125 51.515625 26.703125 
Q 51.515625 13.375 44.921875 6.09375 
Q 38.328125 -1.171875 29.109375 -1.171875 
Q 19.921875 -1.171875 14.703125 6.5 
z
M 14.59375 26.3125 
Q 14.59375 17 17.140625 12.84375 
Q 21.296875 6.0625 28.375 6.0625 
Q 34.125 6.0625 38.328125 11.0625 
Q 42.53125 16.0625 42.53125 25.984375 
Q 42.53125 36.140625 38.5 40.96875 
Q 34.46875 45.796875 28.765625 45.796875 
Q 23 45.796875 18.796875 40.796875 
Q 14.59375 35.796875 14.59375 26.3125 
z
" id="ArialMT-98"/>
     <path d="M 40.578125 0 
L 40.578125 7.625 
Q 34.515625 -1.171875 24.125 -1.171875 
Q 19.53125 -1.171875 15.546875 0.578125 
Q 11.578125 2.34375 9.640625 5 
Q 7.71875 7.671875 6.9375 11.53125 
Q 6.390625 14.109375 6.390625 19.734375 
L 6.390625 51.859375 
L 15.1875 51.859375 
L 15.1875 23.09375 
Q 15.1875 16.21875 15.71875 13.8125 
Q 16.546875 10.359375 19.234375 8.375 
Q 21.921875 6.390625 25.875 6.390625 
Q 29.828125 6.390625 33.296875 8.421875 
Q 36.765625 10.453125 38.203125 13.9375 
Q 39.65625 17.4375 39.65625 24.078125 
L 39.65625 51.859375 
L 48.4375 51.859375 
L 48.4375 0 
z
" id="ArialMT-117"/>
     <path d="M 6.390625 0 
L 6.390625 71.578125 
L 15.1875 71.578125 
L 15.1875 0 
z
" id="ArialMT-108"/>
     <path d="M 6.59375 0 
L 6.59375 51.859375 
L 14.453125 51.859375 
L 14.453125 44.578125 
Q 16.890625 48.390625 20.9375 50.703125 
Q 25 53.03125 30.171875 53.03125 
Q 35.9375 53.03125 39.625 50.640625 
Q 43.3125 48.25 44.828125 43.953125 
Q 50.984375 53.03125 60.84375 53.03125 
Q 68.5625 53.03125 72.703125 48.75 
Q 76.859375 44.484375 76.859375 35.59375 
L 76.859375 0 
L 68.109375 0 
L 68.109375 32.671875 
Q 68.109375 37.9375 67.25 40.25 
Q 66.40625 42.578125 64.15625 43.984375 
Q 61.921875 45.40625 58.890625 45.40625 
Q 53.421875 45.40625 49.796875 41.765625 
Q 46.1875 38.140625 46.1875 30.125 
L 46.1875 0 
L 37.40625 0 
L 37.40625 33.6875 
Q 37.40625 39.546875 35.25 42.46875 
Q 33.109375 45.40625 28.21875 45.40625 
Q 24.515625 45.40625 21.359375 43.453125 
Q 18.21875 41.5 16.796875 37.734375 
Q 15.375 33.984375 15.375 26.90625 
L 15.375 0 
z
" id="ArialMT-109"/>
     <path d="M 6.5 0 
L 6.5 51.859375 
L 14.40625 51.859375 
L 14.40625 44 
Q 17.4375 49.515625 20 51.265625 
Q 22.5625 53.03125 25.640625 53.03125 
Q 30.078125 53.03125 34.671875 50.203125 
L 31.640625 42.046875 
Q 28.421875 43.953125 25.203125 43.953125 
Q 22.3125 43.953125 20.015625 42.21875 
Q 17.71875 40.484375 16.75 37.40625 
Q 15.28125 32.71875 15.28125 27.15625 
L 15.28125 0 
z
" id="ArialMT-114"/>
     <path d="M 25.78125 7.859375 
L 27.046875 0.09375 
Q 23.34375 -0.6875 20.40625 -0.6875 
Q 15.625 -0.6875 12.984375 0.828125 
Q 10.359375 2.34375 9.28125 4.8125 
Q 8.203125 7.28125 8.203125 15.1875 
L 8.203125 45.015625 
L 1.765625 45.015625 
L 1.765625 51.859375 
L 8.203125 51.859375 
L 8.203125 64.703125 
L 16.9375 69.96875 
L 16.9375 51.859375 
L 25.78125 51.859375 
L 25.78125 45.015625 
L 16.9375 45.015625 
L 16.9375 14.703125 
Q 16.9375 10.9375 17.40625 9.859375 
Q 17.875 8.796875 18.921875 8.15625 
Q 19.96875 7.515625 21.921875 7.515625 
Q 23.390625 7.515625 25.78125 7.859375 
z
" id="ArialMT-116"/>
    </defs>
    <g style="fill:#262626;" transform="translate(151.525667 40.140922)scale(0.1 -0.1)">
     <use xlink:href="#ArialMT-80"/>
     <use x="66.699219" xlink:href="#ArialMT-101"/>
     <use x="122.314453" xlink:href="#ArialMT-97"/>
     <use x="177.929688" xlink:href="#ArialMT-107"/>
     <use x="227.929688" xlink:href="#ArialMT-32"/>
     <use x="255.712891" xlink:href="#ArialMT-111"/>
     <use x="311.328125" xlink:href="#ArialMT-102"/>
     <use x="339.111328" xlink:href="#ArialMT-32"/>
     <use x="366.894531" xlink:href="#ArialMT-98"/>
     <use x="422.509766" xlink:href="#ArialMT-117"/>
     <use x="478.125" xlink:href="#ArialMT-108"/>
     <use x="500.341797" xlink:href="#ArialMT-108"/>
     <use x="522.558594" xlink:href="#ArialMT-32"/>
     <use x="550.341797" xlink:href="#ArialMT-109"/>
     <use x="633.642578" xlink:href="#ArialMT-97"/>
     <use x="689.257812" xlink:href="#ArialMT-114"/>
     <use x="722.558594" xlink:href="#ArialMT-107"/>
     <use x="772.558594" xlink:href="#ArialMT-101"/>
     <use x="828.173828" xlink:href="#ArialMT-116"/>
    </g>
   </g>
   <g id="patch_8">
    <path d="M 205.004353 94.237265 
Q 205.004353 101.963301 205.004353 109.689337 
L 206.004353 109.689337 
Q 205.004353 111.691503 204.004353 113.69367 
Q 203.004353 111.691503 202.004353 109.689337 
L 203.004353 109.689337 
Q 203.004353 101.963301 203.004353 94.237265 
L 205.004353 94.237265 
z
" style="stroke:#ffffff;stroke-linecap:round;stroke-width:0.5;"/>
   </g>
   <g id="text_18">
    <!-- Bear Stearns Fails -->
    <defs>
     <path d="M 7.328125 0 
L 7.328125 71.578125 
L 34.1875 71.578125 
Q 42.390625 71.578125 47.34375 69.40625 
Q 52.296875 67.234375 55.09375 62.71875 
Q 57.90625 58.203125 57.90625 53.265625 
Q 57.90625 48.6875 55.421875 44.625 
Q 52.9375 40.578125 47.90625 38.09375 
Q 54.390625 36.1875 57.875 31.59375 
Q 61.375 27 61.375 20.75 
Q 61.375 15.71875 59.25 11.390625 
Q 57.125 7.078125 54 4.734375 
Q 50.875 2.390625 46.15625 1.1875 
Q 41.453125 0 34.625 0 
z
M 16.796875 41.5 
L 32.28125 41.5 
Q 38.578125 41.5 41.3125 42.328125 
Q 44.921875 43.40625 46.75 45.890625 
Q 48.578125 48.390625 48.578125 52.15625 
Q 48.578125 55.71875 46.875 58.421875 
Q 45.171875 61.140625 41.984375 62.140625 
Q 38.8125 63.140625 31.109375 63.140625 
L 16.796875 63.140625 
z
M 16.796875 8.453125 
L 34.625 8.453125 
Q 39.203125 8.453125 41.0625 8.796875 
Q 44.34375 9.375 46.53125 10.734375 
Q 48.734375 12.109375 50.140625 14.71875 
Q 51.5625 17.328125 51.5625 20.75 
Q 51.5625 24.75 49.515625 27.703125 
Q 47.46875 30.671875 43.828125 31.859375 
Q 40.1875 33.0625 33.34375 33.0625 
L 16.796875 33.0625 
z
" id="ArialMT-66"/>
     <path d="M 4.5 23 
L 13.421875 23.78125 
Q 14.0625 18.40625 16.375 14.96875 
Q 18.703125 11.53125 23.578125 9.40625 
Q 28.46875 7.28125 34.578125 7.28125 
Q 39.984375 7.28125 44.140625 8.890625 
Q 48.296875 10.5 50.3125 13.296875 
Q 52.34375 16.109375 52.34375 19.4375 
Q 52.34375 22.796875 50.390625 25.3125 
Q 48.4375 27.828125 43.953125 29.546875 
Q 41.0625 30.671875 31.203125 33.03125 
Q 21.34375 35.40625 17.390625 37.5 
Q 12.25 40.1875 9.734375 44.15625 
Q 7.234375 48.140625 7.234375 53.078125 
Q 7.234375 58.5 10.296875 63.203125 
Q 13.375 67.921875 19.28125 70.359375 
Q 25.203125 72.796875 32.421875 72.796875 
Q 40.375 72.796875 46.453125 70.234375 
Q 52.546875 67.671875 55.8125 62.6875 
Q 59.078125 57.71875 59.328125 51.421875 
L 50.25 50.734375 
Q 49.515625 57.515625 45.28125 60.984375 
Q 41.0625 64.453125 32.8125 64.453125 
Q 24.21875 64.453125 20.28125 61.296875 
Q 16.359375 58.15625 16.359375 53.71875 
Q 16.359375 49.859375 19.140625 47.359375 
Q 21.875 44.875 33.421875 42.265625 
Q 44.96875 39.65625 49.265625 37.703125 
Q 55.515625 34.8125 58.484375 30.390625 
Q 61.46875 25.984375 61.46875 20.21875 
Q 61.46875 14.5 58.203125 9.4375 
Q 54.9375 4.390625 48.796875 1.578125 
Q 42.671875 -1.21875 35.015625 -1.21875 
Q 25.296875 -1.21875 18.71875 1.609375 
Q 12.15625 4.4375 8.421875 10.125 
Q 4.6875 15.828125 4.5 23 
z
" id="ArialMT-83"/>
     <path d="M 6.59375 0 
L 6.59375 51.859375 
L 14.5 51.859375 
L 14.5 44.484375 
Q 20.21875 53.03125 31 53.03125 
Q 35.6875 53.03125 39.625 51.34375 
Q 43.5625 49.65625 45.515625 46.921875 
Q 47.46875 44.1875 48.25 40.4375 
Q 48.734375 37.984375 48.734375 31.890625 
L 48.734375 0 
L 39.9375 0 
L 39.9375 31.546875 
Q 39.9375 36.921875 38.90625 39.578125 
Q 37.890625 42.234375 35.28125 43.8125 
Q 32.671875 45.40625 29.15625 45.40625 
Q 23.53125 45.40625 19.453125 41.84375 
Q 15.375 38.28125 15.375 28.328125 
L 15.375 0 
z
" id="ArialMT-110"/>
     <path d="M 3.078125 15.484375 
L 11.765625 16.84375 
Q 12.5 11.625 15.84375 8.84375 
Q 19.1875 6.0625 25.203125 6.0625 
Q 31.25 6.0625 34.171875 8.515625 
Q 37.109375 10.984375 37.109375 14.3125 
Q 37.109375 17.28125 34.515625 19 
Q 32.71875 20.171875 25.53125 21.96875 
Q 15.875 24.421875 12.140625 26.203125 
Q 8.40625 27.984375 6.46875 31.125 
Q 4.546875 34.28125 4.546875 38.09375 
Q 4.546875 41.546875 6.125 44.5 
Q 7.71875 47.46875 10.453125 49.421875 
Q 12.5 50.921875 16.03125 51.96875 
Q 19.578125 53.03125 23.640625 53.03125 
Q 29.734375 53.03125 34.34375 51.265625 
Q 38.96875 49.515625 41.15625 46.5 
Q 43.359375 43.5 44.1875 38.484375 
L 35.59375 37.3125 
Q 35.015625 41.3125 32.203125 43.546875 
Q 29.390625 45.796875 24.265625 45.796875 
Q 18.21875 45.796875 15.625 43.796875 
Q 13.03125 41.796875 13.03125 39.109375 
Q 13.03125 37.40625 14.109375 36.03125 
Q 15.1875 34.625 17.484375 33.6875 
Q 18.796875 33.203125 25.25 31.453125 
Q 34.578125 28.953125 38.25 27.359375 
Q 41.9375 25.78125 44.03125 22.75 
Q 46.140625 19.734375 46.140625 15.234375 
Q 46.140625 10.84375 43.578125 6.953125 
Q 41.015625 3.078125 36.171875 0.953125 
Q 31.34375 -1.171875 25.25 -1.171875 
Q 15.140625 -1.171875 9.84375 3.03125 
Q 4.546875 7.234375 3.078125 15.484375 
z
" id="ArialMT-115"/>
     <path d="M 8.203125 0 
L 8.203125 71.578125 
L 56.5 71.578125 
L 56.5 63.140625 
L 17.671875 63.140625 
L 17.671875 40.96875 
L 51.265625 40.96875 
L 51.265625 32.515625 
L 17.671875 32.515625 
L 17.671875 0 
z
" id="ArialMT-70"/>
     <path d="M 6.640625 61.46875 
L 6.640625 71.578125 
L 15.4375 71.578125 
L 15.4375 61.46875 
z
M 6.640625 0 
L 6.640625 51.859375 
L 15.4375 51.859375 
L 15.4375 0 
z
" id="ArialMT-105"/>
    </defs>
    <g style="fill:#262626;" transform="translate(204.004353 90.251482)scale(0.1 -0.1)">
     <use xlink:href="#ArialMT-66"/>
     <use x="66.699219" xlink:href="#ArialMT-101"/>
     <use x="122.314453" xlink:href="#ArialMT-97"/>
     <use x="177.929688" xlink:href="#ArialMT-114"/>
     <use x="211.230469" xlink:href="#ArialMT-32"/>
     <use x="239.013672" xlink:href="#ArialMT-83"/>
     <use x="305.712891" xlink:href="#ArialMT-116"/>
     <use x="333.496094" xlink:href="#ArialMT-101"/>
     <use x="389.111328" xlink:href="#ArialMT-97"/>
     <use x="444.726562" xlink:href="#ArialMT-114"/>
     <use x="478.027344" xlink:href="#ArialMT-110"/>
     <use x="533.642578" xlink:href="#ArialMT-115"/>
     <use x="583.642578" xlink:href="#ArialMT-32"/>
     <use x="611.425781" xlink:href="#ArialMT-70"/>
     <use x="672.509766" xlink:href="#ArialMT-97"/>
     <use x="728.125" xlink:href="#ArialMT-105"/>
     <use x="750.341797" xlink:href="#ArialMT-108"/>
     <use x="772.558594" xlink:href="#ArialMT-115"/>
    </g>
   </g>
   <g id="patch_9">
    <path d="M 269.144969 118.032236 
Q 269.144969 125.702491 269.144969 133.372746 
L 270.144969 133.372746 
Q 269.144969 135.372348 268.144969 137.37195 
Q 267.144969 135.372348 266.144969 133.372746 
L 267.144969 133.372746 
Q 267.144969 125.702491 267.144969 118.032236 
L 269.144969 118.032236 
z
" style="stroke:#ffffff;stroke-linecap:round;stroke-width:0.5;"/>
   </g>
   <g id="text_19">
    <!-- Lehman Bankruptcy -->
    <defs>
     <path d="M 7.328125 0 
L 7.328125 71.578125 
L 16.796875 71.578125 
L 16.796875 8.453125 
L 52.046875 8.453125 
L 52.046875 0 
z
" id="ArialMT-76"/>
     <path d="M 6.59375 0 
L 6.59375 71.578125 
L 15.375 71.578125 
L 15.375 45.90625 
Q 21.53125 53.03125 30.90625 53.03125 
Q 36.671875 53.03125 40.921875 50.75 
Q 45.171875 48.484375 47 44.484375 
Q 48.828125 40.484375 48.828125 32.859375 
L 48.828125 0 
L 40.046875 0 
L 40.046875 32.859375 
Q 40.046875 39.453125 37.1875 42.453125 
Q 34.328125 45.453125 29.109375 45.453125 
Q 25.203125 45.453125 21.75 43.421875 
Q 18.3125 41.40625 16.84375 37.9375 
Q 15.375 34.46875 15.375 28.375 
L 15.375 0 
z
" id="ArialMT-104"/>
     <path d="M 6.59375 -19.875 
L 6.59375 51.859375 
L 14.59375 51.859375 
L 14.59375 45.125 
Q 17.4375 49.078125 21 51.046875 
Q 24.5625 53.03125 29.640625 53.03125 
Q 36.28125 53.03125 41.359375 49.609375 
Q 46.4375 46.1875 49.015625 39.953125 
Q 51.609375 33.734375 51.609375 26.3125 
Q 51.609375 18.359375 48.75 11.984375 
Q 45.90625 5.609375 40.453125 2.21875 
Q 35.015625 -1.171875 29 -1.171875 
Q 24.609375 -1.171875 21.109375 0.6875 
Q 17.625 2.546875 15.375 5.375 
L 15.375 -19.875 
z
M 14.546875 25.640625 
Q 14.546875 15.625 18.59375 10.84375 
Q 22.65625 6.0625 28.421875 6.0625 
Q 34.28125 6.0625 38.453125 11.015625 
Q 42.625 15.96875 42.625 26.375 
Q 42.625 36.28125 38.546875 41.203125 
Q 34.46875 46.140625 28.8125 46.140625 
Q 23.1875 46.140625 18.859375 40.890625 
Q 14.546875 35.640625 14.546875 25.640625 
z
" id="ArialMT-112"/>
     <path d="M 40.4375 19 
L 49.078125 17.875 
Q 47.65625 8.9375 41.8125 3.875 
Q 35.984375 -1.171875 27.484375 -1.171875 
Q 16.84375 -1.171875 10.375 5.78125 
Q 3.90625 12.75 3.90625 25.734375 
Q 3.90625 34.125 6.6875 40.421875 
Q 9.46875 46.734375 15.15625 49.875 
Q 20.84375 53.03125 27.546875 53.03125 
Q 35.984375 53.03125 41.359375 48.75 
Q 46.734375 44.484375 48.25 36.625 
L 39.703125 35.296875 
Q 38.484375 40.53125 35.375 43.15625 
Q 32.28125 45.796875 27.875 45.796875 
Q 21.234375 45.796875 17.078125 41.03125 
Q 12.9375 36.28125 12.9375 25.984375 
Q 12.9375 15.53125 16.9375 10.796875 
Q 20.953125 6.0625 27.390625 6.0625 
Q 32.5625 6.0625 36.03125 9.234375 
Q 39.5 12.40625 40.4375 19 
z
" id="ArialMT-99"/>
     <path d="M 6.203125 -19.96875 
L 5.21875 -11.71875 
Q 8.109375 -12.5 10.25 -12.5 
Q 13.1875 -12.5 14.9375 -11.515625 
Q 16.703125 -10.546875 17.828125 -8.796875 
Q 18.65625 -7.46875 20.515625 -2.25 
Q 20.75 -1.515625 21.296875 -0.09375 
L 1.609375 51.859375 
L 11.078125 51.859375 
L 21.875 21.828125 
Q 23.96875 16.109375 25.640625 9.8125 
Q 27.15625 15.875 29.25 21.625 
L 40.328125 51.859375 
L 49.125 51.859375 
L 29.390625 -0.875 
Q 26.21875 -9.421875 24.46875 -12.640625 
Q 22.125 -17 19.09375 -19.015625 
Q 16.0625 -21.046875 11.859375 -21.046875 
Q 9.328125 -21.046875 6.203125 -19.96875 
z
" id="ArialMT-121"/>
    </defs>
    <g style="fill:#262626;" transform="translate(268.144969 113.929762)scale(0.1 -0.1)">
     <use xlink:href="#ArialMT-76"/>
     <use x="55.615234" xlink:href="#ArialMT-101"/>
     <use x="111.230469" xlink:href="#ArialMT-104"/>
     <use x="166.845703" xlink:href="#ArialMT-109"/>
     <use x="250.146484" xlink:href="#ArialMT-97"/>
     <use x="305.761719" xlink:href="#ArialMT-110"/>
     <use x="361.376953" xlink:href="#ArialMT-32"/>
     <use x="389.160156" xlink:href="#ArialMT-66"/>
     <use x="455.859375" xlink:href="#ArialMT-97"/>
     <use x="511.474609" xlink:href="#ArialMT-110"/>
     <use x="567.089844" xlink:href="#ArialMT-107"/>
     <use x="617.089844" xlink:href="#ArialMT-114"/>
     <use x="650.390625" xlink:href="#ArialMT-117"/>
     <use x="706.005859" xlink:href="#ArialMT-112"/>
     <use x="761.621094" xlink:href="#ArialMT-116"/>
     <use x="789.404297" xlink:href="#ArialMT-99"/>
     <use x="839.404297" xlink:href="#ArialMT-121"/>
    </g>
   </g>
   <g id="text_20">
    <!-- Important dates in the 2008-2009 financial crisis -->
    <defs>
     <path d="M 9.328125 0 
L 9.328125 71.578125 
L 18.796875 71.578125 
L 18.796875 0 
z
" id="ArialMT-73"/>
     <path d="M 40.234375 0 
L 40.234375 6.546875 
Q 35.296875 -1.171875 25.734375 -1.171875 
Q 19.53125 -1.171875 14.328125 2.25 
Q 9.125 5.671875 6.265625 11.796875 
Q 3.421875 17.921875 3.421875 25.875 
Q 3.421875 33.640625 6 39.96875 
Q 8.59375 46.296875 13.765625 49.65625 
Q 18.953125 53.03125 25.34375 53.03125 
Q 30.03125 53.03125 33.6875 51.046875 
Q 37.359375 49.078125 39.65625 45.90625 
L 39.65625 71.578125 
L 48.390625 71.578125 
L 48.390625 0 
z
M 12.453125 25.875 
Q 12.453125 15.921875 16.640625 10.984375 
Q 20.84375 6.0625 26.5625 6.0625 
Q 32.328125 6.0625 36.34375 10.765625 
Q 40.375 15.484375 40.375 25.140625 
Q 40.375 35.796875 36.265625 40.765625 
Q 32.171875 45.75 26.171875 45.75 
Q 20.3125 45.75 16.375 40.96875 
Q 12.453125 36.1875 12.453125 25.875 
z
" id="ArialMT-100"/>
    </defs>
    <g style="fill:#262626;" transform="translate(152.140998 17.68275)scale(0.144 -0.144)">
     <use xlink:href="#ArialMT-73"/>
     <use x="27.783203" xlink:href="#ArialMT-109"/>
     <use x="111.083984" xlink:href="#ArialMT-112"/>
     <use x="166.699219" xlink:href="#ArialMT-111"/>
     <use x="222.314453" xlink:href="#ArialMT-114"/>
     <use x="255.615234" xlink:href="#ArialMT-116"/>
     <use x="283.398438" xlink:href="#ArialMT-97"/>
     <use x="339.013672" xlink:href="#ArialMT-110"/>
     <use x="394.628906" xlink:href="#ArialMT-116"/>
     <use x="422.412109" xlink:href="#ArialMT-32"/>
     <use x="450.195312" xlink:href="#ArialMT-100"/>
     <use x="505.810547" xlink:href="#ArialMT-97"/>
     <use x="561.425781" xlink:href="#ArialMT-116"/>
     <use x="589.208984" xlink:href="#ArialMT-101"/>
     <use x="644.824219" xlink:href="#ArialMT-115"/>
     <use x="694.824219" xlink:href="#ArialMT-32"/>
     <use x="722.607422" xlink:href="#ArialMT-105"/>
     <use x="744.824219" xlink:href="#ArialMT-110"/>
     <use x="800.439453" xlink:href="#ArialMT-32"/>
     <use x="828.222656" xlink:href="#ArialMT-116"/>
     <use x="856.005859" xlink:href="#ArialMT-104"/>
     <use x="911.621094" xlink:href="#ArialMT-101"/>
     <use x="967.236328" xlink:href="#ArialMT-32"/>
     <use x="995.019531" xlink:href="#ArialMT-50"/>
     <use x="1050.634766" xlink:href="#ArialMT-48"/>
     <use x="1106.25" xlink:href="#ArialMT-48"/>
     <use x="1161.865234" xlink:href="#ArialMT-56"/>
     <use x="1217.480469" xlink:href="#ArialMT-45"/>
     <use x="1250.78125" xlink:href="#ArialMT-50"/>
     <use x="1306.396484" xlink:href="#ArialMT-48"/>
     <use x="1362.011719" xlink:href="#ArialMT-48"/>
     <use x="1417.626953" xlink:href="#ArialMT-57"/>
     <use x="1473.242188" xlink:href="#ArialMT-32"/>
     <use x="1501.025391" xlink:href="#ArialMT-102"/>
     <use x="1528.808594" xlink:href="#ArialMT-105"/>
     <use x="1551.025391" xlink:href="#ArialMT-110"/>
     <use x="1606.640625" xlink:href="#ArialMT-97"/>
     <use x="1662.255859" xlink:href="#ArialMT-110"/>
     <use x="1717.871094" xlink:href="#ArialMT-99"/>
     <use x="1767.871094" xlink:href="#ArialMT-105"/>
     <use x="1790.087891" xlink:href="#ArialMT-97"/>
     <use x="1845.703125" xlink:href="#ArialMT-108"/>
     <use x="1867.919922" xlink:href="#ArialMT-32"/>
     <use x="1895.703125" xlink:href="#ArialMT-99"/>
     <use x="1945.703125" xlink:href="#ArialMT-114"/>
     <use x="1979.003906" xlink:href="#ArialMT-105"/>
     <use x="2001.220703" xlink:href="#ArialMT-115"/>
     <use x="2051.220703" xlink:href="#ArialMT-105"/>
     <use x="2073.4375" xlink:href="#ArialMT-115"/>
    </g>
   </g>
  </g>
 </g>
 <defs>
  <clipPath id="pbd1c4d0c68">
   <rect height="244.8" width="501.12" x="54.457248" y="23.68275"/>
  </clipPath>
 </defs>
</svg>
