<?xml version="1.0" encoding="UTF-8" standalone="no"?>
<!DOCTYPE svg PUBLIC "-//W3C//DTD SVG 1.1//EN"
 "http://www.w3.org/Graphics/SVG/1.1/DTD/svg11.dtd">
<!-- Generated by graphviz version 2.40.1 (20161225.0304)
 -->
<!-- Title: Tree Pages: 1 -->
<svg width="494pt" height="269pt"
 viewBox="0.00 0.00 493.50 269.00" xmlns="http://www.w3.org/2000/svg" xmlns:xlink="http://www.w3.org/1999/xlink">
<g id="graph0" class="graph" transform="scale(1 1) rotate(0) translate(4 265)">
<title>Tree</title>
<polygon fill="#ffffff" stroke="transparent" points="-4,4 -4,-265 489.5,-265 489.5,4 -4,4"/>
<!-- 0 -->
<g id="node1" class="node">
<title>0</title>
<path fill="#fdf5ef" stroke="#000000" d="M282,-261C282,-261 196,-261 196,-261 190,-261 184,-255 184,-249 184,-249 184,-205 184,-205 184,-199 190,-193 196,-193 196,-193 282,-193 282,-193 288,-193 294,-199 294,-205 294,-205 294,-249 294,-249 294,-255 288,-261 282,-261"/>
<text text-anchor="middle" x="239" y="-245.8" font-family="Helvetica,sans-Serif" font-size="14.00" fill="#000000">x &lt;= &#45;3.1</text>
<text text-anchor="middle" x="239" y="-230.8" font-family="Helvetica,sans-Serif" font-size="14.00" fill="#000000">mse = 347.251</text>
<text text-anchor="middle" x="239" y="-215.8" font-family="Helvetica,sans-Serif" font-size="14.00" fill="#000000">samples = 300</text>
<text text-anchor="middle" x="239" y="-200.8" font-family="Helvetica,sans-Serif" font-size="14.00" fill="#000000">value = 17.29</text>
</g>
<!-- 1 -->
<g id="node2" class="node">
<title>1</title>
<path fill="#f2c09c" stroke="#000000" d="M218,-157C218,-157 132,-157 132,-157 126,-157 120,-151 120,-145 120,-145 120,-101 120,-101 120,-95 126,-89 132,-89 132,-89 218,-89 218,-89 224,-89 230,-95 230,-101 230,-101 230,-145 230,-145 230,-151 224,-157 218,-157"/>
<text text-anchor="middle" x="175" y="-141.8" font-family="Helvetica,sans-Serif" font-size="14.00" fill="#000000">x &lt;= &#45;5.281</text>
<text text-anchor="middle" x="175" y="-126.8" font-family="Helvetica,sans-Serif" font-size="14.00" fill="#000000">mse = 180.591</text>
<text text-anchor="middle" x="175" y="-111.8" font-family="Helvetica,sans-Serif" font-size="14.00" fill="#000000">samples = 35</text>
<text text-anchor="middle" x="175" y="-96.8" font-family="Helvetica,sans-Serif" font-size="14.00" fill="#000000">value = 50.535</text>
</g>
<!-- 0&#45;&gt;1 -->
<g id="edge1" class="edge">
<title>0&#45;&gt;1</title>
<path fill="none" stroke="#000000" d="M218.044,-192.9465C212.6845,-184.2373 206.8539,-174.7626 201.2647,-165.6801"/>
<polygon fill="#000000" stroke="#000000" points="204.2249,-163.8122 196.0031,-157.13 198.2633,-167.481 204.2249,-163.8122"/>
<text text-anchor="middle" x="190.2126" y="-177.7502" font-family="Helvetica,sans-Serif" font-size="14.00" fill="#000000">True</text>
</g>
<!-- 4 -->
<g id="node5" class="node">
<title>4</title>
<path fill="#fefcfa" stroke="#000000" d="M346,-157C346,-157 260,-157 260,-157 254,-157 248,-151 248,-145 248,-145 248,-101 248,-101 248,-95 254,-89 260,-89 260,-89 346,-89 346,-89 352,-89 358,-95 358,-101 358,-101 358,-145 358,-145 358,-151 352,-157 346,-157"/>
<text text-anchor="middle" x="303" y="-141.8" font-family="Helvetica,sans-Serif" font-size="14.00" fill="#000000">x &lt;= 3.733</text>
<text text-anchor="middle" x="303" y="-126.8" font-family="Helvetica,sans-Serif" font-size="14.00" fill="#000000">mse = 204.011</text>
<text text-anchor="middle" x="303" y="-111.8" font-family="Helvetica,sans-Serif" font-size="14.00" fill="#000000">samples = 265</text>
<text text-anchor="middle" x="303" y="-96.8" font-family="Helvetica,sans-Serif" font-size="14.00" fill="#000000">value = 12.899</text>
</g>
<!-- 0&#45;&gt;4 -->
<g id="edge4" class="edge">
<title>0&#45;&gt;4</title>
<path fill="none" stroke="#000000" d="M259.956,-192.9465C265.3155,-184.2373 271.1461,-174.7626 276.7353,-165.6801"/>
<polygon fill="#000000" stroke="#000000" points="279.7367,-167.481 281.9969,-157.13 273.7751,-163.8122 279.7367,-167.481"/>
<text text-anchor="middle" x="287.7874" y="-177.7502" font-family="Helvetica,sans-Serif" font-size="14.00" fill="#000000">False</text>
</g>
<!-- 2 -->
<g id="node3" class="node">
<title>2</title>
<path fill="#e58139" stroke="#000000" d="M90,-53C90,-53 12,-53 12,-53 6,-53 0,-47 0,-41 0,-41 0,-12 0,-12 0,-6 6,0 12,0 12,0 90,0 90,0 96,0 102,-6 102,-12 102,-12 102,-41 102,-41 102,-47 96,-53 90,-53"/>
<text text-anchor="middle" x="51" y="-37.8" font-family="Helvetica,sans-Serif" font-size="14.00" fill="#000000">mse = 60.663</text>
<text text-anchor="middle" x="51" y="-22.8" font-family="Helvetica,sans-Serif" font-size="14.00" fill="#000000">samples = 2</text>
<text text-anchor="middle" x="51" y="-7.8" font-family="Helvetica,sans-Serif" font-size="14.00" fill="#000000">value = 90.04</text>
</g>
<!-- 1&#45;&gt;2 -->
<g id="edge2" class="edge">
<title>1&#45;&gt;2</title>
<path fill="none" stroke="#000000" d="M131.2822,-88.9777C119.0451,-79.4545 105.7645,-69.1191 93.5934,-59.6473"/>
<polygon fill="#000000" stroke="#000000" points="95.4125,-56.628 85.3711,-53.2485 91.1134,-62.1523 95.4125,-56.628"/>
</g>
<!-- 3 -->
<g id="node4" class="node">
<title>3</title>
<path fill="#f3c4a2" stroke="#000000" d="M217.5,-53C217.5,-53 132.5,-53 132.5,-53 126.5,-53 120.5,-47 120.5,-41 120.5,-41 120.5,-12 120.5,-12 120.5,-6 126.5,0 132.5,0 132.5,0 217.5,0 217.5,0 223.5,0 229.5,-6 229.5,-12 229.5,-12 229.5,-41 229.5,-41 229.5,-47 223.5,-53 217.5,-53"/>
<text text-anchor="middle" x="175" y="-37.8" font-family="Helvetica,sans-Serif" font-size="14.00" fill="#000000">mse = 87.54</text>
<text text-anchor="middle" x="175" y="-22.8" font-family="Helvetica,sans-Serif" font-size="14.00" fill="#000000">samples = 33</text>
<text text-anchor="middle" x="175" y="-7.8" font-family="Helvetica,sans-Serif" font-size="14.00" fill="#000000">value = 48.141</text>
</g>
<!-- 1&#45;&gt;3 -->
<g id="edge3" class="edge">
<title>1&#45;&gt;3</title>
<path fill="none" stroke="#000000" d="M175,-88.9777C175,-80.7364 175,-71.887 175,-63.5153"/>
<polygon fill="#000000" stroke="#000000" points="178.5001,-63.2484 175,-53.2485 171.5001,-63.2485 178.5001,-63.2484"/>
</g>
<!-- 5 -->
<g id="node6" class="node">
<title>5</title>
<path fill="#ffffff" stroke="#000000" d="M346,-53C346,-53 260,-53 260,-53 254,-53 248,-47 248,-41 248,-41 248,-12 248,-12 248,-6 254,0 260,0 260,0 346,0 346,0 352,0 358,-6 358,-12 358,-12 358,-41 358,-41 358,-47 352,-53 346,-53"/>
<text text-anchor="middle" x="303" y="-37.8" font-family="Helvetica,sans-Serif" font-size="14.00" fill="#000000">mse = 162.839</text>
<text text-anchor="middle" x="303" y="-22.8" font-family="Helvetica,sans-Serif" font-size="14.00" fill="#000000">samples = 244</text>
<text text-anchor="middle" x="303" y="-7.8" font-family="Helvetica,sans-Serif" font-size="14.00" fill="#000000">value = 10.902</text>
</g>
<!-- 4&#45;&gt;5 -->
<g id="edge5" class="edge">
<title>4&#45;&gt;5</title>
<path fill="none" stroke="#000000" d="M303,-88.9777C303,-80.7364 303,-71.887 303,-63.5153"/>
<polygon fill="#000000" stroke="#000000" points="306.5001,-63.2484 303,-53.2485 299.5001,-63.2485 306.5001,-63.2484"/>
</g>
<!-- 6 -->
<g id="node7" class="node">
<title>6</title>
<path fill="#f7d7c0" stroke="#000000" d="M473.5,-53C473.5,-53 388.5,-53 388.5,-53 382.5,-53 376.5,-47 376.5,-41 376.5,-41 376.5,-12 376.5,-12 376.5,-6 382.5,0 388.5,0 388.5,0 473.5,0 473.5,0 479.5,0 485.5,-6 485.5,-12 485.5,-12 485.5,-41 485.5,-41 485.5,-47 479.5,-53 473.5,-53"/>
<text text-anchor="middle" x="431" y="-37.8" font-family="Helvetica,sans-Serif" font-size="14.00" fill="#000000">mse = 97.445</text>
<text text-anchor="middle" x="431" y="-22.8" font-family="Helvetica,sans-Serif" font-size="14.00" fill="#000000">samples = 21</text>
<text text-anchor="middle" x="431" y="-7.8" font-family="Helvetica,sans-Serif" font-size="14.00" fill="#000000">value = 36.107</text>
</g>
<!-- 4&#45;&gt;6 -->
<g id="edge6" class="edge">
<title>4&#45;&gt;6</title>
<path fill="none" stroke="#000000" d="M348.128,-88.9777C360.8813,-79.3629 374.7327,-68.9203 387.3947,-59.3743"/>
<polygon fill="#000000" stroke="#000000" points="389.6421,-62.0632 395.5202,-53.2485 385.4281,-56.4737 389.6421,-62.0632"/>
</g>
</g>
</svg>
