<?xml version="1.0" encoding="utf-8" standalone="no"?>
<!DOCTYPE svg PUBLIC "-//W3C//DTD SVG 1.1//EN"
  "http://www.w3.org/Graphics/SVG/1.1/DTD/svg11.dtd">
<!-- Created with matplotlib (https://matplotlib.org/) -->
<svg height="298.845312pt" version="1.1" viewBox="0 0 483.760938 298.845312" width="483.760938pt" xmlns="http://www.w3.org/2000/svg" xmlns:xlink="http://www.w3.org/1999/xlink">
 <defs>
  <style type="text/css">
*{stroke-linecap:butt;stroke-linejoin:round;}
  </style>
 </defs>
 <g id="figure_1">
  <g id="patch_1">
   <path d="M 0 298.845312 
L 483.760938 298.845312 
L 483.760938 0 
L 0 0 
z
" style="fill:#ffffff;"/>
  </g>
  <g id="axes_1">
   <g id="patch_2">
    <path d="M 30.160937 279 
L 476.560937 279 
L 476.560937 7.2 
L 30.160937 7.2 
z
" style="fill:#ffffff;"/>
   </g>
   <g id="matplotlib.axis_1">
    <g id="xtick_1">
     <g id="line2d_1">
      <path clip-path="url(#p1452a37323)" d="M 91.419241 279 
L 91.419241 7.2 
" style="fill:none;stroke:#cccccc;stroke-linecap:round;stroke-width:0.8;"/>
     </g>
     <g id="line2d_2"/>
     <g id="text_1">
      <!-- −5 -->
      <defs>
       <path d="M 52.828125 31.203125 
L 5.5625 31.203125 
L 5.5625 39.40625 
L 52.828125 39.40625 
z
" id="ArialMT-8722"/>
       <path d="M 4.15625 18.75 
L 13.375 19.53125 
Q 14.40625 12.796875 18.140625 9.390625 
Q 21.875 6 27.15625 6 
Q 33.5 6 37.890625 10.78125 
Q 42.28125 15.578125 42.28125 23.484375 
Q 42.28125 31 38.0625 35.34375 
Q 33.84375 39.703125 27 39.703125 
Q 22.75 39.703125 19.328125 37.765625 
Q 15.921875 35.84375 13.96875 32.765625 
L 5.71875 33.84375 
L 12.640625 70.609375 
L 48.25 70.609375 
L 48.25 62.203125 
L 19.671875 62.203125 
L 15.828125 42.96875 
Q 22.265625 47.46875 29.34375 47.46875 
Q 38.71875 47.46875 45.15625 40.96875 
Q 51.609375 34.46875 51.609375 24.265625 
Q 51.609375 14.546875 45.953125 7.46875 
Q 39.0625 -1.21875 27.15625 -1.21875 
Q 17.390625 -1.21875 11.203125 4.25 
Q 5.03125 9.71875 4.15625 18.75 
z
" id="ArialMT-53"/>
      </defs>
      <g style="fill:#262626;" transform="translate(85.71846 289.657812)scale(0.1 -0.1)">
       <use xlink:href="#ArialMT-8722"/>
       <use x="58.398438" xlink:href="#ArialMT-53"/>
      </g>
     </g>
    </g>
    <g id="xtick_2">
     <g id="line2d_3">
      <path clip-path="url(#p1452a37323)" d="M 162.812956 279 
L 162.812956 7.2 
" style="fill:none;stroke:#cccccc;stroke-linecap:round;stroke-width:0.8;"/>
     </g>
     <g id="line2d_4"/>
     <g id="text_2">
      <!-- 0 -->
      <defs>
       <path d="M 4.15625 35.296875 
Q 4.15625 48 6.765625 55.734375 
Q 9.375 63.484375 14.515625 67.671875 
Q 19.671875 71.875 27.484375 71.875 
Q 33.25 71.875 37.59375 69.546875 
Q 41.9375 67.234375 44.765625 62.859375 
Q 47.609375 58.5 49.21875 52.21875 
Q 50.828125 45.953125 50.828125 35.296875 
Q 50.828125 22.703125 48.234375 14.96875 
Q 45.65625 7.234375 40.5 3 
Q 35.359375 -1.21875 27.484375 -1.21875 
Q 17.140625 -1.21875 11.234375 6.203125 
Q 4.15625 15.140625 4.15625 35.296875 
z
M 13.1875 35.296875 
Q 13.1875 17.671875 17.3125 11.828125 
Q 21.4375 6 27.484375 6 
Q 33.546875 6 37.671875 11.859375 
Q 41.796875 17.71875 41.796875 35.296875 
Q 41.796875 52.984375 37.671875 58.78125 
Q 33.546875 64.59375 27.390625 64.59375 
Q 21.34375 64.59375 17.71875 59.46875 
Q 13.1875 52.9375 13.1875 35.296875 
z
" id="ArialMT-48"/>
      </defs>
      <g style="fill:#262626;" transform="translate(160.032487 289.657812)scale(0.1 -0.1)">
       <use xlink:href="#ArialMT-48"/>
      </g>
     </g>
    </g>
    <g id="xtick_3">
     <g id="line2d_5">
      <path clip-path="url(#p1452a37323)" d="M 234.206671 279 
L 234.206671 7.2 
" style="fill:none;stroke:#cccccc;stroke-linecap:round;stroke-width:0.8;"/>
     </g>
     <g id="line2d_6"/>
     <g id="text_3">
      <!-- 5 -->
      <g style="fill:#262626;" transform="translate(231.426202 289.657812)scale(0.1 -0.1)">
       <use xlink:href="#ArialMT-53"/>
      </g>
     </g>
    </g>
    <g id="xtick_4">
     <g id="line2d_7">
      <path clip-path="url(#p1452a37323)" d="M 305.600386 279 
L 305.600386 7.2 
" style="fill:none;stroke:#cccccc;stroke-linecap:round;stroke-width:0.8;"/>
     </g>
     <g id="line2d_8"/>
     <g id="text_4">
      <!-- 10 -->
      <defs>
       <path d="M 37.25 0 
L 28.46875 0 
L 28.46875 56 
Q 25.296875 52.984375 20.140625 49.953125 
Q 14.984375 46.921875 10.890625 45.40625 
L 10.890625 53.90625 
Q 18.265625 57.375 23.78125 62.296875 
Q 29.296875 67.234375 31.59375 71.875 
L 37.25 71.875 
z
" id="ArialMT-49"/>
      </defs>
      <g style="fill:#262626;" transform="translate(300.039448 289.657812)scale(0.1 -0.1)">
       <use xlink:href="#ArialMT-49"/>
       <use x="55.615234" xlink:href="#ArialMT-48"/>
      </g>
     </g>
    </g>
    <g id="xtick_5">
     <g id="line2d_9">
      <path clip-path="url(#p1452a37323)" d="M 376.9941 279 
L 376.9941 7.2 
" style="fill:none;stroke:#cccccc;stroke-linecap:round;stroke-width:0.8;"/>
     </g>
     <g id="line2d_10"/>
     <g id="text_5">
      <!-- 15 -->
      <g style="fill:#262626;" transform="translate(371.433163 289.657812)scale(0.1 -0.1)">
       <use xlink:href="#ArialMT-49"/>
       <use x="55.615234" xlink:href="#ArialMT-53"/>
      </g>
     </g>
    </g>
    <g id="xtick_6">
     <g id="line2d_11">
      <path clip-path="url(#p1452a37323)" d="M 448.387815 279 
L 448.387815 7.2 
" style="fill:none;stroke:#cccccc;stroke-linecap:round;stroke-width:0.8;"/>
     </g>
     <g id="line2d_12"/>
     <g id="text_6">
      <!-- 20 -->
      <defs>
       <path d="M 50.34375 8.453125 
L 50.34375 0 
L 3.03125 0 
Q 2.9375 3.171875 4.046875 6.109375 
Q 5.859375 10.9375 9.828125 15.625 
Q 13.8125 20.3125 21.34375 26.46875 
Q 33.015625 36.03125 37.109375 41.625 
Q 41.21875 47.21875 41.21875 52.203125 
Q 41.21875 57.421875 37.46875 61 
Q 33.734375 64.59375 27.734375 64.59375 
Q 21.390625 64.59375 17.578125 60.78125 
Q 13.765625 56.984375 13.71875 50.25 
L 4.6875 51.171875 
Q 5.609375 61.28125 11.65625 66.578125 
Q 17.71875 71.875 27.9375 71.875 
Q 38.234375 71.875 44.234375 66.15625 
Q 50.25 60.453125 50.25 52 
Q 50.25 47.703125 48.484375 43.546875 
Q 46.734375 39.40625 42.65625 34.8125 
Q 38.578125 30.21875 29.109375 22.21875 
Q 21.1875 15.578125 18.9375 13.203125 
Q 16.703125 10.84375 15.234375 8.453125 
z
" id="ArialMT-50"/>
      </defs>
      <g style="fill:#262626;" transform="translate(442.826878 289.657812)scale(0.1 -0.1)">
       <use xlink:href="#ArialMT-50"/>
       <use x="55.615234" xlink:href="#ArialMT-48"/>
      </g>
     </g>
    </g>
   </g>
   <g id="matplotlib.axis_2">
    <g id="ytick_1">
     <g id="line2d_13">
      <path clip-path="url(#p1452a37323)" d="M 30.160937 279 
L 476.560937 279 
" style="fill:none;stroke:#cccccc;stroke-linecap:round;stroke-width:0.8;"/>
     </g>
     <g id="line2d_14"/>
     <g id="text_7">
      <!-- 0.00 -->
      <defs>
       <path d="M 9.078125 0 
L 9.078125 10.015625 
L 19.09375 10.015625 
L 19.09375 0 
z
" id="ArialMT-46"/>
      </defs>
      <g style="fill:#262626;" transform="translate(7.2 282.578906)scale(0.1 -0.1)">
       <use xlink:href="#ArialMT-48"/>
       <use x="55.615234" xlink:href="#ArialMT-46"/>
       <use x="83.398438" xlink:href="#ArialMT-48"/>
       <use x="139.013672" xlink:href="#ArialMT-48"/>
      </g>
     </g>
    </g>
    <g id="ytick_2">
     <g id="line2d_15">
      <path clip-path="url(#p1452a37323)" d="M 30.160937 231.894642 
L 476.560937 231.894642 
" style="fill:none;stroke:#cccccc;stroke-linecap:round;stroke-width:0.8;"/>
     </g>
     <g id="line2d_16"/>
     <g id="text_8">
      <!-- 0.05 -->
      <g style="fill:#262626;" transform="translate(7.2 235.473548)scale(0.1 -0.1)">
       <use xlink:href="#ArialMT-48"/>
       <use x="55.615234" xlink:href="#ArialMT-46"/>
       <use x="83.398438" xlink:href="#ArialMT-48"/>
       <use x="139.013672" xlink:href="#ArialMT-53"/>
      </g>
     </g>
    </g>
    <g id="ytick_3">
     <g id="line2d_17">
      <path clip-path="url(#p1452a37323)" d="M 30.160937 184.789283 
L 476.560937 184.789283 
" style="fill:none;stroke:#cccccc;stroke-linecap:round;stroke-width:0.8;"/>
     </g>
     <g id="line2d_18"/>
     <g id="text_9">
      <!-- 0.10 -->
      <g style="fill:#262626;" transform="translate(7.2 188.368189)scale(0.1 -0.1)">
       <use xlink:href="#ArialMT-48"/>
       <use x="55.615234" xlink:href="#ArialMT-46"/>
       <use x="83.398438" xlink:href="#ArialMT-49"/>
       <use x="139.013672" xlink:href="#ArialMT-48"/>
      </g>
     </g>
    </g>
    <g id="ytick_4">
     <g id="line2d_19">
      <path clip-path="url(#p1452a37323)" d="M 30.160937 137.683925 
L 476.560937 137.683925 
" style="fill:none;stroke:#cccccc;stroke-linecap:round;stroke-width:0.8;"/>
     </g>
     <g id="line2d_20"/>
     <g id="text_10">
      <!-- 0.15 -->
      <g style="fill:#262626;" transform="translate(7.2 141.262831)scale(0.1 -0.1)">
       <use xlink:href="#ArialMT-48"/>
       <use x="55.615234" xlink:href="#ArialMT-46"/>
       <use x="83.398438" xlink:href="#ArialMT-49"/>
       <use x="139.013672" xlink:href="#ArialMT-53"/>
      </g>
     </g>
    </g>
    <g id="ytick_5">
     <g id="line2d_21">
      <path clip-path="url(#p1452a37323)" d="M 30.160937 90.578566 
L 476.560937 90.578566 
" style="fill:none;stroke:#cccccc;stroke-linecap:round;stroke-width:0.8;"/>
     </g>
     <g id="line2d_22"/>
     <g id="text_11">
      <!-- 0.20 -->
      <g style="fill:#262626;" transform="translate(7.2 94.157473)scale(0.1 -0.1)">
       <use xlink:href="#ArialMT-48"/>
       <use x="55.615234" xlink:href="#ArialMT-46"/>
       <use x="83.398438" xlink:href="#ArialMT-50"/>
       <use x="139.013672" xlink:href="#ArialMT-48"/>
      </g>
     </g>
    </g>
    <g id="ytick_6">
     <g id="line2d_23">
      <path clip-path="url(#p1452a37323)" d="M 30.160937 43.473208 
L 476.560937 43.473208 
" style="fill:none;stroke:#cccccc;stroke-linecap:round;stroke-width:0.8;"/>
     </g>
     <g id="line2d_24"/>
     <g id="text_12">
      <!-- 0.25 -->
      <g style="fill:#262626;" transform="translate(7.2 47.052114)scale(0.1 -0.1)">
       <use xlink:href="#ArialMT-48"/>
       <use x="55.615234" xlink:href="#ArialMT-46"/>
       <use x="83.398438" xlink:href="#ArialMT-50"/>
       <use x="139.013672" xlink:href="#ArialMT-53"/>
      </g>
     </g>
    </g>
   </g>
   <g id="patch_3">
    <path clip-path="url(#p1452a37323)" d="M 123.442694 279 
L 126.041059 279 
L 126.041059 253.114286 
L 123.442694 253.114286 
z
" style="opacity:0.4;"/>
   </g>
   <g id="patch_4">
    <path clip-path="url(#p1452a37323)" d="M 126.041059 279 
L 128.639424 279 
L 128.639424 240.171429 
L 126.041059 240.171429 
z
" style="opacity:0.4;"/>
   </g>
   <g id="patch_5">
    <path clip-path="url(#p1452a37323)" d="M 128.639424 279 
L 131.237789 279 
L 131.237789 253.114286 
L 128.639424 253.114286 
z
" style="opacity:0.4;"/>
   </g>
   <g id="patch_6">
    <path clip-path="url(#p1452a37323)" d="M 131.237789 279 
L 133.836154 279 
L 133.836154 214.285714 
L 131.237789 214.285714 
z
" style="opacity:0.4;"/>
   </g>
   <g id="patch_7">
    <path clip-path="url(#p1452a37323)" d="M 133.836154 279 
L 136.434519 279 
L 136.434519 253.114286 
L 133.836154 253.114286 
z
" style="opacity:0.4;"/>
   </g>
   <g id="patch_8">
    <path clip-path="url(#p1452a37323)" d="M 136.434519 279 
L 139.032884 279 
L 139.032884 266.057143 
L 136.434519 266.057143 
z
" style="opacity:0.4;"/>
   </g>
   <g id="patch_9">
    <path clip-path="url(#p1452a37323)" d="M 139.032884 279 
L 141.631248 279 
L 141.631248 240.171429 
L 139.032884 240.171429 
z
" style="opacity:0.4;"/>
   </g>
   <g id="patch_10">
    <path clip-path="url(#p1452a37323)" d="M 141.631248 279 
L 144.229613 279 
L 144.229613 227.228571 
L 141.631248 227.228571 
z
" style="opacity:0.4;"/>
   </g>
   <g id="patch_11">
    <path clip-path="url(#p1452a37323)" d="M 144.229613 279 
L 146.827978 279 
L 146.827978 227.228571 
L 144.229613 227.228571 
z
" style="opacity:0.4;"/>
   </g>
   <g id="patch_12">
    <path clip-path="url(#p1452a37323)" d="M 146.827978 279 
L 149.426343 279 
L 149.426343 110.742857 
L 146.827978 110.742857 
z
" style="opacity:0.4;"/>
   </g>
   <g id="patch_13">
    <path clip-path="url(#p1452a37323)" d="M 149.426343 279 
L 152.024708 279 
L 152.024708 136.628571 
L 149.426343 136.628571 
z
" style="opacity:0.4;"/>
   </g>
   <g id="patch_14">
    <path clip-path="url(#p1452a37323)" d="M 152.024708 279 
L 154.623073 279 
L 154.623073 214.285714 
L 152.024708 214.285714 
z
" style="opacity:0.4;"/>
   </g>
   <g id="patch_15">
    <path clip-path="url(#p1452a37323)" d="M 154.623073 279 
L 157.221438 279 
L 157.221438 97.8 
L 154.623073 97.8 
z
" style="opacity:0.4;"/>
   </g>
   <g id="patch_16">
    <path clip-path="url(#p1452a37323)" d="M 157.221438 279 
L 159.819802 279 
L 159.819802 20.142857 
L 157.221438 20.142857 
z
" style="opacity:0.4;"/>
   </g>
   <g id="patch_17">
    <path clip-path="url(#p1452a37323)" d="M 159.819802 279 
L 162.418167 279 
L 162.418167 71.914286 
L 159.819802 71.914286 
z
" style="opacity:0.4;"/>
   </g>
   <g id="patch_18">
    <path clip-path="url(#p1452a37323)" d="M 162.418167 279 
L 165.016532 279 
L 165.016532 162.514286 
L 162.418167 162.514286 
z
" style="opacity:0.4;"/>
   </g>
   <g id="patch_19">
    <path clip-path="url(#p1452a37323)" d="M 165.016532 279 
L 167.614897 279 
L 167.614897 123.685714 
L 165.016532 123.685714 
z
" style="opacity:0.4;"/>
   </g>
   <g id="patch_20">
    <path clip-path="url(#p1452a37323)" d="M 167.614897 279 
L 170.213262 279 
L 170.213262 110.742857 
L 167.614897 110.742857 
z
" style="opacity:0.4;"/>
   </g>
   <g id="patch_21">
    <path clip-path="url(#p1452a37323)" d="M 170.213262 279 
L 172.811627 279 
L 172.811627 149.571429 
L 170.213262 149.571429 
z
" style="opacity:0.4;"/>
   </g>
   <g id="patch_22">
    <path clip-path="url(#p1452a37323)" d="M 172.811627 279 
L 175.409992 279 
L 175.409992 71.914286 
L 172.811627 71.914286 
z
" style="opacity:0.4;"/>
   </g>
   <g id="patch_23">
    <path clip-path="url(#p1452a37323)" d="M 175.409992 279 
L 178.008357 279 
L 178.008357 188.4 
L 175.409992 188.4 
z
" style="opacity:0.4;"/>
   </g>
   <g id="patch_24">
    <path clip-path="url(#p1452a37323)" d="M 178.008357 279 
L 180.606721 279 
L 180.606721 214.285714 
L 178.008357 214.285714 
z
" style="opacity:0.4;"/>
   </g>
   <g id="patch_25">
    <path clip-path="url(#p1452a37323)" d="M 180.606721 279 
L 183.205086 279 
L 183.205086 214.285714 
L 180.606721 214.285714 
z
" style="opacity:0.4;"/>
   </g>
   <g id="patch_26">
    <path clip-path="url(#p1452a37323)" d="M 183.205086 279 
L 185.803451 279 
L 185.803451 214.285714 
L 183.205086 214.285714 
z
" style="opacity:0.4;"/>
   </g>
   <g id="patch_27">
    <path clip-path="url(#p1452a37323)" d="M 185.803451 279 
L 188.401816 279 
L 188.401816 201.342857 
L 185.803451 201.342857 
z
" style="opacity:0.4;"/>
   </g>
   <g id="patch_28">
    <path clip-path="url(#p1452a37323)" d="M 188.401816 279 
L 191.000181 279 
L 191.000181 227.228571 
L 188.401816 227.228571 
z
" style="opacity:0.4;"/>
   </g>
   <g id="patch_29">
    <path clip-path="url(#p1452a37323)" d="M 191.000181 279 
L 193.598546 279 
L 193.598546 266.057143 
L 191.000181 266.057143 
z
" style="opacity:0.4;"/>
   </g>
   <g id="patch_30">
    <path clip-path="url(#p1452a37323)" d="M 193.598546 279 
L 196.196911 279 
L 196.196911 279 
L 193.598546 279 
z
" style="opacity:0.4;"/>
   </g>
   <g id="patch_31">
    <path clip-path="url(#p1452a37323)" d="M 196.196911 279 
L 198.795275 279 
L 198.795275 266.057143 
L 196.196911 266.057143 
z
" style="opacity:0.4;"/>
   </g>
   <g id="patch_32">
    <path clip-path="url(#p1452a37323)" d="M 198.795275 279 
L 201.39364 279 
L 201.39364 279 
L 198.795275 279 
z
" style="opacity:0.4;"/>
   </g>
   <g id="patch_33">
    <path clip-path="url(#p1452a37323)" d="M 201.39364 279 
L 203.992005 279 
L 203.992005 279 
L 201.39364 279 
z
" style="opacity:0.4;"/>
   </g>
   <g id="patch_34">
    <path clip-path="url(#p1452a37323)" d="M 203.992005 279 
L 206.59037 279 
L 206.59037 266.057143 
L 203.992005 266.057143 
z
" style="opacity:0.4;"/>
   </g>
   <g id="patch_35">
    <path clip-path="url(#p1452a37323)" d="M 206.59037 279 
L 209.188735 279 
L 209.188735 279 
L 206.59037 279 
z
" style="opacity:0.4;"/>
   </g>
   <g id="patch_36">
    <path clip-path="url(#p1452a37323)" d="M 209.188735 279 
L 211.7871 279 
L 211.7871 279 
L 209.188735 279 
z
" style="opacity:0.4;"/>
   </g>
   <g id="patch_37">
    <path clip-path="url(#p1452a37323)" d="M 211.7871 279 
L 214.385465 279 
L 214.385465 279 
L 211.7871 279 
z
" style="opacity:0.4;"/>
   </g>
   <g id="patch_38">
    <path clip-path="url(#p1452a37323)" d="M 214.385465 279 
L 216.983829 279 
L 216.983829 279 
L 214.385465 279 
z
" style="opacity:0.4;"/>
   </g>
   <g id="patch_39">
    <path clip-path="url(#p1452a37323)" d="M 216.983829 279 
L 219.582194 279 
L 219.582194 266.057143 
L 216.983829 266.057143 
z
" style="opacity:0.4;"/>
   </g>
   <g id="patch_40">
    <path clip-path="url(#p1452a37323)" d="M 219.582194 279 
L 222.180559 279 
L 222.180559 279 
L 219.582194 279 
z
" style="opacity:0.4;"/>
   </g>
   <g id="patch_41">
    <path clip-path="url(#p1452a37323)" d="M 222.180559 279 
L 224.778924 279 
L 224.778924 279 
L 222.180559 279 
z
" style="opacity:0.4;"/>
   </g>
   <g id="patch_42">
    <path clip-path="url(#p1452a37323)" d="M 224.778924 279 
L 227.377289 279 
L 227.377289 279 
L 224.778924 279 
z
" style="opacity:0.4;"/>
   </g>
   <g id="patch_43">
    <path clip-path="url(#p1452a37323)" d="M 227.377289 279 
L 229.975654 279 
L 229.975654 279 
L 227.377289 279 
z
" style="opacity:0.4;"/>
   </g>
   <g id="patch_44">
    <path clip-path="url(#p1452a37323)" d="M 229.975654 279 
L 232.574019 279 
L 232.574019 266.057143 
L 229.975654 266.057143 
z
" style="opacity:0.4;"/>
   </g>
   <g id="patch_45">
    <path clip-path="url(#p1452a37323)" d="M 232.574019 279 
L 235.172383 279 
L 235.172383 279 
L 232.574019 279 
z
" style="opacity:0.4;"/>
   </g>
   <g id="patch_46">
    <path clip-path="url(#p1452a37323)" d="M 235.172383 279 
L 237.770748 279 
L 237.770748 266.057143 
L 235.172383 266.057143 
z
" style="opacity:0.4;"/>
   </g>
   <g id="patch_47">
    <path clip-path="url(#p1452a37323)" d="M 237.770748 279 
L 240.369113 279 
L 240.369113 253.114286 
L 237.770748 253.114286 
z
" style="opacity:0.4;"/>
   </g>
   <g id="patch_48">
    <path clip-path="url(#p1452a37323)" d="M 240.369113 279 
L 242.967478 279 
L 242.967478 279 
L 240.369113 279 
z
" style="opacity:0.4;"/>
   </g>
   <g id="patch_49">
    <path clip-path="url(#p1452a37323)" d="M 242.967478 279 
L 245.565843 279 
L 245.565843 279 
L 242.967478 279 
z
" style="opacity:0.4;"/>
   </g>
   <g id="patch_50">
    <path clip-path="url(#p1452a37323)" d="M 245.565843 279 
L 248.164208 279 
L 248.164208 279 
L 245.565843 279 
z
" style="opacity:0.4;"/>
   </g>
   <g id="patch_51">
    <path clip-path="url(#p1452a37323)" d="M 248.164208 279 
L 250.762573 279 
L 250.762573 279 
L 248.164208 279 
z
" style="opacity:0.4;"/>
   </g>
   <g id="patch_52">
    <path clip-path="url(#p1452a37323)" d="M 250.762573 279 
L 253.360938 279 
L 253.360938 253.114286 
L 250.762573 253.114286 
z
" style="opacity:0.4;"/>
   </g>
   <g id="patch_53">
    <path clip-path="url(#p1452a37323)" d="M 253.360938 279 
L 255.959302 279 
L 255.959302 266.057143 
L 253.360938 266.057143 
z
" style="opacity:0.4;"/>
   </g>
   <g id="patch_54">
    <path clip-path="url(#p1452a37323)" d="M 255.959302 279 
L 258.557667 279 
L 258.557667 240.171429 
L 255.959302 240.171429 
z
" style="opacity:0.4;"/>
   </g>
   <g id="patch_55">
    <path clip-path="url(#p1452a37323)" d="M 258.557667 279 
L 261.156032 279 
L 261.156032 266.057143 
L 258.557667 266.057143 
z
" style="opacity:0.4;"/>
   </g>
   <g id="patch_56">
    <path clip-path="url(#p1452a37323)" d="M 261.156032 279 
L 263.754397 279 
L 263.754397 266.057143 
L 261.156032 266.057143 
z
" style="opacity:0.4;"/>
   </g>
   <g id="patch_57">
    <path clip-path="url(#p1452a37323)" d="M 263.754397 279 
L 266.352762 279 
L 266.352762 214.285714 
L 263.754397 214.285714 
z
" style="opacity:0.4;"/>
   </g>
   <g id="patch_58">
    <path clip-path="url(#p1452a37323)" d="M 266.352762 279 
L 268.951127 279 
L 268.951127 240.171429 
L 266.352762 240.171429 
z
" style="opacity:0.4;"/>
   </g>
   <g id="patch_59">
    <path clip-path="url(#p1452a37323)" d="M 268.951127 279 
L 271.549492 279 
L 271.549492 253.114286 
L 268.951127 253.114286 
z
" style="opacity:0.4;"/>
   </g>
   <g id="patch_60">
    <path clip-path="url(#p1452a37323)" d="M 271.549492 279 
L 274.147856 279 
L 274.147856 201.342857 
L 271.549492 201.342857 
z
" style="opacity:0.4;"/>
   </g>
   <g id="patch_61">
    <path clip-path="url(#p1452a37323)" d="M 274.147856 279 
L 276.746221 279 
L 276.746221 201.342857 
L 274.147856 201.342857 
z
" style="opacity:0.4;"/>
   </g>
   <g id="patch_62">
    <path clip-path="url(#p1452a37323)" d="M 276.746221 279 
L 279.344586 279 
L 279.344586 214.285714 
L 276.746221 214.285714 
z
" style="opacity:0.4;"/>
   </g>
   <g id="patch_63">
    <path clip-path="url(#p1452a37323)" d="M 279.344586 279 
L 281.942951 279 
L 281.942951 175.457143 
L 279.344586 175.457143 
z
" style="opacity:0.4;"/>
   </g>
   <g id="patch_64">
    <path clip-path="url(#p1452a37323)" d="M 281.942951 279 
L 284.541316 279 
L 284.541316 227.228571 
L 281.942951 227.228571 
z
" style="opacity:0.4;"/>
   </g>
   <g id="patch_65">
    <path clip-path="url(#p1452a37323)" d="M 284.541316 279 
L 287.139681 279 
L 287.139681 201.342857 
L 284.541316 201.342857 
z
" style="opacity:0.4;"/>
   </g>
   <g id="patch_66">
    <path clip-path="url(#p1452a37323)" d="M 287.139681 279 
L 289.738046 279 
L 289.738046 201.342857 
L 287.139681 201.342857 
z
" style="opacity:0.4;"/>
   </g>
   <g id="patch_67">
    <path clip-path="url(#p1452a37323)" d="M 289.738046 279 
L 292.33641 279 
L 292.33641 253.114286 
L 289.738046 253.114286 
z
" style="opacity:0.4;"/>
   </g>
   <g id="patch_68">
    <path clip-path="url(#p1452a37323)" d="M 292.33641 279 
L 294.934775 279 
L 294.934775 253.114286 
L 292.33641 253.114286 
z
" style="opacity:0.4;"/>
   </g>
   <g id="patch_69">
    <path clip-path="url(#p1452a37323)" d="M 294.934775 279 
L 297.53314 279 
L 297.53314 201.342857 
L 294.934775 201.342857 
z
" style="opacity:0.4;"/>
   </g>
   <g id="patch_70">
    <path clip-path="url(#p1452a37323)" d="M 297.53314 279 
L 300.131505 279 
L 300.131505 214.285714 
L 297.53314 214.285714 
z
" style="opacity:0.4;"/>
   </g>
   <g id="patch_71">
    <path clip-path="url(#p1452a37323)" d="M 300.131505 279 
L 302.72987 279 
L 302.72987 188.4 
L 300.131505 188.4 
z
" style="opacity:0.4;"/>
   </g>
   <g id="patch_72">
    <path clip-path="url(#p1452a37323)" d="M 302.72987 279 
L 305.328235 279 
L 305.328235 162.514286 
L 302.72987 162.514286 
z
" style="opacity:0.4;"/>
   </g>
   <g id="patch_73">
    <path clip-path="url(#p1452a37323)" d="M 305.328235 279 
L 307.9266 279 
L 307.9266 175.457143 
L 305.328235 175.457143 
z
" style="opacity:0.4;"/>
   </g>
   <g id="patch_74">
    <path clip-path="url(#p1452a37323)" d="M 307.9266 279 
L 310.524964 279 
L 310.524964 214.285714 
L 307.9266 214.285714 
z
" style="opacity:0.4;"/>
   </g>
   <g id="patch_75">
    <path clip-path="url(#p1452a37323)" d="M 310.524964 279 
L 313.123329 279 
L 313.123329 188.4 
L 310.524964 188.4 
z
" style="opacity:0.4;"/>
   </g>
   <g id="patch_76">
    <path clip-path="url(#p1452a37323)" d="M 313.123329 279 
L 315.721694 279 
L 315.721694 201.342857 
L 313.123329 201.342857 
z
" style="opacity:0.4;"/>
   </g>
   <g id="patch_77">
    <path clip-path="url(#p1452a37323)" d="M 315.721694 279 
L 318.320059 279 
L 318.320059 149.571429 
L 315.721694 149.571429 
z
" style="opacity:0.4;"/>
   </g>
   <g id="patch_78">
    <path clip-path="url(#p1452a37323)" d="M 318.320059 279 
L 320.918424 279 
L 320.918424 240.171429 
L 318.320059 240.171429 
z
" style="opacity:0.4;"/>
   </g>
   <g id="patch_79">
    <path clip-path="url(#p1452a37323)" d="M 320.918424 279 
L 323.516789 279 
L 323.516789 201.342857 
L 320.918424 201.342857 
z
" style="opacity:0.4;"/>
   </g>
   <g id="patch_80">
    <path clip-path="url(#p1452a37323)" d="M 323.516789 279 
L 326.115154 279 
L 326.115154 214.285714 
L 323.516789 214.285714 
z
" style="opacity:0.4;"/>
   </g>
   <g id="patch_81">
    <path clip-path="url(#p1452a37323)" d="M 326.115154 279 
L 328.713518 279 
L 328.713518 201.342857 
L 326.115154 201.342857 
z
" style="opacity:0.4;"/>
   </g>
   <g id="patch_82">
    <path clip-path="url(#p1452a37323)" d="M 328.713518 279 
L 331.311883 279 
L 331.311883 175.457143 
L 328.713518 175.457143 
z
" style="opacity:0.4;"/>
   </g>
   <g id="patch_83">
    <path clip-path="url(#p1452a37323)" d="M 331.311883 279 
L 333.910248 279 
L 333.910248 149.571429 
L 331.311883 149.571429 
z
" style="opacity:0.4;"/>
   </g>
   <g id="patch_84">
    <path clip-path="url(#p1452a37323)" d="M 333.910248 279 
L 336.508613 279 
L 336.508613 266.057143 
L 333.910248 266.057143 
z
" style="opacity:0.4;"/>
   </g>
   <g id="patch_85">
    <path clip-path="url(#p1452a37323)" d="M 336.508613 279 
L 339.106978 279 
L 339.106978 227.228571 
L 336.508613 227.228571 
z
" style="opacity:0.4;"/>
   </g>
   <g id="patch_86">
    <path clip-path="url(#p1452a37323)" d="M 339.106978 279 
L 341.705343 279 
L 341.705343 253.114286 
L 339.106978 253.114286 
z
" style="opacity:0.4;"/>
   </g>
   <g id="patch_87">
    <path clip-path="url(#p1452a37323)" d="M 341.705343 279 
L 344.303708 279 
L 344.303708 253.114286 
L 341.705343 253.114286 
z
" style="opacity:0.4;"/>
   </g>
   <g id="patch_88">
    <path clip-path="url(#p1452a37323)" d="M 344.303708 279 
L 346.902073 279 
L 346.902073 227.228571 
L 344.303708 227.228571 
z
" style="opacity:0.4;"/>
   </g>
   <g id="patch_89">
    <path clip-path="url(#p1452a37323)" d="M 346.902073 279 
L 349.500437 279 
L 349.500437 240.171429 
L 346.902073 240.171429 
z
" style="opacity:0.4;"/>
   </g>
   <g id="patch_90">
    <path clip-path="url(#p1452a37323)" d="M 349.500437 279 
L 352.098802 279 
L 352.098802 266.057143 
L 349.500437 266.057143 
z
" style="opacity:0.4;"/>
   </g>
   <g id="patch_91">
    <path clip-path="url(#p1452a37323)" d="M 352.098802 279 
L 354.697167 279 
L 354.697167 253.114286 
L 352.098802 253.114286 
z
" style="opacity:0.4;"/>
   </g>
   <g id="patch_92">
    <path clip-path="url(#p1452a37323)" d="M 354.697167 279 
L 357.295532 279 
L 357.295532 253.114286 
L 354.697167 253.114286 
z
" style="opacity:0.4;"/>
   </g>
   <g id="patch_93">
    <path clip-path="url(#p1452a37323)" d="M 357.295532 279 
L 359.893897 279 
L 359.893897 240.171429 
L 357.295532 240.171429 
z
" style="opacity:0.4;"/>
   </g>
   <g id="patch_94">
    <path clip-path="url(#p1452a37323)" d="M 359.893897 279 
L 362.492262 279 
L 362.492262 266.057143 
L 359.893897 266.057143 
z
" style="opacity:0.4;"/>
   </g>
   <g id="patch_95">
    <path clip-path="url(#p1452a37323)" d="M 362.492262 279 
L 365.090627 279 
L 365.090627 266.057143 
L 362.492262 266.057143 
z
" style="opacity:0.4;"/>
   </g>
   <g id="patch_96">
    <path clip-path="url(#p1452a37323)" d="M 365.090627 279 
L 367.688991 279 
L 367.688991 266.057143 
L 365.090627 266.057143 
z
" style="opacity:0.4;"/>
   </g>
   <g id="patch_97">
    <path clip-path="url(#p1452a37323)" d="M 367.688991 279 
L 370.287356 279 
L 370.287356 266.057143 
L 367.688991 266.057143 
z
" style="opacity:0.4;"/>
   </g>
   <g id="patch_98">
    <path clip-path="url(#p1452a37323)" d="M 370.287356 279 
L 372.885721 279 
L 372.885721 266.057143 
L 370.287356 266.057143 
z
" style="opacity:0.4;"/>
   </g>
   <g id="patch_99">
    <path clip-path="url(#p1452a37323)" d="M 372.885721 279 
L 375.484086 279 
L 375.484086 266.057143 
L 372.885721 266.057143 
z
" style="opacity:0.4;"/>
   </g>
   <g id="patch_100">
    <path clip-path="url(#p1452a37323)" d="M 375.484086 279 
L 378.082451 279 
L 378.082451 279 
L 375.484086 279 
z
" style="opacity:0.4;"/>
   </g>
   <g id="patch_101">
    <path clip-path="url(#p1452a37323)" d="M 378.082451 279 
L 380.680816 279 
L 380.680816 279 
L 378.082451 279 
z
" style="opacity:0.4;"/>
   </g>
   <g id="patch_102">
    <path clip-path="url(#p1452a37323)" d="M 380.680816 279 
L 383.279181 279 
L 383.279181 266.057143 
L 380.680816 266.057143 
z
" style="opacity:0.4;"/>
   </g>
   <g id="line2d_25">
    <path clip-path="url(#p1452a37323)" d="M 50.451847 278.937924 
L 60.038103 278.811091 
L 66.42894 278.597647 
L 72.819778 278.182529 
L 79.210615 277.423774 
L 82.406034 276.853674 
L 85.601453 276.114704 
L 88.796872 275.170241 
L 91.99229 273.979967 
L 95.187709 272.500802 
L 98.383128 270.688308 
L 101.578547 268.498592 
L 104.773965 265.890717 
L 107.969384 262.829594 
L 111.164803 259.289262 
L 114.360222 255.256402 
L 117.55564 250.733896 
L 120.751059 245.744139 
L 123.946478 240.331813 
L 127.141897 234.565775 
L 133.532734 222.371446 
L 139.923572 210.182447 
L 143.11899 204.486068 
L 146.314409 199.282722 
L 149.509828 194.73953 
L 152.705247 191.010145 
L 155.900665 188.226012 
L 159.096084 186.488502 
L 162.291503 185.862551 
L 165.486922 186.372374 
L 168.682341 187.999609 
L 171.877759 190.684096 
L 175.073178 194.327196 
L 178.268597 198.797396 
L 181.464016 203.937709 
L 184.659434 209.574253 
L 197.441109 233.511064 
L 200.636528 239.036127 
L 203.831947 244.121543 
L 207.027366 248.681524 
L 210.222784 252.655216 
L 213.418203 256.004985 
L 216.613622 258.713681 
L 219.809041 260.781314 
L 223.004459 262.221505 
L 226.199878 263.058093 
L 229.395297 263.322132 
L 232.590716 263.049479 
L 235.786134 262.279031 
L 238.981553 261.051616 
L 242.176972 259.409424 
L 245.372391 257.395849 
L 248.567809 255.055573 
L 251.763228 252.434717 
L 254.958647 249.580913 
L 261.349484 243.371784 
L 274.131159 230.358604 
L 277.326578 227.267974 
L 280.521997 224.333667 
L 283.717416 221.596956 
L 286.912834 219.096413 
L 290.108253 216.867948 
L 293.303672 214.944834 
L 296.499091 213.357624 
L 299.694509 212.133869 
L 302.889928 211.297596 
L 306.085347 210.86854 
L 309.280766 210.861169 
L 312.476184 211.283621 
L 315.671603 212.136663 
L 318.867022 213.412825 
L 322.062441 215.095851 
L 325.257859 217.160572 
L 328.453278 219.573265 
L 331.648697 222.292528 
L 334.844116 225.270603 
L 341.234953 231.790815 
L 357.212047 248.865276 
L 360.407466 252.03706 
L 363.602885 255.046988 
L 366.798303 257.873499 
L 369.993722 260.5014 
L 373.189141 262.921352 
L 376.38456 265.129232 
L 379.579978 267.125432 
L 382.775397 268.914132 
L 385.970816 270.502613 
L 389.166235 271.900612 
L 392.361653 273.119739 
L 395.557072 274.172954 
L 398.752491 275.074107 
L 401.94791 275.837526 
L 408.338747 277.00874 
L 414.729585 277.798142 
L 421.120422 278.306359 
L 427.51126 278.617935 
L 437.097516 278.856305 
L 453.07461 278.957605 
L 456.270028 278.952257 
L 456.270028 278.952257 
" style="fill:none;stroke:#000000;stroke-linecap:round;stroke-width:1.5;"/>
   </g>
   <g id="patch_103">
    <path d="M 30.160937 279 
L 30.160937 7.2 
" style="fill:none;stroke:#cccccc;stroke-linecap:square;stroke-linejoin:miter;"/>
   </g>
   <g id="patch_104">
    <path d="M 476.560937 279 
L 476.560937 7.2 
" style="fill:none;stroke:#cccccc;stroke-linecap:square;stroke-linejoin:miter;"/>
   </g>
   <g id="patch_105">
    <path d="M 30.160937 279 
L 476.560938 279 
" style="fill:none;stroke:#cccccc;stroke-linecap:square;stroke-linejoin:miter;"/>
   </g>
   <g id="patch_106">
    <path d="M 30.160937 7.2 
L 476.560938 7.2 
" style="fill:none;stroke:#cccccc;stroke-linecap:square;stroke-linejoin:miter;"/>
   </g>
  </g>
 </g>
 <defs>
  <clipPath id="p1452a37323">
   <rect height="271.8" width="446.4" x="30.160937" y="7.2"/>
  </clipPath>
 </defs>
</svg>
