<?xml version="1.0" encoding="utf-8" standalone="no"?>
<!DOCTYPE svg PUBLIC "-//W3C//DTD SVG 1.1//EN"
  "http://www.w3.org/Graphics/SVG/1.1/DTD/svg11.dtd">
<!-- Created with matplotlib (https://matplotlib.org/) -->
<svg height="298.845312pt" version="1.1" viewBox="0 0 478.2 298.845312" width="478.2pt" xmlns="http://www.w3.org/2000/svg" xmlns:xlink="http://www.w3.org/1999/xlink">
 <defs>
  <style type="text/css">
*{stroke-linecap:butt;stroke-linejoin:round;}
  </style>
 </defs>
 <g id="figure_1">
  <g id="patch_1">
   <path d="M 0 298.845312 
L 478.2 298.845312 
L 478.2 0 
L 0 0 
z
" style="fill:#ffffff;"/>
  </g>
  <g id="axes_1">
   <g id="patch_2">
    <path d="M 24.6 130.745455 
L 471 130.745455 
L 471 7.2 
L 24.6 7.2 
z
" style="fill:#ffffff;"/>
   </g>
   <g id="matplotlib.axis_1">
    <g id="xtick_1">
     <g id="line2d_1">
      <path clip-path="url(#p80e5664d4f)" d="M 38.55 130.745455 
L 38.55 7.2 
" style="fill:none;stroke:#cccccc;stroke-linecap:round;stroke-width:0.8;"/>
     </g>
     <g id="line2d_2"/>
     <g id="text_1">
      <!-- a -->
      <defs>
       <path d="M 40.4375 6.390625 
Q 35.546875 2.25 31.03125 0.53125 
Q 26.515625 -1.171875 21.34375 -1.171875 
Q 12.796875 -1.171875 8.203125 3 
Q 3.609375 7.171875 3.609375 13.671875 
Q 3.609375 17.484375 5.34375 20.625 
Q 7.078125 23.78125 9.890625 25.6875 
Q 12.703125 27.59375 16.21875 28.5625 
Q 18.796875 29.25 24.03125 29.890625 
Q 34.671875 31.15625 39.703125 32.90625 
Q 39.75 34.71875 39.75 35.203125 
Q 39.75 40.578125 37.25 42.78125 
Q 33.890625 45.75 27.25 45.75 
Q 21.046875 45.75 18.09375 43.578125 
Q 15.140625 41.40625 13.71875 35.890625 
L 5.125 37.0625 
Q 6.296875 42.578125 8.984375 45.96875 
Q 11.671875 49.359375 16.75 51.1875 
Q 21.828125 53.03125 28.515625 53.03125 
Q 35.15625 53.03125 39.296875 51.46875 
Q 43.453125 49.90625 45.40625 47.53125 
Q 47.359375 45.171875 48.140625 41.546875 
Q 48.578125 39.3125 48.578125 33.453125 
L 48.578125 21.734375 
Q 48.578125 9.46875 49.140625 6.21875 
Q 49.703125 2.984375 51.375 0 
L 42.1875 0 
Q 40.828125 2.734375 40.4375 6.390625 
z
M 39.703125 26.03125 
Q 34.90625 24.078125 25.34375 22.703125 
Q 19.921875 21.921875 17.671875 20.9375 
Q 15.4375 19.96875 14.203125 18.09375 
Q 12.984375 16.21875 12.984375 13.921875 
Q 12.984375 10.40625 15.640625 8.0625 
Q 18.3125 5.71875 23.4375 5.71875 
Q 28.515625 5.71875 32.46875 7.9375 
Q 36.421875 10.15625 38.28125 14.015625 
Q 39.703125 17 39.703125 22.796875 
z
" id="ArialMT-97"/>
      </defs>
      <g style="fill:#262626;" transform="translate(41.135156 139.806392)rotate(-90)scale(0.1 -0.1)">
       <use xlink:href="#ArialMT-97"/>
      </g>
     </g>
    </g>
    <g id="xtick_2">
     <g id="line2d_3">
      <path clip-path="url(#p80e5664d4f)" d="M 66.45 130.745455 
L 66.45 7.2 
" style="fill:none;stroke:#cccccc;stroke-linecap:round;stroke-width:0.8;"/>
     </g>
     <g id="line2d_4"/>
     <g id="text_2">
      <!-- b -->
      <defs>
       <path d="M 14.703125 0 
L 6.546875 0 
L 6.546875 71.578125 
L 15.328125 71.578125 
L 15.328125 46.046875 
Q 20.90625 53.03125 29.546875 53.03125 
Q 34.328125 53.03125 38.59375 51.09375 
Q 42.875 49.171875 45.625 45.671875 
Q 48.390625 42.1875 49.953125 37.25 
Q 51.515625 32.328125 51.515625 26.703125 
Q 51.515625 13.375 44.921875 6.09375 
Q 38.328125 -1.171875 29.109375 -1.171875 
Q 19.921875 -1.171875 14.703125 6.5 
z
M 14.59375 26.3125 
Q 14.59375 17 17.140625 12.84375 
Q 21.296875 6.0625 28.375 6.0625 
Q 34.125 6.0625 38.328125 11.0625 
Q 42.53125 16.0625 42.53125 25.984375 
Q 42.53125 36.140625 38.5 40.96875 
Q 34.46875 45.796875 28.765625 45.796875 
Q 23 45.796875 18.796875 40.796875 
Q 14.59375 35.796875 14.59375 26.3125 
z
" id="ArialMT-98"/>
      </defs>
      <g style="fill:#262626;" transform="translate(69.035156 139.806392)rotate(-90)scale(0.1 -0.1)">
       <use xlink:href="#ArialMT-98"/>
      </g>
     </g>
    </g>
    <g id="xtick_3">
     <g id="line2d_5">
      <path clip-path="url(#p80e5664d4f)" d="M 94.35 130.745455 
L 94.35 7.2 
" style="fill:none;stroke:#cccccc;stroke-linecap:round;stroke-width:0.8;"/>
     </g>
     <g id="line2d_6"/>
     <g id="text_3">
      <!-- c -->
      <defs>
       <path d="M 40.4375 19 
L 49.078125 17.875 
Q 47.65625 8.9375 41.8125 3.875 
Q 35.984375 -1.171875 27.484375 -1.171875 
Q 16.84375 -1.171875 10.375 5.78125 
Q 3.90625 12.75 3.90625 25.734375 
Q 3.90625 34.125 6.6875 40.421875 
Q 9.46875 46.734375 15.15625 49.875 
Q 20.84375 53.03125 27.546875 53.03125 
Q 35.984375 53.03125 41.359375 48.75 
Q 46.734375 44.484375 48.25 36.625 
L 39.703125 35.296875 
Q 38.484375 40.53125 35.375 43.15625 
Q 32.28125 45.796875 27.875 45.796875 
Q 21.234375 45.796875 17.078125 41.03125 
Q 12.9375 36.28125 12.9375 25.984375 
Q 12.9375 15.53125 16.9375 10.796875 
Q 20.953125 6.0625 27.390625 6.0625 
Q 32.5625 6.0625 36.03125 9.234375 
Q 39.5 12.40625 40.4375 19 
z
" id="ArialMT-99"/>
      </defs>
      <g style="fill:#262626;" transform="translate(96.935156 139.245455)rotate(-90)scale(0.1 -0.1)">
       <use xlink:href="#ArialMT-99"/>
      </g>
     </g>
    </g>
    <g id="xtick_4">
     <g id="line2d_7">
      <path clip-path="url(#p80e5664d4f)" d="M 122.25 130.745455 
L 122.25 7.2 
" style="fill:none;stroke:#cccccc;stroke-linecap:round;stroke-width:0.8;"/>
     </g>
     <g id="line2d_8"/>
     <g id="text_4">
      <!-- d -->
      <defs>
       <path d="M 40.234375 0 
L 40.234375 6.546875 
Q 35.296875 -1.171875 25.734375 -1.171875 
Q 19.53125 -1.171875 14.328125 2.25 
Q 9.125 5.671875 6.265625 11.796875 
Q 3.421875 17.921875 3.421875 25.875 
Q 3.421875 33.640625 6 39.96875 
Q 8.59375 46.296875 13.765625 49.65625 
Q 18.953125 53.03125 25.34375 53.03125 
Q 30.03125 53.03125 33.6875 51.046875 
Q 37.359375 49.078125 39.65625 45.90625 
L 39.65625 71.578125 
L 48.390625 71.578125 
L 48.390625 0 
z
M 12.453125 25.875 
Q 12.453125 15.921875 16.640625 10.984375 
Q 20.84375 6.0625 26.5625 6.0625 
Q 32.328125 6.0625 36.34375 10.765625 
Q 40.375 15.484375 40.375 25.140625 
Q 40.375 35.796875 36.265625 40.765625 
Q 32.171875 45.75 26.171875 45.75 
Q 20.3125 45.75 16.375 40.96875 
Q 12.453125 36.1875 12.453125 25.875 
z
" id="ArialMT-100"/>
      </defs>
      <g style="fill:#262626;" transform="translate(124.835156 139.806392)rotate(-90)scale(0.1 -0.1)">
       <use xlink:href="#ArialMT-100"/>
      </g>
     </g>
    </g>
    <g id="xtick_5">
     <g id="line2d_9">
      <path clip-path="url(#p80e5664d4f)" d="M 150.15 130.745455 
L 150.15 7.2 
" style="fill:none;stroke:#cccccc;stroke-linecap:round;stroke-width:0.8;"/>
     </g>
     <g id="line2d_10"/>
     <g id="text_5">
      <!-- e -->
      <defs>
       <path d="M 42.09375 16.703125 
L 51.171875 15.578125 
Q 49.03125 7.625 43.21875 3.21875 
Q 37.40625 -1.171875 28.375 -1.171875 
Q 17 -1.171875 10.328125 5.828125 
Q 3.65625 12.84375 3.65625 25.484375 
Q 3.65625 38.578125 10.390625 45.796875 
Q 17.140625 53.03125 27.875 53.03125 
Q 38.28125 53.03125 44.875 45.953125 
Q 51.46875 38.875 51.46875 26.03125 
Q 51.46875 25.25 51.421875 23.6875 
L 12.75 23.6875 
Q 13.234375 15.140625 17.578125 10.59375 
Q 21.921875 6.0625 28.421875 6.0625 
Q 33.25 6.0625 36.671875 8.59375 
Q 40.09375 11.140625 42.09375 16.703125 
z
M 13.234375 30.90625 
L 42.1875 30.90625 
Q 41.609375 37.453125 38.875 40.71875 
Q 34.671875 45.796875 27.984375 45.796875 
Q 21.921875 45.796875 17.796875 41.75 
Q 13.671875 37.703125 13.234375 30.90625 
z
" id="ArialMT-101"/>
      </defs>
      <g style="fill:#262626;" transform="translate(152.735156 139.806392)rotate(-90)scale(0.1 -0.1)">
       <use xlink:href="#ArialMT-101"/>
      </g>
     </g>
    </g>
    <g id="xtick_6">
     <g id="line2d_11">
      <path clip-path="url(#p80e5664d4f)" d="M 178.05 130.745455 
L 178.05 7.2 
" style="fill:none;stroke:#cccccc;stroke-linecap:round;stroke-width:0.8;"/>
     </g>
     <g id="line2d_12"/>
     <g id="text_6">
      <!-- f -->
      <defs>
       <path d="M 8.6875 0 
L 8.6875 45.015625 
L 0.921875 45.015625 
L 0.921875 51.859375 
L 8.6875 51.859375 
L 8.6875 57.375 
Q 8.6875 62.59375 9.625 65.140625 
Q 10.890625 68.5625 14.078125 70.671875 
Q 17.28125 72.796875 23.046875 72.796875 
Q 26.765625 72.796875 31.25 71.921875 
L 29.9375 64.265625 
Q 27.203125 64.75 24.75 64.75 
Q 20.75 64.75 19.09375 63.03125 
Q 17.4375 61.328125 17.4375 56.640625 
L 17.4375 51.859375 
L 27.546875 51.859375 
L 27.546875 45.015625 
L 17.4375 45.015625 
L 17.4375 0 
z
" id="ArialMT-102"/>
      </defs>
      <g style="fill:#262626;" transform="translate(180.635156 137.02358)rotate(-90)scale(0.1 -0.1)">
       <use xlink:href="#ArialMT-102"/>
      </g>
     </g>
    </g>
    <g id="xtick_7">
     <g id="line2d_13">
      <path clip-path="url(#p80e5664d4f)" d="M 205.95 130.745455 
L 205.95 7.2 
" style="fill:none;stroke:#cccccc;stroke-linecap:round;stroke-width:0.8;"/>
     </g>
     <g id="line2d_14"/>
     <g id="text_7">
      <!-- g -->
      <defs>
       <path d="M 4.984375 -4.296875 
L 13.53125 -5.5625 
Q 14.0625 -9.515625 16.5 -11.328125 
Q 19.78125 -13.765625 25.4375 -13.765625 
Q 31.546875 -13.765625 34.859375 -11.328125 
Q 38.1875 -8.890625 39.359375 -4.5 
Q 40.046875 -1.8125 39.984375 6.78125 
Q 34.234375 0 25.640625 0 
Q 14.9375 0 9.078125 7.71875 
Q 3.21875 15.4375 3.21875 26.21875 
Q 3.21875 33.640625 5.90625 39.90625 
Q 8.59375 46.1875 13.6875 49.609375 
Q 18.796875 53.03125 25.6875 53.03125 
Q 34.859375 53.03125 40.828125 45.609375 
L 40.828125 51.859375 
L 48.921875 51.859375 
L 48.921875 7.03125 
Q 48.921875 -5.078125 46.453125 -10.125 
Q 44 -15.1875 38.640625 -18.109375 
Q 33.296875 -21.046875 25.484375 -21.046875 
Q 16.21875 -21.046875 10.5 -16.875 
Q 4.78125 -12.703125 4.984375 -4.296875 
z
M 12.25 26.859375 
Q 12.25 16.65625 16.296875 11.96875 
Q 20.359375 7.28125 26.46875 7.28125 
Q 32.515625 7.28125 36.609375 11.9375 
Q 40.71875 16.609375 40.71875 26.5625 
Q 40.71875 36.078125 36.5 40.90625 
Q 32.28125 45.75 26.3125 45.75 
Q 20.453125 45.75 16.34375 40.984375 
Q 12.25 36.234375 12.25 26.859375 
z
" id="ArialMT-103"/>
      </defs>
      <g style="fill:#262626;" transform="translate(208.417969 139.806392)rotate(-90)scale(0.1 -0.1)">
       <use xlink:href="#ArialMT-103"/>
      </g>
     </g>
    </g>
    <g id="xtick_8">
     <g id="line2d_15">
      <path clip-path="url(#p80e5664d4f)" d="M 233.85 130.745455 
L 233.85 7.2 
" style="fill:none;stroke:#cccccc;stroke-linecap:round;stroke-width:0.8;"/>
     </g>
     <g id="line2d_16"/>
     <g id="text_8">
      <!-- h -->
      <defs>
       <path d="M 6.59375 0 
L 6.59375 71.578125 
L 15.375 71.578125 
L 15.375 45.90625 
Q 21.53125 53.03125 30.90625 53.03125 
Q 36.671875 53.03125 40.921875 50.75 
Q 45.171875 48.484375 47 44.484375 
Q 48.828125 40.484375 48.828125 32.859375 
L 48.828125 0 
L 40.046875 0 
L 40.046875 32.859375 
Q 40.046875 39.453125 37.1875 42.453125 
Q 34.328125 45.453125 29.109375 45.453125 
Q 25.203125 45.453125 21.75 43.421875 
Q 18.3125 41.40625 16.84375 37.9375 
Q 15.375 34.46875 15.375 28.375 
L 15.375 0 
z
" id="ArialMT-104"/>
      </defs>
      <g style="fill:#262626;" transform="translate(236.435156 139.806392)rotate(-90)scale(0.1 -0.1)">
       <use xlink:href="#ArialMT-104"/>
      </g>
     </g>
    </g>
    <g id="xtick_9">
     <g id="line2d_17">
      <path clip-path="url(#p80e5664d4f)" d="M 261.75 130.745455 
L 261.75 7.2 
" style="fill:none;stroke:#cccccc;stroke-linecap:round;stroke-width:0.8;"/>
     </g>
     <g id="line2d_18"/>
     <g id="text_9">
      <!-- i -->
      <defs>
       <path d="M 6.640625 61.46875 
L 6.640625 71.578125 
L 15.4375 71.578125 
L 15.4375 61.46875 
z
M 6.640625 0 
L 6.640625 51.859375 
L 15.4375 51.859375 
L 15.4375 0 
z
" id="ArialMT-105"/>
      </defs>
      <g style="fill:#262626;" transform="translate(264.335156 136.46733)rotate(-90)scale(0.1 -0.1)">
       <use xlink:href="#ArialMT-105"/>
      </g>
     </g>
    </g>
    <g id="xtick_10">
     <g id="line2d_19">
      <path clip-path="url(#p80e5664d4f)" d="M 289.65 130.745455 
L 289.65 7.2 
" style="fill:none;stroke:#cccccc;stroke-linecap:round;stroke-width:0.8;"/>
     </g>
     <g id="line2d_20"/>
     <g id="text_10">
      <!-- j -->
      <defs>
       <path d="M 6.546875 61.375 
L 6.546875 71.578125 
L 15.328125 71.578125 
L 15.328125 61.375 
z
M -4.59375 -20.125 
L -2.9375 -12.640625 
Q -0.296875 -13.328125 1.21875 -13.328125 
Q 3.90625 -13.328125 5.21875 -11.546875 
Q 6.546875 -9.765625 6.546875 -2.640625 
L 6.546875 51.859375 
L 15.328125 51.859375 
L 15.328125 -2.828125 
Q 15.328125 -12.40625 12.84375 -16.15625 
Q 9.671875 -21.046875 2.296875 -21.046875 
Q -1.265625 -21.046875 -4.59375 -20.125 
z
" id="ArialMT-106"/>
      </defs>
      <g style="fill:#262626;" transform="translate(292.176562 136.46733)rotate(-90)scale(0.1 -0.1)">
       <use xlink:href="#ArialMT-106"/>
      </g>
     </g>
    </g>
    <g id="xtick_11">
     <g id="line2d_21">
      <path clip-path="url(#p80e5664d4f)" d="M 317.55 130.745455 
L 317.55 7.2 
" style="fill:none;stroke:#cccccc;stroke-linecap:round;stroke-width:0.8;"/>
     </g>
     <g id="line2d_22"/>
     <g id="text_11">
      <!-- k -->
      <defs>
       <path d="M 6.640625 0 
L 6.640625 71.578125 
L 15.4375 71.578125 
L 15.4375 30.765625 
L 36.234375 51.859375 
L 47.609375 51.859375 
L 27.78125 32.625 
L 49.609375 0 
L 38.765625 0 
L 21.625 26.515625 
L 15.4375 20.5625 
L 15.4375 0 
z
" id="ArialMT-107"/>
      </defs>
      <g style="fill:#262626;" transform="translate(320.135156 139.245455)rotate(-90)scale(0.1 -0.1)">
       <use xlink:href="#ArialMT-107"/>
      </g>
     </g>
    </g>
    <g id="xtick_12">
     <g id="line2d_23">
      <path clip-path="url(#p80e5664d4f)" d="M 345.45 130.745455 
L 345.45 7.2 
" style="fill:none;stroke:#cccccc;stroke-linecap:round;stroke-width:0.8;"/>
     </g>
     <g id="line2d_24"/>
     <g id="text_12">
      <!-- l -->
      <defs>
       <path d="M 6.390625 0 
L 6.390625 71.578125 
L 15.1875 71.578125 
L 15.1875 0 
z
" id="ArialMT-108"/>
      </defs>
      <g style="fill:#262626;" transform="translate(348.035156 136.46733)rotate(-90)scale(0.1 -0.1)">
       <use xlink:href="#ArialMT-108"/>
      </g>
     </g>
    </g>
    <g id="xtick_13">
     <g id="line2d_25">
      <path clip-path="url(#p80e5664d4f)" d="M 373.35 130.745455 
L 373.35 7.2 
" style="fill:none;stroke:#cccccc;stroke-linecap:round;stroke-width:0.8;"/>
     </g>
     <g id="line2d_26"/>
     <g id="text_13">
      <!-- m -->
      <defs>
       <path d="M 6.59375 0 
L 6.59375 51.859375 
L 14.453125 51.859375 
L 14.453125 44.578125 
Q 16.890625 48.390625 20.9375 50.703125 
Q 25 53.03125 30.171875 53.03125 
Q 35.9375 53.03125 39.625 50.640625 
Q 43.3125 48.25 44.828125 43.953125 
Q 50.984375 53.03125 60.84375 53.03125 
Q 68.5625 53.03125 72.703125 48.75 
Q 76.859375 44.484375 76.859375 35.59375 
L 76.859375 0 
L 68.109375 0 
L 68.109375 32.671875 
Q 68.109375 37.9375 67.25 40.25 
Q 66.40625 42.578125 64.15625 43.984375 
Q 61.921875 45.40625 58.890625 45.40625 
Q 53.421875 45.40625 49.796875 41.765625 
Q 46.1875 38.140625 46.1875 30.125 
L 46.1875 0 
L 37.40625 0 
L 37.40625 33.6875 
Q 37.40625 39.546875 35.25 42.46875 
Q 33.109375 45.40625 28.21875 45.40625 
Q 24.515625 45.40625 21.359375 43.453125 
Q 18.21875 41.5 16.796875 37.734375 
Q 15.375 33.984375 15.375 26.90625 
L 15.375 0 
z
" id="ArialMT-109"/>
      </defs>
      <g style="fill:#262626;" transform="translate(375.935156 142.575142)rotate(-90)scale(0.1 -0.1)">
       <use xlink:href="#ArialMT-109"/>
      </g>
     </g>
    </g>
    <g id="xtick_14">
     <g id="line2d_27">
      <path clip-path="url(#p80e5664d4f)" d="M 401.25 130.745455 
L 401.25 7.2 
" style="fill:none;stroke:#cccccc;stroke-linecap:round;stroke-width:0.8;"/>
     </g>
     <g id="line2d_28"/>
     <g id="text_14">
      <!-- n -->
      <defs>
       <path d="M 6.59375 0 
L 6.59375 51.859375 
L 14.5 51.859375 
L 14.5 44.484375 
Q 20.21875 53.03125 31 53.03125 
Q 35.6875 53.03125 39.625 51.34375 
Q 43.5625 49.65625 45.515625 46.921875 
Q 47.46875 44.1875 48.25 40.4375 
Q 48.734375 37.984375 48.734375 31.890625 
L 48.734375 0 
L 39.9375 0 
L 39.9375 31.546875 
Q 39.9375 36.921875 38.90625 39.578125 
Q 37.890625 42.234375 35.28125 43.8125 
Q 32.671875 45.40625 29.15625 45.40625 
Q 23.53125 45.40625 19.453125 41.84375 
Q 15.375 38.28125 15.375 28.328125 
L 15.375 0 
z
" id="ArialMT-110"/>
      </defs>
      <g style="fill:#262626;" transform="translate(403.835156 139.806392)rotate(-90)scale(0.1 -0.1)">
       <use xlink:href="#ArialMT-110"/>
      </g>
     </g>
    </g>
    <g id="xtick_15">
     <g id="line2d_29">
      <path clip-path="url(#p80e5664d4f)" d="M 429.15 130.745455 
L 429.15 7.2 
" style="fill:none;stroke:#cccccc;stroke-linecap:round;stroke-width:0.8;"/>
     </g>
     <g id="line2d_30"/>
     <g id="text_15">
      <!-- o -->
      <defs>
       <path d="M 3.328125 25.921875 
Q 3.328125 40.328125 11.328125 47.265625 
Q 18.015625 53.03125 27.640625 53.03125 
Q 38.328125 53.03125 45.109375 46.015625 
Q 51.90625 39.015625 51.90625 26.65625 
Q 51.90625 16.65625 48.90625 10.90625 
Q 45.90625 5.171875 40.15625 2 
Q 34.421875 -1.171875 27.640625 -1.171875 
Q 16.75 -1.171875 10.03125 5.8125 
Q 3.328125 12.796875 3.328125 25.921875 
z
M 12.359375 25.921875 
Q 12.359375 15.96875 16.703125 11.015625 
Q 21.046875 6.0625 27.640625 6.0625 
Q 34.1875 6.0625 38.53125 11.03125 
Q 42.875 16.015625 42.875 26.21875 
Q 42.875 35.84375 38.5 40.796875 
Q 34.125 45.75 27.640625 45.75 
Q 21.046875 45.75 16.703125 40.8125 
Q 12.359375 35.890625 12.359375 25.921875 
z
" id="ArialMT-111"/>
      </defs>
      <g style="fill:#262626;" transform="translate(431.735156 139.806392)rotate(-90)scale(0.1 -0.1)">
       <use xlink:href="#ArialMT-111"/>
      </g>
     </g>
    </g>
    <g id="xtick_16">
     <g id="line2d_31">
      <path clip-path="url(#p80e5664d4f)" d="M 457.05 130.745455 
L 457.05 7.2 
" style="fill:none;stroke:#cccccc;stroke-linecap:round;stroke-width:0.8;"/>
     </g>
     <g id="line2d_32"/>
     <g id="text_16">
      <!-- p -->
      <defs>
       <path d="M 6.59375 -19.875 
L 6.59375 51.859375 
L 14.59375 51.859375 
L 14.59375 45.125 
Q 17.4375 49.078125 21 51.046875 
Q 24.5625 53.03125 29.640625 53.03125 
Q 36.28125 53.03125 41.359375 49.609375 
Q 46.4375 46.1875 49.015625 39.953125 
Q 51.609375 33.734375 51.609375 26.3125 
Q 51.609375 18.359375 48.75 11.984375 
Q 45.90625 5.609375 40.453125 2.21875 
Q 35.015625 -1.171875 29 -1.171875 
Q 24.609375 -1.171875 21.109375 0.6875 
Q 17.625 2.546875 15.375 5.375 
L 15.375 -19.875 
z
M 14.546875 25.640625 
Q 14.546875 15.625 18.59375 10.84375 
Q 22.65625 6.0625 28.421875 6.0625 
Q 34.28125 6.0625 38.453125 11.015625 
Q 42.625 15.96875 42.625 26.375 
Q 42.625 36.28125 38.546875 41.203125 
Q 34.46875 46.140625 28.8125 46.140625 
Q 23.1875 46.140625 18.859375 40.890625 
Q 14.546875 35.640625 14.546875 25.640625 
z
" id="ArialMT-112"/>
      </defs>
      <g style="fill:#262626;" transform="translate(459.635156 139.806392)rotate(-90)scale(0.1 -0.1)">
       <use xlink:href="#ArialMT-112"/>
      </g>
     </g>
    </g>
   </g>
   <g id="matplotlib.axis_2">
    <g id="ytick_1">
     <g id="line2d_33">
      <path clip-path="url(#p80e5664d4f)" d="M 24.6 130.745455 
L 471 130.745455 
" style="fill:none;stroke:#cccccc;stroke-linecap:round;stroke-width:0.8;"/>
     </g>
     <g id="line2d_34"/>
     <g id="text_17">
      <!-- 0.0 -->
      <defs>
       <path d="M 4.15625 35.296875 
Q 4.15625 48 6.765625 55.734375 
Q 9.375 63.484375 14.515625 67.671875 
Q 19.671875 71.875 27.484375 71.875 
Q 33.25 71.875 37.59375 69.546875 
Q 41.9375 67.234375 44.765625 62.859375 
Q 47.609375 58.5 49.21875 52.21875 
Q 50.828125 45.953125 50.828125 35.296875 
Q 50.828125 22.703125 48.234375 14.96875 
Q 45.65625 7.234375 40.5 3 
Q 35.359375 -1.21875 27.484375 -1.21875 
Q 17.140625 -1.21875 11.234375 6.203125 
Q 4.15625 15.140625 4.15625 35.296875 
z
M 13.1875 35.296875 
Q 13.1875 17.671875 17.3125 11.828125 
Q 21.4375 6 27.484375 6 
Q 33.546875 6 37.671875 11.859375 
Q 41.796875 17.71875 41.796875 35.296875 
Q 41.796875 52.984375 37.671875 58.78125 
Q 33.546875 64.59375 27.390625 64.59375 
Q 21.34375 64.59375 17.71875 59.46875 
Q 13.1875 52.9375 13.1875 35.296875 
z
" id="ArialMT-48"/>
       <path d="M 9.078125 0 
L 9.078125 10.015625 
L 19.09375 10.015625 
L 19.09375 0 
z
" id="ArialMT-46"/>
      </defs>
      <g style="fill:#262626;" transform="translate(7.2 134.324361)scale(0.1 -0.1)">
       <use xlink:href="#ArialMT-48"/>
       <use x="55.615234" xlink:href="#ArialMT-46"/>
       <use x="83.398438" xlink:href="#ArialMT-48"/>
      </g>
     </g>
    </g>
    <g id="ytick_2">
     <g id="line2d_35">
      <path clip-path="url(#p80e5664d4f)" d="M 24.6 105.756913 
L 471 105.756913 
" style="fill:none;stroke:#cccccc;stroke-linecap:round;stroke-width:0.8;"/>
     </g>
     <g id="line2d_36"/>
     <g id="text_18">
      <!-- 0.2 -->
      <defs>
       <path d="M 50.34375 8.453125 
L 50.34375 0 
L 3.03125 0 
Q 2.9375 3.171875 4.046875 6.109375 
Q 5.859375 10.9375 9.828125 15.625 
Q 13.8125 20.3125 21.34375 26.46875 
Q 33.015625 36.03125 37.109375 41.625 
Q 41.21875 47.21875 41.21875 52.203125 
Q 41.21875 57.421875 37.46875 61 
Q 33.734375 64.59375 27.734375 64.59375 
Q 21.390625 64.59375 17.578125 60.78125 
Q 13.765625 56.984375 13.71875 50.25 
L 4.6875 51.171875 
Q 5.609375 61.28125 11.65625 66.578125 
Q 17.71875 71.875 27.9375 71.875 
Q 38.234375 71.875 44.234375 66.15625 
Q 50.25 60.453125 50.25 52 
Q 50.25 47.703125 48.484375 43.546875 
Q 46.734375 39.40625 42.65625 34.8125 
Q 38.578125 30.21875 29.109375 22.21875 
Q 21.1875 15.578125 18.9375 13.203125 
Q 16.703125 10.84375 15.234375 8.453125 
z
" id="ArialMT-50"/>
      </defs>
      <g style="fill:#262626;" transform="translate(7.2 109.335819)scale(0.1 -0.1)">
       <use xlink:href="#ArialMT-48"/>
       <use x="55.615234" xlink:href="#ArialMT-46"/>
       <use x="83.398438" xlink:href="#ArialMT-50"/>
      </g>
     </g>
    </g>
    <g id="ytick_3">
     <g id="line2d_37">
      <path clip-path="url(#p80e5664d4f)" d="M 24.6 80.768371 
L 471 80.768371 
" style="fill:none;stroke:#cccccc;stroke-linecap:round;stroke-width:0.8;"/>
     </g>
     <g id="line2d_38"/>
     <g id="text_19">
      <!-- 0.4 -->
      <defs>
       <path d="M 32.328125 0 
L 32.328125 17.140625 
L 1.265625 17.140625 
L 1.265625 25.203125 
L 33.9375 71.578125 
L 41.109375 71.578125 
L 41.109375 25.203125 
L 50.78125 25.203125 
L 50.78125 17.140625 
L 41.109375 17.140625 
L 41.109375 0 
z
M 32.328125 25.203125 
L 32.328125 57.46875 
L 9.90625 25.203125 
z
" id="ArialMT-52"/>
      </defs>
      <g style="fill:#262626;" transform="translate(7.2 84.347277)scale(0.1 -0.1)">
       <use xlink:href="#ArialMT-48"/>
       <use x="55.615234" xlink:href="#ArialMT-46"/>
       <use x="83.398438" xlink:href="#ArialMT-52"/>
      </g>
     </g>
    </g>
    <g id="ytick_4">
     <g id="line2d_39">
      <path clip-path="url(#p80e5664d4f)" d="M 24.6 55.779829 
L 471 55.779829 
" style="fill:none;stroke:#cccccc;stroke-linecap:round;stroke-width:0.8;"/>
     </g>
     <g id="line2d_40"/>
     <g id="text_20">
      <!-- 0.6 -->
      <defs>
       <path d="M 49.75 54.046875 
L 41.015625 53.375 
Q 39.84375 58.546875 37.703125 60.890625 
Q 34.125 64.65625 28.90625 64.65625 
Q 24.703125 64.65625 21.53125 62.3125 
Q 17.390625 59.28125 14.984375 53.46875 
Q 12.59375 47.65625 12.5 36.921875 
Q 15.671875 41.75 20.265625 44.09375 
Q 24.859375 46.4375 29.890625 46.4375 
Q 38.671875 46.4375 44.84375 39.96875 
Q 51.03125 33.5 51.03125 23.25 
Q 51.03125 16.5 48.125 10.71875 
Q 45.21875 4.9375 40.140625 1.859375 
Q 35.0625 -1.21875 28.609375 -1.21875 
Q 17.625 -1.21875 10.6875 6.859375 
Q 3.765625 14.9375 3.765625 33.5 
Q 3.765625 54.25 11.421875 63.671875 
Q 18.109375 71.875 29.4375 71.875 
Q 37.890625 71.875 43.28125 67.140625 
Q 48.6875 62.40625 49.75 54.046875 
z
M 13.875 23.1875 
Q 13.875 18.65625 15.796875 14.5 
Q 17.71875 10.359375 21.1875 8.171875 
Q 24.65625 6 28.46875 6 
Q 34.03125 6 38.03125 10.484375 
Q 42.046875 14.984375 42.046875 22.703125 
Q 42.046875 30.125 38.078125 34.390625 
Q 34.125 38.671875 28.125 38.671875 
Q 22.171875 38.671875 18.015625 34.390625 
Q 13.875 30.125 13.875 23.1875 
z
" id="ArialMT-54"/>
      </defs>
      <g style="fill:#262626;" transform="translate(7.2 59.358735)scale(0.1 -0.1)">
       <use xlink:href="#ArialMT-48"/>
       <use x="55.615234" xlink:href="#ArialMT-46"/>
       <use x="83.398438" xlink:href="#ArialMT-54"/>
      </g>
     </g>
    </g>
    <g id="ytick_5">
     <g id="line2d_41">
      <path clip-path="url(#p80e5664d4f)" d="M 24.6 30.791287 
L 471 30.791287 
" style="fill:none;stroke:#cccccc;stroke-linecap:round;stroke-width:0.8;"/>
     </g>
     <g id="line2d_42"/>
     <g id="text_21">
      <!-- 0.8 -->
      <defs>
       <path d="M 17.671875 38.8125 
Q 12.203125 40.828125 9.5625 44.53125 
Q 6.9375 48.25 6.9375 53.421875 
Q 6.9375 61.234375 12.546875 66.546875 
Q 18.171875 71.875 27.484375 71.875 
Q 36.859375 71.875 42.578125 66.421875 
Q 48.296875 60.984375 48.296875 53.171875 
Q 48.296875 48.1875 45.671875 44.5 
Q 43.0625 40.828125 37.75 38.8125 
Q 44.34375 36.671875 47.78125 31.875 
Q 51.21875 27.09375 51.21875 20.453125 
Q 51.21875 11.28125 44.71875 5.03125 
Q 38.234375 -1.21875 27.640625 -1.21875 
Q 17.046875 -1.21875 10.546875 5.046875 
Q 4.046875 11.328125 4.046875 20.703125 
Q 4.046875 27.6875 7.59375 32.390625 
Q 11.140625 37.109375 17.671875 38.8125 
z
M 15.921875 53.71875 
Q 15.921875 48.640625 19.1875 45.40625 
Q 22.46875 42.1875 27.6875 42.1875 
Q 32.765625 42.1875 36.015625 45.375 
Q 39.265625 48.578125 39.265625 53.21875 
Q 39.265625 58.0625 35.90625 61.359375 
Q 32.5625 64.65625 27.59375 64.65625 
Q 22.5625 64.65625 19.234375 61.421875 
Q 15.921875 58.203125 15.921875 53.71875 
z
M 13.09375 20.65625 
Q 13.09375 16.890625 14.875 13.375 
Q 16.65625 9.859375 20.171875 7.921875 
Q 23.6875 6 27.734375 6 
Q 34.03125 6 38.125 10.046875 
Q 42.234375 14.109375 42.234375 20.359375 
Q 42.234375 26.703125 38.015625 30.859375 
Q 33.796875 35.015625 27.4375 35.015625 
Q 21.234375 35.015625 17.15625 30.90625 
Q 13.09375 26.8125 13.09375 20.65625 
z
" id="ArialMT-56"/>
      </defs>
      <g style="fill:#262626;" transform="translate(7.2 34.370193)scale(0.1 -0.1)">
       <use xlink:href="#ArialMT-48"/>
       <use x="55.615234" xlink:href="#ArialMT-46"/>
       <use x="83.398438" xlink:href="#ArialMT-56"/>
      </g>
     </g>
    </g>
   </g>
   <g id="patch_3">
    <path clip-path="url(#p80e5664d4f)" d="M 31.575 130.745455 
L 45.525 130.745455 
L 45.525 127.050567 
L 31.575 127.050567 
z
" style="opacity:0.7;"/>
   </g>
   <g id="patch_4">
    <path clip-path="url(#p80e5664d4f)" d="M 59.475 130.745455 
L 73.425 130.745455 
L 73.425 87.761907 
L 59.475 87.761907 
z
" style="opacity:0.7;"/>
   </g>
   <g id="patch_5">
    <path clip-path="url(#p80e5664d4f)" d="M 87.375 130.745455 
L 101.325 130.745455 
L 101.325 98.063085 
L 87.375 98.063085 
z
" style="opacity:0.7;"/>
   </g>
   <g id="patch_6">
    <path clip-path="url(#p80e5664d4f)" d="M 115.275 130.745455 
L 129.225 130.745455 
L 129.225 82.009168 
L 115.275 82.009168 
z
" style="opacity:0.7;"/>
   </g>
   <g id="patch_7">
    <path clip-path="url(#p80e5664d4f)" d="M 143.175 130.745455 
L 157.125 130.745455 
L 157.125 93.151022 
L 143.175 93.151022 
z
" style="opacity:0.7;"/>
   </g>
   <g id="patch_8">
    <path clip-path="url(#p80e5664d4f)" d="M 171.075 130.745455 
L 185.025 130.745455 
L 185.025 110.787131 
L 171.075 110.787131 
z
" style="opacity:0.7;"/>
   </g>
   <g id="patch_9">
    <path clip-path="url(#p80e5664d4f)" d="M 198.975 130.745455 
L 212.925 130.745455 
L 212.925 13.083117 
L 198.975 13.083117 
z
" style="opacity:0.7;"/>
   </g>
   <g id="patch_10">
    <path clip-path="url(#p80e5664d4f)" d="M 226.875 130.745455 
L 240.825 130.745455 
L 240.825 77.110194 
L 226.875 77.110194 
z
" style="opacity:0.7;"/>
   </g>
   <g id="patch_11">
    <path clip-path="url(#p80e5664d4f)" d="M 254.775 130.745455 
L 268.725 130.745455 
L 268.725 51.056656 
L 254.775 51.056656 
z
" style="opacity:0.7;"/>
   </g>
   <g id="patch_12">
    <path clip-path="url(#p80e5664d4f)" d="M 282.675 130.745455 
L 296.625 130.745455 
L 296.625 14.953407 
L 282.675 14.953407 
z
" style="opacity:0.7;"/>
   </g>
   <g id="patch_13">
    <path clip-path="url(#p80e5664d4f)" d="M 310.575 130.745455 
L 324.525 130.745455 
L 324.525 59.219025 
L 310.575 59.219025 
z
" style="opacity:0.7;"/>
   </g>
   <g id="patch_14">
    <path clip-path="url(#p80e5664d4f)" d="M 338.475 130.745455 
L 352.425 130.745455 
L 352.425 114.877835 
L 338.475 114.877835 
z
" style="opacity:0.7;"/>
   </g>
   <g id="patch_15">
    <path clip-path="url(#p80e5664d4f)" d="M 366.375 130.745455 
L 380.325 130.745455 
L 380.325 32.217963 
L 366.375 32.217963 
z
" style="opacity:0.7;"/>
   </g>
   <g id="patch_16">
    <path clip-path="url(#p80e5664d4f)" d="M 394.275 130.745455 
L 408.225 130.745455 
L 408.225 33.956826 
L 394.275 33.956826 
z
" style="opacity:0.7;"/>
   </g>
   <g id="patch_17">
    <path clip-path="url(#p80e5664d4f)" d="M 422.175 130.745455 
L 436.125 130.745455 
L 436.125 80.192417 
L 422.175 80.192417 
z
" style="opacity:0.7;"/>
   </g>
   <g id="patch_18">
    <path clip-path="url(#p80e5664d4f)" d="M 450.075 130.745455 
L 464.025 130.745455 
L 464.025 63.352154 
L 450.075 63.352154 
z
" style="opacity:0.7;"/>
   </g>
   <g id="patch_19">
    <path d="M 24.6 130.745455 
L 24.6 7.2 
" style="fill:none;stroke:#cccccc;stroke-linecap:square;stroke-linejoin:miter;"/>
   </g>
   <g id="patch_20">
    <path d="M 471 130.745455 
L 471 7.2 
" style="fill:none;stroke:#cccccc;stroke-linecap:square;stroke-linejoin:miter;"/>
   </g>
   <g id="patch_21">
    <path d="M 24.6 130.745455 
L 471 130.745455 
" style="fill:none;stroke:#cccccc;stroke-linecap:square;stroke-linejoin:miter;"/>
   </g>
   <g id="patch_22">
    <path d="M 24.6 7.2 
L 471 7.2 
" style="fill:none;stroke:#cccccc;stroke-linecap:square;stroke-linejoin:miter;"/>
   </g>
  </g>
  <g id="axes_2">
   <g id="patch_23">
    <path d="M 24.6 279 
L 471 279 
L 471 155.454545 
L 24.6 155.454545 
z
" style="fill:#ffffff;"/>
   </g>
   <g id="matplotlib.axis_3">
    <g id="xtick_17">
     <g id="line2d_43">
      <path clip-path="url(#p87972c29c0)" d="M 24.6 279 
L 24.6 155.454545 
" style="fill:none;stroke:#cccccc;stroke-linecap:round;stroke-width:0.8;"/>
     </g>
     <g id="line2d_44"/>
     <g id="text_22">
      <!-- 0.0 -->
      <g style="fill:#262626;" transform="translate(17.65 289.657812)scale(0.1 -0.1)">
       <use xlink:href="#ArialMT-48"/>
       <use x="55.615234" xlink:href="#ArialMT-46"/>
       <use x="83.398438" xlink:href="#ArialMT-48"/>
      </g>
     </g>
    </g>
    <g id="xtick_18">
     <g id="line2d_45">
      <path clip-path="url(#p87972c29c0)" d="M 114.889725 279 
L 114.889725 155.454545 
" style="fill:none;stroke:#cccccc;stroke-linecap:round;stroke-width:0.8;"/>
     </g>
     <g id="line2d_46"/>
     <g id="text_23">
      <!-- 0.2 -->
      <g style="fill:#262626;" transform="translate(107.939725 289.657812)scale(0.1 -0.1)">
       <use xlink:href="#ArialMT-48"/>
       <use x="55.615234" xlink:href="#ArialMT-46"/>
       <use x="83.398438" xlink:href="#ArialMT-50"/>
      </g>
     </g>
    </g>
    <g id="xtick_19">
     <g id="line2d_47">
      <path clip-path="url(#p87972c29c0)" d="M 205.17945 279 
L 205.17945 155.454545 
" style="fill:none;stroke:#cccccc;stroke-linecap:round;stroke-width:0.8;"/>
     </g>
     <g id="line2d_48"/>
     <g id="text_24">
      <!-- 0.4 -->
      <g style="fill:#262626;" transform="translate(198.22945 289.657812)scale(0.1 -0.1)">
       <use xlink:href="#ArialMT-48"/>
       <use x="55.615234" xlink:href="#ArialMT-46"/>
       <use x="83.398438" xlink:href="#ArialMT-52"/>
      </g>
     </g>
    </g>
    <g id="xtick_20">
     <g id="line2d_49">
      <path clip-path="url(#p87972c29c0)" d="M 295.469175 279 
L 295.469175 155.454545 
" style="fill:none;stroke:#cccccc;stroke-linecap:round;stroke-width:0.8;"/>
     </g>
     <g id="line2d_50"/>
     <g id="text_25">
      <!-- 0.6 -->
      <g style="fill:#262626;" transform="translate(288.519175 289.657812)scale(0.1 -0.1)">
       <use xlink:href="#ArialMT-48"/>
       <use x="55.615234" xlink:href="#ArialMT-46"/>
       <use x="83.398438" xlink:href="#ArialMT-54"/>
      </g>
     </g>
    </g>
    <g id="xtick_21">
     <g id="line2d_51">
      <path clip-path="url(#p87972c29c0)" d="M 385.7589 279 
L 385.7589 155.454545 
" style="fill:none;stroke:#cccccc;stroke-linecap:round;stroke-width:0.8;"/>
     </g>
     <g id="line2d_52"/>
     <g id="text_26">
      <!-- 0.8 -->
      <g style="fill:#262626;" transform="translate(378.8089 289.657812)scale(0.1 -0.1)">
       <use xlink:href="#ArialMT-48"/>
       <use x="55.615234" xlink:href="#ArialMT-46"/>
       <use x="83.398438" xlink:href="#ArialMT-56"/>
      </g>
     </g>
    </g>
   </g>
   <g id="matplotlib.axis_4">
    <g id="ytick_6">
     <g id="line2d_53">
      <path clip-path="url(#p87972c29c0)" d="M 24.6 275.139205 
L 471 275.139205 
" style="fill:none;stroke:#cccccc;stroke-linecap:round;stroke-width:0.8;"/>
     </g>
     <g id="line2d_54"/>
     <g id="text_27">
      <!-- a -->
      <g style="fill:#262626;" transform="translate(15.539062 278.718111)scale(0.1 -0.1)">
       <use xlink:href="#ArialMT-97"/>
      </g>
     </g>
    </g>
    <g id="ytick_7">
     <g id="line2d_55">
      <path clip-path="url(#p87972c29c0)" d="M 24.6 267.417614 
L 471 267.417614 
" style="fill:none;stroke:#cccccc;stroke-linecap:round;stroke-width:0.8;"/>
     </g>
     <g id="line2d_56"/>
     <g id="text_28">
      <!-- b -->
      <g style="fill:#262626;" transform="translate(15.539062 270.99652)scale(0.1 -0.1)">
       <use xlink:href="#ArialMT-98"/>
      </g>
     </g>
    </g>
    <g id="ytick_8">
     <g id="line2d_57">
      <path clip-path="url(#p87972c29c0)" d="M 24.6 259.696023 
L 471 259.696023 
" style="fill:none;stroke:#cccccc;stroke-linecap:round;stroke-width:0.8;"/>
     </g>
     <g id="line2d_58"/>
     <g id="text_29">
      <!-- c -->
      <g style="fill:#262626;" transform="translate(16.1 263.274929)scale(0.1 -0.1)">
       <use xlink:href="#ArialMT-99"/>
      </g>
     </g>
    </g>
    <g id="ytick_9">
     <g id="line2d_59">
      <path clip-path="url(#p87972c29c0)" d="M 24.6 251.974432 
L 471 251.974432 
" style="fill:none;stroke:#cccccc;stroke-linecap:round;stroke-width:0.8;"/>
     </g>
     <g id="line2d_60"/>
     <g id="text_30">
      <!-- d -->
      <g style="fill:#262626;" transform="translate(15.539062 255.553338)scale(0.1 -0.1)">
       <use xlink:href="#ArialMT-100"/>
      </g>
     </g>
    </g>
    <g id="ytick_10">
     <g id="line2d_61">
      <path clip-path="url(#p87972c29c0)" d="M 24.6 244.252841 
L 471 244.252841 
" style="fill:none;stroke:#cccccc;stroke-linecap:round;stroke-width:0.8;"/>
     </g>
     <g id="line2d_62"/>
     <g id="text_31">
      <!-- e -->
      <g style="fill:#262626;" transform="translate(15.539062 247.831747)scale(0.1 -0.1)">
       <use xlink:href="#ArialMT-101"/>
      </g>
     </g>
    </g>
    <g id="ytick_11">
     <g id="line2d_63">
      <path clip-path="url(#p87972c29c0)" d="M 24.6 236.53125 
L 471 236.53125 
" style="fill:none;stroke:#cccccc;stroke-linecap:round;stroke-width:0.8;"/>
     </g>
     <g id="line2d_64"/>
     <g id="text_32">
      <!-- f -->
      <g style="fill:#262626;" transform="translate(18.321875 240.110156)scale(0.1 -0.1)">
       <use xlink:href="#ArialMT-102"/>
      </g>
     </g>
    </g>
    <g id="ytick_12">
     <g id="line2d_65">
      <path clip-path="url(#p87972c29c0)" d="M 24.6 228.809659 
L 471 228.809659 
" style="fill:none;stroke:#cccccc;stroke-linecap:round;stroke-width:0.8;"/>
     </g>
     <g id="line2d_66"/>
     <g id="text_33">
      <!-- g -->
      <g style="fill:#262626;" transform="translate(15.539062 232.329972)scale(0.1 -0.1)">
       <use xlink:href="#ArialMT-103"/>
      </g>
     </g>
    </g>
    <g id="ytick_13">
     <g id="line2d_67">
      <path clip-path="url(#p87972c29c0)" d="M 24.6 221.088068 
L 471 221.088068 
" style="fill:none;stroke:#cccccc;stroke-linecap:round;stroke-width:0.8;"/>
     </g>
     <g id="line2d_68"/>
     <g id="text_34">
      <!-- h -->
      <g style="fill:#262626;" transform="translate(15.539062 224.666974)scale(0.1 -0.1)">
       <use xlink:href="#ArialMT-104"/>
      </g>
     </g>
    </g>
    <g id="ytick_14">
     <g id="line2d_69">
      <path clip-path="url(#p87972c29c0)" d="M 24.6 213.366477 
L 471 213.366477 
" style="fill:none;stroke:#cccccc;stroke-linecap:round;stroke-width:0.8;"/>
     </g>
     <g id="line2d_70"/>
     <g id="text_35">
      <!-- i -->
      <g style="fill:#262626;" transform="translate(18.878125 216.945384)scale(0.1 -0.1)">
       <use xlink:href="#ArialMT-105"/>
      </g>
     </g>
    </g>
    <g id="ytick_15">
     <g id="line2d_71">
      <path clip-path="url(#p87972c29c0)" d="M 24.6 205.644886 
L 471 205.644886 
" style="fill:none;stroke:#cccccc;stroke-linecap:round;stroke-width:0.8;"/>
     </g>
     <g id="line2d_72"/>
     <g id="text_36">
      <!-- j -->
      <g style="fill:#262626;" transform="translate(18.878125 209.223793)scale(0.1 -0.1)">
       <use xlink:href="#ArialMT-106"/>
      </g>
     </g>
    </g>
    <g id="ytick_16">
     <g id="line2d_73">
      <path clip-path="url(#p87972c29c0)" d="M 24.6 197.923295 
L 471 197.923295 
" style="fill:none;stroke:#cccccc;stroke-linecap:round;stroke-width:0.8;"/>
     </g>
     <g id="line2d_74"/>
     <g id="text_37">
      <!-- k -->
      <g style="fill:#262626;" transform="translate(16.1 201.502202)scale(0.1 -0.1)">
       <use xlink:href="#ArialMT-107"/>
      </g>
     </g>
    </g>
    <g id="ytick_17">
     <g id="line2d_75">
      <path clip-path="url(#p87972c29c0)" d="M 24.6 190.201705 
L 471 190.201705 
" style="fill:none;stroke:#cccccc;stroke-linecap:round;stroke-width:0.8;"/>
     </g>
     <g id="line2d_76"/>
     <g id="text_38">
      <!-- l -->
      <g style="fill:#262626;" transform="translate(18.878125 193.780611)scale(0.1 -0.1)">
       <use xlink:href="#ArialMT-108"/>
      </g>
     </g>
    </g>
    <g id="ytick_18">
     <g id="line2d_77">
      <path clip-path="url(#p87972c29c0)" d="M 24.6 182.480114 
L 471 182.480114 
" style="fill:none;stroke:#cccccc;stroke-linecap:round;stroke-width:0.8;"/>
     </g>
     <g id="line2d_78"/>
     <g id="text_39">
      <!-- m -->
      <g style="fill:#262626;" transform="translate(12.770313 186.05902)scale(0.1 -0.1)">
       <use xlink:href="#ArialMT-109"/>
      </g>
     </g>
    </g>
    <g id="ytick_19">
     <g id="line2d_79">
      <path clip-path="url(#p87972c29c0)" d="M 24.6 174.758523 
L 471 174.758523 
" style="fill:none;stroke:#cccccc;stroke-linecap:round;stroke-width:0.8;"/>
     </g>
     <g id="line2d_80"/>
     <g id="text_40">
      <!-- n -->
      <g style="fill:#262626;" transform="translate(15.539062 178.337429)scale(0.1 -0.1)">
       <use xlink:href="#ArialMT-110"/>
      </g>
     </g>
    </g>
    <g id="ytick_20">
     <g id="line2d_81">
      <path clip-path="url(#p87972c29c0)" d="M 24.6 167.036932 
L 471 167.036932 
" style="fill:none;stroke:#cccccc;stroke-linecap:round;stroke-width:0.8;"/>
     </g>
     <g id="line2d_82"/>
     <g id="text_41">
      <!-- o -->
      <g style="fill:#262626;" transform="translate(15.539062 170.615838)scale(0.1 -0.1)">
       <use xlink:href="#ArialMT-111"/>
      </g>
     </g>
    </g>
    <g id="ytick_21">
     <g id="line2d_83">
      <path clip-path="url(#p87972c29c0)" d="M 24.6 159.315341 
L 471 159.315341 
" style="fill:none;stroke:#cccccc;stroke-linecap:round;stroke-width:0.8;"/>
     </g>
     <g id="line2d_84"/>
     <g id="text_42">
      <!-- p -->
      <g style="fill:#262626;" transform="translate(15.539062 162.894247)scale(0.1 -0.1)">
       <use xlink:href="#ArialMT-112"/>
      </g>
     </g>
    </g>
   </g>
   <g id="patch_24">
    <path clip-path="url(#p87972c29c0)" d="M 24.6 277.069602 
L 37.950536 277.069602 
L 37.950536 273.208807 
L 24.6 273.208807 
z
" style="opacity:0.7;"/>
   </g>
   <g id="patch_25">
    <path clip-path="url(#p87972c29c0)" d="M 24.6 269.348011 
L 179.910091 269.348011 
L 179.910091 265.487216 
L 24.6 265.487216 
z
" style="opacity:0.7;"/>
   </g>
   <g id="patch_26">
    <path clip-path="url(#p87972c29c0)" d="M 24.6 261.62642 
L 142.689411 261.62642 
L 142.689411 257.765625 
L 24.6 257.765625 
z
" style="opacity:0.7;"/>
   </g>
   <g id="patch_27">
    <path clip-path="url(#p87972c29c0)" d="M 24.6 253.90483 
L 200.696147 253.90483 
L 200.696147 250.044034 
L 24.6 250.044034 
z
" style="opacity:0.7;"/>
   </g>
   <g id="patch_28">
    <path clip-path="url(#p87972c29c0)" d="M 24.6 246.183239 
L 160.437898 246.183239 
L 160.437898 242.322443 
L 24.6 242.322443 
z
" style="opacity:0.7;"/>
   </g>
   <g id="patch_29">
    <path clip-path="url(#p87972c29c0)" d="M 24.6 238.461648 
L 96.714315 238.461648 
L 96.714315 234.600852 
L 24.6 234.600852 
z
" style="opacity:0.7;"/>
   </g>
   <g id="patch_30">
    <path clip-path="url(#p87972c29c0)" d="M 24.6 230.740057 
L 449.742857 230.740057 
L 449.742857 226.879261 
L 24.6 226.879261 
z
" style="opacity:0.7;"/>
   </g>
   <g id="patch_31">
    <path clip-path="url(#p87972c29c0)" d="M 24.6 223.018466 
L 218.397339 223.018466 
L 218.397339 219.15767 
L 24.6 219.15767 
z
" style="opacity:0.7;"/>
   </g>
   <g id="patch_32">
    <path clip-path="url(#p87972c29c0)" d="M 24.6 215.296875 
L 312.535157 215.296875 
L 312.535157 211.43608 
L 24.6 211.43608 
z
" style="opacity:0.7;"/>
   </g>
   <g id="patch_33">
    <path clip-path="url(#p87972c29c0)" d="M 24.6 207.575284 
L 442.98504 207.575284 
L 442.98504 203.714489 
L 24.6 203.714489 
z
" style="opacity:0.7;"/>
   </g>
   <g id="patch_34">
    <path clip-path="url(#p87972c29c0)" d="M 24.6 199.853693 
L 283.042516 199.853693 
L 283.042516 195.992898 
L 24.6 195.992898 
z
" style="opacity:0.7;"/>
   </g>
   <g id="patch_35">
    <path clip-path="url(#p87972c29c0)" d="M 24.6 192.132102 
L 81.933598 192.132102 
L 81.933598 188.271307 
L 24.6 188.271307 
z
" style="opacity:0.7;"/>
   </g>
   <g id="patch_36">
    <path clip-path="url(#p87972c29c0)" d="M 24.6 184.410511 
L 380.603969 184.410511 
L 380.603969 180.549716 
L 24.6 180.549716 
z
" style="opacity:0.7;"/>
   </g>
   <g id="patch_37">
    <path clip-path="url(#p87972c29c0)" d="M 24.6 176.68892 
L 374.32103 176.68892 
L 374.32103 172.828125 
L 24.6 172.828125 
z
" style="opacity:0.7;"/>
   </g>
   <g id="patch_38">
    <path clip-path="url(#p87972c29c0)" d="M 24.6 168.96733 
L 207.260511 168.96733 
L 207.260511 165.106534 
L 24.6 165.106534 
z
" style="opacity:0.7;"/>
   </g>
   <g id="patch_39">
    <path clip-path="url(#p87972c29c0)" d="M 24.6 161.245739 
L 268.10851 161.245739 
L 268.10851 157.384943 
L 24.6 157.384943 
z
" style="opacity:0.7;"/>
   </g>
   <g id="patch_40">
    <path d="M 24.6 279 
L 24.6 155.454545 
" style="fill:none;stroke:#cccccc;stroke-linecap:square;stroke-linejoin:miter;"/>
   </g>
   <g id="patch_41">
    <path d="M 471 279 
L 471 155.454545 
" style="fill:none;stroke:#cccccc;stroke-linecap:square;stroke-linejoin:miter;"/>
   </g>
   <g id="patch_42">
    <path d="M 24.6 279 
L 471 279 
" style="fill:none;stroke:#cccccc;stroke-linecap:square;stroke-linejoin:miter;"/>
   </g>
   <g id="patch_43">
    <path d="M 24.6 155.454545 
L 471 155.454545 
" style="fill:none;stroke:#cccccc;stroke-linecap:square;stroke-linejoin:miter;"/>
   </g>
  </g>
 </g>
 <defs>
  <clipPath id="p80e5664d4f">
   <rect height="123.545455" width="446.4" x="24.6" y="7.2"/>
  </clipPath>
  <clipPath id="p87972c29c0">
   <rect height="123.545455" width="446.4" x="24.6" y="155.454545"/>
  </clipPath>
 </defs>
</svg>
