<?xml version="1.0" encoding="utf-8" standalone="no"?>
<!DOCTYPE svg PUBLIC "-//W3C//DTD SVG 1.1//EN"
  "http://www.w3.org/Graphics/SVG/1.1/DTD/svg11.dtd">
<!-- Created with matplotlib (https://matplotlib.org/) -->
<svg height="303.703354pt" version="1.1" viewBox="0 0 497.151729 303.703354" width="497.151729pt" xmlns="http://www.w3.org/2000/svg" xmlns:xlink="http://www.w3.org/1999/xlink">
 <defs>
  <style type="text/css">
*{stroke-linecap:butt;stroke-linejoin:round;}
  </style>
 </defs>
 <g id="figure_1">
  <g id="patch_1">
   <path d="M 0 303.703354 
L 497.151729 303.703354 
L 497.151729 0 
L 0 0 
z
" style="fill:#ffffff;"/>
  </g>
  <g id="axes_1">
   <g id="patch_2">
    <path d="M 43.551729 266.735625 
L 489.951729 266.735625 
L 489.951729 21.935625 
L 43.551729 21.935625 
z
" style="fill:#ffffff;"/>
   </g>
   <g id="matplotlib.axis_1">
    <g id="xtick_1">
     <g id="line2d_1">
      <path clip-path="url(#p87d18fdd33)" d="M 43.551729 266.735625 
L 43.551729 21.935625 
" style="fill:none;stroke:#cccccc;stroke-linecap:round;stroke-width:0.8;"/>
     </g>
     <g id="line2d_2"/>
     <g id="text_1">
      <!-- 2007-01 -->
      <defs>
       <path d="M 50.34375 8.453125 
L 50.34375 0 
L 3.03125 0 
Q 2.9375 3.171875 4.046875 6.109375 
Q 5.859375 10.9375 9.828125 15.625 
Q 13.8125 20.3125 21.34375 26.46875 
Q 33.015625 36.03125 37.109375 41.625 
Q 41.21875 47.21875 41.21875 52.203125 
Q 41.21875 57.421875 37.46875 61 
Q 33.734375 64.59375 27.734375 64.59375 
Q 21.390625 64.59375 17.578125 60.78125 
Q 13.765625 56.984375 13.71875 50.25 
L 4.6875 51.171875 
Q 5.609375 61.28125 11.65625 66.578125 
Q 17.71875 71.875 27.9375 71.875 
Q 38.234375 71.875 44.234375 66.15625 
Q 50.25 60.453125 50.25 52 
Q 50.25 47.703125 48.484375 43.546875 
Q 46.734375 39.40625 42.65625 34.8125 
Q 38.578125 30.21875 29.109375 22.21875 
Q 21.1875 15.578125 18.9375 13.203125 
Q 16.703125 10.84375 15.234375 8.453125 
z
" id="ArialMT-50"/>
       <path d="M 4.15625 35.296875 
Q 4.15625 48 6.765625 55.734375 
Q 9.375 63.484375 14.515625 67.671875 
Q 19.671875 71.875 27.484375 71.875 
Q 33.25 71.875 37.59375 69.546875 
Q 41.9375 67.234375 44.765625 62.859375 
Q 47.609375 58.5 49.21875 52.21875 
Q 50.828125 45.953125 50.828125 35.296875 
Q 50.828125 22.703125 48.234375 14.96875 
Q 45.65625 7.234375 40.5 3 
Q 35.359375 -1.21875 27.484375 -1.21875 
Q 17.140625 -1.21875 11.234375 6.203125 
Q 4.15625 15.140625 4.15625 35.296875 
z
M 13.1875 35.296875 
Q 13.1875 17.671875 17.3125 11.828125 
Q 21.4375 6 27.484375 6 
Q 33.546875 6 37.671875 11.859375 
Q 41.796875 17.71875 41.796875 35.296875 
Q 41.796875 52.984375 37.671875 58.78125 
Q 33.546875 64.59375 27.390625 64.59375 
Q 21.34375 64.59375 17.71875 59.46875 
Q 13.1875 52.9375 13.1875 35.296875 
z
" id="ArialMT-48"/>
       <path d="M 4.734375 62.203125 
L 4.734375 70.65625 
L 51.078125 70.65625 
L 51.078125 63.8125 
Q 44.234375 56.546875 37.515625 44.484375 
Q 30.8125 32.421875 27.15625 19.671875 
Q 24.515625 10.6875 23.78125 0 
L 14.75 0 
Q 14.890625 8.453125 18.0625 20.40625 
Q 21.234375 32.375 27.171875 43.484375 
Q 33.109375 54.59375 39.796875 62.203125 
z
" id="ArialMT-55"/>
       <path d="M 3.171875 21.484375 
L 3.171875 30.328125 
L 30.171875 30.328125 
L 30.171875 21.484375 
z
" id="ArialMT-45"/>
       <path d="M 37.25 0 
L 28.46875 0 
L 28.46875 56 
Q 25.296875 52.984375 20.140625 49.953125 
Q 14.984375 46.921875 10.890625 45.40625 
L 10.890625 53.90625 
Q 18.265625 57.375 23.78125 62.296875 
Q 29.296875 67.234375 31.59375 71.875 
L 37.25 71.875 
z
" id="ArialMT-49"/>
      </defs>
      <g style="fill:#262626;" transform="translate(10.778906 294.782129)rotate(-30)scale(0.1 -0.1)">
       <use xlink:href="#ArialMT-50"/>
       <use x="55.615234" xlink:href="#ArialMT-48"/>
       <use x="111.230469" xlink:href="#ArialMT-48"/>
       <use x="166.845703" xlink:href="#ArialMT-55"/>
       <use x="222.460938" xlink:href="#ArialMT-45"/>
       <use x="255.761719" xlink:href="#ArialMT-48"/>
       <use x="311.376953" xlink:href="#ArialMT-49"/>
      </g>
     </g>
    </g>
    <g id="xtick_2">
     <g id="line2d_3">
      <path clip-path="url(#p87d18fdd33)" d="M 98.85522 266.735625 
L 98.85522 21.935625 
" style="fill:none;stroke:#cccccc;stroke-linecap:round;stroke-width:0.8;"/>
     </g>
     <g id="line2d_4"/>
     <g id="text_2">
      <!-- 2007-07 -->
      <g style="fill:#262626;" transform="translate(66.082397 294.782129)rotate(-30)scale(0.1 -0.1)">
       <use xlink:href="#ArialMT-50"/>
       <use x="55.615234" xlink:href="#ArialMT-48"/>
       <use x="111.230469" xlink:href="#ArialMT-48"/>
       <use x="166.845703" xlink:href="#ArialMT-55"/>
       <use x="222.460938" xlink:href="#ArialMT-45"/>
       <use x="255.761719" xlink:href="#ArialMT-48"/>
       <use x="311.376953" xlink:href="#ArialMT-55"/>
      </g>
     </g>
    </g>
    <g id="xtick_3">
     <g id="line2d_5">
      <path clip-path="url(#p87d18fdd33)" d="M 155.075343 266.735625 
L 155.075343 21.935625 
" style="fill:none;stroke:#cccccc;stroke-linecap:round;stroke-width:0.8;"/>
     </g>
     <g id="line2d_6"/>
     <g id="text_3">
      <!-- 2008-01 -->
      <defs>
       <path d="M 17.671875 38.8125 
Q 12.203125 40.828125 9.5625 44.53125 
Q 6.9375 48.25 6.9375 53.421875 
Q 6.9375 61.234375 12.546875 66.546875 
Q 18.171875 71.875 27.484375 71.875 
Q 36.859375 71.875 42.578125 66.421875 
Q 48.296875 60.984375 48.296875 53.171875 
Q 48.296875 48.1875 45.671875 44.5 
Q 43.0625 40.828125 37.75 38.8125 
Q 44.34375 36.671875 47.78125 31.875 
Q 51.21875 27.09375 51.21875 20.453125 
Q 51.21875 11.28125 44.71875 5.03125 
Q 38.234375 -1.21875 27.640625 -1.21875 
Q 17.046875 -1.21875 10.546875 5.046875 
Q 4.046875 11.328125 4.046875 20.703125 
Q 4.046875 27.6875 7.59375 32.390625 
Q 11.140625 37.109375 17.671875 38.8125 
z
M 15.921875 53.71875 
Q 15.921875 48.640625 19.1875 45.40625 
Q 22.46875 42.1875 27.6875 42.1875 
Q 32.765625 42.1875 36.015625 45.375 
Q 39.265625 48.578125 39.265625 53.21875 
Q 39.265625 58.0625 35.90625 61.359375 
Q 32.5625 64.65625 27.59375 64.65625 
Q 22.5625 64.65625 19.234375 61.421875 
Q 15.921875 58.203125 15.921875 53.71875 
z
M 13.09375 20.65625 
Q 13.09375 16.890625 14.875 13.375 
Q 16.65625 9.859375 20.171875 7.921875 
Q 23.6875 6 27.734375 6 
Q 34.03125 6 38.125 10.046875 
Q 42.234375 14.109375 42.234375 20.359375 
Q 42.234375 26.703125 38.015625 30.859375 
Q 33.796875 35.015625 27.4375 35.015625 
Q 21.234375 35.015625 17.15625 30.90625 
Q 13.09375 26.8125 13.09375 20.65625 
z
" id="ArialMT-56"/>
      </defs>
      <g style="fill:#262626;" transform="translate(122.30252 294.782129)rotate(-30)scale(0.1 -0.1)">
       <use xlink:href="#ArialMT-50"/>
       <use x="55.615234" xlink:href="#ArialMT-48"/>
       <use x="111.230469" xlink:href="#ArialMT-48"/>
       <use x="166.845703" xlink:href="#ArialMT-56"/>
       <use x="222.460938" xlink:href="#ArialMT-45"/>
       <use x="255.761719" xlink:href="#ArialMT-48"/>
       <use x="311.376953" xlink:href="#ArialMT-49"/>
      </g>
     </g>
    </g>
    <g id="xtick_4">
     <g id="line2d_7">
      <path clip-path="url(#p87d18fdd33)" d="M 210.684378 266.735625 
L 210.684378 21.935625 
" style="fill:none;stroke:#cccccc;stroke-linecap:round;stroke-width:0.8;"/>
     </g>
     <g id="line2d_8"/>
     <g id="text_4">
      <!-- 2008-07 -->
      <g style="fill:#262626;" transform="translate(177.911555 294.782129)rotate(-30)scale(0.1 -0.1)">
       <use xlink:href="#ArialMT-50"/>
       <use x="55.615234" xlink:href="#ArialMT-48"/>
       <use x="111.230469" xlink:href="#ArialMT-48"/>
       <use x="166.845703" xlink:href="#ArialMT-56"/>
       <use x="222.460938" xlink:href="#ArialMT-45"/>
       <use x="255.761719" xlink:href="#ArialMT-48"/>
       <use x="311.376953" xlink:href="#ArialMT-55"/>
      </g>
     </g>
    </g>
    <g id="xtick_5">
     <g id="line2d_9">
      <path clip-path="url(#p87d18fdd33)" d="M 266.904501 266.735625 
L 266.904501 21.935625 
" style="fill:none;stroke:#cccccc;stroke-linecap:round;stroke-width:0.8;"/>
     </g>
     <g id="line2d_10"/>
     <g id="text_5">
      <!-- 2009-01 -->
      <defs>
       <path d="M 5.46875 16.546875 
L 13.921875 17.328125 
Q 14.984375 11.375 18.015625 8.6875 
Q 21.046875 6 25.78125 6 
Q 29.828125 6 32.875 7.859375 
Q 35.9375 9.71875 37.890625 12.8125 
Q 39.84375 15.921875 41.15625 21.1875 
Q 42.484375 26.46875 42.484375 31.9375 
Q 42.484375 32.515625 42.4375 33.6875 
Q 39.796875 29.5 35.234375 26.875 
Q 30.671875 24.265625 25.34375 24.265625 
Q 16.453125 24.265625 10.296875 30.703125 
Q 4.15625 37.15625 4.15625 47.703125 
Q 4.15625 58.59375 10.578125 65.234375 
Q 17 71.875 26.65625 71.875 
Q 33.640625 71.875 39.421875 68.109375 
Q 45.21875 64.359375 48.21875 57.390625 
Q 51.21875 50.4375 51.21875 37.25 
Q 51.21875 23.53125 48.234375 15.40625 
Q 45.265625 7.28125 39.375 3.03125 
Q 33.5 -1.21875 25.59375 -1.21875 
Q 17.1875 -1.21875 11.859375 3.4375 
Q 6.546875 8.109375 5.46875 16.546875 
z
M 41.453125 48.140625 
Q 41.453125 55.71875 37.421875 60.15625 
Q 33.40625 64.59375 27.734375 64.59375 
Q 21.875 64.59375 17.53125 59.8125 
Q 13.1875 55.03125 13.1875 47.40625 
Q 13.1875 40.578125 17.3125 36.296875 
Q 21.4375 32.03125 27.484375 32.03125 
Q 33.59375 32.03125 37.515625 36.296875 
Q 41.453125 40.578125 41.453125 48.140625 
z
" id="ArialMT-57"/>
      </defs>
      <g style="fill:#262626;" transform="translate(234.131678 294.782129)rotate(-30)scale(0.1 -0.1)">
       <use xlink:href="#ArialMT-50"/>
       <use x="55.615234" xlink:href="#ArialMT-48"/>
       <use x="111.230469" xlink:href="#ArialMT-48"/>
       <use x="166.845703" xlink:href="#ArialMT-57"/>
       <use x="222.460938" xlink:href="#ArialMT-45"/>
       <use x="255.761719" xlink:href="#ArialMT-48"/>
       <use x="311.376953" xlink:href="#ArialMT-49"/>
      </g>
     </g>
    </g>
    <g id="xtick_6">
     <g id="line2d_11">
      <path clip-path="url(#p87d18fdd33)" d="M 322.207992 266.735625 
L 322.207992 21.935625 
" style="fill:none;stroke:#cccccc;stroke-linecap:round;stroke-width:0.8;"/>
     </g>
     <g id="line2d_12"/>
     <g id="text_6">
      <!-- 2009-07 -->
      <g style="fill:#262626;" transform="translate(289.435169 294.782129)rotate(-30)scale(0.1 -0.1)">
       <use xlink:href="#ArialMT-50"/>
       <use x="55.615234" xlink:href="#ArialMT-48"/>
       <use x="111.230469" xlink:href="#ArialMT-48"/>
       <use x="166.845703" xlink:href="#ArialMT-57"/>
       <use x="222.460938" xlink:href="#ArialMT-45"/>
       <use x="255.761719" xlink:href="#ArialMT-48"/>
       <use x="311.376953" xlink:href="#ArialMT-55"/>
      </g>
     </g>
    </g>
    <g id="xtick_7">
     <g id="line2d_13">
      <path clip-path="url(#p87d18fdd33)" d="M 378.428115 266.735625 
L 378.428115 21.935625 
" style="fill:none;stroke:#cccccc;stroke-linecap:round;stroke-width:0.8;"/>
     </g>
     <g id="line2d_14"/>
     <g id="text_7">
      <!-- 2010-01 -->
      <g style="fill:#262626;" transform="translate(345.655292 294.782129)rotate(-30)scale(0.1 -0.1)">
       <use xlink:href="#ArialMT-50"/>
       <use x="55.615234" xlink:href="#ArialMT-48"/>
       <use x="111.230469" xlink:href="#ArialMT-49"/>
       <use x="166.845703" xlink:href="#ArialMT-48"/>
       <use x="222.460938" xlink:href="#ArialMT-45"/>
       <use x="255.761719" xlink:href="#ArialMT-48"/>
       <use x="311.376953" xlink:href="#ArialMT-49"/>
      </g>
     </g>
    </g>
    <g id="xtick_8">
     <g id="line2d_15">
      <path clip-path="url(#p87d18fdd33)" d="M 433.731606 266.735625 
L 433.731606 21.935625 
" style="fill:none;stroke:#cccccc;stroke-linecap:round;stroke-width:0.8;"/>
     </g>
     <g id="line2d_16"/>
     <g id="text_8">
      <!-- 2010-07 -->
      <g style="fill:#262626;" transform="translate(400.958783 294.782129)rotate(-30)scale(0.1 -0.1)">
       <use xlink:href="#ArialMT-50"/>
       <use x="55.615234" xlink:href="#ArialMT-48"/>
       <use x="111.230469" xlink:href="#ArialMT-49"/>
       <use x="166.845703" xlink:href="#ArialMT-48"/>
       <use x="222.460938" xlink:href="#ArialMT-45"/>
       <use x="255.761719" xlink:href="#ArialMT-48"/>
       <use x="311.376953" xlink:href="#ArialMT-55"/>
      </g>
     </g>
    </g>
    <g id="xtick_9">
     <g id="line2d_17">
      <path clip-path="url(#p87d18fdd33)" d="M 489.951729 266.735625 
L 489.951729 21.935625 
" style="fill:none;stroke:#cccccc;stroke-linecap:round;stroke-width:0.8;"/>
     </g>
     <g id="line2d_18"/>
     <g id="text_9">
      <!-- 2011-01 -->
      <g style="fill:#262626;" transform="translate(457.188378 294.77666)rotate(-30)scale(0.1 -0.1)">
       <use xlink:href="#ArialMT-50"/>
       <use x="55.615234" xlink:href="#ArialMT-48"/>
       <use x="111.230469" xlink:href="#ArialMT-49"/>
       <use x="166.736328" xlink:href="#ArialMT-49"/>
       <use x="222.351562" xlink:href="#ArialMT-45"/>
       <use x="255.652344" xlink:href="#ArialMT-48"/>
       <use x="311.267578" xlink:href="#ArialMT-49"/>
      </g>
     </g>
    </g>
   </g>
   <g id="matplotlib.axis_2">
    <g id="ytick_1">
     <g id="line2d_19">
      <path clip-path="url(#p87d18fdd33)" d="M 43.551729 266.735625 
L 489.951729 266.735625 
" style="fill:none;stroke:#cccccc;stroke-linecap:round;stroke-width:0.8;"/>
     </g>
     <g id="line2d_20"/>
     <g id="text_10">
      <!-- 600 -->
      <defs>
       <path d="M 49.75 54.046875 
L 41.015625 53.375 
Q 39.84375 58.546875 37.703125 60.890625 
Q 34.125 64.65625 28.90625 64.65625 
Q 24.703125 64.65625 21.53125 62.3125 
Q 17.390625 59.28125 14.984375 53.46875 
Q 12.59375 47.65625 12.5 36.921875 
Q 15.671875 41.75 20.265625 44.09375 
Q 24.859375 46.4375 29.890625 46.4375 
Q 38.671875 46.4375 44.84375 39.96875 
Q 51.03125 33.5 51.03125 23.25 
Q 51.03125 16.5 48.125 10.71875 
Q 45.21875 4.9375 40.140625 1.859375 
Q 35.0625 -1.21875 28.609375 -1.21875 
Q 17.625 -1.21875 10.6875 6.859375 
Q 3.765625 14.9375 3.765625 33.5 
Q 3.765625 54.25 11.421875 63.671875 
Q 18.109375 71.875 29.4375 71.875 
Q 37.890625 71.875 43.28125 67.140625 
Q 48.6875 62.40625 49.75 54.046875 
z
M 13.875 23.1875 
Q 13.875 18.65625 15.796875 14.5 
Q 17.71875 10.359375 21.1875 8.171875 
Q 24.65625 6 28.46875 6 
Q 34.03125 6 38.03125 10.484375 
Q 42.046875 14.984375 42.046875 22.703125 
Q 42.046875 30.125 38.078125 34.390625 
Q 34.125 38.671875 28.125 38.671875 
Q 22.171875 38.671875 18.015625 34.390625 
Q 13.875 30.125 13.875 23.1875 
z
" id="ArialMT-54"/>
      </defs>
      <g style="fill:#262626;" transform="translate(23.368917 270.314531)scale(0.1 -0.1)">
       <use xlink:href="#ArialMT-54"/>
       <use x="55.615234" xlink:href="#ArialMT-48"/>
       <use x="111.230469" xlink:href="#ArialMT-48"/>
      </g>
     </g>
    </g>
    <g id="ytick_2">
     <g id="line2d_21">
      <path clip-path="url(#p87d18fdd33)" d="M 43.551729 225.935625 
L 489.951729 225.935625 
" style="fill:none;stroke:#cccccc;stroke-linecap:round;stroke-width:0.8;"/>
     </g>
     <g id="line2d_22"/>
     <g id="text_11">
      <!-- 800 -->
      <g style="fill:#262626;" transform="translate(23.368917 229.514531)scale(0.1 -0.1)">
       <use xlink:href="#ArialMT-56"/>
       <use x="55.615234" xlink:href="#ArialMT-48"/>
       <use x="111.230469" xlink:href="#ArialMT-48"/>
      </g>
     </g>
    </g>
    <g id="ytick_3">
     <g id="line2d_23">
      <path clip-path="url(#p87d18fdd33)" d="M 43.551729 185.135625 
L 489.951729 185.135625 
" style="fill:none;stroke:#cccccc;stroke-linecap:round;stroke-width:0.8;"/>
     </g>
     <g id="line2d_24"/>
     <g id="text_12">
      <!-- 1000 -->
      <g style="fill:#262626;" transform="translate(17.807979 188.714531)scale(0.1 -0.1)">
       <use xlink:href="#ArialMT-49"/>
       <use x="55.615234" xlink:href="#ArialMT-48"/>
       <use x="111.230469" xlink:href="#ArialMT-48"/>
       <use x="166.845703" xlink:href="#ArialMT-48"/>
      </g>
     </g>
    </g>
    <g id="ytick_4">
     <g id="line2d_25">
      <path clip-path="url(#p87d18fdd33)" d="M 43.551729 144.335625 
L 489.951729 144.335625 
" style="fill:none;stroke:#cccccc;stroke-linecap:round;stroke-width:0.8;"/>
     </g>
     <g id="line2d_26"/>
     <g id="text_13">
      <!-- 1200 -->
      <g style="fill:#262626;" transform="translate(17.807979 147.914531)scale(0.1 -0.1)">
       <use xlink:href="#ArialMT-49"/>
       <use x="55.615234" xlink:href="#ArialMT-50"/>
       <use x="111.230469" xlink:href="#ArialMT-48"/>
       <use x="166.845703" xlink:href="#ArialMT-48"/>
      </g>
     </g>
    </g>
    <g id="ytick_5">
     <g id="line2d_27">
      <path clip-path="url(#p87d18fdd33)" d="M 43.551729 103.535625 
L 489.951729 103.535625 
" style="fill:none;stroke:#cccccc;stroke-linecap:round;stroke-width:0.8;"/>
     </g>
     <g id="line2d_28"/>
     <g id="text_14">
      <!-- 1400 -->
      <defs>
       <path d="M 32.328125 0 
L 32.328125 17.140625 
L 1.265625 17.140625 
L 1.265625 25.203125 
L 33.9375 71.578125 
L 41.109375 71.578125 
L 41.109375 25.203125 
L 50.78125 25.203125 
L 50.78125 17.140625 
L 41.109375 17.140625 
L 41.109375 0 
z
M 32.328125 25.203125 
L 32.328125 57.46875 
L 9.90625 25.203125 
z
" id="ArialMT-52"/>
      </defs>
      <g style="fill:#262626;" transform="translate(17.807979 107.114531)scale(0.1 -0.1)">
       <use xlink:href="#ArialMT-49"/>
       <use x="55.615234" xlink:href="#ArialMT-52"/>
       <use x="111.230469" xlink:href="#ArialMT-48"/>
       <use x="166.845703" xlink:href="#ArialMT-48"/>
      </g>
     </g>
    </g>
    <g id="ytick_6">
     <g id="line2d_29">
      <path clip-path="url(#p87d18fdd33)" d="M 43.551729 62.735625 
L 489.951729 62.735625 
" style="fill:none;stroke:#cccccc;stroke-linecap:round;stroke-width:0.8;"/>
     </g>
     <g id="line2d_30"/>
     <g id="text_15">
      <!-- 1600 -->
      <g style="fill:#262626;" transform="translate(17.807979 66.314531)scale(0.1 -0.1)">
       <use xlink:href="#ArialMT-49"/>
       <use x="55.615234" xlink:href="#ArialMT-54"/>
       <use x="111.230469" xlink:href="#ArialMT-48"/>
       <use x="166.845703" xlink:href="#ArialMT-48"/>
      </g>
     </g>
    </g>
    <g id="ytick_7">
     <g id="line2d_31">
      <path clip-path="url(#p87d18fdd33)" d="M 43.551729 21.935625 
L 489.951729 21.935625 
" style="fill:none;stroke:#cccccc;stroke-linecap:round;stroke-width:0.8;"/>
     </g>
     <g id="line2d_32"/>
     <g id="text_16">
      <!-- 1800 -->
      <g style="fill:#262626;" transform="translate(17.807979 25.514531)scale(0.1 -0.1)">
       <use xlink:href="#ArialMT-49"/>
       <use x="55.615234" xlink:href="#ArialMT-56"/>
       <use x="111.230469" xlink:href="#ArialMT-48"/>
       <use x="166.845703" xlink:href="#ArialMT-48"/>
      </g>
     </g>
    </g>
   </g>
   <g id="line2d_33">
    <path clip-path="url(#p87d18fdd33)" d="M 42.635097 99.802425 
L 44.162817 100.149225 
L 44.468362 99.794265 
L 44.773906 101.554785 
L 45.690538 100.916265 
L 45.996082 101.065185 
L 46.301626 100.506225 
L 46.912715 97.266705 
L 48.134891 97.028025 
L 48.440435 97.289145 
L 48.74598 98.156145 
L 49.051524 97.313625 
L 49.968156 98.853825 
L 50.2737 97.825665 
L 50.579244 95.349105 
L 50.884789 98.660025 
L 51.190333 99.010905 
L 52.106965 99.329145 
L 53.023598 94.163865 
L 53.329142 93.664065 
L 54.245774 93.949665 
L 54.551318 93.743625 
L 54.856863 93.331545 
L 55.162407 93.680385 
L 55.467951 95.771385 
L 56.384583 96.728145 
L 56.995672 92.254425 
L 57.301216 91.946385 
L 57.60676 92.205465 
L 58.828936 91.360905 
L 59.440025 92.034105 
L 59.745569 93.092865 
L 60.662201 93.464145 
L 60.967746 103.731465 
L 61.27329 102.144345 
L 61.578834 102.888945 
L 61.884378 106.152945 
L 62.80101 108.815145 
L 63.106555 104.471985 
L 63.412099 105.173745 
L 63.717643 103.150065 
L 64.023187 102.956265 
L 64.939819 102.189225 
L 65.245364 108.033825 
L 65.550908 106.152945 
L 65.856452 105.110505 
L 66.161996 106.197825 
L 67.078628 103.115385 
L 67.384173 101.303865 
L 67.689717 96.387465 
L 67.995261 96.489465 
L 68.300805 96.169185 
L 69.217437 95.885625 
L 69.828526 100.020705 
L 70.13407 98.939505 
L 70.439614 99.280185 
L 71.356247 98.527425 
L 71.661791 95.830545 
L 71.967335 95.504145 
L 72.272879 94.608585 
L 73.495056 94.435185 
L 73.8006 93.664065 
L 74.106144 95.606145 
L 74.411688 93.784425 
L 75.939409 88.953705 
L 76.244953 88.745625 
L 76.550497 89.106705 
L 76.856041 86.328225 
L 78.078218 87.131985 
L 78.383762 84.069945 
L 78.689306 84.308625 
L 78.99485 84.345345 
L 79.911483 86.732145 
L 80.217027 85.930425 
L 80.828115 82.648065 
L 81.133659 81.989145 
L 82.050292 81.201705 
L 82.355836 81.560745 
L 82.66138 80.569305 
L 82.966924 84.875745 
L 83.272468 81.942225 
L 84.189101 82.493025 
L 84.494645 82.892865 
L 84.800189 80.251065 
L 85.105733 80.534625 
L 85.411277 78.494625 
L 86.32791 78.015225 
L 86.633454 78.215145 
L 86.938998 78.590505 
L 87.244542 81.603585 
L 87.550086 79.926705 
L 88.772263 79.441185 
L 89.077807 76.968705 
L 89.383351 76.889145 
L 89.688895 75.722265 
L 90.605528 75.142905 
L 90.911072 76.821825 
L 91.216616 79.590105 
L 91.52216 85.028745 
L 91.827704 81.570945 
L 92.744337 81.275145 
L 93.049881 84.563625 
L 93.355425 79.938945 
L 93.966513 76.421985 
L 94.883146 76.801425 
L 95.18869 76.260825 
L 95.494234 80.516265 
L 95.799778 78.608865 
L 96.105323 82.613385 
L 97.021955 83.596665 
L 97.327499 84.586065 
L 97.633043 81.842265 
L 97.938587 81.970785 
L 98.244132 82.452225 
L 99.466308 78.062145 
L 100.077396 77.954025 
L 100.382941 76.925865 
L 101.299573 76.638225 
L 101.605117 81.071145 
L 101.910661 79.308585 
L 102.216205 73.404825 
L 102.52175 72.425625 
L 103.438382 73.033545 
L 103.743926 73.064145 
L 104.04947 73.716945 
L 104.355014 72.307305 
L 104.660559 76.179225 
L 105.577191 74.655345 
L 105.882735 80.883465 
L 106.188279 79.445265 
L 106.799368 91.509825 
L 107.716 88.457985 
L 108.021544 92.260545 
L 108.327088 90.110385 
L 108.632633 88.806825 
L 108.938177 96.791385 
L 110.160353 87.886785 
L 110.465897 83.647665 
L 110.771442 92.705265 
L 111.076986 92.593065 
L 111.993618 92.739945 
L 112.604706 102.168825 
L 112.910251 101.236545 
L 113.215795 94.163865 
L 114.132427 94.243425 
L 114.437971 93.923145 
L 114.743516 90.465345 
L 115.04906 90.785625 
L 115.354604 87.344145 
L 116.271236 89.910465 
L 116.57678 96.934185 
L 116.882325 90.528585 
L 117.187869 91.777065 
L 117.493413 88.441665 
L 118.715589 85.293945 
L 119.021134 88.788465 
L 119.326678 87.511425 
L 119.632222 92.611425 
L 120.548854 92.988825 
L 120.854398 88.951665 
L 121.159943 88.937385 
L 121.465487 86.409825 
L 121.771031 86.348625 
L 122.687663 87.899025 
L 122.993208 79.100505 
L 123.298752 77.213505 
L 123.604296 79.310625 
L 123.90984 77.882625 
L 124.826472 79.518705 
L 125.132017 79.624785 
L 125.743105 76.734105 
L 126.048649 77.678625 
L 126.965281 73.539465 
L 127.270826 73.623105 
L 127.57637 75.059265 
L 127.881914 74.396265 
L 128.187458 71.387265 
L 129.10409 72.409305 
L 129.409635 69.845025 
L 129.715179 70.391745 
L 130.020723 72.035985 
L 130.326267 70.528425 
L 131.2429 73.198785 
L 131.548444 75.275505 
L 131.853988 74.722665 
L 132.159532 74.959305 
L 132.465076 83.007105 
L 133.381709 81.844305 
L 133.687253 79.139265 
L 133.992797 79.896105 
L 134.298341 80.198025 
L 134.603885 75.938505 
L 135.520518 74.775705 
L 135.826062 76.807545 
L 136.131606 73.062105 
L 136.43715 81.413865 
L 136.742694 81.167025 
L 137.659327 82.692945 
L 137.964871 79.000545 
L 138.270415 88.109145 
L 138.575959 88.282545 
L 138.881503 92.580825 
L 139.798136 95.542905 
L 140.10368 87.001425 
L 140.409224 89.137305 
L 140.714768 93.101025 
L 141.020312 91.552665 
L 141.936945 96.748545 
L 142.242489 95.436825 
L 142.548033 100.114545 
L 143.159121 95.232825 
L 144.075754 102.062745 
L 144.381298 97.776705 
L 144.686842 89.455545 
L 144.992386 89.312745 
L 145.29793 86.983065 
L 146.214563 88.761945 
L 146.520107 90.726465 
L 147.131195 81.638265 
L 147.436739 82.184985 
L 148.353372 79.879785 
L 148.658916 87.695025 
L 148.96446 85.871265 
L 149.270004 85.499985 
L 149.575548 89.673825 
L 150.492181 94.172025 
L 150.797725 92.319705 
L 151.103269 92.723625 
L 151.408813 91.271145 
L 151.714357 86.305785 
L 152.63099 83.859825 
L 153.242078 83.612985 
L 153.547622 87.976545 
L 153.853166 87.523665 
L 154.769799 89.590185 
L 155.380887 93.914985 
L 155.686431 93.914985 
L 155.991975 101.163105 
L 156.908608 100.234905 
L 157.214152 105.536865 
L 157.519696 101.673105 
L 157.82524 99.388305 
L 158.130785 103.327545 
L 159.047417 100.220625 
L 159.352961 107.421825 
L 159.658505 109.002825 
L 159.964049 117.152625 
L 160.269594 118.796865 
L 161.49177 121.793625 
L 161.797314 116.061225 
L 162.102858 113.313345 
L 162.408403 117.691185 
L 163.630579 111.226425 
L 163.936123 112.550385 
L 164.547212 104.469945 
L 165.463844 107.448345 
L 165.769388 116.461065 
L 166.074932 118.539825 
L 166.380477 116.405985 
L 166.686021 117.552465 
L 167.602653 115.953105 
L 167.908197 113.968185 
L 168.213741 110.224785 
L 168.519286 113.968185 
L 168.82483 113.737665 
L 170.047006 113.984505 
L 170.35255 111.689505 
L 170.658095 115.259505 
L 170.963639 113.101185 
L 171.880271 109.288425 
L 172.185815 107.352465 
L 172.491359 107.611545 
L 172.796904 110.128905 
L 173.102448 117.687105 
L 174.01908 117.542265 
L 174.324624 118.478625 
L 174.630168 117.060825 
L 174.935713 123.050265 
L 175.241257 125.288145 
L 176.157889 129.368145 
L 176.463433 119.723025 
L 176.768978 122.146545 
L 177.074522 120.777705 
L 177.380066 126.355065 
L 178.296698 128.709225 
L 178.602242 117.664665 
L 178.907787 124.257945 
L 179.213331 117.915585 
L 180.435507 113.760105 
L 180.741051 113.125665 
L 181.657684 120.830745 
L 182.574316 119.304825 
L 182.87986 109.618905 
L 183.185405 110.159505 
L 183.796493 109.574025 
L 184.713125 109.137465 
L 185.01867 110.565465 
L 185.324214 112.819665 
L 185.629758 111.583425 
L 185.935302 117.238305 
L 186.851934 118.158345 
L 187.157479 116.911905 
L 187.463023 110.734785 
L 187.768567 110.561385 
L 188.074111 105.508305 
L 188.990743 105.948945 
L 189.296288 108.443865 
L 189.601832 107.629905 
L 190.21292 103.976265 
L 191.129552 104.276145 
L 191.740641 106.475265 
L 192.046185 101.630265 
L 192.351729 100.700025 
L 193.268362 102.007665 
L 193.573906 99.810585 
L 193.87945 105.051345 
L 194.184994 104.008905 
L 194.490538 105.926505 
L 195.407171 102.805305 
L 195.712715 102.915465 
L 196.018259 101.768985 
L 196.323803 98.727345 
L 196.629347 98.364225 
L 197.54598 98.103105 
L 197.851524 100.802025 
L 198.157068 105.430785 
L 198.462612 104.688225 
L 198.768156 108.445905 
L 199.990333 106.524225 
L 200.906965 103.458105 
L 201.823598 106.458945 
L 202.129142 108.095025 
L 202.434686 108.186825 
L 202.74023 102.709425 
L 203.045774 111.556905 
L 203.962407 111.336585 
L 204.267951 112.013865 
L 204.573495 116.695665 
L 204.879039 115.802145 
L 205.184583 111.689505 
L 206.101216 111.667065 
L 206.40676 113.545905 
L 206.712304 116.222385 
L 207.017848 115.198305 
L 207.323392 120.277905 
L 208.240025 120.263625 
L 208.545569 121.020465 
L 208.851113 119.453745 
L 209.156657 127.373025 
L 209.462201 128.346105 
L 210.378834 128.015625 
L 210.684378 127.013985 
L 210.989922 131.785545 
L 211.295466 131.504025 
L 212.517643 133.664385 
L 212.823187 129.300825 
L 213.128731 135.218865 
L 213.434275 133.444065 
L 213.739819 136.279665 
L 214.656452 138.562425 
L 214.961996 141.293985 
L 215.26754 135.082185 
L 215.573084 132.030345 
L 215.878628 131.956905 
L 216.795261 132.095625 
L 217.100805 128.627625 
L 217.406349 127.568865 
L 217.711893 133.617465 
L 218.017437 132.552585 
L 218.93407 137.324145 
L 219.545158 127.146585 
L 219.850702 130.590105 
L 220.156247 132.032385 
L 221.072879 134.337585 
L 221.378423 127.020105 
L 221.683967 126.140865 
L 221.989511 130.857345 
L 222.295056 124.686345 
L 223.211688 122.850345 
L 223.517232 126.059265 
L 223.822776 126.826305 
L 224.433865 124.302825 
L 225.350497 128.301225 
L 225.656041 130.730865 
L 225.961585 129.129465 
L 226.267129 128.480745 
L 226.572674 125.526825 
L 227.489306 130.700265 
L 227.79485 129.747585 
L 228.100394 127.676985 
L 228.405939 123.796905 
L 228.711483 127.438305 
L 229.933659 128.509305 
L 230.239203 129.039705 
L 230.544748 136.822305 
L 230.850292 135.704385 
L 231.766924 130.506465 
L 232.072468 139.335585 
L 232.378012 137.799465 
L 232.683557 134.329425 
L 232.989101 133.788825 
L 233.905733 145.824825 
L 234.211277 141.561225 
L 234.516821 153.232065 
L 235.12791 133.099305 
L 236.350086 146.738745 
L 236.655631 147.218145 
L 236.961175 142.462905 
L 237.266719 141.628545 
L 238.183351 163.425945 
L 238.488895 151.198185 
L 238.79444 152.279385 
L 239.099984 161.822505 
L 240.32216 173.530065 
L 240.627704 185.904705 
L 240.933249 188.207865 
L 241.238793 203.511945 
L 241.544337 205.694745 
L 242.460969 184.452225 
L 242.766513 185.541585 
L 243.072058 203.936265 
L 243.377602 196.063905 
L 243.683146 197.263425 
L 244.599778 188.114025 
L 244.905323 194.305425 
L 245.210867 206.192505 
L 245.516411 203.881185 
L 245.821955 210.274545 
L 246.738587 215.955945 
L 247.044132 197.271585 
L 247.349676 199.397265 
L 247.65522 194.501265 
L 247.960764 191.510625 
L 248.877396 192.010425 
L 249.182941 183.962625 
L 249.794029 204.540105 
L 250.099573 199.213665 
L 251.016205 201.616785 
L 251.32175 205.749825 
L 251.627294 215.266425 
L 251.932838 203.232465 
L 252.238382 210.984465 
L 253.155014 215.582625 
L 253.460559 213.875145 
L 254.071647 235.637865 
L 254.377191 225.929505 
L 255.293824 215.366385 
L 255.599368 214.228065 
L 255.904912 208.048905 
L 256.516 206.302665 
L 257.432633 222.628785 
L 258.043721 211.504665 
L 258.349265 216.710745 
L 258.654809 210.417345 
L 259.571442 203.556825 
L 259.876986 207.846945 
L 260.18253 205.690665 
L 260.488074 210.923265 
L 260.793618 209.670705 
L 261.710251 211.947345 
L 262.015795 202.846905 
L 262.321339 204.633945 
L 262.626883 208.538505 
L 262.932427 208.008105 
L 263.84906 211.323105 
L 264.154604 213.050985 
L 264.460148 212.033025 
L 265.071236 211.084425 
L 265.987869 211.773945 
L 266.293413 207.445065 
L 267.210045 199.048425 
L 268.126678 199.935825 
L 268.432222 198.456825 
L 268.737766 204.179025 
L 269.04331 203.550705 
L 269.348854 207.504225 
L 270.265487 211.602585 
L 270.571031 211.290465 
L 270.876575 217.241145 
L 271.182119 217.012665 
L 271.487663 215.711145 
L 272.70984 224.870745 
L 273.015384 217.726665 
L 273.320928 220.325625 
L 273.626472 219.417825 
L 274.543105 218.475345 
L 274.848649 216.610785 
L 275.154193 210.821265 
L 275.765281 220.656105 
L 276.681914 220.745865 
L 276.987458 218.079585 
L 277.293002 219.360705 
L 277.598546 216.582225 
L 277.90409 211.941225 
L 278.820723 211.678065 
L 279.126267 220.394985 
L 279.431811 219.052665 
L 279.737355 218.756865 
L 280.0429 220.460265 
L 281.265076 228.144945 
L 281.57062 228.297945 
L 283.098341 237.496305 
L 283.403885 231.415065 
L 283.709429 233.096025 
L 284.014973 235.558305 
L 284.320518 239.177265 
L 285.23715 246.168345 
L 285.542694 247.084305 
L 285.848238 243.710145 
L 286.153782 249.895425 
L 286.459327 249.726105 
L 287.375959 251.123505 
L 287.681503 242.337225 
L 287.987047 241.978185 
L 288.292591 235.984665 
L 288.598136 234.799425 
L 289.514768 235.342065 
L 290.125856 227.088225 
L 290.431401 229.191465 
L 290.736945 232.353465 
L 291.653577 221.259945 
L 291.959121 224.687145 
L 292.264665 223.104105 
L 292.57021 219.232185 
L 292.875754 222.683865 
L 293.792386 228.479505 
L 294.403474 223.675305 
L 294.709019 218.922105 
L 295.014563 217.265625 
L 295.931195 218.697705 
L 296.236739 222.763425 
L 296.542283 220.802985 
L 296.847828 214.397385 
L 298.070004 213.954705 
L 298.375548 217.469625 
L 299.292181 211.737225 
L 300.208813 219.328065 
L 300.514357 215.719305 
L 300.819902 217.051425 
L 301.125446 215.343945 
L 301.43099 212.424705 
L 302.653166 214.682985 
L 302.958711 210.913065 
L 303.264255 211.082385 
L 303.569799 210.121545 
L 304.486431 204.058665 
L 304.791975 204.760425 
L 305.09752 201.551505 
L 305.403064 204.028065 
L 305.708608 199.572705 
L 306.62524 203.650665 
L 306.930785 203.832225 
L 307.236329 208.815945 
L 307.541873 206.949345 
L 307.847417 209.028105 
L 308.764049 203.554785 
L 309.069594 203.877105 
L 309.375138 204.827745 
L 309.680682 207.916305 
L 309.986226 208.187625 
L 311.208403 203.428305 
L 311.513947 206.951385 
L 312.125035 201.631065 
L 313.041667 196.790145 
L 313.347212 196.408665 
L 313.652756 199.056585 
L 313.9583 196.873785 
L 314.263844 197.357265 
L 315.180477 197.551065 
L 315.486021 196.879905 
L 315.791565 197.549025 
L 316.097109 196.378065 
L 316.402653 196.108785 
L 317.319286 200.696745 
L 317.62483 203.093745 
L 317.930374 203.350785 
L 318.235918 201.788145 
L 318.541462 201.204705 
L 319.458095 206.955465 
L 319.763639 206.535225 
L 320.069183 205.343865 
L 320.374727 201.402585 
L 320.680271 201.680025 
L 321.596904 199.980705 
L 321.902448 201.594345 
L 322.207992 200.776305 
L 322.513536 206.265945 
L 323.735713 205.796745 
L 324.041257 209.405505 
L 324.346801 209.705385 
L 324.652345 209.068905 
L 324.957889 209.793105 
L 326.180066 204.344265 
L 326.48561 198.868905 
L 326.791154 197.224665 
L 327.096698 197.298105 
L 328.318875 194.401305 
L 328.624419 194.505345 
L 328.929963 189.972465 
L 329.235507 189.366585 
L 330.15214 188.770905 
L 330.457684 189.293145 
L 330.763228 190.205025 
L 331.068772 187.838625 
L 331.374316 187.689705 
L 332.290949 184.599105 
L 332.596493 183.983025 
L 332.902037 184.580745 
L 333.207581 185.731305 
L 333.513125 182.997705 
L 334.429758 183.687225 
L 334.735302 186.288225 
L 335.040846 183.950385 
L 335.34639 182.538705 
L 336.568567 189.270705 
L 337.485199 183.632145 
L 337.790743 179.805105 
L 338.707376 179.919345 
L 339.01292 179.423625 
L 339.318464 179.399145 
L 339.624008 178.815705 
L 339.929552 179.233905 
L 340.846185 180.929145 
L 341.151729 185.535465 
L 341.457273 186.206625 
L 341.762817 184.474665 
L 342.068362 181.790025 
L 343.290538 179.956065 
L 343.901626 176.131065 
L 344.207171 176.418705 
L 345.123803 175.070265 
L 345.429347 174.399105 
L 345.734891 171.108585 
L 346.040435 171.775665 
L 346.34598 171.202425 
L 347.262612 171.944985 
L 347.568156 170.516985 
L 348.179244 174.776505 
L 348.484789 176.082105 
L 349.401421 172.287705 
L 349.706965 172.771185 
L 350.012509 173.491305 
L 350.318054 179.046225 
L 350.623598 179.992785 
L 351.54023 176.881785 
L 351.845774 173.972745 
L 352.151318 173.389305 
L 352.762407 170.551665 
L 353.679039 169.592865 
L 353.984583 170.204865 
L 354.290127 166.363545 
L 354.595672 165.437385 
L 354.901216 167.248905 
L 355.817848 165.161985 
L 356.123392 166.559385 
L 356.428936 168.530025 
L 356.734481 166.181985 
L 357.040025 168.897225 
L 358.262201 172.199985 
L 358.567746 176.439105 
L 358.87329 171.649185 
L 359.178834 177.752865 
L 360.706555 175.649625 
L 361.012099 171.543105 
L 361.317643 170.998425 
L 362.234275 166.147305 
L 362.539819 166.161585 
L 362.845364 165.039585 
L 363.150908 167.338665 
L 363.456452 166.065705 
L 364.373084 162.838425 
L 364.678628 162.630345 
L 364.984173 162.736425 
L 365.289717 165.776025 
L 365.595261 166.494105 
L 366.511893 163.462665 
L 366.817437 163.583025 
L 367.122982 162.567105 
L 367.73407 166.471665 
L 368.650702 165.627105 
L 368.956247 162.928185 
L 369.261791 162.850665 
L 369.567335 164.751945 
L 369.872879 163.515705 
L 370.789511 164.072625 
L 371.095056 166.379865 
L 371.4006 165.561825 
L 372.011688 163.427985 
L 372.92832 161.857185 
L 373.233865 163.117905 
L 373.539409 162.862905 
L 373.844953 165.535305 
L 374.150497 164.231745 
L 375.983762 159.333705 
L 377.205939 159.068505 
L 377.511483 159.390825 
L 377.817027 159.345945 
L 378.122571 161.655225 
L 379.650292 157.285545 
L 379.955836 157.159065 
L 380.566924 155.559705 
L 381.483557 155.151705 
L 381.789101 157.346745 
L 382.094645 155.416905 
L 382.400189 154.849785 
L 382.705733 157.385505 
L 383.92791 154.488705 
L 384.233454 156.975465 
L 384.844542 166.416585 
L 385.761175 165.392505 
L 386.066719 166.332945 
L 386.372263 165.245625 
L 386.983351 170.066145 
L 387.899984 166.940865 
L 388.205528 164.058345 
L 388.511072 165.290505 
L 388.816616 172.261185 
L 389.12216 171.632865 
L 390.038793 173.560665 
L 390.344337 170.749545 
L 390.649881 171.237105 
L 390.955425 169.127745 
L 391.260969 169.731585 
L 392.78869 164.835585 
L 393.094234 163.358625 
L 393.399778 162.864945 
L 394.316411 163.101585 
L 394.621955 165.837225 
L 394.927499 163.666665 
L 395.233043 164.135865 
L 395.538587 163.819665 
L 396.760764 161.000385 
L 397.066308 160.902465 
L 397.371852 160.049745 
L 397.677396 156.840825 
L 398.594029 156.881625 
L 398.899573 156.483825 
L 399.510661 154.486665 
L 399.816205 154.537665 
L 400.732838 154.431585 
L 401.343926 151.228785 
L 401.64947 151.306305 
L 401.955014 152.516025 
L 402.871647 151.310385 
L 403.177191 149.604945 
L 403.482735 150.920745 
L 403.788279 151.326705 
L 404.093824 151.151265 
L 405.010456 149.798745 
L 405.316 149.788545 
L 405.621544 150.571905 
L 405.927088 148.803225 
L 407.454809 146.489865 
L 407.760353 147.915825 
L 408.065897 147.101865 
L 408.371442 145.484145 
L 409.593618 144.886425 
L 409.899162 142.163025 
L 410.204706 141.954945 
L 410.510251 145.941105 
L 411.426883 144.841545 
L 411.732427 142.872945 
L 412.037971 143.123865 
L 412.343516 142.566945 
L 412.64906 140.810505 
L 413.565692 141.877425 
L 413.871236 147.658785 
L 414.17678 146.098185 
L 414.482325 142.952505 
L 414.787869 147.050865 
L 415.704501 143.874585 
L 416.010045 149.721225 
L 416.315589 151.298145 
L 416.621134 158.993025 
L 416.926678 162.516105 
L 417.84331 152.550705 
L 418.148854 153.354465 
L 418.454398 150.114945 
L 418.759943 153.017865 
L 419.065487 157.456905 
L 419.982119 157.199865 
L 420.287663 160.492425 
L 420.593208 161.665425 
L 420.898752 170.531265 
L 421.204296 167.246865 
L 422.120928 170.111025 
L 422.426472 170.033505 
L 422.732017 171.273825 
L 423.037561 164.111385 
L 423.343105 166.895985 
L 424.565281 170.710785 
L 424.870826 165.066105 
L 425.17637 164.158305 
L 425.481914 171.900105 
L 426.398546 174.839745 
L 426.70409 172.487625 
L 427.009635 173.774865 
L 427.315179 167.420265 
L 427.620723 166.449225 
L 428.537355 166.851105 
L 428.8429 161.628705 
L 429.148444 161.755185 
L 429.759532 161.163585 
L 430.676164 162.042825 
L 430.981709 165.692385 
L 431.287253 166.359465 
L 431.592797 170.102865 
L 431.898341 169.476585 
L 432.814973 169.923345 
L 433.120518 176.722665 
L 433.426062 178.870785 
L 433.731606 179.552145 
L 434.03715 180.529305 
L 435.259327 179.411385 
L 435.564871 172.840545 
L 436.175959 169.231785 
L 437.092591 169.070625 
L 437.398136 165.686265 
L 437.70368 165.720945 
L 438.009224 165.453705 
L 438.314768 171.900105 
L 439.231401 170.600625 
L 439.536945 168.105705 
L 439.842489 170.939265 
L 440.148033 166.026945 
L 440.453577 164.192985 
L 441.37021 161.673585 
L 441.675754 161.912265 
L 441.981298 163.485105 
L 442.286842 164.423505 
L 442.592386 164.409225 
L 443.509019 159.460185 
L 443.814563 160.561785 
L 444.120107 159.178665 
L 444.425651 159.470385 
L 444.731195 160.321065 
L 445.647828 159.066465 
L 445.953372 160.439385 
L 446.258916 166.883745 
L 446.870004 168.968625 
L 447.786637 168.942105 
L 448.092181 166.257465 
L 448.397725 165.926985 
L 448.703269 169.707105 
L 449.008813 170.510865 
L 449.925446 171.394185 
L 450.23099 174.554145 
L 450.536534 173.848305 
L 450.842078 175.502745 
L 451.147622 171.959265 
L 452.064255 175.155945 
L 452.369799 175.072305 
L 452.675343 168.756465 
L 452.980887 166.755225 
L 453.286431 163.815585 
L 454.508608 166.400265 
L 455.119696 163.882905 
L 455.42524 162.787425 
L 456.341873 160.268025 
L 456.647417 160.431225 
L 456.952961 159.621345 
L 457.258505 159.704985 
L 457.564049 159.515265 
L 458.480682 156.022785 
L 458.786226 156.620505 
L 459.09177 157.742505 
L 459.397314 159.670305 
L 459.702858 154.806945 
L 460.619491 156.134985 
L 460.925035 155.004825 
L 461.536123 156.330825 
L 461.841667 155.302665 
L 462.7583 157.181505 
L 463.063844 152.342625 
L 463.369388 152.501745 
L 463.674932 152.891385 
L 463.980477 151.445025 
L 464.897109 151.410345 
L 465.202653 150.502545 
L 465.508197 148.803225 
L 465.813741 149.678385 
L 466.119286 149.192865 
L 467.035918 147.454785 
L 467.341462 151.292025 
L 467.647006 148.788945 
L 468.258095 147.787305 
L 469.174727 147.269145 
L 469.480271 147.265065 
L 469.785815 147.915825 
L 470.091359 147.644505 
L 470.396904 147.750585 
L 471.313536 147.522105 
L 471.61908 145.647345 
L 471.924624 144.751785 
L 472.230168 140.039385 
L 472.535713 139.062225 
L 473.452345 139.592625 
L 473.757889 141.602025 
L 474.063433 140.518785 
L 474.368978 141.573465 
L 474.674522 144.496785 
L 475.591154 144.794625 
L 475.896698 148.754265 
L 476.202242 148.703265 
L 476.507787 145.010865 
L 476.813331 144.390705 
L 477.729963 144.776265 
L 478.035507 148.266705 
L 478.341051 144.672225 
L 478.95214 146.498025 
L 479.868772 146.832585 
L 480.174316 148.303425 
L 480.47986 143.097345 
L 480.785405 139.943505 
L 481.090949 139.294785 
L 482.007581 139.619145 
L 482.313125 139.490625 
L 482.924214 137.603625 
L 483.229758 136.094025 
L 484.14639 136.081785 
L 484.451934 135.851265 
L 484.757479 137.148705 
L 485.063023 135.590145 
L 486.285199 134.731305 
L 486.590743 133.197225 
L 486.896288 132.332265 
L 487.201832 132.754545 
L 488.424008 132.597465 
L 489.035097 132.140505 
L 489.340641 132.528105 
L 489.646185 132.577065 
L 490.562817 129.674145 
L 490.562817 129.674145 
" style="fill:none;stroke:#000000;stroke-linecap:round;stroke-width:1.5;"/>
   </g>
   <g id="patch_3">
    <path d="M 43.551729 266.735625 
L 43.551729 21.935625 
" style="fill:none;stroke:#cccccc;stroke-linecap:square;stroke-linejoin:miter;"/>
   </g>
   <g id="patch_4">
    <path d="M 489.951729 266.735625 
L 489.951729 21.935625 
" style="fill:none;stroke:#cccccc;stroke-linecap:square;stroke-linejoin:miter;"/>
   </g>
   <g id="patch_5">
    <path d="M 43.551729 266.735625 
L 489.951729 266.735625 
" style="fill:none;stroke:#cccccc;stroke-linecap:square;stroke-linejoin:miter;"/>
   </g>
   <g id="patch_6">
    <path d="M 43.551729 21.935625 
L 489.951729 21.935625 
" style="fill:none;stroke:#cccccc;stroke-linecap:square;stroke-linejoin:miter;"/>
   </g>
   <g id="patch_7">
    <path d="M 131.020723 42.37958 
Q 131.020723 50.105616 131.020723 57.831652 
L 132.020723 57.831652 
Q 131.020723 59.833818 130.020723 61.835985 
Q 129.020723 59.833818 128.020723 57.831652 
L 129.020723 57.831652 
Q 129.020723 50.105616 129.020723 42.37958 
L 131.020723 42.37958 
z
" style="stroke:#ffffff;stroke-linecap:round;"/>
   </g>
   <g id="text_17">
    <!-- Peak of bull market -->
    <defs>
     <path d="M 7.71875 0 
L 7.71875 71.578125 
L 34.71875 71.578125 
Q 41.84375 71.578125 45.609375 70.90625 
Q 50.875 70.015625 54.4375 67.546875 
Q 58.015625 65.09375 60.1875 60.640625 
Q 62.359375 56.203125 62.359375 50.875 
Q 62.359375 41.75 56.546875 35.421875 
Q 50.734375 29.109375 35.546875 29.109375 
L 17.1875 29.109375 
L 17.1875 0 
z
M 17.1875 37.546875 
L 35.6875 37.546875 
Q 44.875 37.546875 48.734375 40.96875 
Q 52.59375 44.390625 52.59375 50.59375 
Q 52.59375 55.078125 50.3125 58.265625 
Q 48.046875 61.46875 44.34375 62.5 
Q 41.9375 63.140625 35.5 63.140625 
L 17.1875 63.140625 
z
" id="ArialMT-80"/>
     <path d="M 42.09375 16.703125 
L 51.171875 15.578125 
Q 49.03125 7.625 43.21875 3.21875 
Q 37.40625 -1.171875 28.375 -1.171875 
Q 17 -1.171875 10.328125 5.828125 
Q 3.65625 12.84375 3.65625 25.484375 
Q 3.65625 38.578125 10.390625 45.796875 
Q 17.140625 53.03125 27.875 53.03125 
Q 38.28125 53.03125 44.875 45.953125 
Q 51.46875 38.875 51.46875 26.03125 
Q 51.46875 25.25 51.421875 23.6875 
L 12.75 23.6875 
Q 13.234375 15.140625 17.578125 10.59375 
Q 21.921875 6.0625 28.421875 6.0625 
Q 33.25 6.0625 36.671875 8.59375 
Q 40.09375 11.140625 42.09375 16.703125 
z
M 13.234375 30.90625 
L 42.1875 30.90625 
Q 41.609375 37.453125 38.875 40.71875 
Q 34.671875 45.796875 27.984375 45.796875 
Q 21.921875 45.796875 17.796875 41.75 
Q 13.671875 37.703125 13.234375 30.90625 
z
" id="ArialMT-101"/>
     <path d="M 40.4375 6.390625 
Q 35.546875 2.25 31.03125 0.53125 
Q 26.515625 -1.171875 21.34375 -1.171875 
Q 12.796875 -1.171875 8.203125 3 
Q 3.609375 7.171875 3.609375 13.671875 
Q 3.609375 17.484375 5.34375 20.625 
Q 7.078125 23.78125 9.890625 25.6875 
Q 12.703125 27.59375 16.21875 28.5625 
Q 18.796875 29.25 24.03125 29.890625 
Q 34.671875 31.15625 39.703125 32.90625 
Q 39.75 34.71875 39.75 35.203125 
Q 39.75 40.578125 37.25 42.78125 
Q 33.890625 45.75 27.25 45.75 
Q 21.046875 45.75 18.09375 43.578125 
Q 15.140625 41.40625 13.71875 35.890625 
L 5.125 37.0625 
Q 6.296875 42.578125 8.984375 45.96875 
Q 11.671875 49.359375 16.75 51.1875 
Q 21.828125 53.03125 28.515625 53.03125 
Q 35.15625 53.03125 39.296875 51.46875 
Q 43.453125 49.90625 45.40625 47.53125 
Q 47.359375 45.171875 48.140625 41.546875 
Q 48.578125 39.3125 48.578125 33.453125 
L 48.578125 21.734375 
Q 48.578125 9.46875 49.140625 6.21875 
Q 49.703125 2.984375 51.375 0 
L 42.1875 0 
Q 40.828125 2.734375 40.4375 6.390625 
z
M 39.703125 26.03125 
Q 34.90625 24.078125 25.34375 22.703125 
Q 19.921875 21.921875 17.671875 20.9375 
Q 15.4375 19.96875 14.203125 18.09375 
Q 12.984375 16.21875 12.984375 13.921875 
Q 12.984375 10.40625 15.640625 8.0625 
Q 18.3125 5.71875 23.4375 5.71875 
Q 28.515625 5.71875 32.46875 7.9375 
Q 36.421875 10.15625 38.28125 14.015625 
Q 39.703125 17 39.703125 22.796875 
z
" id="ArialMT-97"/>
     <path d="M 6.640625 0 
L 6.640625 71.578125 
L 15.4375 71.578125 
L 15.4375 30.765625 
L 36.234375 51.859375 
L 47.609375 51.859375 
L 27.78125 32.625 
L 49.609375 0 
L 38.765625 0 
L 21.625 26.515625 
L 15.4375 20.5625 
L 15.4375 0 
z
" id="ArialMT-107"/>
     <path id="ArialMT-32"/>
     <path d="M 3.328125 25.921875 
Q 3.328125 40.328125 11.328125 47.265625 
Q 18.015625 53.03125 27.640625 53.03125 
Q 38.328125 53.03125 45.109375 46.015625 
Q 51.90625 39.015625 51.90625 26.65625 
Q 51.90625 16.65625 48.90625 10.90625 
Q 45.90625 5.171875 40.15625 2 
Q 34.421875 -1.171875 27.640625 -1.171875 
Q 16.75 -1.171875 10.03125 5.8125 
Q 3.328125 12.796875 3.328125 25.921875 
z
M 12.359375 25.921875 
Q 12.359375 15.96875 16.703125 11.015625 
Q 21.046875 6.0625 27.640625 6.0625 
Q 34.1875 6.0625 38.53125 11.03125 
Q 42.875 16.015625 42.875 26.21875 
Q 42.875 35.84375 38.5 40.796875 
Q 34.125 45.75 27.640625 45.75 
Q 21.046875 45.75 16.703125 40.8125 
Q 12.359375 35.890625 12.359375 25.921875 
z
" id="ArialMT-111"/>
     <path d="M 8.6875 0 
L 8.6875 45.015625 
L 0.921875 45.015625 
L 0.921875 51.859375 
L 8.6875 51.859375 
L 8.6875 57.375 
Q 8.6875 62.59375 9.625 65.140625 
Q 10.890625 68.5625 14.078125 70.671875 
Q 17.28125 72.796875 23.046875 72.796875 
Q 26.765625 72.796875 31.25 71.921875 
L 29.9375 64.265625 
Q 27.203125 64.75 24.75 64.75 
Q 20.75 64.75 19.09375 63.03125 
Q 17.4375 61.328125 17.4375 56.640625 
L 17.4375 51.859375 
L 27.546875 51.859375 
L 27.546875 45.015625 
L 17.4375 45.015625 
L 17.4375 0 
z
" id="ArialMT-102"/>
     <path d="M 14.703125 0 
L 6.546875 0 
L 6.546875 71.578125 
L 15.328125 71.578125 
L 15.328125 46.046875 
Q 20.90625 53.03125 29.546875 53.03125 
Q 34.328125 53.03125 38.59375 51.09375 
Q 42.875 49.171875 45.625 45.671875 
Q 48.390625 42.1875 49.953125 37.25 
Q 51.515625 32.328125 51.515625 26.703125 
Q 51.515625 13.375 44.921875 6.09375 
Q 38.328125 -1.171875 29.109375 -1.171875 
Q 19.921875 -1.171875 14.703125 6.5 
z
M 14.59375 26.3125 
Q 14.59375 17 17.140625 12.84375 
Q 21.296875 6.0625 28.375 6.0625 
Q 34.125 6.0625 38.328125 11.0625 
Q 42.53125 16.0625 42.53125 25.984375 
Q 42.53125 36.140625 38.5 40.96875 
Q 34.46875 45.796875 28.765625 45.796875 
Q 23 45.796875 18.796875 40.796875 
Q 14.59375 35.796875 14.59375 26.3125 
z
" id="ArialMT-98"/>
     <path d="M 40.578125 0 
L 40.578125 7.625 
Q 34.515625 -1.171875 24.125 -1.171875 
Q 19.53125 -1.171875 15.546875 0.578125 
Q 11.578125 2.34375 9.640625 5 
Q 7.71875 7.671875 6.9375 11.53125 
Q 6.390625 14.109375 6.390625 19.734375 
L 6.390625 51.859375 
L 15.1875 51.859375 
L 15.1875 23.09375 
Q 15.1875 16.21875 15.71875 13.8125 
Q 16.546875 10.359375 19.234375 8.375 
Q 21.921875 6.390625 25.875 6.390625 
Q 29.828125 6.390625 33.296875 8.421875 
Q 36.765625 10.453125 38.203125 13.9375 
Q 39.65625 17.4375 39.65625 24.078125 
L 39.65625 51.859375 
L 48.4375 51.859375 
L 48.4375 0 
z
" id="ArialMT-117"/>
     <path d="M 6.390625 0 
L 6.390625 71.578125 
L 15.1875 71.578125 
L 15.1875 0 
z
" id="ArialMT-108"/>
     <path d="M 6.59375 0 
L 6.59375 51.859375 
L 14.453125 51.859375 
L 14.453125 44.578125 
Q 16.890625 48.390625 20.9375 50.703125 
Q 25 53.03125 30.171875 53.03125 
Q 35.9375 53.03125 39.625 50.640625 
Q 43.3125 48.25 44.828125 43.953125 
Q 50.984375 53.03125 60.84375 53.03125 
Q 68.5625 53.03125 72.703125 48.75 
Q 76.859375 44.484375 76.859375 35.59375 
L 76.859375 0 
L 68.109375 0 
L 68.109375 32.671875 
Q 68.109375 37.9375 67.25 40.25 
Q 66.40625 42.578125 64.15625 43.984375 
Q 61.921875 45.40625 58.890625 45.40625 
Q 53.421875 45.40625 49.796875 41.765625 
Q 46.1875 38.140625 46.1875 30.125 
L 46.1875 0 
L 37.40625 0 
L 37.40625 33.6875 
Q 37.40625 39.546875 35.25 42.46875 
Q 33.109375 45.40625 28.21875 45.40625 
Q 24.515625 45.40625 21.359375 43.453125 
Q 18.21875 41.5 16.796875 37.734375 
Q 15.375 33.984375 15.375 26.90625 
L 15.375 0 
z
" id="ArialMT-109"/>
     <path d="M 6.5 0 
L 6.5 51.859375 
L 14.40625 51.859375 
L 14.40625 44 
Q 17.4375 49.515625 20 51.265625 
Q 22.5625 53.03125 25.640625 53.03125 
Q 30.078125 53.03125 34.671875 50.203125 
L 31.640625 42.046875 
Q 28.421875 43.953125 25.203125 43.953125 
Q 22.3125 43.953125 20.015625 42.21875 
Q 17.71875 40.484375 16.75 37.40625 
Q 15.28125 32.71875 15.28125 27.15625 
L 15.28125 0 
z
" id="ArialMT-114"/>
     <path d="M 25.78125 7.859375 
L 27.046875 0.09375 
Q 23.34375 -0.6875 20.40625 -0.6875 
Q 15.625 -0.6875 12.984375 0.828125 
Q 10.359375 2.34375 9.28125 4.8125 
Q 8.203125 7.28125 8.203125 15.1875 
L 8.203125 45.015625 
L 1.765625 45.015625 
L 1.765625 51.859375 
L 8.203125 51.859375 
L 8.203125 64.703125 
L 16.9375 69.96875 
L 16.9375 51.859375 
L 25.78125 51.859375 
L 25.78125 45.015625 
L 16.9375 45.015625 
L 16.9375 14.703125 
Q 16.9375 10.9375 17.40625 9.859375 
Q 17.875 8.796875 18.921875 8.15625 
Q 19.96875 7.515625 21.921875 7.515625 
Q 23.390625 7.515625 25.78125 7.859375 
z
" id="ArialMT-116"/>
    </defs>
    <g style="fill:#262626;" transform="translate(130.020723 38.393797)scale(0.1 -0.1)">
     <use xlink:href="#ArialMT-80"/>
     <use x="66.699219" xlink:href="#ArialMT-101"/>
     <use x="122.314453" xlink:href="#ArialMT-97"/>
     <use x="177.929688" xlink:href="#ArialMT-107"/>
     <use x="227.929688" xlink:href="#ArialMT-32"/>
     <use x="255.712891" xlink:href="#ArialMT-111"/>
     <use x="311.328125" xlink:href="#ArialMT-102"/>
     <use x="339.111328" xlink:href="#ArialMT-32"/>
     <use x="366.894531" xlink:href="#ArialMT-98"/>
     <use x="422.509766" xlink:href="#ArialMT-117"/>
     <use x="478.125" xlink:href="#ArialMT-108"/>
     <use x="500.341797" xlink:href="#ArialMT-108"/>
     <use x="522.558594" xlink:href="#ArialMT-32"/>
     <use x="550.341797" xlink:href="#ArialMT-109"/>
     <use x="633.642578" xlink:href="#ArialMT-97"/>
     <use x="689.257812" xlink:href="#ArialMT-114"/>
     <use x="722.558594" xlink:href="#ArialMT-107"/>
     <use x="772.558594" xlink:href="#ArialMT-101"/>
     <use x="828.173828" xlink:href="#ArialMT-116"/>
    </g>
   </g>
   <g id="patch_8">
    <path d="M 177.768978 92.49014 
Q 177.768978 100.216176 177.768978 107.942212 
L 178.768978 107.942212 
Q 177.768978 109.944378 176.768978 111.946545 
Q 175.768978 109.944378 174.768978 107.942212 
L 175.768978 107.942212 
Q 175.768978 100.216176 175.768978 92.49014 
L 177.768978 92.49014 
z
" style="stroke:#ffffff;stroke-linecap:round;"/>
   </g>
   <g id="text_18">
    <!-- Bear Stearns Fails -->
    <defs>
     <path d="M 7.328125 0 
L 7.328125 71.578125 
L 34.1875 71.578125 
Q 42.390625 71.578125 47.34375 69.40625 
Q 52.296875 67.234375 55.09375 62.71875 
Q 57.90625 58.203125 57.90625 53.265625 
Q 57.90625 48.6875 55.421875 44.625 
Q 52.9375 40.578125 47.90625 38.09375 
Q 54.390625 36.1875 57.875 31.59375 
Q 61.375 27 61.375 20.75 
Q 61.375 15.71875 59.25 11.390625 
Q 57.125 7.078125 54 4.734375 
Q 50.875 2.390625 46.15625 1.1875 
Q 41.453125 0 34.625 0 
z
M 16.796875 41.5 
L 32.28125 41.5 
Q 38.578125 41.5 41.3125 42.328125 
Q 44.921875 43.40625 46.75 45.890625 
Q 48.578125 48.390625 48.578125 52.15625 
Q 48.578125 55.71875 46.875 58.421875 
Q 45.171875 61.140625 41.984375 62.140625 
Q 38.8125 63.140625 31.109375 63.140625 
L 16.796875 63.140625 
z
M 16.796875 8.453125 
L 34.625 8.453125 
Q 39.203125 8.453125 41.0625 8.796875 
Q 44.34375 9.375 46.53125 10.734375 
Q 48.734375 12.109375 50.140625 14.71875 
Q 51.5625 17.328125 51.5625 20.75 
Q 51.5625 24.75 49.515625 27.703125 
Q 47.46875 30.671875 43.828125 31.859375 
Q 40.1875 33.0625 33.34375 33.0625 
L 16.796875 33.0625 
z
" id="ArialMT-66"/>
     <path d="M 4.5 23 
L 13.421875 23.78125 
Q 14.0625 18.40625 16.375 14.96875 
Q 18.703125 11.53125 23.578125 9.40625 
Q 28.46875 7.28125 34.578125 7.28125 
Q 39.984375 7.28125 44.140625 8.890625 
Q 48.296875 10.5 50.3125 13.296875 
Q 52.34375 16.109375 52.34375 19.4375 
Q 52.34375 22.796875 50.390625 25.3125 
Q 48.4375 27.828125 43.953125 29.546875 
Q 41.0625 30.671875 31.203125 33.03125 
Q 21.34375 35.40625 17.390625 37.5 
Q 12.25 40.1875 9.734375 44.15625 
Q 7.234375 48.140625 7.234375 53.078125 
Q 7.234375 58.5 10.296875 63.203125 
Q 13.375 67.921875 19.28125 70.359375 
Q 25.203125 72.796875 32.421875 72.796875 
Q 40.375 72.796875 46.453125 70.234375 
Q 52.546875 67.671875 55.8125 62.6875 
Q 59.078125 57.71875 59.328125 51.421875 
L 50.25 50.734375 
Q 49.515625 57.515625 45.28125 60.984375 
Q 41.0625 64.453125 32.8125 64.453125 
Q 24.21875 64.453125 20.28125 61.296875 
Q 16.359375 58.15625 16.359375 53.71875 
Q 16.359375 49.859375 19.140625 47.359375 
Q 21.875 44.875 33.421875 42.265625 
Q 44.96875 39.65625 49.265625 37.703125 
Q 55.515625 34.8125 58.484375 30.390625 
Q 61.46875 25.984375 61.46875 20.21875 
Q 61.46875 14.5 58.203125 9.4375 
Q 54.9375 4.390625 48.796875 1.578125 
Q 42.671875 -1.21875 35.015625 -1.21875 
Q 25.296875 -1.21875 18.71875 1.609375 
Q 12.15625 4.4375 8.421875 10.125 
Q 4.6875 15.828125 4.5 23 
z
" id="ArialMT-83"/>
     <path d="M 6.59375 0 
L 6.59375 51.859375 
L 14.5 51.859375 
L 14.5 44.484375 
Q 20.21875 53.03125 31 53.03125 
Q 35.6875 53.03125 39.625 51.34375 
Q 43.5625 49.65625 45.515625 46.921875 
Q 47.46875 44.1875 48.25 40.4375 
Q 48.734375 37.984375 48.734375 31.890625 
L 48.734375 0 
L 39.9375 0 
L 39.9375 31.546875 
Q 39.9375 36.921875 38.90625 39.578125 
Q 37.890625 42.234375 35.28125 43.8125 
Q 32.671875 45.40625 29.15625 45.40625 
Q 23.53125 45.40625 19.453125 41.84375 
Q 15.375 38.28125 15.375 28.328125 
L 15.375 0 
z
" id="ArialMT-110"/>
     <path d="M 3.078125 15.484375 
L 11.765625 16.84375 
Q 12.5 11.625 15.84375 8.84375 
Q 19.1875 6.0625 25.203125 6.0625 
Q 31.25 6.0625 34.171875 8.515625 
Q 37.109375 10.984375 37.109375 14.3125 
Q 37.109375 17.28125 34.515625 19 
Q 32.71875 20.171875 25.53125 21.96875 
Q 15.875 24.421875 12.140625 26.203125 
Q 8.40625 27.984375 6.46875 31.125 
Q 4.546875 34.28125 4.546875 38.09375 
Q 4.546875 41.546875 6.125 44.5 
Q 7.71875 47.46875 10.453125 49.421875 
Q 12.5 50.921875 16.03125 51.96875 
Q 19.578125 53.03125 23.640625 53.03125 
Q 29.734375 53.03125 34.34375 51.265625 
Q 38.96875 49.515625 41.15625 46.5 
Q 43.359375 43.5 44.1875 38.484375 
L 35.59375 37.3125 
Q 35.015625 41.3125 32.203125 43.546875 
Q 29.390625 45.796875 24.265625 45.796875 
Q 18.21875 45.796875 15.625 43.796875 
Q 13.03125 41.796875 13.03125 39.109375 
Q 13.03125 37.40625 14.109375 36.03125 
Q 15.1875 34.625 17.484375 33.6875 
Q 18.796875 33.203125 25.25 31.453125 
Q 34.578125 28.953125 38.25 27.359375 
Q 41.9375 25.78125 44.03125 22.75 
Q 46.140625 19.734375 46.140625 15.234375 
Q 46.140625 10.84375 43.578125 6.953125 
Q 41.015625 3.078125 36.171875 0.953125 
Q 31.34375 -1.171875 25.25 -1.171875 
Q 15.140625 -1.171875 9.84375 3.03125 
Q 4.546875 7.234375 3.078125 15.484375 
z
" id="ArialMT-115"/>
     <path d="M 8.203125 0 
L 8.203125 71.578125 
L 56.5 71.578125 
L 56.5 63.140625 
L 17.671875 63.140625 
L 17.671875 40.96875 
L 51.265625 40.96875 
L 51.265625 32.515625 
L 17.671875 32.515625 
L 17.671875 0 
z
" id="ArialMT-70"/>
     <path d="M 6.640625 61.46875 
L 6.640625 71.578125 
L 15.4375 71.578125 
L 15.4375 61.46875 
z
M 6.640625 0 
L 6.640625 51.859375 
L 15.4375 51.859375 
L 15.4375 0 
z
" id="ArialMT-105"/>
    </defs>
    <g style="fill:#262626;" transform="translate(176.768978 88.504357)scale(0.1 -0.1)">
     <use xlink:href="#ArialMT-66"/>
     <use x="66.699219" xlink:href="#ArialMT-101"/>
     <use x="122.314453" xlink:href="#ArialMT-97"/>
     <use x="177.929688" xlink:href="#ArialMT-114"/>
     <use x="211.230469" xlink:href="#ArialMT-32"/>
     <use x="239.013672" xlink:href="#ArialMT-83"/>
     <use x="305.712891" xlink:href="#ArialMT-116"/>
     <use x="333.496094" xlink:href="#ArialMT-101"/>
     <use x="389.111328" xlink:href="#ArialMT-97"/>
     <use x="444.726562" xlink:href="#ArialMT-114"/>
     <use x="478.027344" xlink:href="#ArialMT-110"/>
     <use x="533.642578" xlink:href="#ArialMT-115"/>
     <use x="583.642578" xlink:href="#ArialMT-32"/>
     <use x="611.425781" xlink:href="#ArialMT-70"/>
     <use x="672.509766" xlink:href="#ArialMT-97"/>
     <use x="728.125" xlink:href="#ArialMT-105"/>
     <use x="750.341797" xlink:href="#ArialMT-108"/>
     <use x="772.558594" xlink:href="#ArialMT-115"/>
    </g>
   </g>
   <g id="patch_9">
    <path d="M 234.905733 116.285111 
Q 234.905733 123.955366 234.905733 131.625621 
L 235.905733 131.625621 
Q 234.905733 133.625223 233.905733 135.624825 
Q 232.905733 133.625223 231.905733 131.625621 
L 232.905733 131.625621 
Q 232.905733 123.955366 232.905733 116.285111 
L 234.905733 116.285111 
z
" style="stroke:#ffffff;stroke-linecap:round;"/>
   </g>
   <g id="text_19">
    <!-- Lehman Bankruptcy -->
    <defs>
     <path d="M 7.328125 0 
L 7.328125 71.578125 
L 16.796875 71.578125 
L 16.796875 8.453125 
L 52.046875 8.453125 
L 52.046875 0 
z
" id="ArialMT-76"/>
     <path d="M 6.59375 0 
L 6.59375 71.578125 
L 15.375 71.578125 
L 15.375 45.90625 
Q 21.53125 53.03125 30.90625 53.03125 
Q 36.671875 53.03125 40.921875 50.75 
Q 45.171875 48.484375 47 44.484375 
Q 48.828125 40.484375 48.828125 32.859375 
L 48.828125 0 
L 40.046875 0 
L 40.046875 32.859375 
Q 40.046875 39.453125 37.1875 42.453125 
Q 34.328125 45.453125 29.109375 45.453125 
Q 25.203125 45.453125 21.75 43.421875 
Q 18.3125 41.40625 16.84375 37.9375 
Q 15.375 34.46875 15.375 28.375 
L 15.375 0 
z
" id="ArialMT-104"/>
     <path d="M 6.59375 -19.875 
L 6.59375 51.859375 
L 14.59375 51.859375 
L 14.59375 45.125 
Q 17.4375 49.078125 21 51.046875 
Q 24.5625 53.03125 29.640625 53.03125 
Q 36.28125 53.03125 41.359375 49.609375 
Q 46.4375 46.1875 49.015625 39.953125 
Q 51.609375 33.734375 51.609375 26.3125 
Q 51.609375 18.359375 48.75 11.984375 
Q 45.90625 5.609375 40.453125 2.21875 
Q 35.015625 -1.171875 29 -1.171875 
Q 24.609375 -1.171875 21.109375 0.6875 
Q 17.625 2.546875 15.375 5.375 
L 15.375 -19.875 
z
M 14.546875 25.640625 
Q 14.546875 15.625 18.59375 10.84375 
Q 22.65625 6.0625 28.421875 6.0625 
Q 34.28125 6.0625 38.453125 11.015625 
Q 42.625 15.96875 42.625 26.375 
Q 42.625 36.28125 38.546875 41.203125 
Q 34.46875 46.140625 28.8125 46.140625 
Q 23.1875 46.140625 18.859375 40.890625 
Q 14.546875 35.640625 14.546875 25.640625 
z
" id="ArialMT-112"/>
     <path d="M 40.4375 19 
L 49.078125 17.875 
Q 47.65625 8.9375 41.8125 3.875 
Q 35.984375 -1.171875 27.484375 -1.171875 
Q 16.84375 -1.171875 10.375 5.78125 
Q 3.90625 12.75 3.90625 25.734375 
Q 3.90625 34.125 6.6875 40.421875 
Q 9.46875 46.734375 15.15625 49.875 
Q 20.84375 53.03125 27.546875 53.03125 
Q 35.984375 53.03125 41.359375 48.75 
Q 46.734375 44.484375 48.25 36.625 
L 39.703125 35.296875 
Q 38.484375 40.53125 35.375 43.15625 
Q 32.28125 45.796875 27.875 45.796875 
Q 21.234375 45.796875 17.078125 41.03125 
Q 12.9375 36.28125 12.9375 25.984375 
Q 12.9375 15.53125 16.9375 10.796875 
Q 20.953125 6.0625 27.390625 6.0625 
Q 32.5625 6.0625 36.03125 9.234375 
Q 39.5 12.40625 40.4375 19 
z
" id="ArialMT-99"/>
     <path d="M 6.203125 -19.96875 
L 5.21875 -11.71875 
Q 8.109375 -12.5 10.25 -12.5 
Q 13.1875 -12.5 14.9375 -11.515625 
Q 16.703125 -10.546875 17.828125 -8.796875 
Q 18.65625 -7.46875 20.515625 -2.25 
Q 20.75 -1.515625 21.296875 -0.09375 
L 1.609375 51.859375 
L 11.078125 51.859375 
L 21.875 21.828125 
Q 23.96875 16.109375 25.640625 9.8125 
Q 27.15625 15.875 29.25 21.625 
L 40.328125 51.859375 
L 49.125 51.859375 
L 29.390625 -0.875 
Q 26.21875 -9.421875 24.46875 -12.640625 
Q 22.125 -17 19.09375 -19.015625 
Q 16.0625 -21.046875 11.859375 -21.046875 
Q 9.328125 -21.046875 6.203125 -19.96875 
z
" id="ArialMT-121"/>
    </defs>
    <g style="fill:#262626;" transform="translate(233.905733 112.182637)scale(0.1 -0.1)">
     <use xlink:href="#ArialMT-76"/>
     <use x="55.615234" xlink:href="#ArialMT-101"/>
     <use x="111.230469" xlink:href="#ArialMT-104"/>
     <use x="166.845703" xlink:href="#ArialMT-109"/>
     <use x="250.146484" xlink:href="#ArialMT-97"/>
     <use x="305.761719" xlink:href="#ArialMT-110"/>
     <use x="361.376953" xlink:href="#ArialMT-32"/>
     <use x="389.160156" xlink:href="#ArialMT-66"/>
     <use x="455.859375" xlink:href="#ArialMT-97"/>
     <use x="511.474609" xlink:href="#ArialMT-110"/>
     <use x="567.089844" xlink:href="#ArialMT-107"/>
     <use x="617.089844" xlink:href="#ArialMT-114"/>
     <use x="650.390625" xlink:href="#ArialMT-117"/>
     <use x="706.005859" xlink:href="#ArialMT-112"/>
     <use x="761.621094" xlink:href="#ArialMT-116"/>
     <use x="789.404297" xlink:href="#ArialMT-99"/>
     <use x="839.404297" xlink:href="#ArialMT-121"/>
    </g>
   </g>
   <g id="text_20">
    <!-- Important dates in the 2008-2009 financial crisis -->
    <defs>
     <path d="M 9.328125 0 
L 9.328125 71.578125 
L 18.796875 71.578125 
L 18.796875 0 
z
" id="ArialMT-73"/>
     <path d="M 40.234375 0 
L 40.234375 6.546875 
Q 35.296875 -1.171875 25.734375 -1.171875 
Q 19.53125 -1.171875 14.328125 2.25 
Q 9.125 5.671875 6.265625 11.796875 
Q 3.421875 17.921875 3.421875 25.875 
Q 3.421875 33.640625 6 39.96875 
Q 8.59375 46.296875 13.765625 49.65625 
Q 18.953125 53.03125 25.34375 53.03125 
Q 30.03125 53.03125 33.6875 51.046875 
Q 37.359375 49.078125 39.65625 45.90625 
L 39.65625 71.578125 
L 48.390625 71.578125 
L 48.390625 0 
z
M 12.453125 25.875 
Q 12.453125 15.921875 16.640625 10.984375 
Q 20.84375 6.0625 26.5625 6.0625 
Q 32.328125 6.0625 36.34375 10.765625 
Q 40.375 15.484375 40.375 25.140625 
Q 40.375 35.796875 36.265625 40.765625 
Q 32.171875 45.75 26.171875 45.75 
Q 20.3125 45.75 16.375 40.96875 
Q 12.453125 36.1875 12.453125 25.875 
z
" id="ArialMT-100"/>
    </defs>
    <g style="fill:#262626;" transform="translate(139.354854 15.935625)scale(0.12 -0.12)">
     <use xlink:href="#ArialMT-73"/>
     <use x="27.783203" xlink:href="#ArialMT-109"/>
     <use x="111.083984" xlink:href="#ArialMT-112"/>
     <use x="166.699219" xlink:href="#ArialMT-111"/>
     <use x="222.314453" xlink:href="#ArialMT-114"/>
     <use x="255.615234" xlink:href="#ArialMT-116"/>
     <use x="283.398438" xlink:href="#ArialMT-97"/>
     <use x="339.013672" xlink:href="#ArialMT-110"/>
     <use x="394.628906" xlink:href="#ArialMT-116"/>
     <use x="422.412109" xlink:href="#ArialMT-32"/>
     <use x="450.195312" xlink:href="#ArialMT-100"/>
     <use x="505.810547" xlink:href="#ArialMT-97"/>
     <use x="561.425781" xlink:href="#ArialMT-116"/>
     <use x="589.208984" xlink:href="#ArialMT-101"/>
     <use x="644.824219" xlink:href="#ArialMT-115"/>
     <use x="694.824219" xlink:href="#ArialMT-32"/>
     <use x="722.607422" xlink:href="#ArialMT-105"/>
     <use x="744.824219" xlink:href="#ArialMT-110"/>
     <use x="800.439453" xlink:href="#ArialMT-32"/>
     <use x="828.222656" xlink:href="#ArialMT-116"/>
     <use x="856.005859" xlink:href="#ArialMT-104"/>
     <use x="911.621094" xlink:href="#ArialMT-101"/>
     <use x="967.236328" xlink:href="#ArialMT-32"/>
     <use x="995.019531" xlink:href="#ArialMT-50"/>
     <use x="1050.634766" xlink:href="#ArialMT-48"/>
     <use x="1106.25" xlink:href="#ArialMT-48"/>
     <use x="1161.865234" xlink:href="#ArialMT-56"/>
     <use x="1217.480469" xlink:href="#ArialMT-45"/>
     <use x="1250.78125" xlink:href="#ArialMT-50"/>
     <use x="1306.396484" xlink:href="#ArialMT-48"/>
     <use x="1362.011719" xlink:href="#ArialMT-48"/>
     <use x="1417.626953" xlink:href="#ArialMT-57"/>
     <use x="1473.242188" xlink:href="#ArialMT-32"/>
     <use x="1501.025391" xlink:href="#ArialMT-102"/>
     <use x="1528.808594" xlink:href="#ArialMT-105"/>
     <use x="1551.025391" xlink:href="#ArialMT-110"/>
     <use x="1606.640625" xlink:href="#ArialMT-97"/>
     <use x="1662.255859" xlink:href="#ArialMT-110"/>
     <use x="1717.871094" xlink:href="#ArialMT-99"/>
     <use x="1767.871094" xlink:href="#ArialMT-105"/>
     <use x="1790.087891" xlink:href="#ArialMT-97"/>
     <use x="1845.703125" xlink:href="#ArialMT-108"/>
     <use x="1867.919922" xlink:href="#ArialMT-32"/>
     <use x="1895.703125" xlink:href="#ArialMT-99"/>
     <use x="1945.703125" xlink:href="#ArialMT-114"/>
     <use x="1979.003906" xlink:href="#ArialMT-105"/>
     <use x="2001.220703" xlink:href="#ArialMT-115"/>
     <use x="2051.220703" xlink:href="#ArialMT-105"/>
     <use x="2073.4375" xlink:href="#ArialMT-115"/>
    </g>
   </g>
  </g>
 </g>
 <defs>
  <clipPath id="p87d18fdd33">
   <rect height="244.8" width="446.4" x="43.551729" y="21.935625"/>
  </clipPath>
 </defs>
</svg>
