<?xml version="1.0" encoding="utf-8" standalone="no"?>
<!DOCTYPE svg PUBLIC "-//W3C//DTD SVG 1.1//EN"
  "http://www.w3.org/Graphics/SVG/1.1/DTD/svg11.dtd">
<!-- Created with matplotlib (https://matplotlib.org/) -->
<svg height="333.909716pt" version="1.1" viewBox="0 0 481.2625 333.909716" width="481.2625pt" xmlns="http://www.w3.org/2000/svg" xmlns:xlink="http://www.w3.org/1999/xlink">
 <defs>
  <style type="text/css">
*{stroke-linecap:butt;stroke-linejoin:round;}
  </style>
 </defs>
 <g id="figure_1">
  <g id="patch_1">
   <path d="M 0 333.909716 
L 481.2625 333.909716 
L 481.2625 0 
L 0 0 
z
" style="fill:#ffffff;"/>
  </g>
  <g id="axes_1">
   <g id="patch_2">
    <path d="M 27.6625 293.735625 
L 474.0625 293.735625 
L 474.0625 21.935625 
L 27.6625 21.935625 
z
" style="fill:#ffffff;"/>
   </g>
   <g id="matplotlib.axis_1">
    <g id="xtick_1">
     <g id="line2d_1">
      <path clip-path="url(#p7bd7a4563a)" d="M 47.953409 293.735625 
L 47.953409 21.935625 
" style="fill:none;stroke:#cccccc;stroke-linecap:round;stroke-width:0.8;"/>
     </g>
     <g id="line2d_2"/>
     <g id="text_1">
      <!-- one -->
      <defs>
       <path d="M 3.328125 25.921875 
Q 3.328125 40.328125 11.328125 47.265625 
Q 18.015625 53.03125 27.640625 53.03125 
Q 38.328125 53.03125 45.109375 46.015625 
Q 51.90625 39.015625 51.90625 26.65625 
Q 51.90625 16.65625 48.90625 10.90625 
Q 45.90625 5.171875 40.15625 2 
Q 34.421875 -1.171875 27.640625 -1.171875 
Q 16.75 -1.171875 10.03125 5.8125 
Q 3.328125 12.796875 3.328125 25.921875 
z
M 12.359375 25.921875 
Q 12.359375 15.96875 16.703125 11.015625 
Q 21.046875 6.0625 27.640625 6.0625 
Q 34.1875 6.0625 38.53125 11.03125 
Q 42.875 16.015625 42.875 26.21875 
Q 42.875 35.84375 38.5 40.796875 
Q 34.125 45.75 27.640625 45.75 
Q 21.046875 45.75 16.703125 40.8125 
Q 12.359375 35.890625 12.359375 25.921875 
z
" id="ArialMT-111"/>
       <path d="M 6.59375 0 
L 6.59375 51.859375 
L 14.5 51.859375 
L 14.5 44.484375 
Q 20.21875 53.03125 31 53.03125 
Q 35.6875 53.03125 39.625 51.34375 
Q 43.5625 49.65625 45.515625 46.921875 
Q 47.46875 44.1875 48.25 40.4375 
Q 48.734375 37.984375 48.734375 31.890625 
L 48.734375 0 
L 39.9375 0 
L 39.9375 31.546875 
Q 39.9375 36.921875 38.90625 39.578125 
Q 37.890625 42.234375 35.28125 43.8125 
Q 32.671875 45.40625 29.15625 45.40625 
Q 23.53125 45.40625 19.453125 41.84375 
Q 15.375 38.28125 15.375 28.328125 
L 15.375 0 
z
" id="ArialMT-110"/>
       <path d="M 42.09375 16.703125 
L 51.171875 15.578125 
Q 49.03125 7.625 43.21875 3.21875 
Q 37.40625 -1.171875 28.375 -1.171875 
Q 17 -1.171875 10.328125 5.828125 
Q 3.65625 12.84375 3.65625 25.484375 
Q 3.65625 38.578125 10.390625 45.796875 
Q 17.140625 53.03125 27.875 53.03125 
Q 38.28125 53.03125 44.875 45.953125 
Q 51.46875 38.875 51.46875 26.03125 
Q 51.46875 25.25 51.421875 23.6875 
L 12.75 23.6875 
Q 13.234375 15.140625 17.578125 10.59375 
Q 21.921875 6.0625 28.421875 6.0625 
Q 33.25 6.0625 36.671875 8.59375 
Q 40.09375 11.140625 42.09375 16.703125 
z
M 13.234375 30.90625 
L 42.1875 30.90625 
Q 41.609375 37.453125 38.875 40.71875 
Q 34.671875 45.796875 27.984375 45.796875 
Q 21.921875 45.796875 17.796875 41.75 
Q 13.671875 37.703125 13.234375 30.90625 
z
" id="ArialMT-101"/>
      </defs>
      <g style="fill:#262626;" transform="translate(43.012643 309.347656)rotate(-30)scale(0.0833 -0.0833)">
       <use xlink:href="#ArialMT-111"/>
       <use x="55.615234" xlink:href="#ArialMT-110"/>
       <use x="111.230469" xlink:href="#ArialMT-101"/>
      </g>
     </g>
    </g>
    <g id="xtick_2">
     <g id="line2d_3">
      <path clip-path="url(#p7bd7a4563a)" d="M 149.509511 293.735625 
L 149.509511 21.935625 
" style="fill:none;stroke:#cccccc;stroke-linecap:round;stroke-width:0.8;"/>
     </g>
     <g id="line2d_4"/>
     <g id="text_2">
      <!-- two -->
      <defs>
       <path d="M 25.78125 7.859375 
L 27.046875 0.09375 
Q 23.34375 -0.6875 20.40625 -0.6875 
Q 15.625 -0.6875 12.984375 0.828125 
Q 10.359375 2.34375 9.28125 4.8125 
Q 8.203125 7.28125 8.203125 15.1875 
L 8.203125 45.015625 
L 1.765625 45.015625 
L 1.765625 51.859375 
L 8.203125 51.859375 
L 8.203125 64.703125 
L 16.9375 69.96875 
L 16.9375 51.859375 
L 25.78125 51.859375 
L 25.78125 45.015625 
L 16.9375 45.015625 
L 16.9375 14.703125 
Q 16.9375 10.9375 17.40625 9.859375 
Q 17.875 8.796875 18.921875 8.15625 
Q 19.96875 7.515625 21.921875 7.515625 
Q 23.390625 7.515625 25.78125 7.859375 
z
" id="ArialMT-116"/>
       <path d="M 16.15625 0 
L 0.296875 51.859375 
L 9.375 51.859375 
L 17.625 21.921875 
L 20.703125 10.796875 
Q 20.90625 11.625 23.390625 21.484375 
L 31.640625 51.859375 
L 40.671875 51.859375 
L 48.4375 21.78125 
L 51.03125 11.859375 
L 54 21.875 
L 62.890625 51.859375 
L 71.4375 51.859375 
L 55.21875 0 
L 46.09375 0 
L 37.84375 31.0625 
L 35.84375 39.890625 
L 25.34375 0 
z
" id="ArialMT-119"/>
      </defs>
      <g style="fill:#262626;" transform="translate(144.973405 308.880395)rotate(-30)scale(0.0833 -0.0833)">
       <use xlink:href="#ArialMT-116"/>
       <use x="27.783203" xlink:href="#ArialMT-119"/>
       <use x="100" xlink:href="#ArialMT-111"/>
      </g>
     </g>
    </g>
    <g id="xtick_3">
     <g id="line2d_5">
      <path clip-path="url(#p7bd7a4563a)" d="M 251.065612 293.735625 
L 251.065612 21.935625 
" style="fill:none;stroke:#cccccc;stroke-linecap:round;stroke-width:0.8;"/>
     </g>
     <g id="line2d_6"/>
     <g id="text_3">
      <!-- three -->
      <defs>
       <path d="M 6.59375 0 
L 6.59375 71.578125 
L 15.375 71.578125 
L 15.375 45.90625 
Q 21.53125 53.03125 30.90625 53.03125 
Q 36.671875 53.03125 40.921875 50.75 
Q 45.171875 48.484375 47 44.484375 
Q 48.828125 40.484375 48.828125 32.859375 
L 48.828125 0 
L 40.046875 0 
L 40.046875 32.859375 
Q 40.046875 39.453125 37.1875 42.453125 
Q 34.328125 45.453125 29.109375 45.453125 
Q 25.203125 45.453125 21.75 43.421875 
Q 18.3125 41.40625 16.84375 37.9375 
Q 15.375 34.46875 15.375 28.375 
L 15.375 0 
z
" id="ArialMT-104"/>
       <path d="M 6.5 0 
L 6.5 51.859375 
L 14.40625 51.859375 
L 14.40625 44 
Q 17.4375 49.515625 20 51.265625 
Q 22.5625 53.03125 25.640625 53.03125 
Q 30.078125 53.03125 34.671875 50.203125 
L 31.640625 42.046875 
Q 28.421875 43.953125 25.203125 43.953125 
Q 22.3125 43.953125 20.015625 42.21875 
Q 17.71875 40.484375 16.75 37.40625 
Q 15.28125 32.71875 15.28125 27.15625 
L 15.28125 0 
z
" id="ArialMT-114"/>
      </defs>
      <g style="fill:#262626;" transform="translate(243.921761 311.89156)rotate(-30)scale(0.0833 -0.0833)">
       <use xlink:href="#ArialMT-116"/>
       <use x="27.783203" xlink:href="#ArialMT-104"/>
       <use x="83.398438" xlink:href="#ArialMT-114"/>
       <use x="116.699219" xlink:href="#ArialMT-101"/>
       <use x="172.314453" xlink:href="#ArialMT-101"/>
      </g>
     </g>
    </g>
    <g id="xtick_4">
     <g id="line2d_7">
      <path clip-path="url(#p7bd7a4563a)" d="M 352.621714 293.735625 
L 352.621714 21.935625 
" style="fill:none;stroke:#cccccc;stroke-linecap:round;stroke-width:0.8;"/>
     </g>
     <g id="line2d_8"/>
     <g id="text_4">
      <!-- four -->
      <defs>
       <path d="M 8.6875 0 
L 8.6875 45.015625 
L 0.921875 45.015625 
L 0.921875 51.859375 
L 8.6875 51.859375 
L 8.6875 57.375 
Q 8.6875 62.59375 9.625 65.140625 
Q 10.890625 68.5625 14.078125 70.671875 
Q 17.28125 72.796875 23.046875 72.796875 
Q 26.765625 72.796875 31.25 71.921875 
L 29.9375 64.265625 
Q 27.203125 64.75 24.75 64.75 
Q 20.75 64.75 19.09375 63.03125 
Q 17.4375 61.328125 17.4375 56.640625 
L 17.4375 51.859375 
L 27.546875 51.859375 
L 27.546875 45.015625 
L 17.4375 45.015625 
L 17.4375 0 
z
" id="ArialMT-102"/>
       <path d="M 40.578125 0 
L 40.578125 7.625 
Q 34.515625 -1.171875 24.125 -1.171875 
Q 19.53125 -1.171875 15.546875 0.578125 
Q 11.578125 2.34375 9.640625 5 
Q 7.71875 7.671875 6.9375 11.53125 
Q 6.390625 14.109375 6.390625 19.734375 
L 6.390625 51.859375 
L 15.1875 51.859375 
L 15.1875 23.09375 
Q 15.1875 16.21875 15.71875 13.8125 
Q 16.546875 10.359375 19.234375 8.375 
Q 21.921875 6.390625 25.875 6.390625 
Q 29.828125 6.390625 33.296875 8.421875 
Q 36.765625 10.453125 38.203125 13.9375 
Q 39.65625 17.4375 39.65625 24.078125 
L 39.65625 51.859375 
L 48.4375 51.859375 
L 48.4375 0 
z
" id="ArialMT-117"/>
      </defs>
      <g style="fill:#262626;" transform="translate(347.48369 309.57543)rotate(-30)scale(0.0833 -0.0833)">
       <use xlink:href="#ArialMT-102"/>
       <use x="27.783203" xlink:href="#ArialMT-111"/>
       <use x="83.398438" xlink:href="#ArialMT-117"/>
       <use x="139.013672" xlink:href="#ArialMT-114"/>
      </g>
     </g>
    </g>
    <g id="xtick_5">
     <g id="line2d_9">
      <path clip-path="url(#p7bd7a4563a)" d="M 454.177815 293.735625 
L 454.177815 21.935625 
" style="fill:none;stroke:#cccccc;stroke-linecap:round;stroke-width:0.8;"/>
     </g>
     <g id="line2d_10"/>
     <g id="text_5">
      <!-- five -->
      <defs>
       <path d="M 6.640625 61.46875 
L 6.640625 71.578125 
L 15.4375 71.578125 
L 15.4375 61.46875 
z
M 6.640625 0 
L 6.640625 51.859375 
L 15.4375 51.859375 
L 15.4375 0 
z
" id="ArialMT-105"/>
       <path d="M 21 0 
L 1.265625 51.859375 
L 10.546875 51.859375 
L 21.6875 20.796875 
Q 23.484375 15.765625 25 10.359375 
Q 26.171875 14.453125 28.265625 20.21875 
L 39.796875 51.859375 
L 48.828125 51.859375 
L 29.203125 0 
z
" id="ArialMT-118"/>
      </defs>
      <g style="fill:#262626;" transform="translate(449.641709 308.880395)rotate(-30)scale(0.0833 -0.0833)">
       <use xlink:href="#ArialMT-102"/>
       <use x="27.783203" xlink:href="#ArialMT-105"/>
       <use x="50" xlink:href="#ArialMT-118"/>
       <use x="100" xlink:href="#ArialMT-101"/>
      </g>
     </g>
    </g>
    <g id="text_6">
     <!-- Stages -->
     <defs>
      <path d="M 4.5 23 
L 13.421875 23.78125 
Q 14.0625 18.40625 16.375 14.96875 
Q 18.703125 11.53125 23.578125 9.40625 
Q 28.46875 7.28125 34.578125 7.28125 
Q 39.984375 7.28125 44.140625 8.890625 
Q 48.296875 10.5 50.3125 13.296875 
Q 52.34375 16.109375 52.34375 19.4375 
Q 52.34375 22.796875 50.390625 25.3125 
Q 48.4375 27.828125 43.953125 29.546875 
Q 41.0625 30.671875 31.203125 33.03125 
Q 21.34375 35.40625 17.390625 37.5 
Q 12.25 40.1875 9.734375 44.15625 
Q 7.234375 48.140625 7.234375 53.078125 
Q 7.234375 58.5 10.296875 63.203125 
Q 13.375 67.921875 19.28125 70.359375 
Q 25.203125 72.796875 32.421875 72.796875 
Q 40.375 72.796875 46.453125 70.234375 
Q 52.546875 67.671875 55.8125 62.6875 
Q 59.078125 57.71875 59.328125 51.421875 
L 50.25 50.734375 
Q 49.515625 57.515625 45.28125 60.984375 
Q 41.0625 64.453125 32.8125 64.453125 
Q 24.21875 64.453125 20.28125 61.296875 
Q 16.359375 58.15625 16.359375 53.71875 
Q 16.359375 49.859375 19.140625 47.359375 
Q 21.875 44.875 33.421875 42.265625 
Q 44.96875 39.65625 49.265625 37.703125 
Q 55.515625 34.8125 58.484375 30.390625 
Q 61.46875 25.984375 61.46875 20.21875 
Q 61.46875 14.5 58.203125 9.4375 
Q 54.9375 4.390625 48.796875 1.578125 
Q 42.671875 -1.21875 35.015625 -1.21875 
Q 25.296875 -1.21875 18.71875 1.609375 
Q 12.15625 4.4375 8.421875 10.125 
Q 4.6875 15.828125 4.5 23 
z
" id="ArialMT-83"/>
      <path d="M 40.4375 6.390625 
Q 35.546875 2.25 31.03125 0.53125 
Q 26.515625 -1.171875 21.34375 -1.171875 
Q 12.796875 -1.171875 8.203125 3 
Q 3.609375 7.171875 3.609375 13.671875 
Q 3.609375 17.484375 5.34375 20.625 
Q 7.078125 23.78125 9.890625 25.6875 
Q 12.703125 27.59375 16.21875 28.5625 
Q 18.796875 29.25 24.03125 29.890625 
Q 34.671875 31.15625 39.703125 32.90625 
Q 39.75 34.71875 39.75 35.203125 
Q 39.75 40.578125 37.25 42.78125 
Q 33.890625 45.75 27.25 45.75 
Q 21.046875 45.75 18.09375 43.578125 
Q 15.140625 41.40625 13.71875 35.890625 
L 5.125 37.0625 
Q 6.296875 42.578125 8.984375 45.96875 
Q 11.671875 49.359375 16.75 51.1875 
Q 21.828125 53.03125 28.515625 53.03125 
Q 35.15625 53.03125 39.296875 51.46875 
Q 43.453125 49.90625 45.40625 47.53125 
Q 47.359375 45.171875 48.140625 41.546875 
Q 48.578125 39.3125 48.578125 33.453125 
L 48.578125 21.734375 
Q 48.578125 9.46875 49.140625 6.21875 
Q 49.703125 2.984375 51.375 0 
L 42.1875 0 
Q 40.828125 2.734375 40.4375 6.390625 
z
M 39.703125 26.03125 
Q 34.90625 24.078125 25.34375 22.703125 
Q 19.921875 21.921875 17.671875 20.9375 
Q 15.4375 19.96875 14.203125 18.09375 
Q 12.984375 16.21875 12.984375 13.921875 
Q 12.984375 10.40625 15.640625 8.0625 
Q 18.3125 5.71875 23.4375 5.71875 
Q 28.515625 5.71875 32.46875 7.9375 
Q 36.421875 10.15625 38.28125 14.015625 
Q 39.703125 17 39.703125 22.796875 
z
" id="ArialMT-97"/>
      <path d="M 4.984375 -4.296875 
L 13.53125 -5.5625 
Q 14.0625 -9.515625 16.5 -11.328125 
Q 19.78125 -13.765625 25.4375 -13.765625 
Q 31.546875 -13.765625 34.859375 -11.328125 
Q 38.1875 -8.890625 39.359375 -4.5 
Q 40.046875 -1.8125 39.984375 6.78125 
Q 34.234375 0 25.640625 0 
Q 14.9375 0 9.078125 7.71875 
Q 3.21875 15.4375 3.21875 26.21875 
Q 3.21875 33.640625 5.90625 39.90625 
Q 8.59375 46.1875 13.6875 49.609375 
Q 18.796875 53.03125 25.6875 53.03125 
Q 34.859375 53.03125 40.828125 45.609375 
L 40.828125 51.859375 
L 48.921875 51.859375 
L 48.921875 7.03125 
Q 48.921875 -5.078125 46.453125 -10.125 
Q 44 -15.1875 38.640625 -18.109375 
Q 33.296875 -21.046875 25.484375 -21.046875 
Q 16.21875 -21.046875 10.5 -16.875 
Q 4.78125 -12.703125 4.984375 -4.296875 
z
M 12.25 26.859375 
Q 12.25 16.65625 16.296875 11.96875 
Q 20.359375 7.28125 26.46875 7.28125 
Q 32.515625 7.28125 36.609375 11.9375 
Q 40.71875 16.609375 40.71875 26.5625 
Q 40.71875 36.078125 36.5 40.90625 
Q 32.28125 45.75 26.3125 45.75 
Q 20.453125 45.75 16.34375 40.984375 
Q 12.25 36.234375 12.25 26.859375 
z
" id="ArialMT-103"/>
      <path d="M 3.078125 15.484375 
L 11.765625 16.84375 
Q 12.5 11.625 15.84375 8.84375 
Q 19.1875 6.0625 25.203125 6.0625 
Q 31.25 6.0625 34.171875 8.515625 
Q 37.109375 10.984375 37.109375 14.3125 
Q 37.109375 17.28125 34.515625 19 
Q 32.71875 20.171875 25.53125 21.96875 
Q 15.875 24.421875 12.140625 26.203125 
Q 8.40625 27.984375 6.46875 31.125 
Q 4.546875 34.28125 4.546875 38.09375 
Q 4.546875 41.546875 6.125 44.5 
Q 7.71875 47.46875 10.453125 49.421875 
Q 12.5 50.921875 16.03125 51.96875 
Q 19.578125 53.03125 23.640625 53.03125 
Q 29.734375 53.03125 34.34375 51.265625 
Q 38.96875 49.515625 41.15625 46.5 
Q 43.359375 43.5 44.1875 38.484375 
L 35.59375 37.3125 
Q 35.015625 41.3125 32.203125 43.546875 
Q 29.390625 45.796875 24.265625 45.796875 
Q 18.21875 45.796875 15.625 43.796875 
Q 13.03125 41.796875 13.03125 39.109375 
Q 13.03125 37.40625 14.109375 36.03125 
Q 15.1875 34.625 17.484375 33.6875 
Q 18.796875 33.203125 25.25 31.453125 
Q 34.578125 28.953125 38.25 27.359375 
Q 41.9375 25.78125 44.03125 22.75 
Q 46.140625 19.734375 46.140625 15.234375 
Q 46.140625 10.84375 43.578125 6.953125 
Q 41.015625 3.078125 36.171875 0.953125 
Q 31.34375 -1.171875 25.25 -1.171875 
Q 15.140625 -1.171875 9.84375 3.03125 
Q 4.546875 7.234375 3.078125 15.484375 
z
" id="ArialMT-115"/>
     </defs>
     <g style="fill:#262626;" transform="translate(235.296875 324.605029)scale(0.1 -0.1)">
      <use xlink:href="#ArialMT-83"/>
      <use x="66.699219" xlink:href="#ArialMT-116"/>
      <use x="94.482422" xlink:href="#ArialMT-97"/>
      <use x="150.097656" xlink:href="#ArialMT-103"/>
      <use x="205.712891" xlink:href="#ArialMT-101"/>
      <use x="261.328125" xlink:href="#ArialMT-115"/>
     </g>
    </g>
   </g>
   <g id="matplotlib.axis_2">
    <g id="ytick_1">
     <g id="line2d_11">
      <path clip-path="url(#p7bd7a4563a)" d="M 27.6625 285.062236 
L 474.0625 285.062236 
" style="fill:none;stroke:#cccccc;stroke-linecap:round;stroke-width:0.8;"/>
     </g>
     <g id="line2d_12"/>
     <g id="text_7">
      <!-- −60 -->
      <defs>
       <path d="M 52.828125 31.203125 
L 5.5625 31.203125 
L 5.5625 39.40625 
L 52.828125 39.40625 
z
" id="ArialMT-8722"/>
       <path d="M 49.75 54.046875 
L 41.015625 53.375 
Q 39.84375 58.546875 37.703125 60.890625 
Q 34.125 64.65625 28.90625 64.65625 
Q 24.703125 64.65625 21.53125 62.3125 
Q 17.390625 59.28125 14.984375 53.46875 
Q 12.59375 47.65625 12.5 36.921875 
Q 15.671875 41.75 20.265625 44.09375 
Q 24.859375 46.4375 29.890625 46.4375 
Q 38.671875 46.4375 44.84375 39.96875 
Q 51.03125 33.5 51.03125 23.25 
Q 51.03125 16.5 48.125 10.71875 
Q 45.21875 4.9375 40.140625 1.859375 
Q 35.0625 -1.21875 28.609375 -1.21875 
Q 17.625 -1.21875 10.6875 6.859375 
Q 3.765625 14.9375 3.765625 33.5 
Q 3.765625 54.25 11.421875 63.671875 
Q 18.109375 71.875 29.4375 71.875 
Q 37.890625 71.875 43.28125 67.140625 
Q 48.6875 62.40625 49.75 54.046875 
z
M 13.875 23.1875 
Q 13.875 18.65625 15.796875 14.5 
Q 17.71875 10.359375 21.1875 8.171875 
Q 24.65625 6 28.46875 6 
Q 34.03125 6 38.03125 10.484375 
Q 42.046875 14.984375 42.046875 22.703125 
Q 42.046875 30.125 38.078125 34.390625 
Q 34.125 38.671875 28.125 38.671875 
Q 22.171875 38.671875 18.015625 34.390625 
Q 13.875 30.125 13.875 23.1875 
z
" id="ArialMT-54"/>
       <path d="M 4.15625 35.296875 
Q 4.15625 48 6.765625 55.734375 
Q 9.375 63.484375 14.515625 67.671875 
Q 19.671875 71.875 27.484375 71.875 
Q 33.25 71.875 37.59375 69.546875 
Q 41.9375 67.234375 44.765625 62.859375 
Q 47.609375 58.5 49.21875 52.21875 
Q 50.828125 45.953125 50.828125 35.296875 
Q 50.828125 22.703125 48.234375 14.96875 
Q 45.65625 7.234375 40.5 3 
Q 35.359375 -1.21875 27.484375 -1.21875 
Q 17.140625 -1.21875 11.234375 6.203125 
Q 4.15625 15.140625 4.15625 35.296875 
z
M 13.1875 35.296875 
Q 13.1875 17.671875 17.3125 11.828125 
Q 21.4375 6 27.484375 6 
Q 33.546875 6 37.671875 11.859375 
Q 41.796875 17.71875 41.796875 35.296875 
Q 41.796875 52.984375 37.671875 58.78125 
Q 33.546875 64.59375 27.390625 64.59375 
Q 21.34375 64.59375 17.71875 59.46875 
Q 13.1875 52.9375 13.1875 35.296875 
z
" id="ArialMT-48"/>
      </defs>
      <g style="fill:#262626;" transform="translate(7.2 288.641143)scale(0.1 -0.1)">
       <use xlink:href="#ArialMT-8722"/>
       <use x="58.398438" xlink:href="#ArialMT-54"/>
       <use x="114.013672" xlink:href="#ArialMT-48"/>
      </g>
     </g>
    </g>
    <g id="ytick_2">
     <g id="line2d_13">
      <path clip-path="url(#p7bd7a4563a)" d="M 27.6625 246.939718 
L 474.0625 246.939718 
" style="fill:none;stroke:#cccccc;stroke-linecap:round;stroke-width:0.8;"/>
     </g>
     <g id="line2d_14"/>
     <g id="text_8">
      <!-- −50 -->
      <defs>
       <path d="M 4.15625 18.75 
L 13.375 19.53125 
Q 14.40625 12.796875 18.140625 9.390625 
Q 21.875 6 27.15625 6 
Q 33.5 6 37.890625 10.78125 
Q 42.28125 15.578125 42.28125 23.484375 
Q 42.28125 31 38.0625 35.34375 
Q 33.84375 39.703125 27 39.703125 
Q 22.75 39.703125 19.328125 37.765625 
Q 15.921875 35.84375 13.96875 32.765625 
L 5.71875 33.84375 
L 12.640625 70.609375 
L 48.25 70.609375 
L 48.25 62.203125 
L 19.671875 62.203125 
L 15.828125 42.96875 
Q 22.265625 47.46875 29.34375 47.46875 
Q 38.71875 47.46875 45.15625 40.96875 
Q 51.609375 34.46875 51.609375 24.265625 
Q 51.609375 14.546875 45.953125 7.46875 
Q 39.0625 -1.21875 27.15625 -1.21875 
Q 17.390625 -1.21875 11.203125 4.25 
Q 5.03125 9.71875 4.15625 18.75 
z
" id="ArialMT-53"/>
      </defs>
      <g style="fill:#262626;" transform="translate(7.2 250.518624)scale(0.1 -0.1)">
       <use xlink:href="#ArialMT-8722"/>
       <use x="58.398438" xlink:href="#ArialMT-53"/>
       <use x="114.013672" xlink:href="#ArialMT-48"/>
      </g>
     </g>
    </g>
    <g id="ytick_3">
     <g id="line2d_15">
      <path clip-path="url(#p7bd7a4563a)" d="M 27.6625 208.817199 
L 474.0625 208.817199 
" style="fill:none;stroke:#cccccc;stroke-linecap:round;stroke-width:0.8;"/>
     </g>
     <g id="line2d_16"/>
     <g id="text_9">
      <!-- −40 -->
      <defs>
       <path d="M 32.328125 0 
L 32.328125 17.140625 
L 1.265625 17.140625 
L 1.265625 25.203125 
L 33.9375 71.578125 
L 41.109375 71.578125 
L 41.109375 25.203125 
L 50.78125 25.203125 
L 50.78125 17.140625 
L 41.109375 17.140625 
L 41.109375 0 
z
M 32.328125 25.203125 
L 32.328125 57.46875 
L 9.90625 25.203125 
z
" id="ArialMT-52"/>
      </defs>
      <g style="fill:#262626;" transform="translate(7.2 212.396106)scale(0.1 -0.1)">
       <use xlink:href="#ArialMT-8722"/>
       <use x="58.398438" xlink:href="#ArialMT-52"/>
       <use x="114.013672" xlink:href="#ArialMT-48"/>
      </g>
     </g>
    </g>
    <g id="ytick_4">
     <g id="line2d_17">
      <path clip-path="url(#p7bd7a4563a)" d="M 27.6625 170.694681 
L 474.0625 170.694681 
" style="fill:none;stroke:#cccccc;stroke-linecap:round;stroke-width:0.8;"/>
     </g>
     <g id="line2d_18"/>
     <g id="text_10">
      <!-- −30 -->
      <defs>
       <path d="M 4.203125 18.890625 
L 12.984375 20.0625 
Q 14.5 12.59375 18.140625 9.296875 
Q 21.78125 6 27 6 
Q 33.203125 6 37.46875 10.296875 
Q 41.75 14.59375 41.75 20.953125 
Q 41.75 27 37.796875 30.921875 
Q 33.84375 34.859375 27.734375 34.859375 
Q 25.25 34.859375 21.53125 33.890625 
L 22.515625 41.609375 
Q 23.390625 41.5 23.921875 41.5 
Q 29.546875 41.5 34.03125 44.421875 
Q 38.53125 47.359375 38.53125 53.46875 
Q 38.53125 58.296875 35.25 61.46875 
Q 31.984375 64.65625 26.8125 64.65625 
Q 21.6875 64.65625 18.265625 61.421875 
Q 14.84375 58.203125 13.875 51.765625 
L 5.078125 53.328125 
Q 6.6875 62.15625 12.390625 67.015625 
Q 18.109375 71.875 26.609375 71.875 
Q 32.46875 71.875 37.390625 69.359375 
Q 42.328125 66.84375 44.9375 62.5 
Q 47.5625 58.15625 47.5625 53.265625 
Q 47.5625 48.640625 45.0625 44.828125 
Q 42.578125 41.015625 37.703125 38.765625 
Q 44.046875 37.3125 47.5625 32.6875 
Q 51.078125 28.078125 51.078125 21.140625 
Q 51.078125 11.765625 44.234375 5.25 
Q 37.40625 -1.265625 26.953125 -1.265625 
Q 17.53125 -1.265625 11.296875 4.34375 
Q 5.078125 9.96875 4.203125 18.890625 
z
" id="ArialMT-51"/>
      </defs>
      <g style="fill:#262626;" transform="translate(7.2 174.273587)scale(0.1 -0.1)">
       <use xlink:href="#ArialMT-8722"/>
       <use x="58.398438" xlink:href="#ArialMT-51"/>
       <use x="114.013672" xlink:href="#ArialMT-48"/>
      </g>
     </g>
    </g>
    <g id="ytick_5">
     <g id="line2d_19">
      <path clip-path="url(#p7bd7a4563a)" d="M 27.6625 132.572162 
L 474.0625 132.572162 
" style="fill:none;stroke:#cccccc;stroke-linecap:round;stroke-width:0.8;"/>
     </g>
     <g id="line2d_20"/>
     <g id="text_11">
      <!-- −20 -->
      <defs>
       <path d="M 50.34375 8.453125 
L 50.34375 0 
L 3.03125 0 
Q 2.9375 3.171875 4.046875 6.109375 
Q 5.859375 10.9375 9.828125 15.625 
Q 13.8125 20.3125 21.34375 26.46875 
Q 33.015625 36.03125 37.109375 41.625 
Q 41.21875 47.21875 41.21875 52.203125 
Q 41.21875 57.421875 37.46875 61 
Q 33.734375 64.59375 27.734375 64.59375 
Q 21.390625 64.59375 17.578125 60.78125 
Q 13.765625 56.984375 13.71875 50.25 
L 4.6875 51.171875 
Q 5.609375 61.28125 11.65625 66.578125 
Q 17.71875 71.875 27.9375 71.875 
Q 38.234375 71.875 44.234375 66.15625 
Q 50.25 60.453125 50.25 52 
Q 50.25 47.703125 48.484375 43.546875 
Q 46.734375 39.40625 42.65625 34.8125 
Q 38.578125 30.21875 29.109375 22.21875 
Q 21.1875 15.578125 18.9375 13.203125 
Q 16.703125 10.84375 15.234375 8.453125 
z
" id="ArialMT-50"/>
      </defs>
      <g style="fill:#262626;" transform="translate(7.2 136.151069)scale(0.1 -0.1)">
       <use xlink:href="#ArialMT-8722"/>
       <use x="58.398438" xlink:href="#ArialMT-50"/>
       <use x="114.013672" xlink:href="#ArialMT-48"/>
      </g>
     </g>
    </g>
    <g id="ytick_6">
     <g id="line2d_21">
      <path clip-path="url(#p7bd7a4563a)" d="M 27.6625 94.449644 
L 474.0625 94.449644 
" style="fill:none;stroke:#cccccc;stroke-linecap:round;stroke-width:0.8;"/>
     </g>
     <g id="line2d_22"/>
     <g id="text_12">
      <!-- −10 -->
      <defs>
       <path d="M 37.25 0 
L 28.46875 0 
L 28.46875 56 
Q 25.296875 52.984375 20.140625 49.953125 
Q 14.984375 46.921875 10.890625 45.40625 
L 10.890625 53.90625 
Q 18.265625 57.375 23.78125 62.296875 
Q 29.296875 67.234375 31.59375 71.875 
L 37.25 71.875 
z
" id="ArialMT-49"/>
      </defs>
      <g style="fill:#262626;" transform="translate(7.2 98.02855)scale(0.1 -0.1)">
       <use xlink:href="#ArialMT-8722"/>
       <use x="58.398438" xlink:href="#ArialMT-49"/>
       <use x="114.013672" xlink:href="#ArialMT-48"/>
      </g>
     </g>
    </g>
    <g id="ytick_7">
     <g id="line2d_23">
      <path clip-path="url(#p7bd7a4563a)" d="M 27.6625 56.327126 
L 474.0625 56.327126 
" style="fill:none;stroke:#cccccc;stroke-linecap:round;stroke-width:0.8;"/>
     </g>
     <g id="line2d_24"/>
     <g id="text_13">
      <!-- 0 -->
      <g style="fill:#262626;" transform="translate(18.601563 59.906032)scale(0.1 -0.1)">
       <use xlink:href="#ArialMT-48"/>
      </g>
     </g>
    </g>
   </g>
   <g id="line2d_25">
    <path clip-path="url(#p7bd7a4563a)" d="M 47.953409 57.766429 
L 48.359633 54.508316 
L 48.765858 53.202897 
L 49.172082 54.054653 
L 49.578307 44.660038 
L 49.984531 43.921102 
L 50.390756 39.605614 
L 50.79698 41.744214 
L 51.203204 46.940089 
L 51.609429 49.958464 
L 52.015653 50.980185 
L 52.421878 52.87338 
L 52.828102 47.778739 
L 53.234326 48.236366 
L 53.640551 46.477131 
L 54.046775 46.654329 
L 54.453 48.307147 
L 54.859224 48.162297 
L 55.265448 41.627901 
L 55.671673 44.555514 
L 56.077897 41.631554 
L 56.484122 45.542952 
L 56.890346 47.295163 
L 57.29657 47.281503 
L 57.702795 46.037279 
L 58.109019 40.383219 
L 58.515244 40.574147 
L 58.921468 43.790222 
L 59.327692 41.312098 
L 59.733917 42.700405 
L 60.140141 41.790491 
L 60.546366 42.23356 
L 60.95259 49.642507 
L 61.765039 45.480797 
L 62.171263 41.948346 
L 62.577488 35.084529 
L 62.983712 39.640565 
L 63.796161 36.111173 
L 64.202385 37.708819 
L 65.014834 34.29017 
L 65.421059 38.9361 
L 65.827283 37.997437 
L 66.233507 41.497024 
L 66.639732 43.982065 
L 67.045956 50.74784 
L 67.452181 52.552411 
L 67.858405 53.328473 
L 68.264629 51.232281 
L 68.670854 51.22885 
L 69.077078 57.108441 
L 69.483303 53.821715 
L 69.889527 54.273797 
L 70.295751 52.412006 
L 70.701976 48.729614 
L 71.1082 43.306286 
L 71.514425 35.829595 
L 71.920649 36.104987 
L 72.326873 34.918903 
L 72.733098 39.029887 
L 73.139322 34.982799 
L 73.545547 39.499889 
L 73.951771 46.381963 
L 74.357995 43.216322 
L 74.76422 45.205161 
L 75.170444 42.240726 
L 75.576669 40.685043 
L 75.982893 46.899023 
L 76.389118 57.267126 
L 76.795342 61.447648 
L 77.201566 61.384778 
L 77.607791 66.042497 
L 78.014015 68.530988 
L 78.42024 74.092838 
L 78.826464 73.44522 
L 79.232688 73.098969 
L 79.638913 74.934159 
L 80.451362 63.898527 
L 80.857586 61.743586 
L 81.26381 68.604767 
L 81.670035 72.816124 
L 82.076259 71.264041 
L 82.888708 75.517176 
L 83.294932 72.090086 
L 83.701157 70.142502 
L 84.107381 65.132615 
L 84.513606 66.768869 
L 84.91983 61.526163 
L 85.326054 63.638651 
L 85.732279 57.922212 
L 86.138503 57.518743 
L 86.544728 60.799223 
L 86.950952 67.017843 
L 87.763401 69.143955 
L 88.169625 65.874332 
L 88.57585 66.295931 
L 88.982074 67.94447 
L 89.388299 63.838532 
L 89.794523 64.695628 
L 90.200747 66.892406 
L 90.606972 64.701853 
L 91.013196 66.569201 
L 91.419421 64.057681 
L 91.825645 66.33328 
L 92.231869 67.183256 
L 92.638094 66.603119 
L 93.044318 68.029383 
L 93.450543 68.080663 
L 93.856767 64.971879 
L 94.669216 61.572983 
L 95.07544 63.995404 
L 96.294113 54.362563 
L 96.700338 57.131653 
L 97.106562 57.789108 
L 97.512787 55.373917 
L 97.919011 57.694874 
L 98.325235 58.55691 
L 99.137684 43.774649 
L 99.950133 35.46956 
L 100.356357 39.355202 
L 100.762582 37.401186 
L 101.168806 38.770229 
L 101.575031 42.805772 
L 101.981255 44.74623 
L 102.38748 44.305286 
L 103.199928 48.491729 
L 103.606153 45.472267 
L 104.012377 44.922897 
L 104.418602 44.032896 
L 104.824826 43.60641 
L 105.23105 46.182361 
L 105.637275 51.407326 
L 106.043499 50.223375 
L 106.449724 52.156327 
L 106.855948 59.821935 
L 107.262172 61.3185 
L 107.668397 65.48231 
L 108.480846 60.830313 
L 108.88707 58.936031 
L 109.293294 61.471337 
L 109.699519 58.682478 
L 110.105743 57.463893 
L 110.918192 60.754598 
L 111.324416 57.35137 
L 111.730641 59.156868 
L 112.136865 57.999253 
L 112.54309 54.057548 
L 113.355538 40.43555 
L 113.761763 37.001387 
L 114.167987 42.7423 
L 114.980436 47.458573 
L 115.386661 41.156349 
L 115.792885 43.822325 
L 116.199109 42.350162 
L 116.605334 41.965631 
L 117.011558 45.530572 
L 117.824007 42.556557 
L 118.230231 47.343887 
L 118.636456 42.681971 
L 119.04268 50.636272 
L 119.448905 52.888387 
L 119.855129 49.182992 
L 120.261353 53.731991 
L 120.667578 52.396689 
L 121.073802 57.338742 
L 121.480027 57.693373 
L 121.886251 66.514059 
L 122.292475 69.726154 
L 122.6987 75.608159 
L 123.511149 78.722751 
L 123.917373 81.290928 
L 124.323597 78.249082 
L 124.729822 81.630091 
L 125.136046 79.211649 
L 125.542271 73.000439 
L 125.948495 72.470292 
L 126.354719 75.739946 
L 126.760944 80.50274 
L 127.167168 83.208619 
L 127.573393 80.522344 
L 127.979617 79.929193 
L 128.792066 73.421198 
L 129.19829 72.884392 
L 129.604515 71.079336 
L 130.416964 58.609832 
L 130.823188 59.763976 
L 131.229412 55.991069 
L 131.635637 53.757658 
L 132.041861 49.42546 
L 132.448086 46.865089 
L 132.85431 50.57886 
L 133.260534 56.753506 
L 133.666759 54.570507 
L 134.072983 47.317248 
L 134.479208 50.274275 
L 134.885432 50.99132 
L 135.291656 54.939851 
L 135.697881 50.449669 
L 136.51033 67.867188 
L 136.916554 66.437518 
L 137.322778 66.751433 
L 137.729003 68.579876 
L 138.135227 69.727726 
L 138.541452 67.680592 
L 138.947676 69.258117 
L 139.760125 76.975213 
L 140.166349 73.588641 
L 140.572574 75.58909 
L 140.978798 80.870117 
L 141.385023 80.480587 
L 141.791247 78.55542 
L 142.197471 73.489087 
L 142.603696 72.658385 
L 143.00992 75.17337 
L 143.416145 73.366333 
L 143.822369 70.594159 
L 144.634818 70.9125 
L 145.041042 69.920808 
L 145.447267 70.187118 
L 145.853491 69.233621 
L 147.072164 80.702638 
L 147.478389 78.254368 
L 147.884613 77.267766 
L 148.290837 73.302113 
L 148.697062 74.013826 
L 149.103286 78.373675 
L 149.509511 74.010349 
L 149.915735 74.081894 
L 150.321959 69.18904 
L 150.728184 66.909517 
L 151.134408 58.565952 
L 151.540633 59.403782 
L 152.353081 52.571891 
L 152.759306 54.688172 
L 153.16553 55.345718 
L 153.977979 66.822634 
L 154.384204 66.340122 
L 155.196652 60.884671 
L 155.602877 59.588411 
L 156.009101 56.298373 
L 156.415326 58.546449 
L 156.82155 59.585412 
L 157.227774 56.773795 
L 157.633999 55.122637 
L 158.040223 55.92393 
L 158.446448 50.888729 
L 158.852672 55.814163 
L 159.258896 57.791497 
L 159.665121 58.871881 
L 160.071345 55.759044 
L 160.47757 55.749951 
L 160.883794 60.559075 
L 161.290018 58.599562 
L 161.696243 54.453561 
L 162.508692 49.274772 
L 162.914916 56.420127 
L 163.32114 59.850721 
L 163.727365 58.012908 
L 164.133589 58.222156 
L 164.539814 56.230034 
L 164.946038 61.057652 
L 165.352262 61.292085 
L 165.758487 66.59028 
L 166.164711 74.038195 
L 166.570936 72.910611 
L 166.97716 69.69845 
L 167.383385 68.762098 
L 167.789609 68.887889 
L 168.195833 74.842681 
L 168.602058 71.007148 
L 169.008282 71.175058 
L 169.414507 63.704714 
L 169.820731 60.112375 
L 170.226955 67.756418 
L 170.63318 64.877978 
L 171.039404 70.201922 
L 171.445629 73.09731 
L 171.851853 74.053258 
L 172.258077 74.411848 
L 172.664302 72.896229 
L 173.476751 81.182338 
L 173.882975 78.89268 
L 174.289199 78.943193 
L 174.695424 78.278439 
L 175.101648 86.641312 
L 175.507873 87.316605 
L 176.320321 94.221948 
L 176.726546 90.707301 
L 177.538995 99.050672 
L 177.945219 100.312568 
L 178.351443 98.595954 
L 178.757668 101.96604 
L 179.570117 91.733989 
L 179.976341 95.094287 
L 180.382566 96.0286 
L 180.78879 98.997107 
L 181.195014 105.422208 
L 181.601239 104.267054 
L 182.007463 101.470405 
L 182.413688 93.800672 
L 182.819912 97.221823 
L 183.632361 87.010368 
L 184.038585 86.256102 
L 184.44481 83.960503 
L 184.851034 80.631366 
L 185.257258 73.1056 
L 185.663483 71.284073 
L 186.069707 71.513334 
L 186.475932 74.815388 
L 186.882156 73.651428 
L 187.28838 69.747053 
L 187.694605 68.814537 
L 188.100829 71.787801 
L 188.507054 71.44822 
L 188.913278 71.940586 
L 189.319502 70.931335 
L 189.725727 77.266719 
L 190.9444 71.201178 
L 191.350624 71.215523 
L 191.756849 78.100207 
L 192.163073 78.17387 
L 192.569298 74.130157 
L 192.975522 77.409185 
L 193.787971 90.865776 
L 194.60042 88.247134 
L 195.006644 84.868361 
L 195.412869 85.079022 
L 195.819093 90.798652 
L 196.225317 93.918996 
L 196.631542 90.797374 
L 197.037766 90.261768 
L 197.443991 87.784454 
L 197.850215 86.12693 
L 198.662664 87.571649 
L 199.068888 80.491907 
L 199.475113 78.911064 
L 199.881337 79.401273 
L 200.287561 77.665097 
L 200.693786 76.815324 
L 201.10001 85.039709 
L 201.506235 82.561424 
L 201.912459 75.619544 
L 202.318683 78.594168 
L 202.724908 73.051017 
L 203.131132 74.030269 
L 203.537357 72.911482 
L 203.943581 68.831001 
L 204.349805 71.575827 
L 204.75603 66.839128 
L 205.162254 71.46803 
L 205.568479 74.80434 
L 205.974703 77.066989 
L 206.380928 74.543258 
L 206.787152 75.842757 
L 207.193376 81.637282 
L 207.599601 82.46276 
L 208.005825 85.45241 
L 208.41205 82.664534 
L 208.818274 83.973033 
L 209.224498 83.703224 
L 209.630723 85.248987 
L 210.036947 83.594702 
L 210.443172 84.294597 
L 210.849396 83.054857 
L 211.25562 92.941508 
L 211.661845 92.570763 
L 212.068069 90.99282 
L 212.474294 91.752525 
L 213.286742 86.384877 
L 213.692967 81.412885 
L 214.099191 81.013317 
L 215.317864 103.128728 
L 215.724089 103.273239 
L 216.130313 103.872926 
L 216.536538 102.81983 
L 217.348986 108.011115 
L 218.161435 103.394583 
L 218.56766 104.372998 
L 218.973884 104.519681 
L 219.786333 101.055648 
L 220.192557 105.416791 
L 220.598782 108.159988 
L 221.005006 112.851139 
L 221.411231 114.783595 
L 221.817455 111.686774 
L 222.223679 109.604249 
L 222.629904 113.790474 
L 223.036128 111.837585 
L 223.442353 111.510329 
L 223.848577 113.393302 
L 224.254801 118.755081 
L 224.661026 119.421551 
L 225.06725 116.829434 
L 225.473475 125.075707 
L 225.879699 126.585828 
L 226.285923 117.991931 
L 226.692148 115.42767 
L 227.098372 114.437123 
L 227.910821 119.833423 
L 228.317045 120.150939 
L 228.72327 114.040419 
L 229.129494 112.265476 
L 229.535719 115.590364 
L 229.941943 111.104155 
L 230.348167 112.219598 
L 230.754392 105.748886 
L 231.160616 107.908919 
L 231.566841 111.733621 
L 231.973065 111.067889 
L 232.785514 103.36801 
L 233.191738 102.761131 
L 233.597963 106.528005 
L 234.004187 108.454491 
L 234.410412 116.14869 
L 234.816636 119.629739 
L 235.22286 120.310061 
L 235.629085 118.827087 
L 236.035309 120.121172 
L 236.441534 120.338391 
L 236.847758 121.84875 
L 237.253982 118.985652 
L 237.660207 122.413297 
L 238.066431 119.220353 
L 238.472656 111.744982 
L 238.87888 109.942589 
L 239.691329 113.996392 
L 240.097553 109.384187 
L 242.128675 130.611463 
L 242.5349 127.600147 
L 242.941124 123.397968 
L 243.347348 126.055386 
L 243.753573 125.264976 
L 244.159797 122.37088 
L 244.566022 121.987504 
L 244.972246 125.627986 
L 245.378471 131.233528 
L 245.784695 127.381523 
L 246.597144 123.290461 
L 247.003368 127.51309 
L 247.409593 126.617298 
L 247.815817 124.219393 
L 248.222041 123.022217 
L 248.628266 125.862433 
L 249.03449 122.003441 
L 249.440715 127.827159 
L 250.253163 120.165303 
L 250.659388 114.171184 
L 251.065612 115.476851 
L 251.471837 119.28693 
L 251.878061 116.260458 
L 252.284285 118.926043 
L 252.69051 118.758321 
L 253.096734 119.968566 
L 253.502959 123.407492 
L 253.909183 122.183761 
L 254.315407 127.490476 
L 254.721632 125.232839 
L 255.127856 128.919024 
L 255.534081 135.52082 
L 255.940305 135.711842 
L 256.346529 134.066345 
L 256.752754 131.866925 
L 257.158978 128.747155 
L 257.565203 137.719825 
L 257.971427 141.551689 
L 258.377652 141.145103 
L 258.783876 135.35428 
L 259.1901 132.366449 
L 259.596325 125.118062 
L 260.002549 127.119263 
L 260.408774 126.073116 
L 260.814998 130.266482 
L 261.221222 131.807974 
L 262.033671 137.028031 
L 262.439896 138.527958 
L 263.252344 138.432918 
L 263.658569 136.361137 
L 264.064793 135.827466 
L 264.471018 137.139054 
L 264.877242 139.131255 
L 265.283466 140.302119 
L 265.689691 142.013961 
L 266.095915 140.142256 
L 266.50214 136.842656 
L 266.908364 131.985677 
L 267.314588 135.026721 
L 267.720813 133.237356 
L 268.127037 138.554226 
L 268.533262 137.13159 
L 268.939486 133.004171 
L 269.34571 133.574444 
L 269.751935 129.485285 
L 270.564384 137.213532 
L 270.970608 137.731273 
L 271.376833 133.83435 
L 272.189281 137.154755 
L 272.595506 140.935092 
L 273.00173 140.161658 
L 273.407955 135.408942 
L 274.220403 130.081965 
L 274.626628 130.871004 
L 275.032852 133.018481 
L 275.439077 130.436649 
L 275.845301 130.558303 
L 276.251525 131.220141 
L 276.65775 127.795821 
L 277.063974 128.549837 
L 277.470199 131.743651 
L 277.876423 128.277596 
L 278.282647 127.969871 
L 279.095096 136.165966 
L 279.501321 135.802231 
L 279.907545 126.891437 
L 280.719994 129.670929 
L 281.126218 123.861929 
L 281.532443 124.0803 
L 282.344891 135.598116 
L 282.751116 130.921764 
L 283.563565 125.232054 
L 283.969789 125.452236 
L 284.376014 128.222646 
L 284.782238 129.050526 
L 285.188462 128.531941 
L 285.594687 131.727794 
L 286.000911 129.587406 
L 286.407136 134.389303 
L 286.81336 135.657864 
L 287.219584 136.435593 
L 287.625809 139.069935 
L 288.032033 147.477876 
L 288.438258 145.770484 
L 288.844482 148.651597 
L 289.250706 143.597664 
L 289.656931 144.901387 
L 290.063155 146.965186 
L 290.46938 146.616281 
L 290.875604 142.600303 
L 291.281828 144.748155 
L 291.688053 140.87972 
L 292.094277 135.388919 
L 292.500502 131.613559 
L 293.719175 114.710188 
L 294.125399 108.594092 
L 294.531624 107.800879 
L 294.937848 109.437188 
L 295.344072 118.061431 
L 295.750297 123.104022 
L 296.562746 126.26826 
L 296.96897 126.850751 
L 297.375195 130.665902 
L 297.781419 136.749408 
L 298.187643 137.245851 
L 298.593868 137.96796 
L 299.812541 147.459944 
L 300.218765 148.971593 
L 300.62499 152.236035 
L 301.031214 147.433073 
L 301.437439 146.514332 
L 301.843663 150.221053 
L 302.249887 151.290191 
L 302.656112 155.789737 
L 303.062336 151.931096 
L 303.874785 141.881281 
L 304.281009 146.245138 
L 304.687234 146.59307 
L 305.093458 148.123959 
L 305.499683 145.981423 
L 305.905907 149.823829 
L 306.312131 152.400499 
L 306.718356 153.975786 
L 307.12458 153.391412 
L 307.530805 150.745218 
L 307.937029 151.998411 
L 308.749478 146.333247 
L 309.155702 147.146077 
L 309.968151 156.359712 
L 310.374376 154.1039 
L 310.7806 155.919387 
L 311.186824 162.448362 
L 311.593049 160.111633 
L 311.999273 159.617739 
L 312.405498 164.977639 
L 312.811722 160.481393 
L 313.217946 157.291926 
L 313.624171 156.762994 
L 314.43662 166.967058 
L 314.842844 168.13768 
L 315.249068 174.671557 
L 315.655293 173.127289 
L 316.061517 178.505703 
L 316.467742 177.877014 
L 316.873966 178.975444 
L 317.28019 176.261939 
L 317.686415 179.837632 
L 318.092639 178.794106 
L 318.498864 184.111588 
L 318.905088 181.078753 
L 319.311312 181.517016 
L 319.717537 179.626708 
L 320.123761 184.660884 
L 320.529986 182.758249 
L 321.748659 179.012577 
L 322.154883 179.75011 
L 322.561108 175.017965 
L 322.967332 175.612287 
L 323.373557 178.430186 
L 323.779781 178.654065 
L 324.186005 182.277679 
L 324.59223 184.04655 
L 324.998454 184.722259 
L 325.404679 186.169215 
L 325.810903 185.409063 
L 326.217127 177.99133 
L 326.623352 175.814726 
L 327.029576 171.726846 
L 328.248249 177.326677 
L 328.654474 174.075249 
L 329.060698 182.264418 
L 329.466923 186.203102 
L 329.873147 185.812972 
L 330.279371 186.667268 
L 330.685596 179.165787 
L 331.09182 177.459106 
L 331.498045 179.983547 
L 331.904269 185.997782 
L 332.310493 187.296083 
L 332.716718 192.264286 
L 333.122942 190.484915 
L 333.529167 189.870737 
L 333.935391 188.650695 
L 334.341615 180.72435 
L 334.74784 184.183838 
L 335.154064 184.917332 
L 335.560289 189.539747 
L 335.966513 189.847009 
L 336.372738 183.773049 
L 336.778962 181.604936 
L 337.185186 182.041389 
L 337.591411 181.082111 
L 337.997635 185.698198 
L 338.40386 187.19921 
L 339.216308 186.495184 
L 339.622533 192.330279 
L 340.434982 190.016929 
L 340.841206 191.454343 
L 341.24743 191.438427 
L 342.059879 202.735224 
L 342.466104 202.221762 
L 342.872328 204.767291 
L 343.278552 204.811344 
L 343.684777 201.610994 
L 344.091001 202.274059 
L 344.497226 212.989033 
L 344.90345 213.563363 
L 345.309674 215.397224 
L 345.715899 216.291938 
L 346.122123 212.861937 
L 346.528348 218.879692 
L 346.934572 217.949668 
L 347.340796 211.963274 
L 347.747021 214.349527 
L 348.153245 212.548894 
L 348.55947 208.865093 
L 348.965694 208.063638 
L 349.778143 213.380273 
L 350.590592 208.287298 
L 350.996816 211.285513 
L 351.809265 220.653283 
L 352.215489 214.318648 
L 352.621714 214.577672 
L 353.027938 205.579886 
L 353.840387 201.786436 
L 354.246611 200.618848 
L 354.652836 196.809838 
L 355.05906 200.492714 
L 355.465285 192.2582 
L 355.871509 192.640575 
L 356.277733 195.322113 
L 356.683958 194.168675 
L 357.090182 190.004404 
L 357.496407 193.845457 
L 357.902631 191.684408 
L 358.308855 194.415673 
L 359.121304 198.211746 
L 359.527529 195.300934 
L 359.933753 199.528998 
L 360.339977 198.794697 
L 360.746202 200.103892 
L 361.152426 203.333671 
L 361.964875 212.545642 
L 362.3711 218.774084 
L 362.777324 215.357669 
L 363.183548 216.278911 
L 363.589773 215.67409 
L 363.995997 211.182536 
L 364.808446 219.423339 
L 365.21467 218.452299 
L 365.620895 225.40615 
L 366.027119 227.612332 
L 366.433344 231.138258 
L 366.839568 229.882035 
L 367.245792 231.505352 
L 367.652017 223.849782 
L 368.058241 220.274303 
L 368.464466 223.527063 
L 369.276914 226.328679 
L 369.683139 213.723185 
L 370.089363 219.480447 
L 370.495588 218.704502 
L 370.901812 226.650882 
L 371.308036 226.67733 
L 371.714261 219.396346 
L 372.120485 220.953481 
L 372.52671 216.742641 
L 372.932934 216.994689 
L 373.339158 218.605361 
L 373.745383 219.564738 
L 374.557832 224.18885 
L 374.964056 229.259887 
L 375.370281 223.515583 
L 375.776505 225.014089 
L 376.182729 223.894147 
L 376.588954 227.235707 
L 376.995178 222.977458 
L 377.401403 224.020322 
L 377.807627 224.367361 
L 378.213851 231.339881 
L 378.620076 229.83032 
L 379.0263 222.924404 
L 379.432525 226.237546 
L 379.838749 227.984431 
L 380.244973 232.324009 
L 380.651198 231.83161 
L 381.057422 231.587534 
L 381.869871 226.797231 
L 382.276095 229.894747 
L 382.68232 229.037188 
L 383.088544 230.288755 
L 383.494769 234.448047 
L 383.900993 234.931654 
L 384.307217 220.438767 
L 384.713442 211.612754 
L 385.119666 211.0797 
L 385.525891 204.450738 
L 386.338339 204.826328 
L 386.744564 212.258586 
L 387.557013 218.905647 
L 387.963237 218.495757 
L 388.369462 218.442445 
L 389.18191 222.894223 
L 389.588135 223.527641 
L 389.994359 228.79393 
L 390.400584 231.129462 
L 390.806808 232.583035 
L 391.213032 237.344343 
L 391.619257 238.603293 
L 392.025481 241.785788 
L 392.431706 237.0762 
L 393.244154 238.728237 
L 393.650379 237.096486 
L 394.056603 234.973182 
L 394.462828 241.592173 
L 394.869052 243.028569 
L 395.275276 246.49403 
L 395.681501 247.047455 
L 396.087725 249.09209 
L 396.49395 248.493301 
L 396.900174 252.231059 
L 397.712623 256.64918 
L 398.118847 252.522069 
L 398.931296 249.71285 
L 399.33752 250.804367 
L 399.743745 252.271009 
L 400.149969 250.132324 
L 400.556194 247.16855 
L 400.962418 247.110807 
L 401.774867 237.901158 
L 402.181091 244.247406 
L 402.587316 242.606693 
L 402.99354 242.769102 
L 403.399765 241.288848 
L 403.805989 237.034464 
L 404.212213 240.543787 
L 404.618438 246.72068 
L 405.024662 242.5036 
L 405.430887 246.310075 
L 405.837111 248.926116 
L 406.243335 248.14605 
L 406.64956 250.761643 
L 407.055784 256.831551 
L 407.462009 256.701211 
L 407.868233 259.680427 
L 408.274457 257.401235 
L 408.680682 259.330526 
L 409.086906 261.955056 
L 409.493131 262.755631 
L 410.305579 255.283398 
L 410.711804 259.451052 
L 411.118028 248.777861 
L 411.524253 250.019802 
L 411.930477 254.413101 
L 412.336701 251.026937 
L 412.742926 252.405724 
L 413.14915 244.195203 
L 413.555375 240.964669 
L 413.961599 241.722239 
L 414.367824 235.716772 
L 414.774048 232.479731 
L 415.180272 237.164589 
L 415.586497 233.777807 
L 415.992721 235.746787 
L 416.398946 236.064448 
L 416.80517 235.564835 
L 417.211394 238.916171 
L 417.617619 243.999207 
L 418.023843 242.597122 
L 418.430068 247.889418 
L 418.836292 257.706739 
L 419.242516 260.894184 
L 419.648741 259.631976 
L 420.054965 260.660831 
L 420.46119 255.830209 
L 420.867414 255.129694 
L 421.273638 258.05106 
L 421.679863 259.726863 
L 422.086087 265.20332 
L 422.492312 261.063988 
L 422.898536 266.329089 
L 423.30476 269.837915 
L 423.710985 270.448966 
L 424.117209 270.439995 
L 424.523434 276.168477 
L 424.929658 279.620607 
L 425.335882 278.610206 
L 425.742107 274.303416 
L 426.148331 272.972926 
L 426.554556 273.071319 
L 426.96078 279.027615 
L 427.367005 281.38108 
L 427.773229 279.393012 
L 428.585678 271.881646 
L 428.991902 271.355282 
L 429.398127 266.763042 
L 429.804351 255.778188 
L 430.210575 258.042139 
L 430.6168 260.951329 
L 431.023024 255.16249 
L 431.429249 254.264839 
L 431.835473 253.836694 
L 432.241697 252.340865 
L 432.647922 254.835932 
L 433.460371 261.743514 
L 433.866595 256.993653 
L 434.272819 262.470489 
L 434.679044 260.569492 
L 435.085268 262.695537 
L 435.491493 264.042661 
L 436.303941 257.992846 
L 436.710166 256.685333 
L 437.11639 263.826137 
L 437.928839 252.842425 
L 438.335063 252.493845 
L 438.741288 252.454739 
L 439.147512 245.587161 
L 439.553737 241.976104 
L 439.959961 242.087782 
L 440.366186 243.20225 
L 440.77241 243.940062 
L 441.584859 235.487447 
L 441.991083 241.638222 
L 442.397308 239.866888 
L 442.803532 236.57264 
L 443.209756 242.315657 
L 443.615981 242.326959 
L 444.022205 249.101497 
L 444.42843 248.607837 
L 444.834654 256.549652 
L 446.053327 264.180489 
L 446.459552 258.646898 
L 446.865776 256.605397 
L 447.272 258.128654 
L 447.678225 261.685782 
L 448.084449 262.596058 
L 448.490674 266.519295 
L 448.896898 262.809669 
L 449.303122 255.197495 
L 449.709347 251.182431 
L 450.115571 249.917944 
L 450.521796 250.549363 
L 450.92802 252.09373 
L 451.334244 245.440266 
L 451.740469 247.635877 
L 452.146693 241.684576 
L 452.552918 245.998289 
L 452.959142 247.127599 
L 453.365367 253.662014 
L 453.771591 253.054973 
L 453.771591 253.054973 
" style="fill:none;stroke:#8dd3c7;stroke-linecap:round;stroke-width:1.5;"/>
   </g>
   <g id="patch_3">
    <path d="M 27.6625 293.735625 
L 27.6625 21.935625 
" style="fill:none;stroke:#cccccc;stroke-linecap:square;stroke-linejoin:miter;"/>
   </g>
   <g id="patch_4">
    <path d="M 474.0625 293.735625 
L 474.0625 21.935625 
" style="fill:none;stroke:#cccccc;stroke-linecap:square;stroke-linejoin:miter;"/>
   </g>
   <g id="patch_5">
    <path d="M 27.6625 293.735625 
L 474.0625 293.735625 
" style="fill:none;stroke:#cccccc;stroke-linecap:square;stroke-linejoin:miter;"/>
   </g>
   <g id="patch_6">
    <path d="M 27.6625 21.935625 
L 474.0625 21.935625 
" style="fill:none;stroke:#cccccc;stroke-linecap:square;stroke-linejoin:miter;"/>
   </g>
   <g id="text_14">
    <!-- My fiirst matplotlib plot title -->
    <defs>
     <path d="M 7.421875 0 
L 7.421875 71.578125 
L 21.6875 71.578125 
L 38.625 20.90625 
Q 40.96875 13.8125 42.046875 10.296875 
Q 43.265625 14.203125 45.84375 21.78125 
L 62.984375 71.578125 
L 75.734375 71.578125 
L 75.734375 0 
L 66.609375 0 
L 66.609375 59.90625 
L 45.796875 0 
L 37.25 0 
L 16.546875 60.9375 
L 16.546875 0 
z
" id="ArialMT-77"/>
     <path d="M 6.203125 -19.96875 
L 5.21875 -11.71875 
Q 8.109375 -12.5 10.25 -12.5 
Q 13.1875 -12.5 14.9375 -11.515625 
Q 16.703125 -10.546875 17.828125 -8.796875 
Q 18.65625 -7.46875 20.515625 -2.25 
Q 20.75 -1.515625 21.296875 -0.09375 
L 1.609375 51.859375 
L 11.078125 51.859375 
L 21.875 21.828125 
Q 23.96875 16.109375 25.640625 9.8125 
Q 27.15625 15.875 29.25 21.625 
L 40.328125 51.859375 
L 49.125 51.859375 
L 29.390625 -0.875 
Q 26.21875 -9.421875 24.46875 -12.640625 
Q 22.125 -17 19.09375 -19.015625 
Q 16.0625 -21.046875 11.859375 -21.046875 
Q 9.328125 -21.046875 6.203125 -19.96875 
z
" id="ArialMT-121"/>
     <path id="ArialMT-32"/>
     <path d="M 6.59375 0 
L 6.59375 51.859375 
L 14.453125 51.859375 
L 14.453125 44.578125 
Q 16.890625 48.390625 20.9375 50.703125 
Q 25 53.03125 30.171875 53.03125 
Q 35.9375 53.03125 39.625 50.640625 
Q 43.3125 48.25 44.828125 43.953125 
Q 50.984375 53.03125 60.84375 53.03125 
Q 68.5625 53.03125 72.703125 48.75 
Q 76.859375 44.484375 76.859375 35.59375 
L 76.859375 0 
L 68.109375 0 
L 68.109375 32.671875 
Q 68.109375 37.9375 67.25 40.25 
Q 66.40625 42.578125 64.15625 43.984375 
Q 61.921875 45.40625 58.890625 45.40625 
Q 53.421875 45.40625 49.796875 41.765625 
Q 46.1875 38.140625 46.1875 30.125 
L 46.1875 0 
L 37.40625 0 
L 37.40625 33.6875 
Q 37.40625 39.546875 35.25 42.46875 
Q 33.109375 45.40625 28.21875 45.40625 
Q 24.515625 45.40625 21.359375 43.453125 
Q 18.21875 41.5 16.796875 37.734375 
Q 15.375 33.984375 15.375 26.90625 
L 15.375 0 
z
" id="ArialMT-109"/>
     <path d="M 6.59375 -19.875 
L 6.59375 51.859375 
L 14.59375 51.859375 
L 14.59375 45.125 
Q 17.4375 49.078125 21 51.046875 
Q 24.5625 53.03125 29.640625 53.03125 
Q 36.28125 53.03125 41.359375 49.609375 
Q 46.4375 46.1875 49.015625 39.953125 
Q 51.609375 33.734375 51.609375 26.3125 
Q 51.609375 18.359375 48.75 11.984375 
Q 45.90625 5.609375 40.453125 2.21875 
Q 35.015625 -1.171875 29 -1.171875 
Q 24.609375 -1.171875 21.109375 0.6875 
Q 17.625 2.546875 15.375 5.375 
L 15.375 -19.875 
z
M 14.546875 25.640625 
Q 14.546875 15.625 18.59375 10.84375 
Q 22.65625 6.0625 28.421875 6.0625 
Q 34.28125 6.0625 38.453125 11.015625 
Q 42.625 15.96875 42.625 26.375 
Q 42.625 36.28125 38.546875 41.203125 
Q 34.46875 46.140625 28.8125 46.140625 
Q 23.1875 46.140625 18.859375 40.890625 
Q 14.546875 35.640625 14.546875 25.640625 
z
" id="ArialMT-112"/>
     <path d="M 6.390625 0 
L 6.390625 71.578125 
L 15.1875 71.578125 
L 15.1875 0 
z
" id="ArialMT-108"/>
     <path d="M 14.703125 0 
L 6.546875 0 
L 6.546875 71.578125 
L 15.328125 71.578125 
L 15.328125 46.046875 
Q 20.90625 53.03125 29.546875 53.03125 
Q 34.328125 53.03125 38.59375 51.09375 
Q 42.875 49.171875 45.625 45.671875 
Q 48.390625 42.1875 49.953125 37.25 
Q 51.515625 32.328125 51.515625 26.703125 
Q 51.515625 13.375 44.921875 6.09375 
Q 38.328125 -1.171875 29.109375 -1.171875 
Q 19.921875 -1.171875 14.703125 6.5 
z
M 14.59375 26.3125 
Q 14.59375 17 17.140625 12.84375 
Q 21.296875 6.0625 28.375 6.0625 
Q 34.125 6.0625 38.328125 11.0625 
Q 42.53125 16.0625 42.53125 25.984375 
Q 42.53125 36.140625 38.5 40.96875 
Q 34.46875 45.796875 28.765625 45.796875 
Q 23 45.796875 18.796875 40.796875 
Q 14.59375 35.796875 14.59375 26.3125 
z
" id="ArialMT-98"/>
    </defs>
    <g style="fill:#262626;" transform="translate(180.5125 15.935625)scale(0.12 -0.12)">
     <use xlink:href="#ArialMT-77"/>
     <use x="83.300781" xlink:href="#ArialMT-121"/>
     <use x="133.300781" xlink:href="#ArialMT-32"/>
     <use x="161.083984" xlink:href="#ArialMT-102"/>
     <use x="188.867188" xlink:href="#ArialMT-105"/>
     <use x="211.083984" xlink:href="#ArialMT-105"/>
     <use x="233.300781" xlink:href="#ArialMT-114"/>
     <use x="266.601562" xlink:href="#ArialMT-115"/>
     <use x="316.601562" xlink:href="#ArialMT-116"/>
     <use x="344.384766" xlink:href="#ArialMT-32"/>
     <use x="372.167969" xlink:href="#ArialMT-109"/>
     <use x="455.46875" xlink:href="#ArialMT-97"/>
     <use x="511.083984" xlink:href="#ArialMT-116"/>
     <use x="538.867188" xlink:href="#ArialMT-112"/>
     <use x="594.482422" xlink:href="#ArialMT-108"/>
     <use x="616.699219" xlink:href="#ArialMT-111"/>
     <use x="672.314453" xlink:href="#ArialMT-116"/>
     <use x="700.097656" xlink:href="#ArialMT-108"/>
     <use x="722.314453" xlink:href="#ArialMT-105"/>
     <use x="744.53125" xlink:href="#ArialMT-98"/>
     <use x="800.146484" xlink:href="#ArialMT-32"/>
     <use x="827.929688" xlink:href="#ArialMT-112"/>
     <use x="883.544922" xlink:href="#ArialMT-108"/>
     <use x="905.761719" xlink:href="#ArialMT-111"/>
     <use x="961.376953" xlink:href="#ArialMT-116"/>
     <use x="989.160156" xlink:href="#ArialMT-32"/>
     <use x="1016.943359" xlink:href="#ArialMT-116"/>
     <use x="1044.726562" xlink:href="#ArialMT-105"/>
     <use x="1066.943359" xlink:href="#ArialMT-116"/>
     <use x="1094.726562" xlink:href="#ArialMT-108"/>
     <use x="1116.943359" xlink:href="#ArialMT-101"/>
    </g>
   </g>
  </g>
 </g>
 <defs>
  <clipPath id="p7bd7a4563a">
   <rect height="271.8" width="446.4" x="27.6625" y="21.935625"/>
  </clipPath>
 </defs>
</svg>
