<?xml version="1.0" encoding="utf-8" standalone="no"?>
<!DOCTYPE svg PUBLIC "-//W3C//DTD SVG 1.1//EN"
  "http://www.w3.org/Graphics/SVG/1.1/DTD/svg11.dtd">
<!-- Created with matplotlib (https://matplotlib.org/) -->
<svg height="298.845312pt" version="1.1" viewBox="0 0 481.2625 298.845312" width="481.2625pt" xmlns="http://www.w3.org/2000/svg" xmlns:xlink="http://www.w3.org/1999/xlink">
 <defs>
  <style type="text/css">
*{stroke-linecap:butt;stroke-linejoin:round;}
  </style>
 </defs>
 <g id="figure_1">
  <g id="patch_1">
   <path d="M 0 298.845312 
L 481.2625 298.845312 
L 481.2625 0 
L 0 0 
z
" style="fill:#ffffff;"/>
  </g>
  <g id="axes_1">
   <g id="patch_2">
    <path d="M 27.6625 279 
L 474.0625 279 
L 474.0625 7.2 
L 27.6625 7.2 
z
" style="fill:#ffffff;"/>
   </g>
   <g id="matplotlib.axis_1">
    <g id="xtick_1">
     <g id="line2d_1">
      <path clip-path="url(#p9740146669)" d="M 47.953409 279 
L 47.953409 7.2 
" style="fill:none;stroke:#cccccc;stroke-linecap:round;stroke-width:0.8;"/>
     </g>
     <g id="line2d_2"/>
     <g id="text_1">
      <!-- 0 -->
      <defs>
       <path d="M 4.15625 35.296875 
Q 4.15625 48 6.765625 55.734375 
Q 9.375 63.484375 14.515625 67.671875 
Q 19.671875 71.875 27.484375 71.875 
Q 33.25 71.875 37.59375 69.546875 
Q 41.9375 67.234375 44.765625 62.859375 
Q 47.609375 58.5 49.21875 52.21875 
Q 50.828125 45.953125 50.828125 35.296875 
Q 50.828125 22.703125 48.234375 14.96875 
Q 45.65625 7.234375 40.5 3 
Q 35.359375 -1.21875 27.484375 -1.21875 
Q 17.140625 -1.21875 11.234375 6.203125 
Q 4.15625 15.140625 4.15625 35.296875 
z
M 13.1875 35.296875 
Q 13.1875 17.671875 17.3125 11.828125 
Q 21.4375 6 27.484375 6 
Q 33.546875 6 37.671875 11.859375 
Q 41.796875 17.71875 41.796875 35.296875 
Q 41.796875 52.984375 37.671875 58.78125 
Q 33.546875 64.59375 27.390625 64.59375 
Q 21.34375 64.59375 17.71875 59.46875 
Q 13.1875 52.9375 13.1875 35.296875 
z
" id="ArialMT-48"/>
      </defs>
      <g style="fill:#262626;" transform="translate(45.17294 289.657812)scale(0.1 -0.1)">
       <use xlink:href="#ArialMT-48"/>
      </g>
     </g>
    </g>
    <g id="xtick_2">
     <g id="line2d_3">
      <path clip-path="url(#p9740146669)" d="M 129.117045 279 
L 129.117045 7.2 
" style="fill:none;stroke:#cccccc;stroke-linecap:round;stroke-width:0.8;"/>
     </g>
     <g id="line2d_4"/>
     <g id="text_2">
      <!-- 200 -->
      <defs>
       <path d="M 50.34375 8.453125 
L 50.34375 0 
L 3.03125 0 
Q 2.9375 3.171875 4.046875 6.109375 
Q 5.859375 10.9375 9.828125 15.625 
Q 13.8125 20.3125 21.34375 26.46875 
Q 33.015625 36.03125 37.109375 41.625 
Q 41.21875 47.21875 41.21875 52.203125 
Q 41.21875 57.421875 37.46875 61 
Q 33.734375 64.59375 27.734375 64.59375 
Q 21.390625 64.59375 17.578125 60.78125 
Q 13.765625 56.984375 13.71875 50.25 
L 4.6875 51.171875 
Q 5.609375 61.28125 11.65625 66.578125 
Q 17.71875 71.875 27.9375 71.875 
Q 38.234375 71.875 44.234375 66.15625 
Q 50.25 60.453125 50.25 52 
Q 50.25 47.703125 48.484375 43.546875 
Q 46.734375 39.40625 42.65625 34.8125 
Q 38.578125 30.21875 29.109375 22.21875 
Q 21.1875 15.578125 18.9375 13.203125 
Q 16.703125 10.84375 15.234375 8.453125 
z
" id="ArialMT-50"/>
      </defs>
      <g style="fill:#262626;" transform="translate(120.775639 289.657812)scale(0.1 -0.1)">
       <use xlink:href="#ArialMT-50"/>
       <use x="55.615234" xlink:href="#ArialMT-48"/>
       <use x="111.230469" xlink:href="#ArialMT-48"/>
      </g>
     </g>
    </g>
    <g id="xtick_3">
     <g id="line2d_5">
      <path clip-path="url(#p9740146669)" d="M 210.280682 279 
L 210.280682 7.2 
" style="fill:none;stroke:#cccccc;stroke-linecap:round;stroke-width:0.8;"/>
     </g>
     <g id="line2d_6"/>
     <g id="text_3">
      <!-- 400 -->
      <defs>
       <path d="M 32.328125 0 
L 32.328125 17.140625 
L 1.265625 17.140625 
L 1.265625 25.203125 
L 33.9375 71.578125 
L 41.109375 71.578125 
L 41.109375 25.203125 
L 50.78125 25.203125 
L 50.78125 17.140625 
L 41.109375 17.140625 
L 41.109375 0 
z
M 32.328125 25.203125 
L 32.328125 57.46875 
L 9.90625 25.203125 
z
" id="ArialMT-52"/>
      </defs>
      <g style="fill:#262626;" transform="translate(201.939276 289.657812)scale(0.1 -0.1)">
       <use xlink:href="#ArialMT-52"/>
       <use x="55.615234" xlink:href="#ArialMT-48"/>
       <use x="111.230469" xlink:href="#ArialMT-48"/>
      </g>
     </g>
    </g>
    <g id="xtick_4">
     <g id="line2d_7">
      <path clip-path="url(#p9740146669)" d="M 291.444318 279 
L 291.444318 7.2 
" style="fill:none;stroke:#cccccc;stroke-linecap:round;stroke-width:0.8;"/>
     </g>
     <g id="line2d_8"/>
     <g id="text_4">
      <!-- 600 -->
      <defs>
       <path d="M 49.75 54.046875 
L 41.015625 53.375 
Q 39.84375 58.546875 37.703125 60.890625 
Q 34.125 64.65625 28.90625 64.65625 
Q 24.703125 64.65625 21.53125 62.3125 
Q 17.390625 59.28125 14.984375 53.46875 
Q 12.59375 47.65625 12.5 36.921875 
Q 15.671875 41.75 20.265625 44.09375 
Q 24.859375 46.4375 29.890625 46.4375 
Q 38.671875 46.4375 44.84375 39.96875 
Q 51.03125 33.5 51.03125 23.25 
Q 51.03125 16.5 48.125 10.71875 
Q 45.21875 4.9375 40.140625 1.859375 
Q 35.0625 -1.21875 28.609375 -1.21875 
Q 17.625 -1.21875 10.6875 6.859375 
Q 3.765625 14.9375 3.765625 33.5 
Q 3.765625 54.25 11.421875 63.671875 
Q 18.109375 71.875 29.4375 71.875 
Q 37.890625 71.875 43.28125 67.140625 
Q 48.6875 62.40625 49.75 54.046875 
z
M 13.875 23.1875 
Q 13.875 18.65625 15.796875 14.5 
Q 17.71875 10.359375 21.1875 8.171875 
Q 24.65625 6 28.46875 6 
Q 34.03125 6 38.03125 10.484375 
Q 42.046875 14.984375 42.046875 22.703125 
Q 42.046875 30.125 38.078125 34.390625 
Q 34.125 38.671875 28.125 38.671875 
Q 22.171875 38.671875 18.015625 34.390625 
Q 13.875 30.125 13.875 23.1875 
z
" id="ArialMT-54"/>
      </defs>
      <g style="fill:#262626;" transform="translate(283.102912 289.657812)scale(0.1 -0.1)">
       <use xlink:href="#ArialMT-54"/>
       <use x="55.615234" xlink:href="#ArialMT-48"/>
       <use x="111.230469" xlink:href="#ArialMT-48"/>
      </g>
     </g>
    </g>
    <g id="xtick_5">
     <g id="line2d_9">
      <path clip-path="url(#p9740146669)" d="M 372.607955 279 
L 372.607955 7.2 
" style="fill:none;stroke:#cccccc;stroke-linecap:round;stroke-width:0.8;"/>
     </g>
     <g id="line2d_10"/>
     <g id="text_5">
      <!-- 800 -->
      <defs>
       <path d="M 17.671875 38.8125 
Q 12.203125 40.828125 9.5625 44.53125 
Q 6.9375 48.25 6.9375 53.421875 
Q 6.9375 61.234375 12.546875 66.546875 
Q 18.171875 71.875 27.484375 71.875 
Q 36.859375 71.875 42.578125 66.421875 
Q 48.296875 60.984375 48.296875 53.171875 
Q 48.296875 48.1875 45.671875 44.5 
Q 43.0625 40.828125 37.75 38.8125 
Q 44.34375 36.671875 47.78125 31.875 
Q 51.21875 27.09375 51.21875 20.453125 
Q 51.21875 11.28125 44.71875 5.03125 
Q 38.234375 -1.21875 27.640625 -1.21875 
Q 17.046875 -1.21875 10.546875 5.046875 
Q 4.046875 11.328125 4.046875 20.703125 
Q 4.046875 27.6875 7.59375 32.390625 
Q 11.140625 37.109375 17.671875 38.8125 
z
M 15.921875 53.71875 
Q 15.921875 48.640625 19.1875 45.40625 
Q 22.46875 42.1875 27.6875 42.1875 
Q 32.765625 42.1875 36.015625 45.375 
Q 39.265625 48.578125 39.265625 53.21875 
Q 39.265625 58.0625 35.90625 61.359375 
Q 32.5625 64.65625 27.59375 64.65625 
Q 22.5625 64.65625 19.234375 61.421875 
Q 15.921875 58.203125 15.921875 53.71875 
z
M 13.09375 20.65625 
Q 13.09375 16.890625 14.875 13.375 
Q 16.65625 9.859375 20.171875 7.921875 
Q 23.6875 6 27.734375 6 
Q 34.03125 6 38.125 10.046875 
Q 42.234375 14.109375 42.234375 20.359375 
Q 42.234375 26.703125 38.015625 30.859375 
Q 33.796875 35.015625 27.4375 35.015625 
Q 21.234375 35.015625 17.15625 30.90625 
Q 13.09375 26.8125 13.09375 20.65625 
z
" id="ArialMT-56"/>
      </defs>
      <g style="fill:#262626;" transform="translate(364.266548 289.657812)scale(0.1 -0.1)">
       <use xlink:href="#ArialMT-56"/>
       <use x="55.615234" xlink:href="#ArialMT-48"/>
       <use x="111.230469" xlink:href="#ArialMT-48"/>
      </g>
     </g>
    </g>
    <g id="xtick_6">
     <g id="line2d_11">
      <path clip-path="url(#p9740146669)" d="M 453.771591 279 
L 453.771591 7.2 
" style="fill:none;stroke:#cccccc;stroke-linecap:round;stroke-width:0.8;"/>
     </g>
     <g id="line2d_12"/>
     <g id="text_6">
      <!-- 1000 -->
      <defs>
       <path d="M 37.25 0 
L 28.46875 0 
L 28.46875 56 
Q 25.296875 52.984375 20.140625 49.953125 
Q 14.984375 46.921875 10.890625 45.40625 
L 10.890625 53.90625 
Q 18.265625 57.375 23.78125 62.296875 
Q 29.296875 67.234375 31.59375 71.875 
L 37.25 71.875 
z
" id="ArialMT-49"/>
      </defs>
      <g style="fill:#262626;" transform="translate(442.649716 289.657812)scale(0.1 -0.1)">
       <use xlink:href="#ArialMT-49"/>
       <use x="55.615234" xlink:href="#ArialMT-48"/>
       <use x="111.230469" xlink:href="#ArialMT-48"/>
       <use x="166.845703" xlink:href="#ArialMT-48"/>
      </g>
     </g>
    </g>
   </g>
   <g id="matplotlib.axis_2">
    <g id="ytick_1">
     <g id="line2d_13">
      <path clip-path="url(#p9740146669)" d="M 27.6625 266.645455 
L 474.0625 266.645455 
" style="fill:none;stroke:#cccccc;stroke-linecap:round;stroke-width:0.8;"/>
     </g>
     <g id="line2d_14"/>
     <g id="text_7">
      <!-- −30 -->
      <defs>
       <path d="M 52.828125 31.203125 
L 5.5625 31.203125 
L 5.5625 39.40625 
L 52.828125 39.40625 
z
" id="ArialMT-8722"/>
       <path d="M 4.203125 18.890625 
L 12.984375 20.0625 
Q 14.5 12.59375 18.140625 9.296875 
Q 21.78125 6 27 6 
Q 33.203125 6 37.46875 10.296875 
Q 41.75 14.59375 41.75 20.953125 
Q 41.75 27 37.796875 30.921875 
Q 33.84375 34.859375 27.734375 34.859375 
Q 25.25 34.859375 21.53125 33.890625 
L 22.515625 41.609375 
Q 23.390625 41.5 23.921875 41.5 
Q 29.546875 41.5 34.03125 44.421875 
Q 38.53125 47.359375 38.53125 53.46875 
Q 38.53125 58.296875 35.25 61.46875 
Q 31.984375 64.65625 26.8125 64.65625 
Q 21.6875 64.65625 18.265625 61.421875 
Q 14.84375 58.203125 13.875 51.765625 
L 5.078125 53.328125 
Q 6.6875 62.15625 12.390625 67.015625 
Q 18.109375 71.875 26.609375 71.875 
Q 32.46875 71.875 37.390625 69.359375 
Q 42.328125 66.84375 44.9375 62.5 
Q 47.5625 58.15625 47.5625 53.265625 
Q 47.5625 48.640625 45.0625 44.828125 
Q 42.578125 41.015625 37.703125 38.765625 
Q 44.046875 37.3125 47.5625 32.6875 
Q 51.078125 28.078125 51.078125 21.140625 
Q 51.078125 11.765625 44.234375 5.25 
Q 37.40625 -1.265625 26.953125 -1.265625 
Q 17.53125 -1.265625 11.296875 4.34375 
Q 5.078125 9.96875 4.203125 18.890625 
z
" id="ArialMT-51"/>
      </defs>
      <g style="fill:#262626;" transform="translate(7.2 270.224361)scale(0.1 -0.1)">
       <use xlink:href="#ArialMT-8722"/>
       <use x="58.398438" xlink:href="#ArialMT-51"/>
       <use x="114.013672" xlink:href="#ArialMT-48"/>
      </g>
     </g>
    </g>
    <g id="ytick_2">
     <g id="line2d_15">
      <path clip-path="url(#p9740146669)" d="M 27.6625 212.93004 
L 474.0625 212.93004 
" style="fill:none;stroke:#cccccc;stroke-linecap:round;stroke-width:0.8;"/>
     </g>
     <g id="line2d_16"/>
     <g id="text_8">
      <!-- −20 -->
      <g style="fill:#262626;" transform="translate(7.2 216.508946)scale(0.1 -0.1)">
       <use xlink:href="#ArialMT-8722"/>
       <use x="58.398438" xlink:href="#ArialMT-50"/>
       <use x="114.013672" xlink:href="#ArialMT-48"/>
      </g>
     </g>
    </g>
    <g id="ytick_3">
     <g id="line2d_17">
      <path clip-path="url(#p9740146669)" d="M 27.6625 159.214625 
L 474.0625 159.214625 
" style="fill:none;stroke:#cccccc;stroke-linecap:round;stroke-width:0.8;"/>
     </g>
     <g id="line2d_18"/>
     <g id="text_9">
      <!-- −10 -->
      <g style="fill:#262626;" transform="translate(7.2 162.793531)scale(0.1 -0.1)">
       <use xlink:href="#ArialMT-8722"/>
       <use x="58.398438" xlink:href="#ArialMT-49"/>
       <use x="114.013672" xlink:href="#ArialMT-48"/>
      </g>
     </g>
    </g>
    <g id="ytick_4">
     <g id="line2d_19">
      <path clip-path="url(#p9740146669)" d="M 27.6625 105.499209 
L 474.0625 105.499209 
" style="fill:none;stroke:#cccccc;stroke-linecap:round;stroke-width:0.8;"/>
     </g>
     <g id="line2d_20"/>
     <g id="text_10">
      <!-- 0 -->
      <g style="fill:#262626;" transform="translate(18.601563 109.078116)scale(0.1 -0.1)">
       <use xlink:href="#ArialMT-48"/>
      </g>
     </g>
    </g>
    <g id="ytick_5">
     <g id="line2d_21">
      <path clip-path="url(#p9740146669)" d="M 27.6625 51.783794 
L 474.0625 51.783794 
" style="fill:none;stroke:#cccccc;stroke-linecap:round;stroke-width:0.8;"/>
     </g>
     <g id="line2d_22"/>
     <g id="text_11">
      <!-- 10 -->
      <g style="fill:#262626;" transform="translate(13.040625 55.362701)scale(0.1 -0.1)">
       <use xlink:href="#ArialMT-49"/>
       <use x="55.615234" xlink:href="#ArialMT-48"/>
      </g>
     </g>
    </g>
   </g>
   <g id="line2d_23">
    <path clip-path="url(#p9740146669)" d="M 47.953409 105.499209 
L 48.359227 110.870751 
L 48.765045 105.499209 
L 49.170864 110.870751 
L 50.388318 94.756126 
L 52.011591 116.242292 
L 52.417409 110.870751 
L 53.229045 121.613834 
L 54.040682 110.870751 
L 54.4465 116.242292 
L 57.693045 73.26996 
L 58.504682 84.013043 
L 58.9105 78.641502 
L 59.316318 84.013043 
L 60.127955 73.26996 
L 60.533773 78.641502 
L 61.345409 67.898419 
L 62.157045 78.641502 
L 63.3745 62.526877 
L 65.403591 89.384585 
L 65.809409 84.013043 
L 66.215227 89.384585 
L 66.621045 84.013043 
L 67.026864 89.384585 
L 67.8385 78.641502 
L 69.055955 94.756126 
L 70.679227 73.26996 
L 71.490864 84.013043 
L 72.3025 73.26996 
L 72.708318 78.641502 
L 73.114136 73.26996 
L 75.143227 100.127668 
L 76.360682 84.013043 
L 76.7665 89.384585 
L 77.578136 78.641502 
L 77.983955 84.013043 
L 78.389773 78.641502 
L 79.201409 89.384585 
L 81.636318 57.155336 
L 82.042136 62.526877 
L 82.447955 57.155336 
L 83.259591 67.898419 
L 83.665409 62.526877 
L 84.071227 67.898419 
L 85.288682 51.783794 
L 86.506136 67.898419 
L 87.317773 57.155336 
L 87.723591 62.526877 
L 88.129409 57.155336 
L 88.941045 67.898419 
L 90.1585 51.783794 
L 90.564318 57.155336 
L 90.970136 51.783794 
L 91.781773 62.526877 
L 92.187591 57.155336 
L 92.593409 62.526877 
L 93.405045 51.783794 
L 93.810864 57.155336 
L 94.216682 51.783794 
L 94.6225 57.155336 
L 96.651591 30.297628 
L 97.057409 35.66917 
L 97.463227 30.297628 
L 97.869045 35.66917 
L 99.0865 19.554545 
L 99.492318 24.926087 
L 99.898136 19.554545 
L 100.709773 30.297628 
L 101.521409 19.554545 
L 103.144682 41.040711 
L 103.5505 35.66917 
L 104.362136 46.412253 
L 104.767955 41.040711 
L 105.579591 51.783794 
L 105.985409 46.412253 
L 106.391227 51.783794 
L 107.202864 41.040711 
L 108.420318 57.155336 
L 108.826136 51.783794 
L 109.637773 62.526877 
L 110.043591 57.155336 
L 110.449409 62.526877 
L 110.855227 57.155336 
L 111.261045 62.526877 
L 111.666864 57.155336 
L 112.4785 67.898419 
L 113.290136 57.155336 
L 114.507591 73.26996 
L 114.913409 67.898419 
L 115.319227 73.26996 
L 116.9425 51.783794 
L 119.783227 89.384585 
L 120.594864 78.641502 
L 121.000682 84.013043 
L 123.029773 57.155336 
L 125.464682 89.384585 
L 125.8705 84.013043 
L 126.682136 94.756126 
L 127.493773 84.013043 
L 127.899591 89.384585 
L 129.117045 73.26996 
L 129.522864 78.641502 
L 129.928682 73.26996 
L 130.3345 78.641502 
L 131.957773 57.155336 
L 133.175227 73.26996 
L 133.581045 67.898419 
L 133.986864 73.26996 
L 134.7985 62.526877 
L 135.204318 67.898419 
L 136.015955 57.155336 
L 136.421773 62.526877 
L 136.827591 57.155336 
L 137.233409 62.526877 
L 137.639227 57.155336 
L 138.045045 62.526877 
L 138.450864 57.155336 
L 138.856682 62.526877 
L 140.074136 46.412253 
L 142.914864 84.013043 
L 143.7265 73.26996 
L 145.755591 100.127668 
L 146.973045 84.013043 
L 147.784682 94.756126 
L 148.596318 84.013043 
L 149.407955 94.756126 
L 151.437045 67.898419 
L 151.842864 73.26996 
L 152.6545 62.526877 
L 153.466136 73.26996 
L 154.277773 62.526877 
L 155.495227 78.641502 
L 155.901045 73.26996 
L 156.306864 78.641502 
L 156.712682 73.26996 
L 157.524318 84.013043 
L 157.930136 78.641502 
L 158.335955 84.013043 
L 159.959227 62.526877 
L 160.365045 67.898419 
L 160.770864 62.526877 
L 162.394136 84.013043 
L 162.799955 78.641502 
L 164.017409 94.756126 
L 165.234864 78.641502 
L 166.452318 94.756126 
L 166.858136 89.384585 
L 168.887227 116.242292 
L 169.698864 105.499209 
L 170.916318 121.613834 
L 171.727955 110.870751 
L 172.945409 126.985375 
L 173.757045 116.242292 
L 174.568682 126.985375 
L 174.9745 121.613834 
L 175.380318 126.985375 
L 176.597773 110.870751 
L 177.409409 121.613834 
L 177.815227 116.242292 
L 178.626864 126.985375 
L 179.032682 121.613834 
L 179.4385 126.985375 
L 180.250136 116.242292 
L 180.655955 121.613834 
L 181.061773 116.242292 
L 181.873409 126.985375 
L 183.090864 110.870751 
L 183.9025 121.613834 
L 184.308318 116.242292 
L 185.119955 126.985375 
L 185.525773 121.613834 
L 185.931591 126.985375 
L 186.337409 121.613834 
L 187.149045 132.356917 
L 187.960682 121.613834 
L 188.772318 132.356917 
L 189.989773 116.242292 
L 190.801409 126.985375 
L 192.018864 110.870751 
L 192.424682 116.242292 
L 192.8305 110.870751 
L 193.642136 121.613834 
L 194.047955 116.242292 
L 194.453773 121.613834 
L 195.265409 110.870751 
L 197.2945 137.728458 
L 198.917773 116.242292 
L 199.729409 126.985375 
L 200.135227 121.613834 
L 204.599227 180.700791 
L 205.816682 164.586166 
L 206.628318 175.329249 
L 207.439955 164.586166 
L 208.251591 175.329249 
L 208.657409 169.957708 
L 209.874864 186.072332 
L 210.6865 175.329249 
L 211.498136 186.072332 
L 212.309773 175.329249 
L 213.933045 196.815415 
L 214.744682 186.072332 
L 215.1505 191.443874 
L 215.556318 186.072332 
L 216.773773 202.186957 
L 217.179591 196.815415 
L 217.991227 207.558498 
L 218.397045 202.186957 
L 219.208682 212.93004 
L 220.426136 196.815415 
L 220.831955 202.186957 
L 221.237773 196.815415 
L 221.643591 202.186957 
L 222.455227 191.443874 
L 222.861045 196.815415 
L 223.672682 186.072332 
L 224.484318 196.815415 
L 225.701773 180.700791 
L 226.107591 186.072332 
L 227.325045 169.957708 
L 227.730864 175.329249 
L 228.136682 169.957708 
L 228.5425 175.329249 
L 229.354136 164.586166 
L 229.759955 169.957708 
L 230.571591 159.214625 
L 233.0065 191.443874 
L 233.818136 180.700791 
L 234.223955 186.072332 
L 234.629773 180.700791 
L 236.658864 207.558498 
L 237.876318 191.443874 
L 238.687955 202.186957 
L 239.093773 196.815415 
L 240.717045 218.301581 
L 242.340318 196.815415 
L 242.746136 202.186957 
L 243.151955 196.815415 
L 244.775227 218.301581 
L 245.181045 212.93004 
L 245.586864 218.301581 
L 246.3985 207.558498 
L 247.210136 218.301581 
L 248.833409 196.815415 
L 249.239227 202.186957 
L 249.645045 196.815415 
L 251.268318 218.301581 
L 251.674136 212.93004 
L 252.485773 223.673123 
L 253.703227 207.558498 
L 254.920682 223.673123 
L 255.732318 212.93004 
L 258.167227 245.159289 
L 259.384682 229.044664 
L 261.413773 255.902372 
L 261.819591 250.53083 
L 262.225409 255.902372 
L 263.848682 234.416206 
L 264.2545 239.787747 
L 264.660318 234.416206 
L 265.066136 239.787747 
L 265.471955 234.416206 
L 266.283591 245.159289 
L 267.095227 234.416206 
L 267.906864 245.159289 
L 268.312682 239.787747 
L 268.7185 245.159289 
L 269.124318 239.787747 
L 269.530136 245.159289 
L 269.935955 239.787747 
L 270.341773 245.159289 
L 271.965045 223.673123 
L 272.370864 229.044664 
L 272.776682 223.673123 
L 273.1825 229.044664 
L 273.588318 223.673123 
L 274.399955 234.416206 
L 275.211591 223.673123 
L 276.023227 234.416206 
L 276.429045 229.044664 
L 276.834864 234.416206 
L 277.240682 229.044664 
L 277.6465 234.416206 
L 278.458136 223.673123 
L 278.863955 229.044664 
L 279.675591 218.301581 
L 280.487227 229.044664 
L 282.516318 202.186957 
L 282.922136 207.558498 
L 284.545409 186.072332 
L 285.762864 202.186957 
L 286.5745 191.443874 
L 287.386136 202.186957 
L 287.791955 196.815415 
L 288.197773 202.186957 
L 289.009409 191.443874 
L 290.226864 207.558498 
L 291.0385 196.815415 
L 292.255955 212.93004 
L 293.879227 191.443874 
L 295.908318 218.301581 
L 296.719955 207.558498 
L 297.937409 223.673123 
L 298.749045 212.93004 
L 299.9665 229.044664 
L 300.372318 223.673123 
L 301.183955 234.416206 
L 301.589773 229.044664 
L 301.995591 234.416206 
L 302.401409 229.044664 
L 302.807227 234.416206 
L 303.618864 223.673123 
L 304.024682 229.044664 
L 304.4305 223.673123 
L 304.836318 229.044664 
L 305.242136 223.673123 
L 305.647955 229.044664 
L 307.271227 207.558498 
L 310.923591 255.902372 
L 312.141045 239.787747 
L 312.546864 245.159289 
L 314.575955 218.301581 
L 314.981773 223.673123 
L 315.387591 218.301581 
L 316.199227 229.044664 
L 316.605045 223.673123 
L 317.416682 234.416206 
L 318.228318 223.673123 
L 318.634136 229.044664 
L 319.039955 223.673123 
L 319.445773 229.044664 
L 319.851591 223.673123 
L 321.069045 239.787747 
L 321.474864 234.416206 
L 322.2865 245.159289 
L 322.692318 239.787747 
L 324.315591 261.273913 
L 324.721409 255.902372 
L 325.533045 266.645455 
L 326.344682 255.902372 
L 326.7505 261.273913 
L 327.967955 245.159289 
L 328.373773 250.53083 
L 328.779591 245.159289 
L 329.185409 250.53083 
L 329.997045 239.787747 
L 330.402864 245.159289 
L 330.808682 239.787747 
L 332.026136 255.902372 
L 333.649409 234.416206 
L 334.055227 239.787747 
L 334.461045 234.416206 
L 334.866864 239.787747 
L 336.084318 223.673123 
L 336.895955 234.416206 
L 337.301773 229.044664 
L 337.707591 234.416206 
L 338.519227 223.673123 
L 340.954136 255.902372 
L 342.171591 239.787747 
L 342.983227 250.53083 
L 343.389045 245.159289 
L 343.794864 250.53083 
L 344.200682 245.159289 
L 344.6065 250.53083 
L 345.418136 239.787747 
L 345.823955 245.159289 
L 346.635591 234.416206 
L 347.447227 245.159289 
L 348.258864 234.416206 
L 349.0705 245.159289 
L 351.505409 212.93004 
L 352.317045 223.673123 
L 353.128682 212.93004 
L 354.751955 234.416206 
L 355.563591 223.673123 
L 355.969409 229.044664 
L 356.375227 223.673123 
L 356.781045 229.044664 
L 357.9985 212.93004 
L 358.404318 218.301581 
L 359.215955 207.558498 
L 359.621773 212.93004 
L 360.027591 207.558498 
L 360.433409 212.93004 
L 360.839227 207.558498 
L 361.245045 212.93004 
L 361.650864 207.558498 
L 362.056682 212.93004 
L 362.4625 207.558498 
L 363.274136 218.301581 
L 364.491591 202.186957 
L 364.897409 207.558498 
L 366.520682 186.072332 
L 366.9265 191.443874 
L 367.332318 186.072332 
L 368.143955 196.815415 
L 370.578864 164.586166 
L 371.796318 180.700791 
L 373.419591 159.214625 
L 373.825409 164.586166 
L 374.231227 159.214625 
L 375.448682 175.329249 
L 376.666136 159.214625 
L 377.071955 164.586166 
L 377.477773 159.214625 
L 377.883591 164.586166 
L 378.289409 159.214625 
L 379.101045 169.957708 
L 379.912682 159.214625 
L 381.130136 175.329249 
L 381.535955 169.957708 
L 381.941773 175.329249 
L 382.347591 169.957708 
L 383.970864 191.443874 
L 384.7825 180.700791 
L 385.188318 186.072332 
L 386.405773 169.957708 
L 387.217409 180.700791 
L 388.029045 169.957708 
L 388.434864 175.329249 
L 389.2465 164.586166 
L 390.463955 180.700791 
L 390.869773 175.329249 
L 391.275591 180.700791 
L 391.681409 175.329249 
L 392.087227 180.700791 
L 393.304682 164.586166 
L 393.7105 169.957708 
L 394.116318 164.586166 
L 394.522136 169.957708 
L 395.333773 159.214625 
L 395.739591 164.586166 
L 396.957045 148.471542 
L 398.1745 164.586166 
L 398.580318 159.214625 
L 399.797773 175.329249 
L 400.609409 164.586166 
L 401.015227 169.957708 
L 401.421045 164.586166 
L 402.232682 175.329249 
L 402.6385 169.957708 
L 404.261773 191.443874 
L 404.667591 186.072332 
L 405.073409 191.443874 
L 405.479227 186.072332 
L 406.290864 196.815415 
L 407.508318 180.700791 
L 407.914136 186.072332 
L 408.319955 180.700791 
L 409.537409 196.815415 
L 410.349045 186.072332 
L 410.754864 191.443874 
L 411.972318 175.329249 
L 412.378136 180.700791 
L 413.189773 169.957708 
L 413.595591 175.329249 
L 414.407227 164.586166 
L 414.813045 169.957708 
L 416.0305 153.843083 
L 416.436318 159.214625 
L 417.247955 148.471542 
L 418.059591 159.214625 
L 418.871227 148.471542 
L 419.277045 153.843083 
L 419.682864 148.471542 
L 420.088682 153.843083 
L 420.4945 148.471542 
L 422.523591 175.329249 
L 423.335227 164.586166 
L 424.146864 175.329249 
L 424.552682 169.957708 
L 425.364318 180.700791 
L 425.770136 175.329249 
L 426.175955 180.700791 
L 426.581773 175.329249 
L 426.987591 180.700791 
L 427.393409 175.329249 
L 428.610864 191.443874 
L 429.016682 186.072332 
L 429.4225 191.443874 
L 430.234136 180.700791 
L 431.451591 196.815415 
L 431.857409 191.443874 
L 432.263227 196.815415 
L 432.669045 191.443874 
L 433.480682 202.186957 
L 433.8865 196.815415 
L 434.292318 202.186957 
L 435.915591 180.700791 
L 436.727227 191.443874 
L 437.133045 186.072332 
L 437.538864 191.443874 
L 437.944682 186.072332 
L 438.3505 191.443874 
L 439.567955 175.329249 
L 441.597045 202.186957 
L 443.220318 180.700791 
L 443.626136 186.072332 
L 444.031955 180.700791 
L 444.437773 186.072332 
L 445.655227 169.957708 
L 448.090136 202.186957 
L 448.901773 191.443874 
L 449.307591 196.815415 
L 450.525045 180.700791 
L 451.336682 191.443874 
L 452.959955 169.957708 
L 453.771591 180.700791 
L 453.771591 180.700791 
" style="fill:none;stroke:#8dd3c7;stroke-linecap:round;stroke-width:1.5;"/>
   </g>
   <g id="patch_3">
    <path d="M 27.6625 279 
L 27.6625 7.2 
" style="fill:none;stroke:#cccccc;stroke-linecap:square;stroke-linejoin:miter;"/>
   </g>
   <g id="patch_4">
    <path d="M 474.0625 279 
L 474.0625 7.2 
" style="fill:none;stroke:#cccccc;stroke-linecap:square;stroke-linejoin:miter;"/>
   </g>
   <g id="patch_5">
    <path d="M 27.6625 279 
L 474.0625 279 
" style="fill:none;stroke:#cccccc;stroke-linecap:square;stroke-linejoin:miter;"/>
   </g>
   <g id="patch_6">
    <path d="M 27.6625 7.2 
L 474.0625 7.2 
" style="fill:none;stroke:#cccccc;stroke-linecap:square;stroke-linejoin:miter;"/>
   </g>
  </g>
 </g>
 <defs>
  <clipPath id="p9740146669">
   <rect height="271.8" width="446.4" x="27.6625" y="7.2"/>
  </clipPath>
 </defs>
</svg>
